<svg width="735" height="193" viewBox="0 0 735 193" fill="none" xmlns="http://www.w3.org/2000/svg">
<path d="M58.5938 35.1875C64.2188 35.3958 69.8958 36.4375 75.625 38.3125C81.4583 40.0833 86.8229 43 91.7188 47.0625C96.6146 51.0208 100.781 56.1771 104.219 62.5312C107.656 68.7812 109.792 76.4375 110.625 85.5C111.354 92.8958 110.417 100.24 107.812 107.531C105.312 114.719 101.823 121.333 97.3438 127.375C92.8646 133.417 87.7083 138.573 81.875 142.844C76.0417 147.01 70.2083 149.771 64.375 151.125C60.8333 151.958 56.9271 152.062 52.6562 151.438C48.4896 150.708 44.2188 149.406 39.8438 147.531C35.5729 145.552 31.3542 143.052 27.1875 140.031C23.125 137.01 19.4271 133.573 16.0938 129.719C12.7604 125.76 9.94792 121.49 7.65625 116.906C5.46875 112.323 4.11458 107.531 3.59375 102.531C3.07292 98.3646 3.02083 93.7812 3.4375 88.7812C3.95833 83.6771 4.94792 78.625 6.40625 73.625C7.96875 68.5208 10.1042 63.625 12.8125 58.9375C15.625 54.1458 19.1667 49.9792 23.4375 46.4375C27.7083 42.7917 32.7083 39.9792 38.4375 38C44.2708 35.9167 50.9896 34.9792 58.5938 35.1875ZM30.625 98.4688C29.1667 109.615 30.2083 118.573 33.75 125.344C37.3958 132.115 42.8646 136.229 50.1562 137.688C53.6979 138.417 57.0833 137.688 60.3125 135.5C63.6458 133.208 66.6667 129.927 69.375 125.656C72.0833 121.385 74.4271 116.385 76.4062 110.656C78.3854 104.927 79.8438 98.9375 80.7812 92.6875C81.7188 86.4375 81.7708 80.8125 80.9375 75.8125C80.2083 70.7083 78.9062 66.3854 77.0312 62.8438C75.1562 59.1979 72.8646 56.3854 70.1562 54.4062C67.5521 52.4271 64.8438 51.3333 62.0312 51.125C57.1354 50.8125 52.8646 52.1146 49.2188 55.0312C45.5729 57.8438 42.5 61.5417 40 66.125C37.5 70.7083 35.4688 75.8646 33.9062 81.5938C32.4479 87.3229 31.3542 92.9479 30.625 98.4688ZM114.844 78.1562C116.823 78.2604 118.594 78.3125 120.156 78.3125C121.823 78.2083 123.229 78.1042 124.375 78C125.729 77.8958 126.927 77.7917 127.969 77.6875C129.531 77.4792 131.146 77.2188 132.812 76.9062C134.271 76.6979 135.781 76.4375 137.344 76.125C139.01 75.7083 140.625 75.2396 142.188 74.7188C141.562 76.2812 141.042 77.6354 140.625 78.7812C140.208 79.9271 139.896 80.9167 139.688 81.75C139.375 82.6875 139.219 83.4688 139.219 84.0938C139.115 84.8229 139.062 85.7083 139.062 86.75C138.958 88.5208 138.958 91.3854 139.062 95.3438C144.479 90.6562 149.01 87.0104 152.656 84.4062C156.406 81.8021 159.375 79.7708 161.562 78.3125C164.167 76.6458 166.198 75.5521 167.656 75.0312C171.51 74.4062 174.896 75.2917 177.812 77.6875C179.062 78.7292 180.26 80.1354 181.406 81.9062C182.552 83.5729 183.542 85.8125 184.375 88.625C185.208 91.4375 185.833 94.8229 186.25 98.7812C186.667 102.635 186.719 107.271 186.406 112.688C184.219 112.896 182.24 113.104 180.469 113.312C178.802 113.521 177.396 113.677 176.25 113.781C174.896 113.99 173.646 114.094 172.5 114.094L168.281 114.562C166.823 114.771 165 114.979 162.812 115.188C160.729 115.292 158.177 115.5 155.156 115.812C159.531 112.271 162.344 109.198 163.594 106.594C164.948 103.885 165.521 101.646 165.312 99.875C165.104 97.8958 164.167 96.1771 162.5 94.7188C160.521 93.5729 158.385 93.1562 156.094 93.4688C154.115 93.6771 151.823 94.5625 149.219 96.125C146.615 97.6875 143.854 100.604 140.938 104.875C141.146 111.542 141.354 117.062 141.562 121.438C141.875 125.812 142.135 129.354 142.344 132.062C142.656 135.188 142.917 137.635 143.125 139.406C143.438 140.969 144.062 142.635 145 144.406C145.729 145.865 146.771 147.479 148.125 149.25C149.479 151.021 151.25 152.792 153.438 154.562C148.854 154.354 145.104 154.354 142.188 154.562C140.417 154.667 138.854 154.771 137.5 154.875C136.042 155.083 134.479 155.292 132.812 155.5C131.354 155.708 129.635 155.917 127.656 156.125C125.781 156.438 123.698 156.75 121.406 157.062C122.24 155.917 122.917 154.562 123.438 153C123.958 151.542 124.375 150.135 124.688 148.781C125.104 147.219 125.417 145.604 125.625 143.938C125.729 142.479 125.781 140.292 125.781 137.375C125.885 134.458 125.833 131.177 125.625 127.531C125.521 123.781 125.365 119.927 125.156 115.969C124.948 111.906 124.688 108.104 124.375 104.562C124.062 101.021 123.698 97.9479 123.281 95.3438C122.969 92.6354 122.604 90.7604 122.188 89.7188C121.667 88.4688 121.042 87.2188 120.312 85.9688C119.688 84.8229 118.906 83.625 117.969 82.375C117.031 81.0208 115.99 79.6146 114.844 78.1562ZM269.688 33.3125C271.667 33.4167 273.802 33.4688 276.094 33.4688C278.073 33.4688 280.312 33.5208 282.812 33.625C285.417 33.625 288.125 33.5208 290.938 33.3125C288.438 34.4583 286.25 36.125 284.375 38.3125C282.5 40.5 280.99 42.6875 279.844 44.875C278.385 47.4792 277.188 50.1875 276.25 53C275.729 54.6667 275.312 57.6354 275 61.9062C274.688 66.0729 274.427 70.9688 274.219 76.5938C274.115 82.2188 274.062 88.1562 274.062 94.4062C274.062 100.656 274.115 106.646 274.219 112.375C274.323 118 274.479 123 274.688 127.375C274.896 131.75 275.156 134.823 275.469 136.594C275.885 138.677 276.406 140.656 277.031 142.531C277.552 144.198 278.229 145.917 279.062 147.688C279.896 149.354 280.938 150.708 282.188 151.75L266.25 158.938C265.417 157.792 264.74 156.594 264.219 155.344C263.698 154.198 263.281 153.156 262.969 152.219C262.552 151.073 262.292 150.031 262.188 149.094C261.979 147.844 261.771 146.49 261.562 145.031C261.354 143.469 261.094 142.01 260.781 140.656C260.573 139.198 260.417 138 260.312 137.062C260.208 136.125 260.208 135.552 260.312 135.344C260.417 135.135 259.792 136.073 258.438 138.156C257.083 140.135 255.052 142.479 252.344 145.188C249.74 147.792 246.51 150.344 242.656 152.844C238.802 155.24 234.479 156.75 229.688 157.375C224.792 158 220.26 157.062 216.094 154.562C212.031 152.062 208.542 148.573 205.625 144.094C202.708 139.51 200.469 134.25 198.906 128.312C197.448 122.271 196.875 116.125 197.188 109.875C197.396 105.708 198.333 102.01 200 98.7812C201.667 95.4479 203.75 92.5833 206.25 90.1875C208.854 87.6875 211.667 85.6042 214.688 83.9375C217.812 82.1667 220.833 80.7083 223.75 79.5625C226.771 78.4167 229.583 77.5833 232.188 77.0625C234.792 76.5417 236.875 76.1771 238.438 75.9688C240.312 75.8646 242.448 76.1771 244.844 76.9062C246.927 77.5312 249.323 78.5729 252.031 80.0312C254.844 81.4896 257.969 83.6771 261.406 86.5938C260.781 76.1771 260.208 67.8438 259.688 61.5938C259.167 55.2396 258.646 50.3958 258.125 47.0625C257.604 43.1042 257.135 40.3958 256.719 38.9375C256.198 37.8958 255.521 36.8542 254.688 35.8125C253.958 34.9792 253.021 34.1458 251.875 33.3125C250.833 32.375 249.583 31.6458 248.125 31.125C250.833 31.6458 253.438 32.0104 255.938 32.2188C258.438 32.4271 260.729 32.6354 262.812 32.8438C265.208 33.0521 267.5 33.2083 269.688 33.3125ZM230.469 91.5938C228.49 92.3229 226.875 93.5729 225.625 95.3438C224.479 97.1146 223.542 99.25 222.812 101.75C222.083 104.146 221.562 106.75 221.25 109.562C221.042 112.271 220.885 114.927 220.781 117.531C220.781 120.031 220.781 122.323 220.781 124.406C220.781 126.49 220.781 128.052 220.781 129.094C220.781 129.719 220.885 130.865 221.094 132.531C221.406 134.094 222.031 135.76 222.969 137.531C223.906 139.198 225.208 140.708 226.875 142.062C228.646 143.417 230.99 144.094 233.906 144.094C236.302 143.885 238.854 143.052 241.562 141.594C243.958 140.344 246.667 138.365 249.688 135.656C252.812 132.844 256.146 128.833 259.688 123.625C259.479 120.292 259.323 117.531 259.219 115.344C259.219 113.156 259.167 111.385 259.062 110.031C258.958 108.469 258.906 107.219 258.906 106.281V103.938C258.906 103.312 258.906 102.635 258.906 101.906C258.906 101.177 258.958 100.5 259.062 99.875C256.146 97.7917 253.542 96.0208 251.25 94.5625C249.062 93 246.875 91.8542 244.688 91.125C242.604 90.2917 240.417 89.9271 238.125 90.0312C235.938 90.0312 233.385 90.5521 230.469 91.5938ZM328.281 127.844C331.198 127.844 333.906 127.531 336.406 126.906C338.49 126.385 340.469 125.552 342.344 124.406C344.323 123.156 345.625 121.333 346.25 118.938C348.333 119.354 350.104 119.719 351.562 120.031C353.021 120.24 354.271 120.448 355.312 120.656C356.458 120.969 357.448 121.177 358.281 121.281C359.115 121.49 360.104 121.698 361.25 121.906C362.292 122.115 363.542 122.375 365 122.688C366.562 122.896 368.385 123.208 370.469 123.625C368.906 123.417 367.292 123.573 365.625 124.094C364.062 124.615 362.552 125.188 361.094 125.812C359.427 126.542 357.865 127.427 356.406 128.469C355.469 129.094 354.375 130.031 353.125 131.281C351.979 132.531 350.312 133.729 348.125 134.875C345.938 136.021 343.021 137.01 339.375 137.844C335.833 138.573 331.25 138.833 325.625 138.625C318.854 138.417 313.177 137.219 308.594 135.031C304.01 132.74 300.312 129.979 297.5 126.75C294.688 123.417 292.656 119.823 291.406 115.969C290.156 112.115 289.479 108.521 289.375 105.188C289.271 101.854 290.26 98.3646 292.344 94.7188C294.427 91.0729 297.344 87.7396 301.094 84.7188C304.948 81.6979 309.583 79.25 315 77.375C320.417 75.3958 326.354 74.4062 332.812 74.4062C336.562 74.4062 340 74.875 343.125 75.8125C346.354 76.6458 349.271 77.7917 351.875 79.25C354.583 80.7083 356.927 82.375 358.906 84.25C360.885 86.0208 362.552 87.8438 363.906 89.7188C365.26 91.6979 366.406 93.7812 367.344 95.9688C368.177 97.8438 368.854 99.9792 369.375 102.375C369.896 104.771 370.052 107.219 369.844 109.719C361.927 109.927 355.521 110.083 350.625 110.188C345.833 110.292 342.083 110.344 339.375 110.344H332.344H327.031C325.156 110.344 322.708 110.396 319.688 110.5C316.667 110.604 312.969 110.76 308.594 110.969C309.115 115.135 310.417 118.365 312.5 120.656C314.688 122.844 316.979 124.51 319.375 125.656C322.083 126.906 325.052 127.635 328.281 127.844ZM314.219 99.7188C317.552 99.9271 320.312 100.083 322.5 100.188C324.792 100.292 326.667 100.396 328.125 100.5C329.688 100.604 330.938 100.656 331.875 100.656H335.781C338.385 100.656 343.229 100.5 350.312 100.188C350 95.6042 349.01 92.1146 347.344 89.7188C345.781 87.3229 344.115 85.5521 342.344 84.4062C340.26 83.1562 337.969 82.4271 335.469 82.2188C328.698 82.3229 323.646 83.7292 320.312 86.4375C317.083 89.1458 315.052 93.5729 314.219 99.7188ZM374.531 78.1562C376.51 78.2604 378.281 78.3125 379.844 78.3125C381.51 78.2083 382.917 78.1042 384.062 78C385.417 77.8958 386.615 77.7917 387.656 77.6875C389.219 77.4792 390.833 77.2188 392.5 76.9062C393.958 76.6979 395.469 76.4375 397.031 76.125C398.698 75.7083 400.312 75.2396 401.875 74.7188C401.25 76.2812 400.729 77.6354 400.312 78.7812C399.896 79.9271 399.583 80.9167 399.375 81.75C399.062 82.6875 398.906 83.4688 398.906 84.0938C398.802 84.8229 398.75 85.7083 398.75 86.75C398.646 88.5208 398.646 91.3854 398.75 95.3438C404.167 90.6562 408.698 87.0104 412.344 84.4062C416.094 81.8021 419.062 79.7708 421.25 78.3125C423.854 76.6458 425.885 75.5521 427.344 75.0312C431.198 74.4062 434.583 75.2917 437.5 77.6875C438.75 78.7292 439.948 80.1354 441.094 81.9062C442.24 83.5729 443.229 85.8125 444.062 88.625C444.896 91.4375 445.521 94.8229 445.938 98.7812C446.354 102.635 446.406 107.271 446.094 112.688C443.906 112.896 441.927 113.104 440.156 113.312C438.49 113.521 437.083 113.677 435.938 113.781C434.583 113.99 433.333 114.094 432.188 114.094L427.969 114.562C426.51 114.771 424.688 114.979 422.5 115.188C420.417 115.292 417.865 115.5 414.844 115.812C419.219 112.271 422.031 109.198 423.281 106.594C424.635 103.885 425.208 101.646 425 99.875C424.792 97.8958 423.854 96.1771 422.188 94.7188C420.208 93.5729 418.073 93.1562 415.781 93.4688C413.802 93.6771 411.51 94.5625 408.906 96.125C406.302 97.6875 403.542 100.604 400.625 104.875C400.833 111.542 401.042 117.062 401.25 121.438C401.562 125.812 401.823 129.354 402.031 132.062C402.344 135.188 402.604 137.635 402.812 139.406C403.125 140.969 403.75 142.635 404.688 144.406C405.417 145.865 406.458 147.479 407.812 149.25C409.167 151.021 410.938 152.792 413.125 154.562C408.542 154.354 404.792 154.354 401.875 154.562C400.104 154.667 398.542 154.771 397.188 154.875C395.729 155.083 394.167 155.292 392.5 155.5C391.042 155.708 389.323 155.917 387.344 156.125C385.469 156.438 383.385 156.75 381.094 157.062C381.927 155.917 382.604 154.562 383.125 153C383.646 151.542 384.062 150.135 384.375 148.781C384.792 147.219 385.104 145.604 385.312 143.938C385.417 142.479 385.469 140.292 385.469 137.375C385.573 134.458 385.521 131.177 385.312 127.531C385.208 123.781 385.052 119.927 384.844 115.969C384.635 111.906 384.375 108.104 384.062 104.562C383.75 101.021 383.385 97.9479 382.969 95.3438C382.656 92.6354 382.292 90.7604 381.875 89.7188C381.354 88.4688 380.729 87.2188 380 85.9688C379.375 84.8229 378.594 83.625 377.656 82.375C376.719 81.0208 375.677 79.6146 374.531 78.1562Z" fill="#D90429"/>
<path d="M451.094 43.9375C455.365 44.4583 459.688 44.8229 464.062 45.0312C468.542 45.2396 472.604 45.3438 476.25 45.3438C480.521 45.3438 484.688 45.2396 488.75 45.0312C492.917 44.9271 497.292 44.7188 501.875 44.4062C505.833 44.1979 510.312 43.9375 515.312 43.625C520.312 43.3125 525.521 43 530.938 42.6875L531.875 56.2812C531.875 57.2188 531.927 58.4167 532.031 59.875C532.031 61.125 532.031 62.6875 532.031 64.5625C532.135 66.4375 532.24 68.625 532.344 71.125C528.594 74.3542 525.208 77.4271 522.188 80.3438C519.271 83.1562 516.771 85.6562 514.688 87.8438C512.188 90.4479 510 92.8438 508.125 95.0312C505.729 97.8438 503.177 101.281 500.469 105.344C497.76 109.302 495.208 113.208 492.812 117.062C490.521 120.812 488.646 124.198 487.188 127.219C485.729 130.135 485.104 131.958 485.312 132.688C485.417 133.208 486.458 133.521 488.438 133.625C490.417 133.625 492.812 133.521 495.625 133.312C498.542 133.104 501.719 132.792 505.156 132.375C508.698 131.854 511.979 131.333 515 130.812C518.125 130.188 520.885 129.562 523.281 128.938C525.677 128.312 527.24 127.688 527.969 127.062C528.906 126.229 529.948 124.719 531.094 122.531C532.135 120.656 533.281 118.052 534.531 114.719C535.885 111.281 537.396 106.698 539.062 100.969C539.167 105.24 539.219 108.885 539.219 111.906C539.323 114.927 539.479 117.479 539.688 119.562C539.792 121.958 539.948 123.938 540.156 125.5C540.26 127.167 540.469 129.042 540.781 131.125C540.99 132.896 541.25 135.135 541.562 137.844C541.875 140.552 542.292 143.573 542.812 146.906C535.312 145.969 529.01 145.344 523.906 145.031C518.802 144.615 514.688 144.354 511.562 144.25C507.917 144.146 505 144.146 502.812 144.25C500.521 144.562 497.396 145.031 493.438 145.656C490.104 146.177 485.677 147.01 480.156 148.156C474.635 149.198 467.708 150.604 459.375 152.375C459.167 150.396 458.958 148.677 458.75 147.219C458.542 145.76 458.333 144.458 458.125 143.312C457.917 142.167 457.708 141.073 457.5 140.031C457.292 139.094 457.031 137.792 456.719 136.125C456.51 134.667 456.146 132.896 455.625 130.812C455.208 128.625 454.688 125.917 454.062 122.688C460.312 116.229 465.469 110.812 469.531 106.438C473.698 101.958 477.031 98.3125 479.531 95.5C482.448 92.1667 484.74 89.5104 486.406 87.5312C487.969 85.5521 490 83.1562 492.5 80.3438C494.583 77.9479 497.292 74.9792 500.625 71.4375C503.958 67.7917 507.969 63.4688 512.656 58.4688C507.865 58.2604 503.385 58.2604 499.219 58.4688C495.156 58.6771 491.615 58.9896 488.594 59.4062C485.052 59.8229 481.771 60.3958 478.75 61.125C475.938 61.9583 473.073 63.3125 470.156 65.1875C467.656 66.75 464.948 68.9375 462.031 71.75C459.115 74.5625 456.354 78.2083 453.75 82.6875C453.542 79.25 453.385 76.3333 453.281 73.9375C453.177 71.5417 453.073 69.5625 452.969 68C452.865 66.2292 452.76 64.7708 452.656 63.625C452.656 62.4792 452.552 60.9688 452.344 59.0938C452.135 57.5312 451.927 55.5521 451.719 53.1562C451.51 50.6562 451.302 47.5833 451.094 43.9375ZM558.594 89.7188C559.115 89.0938 559.427 87.9479 559.531 86.2812C559.74 84.5104 560.156 82.5312 560.781 80.3438C561.51 78.1562 562.708 75.8646 564.375 73.4688C566.042 71.0729 568.75 68.8333 572.5 66.75C576.146 64.6667 579.688 63.4167 583.125 63C586.562 62.5833 589.844 62.7396 592.969 63.4688C596.094 64.1979 599.01 65.3438 601.719 66.9062C604.531 68.4688 607.083 70.1875 609.375 72.0625C610.938 73.3125 612.188 75.1354 613.125 77.5312C614.062 79.8229 614.792 82.4271 615.312 85.3438C615.833 88.2604 616.198 91.3333 616.406 94.5625C616.719 97.6875 616.927 100.76 617.031 103.781C617.135 106.698 617.188 109.406 617.188 111.906C617.292 114.302 617.5 116.281 617.812 117.844C618.229 120.135 618.958 122.115 620 123.781C621.042 125.344 622.188 126.698 623.438 127.844C624.688 128.885 625.938 129.719 627.188 130.344C628.438 130.969 629.531 131.438 630.469 131.75C631.094 132.062 631.667 132.271 632.188 132.375C633.229 132.792 633.958 132.792 634.375 132.375C633.75 133.833 633.177 135.083 632.656 136.125C632.135 137.167 631.719 138.052 631.406 138.781C630.99 139.615 630.625 140.292 630.312 140.812C630 141.438 629.635 142.01 629.219 142.531C628.906 143.052 628.49 143.625 627.969 144.25C627.448 144.875 626.927 145.552 626.406 146.281C625.052 145.76 623.75 145.135 622.5 144.406C621.354 143.677 620.312 143 619.375 142.375C618.229 141.646 617.188 140.917 616.25 140.188C615.312 139.458 614.427 138.625 613.594 137.688C612.865 136.854 612.083 135.969 611.25 135.031C610.521 134.094 609.896 133.052 609.375 131.906C608.75 133.26 607.24 135.188 604.844 137.688C602.552 140.188 599.531 142.479 595.781 144.562C592.031 146.542 587.656 147.948 582.656 148.781C577.76 149.615 572.344 149.042 566.406 147.062C563.802 146.229 561.354 145.031 559.062 143.469C556.771 141.802 554.792 139.823 553.125 137.531C551.562 135.24 550.417 132.635 549.688 129.719C549.062 126.698 549.115 123.365 549.844 119.719C550.573 116.073 551.875 113 553.75 110.5C555.625 108 557.865 105.969 560.469 104.406C563.073 102.844 565.99 101.646 569.219 100.812C572.448 99.9792 575.781 99.4062 579.219 99.0938C581.927 98.9896 584.635 99.1458 587.344 99.5625C589.635 99.9792 592.031 100.76 594.531 101.906C597.031 102.948 599.167 104.562 600.938 106.75C600.833 101.229 600.625 96.8542 600.312 93.625C600.104 90.2917 599.896 87.7396 599.688 85.9688C599.271 83.8854 598.906 82.4271 598.594 81.5938C598.073 80.8646 597.5 80.0312 596.875 79.0938C596.354 78.1562 595.677 77.3229 594.844 76.5938C594.01 75.7604 592.969 75.0833 591.719 74.5625C590.469 74.0417 589.01 73.8333 587.344 73.9375C585.573 74.0417 584.167 74.5104 583.125 75.3438C582.083 76.1771 581.25 77.1667 580.625 78.3125C580.104 79.3542 579.792 80.5 579.688 81.75C579.583 83 579.635 84.0938 579.844 85.0312C580.052 85.6562 580.365 86.3333 580.781 87.0625C581.198 87.6875 581.771 88.3646 582.5 89.0938C583.229 89.8229 584.219 90.4479 585.469 90.9688C583.073 91.2812 580.938 91.5417 579.062 91.75C577.188 91.8542 575.573 92.0104 574.219 92.2188C572.656 92.4271 571.302 92.5833 570.156 92.6875C569.01 92.7917 567.656 93 566.094 93.3125C564.74 93.5208 563.073 93.7812 561.094 94.0938C559.115 94.4062 556.823 94.8229 554.219 95.3438C554.844 94.6146 555.417 93.9375 555.938 93.3125C556.458 92.5833 556.927 91.9583 557.344 91.4375C557.76 90.8125 558.177 90.2396 558.594 89.7188ZM582.031 108.312C580.156 108.417 578.281 108.885 576.406 109.719C574.531 110.448 572.865 111.542 571.406 113C569.948 114.354 568.698 115.969 567.656 117.844C566.719 119.615 566.25 121.594 566.25 123.781C566.25 125.969 566.771 127.896 567.812 129.562C568.958 131.125 570.417 132.427 572.188 133.469C574.062 134.51 576.042 135.135 578.125 135.344C580.312 135.552 582.448 135.344 584.531 134.719C586.51 133.99 588.385 132.844 590.156 131.281C591.927 129.615 593.438 127.844 594.688 125.969C595.938 123.99 596.823 122.062 597.344 120.188C597.865 118.208 597.917 116.594 597.5 115.344C596.667 112.635 594.792 110.76 591.875 109.719C588.958 108.573 585.677 108.104 582.031 108.312ZM628.125 80.1875C631.458 79.6667 634.167 79.25 636.25 78.9375C638.438 78.5208 640.208 78.2083 641.562 78C643.125 77.6875 644.323 77.4271 645.156 77.2188C645.99 77.0104 647.188 76.6979 648.75 76.2812C650.104 75.8646 651.875 75.3958 654.062 74.875C656.25 74.25 659.01 73.4167 662.344 72.375C661.51 73.4167 660.833 74.3542 660.312 75.1875C659.896 75.9167 659.479 76.5417 659.062 77.0625C658.646 77.6875 658.281 78.2604 657.969 78.7812C657.656 79.3021 657.344 80.0833 657.031 81.125C656.823 81.9583 656.562 83.1562 656.25 84.7188C655.938 86.1771 655.677 88.1042 655.469 90.5C661.094 86.9583 666.25 84.3021 670.938 82.5312C675.729 80.7604 679.896 79.5104 683.438 78.7812C687.604 77.9479 691.354 77.6354 694.688 77.8438C698.854 78.1562 702.708 79.0938 706.25 80.6562C709.896 82.1146 713.177 83.8854 716.094 85.9688C719.01 88.0521 721.562 90.3438 723.75 92.8438C725.938 95.3438 727.656 97.8438 728.906 100.344C729.74 102.01 730.26 104.406 730.469 107.531C730.781 110.656 730.469 113.99 729.531 117.531C728.594 121.073 726.927 124.562 724.531 128C722.24 131.333 718.958 133.99 714.688 135.969C707.292 139.302 699.948 141.177 692.656 141.594C689.531 141.802 686.302 141.698 682.969 141.281C679.74 140.865 676.458 139.979 673.125 138.625C669.896 137.271 666.771 135.344 663.75 132.844C660.729 130.24 657.969 126.906 655.469 122.844C654.635 128.156 654.01 132.792 653.594 136.75C653.281 140.604 653.073 143.833 652.969 146.438C652.865 149.458 652.865 152.01 652.969 154.094C653.177 156.177 653.594 158.417 654.219 160.812C654.74 162.896 655.469 165.292 656.406 168C657.448 170.812 658.75 173.729 660.312 176.75C659.688 176.542 658.802 176.385 657.656 176.281C656.615 176.281 655.521 176.385 654.375 176.594C653.125 176.802 651.719 177.01 650.156 177.219C648.698 177.531 647.083 177.896 645.312 178.312C643.854 178.625 642.135 178.99 640.156 179.406C638.281 179.927 636.354 180.5 634.375 181.125C635.521 179.771 636.406 178.208 637.031 176.438C637.76 174.771 638.333 173.208 638.75 171.75C639.167 169.979 639.531 168.208 639.844 166.438C639.948 164.875 640.104 161.906 640.312 157.531C640.625 153.26 640.885 148.312 641.094 142.688C641.302 136.958 641.458 130.969 641.562 124.719C641.771 118.469 641.875 112.688 641.875 107.375C641.979 101.958 641.979 97.375 641.875 93.625C641.771 89.875 641.562 87.6875 641.25 87.0625C640.833 86.3333 640.052 85.5521 638.906 84.7188C637.969 83.9896 636.615 83.2604 634.844 82.5312C633.177 81.8021 630.938 81.0208 628.125 80.1875ZM665.312 108.625C664.583 111.021 664.427 113.365 664.844 115.656C665.26 117.948 666.302 120.083 667.969 122.062C669.74 124.042 672.188 125.812 675.312 127.375C678.542 128.833 682.552 129.927 687.344 130.656C692.135 131.385 695.781 131.281 698.281 130.344C700.781 129.406 702.604 127.948 703.75 125.969C705 123.885 705.833 121.49 706.25 118.781C706.667 115.969 707.188 113.052 707.812 110.031C708.438 107.115 708.333 104.146 707.5 101.125C706.667 98 705.469 95.1875 703.906 92.6875C702.448 90.1875 700.781 88.1562 698.906 86.5938C697.135 84.9271 695.573 84.0938 694.219 84.0938C690.99 84.0938 687.812 84.9271 684.688 86.5938C681.562 88.2604 678.698 90.3438 676.094 92.8438C673.49 95.3438 671.198 98.0521 669.219 100.969C667.344 103.781 666.042 106.333 665.312 108.625Z" fill="#FFB703"/>
<path d="M28 111.204C38.0176 134.16 69.6872 85.7282 84 111.204" stroke="#D90429" stroke-width="4"/>
<path d="M611.983 48.4999C612.811 48.5093 613.49 47.8454 613.5 47.017C613.509 46.1887 612.845 45.5095 612.017 45.5001L612 47L611.983 48.4999ZM524 46L523.983 47.4999L611.983 48.4999L612 47L612.017 45.5001L524.017 44.5001L524 46Z" fill="#FFB703"/>
<path d="M605 53.5C605.828 53.5 606.5 52.8284 606.5 52C606.5 51.1716 605.828 50.5 605 50.5V52V53.5ZM523 52V53.5H605V52V50.5H523V52Z" fill="#FFB703"/>
<path d="M520 55.5H518.5V58.5H520V57V55.5ZM597 58.5C597.828 58.5 598.5 57.8284 598.5 57C598.5 56.1716 597.828 55.5 597 55.5V57V58.5ZM520 57V58.5L597 58.5V57V55.5L520 55.5V57Z" fill="#FFB703"/>
</svg>
