<?xml version="1.0" encoding="UTF-8"?>
<svg version="1.1" xmlns="http://www.w3.org/2000/svg" width="190" height="190">
<path d="M0 0 C62.7 0 125.4 0 190 0 C190 62.7 190 125.4 190 190 C127.3 190 64.6 190 0 190 C0 127.3 0 64.6 0 0 Z " fill="#FBFBFC" transform="translate(0,0)"/>
<path d="M0 0 C1.25159409 -0.0098568 1.25159409 -0.0098568 2.5284729 -0.01991272 C5.29884935 -0.0396731 8.0691714 -0.05131748 10.83959961 -0.0612793 C11.78636503 -0.06535482 12.73313046 -0.06943035 13.70858574 -0.07362938 C18.72450417 -0.09450677 23.74039515 -0.10879843 28.75634766 -0.11816406 C33.92566424 -0.12920182 39.09454719 -0.16356644 44.26371098 -0.20333576 C48.24701203 -0.22955417 52.23021088 -0.23786078 56.21359062 -0.24144554 C58.11807606 -0.24630193 60.02255723 -0.25788878 61.92695808 -0.27648354 C64.6026895 -0.300975 67.27731453 -0.29989134 69.953125 -0.29296875 C70.73113968 -0.30577881 71.50915436 -0.31858887 72.31074524 -0.33178711 C78.14156212 -0.27718507 82.89006375 1.2159639 87.92944336 4.17700195 C92.75802323 9.24701081 93.09062833 12.85201928 93.13818359 19.63061523 C93.14796738 20.50563187 93.15775116 21.3806485 93.16783142 22.28218079 C93.19782128 25.18720981 93.21918424 28.09219254 93.23803711 30.99731445 C93.24460894 31.98945827 93.25118076 32.9816021 93.25795174 34.00381088 C93.29056576 39.25846684 93.31500808 44.51310238 93.33447266 49.76782227 C93.35226716 54.11350117 93.38705489 58.45852892 93.43701172 62.80395508 C93.49727513 68.05182722 93.52795758 73.29909674 93.53764534 78.54729843 C93.54619327 80.5447579 93.56499502 82.54220157 93.59438896 84.53946304 C93.63341282 87.34269091 93.63432386 90.14358526 93.62646484 92.94702148 C93.65646576 94.17554085 93.65646576 94.17554085 93.68707275 95.42887878 C93.60746769 101.78367868 91.34248164 105.65270873 86.92944336 110.17700195 C81.77417916 113.61384475 76.60347952 113.32944102 70.5625 113.33813477 C69.73260056 113.34309967 68.90270111 113.34806458 68.0476532 113.35317993 C65.31162681 113.36774452 62.57565834 113.374593 59.83959961 113.38012695 C57.9329783 113.38588182 56.02635701 113.39163952 54.11973572 113.3973999 C50.12604504 113.40789276 46.13237439 113.41374707 42.13867188 113.41723633 C37.02639613 113.42272629 31.91438601 113.4467723 26.80219364 113.47520828 C22.8653435 113.49384613 18.92855732 113.49904081 14.99166679 113.5005722 C13.1070453 113.50359519 11.22242483 113.51161177 9.33784676 113.52475739 C6.70028631 113.54184659 4.06337487 113.53993102 1.42578125 113.53344727 C0.65104462 113.54266205 -0.12369202 113.55187683 -0.92190552 113.56137085 C-6.59006566 113.5178087 -10.58506645 112.24824378 -14.94555664 108.61450195 C-16.07055664 107.17700195 -16.07055664 107.17700195 -16.07055664 105.17700195 C-16.73055664 105.17700195 -17.39055664 105.17700195 -18.07055664 105.17700195 C-19.39145326 101.17830593 -19.21824599 97.11535136 -19.21582031 92.95532227 C-19.21917892 92.12878143 -19.22253754 91.3022406 -19.22599792 90.45065308 C-19.23549442 87.71879573 -19.23745057 84.98699978 -19.23852539 82.25512695 C-19.24173952 80.35186742 -19.24510371 78.44860814 -19.24861145 76.54534912 C-19.25459992 72.55407133 -19.2564517 68.56281517 -19.25585938 64.5715332 C-19.25575792 59.46957362 -19.26939459 54.36775371 -19.28663158 49.26582718 C-19.29777945 45.3331845 -19.2997777 41.40057525 -19.29924965 37.4679184 C-19.30042616 35.58775095 -19.30482941 33.70758255 -19.31258202 31.82743073 C-19.3224356 29.19027592 -19.31948249 26.55341991 -19.31347656 23.91625977 C-19.31909607 23.14714264 -19.32471558 22.37802551 -19.33050537 21.58560181 C-19.29802742 15.94223571 -19.07230885 9.66502887 -15.41430664 5.1184082 C-14.80586914 4.66336914 -14.19743164 4.20833008 -13.57055664 3.73950195 C-12.96211914 3.26641602 -12.35368164 2.79333008 -11.72680664 2.3059082 C-7.93550089 -0.2782601 -4.44600269 0.01509103 0 0 Z " fill="#F9F9F9" transform="translate(57.070556640625,9.822998046875)"/>
<path d="M0 0 C1.25159409 -0.0098568 1.25159409 -0.0098568 2.5284729 -0.01991272 C5.29884935 -0.0396731 8.0691714 -0.05131748 10.83959961 -0.0612793 C11.78636503 -0.06535482 12.73313046 -0.06943035 13.70858574 -0.07362938 C18.72450417 -0.09450677 23.74039515 -0.10879843 28.75634766 -0.11816406 C33.92566424 -0.12920182 39.09454719 -0.16356644 44.26371098 -0.20333576 C48.24701203 -0.22955417 52.23021088 -0.23786078 56.21359062 -0.24144554 C58.11807606 -0.24630193 60.02255723 -0.25788878 61.92695808 -0.27648354 C64.6026895 -0.300975 67.27731453 -0.29989134 69.953125 -0.29296875 C70.73113968 -0.30577881 71.50915436 -0.31858887 72.31074524 -0.33178711 C78.14156212 -0.27718507 82.89006375 1.2159639 87.92944336 4.17700195 C92.75802323 9.24701081 93.09062833 12.85201928 93.13818359 19.63061523 C93.14796738 20.50563187 93.15775116 21.3806485 93.16783142 22.28218079 C93.19782128 25.18720981 93.21918424 28.09219254 93.23803711 30.99731445 C93.24460894 31.98945827 93.25118076 32.9816021 93.25795174 34.00381088 C93.29056576 39.25846684 93.31500808 44.51310238 93.33447266 49.76782227 C93.35226716 54.11350117 93.38705489 58.45852892 93.43701172 62.80395508 C93.49727513 68.05182722 93.52795758 73.29909674 93.53764534 78.54729843 C93.54619327 80.5447579 93.56499502 82.54220157 93.59438896 84.53946304 C93.63341282 87.34269091 93.63432386 90.14358526 93.62646484 92.94702148 C93.65646576 94.17554085 93.65646576 94.17554085 93.68707275 95.42887878 C93.60746769 101.78367868 91.34248164 105.65270873 86.92944336 110.17700195 C81.77417916 113.61384475 76.60347952 113.32944102 70.5625 113.33813477 C69.73260056 113.34309967 68.90270111 113.34806458 68.0476532 113.35317993 C65.31162681 113.36774452 62.57565834 113.374593 59.83959961 113.38012695 C57.9329783 113.38588182 56.02635701 113.39163952 54.11973572 113.3973999 C50.12604504 113.40789276 46.13237439 113.41374707 42.13867188 113.41723633 C37.02639613 113.42272629 31.91438601 113.4467723 26.80219364 113.47520828 C22.8653435 113.49384613 18.92855732 113.49904081 14.99166679 113.5005722 C13.1070453 113.50359519 11.22242483 113.51161177 9.33784676 113.52475739 C6.70028631 113.54184659 4.06337487 113.53993102 1.42578125 113.53344727 C0.65104462 113.54266205 -0.12369202 113.55187683 -0.92190552 113.56137085 C-6.59006566 113.5178087 -10.58506645 112.24824378 -14.94555664 108.61450195 C-16.07055664 107.17700195 -16.07055664 107.17700195 -16.07055664 105.17700195 C-16.73055664 105.17700195 -17.39055664 105.17700195 -18.07055664 105.17700195 C-19.39145326 101.17830593 -19.21824599 97.11535136 -19.21582031 92.95532227 C-19.21917892 92.12878143 -19.22253754 91.3022406 -19.22599792 90.45065308 C-19.23549442 87.71879573 -19.23745057 84.98699978 -19.23852539 82.25512695 C-19.24173952 80.35186742 -19.24510371 78.44860814 -19.24861145 76.54534912 C-19.25459992 72.55407133 -19.2564517 68.56281517 -19.25585938 64.5715332 C-19.25575792 59.46957362 -19.26939459 54.36775371 -19.28663158 49.26582718 C-19.29777945 45.3331845 -19.2997777 41.40057525 -19.29924965 37.4679184 C-19.30042616 35.58775095 -19.30482941 33.70758255 -19.31258202 31.82743073 C-19.3224356 29.19027592 -19.31948249 26.55341991 -19.31347656 23.91625977 C-19.31909607 23.14714264 -19.32471558 22.37802551 -19.33050537 21.58560181 C-19.29802742 15.94223571 -19.07230885 9.66502887 -15.41430664 5.1184082 C-14.80586914 4.66336914 -14.19743164 4.20833008 -13.57055664 3.73950195 C-12.96211914 3.26641602 -12.35368164 2.79333008 -11.72680664 2.3059082 C-7.93550089 -0.2782601 -4.44600269 0.01509103 0 0 Z M-12.81274414 6.61450195 C-16.61957792 11.86530717 -17.22263151 14.82192683 -17.23168945 21.20336914 C-17.23665436 22.03283051 -17.24161926 22.86229187 -17.24673462 23.71688843 C-17.26137488 26.4692263 -17.26816214 29.22150649 -17.27368164 31.97387695 C-17.27943256 33.88478599 -17.2851903 35.79569501 -17.29095459 37.706604 C-17.30147057 41.71822377 -17.30730899 45.72982346 -17.31079102 49.74145508 C-17.31627007 54.87735816 -17.340283 60.01299536 -17.36876297 65.14881516 C-17.38740649 69.0985389 -17.39259592 73.04819892 -17.39412689 76.99796295 C-17.39715123 78.89095764 -17.40517236 80.78395127 -17.41831207 82.67690277 C-17.43540466 85.32915816 -17.43348427 87.98076822 -17.42700195 90.63305664 C-17.43621674 91.41250641 -17.44543152 92.19195618 -17.45492554 92.99502563 C-17.40617151 99.37669029 -15.77386943 103.26077506 -11.57055664 107.98950195 C-7.36339121 111.6707717 -3.35463619 111.33551168 1.96166992 111.35400391 C3.18904121 111.3638607 3.18904121 111.3638607 4.44120789 111.37391663 C7.15082899 111.39363691 9.86039468 111.40530983 12.57006836 111.4152832 C13.95948765 111.42139649 13.95948765 111.42139649 15.37697601 111.42763329 C20.28036781 111.44848932 25.18373166 111.46279266 30.0871582 111.47216797 C35.1456671 111.48322715 40.20373549 111.51762272 45.26208878 111.55733967 C49.15694991 111.58351579 53.05170628 111.59186073 56.94664764 111.59544945 C58.81092044 111.60031338 60.67518861 111.61192186 62.53937531 111.63048744 C65.15314895 111.6548987 67.76578535 111.65391035 70.37963867 111.64697266 C71.14457138 111.65978271 71.90950409 111.67259277 72.69761658 111.68579102 C78.20060155 111.63275529 81.37759044 110.29157437 85.92944336 107.17700195 C90.73509496 101.99195681 91.08086261 97.84698645 91.09057617 91.02124023 C91.09554108 90.19002655 91.10050598 89.35881287 91.10562134 88.50241089 C91.12023481 85.75070368 91.12704335 82.9990541 91.13256836 80.24731445 C91.13832016 78.33543903 91.14407789 76.42356362 91.14984131 74.51168823 C91.16034875 70.50184866 91.16619321 66.49202913 91.16967773 62.48217773 C91.17516413 57.34508425 91.19919636 52.20825559 91.22764969 47.07124519 C91.24627593 43.12156399 91.25148165 39.17194661 91.25301361 35.22222519 C91.25604033 33.32840399 91.26406951 31.43458392 91.27719879 29.54080582 C91.29426017 26.89084986 91.29237896 24.24154139 91.28588867 21.59155273 C91.29510345 20.81007874 91.30431824 20.02860474 91.31381226 19.22344971 C91.26846746 13.31099697 89.77810607 10.2567475 85.92944336 5.92700195 C82.04097794 2.52459471 77.7820878 3.02887454 72.8972168 3.03173828 C72.07896927 3.02837967 71.26072174 3.02502106 70.41767883 3.02156067 C67.70804329 3.01204923 64.99846957 3.01010725 62.28881836 3.0090332 C60.4041542 3.00582001 58.51949029 3.00245589 56.63482666 2.99894714 C52.68045473 2.99295487 48.72610466 2.99110727 44.77172852 2.99169922 C39.71336025 2.99180068 34.65513287 2.97816587 29.59679794 2.96092701 C25.70193849 2.94978657 21.80711283 2.94778066 17.91223907 2.94830894 C16.0479916 2.94713124 14.18374318 2.94272127 12.31951141 2.93497658 C9.70599129 2.92513846 7.09277343 2.92807011 4.47924805 2.93408203 C3.33184898 2.92565277 3.33184898 2.92565277 2.16127014 2.91705322 C-3.03873635 2.94732618 -8.63851405 3.17029417 -12.81274414 6.61450195 Z " fill="#929294" transform="translate(57.070556640625,9.822998046875)"/>
<path d="M0 0 C11.3528096 -0.09277603 22.70552865 -0.16380376 34.05864048 -0.20724869 C39.33065263 -0.22810259 44.60240495 -0.25638032 49.87426758 -0.30175781 C54.96415185 -0.34529359 60.05378657 -0.36915364 65.1438427 -0.37950897 C67.08348454 -0.38688644 69.02311309 -0.40129298 70.96264839 -0.42292023 C73.68446238 -0.45205699 76.40525183 -0.45595172 79.12719727 -0.45410156 C79.92489532 -0.46848267 80.72259338 -0.48286377 81.54446411 -0.49768066 C87.16375631 -0.45648633 90.43757099 0.64952305 95 4 C99.29516944 8.81366387 99.58661766 12.75880849 99.54931641 18.90771484 C99.55953827 19.78331558 99.56976013 20.65891632 99.58029175 21.56105042 C99.60800555 24.4446272 99.60617651 27.32724367 99.6015625 30.2109375 C99.60934114 32.22344312 99.61801146 34.23594547 99.62753296 36.2484436 C99.64244074 40.46326345 99.64188755 44.6777482 99.63134766 48.89257812 C99.61976398 54.28193388 99.65361097 59.66991365 99.700037 65.05904198 C99.72956752 69.21479246 99.73124764 73.37021374 99.72501755 77.52605057 C99.72604133 79.51230213 99.73646732 81.49857276 99.75664139 83.48472214 C99.78144714 86.26854367 99.76774936 89.04971386 99.74462891 91.83349609 C99.76756012 93.05258919 99.76756012 93.05258919 99.79095459 94.29631042 C99.67544019 100.62028845 97.38558001 104.49289537 93 109 C90 111 90 111 87.3125 110.625 C86.549375 110.41875 85.78625 110.2125 85 110 C85.556875 109.5875 86.11375 109.175 86.6875 108.75 C87.8321875 107.88375 87.8321875 107.88375 89 107 C89.86625 106.38125 90.7325 105.7625 91.625 105.125 C95.31429396 101.82405277 95.92639636 99.08205326 96.26069641 94.16748047 C96.27555338 92.65078177 96.27948604 91.13395128 96.2746582 89.6171875 C96.2823246 88.36992889 96.2823246 88.36992889 96.29014587 87.09747314 C96.30401432 84.35657499 96.30308741 81.61592901 96.30078125 78.875 C96.30466921 76.96598213 96.30900409 75.05696511 96.31376648 73.14794922 C96.32122242 69.15003655 96.32094159 65.15221221 96.31567383 61.15429688 C96.3098749 56.03293059 96.32682346 50.91192546 96.3500185 45.7906189 C96.36475324 41.84950652 96.36562798 37.90848123 96.36250877 33.96734619 C96.36302195 32.07911462 96.36825894 30.19087817 96.37832069 28.30267334 C96.39066503 25.66248099 96.38390598 23.02299366 96.37231445 20.3828125 C96.37995819 19.60448059 96.38760193 18.82614868 96.39547729 18.02423096 C96.34211229 12.52162089 94.98776382 9.55569633 91.6875 5.3125 C86.99295802 1.66118957 81.30379452 1.69725959 75.60791016 1.68115234 C74.37764603 1.66608391 74.37764603 1.66608391 73.12252808 1.65071106 C70.42804628 1.61997091 67.73366343 1.60286955 65.0390625 1.5859375 C63.16432855 1.56721847 61.28960297 1.54764451 59.41488647 1.5272522 C54.4929091 1.47600268 49.57090443 1.43633855 44.64880371 1.39910889 C39.62126961 1.35902419 34.59384835 1.30795223 29.56640625 1.2578125 C19.71101685 1.16113824 9.85556363 1.07670629 0 1 C0 0.67 0 0.34 0 0 Z " fill="#8D8D8F" transform="translate(51,11)"/>
<path d="M0 0 C1.06347656 0.00515625 2.12695312 0.0103125 3.22265625 0.015625 C4.28355469 0.01046875 5.34445313 0.0053125 6.4375 0 C9.28515625 0.265625 9.28515625 0.265625 12.28515625 2.265625 C13.11558195 6.97885196 13.10369234 11.665759 10.91015625 15.953125 C6.87866836 17.96886894 2.70051946 18.08383087 -1.71484375 17.265625 C-3.50390625 16.1171875 -3.50390625 16.1171875 -4.71484375 14.265625 C-5.078125 11.41796875 -5.078125 11.41796875 -5.02734375 8.203125 C-5.02347656 7.13964844 -5.01960938 6.07617188 -5.015625 4.98046875 C-4.59990655 1.2282048 -3.76242956 0.3681226 0 0 Z " fill="#ABABAC" transform="translate(116.71484375,34.734375)"/>
<path d="M0 0 C1.06347656 0.00515625 2.12695312 0.0103125 3.22265625 0.015625 C4.28355469 0.01046875 5.34445313 0.0053125 6.4375 0 C9.28515625 0.265625 9.28515625 0.265625 12.28515625 2.265625 C12.61328125 5.26953125 12.61328125 5.26953125 12.53515625 8.828125 C12.51195312 10.59349609 12.51195312 10.59349609 12.48828125 12.39453125 C12.28515625 15.265625 12.28515625 15.265625 11.28515625 16.265625 C8.97522243 16.39119662 6.66097089 16.44138229 4.34765625 16.453125 C3.08050781 16.46730469 1.81335938 16.48148438 0.5078125 16.49609375 C-2.71484375 16.265625 -2.71484375 16.265625 -4.71484375 14.265625 C-4.98046875 11.515625 -4.98046875 11.515625 -4.96484375 8.265625 C-4.97 7.193125 -4.97515625 6.120625 -4.98046875 5.015625 C-4.61517153 1.23372438 -3.78661059 0.37048852 0 0 Z " fill="#919191" transform="translate(116.71484375,85.734375)"/>
<path d="M0 0 C1.06347656 0.00515625 2.12695312 0.0103125 3.22265625 0.015625 C4.28355469 0.01046875 5.34445313 0.0053125 6.4375 0 C9.28515625 0.265625 9.28515625 0.265625 12.28515625 2.265625 C12.68359375 4.76171875 12.68359375 4.76171875 12.66015625 7.703125 C12.66789062 8.67121094 12.675625 9.63929687 12.68359375 10.63671875 C12.28515625 13.265625 12.28515625 13.265625 11.140625 15.09375 C8.46578165 16.78312475 6.35884924 16.62766389 3.22265625 16.578125 C2.15917969 16.57425781 1.09570312 16.57039063 0 16.56640625 C-2.71484375 16.265625 -2.71484375 16.265625 -4.71484375 14.265625 C-4.98046875 11.515625 -4.98046875 11.515625 -4.96484375 8.265625 C-4.97 7.193125 -4.97515625 6.120625 -4.98046875 5.015625 C-4.61517153 1.23372438 -3.78661059 0.37048852 0 0 Z " fill="#A5A5A5" transform="translate(116.71484375,60.734375)"/>
<path d="M0 0 C1.0725 0.00515625 2.145 0.0103125 3.25 0.015625 C4.85875 0.00789063 4.85875 0.00789063 6.5 0 C9.25 0.265625 9.25 0.265625 11.25 2.265625 C11.515625 5.015625 11.515625 5.015625 11.5 8.265625 C11.50515625 9.338125 11.5103125 10.410625 11.515625 11.515625 C11.25 14.265625 11.25 14.265625 9.25 16.265625 C6.5 16.53125 6.5 16.53125 3.25 16.515625 C1.64125 16.52335937 1.64125 16.52335937 0 16.53125 C-2.75 16.265625 -2.75 16.265625 -4.75 14.265625 C-5.015625 11.515625 -5.015625 11.515625 -5 8.265625 C-5.00515625 7.193125 -5.0103125 6.120625 -5.015625 5.015625 C-4.64793525 1.20895466 -3.80667034 0.36768975 0 0 Z " fill="#F2F2F3" transform="translate(91.75,85.734375)"/>
<path d="M0 0 C1.0725 0.00515625 2.145 0.0103125 3.25 0.015625 C4.85875 0.00789063 4.85875 0.00789063 6.5 0 C9.25 0.265625 9.25 0.265625 11.25 2.265625 C11.515625 5.015625 11.515625 5.015625 11.5 8.265625 C11.50515625 9.338125 11.5103125 10.410625 11.515625 11.515625 C11.25 14.265625 11.25 14.265625 9.25 16.265625 C6.5 16.53125 6.5 16.53125 3.25 16.515625 C1.64125 16.52335937 1.64125 16.52335937 0 16.53125 C-2.75 16.265625 -2.75 16.265625 -4.75 14.265625 C-5.015625 11.515625 -5.015625 11.515625 -5 8.265625 C-5.00515625 7.193125 -5.0103125 6.120625 -5.015625 5.015625 C-4.64793525 1.20895466 -3.80667034 0.36768975 0 0 Z " fill="#F2F2F2" transform="translate(66.75,85.734375)"/>
<path d="M0 0 C1.0725 0.00515625 2.145 0.0103125 3.25 0.015625 C4.85875 0.00789063 4.85875 0.00789063 6.5 0 C9.25 0.265625 9.25 0.265625 11.25 2.265625 C11.515625 5.015625 11.515625 5.015625 11.5 8.265625 C11.50515625 9.338125 11.5103125 10.410625 11.515625 11.515625 C11.25 14.265625 11.25 14.265625 9.25 16.265625 C6.5 16.53125 6.5 16.53125 3.25 16.515625 C1.64125 16.52335937 1.64125 16.52335937 0 16.53125 C-2.75 16.265625 -2.75 16.265625 -4.75 14.265625 C-5.015625 11.515625 -5.015625 11.515625 -5 8.265625 C-5.00515625 7.193125 -5.0103125 6.120625 -5.015625 5.015625 C-4.64793525 1.20895466 -3.80667034 0.36768975 0 0 Z " fill="#F1F1F1" transform="translate(91.75,60.734375)"/>
<path d="M0 0 C1.0725 0.00515625 2.145 0.0103125 3.25 0.015625 C4.85875 0.00789063 4.85875 0.00789063 6.5 0 C9.25 0.265625 9.25 0.265625 11.25 2.265625 C11.515625 5.015625 11.515625 5.015625 11.5 8.265625 C11.50515625 9.338125 11.5103125 10.410625 11.515625 11.515625 C11.25 14.265625 11.25 14.265625 9.25 16.265625 C6.5 16.53125 6.5 16.53125 3.25 16.515625 C1.64125 16.52335937 1.64125 16.52335937 0 16.53125 C-2.75 16.265625 -2.75 16.265625 -4.75 14.265625 C-5.015625 11.515625 -5.015625 11.515625 -5 8.265625 C-5.00515625 7.193125 -5.0103125 6.120625 -5.015625 5.015625 C-4.64793525 1.20895466 -3.80667034 0.36768975 0 0 Z " fill="#F5F5F5" transform="translate(66.75,60.734375)"/>
<path d="M0 0 C1.0725 0.00515625 2.145 0.0103125 3.25 0.015625 C4.85875 0.00789063 4.85875 0.00789063 6.5 0 C9.25 0.265625 9.25 0.265625 11.25 2.265625 C11.515625 5.015625 11.515625 5.015625 11.5 8.265625 C11.50515625 9.338125 11.5103125 10.410625 11.515625 11.515625 C11.25 14.265625 11.25 14.265625 9.25 16.265625 C6.5 16.53125 6.5 16.53125 3.25 16.515625 C1.64125 16.52335937 1.64125 16.52335937 0 16.53125 C-2.75 16.265625 -2.75 16.265625 -4.75 14.265625 C-5.015625 11.515625 -5.015625 11.515625 -5 8.265625 C-5.00515625 7.193125 -5.0103125 6.120625 -5.015625 5.015625 C-4.64793525 1.20895466 -3.80667034 0.36768975 0 0 Z " fill="#F1F1F1" transform="translate(91.75,34.734375)"/>
<path d="M0 0 C1.0725 0.00515625 2.145 0.0103125 3.25 0.015625 C4.85875 0.00789063 4.85875 0.00789063 6.5 0 C9.25 0.265625 9.25 0.265625 11.25 2.265625 C11.515625 5.015625 11.515625 5.015625 11.5 8.265625 C11.50515625 9.338125 11.5103125 10.410625 11.515625 11.515625 C11.25 14.265625 11.25 14.265625 9.25 16.265625 C6.5 16.53125 6.5 16.53125 3.25 16.515625 C1.64125 16.52335937 1.64125 16.52335937 0 16.53125 C-2.75 16.265625 -2.75 16.265625 -4.75 14.265625 C-5.015625 11.515625 -5.015625 11.515625 -5 8.265625 C-5.00515625 7.193125 -5.0103125 6.120625 -5.015625 5.015625 C-4.64793525 1.20895466 -3.80667034 0.36768975 0 0 Z " fill="#F1F1F2" transform="translate(66.75,34.734375)"/>
<path d="M0 0 C1.27327904 -0.00021904 1.27327904 -0.00021904 2.57228088 -0.0004425 C5.38594086 0.00025573 8.19953514 0.00804399 11.01318359 0.01586914 C12.96088627 0.01773364 14.90858941 0.01915739 16.85629272 0.02015686 C21.98882334 0.02397956 27.12132576 0.03380775 32.25384521 0.04486084 C37.48872496 0.05508027 42.72360925 0.05965562 47.95849609 0.06469727 C58.23455016 0.07543022 68.51058329 0.09250369 78.78662109 0.11352539 C78.45662109 1.10352539 78.12662109 2.09352539 77.78662109 3.11352539 C76.77486313 3.12161224 75.76310516 3.1296991 74.72068787 3.13803101 C65.1719803 3.21561563 55.62341307 3.30338586 46.07488918 3.40105247 C41.16624703 3.45093497 36.25762555 3.49726565 31.34887695 3.53540039 C26.60903743 3.57235492 21.86937439 3.61874232 17.12968636 3.6715889 C15.32408821 3.69007889 13.51845231 3.70520663 11.71279716 3.71686935 C9.1778963 3.73382443 6.64339488 3.76288117 4.10864258 3.79467773 C2.99625214 3.79791801 2.99625214 3.79791801 1.86138916 3.80122375 C-2.79800987 3.87557533 -6.83317584 4.50751876 -11.21337891 6.11352539 C-13.44154876 8.64794945 -13.44154876 8.64794945 -15.21337891 11.11352539 C-16.20337891 11.11352539 -17.19337891 11.11352539 -18.21337891 11.11352539 C-16.77652532 6.08453785 -14.27101222 4.15675037 -10.21337891 1.11352539 C-7.0064982 -0.48991496 -3.52155044 -0.01570206 0 0 Z " fill="#B4B5B6" transform="translate(57.21337890625,9.886474609375)"/>
<path d="M0 0 C1.85253906 0.23852539 1.85253906 0.23852539 4 1 C5.28027344 2.82592773 5.28027344 2.82592773 6.359375 5.18359375 C6.75253906 6.02857422 7.14570312 6.87355469 7.55078125 7.74414062 C7.94652344 8.63294922 8.34226562 9.52175781 8.75 10.4375 C9.16121094 11.32244141 9.57242188 12.20738281 9.99609375 13.11914062 C13 19.67084977 13 19.67084977 13 22 C11.68 21.67 10.36 21.34 9 21 C8.505 18.525 8.505 18.525 8 16 C6.04081032 16.05991406 4.08248471 16.14867138 2.125 16.25 C1.03445312 16.29640625 -0.05609375 16.3428125 -1.1796875 16.390625 C-4.1332065 16.68846128 -4.1332065 16.68846128 -5.3828125 19.046875 C-5.58648437 19.69140625 -5.79015625 20.3359375 -6 21 C-6.99 21 -7.98 21 -9 21 C-6.76686274 13.55620912 -3.59727921 6.88023305 0 0 Z " fill="#989899" transform="translate(85,158)"/>
<path d="M0 0 C1.64574566 -0.02688151 3.29161413 -0.04634123 4.9375 -0.0625 C5.85402344 -0.07410156 6.77054687 -0.08570312 7.71484375 -0.09765625 C10 0 10 0 11 1 C11.09823937 2.66429051 11.12973631 4.33281931 11.125 6 C11.12757812 6.9075 11.13015625 7.815 11.1328125 8.75 C11 11 11 11 10 12 C8.50261876 12.0979057 7.00057108 12.12974864 5.5 12.125 C4.6853125 12.12757812 3.870625 12.13015625 3.03125 12.1328125 C1 12 1 12 0 11 C-0.07226502 9.14712498 -0.0838122 7.29166122 -0.0625 5.4375 C-0.05347656 4.42558594 -0.04445313 3.41367188 -0.03515625 2.37109375 C-0.02355469 1.58863281 -0.01195313 0.80617188 0 0 Z " fill="#F4F4F4" transform="translate(115,88)"/>
<path d="M0 0 C1.64574566 -0.02688151 3.29161413 -0.04634123 4.9375 -0.0625 C5.85402344 -0.07410156 6.77054687 -0.08570313 7.71484375 -0.09765625 C10 0 10 0 11 1 C11.09823937 2.66429051 11.12973631 4.33281931 11.125 6 C11.12757812 6.9075 11.13015625 7.815 11.1328125 8.75 C11 11 11 11 10 12 C8.50261876 12.0979057 7.00057108 12.12974864 5.5 12.125 C4.6853125 12.12757812 3.870625 12.13015625 3.03125 12.1328125 C1 12 1 12 0 11 C-0.07226502 9.14712498 -0.0838122 7.29166122 -0.0625 5.4375 C-0.05347656 4.42558594 -0.04445313 3.41367187 -0.03515625 2.37109375 C-0.02355469 1.58863281 -0.01195313 0.80617187 0 0 Z " fill="#F4F4F4" transform="translate(115,37)"/>
<path d="M0 0 C7.71484375 -0.09765625 7.71484375 -0.09765625 10 0 C11 1 11 1 11.09765625 3.28515625 C11.04882812 7.14257812 11.04882812 7.14257812 11 11 C7.37 11 3.74 11 0 11 C0 7.37 0 3.74 0 0 Z " fill="#F7F7F8" transform="translate(115,63)"/>
<path d="M0 0 C1.0725 0.00515625 2.145 0.0103125 3.25 0.015625 C4.85875 0.00789063 4.85875 0.00789063 6.5 0 C9.25 0.265625 9.25 0.265625 11.25 2.265625 C11.515625 5.015625 11.515625 5.015625 11.5 8.265625 C11.50515625 9.338125 11.5103125 10.410625 11.515625 11.515625 C11.25 14.265625 11.25 14.265625 9.25 16.265625 C6.5 16.53125 6.5 16.53125 3.25 16.515625 C1.64125 16.52335937 1.64125 16.52335937 0 16.53125 C-2.75 16.265625 -2.75 16.265625 -4.75 14.265625 C-5.015625 11.515625 -5.015625 11.515625 -5 8.265625 C-5.00515625 7.193125 -5.0103125 6.120625 -5.015625 5.015625 C-4.64793525 1.20895466 -3.80667034 0.36768975 0 0 Z M-2.75 3.265625 C-2.82205511 4.95171466 -2.83386068 6.64063159 -2.8125 8.328125 C-2.791875 9.9575 -2.77125 11.586875 -2.75 13.265625 C1.21 13.265625 5.17 13.265625 9.25 13.265625 C9.2809375 10.8215625 9.2809375 10.8215625 9.3125 8.328125 C9.32410156 7.41160156 9.33570312 6.49507813 9.34765625 5.55078125 C9.50949049 3.29969173 9.50949049 3.29969173 8.25 2.265625 C6.58570949 2.16738563 4.91718069 2.13588869 3.25 2.140625 C2.3425 2.13804688 1.435 2.13546875 0.5 2.1328125 C-1.71966611 2.01388721 -1.71966611 2.01388721 -2.75 3.265625 Z " fill="#9D9D9D" transform="translate(66.75,60.734375)"/>
<path d="M0 0 C1.0725 0.00515625 2.145 0.0103125 3.25 0.015625 C4.85875 0.00789063 4.85875 0.00789063 6.5 0 C9.25 0.265625 9.25 0.265625 11.25 2.265625 C11.515625 5.015625 11.515625 5.015625 11.5 8.265625 C11.50515625 9.338125 11.5103125 10.410625 11.515625 11.515625 C11.25 14.265625 11.25 14.265625 9.25 16.265625 C6.5 16.53125 6.5 16.53125 3.25 16.515625 C1.64125 16.52335937 1.64125 16.52335937 0 16.53125 C-2.75 16.265625 -2.75 16.265625 -4.75 14.265625 C-5.015625 11.515625 -5.015625 11.515625 -5 8.265625 C-5.00515625 7.193125 -5.0103125 6.120625 -5.015625 5.015625 C-4.64793525 1.20895466 -3.80667034 0.36768975 0 0 Z M-2.75 3.265625 C-2.84823937 4.92991551 -2.87973631 6.59844431 -2.875 8.265625 C-2.87757812 9.173125 -2.88015625 10.080625 -2.8828125 11.015625 C-3.00173779 13.23529111 -3.00173779 13.23529111 -1.75 14.265625 C-0.08570949 14.36386437 1.58281931 14.39536131 3.25 14.390625 C4.1575 14.39320312 5.065 14.39578125 6 14.3984375 C8.21966611 14.51736279 8.21966611 14.51736279 9.25 13.265625 C9.34823937 11.60133449 9.37973631 9.93280569 9.375 8.265625 C9.37757812 7.358125 9.38015625 6.450625 9.3828125 5.515625 C9.50173779 3.29595889 9.50173779 3.29595889 8.25 2.265625 C6.58570949 2.16738563 4.91718069 2.13588869 3.25 2.140625 C2.3425 2.13804688 1.435 2.13546875 0.5 2.1328125 C-1.71966611 2.01388721 -1.71966611 2.01388721 -2.75 3.265625 Z " fill="#98999A" transform="translate(66.75,85.734375)"/>
<path d="M0 0 C1.0725 0.00515625 2.145 0.0103125 3.25 0.015625 C4.85875 0.00789063 4.85875 0.00789063 6.5 0 C9.25 0.265625 9.25 0.265625 11.25 2.265625 C11.515625 5.015625 11.515625 5.015625 11.5 8.265625 C11.50515625 9.338125 11.5103125 10.410625 11.515625 11.515625 C11.25 14.265625 11.25 14.265625 9.25 16.265625 C6.5 16.53125 6.5 16.53125 3.25 16.515625 C1.64125 16.52335937 1.64125 16.52335937 0 16.53125 C-2.75 16.265625 -2.75 16.265625 -4.75 14.265625 C-5.015625 11.515625 -5.015625 11.515625 -5 8.265625 C-5.00515625 7.193125 -5.0103125 6.120625 -5.015625 5.015625 C-4.64793525 1.20895466 -3.80667034 0.36768975 0 0 Z M-2.75 3.265625 C-2.84823937 4.92991551 -2.87973631 6.59844431 -2.875 8.265625 C-2.87757812 9.173125 -2.88015625 10.080625 -2.8828125 11.015625 C-3.00173779 13.23529111 -3.00173779 13.23529111 -1.75 14.265625 C-0.08570949 14.36386437 1.58281931 14.39536131 3.25 14.390625 C4.1575 14.39320312 5.065 14.39578125 6 14.3984375 C8.21966611 14.51736279 8.21966611 14.51736279 9.25 13.265625 C9.34823937 11.60133449 9.37973631 9.93280569 9.375 8.265625 C9.37757812 7.358125 9.38015625 6.450625 9.3828125 5.515625 C9.50173779 3.29595889 9.50173779 3.29595889 8.25 2.265625 C6.58570949 2.16738563 4.91718069 2.13588869 3.25 2.140625 C2.3425 2.13804688 1.435 2.13546875 0.5 2.1328125 C-1.71966611 2.01388721 -1.71966611 2.01388721 -2.75 3.265625 Z " fill="#979798" transform="translate(91.75,85.734375)"/>
<path d="M0 0 C1.0725 0.00515625 2.145 0.0103125 3.25 0.015625 C4.85875 0.00789063 4.85875 0.00789063 6.5 0 C9.25 0.265625 9.25 0.265625 11.25 2.265625 C11.515625 5.015625 11.515625 5.015625 11.5 8.265625 C11.50515625 9.338125 11.5103125 10.410625 11.515625 11.515625 C11.25 14.265625 11.25 14.265625 9.25 16.265625 C6.5 16.53125 6.5 16.53125 3.25 16.515625 C1.64125 16.52335937 1.64125 16.52335937 0 16.53125 C-2.75 16.265625 -2.75 16.265625 -4.75 14.265625 C-5.015625 11.515625 -5.015625 11.515625 -5 8.265625 C-5.00515625 7.193125 -5.0103125 6.120625 -5.015625 5.015625 C-4.64793525 1.20895466 -3.80667034 0.36768975 0 0 Z M-2.75 3.265625 C-2.84823937 4.92991551 -2.87973631 6.59844431 -2.875 8.265625 C-2.87757812 9.173125 -2.88015625 10.080625 -2.8828125 11.015625 C-3.00173779 13.23529111 -3.00173779 13.23529111 -1.75 14.265625 C-0.08570949 14.36386437 1.58281931 14.39536131 3.25 14.390625 C4.1575 14.39320312 5.065 14.39578125 6 14.3984375 C8.21966611 14.51736279 8.21966611 14.51736279 9.25 13.265625 C9.34823937 11.60133449 9.37973631 9.93280569 9.375 8.265625 C9.37757812 7.358125 9.38015625 6.450625 9.3828125 5.515625 C9.50173779 3.29595889 9.50173779 3.29595889 8.25 2.265625 C6.58570949 2.16738563 4.91718069 2.13588869 3.25 2.140625 C2.3425 2.13804688 1.435 2.13546875 0.5 2.1328125 C-1.71966611 2.01388721 -1.71966611 2.01388721 -2.75 3.265625 Z " fill="#9C9C9D" transform="translate(91.75,60.734375)"/>
<path d="M0 0 C1.0725 0.00515625 2.145 0.0103125 3.25 0.015625 C4.85875 0.00789063 4.85875 0.00789063 6.5 0 C9.25 0.265625 9.25 0.265625 11.25 2.265625 C11.515625 5.015625 11.515625 5.015625 11.5 8.265625 C11.50515625 9.338125 11.5103125 10.410625 11.515625 11.515625 C11.25 14.265625 11.25 14.265625 9.25 16.265625 C6.5 16.53125 6.5 16.53125 3.25 16.515625 C1.64125 16.52335937 1.64125 16.52335937 0 16.53125 C-2.75 16.265625 -2.75 16.265625 -4.75 14.265625 C-5.015625 11.515625 -5.015625 11.515625 -5 8.265625 C-5.00515625 7.193125 -5.0103125 6.120625 -5.015625 5.015625 C-4.64793525 1.20895466 -3.80667034 0.36768975 0 0 Z M-2.75 3.265625 C-2.84823937 4.92991551 -2.87973631 6.59844431 -2.875 8.265625 C-2.87757812 9.173125 -2.88015625 10.080625 -2.8828125 11.015625 C-3.00173779 13.23529111 -3.00173779 13.23529111 -1.75 14.265625 C-0.08570949 14.36386437 1.58281931 14.39536131 3.25 14.390625 C4.1575 14.39320312 5.065 14.39578125 6 14.3984375 C8.21966611 14.51736279 8.21966611 14.51736279 9.25 13.265625 C9.34823937 11.60133449 9.37973631 9.93280569 9.375 8.265625 C9.37757812 7.358125 9.38015625 6.450625 9.3828125 5.515625 C9.50173779 3.29595889 9.50173779 3.29595889 8.25 2.265625 C6.58570949 2.16738563 4.91718069 2.13588869 3.25 2.140625 C2.3425 2.13804688 1.435 2.13546875 0.5 2.1328125 C-1.71966611 2.01388721 -1.71966611 2.01388721 -2.75 3.265625 Z " fill="#9C9C9C" transform="translate(91.75,34.734375)"/>
<path d="M0 0 C1.0725 0.00515625 2.145 0.0103125 3.25 0.015625 C4.85875 0.00789063 4.85875 0.00789063 6.5 0 C9.25 0.265625 9.25 0.265625 11.25 2.265625 C11.515625 5.015625 11.515625 5.015625 11.5 8.265625 C11.50515625 9.338125 11.5103125 10.410625 11.515625 11.515625 C11.25 14.265625 11.25 14.265625 9.25 16.265625 C6.5 16.53125 6.5 16.53125 3.25 16.515625 C1.64125 16.52335937 1.64125 16.52335937 0 16.53125 C-2.75 16.265625 -2.75 16.265625 -4.75 14.265625 C-5.015625 11.515625 -5.015625 11.515625 -5 8.265625 C-5.00515625 7.193125 -5.0103125 6.120625 -5.015625 5.015625 C-4.64793525 1.20895466 -3.80667034 0.36768975 0 0 Z M-2.75 3.265625 C-2.84823937 4.92991551 -2.87973631 6.59844431 -2.875 8.265625 C-2.87757812 9.173125 -2.88015625 10.080625 -2.8828125 11.015625 C-3.00173779 13.23529111 -3.00173779 13.23529111 -1.75 14.265625 C-0.08570949 14.36386437 1.58281931 14.39536131 3.25 14.390625 C4.1575 14.39320312 5.065 14.39578125 6 14.3984375 C8.21966611 14.51736279 8.21966611 14.51736279 9.25 13.265625 C9.34823937 11.60133449 9.37973631 9.93280569 9.375 8.265625 C9.37757812 7.358125 9.38015625 6.450625 9.3828125 5.515625 C9.50173779 3.29595889 9.50173779 3.29595889 8.25 2.265625 C6.58570949 2.16738563 4.91718069 2.13588869 3.25 2.140625 C2.3425 2.13804688 1.435 2.13546875 0.5 2.1328125 C-1.71966611 2.01388721 -1.71966611 2.01388721 -2.75 3.265625 Z " fill="#969596" transform="translate(66.75,34.734375)"/>
<path d="M0 0 C0.99 0 1.98 0 3 0 C3 7.92 3 15.84 3 24 C1.68 24 0.36 24 -1 24 C-1.02887236 20.18751574 -1.04675492 16.3750593 -1.0625 12.5625 C-1.07087891 11.47388672 -1.07925781 10.38527344 -1.08789062 9.26367188 C-1.09111328 8.22919922 -1.09433594 7.19472656 -1.09765625 6.12890625 C-1.10289307 5.17056885 -1.10812988 4.21223145 -1.11352539 3.22485352 C-1 1 -1 1 0 0 Z " fill="#B5B4B5" transform="translate(110,156)"/>
<path d="M0 0 C0.99 0 1.98 0 3 0 C3 7.92 3 15.84 3 24 C2.01 24 1.02 24 0 24 C0 16.08 0 8.16 0 0 Z " fill="#9E9E9F" transform="translate(101,156)"/>
<path d="M0 0 C1.0725 0.00515625 2.145 0.0103125 3.25 0.015625 C4.85875 0.00789063 4.85875 0.00789063 6.5 0 C9.25 0.265625 9.25 0.265625 11.25 2.265625 C11.4453125 4.6484375 11.4453125 4.6484375 11.375 7.390625 C11.35695312 8.30070312 11.33890625 9.21078125 11.3203125 10.1484375 C11.29710937 10.84710938 11.27390625 11.54578125 11.25 12.265625 C10.92 12.265625 10.59 12.265625 10.25 12.265625 C10.02213542 10.21484375 9.79427083 8.1640625 9.56640625 6.11328125 C9.43113386 4.25422271 9.43113386 4.25422271 8.25 3.265625 C6.56816052 3.03275492 4.8787584 2.85298334 3.1875 2.703125 C1.558125 2.55875 -0.07125 2.414375 -1.75 2.265625 C-2.08 6.225625 -2.41 10.185625 -2.75 14.265625 C-3.41 14.265625 -4.07 14.265625 -4.75 14.265625 C-4.80389087 12.30758993 -4.84274217 10.34913591 -4.875 8.390625 C-4.89820312 7.30007812 -4.92140625 6.20953125 -4.9453125 5.0859375 C-4.67768384 1.22137965 -3.85625623 0.3724793 0 0 Z " fill="#99999A" transform="translate(116.75,34.734375)"/>
<path d="M0 0 C2.33936818 2.12669835 3.80653848 4.06224856 5 7 C5 7.99 5 8.98 5 10 C2.03 10 -0.94 10 -4 10 C-3.52449439 8.51965236 -3.04448784 7.04074979 -2.5625 5.5625 C-2.29566406 4.73878906 -2.02882813 3.91507813 -1.75390625 3.06640625 C-1 1 -1 1 0 0 Z " fill="#EAEAEB" transform="translate(86,162)"/>
<path d="M0 0 C1.93719378 -0.05406122 3.87481921 -0.09282025 5.8125 -0.125 C6.89144531 -0.14820312 7.97039062 -0.17140625 9.08203125 -0.1953125 C12 0 12 0 15 2 C15.29296875 5.0390625 15.29296875 5.0390625 15.1875 8.625 C15.16042969 9.81351563 15.13335937 11.00203125 15.10546875 12.2265625 C15.07066406 13.14179687 15.03585938 14.05703125 15 15 C14.01 15 13.02 15 12 15 C12 14.01 12 13.02 12 12 C11.84872598 10.43593472 11.68097478 8.87340748 11.5 7.3125 C11.335 5.889375 11.17 4.46625 11 3 C7.04 2.67 3.08 2.34 -1 2 C-0.67 1.34 -0.34 0.68 0 0 Z " fill="#AAABAB" transform="translate(114,86)"/>
<path d="M0 0 C2 3 2 3 3 7 C6.3 7 9.6 7 13 7 C13.66 5.02 14.32 3.04 15 1 C15.33 1 15.66 1 16 1 C16.125 4.375 16.125 4.375 16 8 C14 10 14 10 11.25 10.265625 C10.1775 10.26046875 9.105 10.2553125 8 10.25 C6.39125 10.25773437 6.39125 10.25773437 4.75 10.265625 C2 10 2 10 0 8 C-0.26991906 5.31160615 -0.08737357 2.70858064 0 0 Z " fill="#949596" transform="translate(62,92)"/>
<path d="M0 0 C0.66 0 1.32 0 2 0 C2.33 3.96 2.66 7.92 3 12 C6.63 12 10.26 12 14 12 C14 12.66 14 13.32 14 14 C12.04196493 14.05389087 10.08351091 14.09274217 8.125 14.125 C7.03445312 14.14820312 5.94390625 14.17140625 4.8203125 14.1953125 C2 14 2 14 0 12 C-0.1953125 9.1796875 -0.1953125 9.1796875 -0.125 5.875 C-0.10695313 4.77929688 -0.08890625 3.68359375 -0.0703125 2.5546875 C-0.04710938 1.71164063 -0.02390625 0.86859375 0 0 Z " fill="#969696" transform="translate(112,63)"/>
<path d="M0 0 C0.33 0 0.66 0 1 0 C1.33 2.97 1.66 5.94 2 9 C5.3 9 8.6 9 12 9 C12.33 7.35 12.66 5.7 13 4 C15 7 15 7 14.6875 9.125 C14 11 14 11 13 12 C10.98035801 12.07244053 8.95832876 12.08377188 6.9375 12.0625 C5.28041016 12.04896484 5.28041016 12.04896484 3.58984375 12.03515625 C2.73519531 12.02355469 1.88054687 12.01195312 1 12 C-1.58464442 7.61991557 -0.81479148 4.88874887 0 0 Z " fill="#9F9FA0" transform="translate(63,39)"/>
<path d="M0 0 C0.33 0 0.66 0 1 0 C1.05389087 1.95803507 1.09274217 3.91648909 1.125 5.875 C1.14820312 6.96554688 1.17140625 8.05609375 1.1953125 9.1796875 C1 12 1 12 -1 14 C-3.8203125 14.1953125 -3.8203125 14.1953125 -7.125 14.125 C-8.22070312 14.10695313 -9.31640625 14.08890625 -10.4453125 14.0703125 C-11.28835937 14.04710938 -12.13140625 14.02390625 -13 14 C-12.67 13.01 -12.34 12.02 -12 11 C-8.37 11 -4.74 11 -1 11 C-1.020625 9.55625 -1.04125 8.1125 -1.0625 6.625 C-1.125 2.25 -1.125 2.25 0 0 Z " fill="#A6A6A7" transform="translate(77,63)"/>
<path d="M0 0 C0.99 0 1.98 0 3 0 C2.56572515 4.92178161 0.30904303 7.45459675 -3 11 C-6 13 -6 13 -8.6875 12.625 C-9.450625 12.41875 -10.21375 12.2125 -11 12 C-10.443125 11.5875 -9.88625 11.175 -9.3125 10.75 C-8.549375 10.1725 -7.78625 9.595 -7 9 C-6.13375 8.38125 -5.2675 7.7625 -4.375 7.125 C-1.83433546 4.85177383 -0.98433466 3.22145889 0 0 Z " fill="#A4A4A6" transform="translate(147,109)"/>
<path d="M0 0 C0.66 0.33 1.32 0.66 2 1 C1.67 1.66 1.34 2.32 1 3 C0.93003986 4.70702735 0.91559846 6.41668003 0.9375 8.125 C0.95103516 9.49011719 0.95103516 9.49011719 0.96484375 10.8828125 C0.97644531 11.58148438 0.98804687 12.28015625 1 13 C3.97 13.33 6.94 13.66 10 14 C10 14.33 10 14.66 10 15 C8.37675914 15.22162329 6.751279 15.42689803 5.125 15.625 C4.22007813 15.74101563 3.31515625 15.85703125 2.3828125 15.9765625 C1.59648438 15.98429687 0.81015625 15.99203125 0 16 C-2 14 -2 14 -2.265625 11.25 C-2.26046875 10.1775 -2.2553125 9.105 -2.25 8 C-2.25515625 6.9275 -2.2603125 5.855 -2.265625 4.75 C-2 2 -2 2 0 0 Z " fill="#99999A" transform="translate(89,86)"/>
<path d="M0 0 C1.95803507 -0.05389087 3.91648909 -0.09274217 5.875 -0.125 C7.51082031 -0.15980469 7.51082031 -0.15980469 9.1796875 -0.1953125 C12 0 12 0 14 2 C14.1953125 4.3828125 14.1953125 4.3828125 14.125 7.125 C14.10695313 8.03507812 14.08890625 8.94515625 14.0703125 9.8828125 C14.04710938 10.58148438 14.02390625 11.28015625 14 12 C13.67 12 13.34 12 13 12 C12.77213542 9.94921875 12.54427083 7.8984375 12.31640625 5.84765625 C12.18113386 3.98859771 12.18113386 3.98859771 11 3 C9.35659133 2.90145345 7.7088539 2.87027589 6.0625 2.875 C5.16660156 2.87242188 4.27070312 2.86984375 3.34765625 2.8671875 C0.97844445 2.84578587 0.97844445 2.84578587 -1 4 C-0.67 2.68 -0.34 1.36 0 0 Z " fill="#919091" transform="translate(89,35)"/>
<path d="M0 0 C2 2 2 2 3.375 4.3125 C5.04924213 7.08143891 6.93777085 9.51110275 9 12 C8.01 12.495 8.01 12.495 7 13 C4.95880212 11.38405168 2.95927063 9.7143618 1 8 C1 7.34 1 6.68 1 6 C0.34 6 -0.32 6 -1 6 C-0.67 4.02 -0.34 2.04 0 0 Z " fill="#A1A1A3" transform="translate(40,109)"/>
<path d="M0 0 C0.33 0 0.66 0 1 0 C1.08086147 1.79093191 1.13912702 3.58289628 1.1875 5.375 C1.22230469 6.37273437 1.25710937 7.37046875 1.29296875 8.3984375 C1.19628906 9.25695312 1.09960938 10.11546875 1 11 C-2.5486135 13.36574234 -3.5764525 13.10865265 -7.6875 12.625 C-9.17830078 12.45871094 -9.17830078 12.45871094 -10.69921875 12.2890625 C-11.45847656 12.19367188 -12.21773438 12.09828125 -13 12 C-13 11.67 -13 11.34 -13 11 C-7.555 10.505 -7.555 10.505 -2 10 C-1.855625 8.535625 -1.71125 7.07125 -1.5625 5.5625 C-1.125 1.125 -1.125 1.125 0 0 Z " fill="#AFAFAF" transform="translate(128,63)"/>
<path d="M0 0 C-1.1446875 1.11375 -1.1446875 1.11375 -2.3125 2.25 C-4.9607804 4.81255089 -4.9607804 4.81255089 -6.625 7.3125 C-7.305625 8.1478125 -7.305625 8.1478125 -8 9 C-8.99 9 -9.98 9 -11 9 C-9.03329621 3.09988863 -6.66164979 -0.74018331 0 0 Z " fill="#99999A" transform="translate(50,12)"/>
<path d="M0 0 C2.1640625 0.0234375 2.1640625 0.0234375 4.625 0.375 C5.85089844 0.54128906 5.85089844 0.54128906 7.1015625 0.7109375 C7.72804688 0.80632813 8.35453125 0.90171875 9 1 C9 1.33 9 1.66 9 2 C6.36 2.33 3.72 2.66 1 3 C0.34 6.63 -0.32 10.26 -1 14 C-1.33 14 -1.66 14 -2 14 C-2.05389087 12.04196493 -2.09274217 10.08351091 -2.125 8.125 C-2.14820312 7.03445312 -2.17140625 5.94390625 -2.1953125 4.8203125 C-2 2 -2 2 0 0 Z " fill="#A2A2A3" transform="translate(89,61)"/>
<path d="M0 0 C1.875 0.125 1.875 0.125 4 1 C5.25 4.0625 5.25 4.0625 6 7 C5.01 7 4.02 7 3 7 C2.34 6.34 1.68 5.68 1 5 C0.01 5 -0.98 5 -2 5 C-1.34 3.35 -0.68 1.7 0 0 Z " fill="#A1A0A1" transform="translate(85,158)"/>
<path d="M0 0 C0.33 0 0.66 0 1 0 C1.05391993 1.79133978 1.09275571 3.58313899 1.125 5.375 C1.14820313 6.37273437 1.17140625 7.37046875 1.1953125 8.3984375 C1 11 1 11 -1 13 C-4.625 13.125 -4.625 13.125 -8 13 C-8.33 12.34 -8.66 11.68 -9 11 C-7.865625 10.855625 -6.73125 10.71125 -5.5625 10.5625 C-2.19222799 10.38828522 -2.19222799 10.38828522 -1 9 C-0.76807135 7.48530552 -0.58784762 5.96245438 -0.4375 4.4375 C-0.35371094 3.61121094 -0.26992187 2.78492187 -0.18359375 1.93359375 C-0.12300781 1.29550781 -0.06242187 0.65742187 0 0 Z " fill="#8B8B8C" transform="translate(127,89)"/>
<path d="M0 0 C0.33 0 0.66 0 1 0 C1.06058594 0.62648437 1.12117188 1.25296875 1.18359375 1.8984375 C1.26738281 2.71570312 1.35117188 3.53296875 1.4375 4.375 C1.51871094 5.18710937 1.59992188 5.99921875 1.68359375 6.8359375 C1.89090114 9.04272805 1.89090114 9.04272805 3 11 C4.89533342 11.46523063 4.89533342 11.46523063 7.0625 11.625 C8.361875 11.74875 9.66125 11.8725 11 12 C11 12.33 11 12.66 11 13 C9.37581255 13.08090971 7.75048255 13.13914995 6.125 13.1875 C4.76761719 13.23970703 4.76761719 13.23970703 3.3828125 13.29296875 C2.20332031 13.14794922 2.20332031 13.14794922 1 13 C-1.30143236 9.54785147 -1.13833854 8.76520676 -0.625 4.8125 C-0.51414062 3.91144531 -0.40328125 3.01039062 -0.2890625 2.08203125 C-0.19367188 1.39496094 -0.09828125 0.70789062 0 0 Z " fill="#BEBFBF" transform="translate(114,39)"/>
<path d="M0 0 C0.33 0 0.66 0 1 0 C1.05395478 1.62463842 1.09277195 3.24978541 1.125 4.875 C1.14820312 5.77992187 1.17140625 6.68484375 1.1953125 7.6171875 C1 10 1 10 -1 12 C-3.3828125 12.1953125 -3.3828125 12.1953125 -6.125 12.125 C-7.49011719 12.09792969 -7.49011719 12.09792969 -8.8828125 12.0703125 C-9.58148438 12.04710938 -10.28015625 12.02390625 -11 12 C-11 11.67 -11 11.34 -11 11 C-9.72125 10.87625 -8.4425 10.7525 -7.125 10.625 C-3.65209064 10.30957601 -3.65209064 10.30957601 -1 8 C-0.54188325 6.02764667 -0.54188325 6.02764667 -0.375 3.875 C-0.25125 2.59625 -0.1275 1.3175 0 0 Z " fill="#8A8A8A" transform="translate(102,90)"/>
<path d="M0 0 C1.45792884 -0.05399736 2.91642712 -0.09279177 4.375 -0.125 C5.18710938 -0.14820313 5.99921875 -0.17140625 6.8359375 -0.1953125 C9 0 9 0 11 2 C11.1953125 4.3828125 11.1953125 4.3828125 11.125 7.125 C11.10695313 8.03507812 11.08890625 8.94515625 11.0703125 9.8828125 C11.04710938 10.58148438 11.02390625 11.28015625 11 12 C10.67 12 10.34 12 10 12 C9.75585938 8.97265625 9.75585938 8.97265625 9.51171875 5.9453125 C9.12606964 3.60480784 9.12606964 3.60480784 6 2 C4.0103005 1.60986284 2.00980131 1.26797351 0 1 C0 0.67 0 0.34 0 0 Z " fill="#8D8D8D" transform="translate(92,61)"/>
<path d="M0 0 C0.33 0 0.66 0 1 0 C1.22786458 2.05078125 1.45572917 4.1015625 1.68359375 6.15234375 C1.81886614 8.01140229 1.81886614 8.01140229 3 9 C4.68183948 9.23287008 6.3712416 9.41264166 8.0625 9.5625 C8.98160156 9.64628906 9.90070313 9.73007813 10.84765625 9.81640625 C11.55792969 9.87699219 12.26820312 9.93757813 13 10 C13 10.33 13 10.66 13 11 C11.02090602 11.02686553 9.04171029 11.04633375 7.0625 11.0625 C5.96035156 11.07410156 4.85820313 11.08570312 3.72265625 11.09765625 C1 11 1 11 0 10 C-0.07205511 8.31391034 -0.08386068 6.62499341 -0.0625 4.9375 C-0.05347656 4.01839844 -0.04445312 3.09929687 -0.03515625 2.15234375 C-0.02355469 1.44207031 -0.01195312 0.73179688 0 0 Z " fill="#8E8E8E" transform="translate(62,65)"/>
<path d="M0 0 C2.42102911 1.18098981 3.82068009 2.2331559 5.5625 4.25 C5.2325 4.91 4.9025 5.57 4.5625 6.25 C1.12654834 4.72291037 -1.55662454 2.65072955 -4.4375 0.25 C-2.4375 -0.75 -2.4375 -0.75 0 0 Z " fill="#9C9C9D" transform="translate(142.4375,12.75)"/>
<path d="M0 0 C0.33 0 0.66 0 1 0 C1.03738281 0.68707031 1.07476562 1.37414062 1.11328125 2.08203125 C1.17902344 2.98308594 1.24476562 3.88414063 1.3125 4.8125 C1.37050781 5.70582031 1.42851563 6.59914063 1.48828125 7.51953125 C2.06313581 10.30604 2.8206856 11.24135754 5 13 C3.35 13 1.7 13 0 13 C-1.36421031 10.27157939 -0.87807211 8.39046682 -0.5625 5.375 C-0.40974609 3.87066406 -0.40974609 3.87066406 -0.25390625 2.3359375 C-0.17011719 1.56507812 -0.08632812 0.79421875 0 0 Z " fill="#A2A2A2" transform="translate(114,89)"/>
<path d="M0 0 C1.99097846 2.98646769 2.94124926 5.59687262 4 9 C2.68 8.67 1.36 8.34 0 8 C0 5.36 0 2.72 0 0 Z " fill="#8D8C8E" transform="translate(62,92)"/>
</svg>
