<svg width="400" height="464" viewBox="0 0 400 464" fill="none" xmlns="http://www.w3.org/2000/svg">
<rect x="8" y="8" width="384" height="384" rx="38" stroke="#5D5D5D" stroke-width="16"/>
<circle cx="107" cy="111" r="26" stroke="#5D5D5D" stroke-width="18"/>
<circle cx="200" cy="111" r="26" stroke="#5D5D5D" stroke-width="18"/>
<circle cx="293" cy="111" r="26" stroke="#5D5D5D" stroke-width="18"/>
<circle cx="107" cy="283" r="26" stroke="#5D5D5D" stroke-width="18"/>
<circle cx="200" cy="283" r="26" stroke="#5D5D5D" stroke-width="18"/>
<circle cx="293" cy="283" r="26" stroke="#5D5D5D" stroke-width="18"/>
<circle cx="107" cy="195" r="26" stroke="#5D5D5D" stroke-width="18"/>
<circle cx="200" cy="195" r="26" stroke="#5D5D5D" stroke-width="18"/>
<circle cx="293" cy="195" r="26" stroke="#5D5D5D" stroke-width="18"/>
<path d="M161.683 449.439V451H160.122V449.439H161.683ZM161.683 447.878V449.439H160.122V447.878H161.683ZM161.683 446.317V447.878H160.122V446.317H161.683ZM161.683 444.756V446.317H160.122V444.756H161.683ZM161.683 443.195V444.756H160.122V443.195H161.683ZM161.683 441.634V443.195H160.122V441.634H161.683ZM161.683 440.073V441.634H160.122V440.073H161.683ZM161.683 438.512V440.073H160.122V438.512H161.683ZM161.683 436.951V438.512H160.122V436.951H161.683ZM161.683 435.39V436.951H160.122V435.39H161.683ZM161.683 433.829V435.39H160.122V433.829H161.683ZM161.683 432.268V433.829H160.122V432.268H161.683ZM161.683 430.707V432.268H160.122V430.707H161.683ZM161.683 429.146V430.707H160.122V429.146H161.683ZM161.683 427.585V429.146H160.122V427.585H161.683ZM163.244 427.585V429.146H161.683V427.585H163.244ZM163.244 429.146V430.707H161.683V429.146H163.244ZM163.244 430.707V432.268H161.683V430.707H163.244ZM163.244 432.268V433.829H161.683V432.268H163.244ZM163.244 433.829V435.39H161.683V433.829H163.244ZM163.244 435.39V436.951H161.683V435.39H163.244ZM163.244 436.951V438.512H161.683V436.951H163.244ZM164.805 438.512V440.073H163.244V438.512H164.805ZM164.805 440.073V441.634H163.244V440.073H164.805ZM164.805 441.634V443.195H163.244V441.634H164.805ZM164.805 443.195V444.756H163.244V443.195H164.805ZM164.805 444.756V446.317H163.244V444.756H164.805ZM164.805 446.317V447.878H163.244V446.317H164.805ZM164.805 447.878V449.439H163.244V447.878H164.805ZM164.805 449.439V451H163.244V449.439H164.805ZM166.366 449.439V451H164.805V449.439H166.366ZM167.927 449.439V451H166.366V449.439H167.927ZM167.927 447.878V449.439H166.366V447.878H167.927ZM167.927 446.317V447.878H166.366V446.317H167.927ZM167.927 444.756V446.317H166.366V444.756H167.927ZM167.927 443.195V444.756H166.366V443.195H167.927ZM167.927 441.634V443.195H166.366V441.634H167.927ZM167.927 440.073V441.634H166.366V440.073H167.927ZM167.927 438.512V440.073H166.366V438.512H167.927ZM166.366 438.512V440.073H164.805V438.512H166.366ZM166.366 436.951V438.512H164.805V436.951H166.366ZM166.366 440.073V441.634H164.805V440.073H166.366ZM166.366 441.634V443.195H164.805V441.634H166.366ZM166.366 443.195V444.756H164.805V443.195H166.366ZM166.366 444.756V446.317H164.805V444.756H166.366ZM166.366 446.317V447.878H164.805V446.317H166.366ZM166.366 447.878V449.439H164.805V447.878H166.366ZM163.244 449.439V451H161.683V449.439H163.244ZM163.244 447.878V449.439H161.683V447.878H163.244ZM163.244 446.317V447.878H161.683V446.317H163.244ZM163.244 444.756V446.317H161.683V444.756H163.244ZM163.244 443.195V444.756H161.683V443.195H163.244ZM163.244 441.634V443.195H161.683V441.634H163.244ZM163.244 440.073V441.634H161.683V440.073H163.244ZM163.244 438.512V440.073H161.683V438.512H163.244ZM161.683 422.902V424.463H160.122V422.902H161.683ZM161.683 424.463V426.024H160.122V424.463H161.683ZM161.683 426.024V427.585H160.122V426.024H161.683ZM166.366 419.78V421.341H164.805V419.78H166.366ZM166.366 422.902V424.463H164.805V422.902H166.366ZM166.366 424.463V426.024H164.805V424.463H166.366ZM166.366 426.024V427.585H164.805V426.024H166.366ZM166.366 427.585V429.146H164.805V427.585H166.366ZM166.366 429.146V430.707H164.805V429.146H166.366ZM166.366 430.707V432.268H164.805V430.707H166.366ZM166.366 432.268V433.829H164.805V432.268H166.366ZM167.927 433.829V435.39H166.366V433.829H167.927ZM167.927 435.39V436.951H166.366V435.39H167.927ZM167.927 436.951V438.512H166.366V436.951H167.927ZM167.927 432.268V433.829H166.366V432.268H167.927ZM167.927 430.707V432.268H166.366V430.707H167.927ZM167.927 429.146V430.707H166.366V429.146H167.927ZM167.927 427.585V429.146H166.366V427.585H167.927ZM167.927 426.024V427.585H166.366V426.024H167.927ZM167.927 424.463V426.024H166.366V424.463H167.927ZM167.927 422.902V424.463H166.366V422.902H167.927ZM167.927 421.341V422.902H166.366V421.341H167.927ZM167.927 419.78V421.341H166.366V419.78H167.927ZM167.927 418.22V419.78H166.366V418.22H167.927ZM166.366 421.341V422.902H164.805V421.341H166.366ZM167.927 416.659V418.22H166.366V416.659H167.927ZM167.927 415.098V416.659H166.366V415.098H167.927ZM164.805 419.78V421.341H163.244V419.78H164.805ZM164.805 421.341V422.902H163.244V421.341H164.805ZM164.805 422.902V424.463H163.244V422.902H164.805ZM163.244 424.463V426.024H161.683V424.463H163.244ZM163.244 426.024V427.585H161.683V426.024H163.244ZM163.244 422.902V424.463H161.683V422.902H163.244ZM163.244 421.341V422.902H161.683V421.341H163.244ZM164.805 424.463V426.024H163.244V424.463H164.805ZM164.805 426.024V427.585H163.244V426.024H164.805ZM164.805 427.585V429.146H163.244V427.585H164.805ZM164.805 429.146V430.707H163.244V429.146H164.805ZM164.805 430.707V432.268H163.244V430.707H164.805ZM164.805 432.268V433.829H163.244V432.268H164.805ZM164.805 433.829V435.39H163.244V433.829H164.805ZM164.805 435.39V436.951H163.244V435.39H164.805ZM164.805 436.951V438.512H163.244V436.951H164.805ZM166.366 435.39V436.951H164.805V435.39H166.366ZM166.366 433.829V435.39H164.805V433.829H166.366ZM178.854 449.439V451H177.293V449.439H178.854ZM178.854 447.878V449.439H177.293V447.878H178.854ZM178.854 446.317V447.878H177.293V446.317H178.854ZM178.854 444.756V446.317H177.293V444.756H178.854ZM178.854 443.195V444.756H177.293V443.195H178.854ZM178.854 441.634V443.195H177.293V441.634H178.854ZM178.854 440.073V441.634H177.293V440.073H178.854ZM178.854 438.512V440.073H177.293V438.512H178.854ZM178.854 436.951V438.512H177.293V436.951H178.854ZM178.854 435.39V436.951H177.293V435.39H178.854ZM178.854 433.829V435.39H177.293V433.829H178.854ZM178.854 432.268V433.829H177.293V432.268H178.854ZM178.854 430.707V432.268H177.293V430.707H178.854ZM178.854 429.146V430.707H177.293V429.146H178.854ZM178.854 427.585V429.146H177.293V427.585H178.854ZM180.415 427.585V429.146H178.854V427.585H180.415ZM180.415 429.146V430.707H178.854V429.146H180.415ZM180.415 430.707V432.268H178.854V430.707H180.415ZM180.415 432.268V433.829H178.854V432.268H180.415ZM180.415 433.829V435.39H178.854V433.829H180.415ZM180.415 435.39V436.951H178.854V435.39H180.415ZM180.415 436.951V438.512H178.854V436.951H180.415ZM181.976 438.512V440.073H180.415V438.512H181.976ZM181.976 440.073V441.634H180.415V440.073H181.976ZM181.976 441.634V443.195H180.415V441.634H181.976ZM181.976 443.195V444.756H180.415V443.195H181.976ZM181.976 444.756V446.317H180.415V444.756H181.976ZM181.976 446.317V447.878H180.415V446.317H181.976ZM181.976 447.878V449.439H180.415V447.878H181.976ZM181.976 449.439V451H180.415V449.439H181.976ZM183.537 449.439V451H181.976V449.439H183.537ZM185.098 449.439V451H183.537V449.439H185.098ZM185.098 447.878V449.439H183.537V447.878H185.098ZM185.098 446.317V447.878H183.537V446.317H185.098ZM185.098 444.756V446.317H183.537V444.756H185.098ZM185.098 443.195V444.756H183.537V443.195H185.098ZM185.098 441.634V443.195H183.537V441.634H185.098ZM185.098 440.073V441.634H183.537V440.073H185.098ZM185.098 438.512V440.073H183.537V438.512H185.098ZM183.537 438.512V440.073H181.976V438.512H183.537ZM183.537 436.951V438.512H181.976V436.951H183.537ZM183.537 440.073V441.634H181.976V440.073H183.537ZM183.537 441.634V443.195H181.976V441.634H183.537ZM183.537 443.195V444.756H181.976V443.195H183.537ZM183.537 444.756V446.317H181.976V444.756H183.537ZM183.537 446.317V447.878H181.976V446.317H183.537ZM183.537 447.878V449.439H181.976V447.878H183.537ZM180.415 449.439V451H178.854V449.439H180.415ZM180.415 447.878V449.439H178.854V447.878H180.415ZM180.415 446.317V447.878H178.854V446.317H180.415ZM180.415 444.756V446.317H178.854V444.756H180.415ZM180.415 443.195V444.756H178.854V443.195H180.415ZM180.415 441.634V443.195H178.854V441.634H180.415ZM180.415 440.073V441.634H178.854V440.073H180.415ZM180.415 438.512V440.073H178.854V438.512H180.415ZM178.854 415.098V416.659H177.293V415.098H178.854ZM178.854 416.659V418.22H177.293V416.659H178.854ZM178.854 418.22V419.78H177.293V418.22H178.854ZM178.854 419.78V421.341H177.293V419.78H178.854ZM178.854 421.341V422.902H177.293V421.341H178.854ZM178.854 422.902V424.463H177.293V422.902H178.854ZM178.854 424.463V426.024H177.293V424.463H178.854ZM178.854 426.024V427.585H177.293V426.024H178.854ZM183.537 419.78V421.341H181.976V419.78H183.537ZM183.537 422.902V424.463H181.976V422.902H183.537ZM183.537 424.463V426.024H181.976V424.463H183.537ZM183.537 426.024V427.585H181.976V426.024H183.537ZM183.537 427.585V429.146H181.976V427.585H183.537ZM183.537 429.146V430.707H181.976V429.146H183.537ZM183.537 430.707V432.268H181.976V430.707H183.537ZM183.537 432.268V433.829H181.976V432.268H183.537ZM185.098 433.829V435.39H183.537V433.829H185.098ZM185.098 435.39V436.951H183.537V435.39H185.098ZM185.098 436.951V438.512H183.537V436.951H185.098ZM185.098 432.268V433.829H183.537V432.268H185.098ZM185.098 430.707V432.268H183.537V430.707H185.098ZM185.098 429.146V430.707H183.537V429.146H185.098ZM185.098 427.585V429.146H183.537V427.585H185.098ZM185.098 426.024V427.585H183.537V426.024H185.098ZM185.098 424.463V426.024H183.537V424.463H185.098ZM185.098 422.902V424.463H183.537V422.902H185.098ZM185.098 421.341V422.902H183.537V421.341H185.098ZM183.537 421.341V422.902H181.976V421.341H183.537ZM181.976 418.22V419.78H180.415V418.22H181.976ZM181.976 419.78V421.341H180.415V419.78H181.976ZM181.976 421.341V422.902H180.415V421.341H181.976ZM181.976 422.902V424.463H180.415V422.902H181.976ZM180.415 424.463V426.024H178.854V424.463H180.415ZM180.415 426.024V427.585H178.854V426.024H180.415ZM180.415 422.902V424.463H178.854V422.902H180.415ZM180.415 421.341V422.902H178.854V421.341H180.415ZM180.415 419.78V421.341H178.854V419.78H180.415ZM180.415 418.22V419.78H178.854V418.22H180.415ZM180.415 416.659V418.22H178.854V416.659H180.415ZM181.976 424.463V426.024H180.415V424.463H181.976ZM181.976 426.024V427.585H180.415V426.024H181.976ZM181.976 427.585V429.146H180.415V427.585H181.976ZM181.976 429.146V430.707H180.415V429.146H181.976ZM181.976 430.707V432.268H180.415V430.707H181.976ZM181.976 432.268V433.829H180.415V432.268H181.976ZM181.976 433.829V435.39H180.415V433.829H181.976ZM181.976 435.39V436.951H180.415V435.39H181.976ZM181.976 436.951V438.512H180.415V436.951H181.976ZM183.537 435.39V436.951H181.976V435.39H183.537ZM183.537 433.829V435.39H181.976V433.829H183.537ZM171.049 411.976V413.537H169.488V411.976H171.049ZM172.61 411.976V413.537H171.049V411.976H172.61ZM174.171 411.976V413.537H172.61V411.976H174.171ZM175.732 411.976V413.537H174.171V411.976H175.732ZM177.293 413.537V415.098H175.732V413.537H177.293ZM175.732 413.537V415.098H174.171V413.537H175.732ZM174.171 413.537V415.098H172.61V413.537H174.171ZM172.61 413.537V415.098H171.049V413.537H172.61ZM171.049 413.537V415.098H169.488V413.537H171.049ZM169.488 413.537V415.098H167.927V413.537H169.488ZM169.488 415.098V416.659H167.927V415.098H169.488ZM169.488 416.659V418.22H167.927V416.659H169.488ZM171.049 415.098V416.659H169.488V415.098H171.049ZM172.61 415.098V416.659H171.049V415.098H172.61ZM174.171 415.098V416.659H172.61V415.098H174.171ZM175.732 415.098V416.659H174.171V415.098H175.732ZM177.293 415.098V416.659H175.732V415.098H177.293ZM177.293 416.659V418.22H175.732V416.659H177.293ZM175.732 416.659V418.22H174.171V416.659H175.732ZM174.171 416.659V418.22H172.61V416.659H174.171ZM172.61 416.659V418.22H171.049V416.659H172.61ZM171.049 416.659V418.22H169.488V416.659H171.049ZM169.488 418.22V419.78H167.927V418.22H169.488ZM171.049 418.22V419.78H169.488V418.22H171.049ZM177.293 418.22V419.78H175.732V418.22H177.293ZM175.732 418.22V419.78H174.171V418.22H175.732ZM177.293 419.78V421.341H175.732V419.78H177.293ZM169.488 419.78V421.341H167.927V419.78H169.488ZM166.366 416.659V418.22H164.805V416.659H166.366ZM166.366 418.22V419.78H164.805V418.22H166.366ZM164.805 418.22V419.78H163.244V418.22H164.805ZM163.244 419.78V421.341H161.683V419.78H163.244ZM161.683 421.341V422.902H160.122V421.341H161.683ZM169.488 421.341V422.902H167.927V421.341H169.488ZM171.049 419.78V421.341H169.488V419.78H171.049ZM172.61 418.22V419.78H171.049V418.22H172.61ZM174.171 418.22V419.78H172.61V418.22H174.171ZM175.732 419.78V421.341H174.171V419.78H175.732ZM177.293 421.341V422.902H175.732V421.341H177.293ZM169.488 440.073V441.634H167.927V440.073H169.488ZM171.049 440.073V441.634H169.488V440.073H171.049ZM172.61 440.073V441.634H171.049V440.073H172.61ZM174.171 440.073V441.634H172.61V440.073H174.171ZM175.732 440.073V441.634H174.171V440.073H175.732ZM177.293 440.073V441.634H175.732V440.073H177.293ZM177.293 438.512V440.073H175.732V438.512H177.293ZM175.732 438.512V440.073H174.171V438.512H175.732ZM174.171 438.512V440.073H172.61V438.512H174.171ZM172.61 438.512V440.073H171.049V438.512H172.61ZM171.049 438.512V440.073H169.488V438.512H171.049ZM169.488 438.512V440.073H167.927V438.512H169.488ZM169.488 436.951V438.512H167.927V436.951H169.488ZM171.049 436.951V438.512H169.488V436.951H171.049ZM172.61 436.951V438.512H171.049V436.951H172.61ZM174.171 436.951V438.512H172.61V436.951H174.171ZM175.732 436.951V438.512H174.171V436.951H175.732ZM177.293 436.951V438.512H175.732V436.951H177.293ZM177.293 435.39V436.951H175.732V435.39H177.293ZM175.732 435.39V436.951H174.171V435.39H175.732ZM174.171 435.39V436.951H172.61V435.39H174.171ZM172.61 435.39V436.951H171.049V435.39H172.61ZM171.049 435.39V436.951H169.488V435.39H171.049ZM169.488 435.39V436.951H167.927V435.39H169.488ZM169.488 433.829V435.39H167.927V433.829H169.488ZM171.049 433.829V435.39H169.488V433.829H171.049ZM172.61 433.829V435.39H171.049V433.829H172.61ZM174.171 433.829V435.39H172.61V433.829H174.171ZM175.732 433.829V435.39H174.171V433.829H175.732ZM177.293 433.829V435.39H175.732V433.829H177.293ZM172.61 419.78V421.341H171.049V419.78H172.61ZM174.171 419.78V421.341H172.61V419.78H174.171ZM171.049 421.341V422.902H169.488V421.341H171.049ZM169.488 422.902V424.463H167.927V422.902H169.488ZM175.732 421.341V422.902H174.171V421.341H175.732ZM177.293 422.902V424.463H175.732V422.902H177.293ZM192.933 449.439V451H191.372V449.439H192.933ZM192.933 447.878V449.439H191.372V447.878H192.933ZM192.933 446.317V447.878H191.372V446.317H192.933ZM192.933 444.756V446.317H191.372V444.756H192.933ZM192.933 443.195V444.756H191.372V443.195H192.933ZM192.933 441.634V443.195H191.372V441.634H192.933ZM192.933 440.073V441.634H191.372V440.073H192.933ZM192.933 438.512V440.073H191.372V438.512H192.933ZM192.933 436.951V438.512H191.372V436.951H192.933ZM192.933 435.39V436.951H191.372V435.39H192.933ZM192.933 433.829V435.39H191.372V433.829H192.933ZM192.933 432.268V433.829H191.372V432.268H192.933ZM192.933 430.707V432.268H191.372V430.707H192.933ZM192.933 429.146V430.707H191.372V429.146H192.933ZM192.933 427.585V429.146H191.372V427.585H192.933ZM194.494 427.585V429.146H192.933V427.585H194.494ZM194.494 429.146V430.707H192.933V429.146H194.494ZM194.494 430.707V432.268H192.933V430.707H194.494ZM194.494 432.268V433.829H192.933V432.268H194.494ZM194.494 433.829V435.39H192.933V433.829H194.494ZM194.494 435.39V436.951H192.933V435.39H194.494ZM194.494 436.951V438.512H192.933V436.951H194.494ZM196.055 438.512V440.073H194.494V438.512H196.055ZM196.055 440.073V441.634H194.494V440.073H196.055ZM196.055 441.634V443.195H194.494V441.634H196.055ZM196.055 443.195V444.756H194.494V443.195H196.055ZM196.055 444.756V446.317H194.494V444.756H196.055ZM196.055 446.317V447.878H194.494V446.317H196.055ZM196.055 447.878V449.439H194.494V447.878H196.055ZM196.055 449.439V451H194.494V449.439H196.055ZM197.616 449.439V451H196.055V449.439H197.616ZM199.177 449.439V451H197.616V449.439H199.177ZM199.177 447.878V449.439H197.616V447.878H199.177ZM199.177 446.317V447.878H197.616V446.317H199.177ZM199.177 444.756V446.317H197.616V444.756H199.177ZM199.177 443.195V444.756H197.616V443.195H199.177ZM199.177 441.634V443.195H197.616V441.634H199.177ZM199.177 440.073V441.634H197.616V440.073H199.177ZM199.177 438.512V440.073H197.616V438.512H199.177ZM197.616 438.512V440.073H196.055V438.512H197.616ZM197.616 436.951V438.512H196.055V436.951H197.616ZM197.616 440.073V441.634H196.055V440.073H197.616ZM197.616 441.634V443.195H196.055V441.634H197.616ZM197.616 443.195V444.756H196.055V443.195H197.616ZM197.616 444.756V446.317H196.055V444.756H197.616ZM197.616 446.317V447.878H196.055V446.317H197.616ZM197.616 447.878V449.439H196.055V447.878H197.616ZM194.494 449.439V451H192.933V449.439H194.494ZM194.494 447.878V449.439H192.933V447.878H194.494ZM194.494 446.317V447.878H192.933V446.317H194.494ZM194.494 444.756V446.317H192.933V444.756H194.494ZM194.494 443.195V444.756H192.933V443.195H194.494ZM194.494 441.634V443.195H192.933V441.634H194.494ZM194.494 440.073V441.634H192.933V440.073H194.494ZM194.494 438.512V440.073H192.933V438.512H194.494ZM192.933 411.976V413.537H191.372V411.976H192.933ZM192.933 413.537V415.098H191.372V413.537H192.933ZM192.933 415.098V416.659H191.372V415.098H192.933ZM192.933 416.659V418.22H191.372V416.659H192.933ZM192.933 418.22V419.78H191.372V418.22H192.933ZM192.933 419.78V421.341H191.372V419.78H192.933ZM192.933 421.341V422.902H191.372V421.341H192.933ZM192.933 422.902V424.463H191.372V422.902H192.933ZM192.933 424.463V426.024H191.372V424.463H192.933ZM192.933 426.024V427.585H191.372V426.024H192.933ZM197.616 411.976V413.537H196.055V411.976H197.616ZM197.616 413.537V415.098H196.055V413.537H197.616ZM197.616 415.098V416.659H196.055V415.098H197.616ZM197.616 416.659V418.22H196.055V416.659H197.616ZM197.616 418.22V419.78H196.055V418.22H197.616ZM197.616 419.78V421.341H196.055V419.78H197.616ZM197.616 422.902V424.463H196.055V422.902H197.616ZM197.616 424.463V426.024H196.055V424.463H197.616ZM197.616 426.024V427.585H196.055V426.024H197.616ZM197.616 427.585V429.146H196.055V427.585H197.616ZM197.616 429.146V430.707H196.055V429.146H197.616ZM197.616 430.707V432.268H196.055V430.707H197.616ZM197.616 432.268V433.829H196.055V432.268H197.616ZM199.177 433.829V435.39H197.616V433.829H199.177ZM199.177 435.39V436.951H197.616V435.39H199.177ZM199.177 436.951V438.512H197.616V436.951H199.177ZM199.177 432.268V433.829H197.616V432.268H199.177ZM199.177 430.707V432.268H197.616V430.707H199.177ZM199.177 429.146V430.707H197.616V429.146H199.177ZM199.177 427.585V429.146H197.616V427.585H199.177ZM199.177 426.024V427.585H197.616V426.024H199.177ZM199.177 424.463V426.024H197.616V424.463H199.177ZM199.177 422.902V424.463H197.616V422.902H199.177ZM199.177 421.341V422.902H197.616V421.341H199.177ZM199.177 419.78V421.341H197.616V419.78H199.177ZM199.177 418.22V419.78H197.616V418.22H199.177ZM197.616 421.341V422.902H196.055V421.341H197.616ZM199.177 416.659V418.22H197.616V416.659H199.177ZM199.177 415.098V416.659H197.616V415.098H199.177ZM199.177 413.537V415.098H197.616V413.537H199.177ZM199.177 411.976V413.537H197.616V411.976H199.177ZM196.055 411.976V413.537H194.494V411.976H196.055ZM194.494 411.976V413.537H192.933V411.976H194.494ZM194.494 413.537V415.098H192.933V413.537H194.494ZM196.055 413.537V415.098H194.494V413.537H196.055ZM196.055 415.098V416.659H194.494V415.098H196.055ZM196.055 416.659V418.22H194.494V416.659H196.055ZM196.055 418.22V419.78H194.494V418.22H196.055ZM196.055 419.78V421.341H194.494V419.78H196.055ZM196.055 421.341V422.902H194.494V421.341H196.055ZM196.055 422.902V424.463H194.494V422.902H196.055ZM194.494 424.463V426.024H192.933V424.463H194.494ZM194.494 426.024V427.585H192.933V426.024H194.494ZM194.494 422.902V424.463H192.933V422.902H194.494ZM194.494 421.341V422.902H192.933V421.341H194.494ZM194.494 419.78V421.341H192.933V419.78H194.494ZM194.494 418.22V419.78H192.933V418.22H194.494ZM194.494 416.659V418.22H192.933V416.659H194.494ZM194.494 415.098V416.659H192.933V415.098H194.494ZM196.055 424.463V426.024H194.494V424.463H196.055ZM196.055 426.024V427.585H194.494V426.024H196.055ZM196.055 427.585V429.146H194.494V427.585H196.055ZM196.055 429.146V430.707H194.494V429.146H196.055ZM196.055 430.707V432.268H194.494V430.707H196.055ZM196.055 432.268V433.829H194.494V432.268H196.055ZM196.055 433.829V435.39H194.494V433.829H196.055ZM196.055 435.39V436.951H194.494V435.39H196.055ZM196.055 436.951V438.512H194.494V436.951H196.055ZM197.616 435.39V436.951H196.055V435.39H197.616ZM197.616 433.829V435.39H196.055V433.829H197.616ZM200.738 449.439V451H199.177V449.439H200.738ZM202.299 449.439V451H200.738V449.439H202.299ZM202.299 447.878V449.439H200.738V447.878H202.299ZM202.299 446.317V447.878H200.738V446.317H202.299ZM202.299 444.756V446.317H200.738V444.756H202.299ZM202.299 443.195V444.756H200.738V443.195H202.299ZM200.738 443.195V444.756H199.177V443.195H200.738ZM200.738 444.756V446.317H199.177V444.756H200.738ZM200.738 446.317V447.878H199.177V446.317H200.738ZM200.738 447.878V449.439H199.177V447.878H200.738ZM203.86 443.195V444.756H202.299V443.195H203.86ZM205.421 443.195V444.756H203.86V443.195H205.421ZM206.982 443.195V444.756H205.421V443.195H206.982ZM206.982 447.878V449.439H205.421V447.878H206.982ZM205.421 449.439V451H203.86V449.439H205.421ZM203.86 449.439V451H202.299V449.439H203.86ZM206.982 449.439V451H205.421V449.439H206.982ZM205.421 447.878V449.439H203.86V447.878H205.421ZM203.86 447.878V449.439H202.299V447.878H203.86ZM203.86 446.317V447.878H202.299V446.317H203.86ZM205.421 446.317V447.878H203.86V446.317H205.421ZM206.982 446.317V447.878H205.421V446.317H206.982ZM206.982 444.756V446.317H205.421V444.756H206.982ZM205.421 444.756V446.317H203.86V444.756H205.421ZM203.86 444.756V446.317H202.299V444.756H203.86ZM208.543 449.439V451H206.982V449.439H208.543ZM210.104 449.439V451H208.543V449.439H210.104ZM211.665 449.439V451H210.104V449.439H211.665ZM211.665 447.878V449.439H210.104V447.878H211.665ZM208.543 443.195V444.756H206.982V443.195H208.543ZM210.104 443.195V444.756H208.543V443.195H210.104ZM211.665 443.195V444.756H210.104V443.195H211.665ZM211.665 444.756V446.317H210.104V444.756H211.665ZM211.665 446.317V447.878H210.104V446.317H211.665ZM210.104 446.317V447.878H208.543V446.317H210.104ZM210.104 444.756V446.317H208.543V444.756H210.104ZM208.543 444.756V446.317H206.982V444.756H208.543ZM208.543 446.317V447.878H206.982V446.317H208.543ZM208.543 447.878V449.439H206.982V447.878H208.543ZM210.104 447.878V449.439H208.543V447.878H210.104ZM219.495 449.439V451H217.934V449.439H219.495ZM219.495 447.878V449.439H217.934V447.878H219.495ZM219.495 446.317V447.878H217.934V446.317H219.495ZM219.495 444.756V446.317H217.934V444.756H219.495ZM219.495 443.195V444.756H217.934V443.195H219.495ZM219.495 441.634V443.195H217.934V441.634H219.495ZM219.495 440.073V441.634H217.934V440.073H219.495ZM219.495 438.512V440.073H217.934V438.512H219.495ZM219.495 436.951V438.512H217.934V436.951H219.495ZM219.495 435.39V436.951H217.934V435.39H219.495ZM219.495 433.829V435.39H217.934V433.829H219.495ZM219.495 432.268V433.829H217.934V432.268H219.495ZM219.495 430.707V432.268H217.934V430.707H219.495ZM219.495 429.146V430.707H217.934V429.146H219.495ZM219.495 427.585V429.146H217.934V427.585H219.495ZM221.056 427.585V429.146H219.495V427.585H221.056ZM221.056 429.146V430.707H219.495V429.146H221.056ZM221.056 430.707V432.268H219.495V430.707H221.056ZM221.056 432.268V433.829H219.495V432.268H221.056ZM221.056 433.829V435.39H219.495V433.829H221.056ZM221.056 435.39V436.951H219.495V435.39H221.056ZM221.056 436.951V438.512H219.495V436.951H221.056ZM222.617 438.512V440.073H221.056V438.512H222.617ZM222.617 440.073V441.634H221.056V440.073H222.617ZM222.617 441.634V443.195H221.056V441.634H222.617ZM222.617 443.195V444.756H221.056V443.195H222.617ZM222.617 444.756V446.317H221.056V444.756H222.617ZM222.617 446.317V447.878H221.056V446.317H222.617ZM222.617 447.878V449.439H221.056V447.878H222.617ZM222.617 449.439V451H221.056V449.439H222.617ZM224.178 449.439V451H222.617V449.439H224.178ZM225.739 449.439V451H224.178V449.439H225.739ZM225.739 447.878V449.439H224.178V447.878H225.739ZM225.739 446.317V447.878H224.178V446.317H225.739ZM225.739 444.756V446.317H224.178V444.756H225.739ZM225.739 443.195V444.756H224.178V443.195H225.739ZM225.739 441.634V443.195H224.178V441.634H225.739ZM225.739 440.073V441.634H224.178V440.073H225.739ZM225.739 438.512V440.073H224.178V438.512H225.739ZM224.178 438.512V440.073H222.617V438.512H224.178ZM224.178 436.951V438.512H222.617V436.951H224.178ZM224.178 440.073V441.634H222.617V440.073H224.178ZM224.178 441.634V443.195H222.617V441.634H224.178ZM224.178 443.195V444.756H222.617V443.195H224.178ZM224.178 444.756V446.317H222.617V444.756H224.178ZM224.178 446.317V447.878H222.617V446.317H224.178ZM224.178 447.878V449.439H222.617V447.878H224.178ZM221.056 449.439V451H219.495V449.439H221.056ZM221.056 447.878V449.439H219.495V447.878H221.056ZM221.056 446.317V447.878H219.495V446.317H221.056ZM221.056 444.756V446.317H219.495V444.756H221.056ZM221.056 443.195V444.756H219.495V443.195H221.056ZM221.056 441.634V443.195H219.495V441.634H221.056ZM221.056 440.073V441.634H219.495V440.073H221.056ZM221.056 438.512V440.073H219.495V438.512H221.056ZM219.495 411.976V413.537H217.934V411.976H219.495ZM219.495 413.537V415.098H217.934V413.537H219.495ZM219.495 415.098V416.659H217.934V415.098H219.495ZM219.495 416.659V418.22H217.934V416.659H219.495ZM219.495 418.22V419.78H217.934V418.22H219.495ZM219.495 419.78V421.341H217.934V419.78H219.495ZM219.495 421.341V422.902H217.934V421.341H219.495ZM219.495 422.902V424.463H217.934V422.902H219.495ZM219.495 424.463V426.024H217.934V424.463H219.495ZM219.495 426.024V427.585H217.934V426.024H219.495ZM224.178 411.976V413.537H222.617V411.976H224.178ZM224.178 413.537V415.098H222.617V413.537H224.178ZM224.178 415.098V416.659H222.617V415.098H224.178ZM224.178 416.659V418.22H222.617V416.659H224.178ZM224.178 418.22V419.78H222.617V418.22H224.178ZM224.178 419.78V421.341H222.617V419.78H224.178ZM224.178 422.902V424.463H222.617V422.902H224.178ZM224.178 424.463V426.024H222.617V424.463H224.178ZM224.178 426.024V427.585H222.617V426.024H224.178ZM224.178 427.585V429.146H222.617V427.585H224.178ZM224.178 429.146V430.707H222.617V429.146H224.178ZM224.178 430.707V432.268H222.617V430.707H224.178ZM224.178 432.268V433.829H222.617V432.268H224.178ZM225.739 433.829V435.39H224.178V433.829H225.739ZM225.739 435.39V436.951H224.178V435.39H225.739ZM225.739 436.951V438.512H224.178V436.951H225.739ZM225.739 432.268V433.829H224.178V432.268H225.739ZM225.739 430.707V432.268H224.178V430.707H225.739ZM225.739 429.146V430.707H224.178V429.146H225.739ZM225.739 427.585V429.146H224.178V427.585H225.739ZM225.739 426.024V427.585H224.178V426.024H225.739ZM225.739 424.463V426.024H224.178V424.463H225.739ZM225.739 422.902V424.463H224.178V422.902H225.739ZM225.739 421.341V422.902H224.178V421.341H225.739ZM225.739 419.78V421.341H224.178V419.78H225.739ZM225.739 418.22V419.78H224.178V418.22H225.739ZM224.178 421.341V422.902H222.617V421.341H224.178ZM225.739 416.659V418.22H224.178V416.659H225.739ZM225.739 415.098V416.659H224.178V415.098H225.739ZM225.739 413.537V415.098H224.178V413.537H225.739ZM225.739 411.976V413.537H224.178V411.976H225.739ZM222.617 411.976V413.537H221.056V411.976H222.617ZM221.056 411.976V413.537H219.495V411.976H221.056ZM221.056 413.537V415.098H219.495V413.537H221.056ZM222.617 413.537V415.098H221.056V413.537H222.617ZM222.617 415.098V416.659H221.056V415.098H222.617ZM222.617 416.659V418.22H221.056V416.659H222.617ZM222.617 418.22V419.78H221.056V418.22H222.617ZM222.617 419.78V421.341H221.056V419.78H222.617ZM222.617 421.341V422.902H221.056V421.341H222.617ZM222.617 422.902V424.463H221.056V422.902H222.617ZM221.056 424.463V426.024H219.495V424.463H221.056ZM221.056 426.024V427.585H219.495V426.024H221.056ZM221.056 422.902V424.463H219.495V422.902H221.056ZM221.056 421.341V422.902H219.495V421.341H221.056ZM221.056 419.78V421.341H219.495V419.78H221.056ZM221.056 418.22V419.78H219.495V418.22H221.056ZM221.056 416.659V418.22H219.495V416.659H221.056ZM221.056 415.098V416.659H219.495V415.098H221.056ZM222.617 424.463V426.024H221.056V424.463H222.617ZM222.617 426.024V427.585H221.056V426.024H222.617ZM222.617 427.585V429.146H221.056V427.585H222.617ZM222.617 429.146V430.707H221.056V429.146H222.617ZM222.617 430.707V432.268H221.056V430.707H222.617ZM222.617 432.268V433.829H221.056V432.268H222.617ZM222.617 433.829V435.39H221.056V433.829H222.617ZM222.617 435.39V436.951H221.056V435.39H222.617ZM222.617 436.951V438.512H221.056V436.951H222.617ZM224.178 435.39V436.951H222.617V435.39H224.178ZM224.178 433.829V435.39H222.617V433.829H224.178ZM227.3 449.439V451H225.739V449.439H227.3ZM228.861 449.439V451H227.3V449.439H228.861ZM228.861 447.878V449.439H227.3V447.878H228.861ZM228.861 446.317V447.878H227.3V446.317H228.861ZM228.861 444.756V446.317H227.3V444.756H228.861ZM228.861 443.195V444.756H227.3V443.195H228.861ZM227.3 443.195V444.756H225.739V443.195H227.3ZM227.3 444.756V446.317H225.739V444.756H227.3ZM227.3 446.317V447.878H225.739V446.317H227.3ZM227.3 447.878V449.439H225.739V447.878H227.3ZM230.422 443.195V444.756H228.861V443.195H230.422ZM231.983 443.195V444.756H230.422V443.195H231.983ZM233.544 443.195V444.756H231.983V443.195H233.544ZM233.544 447.878V449.439H231.983V447.878H233.544ZM231.983 449.439V451H230.422V449.439H231.983ZM230.422 449.439V451H228.861V449.439H230.422ZM233.544 449.439V451H231.983V449.439H233.544ZM231.983 447.878V449.439H230.422V447.878H231.983ZM230.422 447.878V449.439H228.861V447.878H230.422ZM230.422 446.317V447.878H228.861V446.317H230.422ZM231.983 446.317V447.878H230.422V446.317H231.983ZM233.544 446.317V447.878H231.983V446.317H233.544ZM233.544 444.756V446.317H231.983V444.756H233.544ZM231.983 444.756V446.317H230.422V444.756H231.983ZM230.422 444.756V446.317H228.861V444.756H230.422ZM235.105 449.439V451H233.544V449.439H235.105ZM236.666 449.439V451H235.105V449.439H236.666ZM238.227 449.439V451H236.666V449.439H238.227ZM238.227 447.878V449.439H236.666V447.878H238.227ZM235.105 443.195V444.756H233.544V443.195H235.105ZM236.666 443.195V444.756H235.105V443.195H236.666ZM238.227 443.195V444.756H236.666V443.195H238.227ZM238.227 444.756V446.317H236.666V444.756H238.227ZM238.227 446.317V447.878H236.666V446.317H238.227ZM236.666 446.317V447.878H235.105V446.317H236.666ZM236.666 444.756V446.317H235.105V444.756H236.666ZM235.105 444.756V446.317H233.544V444.756H235.105ZM235.105 446.317V447.878H233.544V446.317H235.105ZM235.105 447.878V449.439H233.544V447.878H235.105ZM236.666 447.878V449.439H235.105V447.878H236.666Z" fill="#5D5D5D"/>
</svg>
