<svg width="248" height="447" viewBox="0 0 248 447" fill="none" xmlns="http://www.w3.org/2000/svg">
<path d="M50 159.688C77.6142 159.688 100 137.302 100 109.688C100 82.0733 77.6142 59.6875 50 59.6875C22.3858 59.6875 0 82.0733 0 109.688C0 137.302 22.3858 159.688 50 159.688Z" fill="#5D5D5D"/>
<path d="M50.6947 149.965C73.3229 149.965 91.6666 131.621 91.6666 108.993C91.6666 86.3646 73.3229 68.0208 50.6947 68.0208C28.0665 68.0208 9.72278 86.3646 9.72278 108.993C9.72278 131.621 28.0665 149.965 50.6947 149.965Z" fill="#7A7A7A"/>
<path d="M50.6947 149.965C73.3229 149.965 91.6666 131.621 91.6666 108.993C91.6666 86.3646 73.3229 68.0208 50.6947 68.0208C28.0665 68.0208 9.72278 86.3646 9.72278 108.993C9.72278 131.621 28.0665 149.965 50.6947 149.965Z" fill="#7A7A7A"/>
<path d="M48.7869 106.679V75.2374C31.2963 76.0267 17.1286 89.5016 15.228 106.679H48.7869Z" fill="#403939"/>
<path d="M86.1614 106.216C83.2805 89.8108 69.8603 77.0507 53.1208 75.1956V106.216H86.1614Z" fill="#403939"/>
<path d="M48.7869 111.31V142.75C31.2963 141.96 17.1286 128.487 15.228 111.31H48.7869Z" fill="#403939"/>
<path d="M86.1614 111.77C83.2805 128.175 69.8603 140.937 53.1208 142.79V111.77H86.1614Z" fill="#403939"/>
<path d="M235.187 99.0125C242.15 99.0125 247.787 104.65 247.787 111.613L224.95 362.775C224.95 369.738 219.312 375.375 212.35 375.375H81.6375C74.675 375.375 69.0375 369.738 69.0375 362.775L46.225 111.613C46.225 104.65 51.8625 99.0125 58.825 99.0125H171.45L184.775 31.0625L245.262 0L240.912 16.225L196.012 38.7375L184.287 99.0125H235.187ZM165.925 187.2H216.287V197.688H77.7125V187.2H153.075L168.812 111.613H58.8125L81.6375 362.775H212.337L235.175 111.613H181.65L165.925 187.2Z" fill="#5D5D5D"/>
<path d="M185.361 218.188C190.884 218.188 195.361 222.665 195.361 228.188C195.361 233.71 190.884 238.188 185.361 238.188C179.838 238.188 175.361 233.71 175.361 228.188C175.361 222.665 179.838 218.188 185.361 218.188Z" stroke="#5D5D5D" stroke-width="10"/>
<path d="M159.5 322.048C165.023 322.048 169.5 326.526 169.5 332.048C169.5 337.571 165.023 342.048 159.5 342.048C153.977 342.048 149.5 337.571 149.5 332.048C149.5 326.526 153.977 322.048 159.5 322.048Z" stroke="#5D5D5D" stroke-width="10"/>
<circle cx="122" cy="266.688" r="10" stroke="#5D5D5D" stroke-width="10"/>
<path d="M72.6829 445.127V446.688H71.122V445.127H72.6829ZM72.6829 443.566V445.127H71.122V443.566H72.6829ZM72.6829 442.005V443.566H71.122V442.005H72.6829ZM72.6829 440.444V442.005H71.122V440.444H72.6829ZM72.6829 438.883V440.444H71.122V438.883H72.6829ZM72.6829 437.322V438.883H71.122V437.322H72.6829ZM72.6829 435.761V437.322H71.122V435.761H72.6829ZM72.6829 434.2V435.761H71.122V434.2H72.6829ZM72.6829 432.639V434.2H71.122V432.639H72.6829ZM72.6829 431.078V432.639H71.122V431.078H72.6829ZM72.6829 429.517V431.078H71.122V429.517H72.6829ZM72.6829 427.956V429.517H71.122V427.956H72.6829ZM72.6829 426.395V427.956H71.122V426.395H72.6829ZM72.6829 424.834V426.395H71.122V424.834H72.6829ZM72.6829 423.273V424.834H71.122V423.273H72.6829ZM74.2439 423.273V424.834H72.6829V423.273H74.2439ZM74.2439 424.834V426.395H72.6829V424.834H74.2439ZM74.2439 426.395V427.956H72.6829V426.395H74.2439ZM74.2439 427.956V429.517H72.6829V427.956H74.2439ZM74.2439 429.517V431.078H72.6829V429.517H74.2439ZM74.2439 431.078V432.639H72.6829V431.078H74.2439ZM74.2439 432.639V434.2H72.6829V432.639H74.2439ZM75.8049 434.2V435.761H74.2439V434.2H75.8049ZM75.8049 435.761V437.322H74.2439V435.761H75.8049ZM75.8049 437.322V438.883H74.2439V437.322H75.8049ZM75.8049 438.883V440.444H74.2439V438.883H75.8049ZM75.8049 440.444V442.005H74.2439V440.444H75.8049ZM75.8049 442.005V443.566H74.2439V442.005H75.8049ZM75.8049 443.566V445.127H74.2439V443.566H75.8049ZM75.8049 445.127V446.688H74.2439V445.127H75.8049ZM77.3659 445.127V446.688H75.8049V445.127H77.3659ZM78.9268 445.127V446.688H77.3659V445.127H78.9268ZM78.9268 443.566V445.127H77.3659V443.566H78.9268ZM78.9268 442.005V443.566H77.3659V442.005H78.9268ZM78.9268 440.444V442.005H77.3659V440.444H78.9268ZM78.9268 438.883V440.444H77.3659V438.883H78.9268ZM78.9268 437.322V438.883H77.3659V437.322H78.9268ZM78.9268 435.761V437.322H77.3659V435.761H78.9268ZM78.9268 434.2V435.761H77.3659V434.2H78.9268ZM77.3659 434.2V435.761H75.8049V434.2H77.3659ZM77.3659 432.639V434.2H75.8049V432.639H77.3659ZM77.3659 435.761V437.322H75.8049V435.761H77.3659ZM77.3659 437.322V438.883H75.8049V437.322H77.3659ZM77.3659 438.883V440.444H75.8049V438.883H77.3659ZM77.3659 440.444V442.005H75.8049V440.444H77.3659ZM77.3659 442.005V443.566H75.8049V442.005H77.3659ZM77.3659 443.566V445.127H75.8049V443.566H77.3659ZM74.2439 445.127V446.688H72.6829V445.127H74.2439ZM74.2439 443.566V445.127H72.6829V443.566H74.2439ZM74.2439 442.005V443.566H72.6829V442.005H74.2439ZM74.2439 440.444V442.005H72.6829V440.444H74.2439ZM74.2439 438.883V440.444H72.6829V438.883H74.2439ZM74.2439 437.322V438.883H72.6829V437.322H74.2439ZM74.2439 435.761V437.322H72.6829V435.761H74.2439ZM74.2439 434.2V435.761H72.6829V434.2H74.2439ZM72.6829 407.663V409.224H71.122V407.663H72.6829ZM72.6829 409.224V410.785H71.122V409.224H72.6829ZM72.6829 410.785V412.346H71.122V410.785H72.6829ZM72.6829 412.346V413.907H71.122V412.346H72.6829ZM72.6829 413.907V415.468H71.122V413.907H72.6829ZM72.6829 415.468V417.029H71.122V415.468H72.6829ZM72.6829 417.029V418.59H71.122V417.029H72.6829ZM72.6829 418.59V420.151H71.122V418.59H72.6829ZM72.6829 420.151V421.712H71.122V420.151H72.6829ZM72.6829 421.712V423.273H71.122V421.712H72.6829ZM77.3659 407.663V409.224H75.8049V407.663H77.3659ZM77.3659 409.224V410.785H75.8049V409.224H77.3659ZM77.3659 410.785V412.346H75.8049V410.785H77.3659ZM77.3659 412.346V413.907H75.8049V412.346H77.3659ZM77.3659 413.907V415.468H75.8049V413.907H77.3659ZM77.3659 415.468V417.029H75.8049V415.468H77.3659ZM77.3659 418.59V420.151H75.8049V418.59H77.3659ZM77.3659 420.151V421.712H75.8049V420.151H77.3659ZM77.3659 421.712V423.273H75.8049V421.712H77.3659ZM77.3659 423.273V424.834H75.8049V423.273H77.3659ZM77.3659 424.834V426.395H75.8049V424.834H77.3659ZM77.3659 426.395V427.956H75.8049V426.395H77.3659ZM77.3659 427.956V429.517H75.8049V427.956H77.3659ZM78.9268 429.517V431.078H77.3659V429.517H78.9268ZM78.9268 431.078V432.639H77.3659V431.078H78.9268ZM78.9268 432.639V434.2H77.3659V432.639H78.9268ZM78.9268 427.956V429.517H77.3659V427.956H78.9268ZM78.9268 426.395V427.956H77.3659V426.395H78.9268ZM78.9268 424.834V426.395H77.3659V424.834H78.9268ZM78.9268 423.273V424.834H77.3659V423.273H78.9268ZM78.9268 421.712V423.273H77.3659V421.712H78.9268ZM78.9268 420.151V421.712H77.3659V420.151H78.9268ZM78.9268 418.59V420.151H77.3659V418.59H78.9268ZM78.9268 417.029V418.59H77.3659V417.029H78.9268ZM78.9268 415.468V417.029H77.3659V415.468H78.9268ZM78.9268 413.907V415.468H77.3659V413.907H78.9268ZM77.3659 417.029V418.59H75.8049V417.029H77.3659ZM78.9268 412.346V413.907H77.3659V412.346H78.9268ZM78.9268 410.785V412.346H77.3659V410.785H78.9268ZM78.9268 409.224V410.785H77.3659V409.224H78.9268ZM78.9268 407.663V409.224H77.3659V407.663H78.9268ZM75.8049 407.663V409.224H74.2439V407.663H75.8049ZM74.2439 407.663V409.224H72.6829V407.663H74.2439ZM74.2439 409.224V410.785H72.6829V409.224H74.2439ZM75.8049 409.224V410.785H74.2439V409.224H75.8049ZM75.8049 410.785V412.346H74.2439V410.785H75.8049ZM75.8049 412.346V413.907H74.2439V412.346H75.8049ZM75.8049 413.907V415.468H74.2439V413.907H75.8049ZM75.8049 415.468V417.029H74.2439V415.468H75.8049ZM75.8049 417.029V418.59H74.2439V417.029H75.8049ZM75.8049 418.59V420.151H74.2439V418.59H75.8049ZM74.2439 420.151V421.712H72.6829V420.151H74.2439ZM74.2439 421.712V423.273H72.6829V421.712H74.2439ZM74.2439 418.59V420.151H72.6829V418.59H74.2439ZM74.2439 417.029V418.59H72.6829V417.029H74.2439ZM74.2439 415.468V417.029H72.6829V415.468H74.2439ZM74.2439 413.907V415.468H72.6829V413.907H74.2439ZM74.2439 412.346V413.907H72.6829V412.346H74.2439ZM74.2439 410.785V412.346H72.6829V410.785H74.2439ZM75.8049 420.151V421.712H74.2439V420.151H75.8049ZM75.8049 421.712V423.273H74.2439V421.712H75.8049ZM75.8049 423.273V424.834H74.2439V423.273H75.8049ZM75.8049 424.834V426.395H74.2439V424.834H75.8049ZM75.8049 426.395V427.956H74.2439V426.395H75.8049ZM75.8049 427.956V429.517H74.2439V427.956H75.8049ZM75.8049 429.517V431.078H74.2439V429.517H75.8049ZM75.8049 431.078V432.639H74.2439V431.078H75.8049ZM75.8049 432.639V434.2H74.2439V432.639H75.8049ZM77.3659 431.078V432.639H75.8049V431.078H77.3659ZM77.3659 429.517V431.078H75.8049V429.517H77.3659ZM80.4878 407.663V409.224H78.9268V407.663H80.4878ZM82.0488 407.663V409.224H80.4878V407.663H82.0488ZM82.0488 409.224V410.785H80.4878V409.224H82.0488ZM80.4878 409.224V410.785H78.9268V409.224H80.4878ZM80.4878 410.785V412.346H78.9268V410.785H80.4878ZM82.0488 410.785V412.346H80.4878V410.785H82.0488ZM82.0488 412.346V413.907H80.4878V412.346H82.0488ZM80.4878 412.346V413.907H78.9268V412.346H80.4878ZM80.4878 413.907V415.468H78.9268V413.907H80.4878ZM82.0488 413.907V415.468H80.4878V413.907H82.0488ZM80.4878 445.127V446.688H78.9268V445.127H80.4878ZM82.0488 445.127V446.688H80.4878V445.127H82.0488ZM82.0488 443.566V445.127H80.4878V443.566H82.0488ZM82.0488 442.005V443.566H80.4878V442.005H82.0488ZM82.0488 440.444V442.005H80.4878V440.444H82.0488ZM82.0488 438.883V440.444H80.4878V438.883H82.0488ZM80.4878 438.883V440.444H78.9268V438.883H80.4878ZM80.4878 440.444V442.005H78.9268V440.444H80.4878ZM80.4878 442.005V443.566H78.9268V442.005H80.4878ZM80.4878 443.566V445.127H78.9268V443.566H80.4878ZM89.8537 420.151V421.712H88.2927V420.151H89.8537ZM89.8537 418.59V420.151H88.2927V418.59H89.8537ZM89.8537 417.029V418.59H88.2927V417.029H89.8537ZM88.2927 415.468V417.029H86.7317V415.468H88.2927ZM86.7317 413.907V415.468H85.1707V413.907H86.7317ZM85.1707 413.907V415.468H83.6098V413.907H85.1707ZM83.6098 413.907V415.468H82.0488V413.907H83.6098ZM83.6098 407.663V409.224H82.0488V407.663H83.6098ZM85.1707 407.663V409.224H83.6098V407.663H85.1707ZM86.7317 407.663V409.224H85.1707V407.663H86.7317ZM88.2927 407.663V409.224H86.7317V407.663H88.2927ZM88.2927 409.224V410.785H86.7317V409.224H88.2927ZM88.2927 410.785V412.346H86.7317V410.785H88.2927ZM88.2927 412.346V413.907H86.7317V412.346H88.2927ZM86.7317 412.346V413.907H85.1707V412.346H86.7317ZM86.7317 410.785V412.346H85.1707V410.785H86.7317ZM85.1707 410.785V412.346H83.6098V410.785H85.1707ZM83.6098 410.785V412.346H82.0488V410.785H83.6098ZM83.6098 409.224V410.785H82.0488V409.224H83.6098ZM85.1707 409.224V410.785H83.6098V409.224H85.1707ZM86.7317 409.224V410.785H85.1707V409.224H86.7317ZM83.6098 412.346V413.907H82.0488V412.346H83.6098ZM85.1707 412.346V413.907H83.6098V412.346H85.1707ZM88.2927 413.907V415.468H86.7317V413.907H88.2927ZM89.8537 415.468V417.029H88.2927V415.468H89.8537ZM89.8537 413.907V415.468H88.2927V413.907H89.8537ZM89.8537 412.346V413.907H88.2927V412.346H89.8537ZM89.8537 410.785V412.346H88.2927V410.785H89.8537ZM89.8537 409.224V410.785H88.2927V409.224H89.8537ZM89.8537 407.663V409.224H88.2927V407.663H89.8537ZM89.8537 421.712V423.273H88.2927V421.712H89.8537ZM89.8537 423.273V424.834H88.2927V423.273H89.8537ZM89.8537 424.834V426.395H88.2927V424.834H89.8537ZM89.8537 426.395V427.956H88.2927V426.395H89.8537ZM89.8537 427.956V429.517H88.2927V427.956H89.8537ZM89.8537 429.517V431.078H88.2927V429.517H89.8537ZM89.8537 432.639V434.2H88.2927V432.639H89.8537ZM89.8537 431.078V432.639H88.2927V431.078H89.8537ZM89.8537 434.2V435.761H88.2927V434.2H89.8537ZM89.8537 435.761V437.322H88.2927V435.761H89.8537ZM83.6098 438.883V440.444H82.0488V438.883H83.6098ZM85.1707 438.883V440.444H83.6098V438.883H85.1707ZM86.7317 438.883V440.444H85.1707V438.883H86.7317ZM88.2927 437.322V438.883H86.7317V437.322H88.2927ZM89.8537 437.322V438.883H88.2927V437.322H89.8537ZM89.8537 438.883V440.444H88.2927V438.883H89.8537ZM88.2927 438.883V440.444H86.7317V438.883H88.2927ZM89.8537 440.444V442.005H88.2927V440.444H89.8537ZM89.8537 442.005V443.566H88.2927V442.005H89.8537ZM89.8537 443.566V445.127H88.2927V443.566H89.8537ZM89.8537 445.127V446.688H88.2927V445.127H89.8537ZM88.2927 445.127V446.688H86.7317V445.127H88.2927ZM88.2927 443.566V445.127H86.7317V443.566H88.2927ZM86.7317 443.566V445.127H85.1707V443.566H86.7317ZM85.1707 445.127V446.688H83.6098V445.127H85.1707ZM83.6098 445.127V446.688H82.0488V445.127H83.6098ZM86.7317 445.127V446.688H85.1707V445.127H86.7317ZM85.1707 443.566V445.127H83.6098V443.566H85.1707ZM83.6098 443.566V445.127H82.0488V443.566H83.6098ZM83.6098 442.005V443.566H82.0488V442.005H83.6098ZM85.1707 442.005V443.566H83.6098V442.005H85.1707ZM86.7317 442.005V443.566H85.1707V442.005H86.7317ZM88.2927 442.005V443.566H86.7317V442.005H88.2927ZM88.2927 440.444V442.005H86.7317V440.444H88.2927ZM86.7317 440.444V442.005H85.1707V440.444H86.7317ZM85.1707 440.444V442.005H83.6098V440.444H85.1707ZM83.6098 440.444V442.005H82.0488V440.444H83.6098ZM91.4146 409.224V410.785H89.8537V409.224H91.4146ZM92.9756 409.224V410.785H91.4146V409.224H92.9756ZM92.9756 410.785V412.346H91.4146V410.785H92.9756ZM94.5366 410.785V412.346H92.9756V410.785H94.5366ZM94.5366 412.346V413.907H92.9756V412.346H94.5366ZM94.5366 413.907V415.468H92.9756V413.907H94.5366ZM96.0976 413.907V415.468H94.5366V413.907H96.0976ZM96.0976 415.468V417.029H94.5366V415.468H96.0976ZM96.0976 417.029V418.59H94.5366V417.029H96.0976ZM96.0976 418.59V420.151H94.5366V418.59H96.0976ZM96.0976 420.151V421.712H94.5366V420.151H96.0976ZM96.0976 421.712V423.273H94.5366V421.712H96.0976ZM96.0976 423.273V424.834H94.5366V423.273H96.0976ZM94.5366 424.834V426.395H92.9756V424.834H94.5366ZM92.9756 426.395V427.956H91.4146V426.395H92.9756ZM94.5366 427.956V429.517H92.9756V427.956H94.5366ZM96.0976 429.517V431.078H94.5366V429.517H96.0976ZM91.4146 443.566V445.127H89.8537V443.566H91.4146ZM92.9756 443.566V445.127H91.4146V443.566H92.9756ZM94.5366 442.005V443.566H92.9756V442.005H94.5366ZM96.0976 438.883V440.444H94.5366V438.883H96.0976ZM92.9756 442.005V443.566H91.4146V442.005H92.9756ZM92.9756 440.444V442.005H91.4146V440.444H92.9756ZM94.5366 440.444V442.005H92.9756V440.444H94.5366ZM96.0976 437.322V438.883H94.5366V437.322H96.0976ZM96.0976 435.761V437.322H94.5366V435.761H96.0976ZM96.0976 434.2V435.761H94.5366V434.2H96.0976ZM96.0976 432.639V434.2H94.5366V432.639H96.0976ZM96.0976 431.078V432.639H94.5366V431.078H96.0976ZM91.4146 427.956V429.517H89.8537V427.956H91.4146ZM92.9756 427.956V429.517H91.4146V427.956H92.9756ZM92.9756 429.517V431.078H91.4146V429.517H92.9756ZM91.4146 429.517V431.078H89.8537V429.517H91.4146ZM94.5366 429.517V431.078H92.9756V429.517H94.5366ZM94.5366 431.078V432.639H92.9756V431.078H94.5366ZM94.5366 432.639V434.2H92.9756V432.639H94.5366ZM94.5366 434.2V435.761H92.9756V434.2H94.5366ZM94.5366 435.761V437.322H92.9756V435.761H94.5366ZM94.5366 437.322V438.883H92.9756V437.322H94.5366ZM94.5366 438.883V440.444H92.9756V438.883H94.5366ZM92.9756 438.883V440.444H91.4146V438.883H92.9756ZM92.9756 437.322V438.883H91.4146V437.322H92.9756ZM92.9756 435.761V437.322H91.4146V435.761H92.9756ZM92.9756 434.2V435.761H91.4146V434.2H92.9756ZM92.9756 432.639V434.2H91.4146V432.639H92.9756ZM92.9756 431.078V432.639H91.4146V431.078H92.9756ZM91.4146 431.078V432.639H89.8537V431.078H91.4146ZM91.4146 432.639V434.2H89.8537V432.639H91.4146ZM91.4146 434.2V435.761H89.8537V434.2H91.4146ZM91.4146 435.761V437.322H89.8537V435.761H91.4146ZM91.4146 437.322V438.883H89.8537V437.322H91.4146ZM91.4146 438.883V440.444H89.8537V438.883H91.4146ZM91.4146 440.444V442.005H89.8537V440.444H91.4146ZM91.4146 442.005V443.566H89.8537V442.005H91.4146ZM91.4146 410.785V412.346H89.8537V410.785H91.4146ZM91.4146 412.346V413.907H89.8537V412.346H91.4146ZM91.4146 413.907V415.468H89.8537V413.907H91.4146ZM91.4146 415.468V417.029H89.8537V415.468H91.4146ZM91.4146 417.029V418.59H89.8537V417.029H91.4146ZM91.4146 418.59V420.151H89.8537V418.59H91.4146ZM91.4146 420.151V421.712H89.8537V420.151H91.4146ZM91.4146 421.712V423.273H89.8537V421.712H91.4146ZM91.4146 423.273V424.834H89.8537V423.273H91.4146ZM91.4146 424.834V426.395H89.8537V424.834H91.4146ZM91.4146 426.395V427.956H89.8537V426.395H91.4146ZM92.9756 424.834V426.395H91.4146V424.834H92.9756ZM92.9756 423.273V424.834H91.4146V423.273H92.9756ZM92.9756 421.712V423.273H91.4146V421.712H92.9756ZM92.9756 420.151V421.712H91.4146V420.151H92.9756ZM92.9756 418.59V420.151H91.4146V418.59H92.9756ZM92.9756 417.029V418.59H91.4146V417.029H92.9756ZM92.9756 415.468V417.029H91.4146V415.468H92.9756ZM92.9756 413.907V415.468H91.4146V413.907H92.9756ZM92.9756 412.346V413.907H91.4146V412.346H92.9756ZM94.5366 415.468V417.029H92.9756V415.468H94.5366ZM94.5366 417.029V418.59H92.9756V417.029H94.5366ZM94.5366 418.59V420.151H92.9756V418.59H94.5366ZM94.5366 420.151V421.712H92.9756V420.151H94.5366ZM94.5366 421.712V423.273H92.9756V421.712H94.5366ZM94.5366 423.273V424.834H92.9756V423.273H94.5366ZM96.0976 424.834V426.395H94.5366V424.834H96.0976ZM96.0976 426.395V427.956H94.5366V426.395H96.0976ZM96.0976 427.956V429.517H94.5366V427.956H96.0976ZM94.5366 426.395V427.956H92.9756V426.395H94.5366ZM103.933 445.127V446.688H102.372V445.127H103.933ZM103.933 443.566V445.127H102.372V443.566H103.933ZM103.933 442.005V443.566H102.372V442.005H103.933ZM103.933 440.444V442.005H102.372V440.444H103.933ZM103.933 438.883V440.444H102.372V438.883H103.933ZM103.933 437.322V438.883H102.372V437.322H103.933ZM103.933 435.761V437.322H102.372V435.761H103.933ZM103.933 434.2V435.761H102.372V434.2H103.933ZM103.933 432.639V434.2H102.372V432.639H103.933ZM103.933 431.078V432.639H102.372V431.078H103.933ZM103.933 429.517V431.078H102.372V429.517H103.933ZM103.933 427.956V429.517H102.372V427.956H103.933ZM103.933 426.395V427.956H102.372V426.395H103.933ZM103.933 424.834V426.395H102.372V424.834H103.933ZM103.933 423.273V424.834H102.372V423.273H103.933ZM105.494 423.273V424.834H103.933V423.273H105.494ZM105.494 424.834V426.395H103.933V424.834H105.494ZM105.494 426.395V427.956H103.933V426.395H105.494ZM105.494 427.956V429.517H103.933V427.956H105.494ZM105.494 429.517V431.078H103.933V429.517H105.494ZM105.494 431.078V432.639H103.933V431.078H105.494ZM105.494 432.639V434.2H103.933V432.639H105.494ZM107.055 434.2V435.761H105.494V434.2H107.055ZM107.055 435.761V437.322H105.494V435.761H107.055ZM107.055 437.322V438.883H105.494V437.322H107.055ZM107.055 438.883V440.444H105.494V438.883H107.055ZM107.055 440.444V442.005H105.494V440.444H107.055ZM107.055 442.005V443.566H105.494V442.005H107.055ZM107.055 443.566V445.127H105.494V443.566H107.055ZM107.055 445.127V446.688H105.494V445.127H107.055ZM108.616 445.127V446.688H107.055V445.127H108.616ZM110.177 445.127V446.688H108.616V445.127H110.177ZM110.177 443.566V445.127H108.616V443.566H110.177ZM110.177 442.005V443.566H108.616V442.005H110.177ZM110.177 440.444V442.005H108.616V440.444H110.177ZM110.177 438.883V440.444H108.616V438.883H110.177ZM110.177 437.322V438.883H108.616V437.322H110.177ZM110.177 435.761V437.322H108.616V435.761H110.177ZM110.177 434.2V435.761H108.616V434.2H110.177ZM108.616 434.2V435.761H107.055V434.2H108.616ZM108.616 432.639V434.2H107.055V432.639H108.616ZM108.616 435.761V437.322H107.055V435.761H108.616ZM108.616 437.322V438.883H107.055V437.322H108.616ZM108.616 438.883V440.444H107.055V438.883H108.616ZM108.616 440.444V442.005H107.055V440.444H108.616ZM108.616 442.005V443.566H107.055V442.005H108.616ZM108.616 443.566V445.127H107.055V443.566H108.616ZM105.494 445.127V446.688H103.933V445.127H105.494ZM105.494 443.566V445.127H103.933V443.566H105.494ZM105.494 442.005V443.566H103.933V442.005H105.494ZM105.494 440.444V442.005H103.933V440.444H105.494ZM105.494 438.883V440.444H103.933V438.883H105.494ZM105.494 437.322V438.883H103.933V437.322H105.494ZM105.494 435.761V437.322H103.933V435.761H105.494ZM105.494 434.2V435.761H103.933V434.2H105.494ZM103.933 417.029V418.59H102.372V417.029H103.933ZM103.933 418.59V420.151H102.372V418.59H103.933ZM103.933 420.151V421.712H102.372V420.151H103.933ZM103.933 421.712V423.273H102.372V421.712H103.933ZM108.616 418.59V420.151H107.055V418.59H108.616ZM108.616 420.151V421.712H107.055V420.151H108.616ZM108.616 421.712V423.273H107.055V421.712H108.616ZM108.616 423.273V424.834H107.055V423.273H108.616ZM108.616 424.834V426.395H107.055V424.834H108.616ZM108.616 426.395V427.956H107.055V426.395H108.616ZM108.616 427.956V429.517H107.055V427.956H108.616ZM110.177 429.517V431.078H108.616V429.517H110.177ZM110.177 431.078V432.639H108.616V431.078H110.177ZM110.177 432.639V434.2H108.616V432.639H110.177ZM110.177 427.956V429.517H108.616V427.956H110.177ZM110.177 426.395V427.956H108.616V426.395H110.177ZM110.177 424.834V426.395H108.616V424.834H110.177ZM110.177 423.273V424.834H108.616V423.273H110.177ZM110.177 421.712V423.273H108.616V421.712H110.177ZM110.177 420.151V421.712H108.616V420.151H110.177ZM110.177 418.59V420.151H108.616V418.59H110.177ZM110.177 417.029V418.59H108.616V417.029H110.177ZM108.616 417.029V418.59H107.055V417.029H108.616ZM107.055 417.029V418.59H105.494V417.029H107.055ZM107.055 418.59V420.151H105.494V418.59H107.055ZM105.494 420.151V421.712H103.933V420.151H105.494ZM105.494 421.712V423.273H103.933V421.712H105.494ZM105.494 418.59V420.151H103.933V418.59H105.494ZM105.494 417.029V418.59H103.933V417.029H105.494ZM107.055 420.151V421.712H105.494V420.151H107.055ZM107.055 421.712V423.273H105.494V421.712H107.055ZM107.055 423.273V424.834H105.494V423.273H107.055ZM107.055 424.834V426.395H105.494V424.834H107.055ZM107.055 426.395V427.956H105.494V426.395H107.055ZM107.055 427.956V429.517H105.494V427.956H107.055ZM107.055 429.517V431.078H105.494V429.517H107.055ZM107.055 431.078V432.639H105.494V431.078H107.055ZM107.055 432.639V434.2H105.494V432.639H107.055ZM108.616 431.078V432.639H107.055V431.078H108.616ZM108.616 429.517V431.078H107.055V429.517H108.616ZM121.104 423.273V424.834H119.543V423.273H121.104ZM121.104 417.029V418.59H119.543V417.029H121.104ZM121.104 418.59V420.151H119.543V418.59H121.104ZM122.665 418.59V420.151H121.104V418.59H122.665ZM124.226 420.151V421.712H122.665V420.151H124.226ZM122.665 421.712V423.273H121.104V421.712H122.665ZM122.665 420.151V421.712H121.104V420.151H122.665ZM121.104 420.151V421.712H119.543V420.151H121.104ZM119.543 420.151V421.712H117.982V420.151H119.543ZM119.543 421.712V423.273H117.982V421.712H119.543ZM121.104 421.712V423.273H119.543V421.712H121.104ZM119.543 423.273V424.834H117.982V423.273H119.543ZM117.982 421.712V423.273H116.421V421.712H117.982ZM117.982 420.151V421.712H116.421V420.151H117.982ZM117.982 418.59V420.151H116.421V418.59H117.982ZM117.982 417.029V418.59H116.421V417.029H117.982ZM119.543 417.029V418.59H117.982V417.029H119.543ZM119.543 418.59V420.151H117.982V418.59H119.543ZM116.421 417.029V418.59H114.86V417.029H116.421ZM116.421 418.59V420.151H114.86V418.59H116.421ZM116.421 420.151V421.712H114.86V420.151H116.421ZM116.421 421.712V423.273H114.86V421.712H116.421ZM114.86 417.029V418.59H113.299V417.029H114.86ZM114.86 418.59V420.151H113.299V418.59H114.86ZM113.299 418.59V420.151H111.738V418.59H113.299ZM113.299 420.151V421.712H111.738V420.151H113.299ZM111.738 420.151V421.712H110.177V420.151H111.738ZM111.738 421.712V423.273H110.177V421.712H111.738ZM113.299 421.712V423.273H111.738V421.712H113.299ZM114.86 421.712V423.273H113.299V421.712H114.86ZM114.86 420.151V421.712H113.299V420.151H114.86ZM111.738 423.273V424.834H110.177V423.273H111.738ZM113.299 417.029V418.59H111.738V417.029H113.299ZM111.738 418.59V420.151H110.177V418.59H111.738ZM117.982 423.273V424.834H116.421V423.273H117.982ZM119.543 424.834V426.395H117.982V424.834H119.543ZM128.933 407.663V409.224H127.372V407.663H128.933ZM128.933 409.224V410.785H127.372V409.224H128.933ZM128.933 410.785V412.346H127.372V410.785H128.933ZM133.616 407.663V409.224H132.055V407.663H133.616ZM133.616 409.224V410.785H132.055V409.224H133.616ZM133.616 410.785V412.346H132.055V410.785H133.616ZM135.177 410.785V412.346H133.616V410.785H135.177ZM135.177 409.224V410.785H133.616V409.224H135.177ZM135.177 407.663V409.224H133.616V407.663H135.177ZM132.055 407.663V409.224H130.494V407.663H132.055ZM130.494 407.663V409.224H128.933V407.663H130.494ZM130.494 409.224V410.785H128.933V409.224H130.494ZM132.055 409.224V410.785H130.494V409.224H132.055ZM132.055 410.785V412.346H130.494V410.785H132.055ZM130.494 410.785V412.346H128.933V410.785H130.494ZM128.933 412.346V413.907H127.372V412.346H128.933ZM130.494 412.346V413.907H128.933V412.346H130.494ZM132.055 412.346V413.907H130.494V412.346H132.055ZM133.616 412.346V413.907H132.055V412.346H133.616ZM135.177 412.346V413.907H133.616V412.346H135.177ZM128.933 445.127V446.688H127.372V445.127H128.933ZM128.933 443.566V445.127H127.372V443.566H128.933ZM128.933 442.005V443.566H127.372V442.005H128.933ZM128.933 440.444V442.005H127.372V440.444H128.933ZM128.933 438.883V440.444H127.372V438.883H128.933ZM128.933 437.322V438.883H127.372V437.322H128.933ZM128.933 435.761V437.322H127.372V435.761H128.933ZM128.933 434.2V435.761H127.372V434.2H128.933ZM128.933 432.639V434.2H127.372V432.639H128.933ZM128.933 431.078V432.639H127.372V431.078H128.933ZM128.933 429.517V431.078H127.372V429.517H128.933ZM128.933 427.956V429.517H127.372V427.956H128.933ZM128.933 426.395V427.956H127.372V426.395H128.933ZM128.933 424.834V426.395H127.372V424.834H128.933ZM128.933 423.273V424.834H127.372V423.273H128.933ZM130.494 423.273V424.834H128.933V423.273H130.494ZM130.494 424.834V426.395H128.933V424.834H130.494ZM130.494 426.395V427.956H128.933V426.395H130.494ZM130.494 427.956V429.517H128.933V427.956H130.494ZM130.494 429.517V431.078H128.933V429.517H130.494ZM130.494 431.078V432.639H128.933V431.078H130.494ZM130.494 432.639V434.2H128.933V432.639H130.494ZM132.055 434.2V435.761H130.494V434.2H132.055ZM132.055 435.761V437.322H130.494V435.761H132.055ZM132.055 437.322V438.883H130.494V437.322H132.055ZM132.055 438.883V440.444H130.494V438.883H132.055ZM132.055 440.444V442.005H130.494V440.444H132.055ZM132.055 442.005V443.566H130.494V442.005H132.055ZM132.055 443.566V445.127H130.494V443.566H132.055ZM132.055 445.127V446.688H130.494V445.127H132.055ZM133.616 445.127V446.688H132.055V445.127H133.616ZM135.177 445.127V446.688H133.616V445.127H135.177ZM135.177 443.566V445.127H133.616V443.566H135.177ZM135.177 442.005V443.566H133.616V442.005H135.177ZM135.177 440.444V442.005H133.616V440.444H135.177ZM135.177 438.883V440.444H133.616V438.883H135.177ZM135.177 437.322V438.883H133.616V437.322H135.177ZM135.177 435.761V437.322H133.616V435.761H135.177ZM135.177 434.2V435.761H133.616V434.2H135.177ZM133.616 434.2V435.761H132.055V434.2H133.616ZM133.616 432.639V434.2H132.055V432.639H133.616ZM133.616 435.761V437.322H132.055V435.761H133.616ZM133.616 437.322V438.883H132.055V437.322H133.616ZM133.616 438.883V440.444H132.055V438.883H133.616ZM133.616 440.444V442.005H132.055V440.444H133.616ZM133.616 442.005V443.566H132.055V442.005H133.616ZM133.616 443.566V445.127H132.055V443.566H133.616ZM130.494 445.127V446.688H128.933V445.127H130.494ZM130.494 443.566V445.127H128.933V443.566H130.494ZM130.494 442.005V443.566H128.933V442.005H130.494ZM130.494 440.444V442.005H128.933V440.444H130.494ZM130.494 438.883V440.444H128.933V438.883H130.494ZM130.494 437.322V438.883H128.933V437.322H130.494ZM130.494 435.761V437.322H128.933V435.761H130.494ZM130.494 434.2V435.761H128.933V434.2H130.494ZM128.933 420.151V421.712H127.372V420.151H128.933ZM128.933 421.712V423.273H127.372V421.712H128.933ZM133.616 420.151V421.712H132.055V420.151H133.616ZM133.616 421.712V423.273H132.055V421.712H133.616ZM133.616 423.273V424.834H132.055V423.273H133.616ZM133.616 424.834V426.395H132.055V424.834H133.616ZM133.616 426.395V427.956H132.055V426.395H133.616ZM133.616 427.956V429.517H132.055V427.956H133.616ZM135.177 429.517V431.078H133.616V429.517H135.177ZM135.177 431.078V432.639H133.616V431.078H135.177ZM135.177 432.639V434.2H133.616V432.639H135.177ZM135.177 427.956V429.517H133.616V427.956H135.177ZM135.177 426.395V427.956H133.616V426.395H135.177ZM135.177 424.834V426.395H133.616V424.834H135.177ZM135.177 423.273V424.834H133.616V423.273H135.177ZM135.177 421.712V423.273H133.616V421.712H135.177ZM135.177 420.151V421.712H133.616V420.151H135.177ZM130.494 420.151V421.712H128.933V420.151H130.494ZM130.494 421.712V423.273H128.933V421.712H130.494ZM132.055 420.151V421.712H130.494V420.151H132.055ZM132.055 421.712V423.273H130.494V421.712H132.055ZM132.055 423.273V424.834H130.494V423.273H132.055ZM132.055 424.834V426.395H130.494V424.834H132.055ZM132.055 426.395V427.956H130.494V426.395H132.055ZM132.055 427.956V429.517H130.494V427.956H132.055ZM132.055 429.517V431.078H130.494V429.517H132.055ZM132.055 431.078V432.639H130.494V431.078H132.055ZM132.055 432.639V434.2H130.494V432.639H132.055ZM133.616 431.078V432.639H132.055V431.078H133.616ZM133.616 429.517V431.078H132.055V429.517H133.616ZM133.616 418.59V420.151H132.055V418.59H133.616ZM135.177 418.59V420.151H133.616V418.59H135.177ZM132.055 418.59V420.151H130.494V418.59H132.055ZM130.494 418.59V420.151H128.933V418.59H130.494ZM128.933 418.59V420.151H127.372V418.59H128.933ZM142.995 445.127V446.688H141.434V445.127H142.995ZM142.995 443.566V445.127H141.434V443.566H142.995ZM142.995 442.005V443.566H141.434V442.005H142.995ZM142.995 440.444V442.005H141.434V440.444H142.995ZM142.995 438.883V440.444H141.434V438.883H142.995ZM142.995 437.322V438.883H141.434V437.322H142.995ZM142.995 435.761V437.322H141.434V435.761H142.995ZM142.995 434.2V435.761H141.434V434.2H142.995ZM142.995 432.639V434.2H141.434V432.639H142.995ZM142.995 431.078V432.639H141.434V431.078H142.995ZM142.995 429.517V431.078H141.434V429.517H142.995ZM142.995 427.956V429.517H141.434V427.956H142.995ZM142.995 426.395V427.956H141.434V426.395H142.995ZM142.995 424.834V426.395H141.434V424.834H142.995ZM142.995 423.273V424.834H141.434V423.273H142.995ZM144.556 423.273V424.834H142.995V423.273H144.556ZM144.556 424.834V426.395H142.995V424.834H144.556ZM144.556 426.395V427.956H142.995V426.395H144.556ZM144.556 427.956V429.517H142.995V427.956H144.556ZM144.556 429.517V431.078H142.995V429.517H144.556ZM144.556 431.078V432.639H142.995V431.078H144.556ZM144.556 432.639V434.2H142.995V432.639H144.556ZM146.117 434.2V435.761H144.556V434.2H146.117ZM146.117 435.761V437.322H144.556V435.761H146.117ZM146.117 437.322V438.883H144.556V437.322H146.117ZM146.117 438.883V440.444H144.556V438.883H146.117ZM146.117 440.444V442.005H144.556V440.444H146.117ZM146.117 442.005V443.566H144.556V442.005H146.117ZM146.117 443.566V445.127H144.556V443.566H146.117ZM146.117 445.127V446.688H144.556V445.127H146.117ZM147.678 445.127V446.688H146.117V445.127H147.678ZM149.239 445.127V446.688H147.678V445.127H149.239ZM149.239 443.566V445.127H147.678V443.566H149.239ZM149.239 442.005V443.566H147.678V442.005H149.239ZM149.239 440.444V442.005H147.678V440.444H149.239ZM149.239 438.883V440.444H147.678V438.883H149.239ZM149.239 437.322V438.883H147.678V437.322H149.239ZM149.239 435.761V437.322H147.678V435.761H149.239ZM149.239 434.2V435.761H147.678V434.2H149.239ZM147.678 434.2V435.761H146.117V434.2H147.678ZM147.678 432.639V434.2H146.117V432.639H147.678ZM147.678 435.761V437.322H146.117V435.761H147.678ZM147.678 437.322V438.883H146.117V437.322H147.678ZM147.678 438.883V440.444H146.117V438.883H147.678ZM147.678 440.444V442.005H146.117V440.444H147.678ZM147.678 442.005V443.566H146.117V442.005H147.678ZM147.678 443.566V445.127H146.117V443.566H147.678ZM144.556 445.127V446.688H142.995V445.127H144.556ZM144.556 443.566V445.127H142.995V443.566H144.556ZM144.556 442.005V443.566H142.995V442.005H144.556ZM144.556 440.444V442.005H142.995V440.444H144.556ZM144.556 438.883V440.444H142.995V438.883H144.556ZM144.556 437.322V438.883H142.995V437.322H144.556ZM144.556 435.761V437.322H142.995V435.761H144.556ZM144.556 434.2V435.761H142.995V434.2H144.556ZM142.995 417.029V418.59H141.434V417.029H142.995ZM142.995 418.59V420.151H141.434V418.59H142.995ZM142.995 420.151V421.712H141.434V420.151H142.995ZM142.995 421.712V423.273H141.434V421.712H142.995ZM147.678 418.59V420.151H146.117V418.59H147.678ZM147.678 420.151V421.712H146.117V420.151H147.678ZM147.678 421.712V423.273H146.117V421.712H147.678ZM147.678 423.273V424.834H146.117V423.273H147.678ZM147.678 424.834V426.395H146.117V424.834H147.678ZM147.678 426.395V427.956H146.117V426.395H147.678ZM147.678 427.956V429.517H146.117V427.956H147.678ZM149.239 429.517V431.078H147.678V429.517H149.239ZM149.239 431.078V432.639H147.678V431.078H149.239ZM149.239 432.639V434.2H147.678V432.639H149.239ZM149.239 427.956V429.517H147.678V427.956H149.239ZM149.239 426.395V427.956H147.678V426.395H149.239ZM149.239 424.834V426.395H147.678V424.834H149.239ZM149.239 423.273V424.834H147.678V423.273H149.239ZM149.239 421.712V423.273H147.678V421.712H149.239ZM149.239 420.151V421.712H147.678V420.151H149.239ZM149.239 418.59V420.151H147.678V418.59H149.239ZM149.239 417.029V418.59H147.678V417.029H149.239ZM147.678 417.029V418.59H146.117V417.029H147.678ZM146.117 417.029V418.59H144.556V417.029H146.117ZM146.117 418.59V420.151H144.556V418.59H146.117ZM144.556 420.151V421.712H142.995V420.151H144.556ZM144.556 421.712V423.273H142.995V421.712H144.556ZM144.556 418.59V420.151H142.995V418.59H144.556ZM144.556 417.029V418.59H142.995V417.029H144.556ZM146.117 420.151V421.712H144.556V420.151H146.117ZM146.117 421.712V423.273H144.556V421.712H146.117ZM146.117 423.273V424.834H144.556V423.273H146.117ZM146.117 424.834V426.395H144.556V424.834H146.117ZM146.117 426.395V427.956H144.556V426.395H146.117ZM146.117 427.956V429.517H144.556V427.956H146.117ZM146.117 429.517V431.078H144.556V429.517H146.117ZM146.117 431.078V432.639H144.556V431.078H146.117ZM146.117 432.639V434.2H144.556V432.639H146.117ZM147.678 431.078V432.639H146.117V431.078H147.678ZM147.678 429.517V431.078H146.117V429.517H147.678ZM160.166 445.127V446.688H158.605V445.127H160.166ZM161.727 445.127V446.688H160.166V445.127H161.727ZM163.288 445.127V446.688H161.727V445.127H163.288ZM164.849 445.127V446.688H163.288V445.127H164.849ZM166.41 443.566V445.127H164.849V443.566H166.41ZM166.41 442.005V443.566H164.849V442.005H166.41ZM166.41 445.127V446.688H164.849V445.127H166.41ZM164.849 443.566V445.127H163.288V443.566H164.849ZM163.288 443.566V445.127H161.727V443.566H163.288ZM161.727 443.566V445.127H160.166V443.566H161.727ZM160.166 443.566V445.127H158.605V443.566H160.166ZM160.166 442.005V443.566H158.605V442.005H160.166ZM160.166 440.444V442.005H158.605V440.444H160.166ZM161.727 440.444V442.005H160.166V440.444H161.727ZM163.288 440.444V442.005H161.727V440.444H163.288ZM164.849 440.444V442.005H163.288V440.444H164.849ZM166.41 440.444V442.005H164.849V440.444H166.41ZM164.849 442.005V443.566H163.288V442.005H164.849ZM163.288 442.005V443.566H161.727V442.005H163.288ZM161.727 442.005V443.566H160.166V442.005H161.727ZM166.41 423.273V424.834H164.849V423.273H166.41ZM164.849 423.273V424.834H163.288V423.273H164.849ZM161.727 423.273V424.834H160.166V423.273H161.727ZM161.727 424.834V426.395H160.166V424.834H161.727ZM161.727 426.395V427.956H160.166V426.395H161.727ZM160.166 427.956V429.517H158.605V427.956H160.166ZM160.166 429.517V431.078H158.605V429.517H160.166ZM160.166 431.078V432.639H158.605V431.078H160.166ZM160.166 432.639V434.2H158.605V432.639H160.166ZM160.166 434.2V435.761H158.605V434.2H160.166ZM160.166 435.761V437.322H158.605V435.761H160.166ZM160.166 437.322V438.883H158.605V437.322H160.166ZM160.166 438.883V440.444H158.605V438.883H160.166ZM161.727 438.883V440.444H160.166V438.883H161.727ZM163.288 438.883V440.444H161.727V438.883H163.288ZM164.849 438.883V440.444H163.288V438.883H164.849ZM166.41 438.883V440.444H164.849V438.883H166.41ZM166.41 437.322V438.883H164.849V437.322H166.41ZM166.41 434.2V435.761H164.849V434.2H166.41ZM166.41 432.639V434.2H164.849V432.639H166.41ZM166.41 431.078V432.639H164.849V431.078H166.41ZM166.41 429.517V431.078H164.849V429.517H166.41ZM166.41 427.956V429.517H164.849V427.956H166.41ZM166.41 426.395V427.956H164.849V426.395H166.41ZM166.41 424.834V426.395H164.849V424.834H166.41ZM164.849 431.078V432.639H163.288V431.078H164.849ZM164.849 434.2V435.761H163.288V434.2H164.849ZM164.849 435.761V437.322H163.288V435.761H164.849ZM164.849 437.322V438.883H163.288V437.322H164.849ZM166.41 435.761V437.322H164.849V435.761H166.41ZM164.849 427.956V429.517H163.288V427.956H164.849ZM163.288 427.956V429.517H161.727V427.956H163.288ZM161.727 427.956V429.517H160.166V427.956H161.727ZM161.727 429.517V431.078H160.166V429.517H161.727ZM161.727 431.078V432.639H160.166V431.078H161.727ZM161.727 432.639V434.2H160.166V432.639H161.727ZM161.727 434.2V435.761H160.166V434.2H161.727ZM161.727 435.761V437.322H160.166V435.761H161.727ZM161.727 437.322V438.883H160.166V437.322H161.727ZM163.288 437.322V438.883H161.727V437.322H163.288ZM163.288 435.761V437.322H161.727V435.761H163.288ZM163.288 434.2V435.761H161.727V434.2H163.288ZM163.288 432.639V434.2H161.727V432.639H163.288ZM163.288 431.078V432.639H161.727V431.078H163.288ZM163.288 429.517V431.078H161.727V429.517H163.288ZM164.849 429.517V431.078H163.288V429.517H164.849ZM164.849 432.639V434.2H163.288V432.639H164.849ZM164.849 426.395V427.956H163.288V426.395H164.849ZM164.849 424.834V426.395H163.288V424.834H164.849ZM163.288 424.834V426.395H161.727V424.834H163.288ZM163.288 426.395V427.956H161.727V426.395H163.288ZM160.166 426.395V427.956H158.605V426.395H160.166ZM160.166 424.834V426.395H158.605V424.834H160.166ZM160.166 423.273V424.834H158.605V423.273H160.166ZM163.288 423.273V424.834H161.727V423.273H163.288ZM160.166 417.029V418.59H158.605V417.029H160.166ZM160.166 418.59V420.151H158.605V418.59H160.166ZM161.727 418.59V420.151H160.166V418.59H161.727ZM163.288 418.59V420.151H161.727V418.59H163.288ZM163.288 420.151V421.712H161.727V420.151H163.288ZM164.849 420.151V421.712H163.288V420.151H164.849ZM164.849 421.712V423.273H163.288V421.712H164.849ZM163.288 421.712V423.273H161.727V421.712H163.288ZM161.727 421.712V423.273H160.166V421.712H161.727ZM161.727 420.151V421.712H160.166V420.151H161.727ZM160.166 420.151V421.712H158.605V420.151H160.166ZM158.605 420.151V421.712H157.044V420.151H158.605ZM158.605 421.712V423.273H157.044V421.712H158.605ZM160.166 421.712V423.273H158.605V421.712H160.166ZM158.605 423.273V424.834H157.044V423.273H158.605ZM157.044 421.712V423.273H155.483V421.712H157.044ZM157.044 420.151V421.712H155.483V420.151H157.044ZM157.044 418.59V420.151H155.483V418.59H157.044ZM157.044 417.029V418.59H155.483V417.029H157.044ZM158.605 417.029V418.59H157.044V417.029H158.605ZM158.605 418.59V420.151H157.044V418.59H158.605ZM155.483 417.029V418.59H153.922V417.029H155.483ZM155.483 418.59V420.151H153.922V418.59H155.483ZM155.483 420.151V421.712H153.922V420.151H155.483ZM155.483 421.712V423.273H153.922V421.712H155.483ZM153.922 417.029V418.59H152.361V417.029H153.922ZM153.922 418.59V420.151H152.361V418.59H153.922ZM152.361 418.59V420.151H150.8V418.59H152.361ZM152.361 420.151V421.712H150.8V420.151H152.361ZM150.8 420.151V421.712H149.239V420.151H150.8ZM150.8 421.712V423.273H149.239V421.712H150.8ZM152.361 421.712V423.273H150.8V421.712H152.361ZM153.922 421.712V423.273H152.361V421.712H153.922ZM153.922 420.151V421.712H152.361V420.151H153.922ZM150.8 423.273V424.834H149.239V423.273H150.8ZM152.361 417.029V418.59H150.8V417.029H152.361ZM150.8 418.59V420.151H149.239V418.59H150.8ZM172.683 445.127V446.688H171.122V445.127H172.683ZM172.683 443.566V445.127H171.122V443.566H172.683ZM172.683 442.005V443.566H171.122V442.005H172.683ZM172.683 440.444V442.005H171.122V440.444H172.683ZM172.683 438.883V440.444H171.122V438.883H172.683ZM172.683 437.322V438.883H171.122V437.322H172.683ZM172.683 435.761V437.322H171.122V435.761H172.683ZM172.683 434.2V435.761H171.122V434.2H172.683ZM172.683 432.639V434.2H171.122V432.639H172.683ZM172.683 431.078V432.639H171.122V431.078H172.683ZM172.683 429.517V431.078H171.122V429.517H172.683ZM172.683 427.956V429.517H171.122V427.956H172.683ZM172.683 426.395V427.956H171.122V426.395H172.683ZM172.683 424.834V426.395H171.122V424.834H172.683ZM172.683 423.273V424.834H171.122V423.273H172.683ZM174.244 423.273V424.834H172.683V423.273H174.244ZM174.244 424.834V426.395H172.683V424.834H174.244ZM174.244 426.395V427.956H172.683V426.395H174.244ZM174.244 427.956V429.517H172.683V427.956H174.244ZM174.244 429.517V431.078H172.683V429.517H174.244ZM174.244 431.078V432.639H172.683V431.078H174.244ZM174.244 432.639V434.2H172.683V432.639H174.244ZM175.805 434.2V435.761H174.244V434.2H175.805ZM175.805 435.761V437.322H174.244V435.761H175.805ZM175.805 437.322V438.883H174.244V437.322H175.805ZM175.805 438.883V440.444H174.244V438.883H175.805ZM175.805 440.444V442.005H174.244V440.444H175.805ZM175.805 442.005V443.566H174.244V442.005H175.805ZM175.805 443.566V445.127H174.244V443.566H175.805ZM175.805 445.127V446.688H174.244V445.127H175.805ZM177.366 445.127V446.688H175.805V445.127H177.366ZM178.927 445.127V446.688H177.366V445.127H178.927ZM178.927 443.566V445.127H177.366V443.566H178.927ZM178.927 442.005V443.566H177.366V442.005H178.927ZM178.927 440.444V442.005H177.366V440.444H178.927ZM178.927 438.883V440.444H177.366V438.883H178.927ZM178.927 437.322V438.883H177.366V437.322H178.927ZM178.927 435.761V437.322H177.366V435.761H178.927ZM178.927 434.2V435.761H177.366V434.2H178.927ZM177.366 434.2V435.761H175.805V434.2H177.366ZM177.366 432.639V434.2H175.805V432.639H177.366ZM177.366 435.761V437.322H175.805V435.761H177.366ZM177.366 437.322V438.883H175.805V437.322H177.366ZM177.366 438.883V440.444H175.805V438.883H177.366ZM177.366 440.444V442.005H175.805V440.444H177.366ZM177.366 442.005V443.566H175.805V442.005H177.366ZM177.366 443.566V445.127H175.805V443.566H177.366ZM174.244 445.127V446.688H172.683V445.127H174.244ZM174.244 443.566V445.127H172.683V443.566H174.244ZM174.244 442.005V443.566H172.683V442.005H174.244ZM174.244 440.444V442.005H172.683V440.444H174.244ZM174.244 438.883V440.444H172.683V438.883H174.244ZM174.244 437.322V438.883H172.683V437.322H174.244ZM174.244 435.761V437.322H172.683V435.761H174.244ZM174.244 434.2V435.761H172.683V434.2H174.244ZM172.683 407.663V409.224H171.122V407.663H172.683ZM172.683 409.224V410.785H171.122V409.224H172.683ZM172.683 410.785V412.346H171.122V410.785H172.683ZM172.683 412.346V413.907H171.122V412.346H172.683ZM172.683 413.907V415.468H171.122V413.907H172.683ZM172.683 415.468V417.029H171.122V415.468H172.683ZM172.683 417.029V418.59H171.122V417.029H172.683ZM172.683 418.59V420.151H171.122V418.59H172.683ZM172.683 420.151V421.712H171.122V420.151H172.683ZM172.683 421.712V423.273H171.122V421.712H172.683ZM177.366 407.663V409.224H175.805V407.663H177.366ZM177.366 409.224V410.785H175.805V409.224H177.366ZM177.366 410.785V412.346H175.805V410.785H177.366ZM177.366 412.346V413.907H175.805V412.346H177.366ZM177.366 413.907V415.468H175.805V413.907H177.366ZM177.366 415.468V417.029H175.805V415.468H177.366ZM177.366 418.59V420.151H175.805V418.59H177.366ZM177.366 420.151V421.712H175.805V420.151H177.366ZM177.366 421.712V423.273H175.805V421.712H177.366ZM177.366 423.273V424.834H175.805V423.273H177.366ZM177.366 424.834V426.395H175.805V424.834H177.366ZM177.366 426.395V427.956H175.805V426.395H177.366ZM177.366 427.956V429.517H175.805V427.956H177.366ZM178.927 429.517V431.078H177.366V429.517H178.927ZM178.927 431.078V432.639H177.366V431.078H178.927ZM178.927 432.639V434.2H177.366V432.639H178.927ZM178.927 427.956V429.517H177.366V427.956H178.927ZM178.927 426.395V427.956H177.366V426.395H178.927ZM178.927 424.834V426.395H177.366V424.834H178.927ZM178.927 423.273V424.834H177.366V423.273H178.927ZM178.927 421.712V423.273H177.366V421.712H178.927ZM178.927 420.151V421.712H177.366V420.151H178.927ZM178.927 418.59V420.151H177.366V418.59H178.927ZM178.927 417.029V418.59H177.366V417.029H178.927ZM178.927 415.468V417.029H177.366V415.468H178.927ZM178.927 413.907V415.468H177.366V413.907H178.927ZM177.366 417.029V418.59H175.805V417.029H177.366ZM178.927 412.346V413.907H177.366V412.346H178.927ZM178.927 410.785V412.346H177.366V410.785H178.927ZM178.927 409.224V410.785H177.366V409.224H178.927ZM178.927 407.663V409.224H177.366V407.663H178.927ZM175.805 407.663V409.224H174.244V407.663H175.805ZM174.244 407.663V409.224H172.683V407.663H174.244ZM174.244 409.224V410.785H172.683V409.224H174.244ZM175.805 409.224V410.785H174.244V409.224H175.805ZM175.805 410.785V412.346H174.244V410.785H175.805ZM175.805 412.346V413.907H174.244V412.346H175.805ZM175.805 413.907V415.468H174.244V413.907H175.805ZM175.805 415.468V417.029H174.244V415.468H175.805ZM175.805 417.029V418.59H174.244V417.029H175.805ZM175.805 418.59V420.151H174.244V418.59H175.805ZM174.244 420.151V421.712H172.683V420.151H174.244ZM174.244 421.712V423.273H172.683V421.712H174.244ZM174.244 418.59V420.151H172.683V418.59H174.244ZM174.244 417.029V418.59H172.683V417.029H174.244ZM174.244 415.468V417.029H172.683V415.468H174.244ZM174.244 413.907V415.468H172.683V413.907H174.244ZM174.244 412.346V413.907H172.683V412.346H174.244ZM174.244 410.785V412.346H172.683V410.785H174.244ZM175.805 420.151V421.712H174.244V420.151H175.805ZM175.805 421.712V423.273H174.244V421.712H175.805ZM175.805 423.273V424.834H174.244V423.273H175.805ZM175.805 424.834V426.395H174.244V424.834H175.805ZM175.805 426.395V427.956H174.244V426.395H175.805ZM175.805 427.956V429.517H174.244V427.956H175.805ZM175.805 429.517V431.078H174.244V429.517H175.805ZM175.805 431.078V432.639H174.244V431.078H175.805ZM175.805 432.639V434.2H174.244V432.639H175.805ZM177.366 431.078V432.639H175.805V431.078H177.366ZM177.366 429.517V431.078H175.805V429.517H177.366ZM186.732 418.59V420.151H185.171V418.59H186.732ZM186.732 417.029V418.59H185.171V417.029H186.732ZM188.293 417.029V418.59H186.732V417.029H188.293ZM189.854 417.029V418.59H188.293V417.029H189.854ZM191.415 417.029V418.59H189.854V417.029H191.415ZM192.976 417.029V418.59H191.415V417.029H192.976ZM192.976 418.59V420.151H191.415V418.59H192.976ZM192.976 420.151V421.712H191.415V420.151H192.976ZM192.976 421.712V423.273H191.415V421.712H192.976ZM192.976 423.273V424.834H191.415V423.273H192.976ZM191.415 423.273V424.834H189.854V423.273H191.415ZM191.415 424.834V426.395H189.854V424.834H191.415ZM189.854 424.834V426.395H188.293V424.834H189.854ZM189.854 426.395V427.956H188.293V426.395H189.854ZM188.293 426.395V427.956H186.732V426.395H188.293ZM188.293 427.956V429.517H186.732V427.956H188.293ZM186.732 427.956V429.517H185.171V427.956H186.732ZM186.732 429.517V431.078H185.171V429.517H186.732ZM186.732 431.078V432.639H185.171V431.078H186.732ZM188.293 431.078V432.639H186.732V431.078H188.293ZM188.293 432.639V434.2H186.732V432.639H188.293ZM189.854 432.639V434.2H188.293V432.639H189.854ZM189.854 434.2V435.761H188.293V434.2H189.854ZM191.415 434.2V435.761H189.854V434.2H191.415ZM191.415 435.761V437.322H189.854V435.761H191.415ZM192.976 435.761V437.322H191.415V435.761H192.976ZM192.976 437.322V438.883H191.415V437.322H192.976ZM192.976 438.883V440.444H191.415V438.883H192.976ZM192.976 440.444V442.005H191.415V440.444H192.976ZM192.976 442.005V443.566H191.415V442.005H192.976ZM192.976 443.566V445.127H191.415V443.566H192.976ZM192.976 445.127V446.688H191.415V445.127H192.976ZM186.732 420.151V421.712H185.171V420.151H186.732ZM186.732 421.712V423.273H185.171V421.712H186.732ZM186.732 423.273V424.834H185.171V423.273H186.732ZM185.171 423.273V424.834H183.61V423.273H185.171ZM186.732 424.834V426.395H185.171V424.834H186.732ZM185.171 424.834V426.395H183.61V424.834H185.171ZM185.171 426.395V427.956H183.61V426.395H185.171ZM183.61 424.834V426.395H182.049V424.834H183.61ZM183.61 426.395V427.956H182.049V426.395H183.61ZM185.171 427.956V429.517H183.61V427.956H185.171ZM186.732 426.395V427.956H185.171V426.395H186.732ZM188.293 424.834V426.395H186.732V424.834H188.293ZM189.854 423.273V424.834H188.293V423.273H189.854ZM191.415 421.712V423.273H189.854V421.712H191.415ZM191.415 420.151V421.712H189.854V420.151H191.415ZM191.415 418.59V420.151H189.854V418.59H191.415ZM189.854 418.59V420.151H188.293V418.59H189.854ZM188.293 420.151V421.712H186.732V420.151H188.293ZM188.293 421.712V423.273H186.732V421.712H188.293ZM188.293 423.273V424.834H186.732V423.273H188.293ZM189.854 421.712V423.273H188.293V421.712H189.854ZM189.854 420.151V421.712H188.293V420.151H189.854ZM188.293 418.59V420.151H186.732V418.59H188.293ZM182.049 426.395V427.956H180.488V426.395H182.049ZM180.488 426.395V427.956H178.927V426.395H180.488ZM180.488 427.956V429.517H178.927V427.956H180.488ZM180.488 429.517V431.078H178.927V429.517H180.488ZM180.488 431.078V432.639H178.927V431.078H180.488ZM182.049 431.078V432.639H180.488V431.078H182.049ZM182.049 432.639V434.2H180.488V432.639H182.049ZM180.488 432.639V434.2H178.927V432.639H180.488ZM183.61 432.639V434.2H182.049V432.639H183.61ZM183.61 434.2V435.761H182.049V434.2H183.61ZM185.171 434.2V435.761H183.61V434.2H185.171ZM185.171 435.761V437.322H183.61V435.761H185.171ZM186.732 435.761V437.322H185.171V435.761H186.732ZM186.732 437.322V438.883H185.171V437.322H186.732ZM188.293 438.883V440.444H186.732V438.883H188.293ZM188.293 440.444V442.005H186.732V440.444H188.293ZM188.293 442.005V443.566H186.732V442.005H188.293ZM186.732 442.005V443.566H185.171V442.005H186.732ZM186.732 440.444V442.005H185.171V440.444H186.732ZM186.732 438.883V440.444H185.171V438.883H186.732ZM186.732 443.566V445.127H185.171V443.566H186.732ZM186.732 445.127V446.688H185.171V445.127H186.732ZM188.293 445.127V446.688H186.732V445.127H188.293ZM189.854 445.127V446.688H188.293V445.127H189.854ZM191.415 445.127V446.688H189.854V445.127H191.415ZM191.415 443.566V445.127H189.854V443.566H191.415ZM189.854 443.566V445.127H188.293V443.566H189.854ZM188.293 443.566V445.127H186.732V443.566H188.293ZM189.854 442.005V443.566H188.293V442.005H189.854ZM191.415 442.005V443.566H189.854V442.005H191.415ZM191.415 440.444V442.005H189.854V440.444H191.415ZM191.415 438.883V440.444H189.854V438.883H191.415ZM191.415 437.322V438.883H189.854V437.322H191.415ZM189.854 437.322V438.883H188.293V437.322H189.854ZM189.854 438.883V440.444H188.293V438.883H189.854ZM189.854 440.444V442.005H188.293V440.444H189.854ZM189.854 435.761V437.322H188.293V435.761H189.854ZM188.293 435.761V437.322H186.732V435.761H188.293ZM188.293 434.2V435.761H186.732V434.2H188.293ZM186.732 434.2V435.761H185.171V434.2H186.732ZM186.732 432.639V434.2H185.171V432.639H186.732ZM185.171 432.639V434.2H183.61V432.639H185.171ZM185.171 431.078V432.639H183.61V431.078H185.171ZM185.171 429.517V431.078H183.61V429.517H185.171ZM183.61 429.517V431.078H182.049V429.517H183.61ZM183.61 427.956V429.517H182.049V427.956H183.61ZM182.049 427.956V429.517H180.488V427.956H182.049ZM182.049 429.517V431.078H180.488V429.517H182.049ZM183.61 431.078V432.639H182.049V431.078H183.61ZM188.293 437.322V438.883H186.732V437.322H188.293ZM221.101 423.273V424.834H219.54V423.273H221.101ZM219.54 423.273V424.834H217.979V423.273H219.54ZM217.979 423.273V424.834H216.418V423.273H217.979ZM216.418 423.273V424.834H214.857V423.273H216.418ZM214.857 421.712V423.273H213.296V421.712H214.857ZM216.418 421.712V423.273H214.857V421.712H216.418ZM217.979 421.712V423.273H216.418V421.712H217.979ZM219.54 421.712V423.273H217.979V421.712H219.54ZM221.101 421.712V423.273H219.54V421.712H221.101ZM221.101 420.151V421.712H219.54V420.151H221.101ZM219.54 420.151V421.712H217.979V420.151H219.54ZM217.979 420.151V421.712H216.418V420.151H217.979ZM216.418 420.151V421.712H214.857V420.151H216.418ZM214.857 420.151V421.712H213.296V420.151H214.857ZM217.979 418.59V420.151H216.418V418.59H217.979ZM219.54 418.59V420.151H217.979V418.59H219.54ZM216.418 418.59V420.151H214.857V418.59H216.418ZM216.418 417.029V418.59H214.857V417.029H216.418ZM214.857 417.029V418.59H213.296V417.029H214.857ZM214.857 418.59V420.151H213.296V418.59H214.857ZM213.296 418.59V420.151H211.735V418.59H213.296ZM213.296 417.029V418.59H211.735V417.029H213.296ZM213.296 420.151V421.712H211.735V420.151H213.296ZM211.735 420.151V421.712H210.174V420.151H211.735ZM211.735 421.712V423.273H210.174V421.712H211.735ZM213.296 421.712V423.273H211.735V421.712H213.296ZM210.174 421.712V423.273H208.613V421.712H210.174ZM210.174 420.151V421.712H208.613V420.151H210.174ZM210.174 418.59V420.151H208.613V418.59H210.174ZM210.174 417.029V418.59H208.613V417.029H210.174ZM211.735 417.029V418.59H210.174V417.029H211.735ZM211.735 418.59V420.151H210.174V418.59H211.735ZM208.613 417.029V418.59H207.052V417.029H208.613ZM207.052 417.029V418.59H205.491V417.029H207.052ZM205.491 417.029V418.59H203.93V417.029H205.491ZM205.491 418.59V420.151H203.93V418.59H205.491ZM205.491 420.151V421.712H203.93V420.151H205.491ZM205.491 421.712V423.273H203.93V421.712H205.491ZM207.052 421.712V423.273H205.491V421.712H207.052ZM208.613 421.712V423.273H207.052V421.712H208.613ZM208.613 420.151V421.712H207.052V420.151H208.613ZM208.613 418.59V420.151H207.052V418.59H208.613ZM207.052 418.59V420.151H205.491V418.59H207.052ZM207.052 420.151V421.712H205.491V420.151H207.052ZM203.93 420.151V421.712H202.369V420.151H203.93ZM203.93 418.59V420.151H202.369V418.59H203.93ZM202.369 418.59V420.151H200.808V418.59H202.369ZM202.369 420.151V421.712H200.808V420.151H202.369ZM200.808 420.151V421.712H199.247V420.151H200.808ZM200.808 421.712V423.273H199.247V421.712H200.808ZM200.808 423.273V424.834H199.247V423.273H200.808ZM202.369 423.273V424.834H200.808V423.273H202.369ZM202.369 421.712V423.273H200.808V421.712H202.369ZM203.93 421.712V423.273H202.369V421.712H203.93ZM203.93 423.273V424.834H202.369V423.273H203.93ZM205.491 423.273V424.834H203.93V423.273H205.491ZM207.052 423.273V424.834H205.491V423.273H207.052ZM199.247 423.273V424.834H197.686V423.273H199.247ZM199.247 424.834V426.395H197.686V424.834H199.247ZM199.247 426.395V427.956H197.686V426.395H199.247ZM199.247 437.322V438.883H197.686V437.322H199.247ZM200.808 437.322V438.883H199.247V437.322H200.808ZM200.808 438.883V440.444H199.247V438.883H200.808ZM199.247 438.883V440.444H197.686V438.883H199.247ZM202.369 438.883V440.444H200.808V438.883H202.369ZM203.93 438.883V440.444H202.369V438.883H203.93ZM205.491 438.883V440.444H203.93V438.883H205.491ZM207.052 438.883V440.444H205.491V438.883H207.052ZM205.491 437.322V438.883H203.93V437.322H205.491ZM205.491 426.395V427.956H203.93V426.395H205.491ZM205.491 424.834V426.395H203.93V424.834H205.491ZM203.93 424.834V426.395H202.369V424.834H203.93ZM202.369 424.834V426.395H200.808V424.834H202.369ZM200.808 424.834V426.395H199.247V424.834H200.808ZM200.808 426.395V427.956H199.247V426.395H200.808ZM202.369 437.322V438.883H200.808V437.322H202.369ZM203.93 437.322V438.883H202.369V437.322H203.93ZM202.369 426.395V427.956H200.808V426.395H202.369ZM203.93 426.395V427.956H202.369V426.395H203.93ZM216.418 435.761V437.322H214.857V435.761H216.418ZM216.418 437.322V438.883H214.857V437.322H216.418ZM217.979 437.322V438.883H216.418V437.322H217.979ZM219.54 437.322V438.883H217.979V437.322H219.54ZM221.101 437.322V438.883H219.54V437.322H221.101ZM222.662 437.322V438.883H221.101V437.322H222.662ZM222.662 435.761V437.322H221.101V435.761H222.662ZM221.101 435.761V437.322H219.54V435.761H221.101ZM219.54 435.761V437.322H217.979V435.761H219.54ZM217.979 435.761V437.322H216.418V435.761H217.979ZM222.662 438.883V440.444H221.101V438.883H222.662ZM221.101 438.883V440.444H219.54V438.883H221.101ZM219.54 438.883V440.444H217.979V438.883H219.54ZM217.979 438.883V440.444H216.418V438.883H217.979ZM216.418 438.883V440.444H214.857V438.883H216.418ZM214.857 438.883V440.444H213.296V438.883H214.857ZM214.857 440.444V442.005H213.296V440.444H214.857ZM216.418 440.444V442.005H214.857V440.444H216.418ZM217.979 440.444V442.005H216.418V440.444H217.979ZM219.54 440.444V442.005H217.979V440.444H219.54ZM219.54 442.005V443.566H217.979V442.005H219.54ZM221.101 442.005V443.566H219.54V442.005H221.101ZM221.101 440.444V442.005H219.54V440.444H221.101ZM219.54 443.566V445.127H217.979V443.566H219.54ZM217.979 443.566V445.127H216.418V443.566H217.979ZM217.979 442.005V443.566H216.418V442.005H217.979ZM216.418 442.005V443.566H214.857V442.005H216.418ZM216.418 443.566V445.127H214.857V443.566H216.418ZM216.418 445.127V446.688H214.857V445.127H216.418ZM214.857 445.127V446.688H213.296V445.127H214.857ZM213.296 445.127V446.688H211.735V445.127H213.296ZM211.735 445.127V446.688H210.174V445.127H211.735ZM210.174 445.127V446.688H208.613V445.127H210.174ZM208.613 445.127V446.688H207.052V445.127H208.613ZM207.052 445.127V446.688H205.491V445.127H207.052ZM205.491 445.127V446.688H203.93V445.127H205.491ZM207.052 443.566V445.127H205.491V443.566H207.052ZM208.613 443.566V445.127H207.052V443.566H208.613ZM210.174 443.566V445.127H208.613V443.566H210.174ZM211.735 443.566V445.127H210.174V443.566H211.735ZM213.296 443.566V445.127H211.735V443.566H213.296ZM214.857 443.566V445.127H213.296V443.566H214.857ZM214.857 442.005V443.566H213.296V442.005H214.857ZM213.296 442.005V443.566H211.735V442.005H213.296ZM211.735 442.005V443.566H210.174V442.005H211.735ZM210.174 442.005V443.566H208.613V442.005H210.174ZM208.613 442.005V443.566H207.052V442.005H208.613ZM207.052 442.005V443.566H205.491V442.005H207.052ZM205.491 443.566V445.127H203.93V443.566H205.491ZM203.93 443.566V445.127H202.369V443.566H203.93ZM202.369 443.566V445.127H200.808V443.566H202.369ZM202.369 442.005V443.566H200.808V442.005H202.369ZM200.808 442.005V443.566H199.247V442.005H200.808ZM200.808 440.444V442.005H199.247V440.444H200.808ZM202.369 440.444V442.005H200.808V440.444H202.369ZM203.93 440.444V442.005H202.369V440.444H203.93ZM205.491 440.444V442.005H203.93V440.444H205.491ZM207.052 440.444V442.005H205.491V440.444H207.052ZM208.613 440.444V442.005H207.052V440.444H208.613ZM210.174 440.444V442.005H208.613V440.444H210.174ZM211.735 440.444V442.005H210.174V440.444H211.735ZM213.296 440.444V442.005H211.735V440.444H213.296ZM205.491 442.005V443.566H203.93V442.005H205.491ZM203.93 442.005V443.566H202.369V442.005H203.93ZM219.54 432.639V434.2H217.979V432.639H219.54ZM222.662 434.2V435.761H221.101V434.2H222.662ZM221.101 434.2V435.761H219.54V434.2H221.101ZM219.54 434.2V435.761H217.979V434.2H219.54ZM217.979 434.2V435.761H216.418V434.2H217.979ZM217.979 432.639V434.2H216.418V432.639H217.979ZM216.418 432.639V434.2H214.857V432.639H216.418ZM216.418 434.2V435.761H214.857V434.2H216.418ZM207.052 426.395V427.956H205.491V426.395H207.052ZM200.808 427.956V429.517H199.247V427.956H200.808ZM200.808 429.517V431.078H199.247V429.517H200.808ZM202.369 429.517V431.078H200.808V429.517H202.369ZM202.369 431.078V432.639H200.808V431.078H202.369ZM203.93 431.078V432.639H202.369V431.078H203.93ZM205.491 432.639V434.2H203.93V432.639H205.491ZM205.491 431.078V432.639H203.93V431.078H205.491ZM205.491 429.517V431.078H203.93V429.517H205.491ZM205.491 427.956V429.517H203.93V427.956H205.491ZM203.93 427.956V429.517H202.369V427.956H203.93ZM203.93 429.517V431.078H202.369V429.517H203.93ZM202.369 427.956V429.517H200.808V427.956H202.369ZM207.052 432.639V434.2H205.491V432.639H207.052ZM208.613 432.639V434.2H207.052V432.639H208.613ZM210.174 432.639V434.2H208.613V432.639H210.174ZM211.735 432.639V434.2H210.174V432.639H211.735ZM211.735 431.078V432.639H210.174V431.078H211.735ZM210.174 431.078V432.639H208.613V431.078H210.174ZM208.613 431.078V432.639H207.052V431.078H208.613ZM207.052 431.078V432.639H205.491V431.078H207.052ZM207.052 429.517V431.078H205.491V429.517H207.052ZM207.052 427.956V429.517H205.491V427.956H207.052ZM208.613 427.956V429.517H207.052V427.956H208.613ZM210.174 427.956V429.517H208.613V427.956H210.174ZM211.735 427.956V429.517H210.174V427.956H211.735ZM211.735 429.517V431.078H210.174V429.517H211.735ZM210.174 429.517V431.078H208.613V429.517H210.174ZM208.613 429.517V431.078H207.052V429.517H208.613ZM213.296 427.956V429.517H211.735V427.956H213.296ZM214.857 427.956V429.517H213.296V427.956H214.857ZM214.857 429.517V431.078H213.296V429.517H214.857ZM214.857 431.078V432.639H213.296V431.078H214.857ZM214.857 432.639V434.2H213.296V432.639H214.857ZM213.296 432.639V434.2H211.735V432.639H213.296ZM213.296 431.078V432.639H211.735V431.078H213.296ZM213.296 429.517V431.078H211.735V429.517H213.296ZM214.857 434.2V435.761H213.296V434.2H214.857ZM216.418 427.956V429.517H214.857V427.956H216.418ZM221.101 432.639V434.2H219.54V432.639H221.101ZM221.101 431.078V432.639H219.54V431.078H221.101ZM219.54 429.517V431.078H217.979V429.517H219.54ZM217.979 429.517V431.078H216.418V429.517H217.979ZM216.418 429.517V431.078H214.857V429.517H216.418ZM216.418 431.078V432.639H214.857V431.078H216.418ZM217.979 431.078V432.639H216.418V431.078H217.979ZM219.54 431.078V432.639H217.979V431.078H219.54ZM214.857 423.273V424.834H213.296V423.273H214.857Z" fill="#5D5D5D"/>
</svg>
