<svg width="284" height="451" viewBox="0 0 284 451" fill="none" xmlns="http://www.w3.org/2000/svg">
<path d="M282.834 25.3252C282.56 21.7048 279.405 18.9908 275.784 19.265C272.164 19.5384 269.45 22.6947 269.723 26.315C271.126 44.8822 269.139 71.9634 251.709 95.5384C234.255 119.147 209.5 127.36 196.2 131.774C176.505 138.307 158.425 140.01 141.655 139.57C143.125 136.399 143.952 132.87 143.952 129.15C143.952 117.57 135.994 107.813 125.26 105.06V96.4884H160.36C173.652 96.4884 184.464 85.6752 184.464 72.3845V65.3728C184.464 61.7416 181.521 58.7994 177.891 58.7994H145.899L159.053 16.3705C160.254 12.497 159.563 8.4025 157.157 5.13844C154.751 1.87438 151.045 0.00250183 146.99 0.00250183H112.112C108.482 0.00250183 105.539 2.94469 105.539 6.57594C105.539 10.2072 108.482 13.1494 112.112 13.1494H146.287L132.135 58.8002H105.032L85.6648 4.37047C84.4484 0.950158 80.6867 -0.832654 77.268 0.380627C73.8469 1.59781 72.0617 5.35797 73.2781 8.77828L91.0773 58.7986H60.0023C56.3719 58.7986 53.4289 61.7408 53.4289 65.372V72.3837C53.4289 85.6744 64.2414 96.4877 77.5328 96.4877H112.114V105.285C101.788 108.306 94.2195 117.859 94.2195 129.15C94.2195 130.981 94.4234 132.763 94.8016 134.482C68.6961 130.799 45.9953 129.011 27.2711 146.336C22.175 151.053 10.1469 164.07 8.53203 183.035C8.42265 184.319 6.14063 214.664 30.7055 231.124C40.4898 237.681 50.6359 239.499 58.8781 239.499C62.1687 239.499 65.1531 239.209 67.6914 238.815C69.5984 244.302 73.4344 248.89 78.3844 251.77C54.0695 265.27 37.5742 291.213 37.5742 320.94C37.5742 335.653 41.6727 349.945 49.2711 362.312H30.7781C13.807 362.312 0 376.12 0 393.09V393.428C0 397.059 2.94297 400.001 6.57344 400.001H231.32C234.951 400.001 237.894 397.059 237.894 393.428V393.09C237.894 376.119 224.088 362.312 207.116 362.312H65.3219C55.8875 350.62 50.7211 336.043 50.7211 320.94C50.7211 284.595 80.2898 255.027 116.634 255.027C152.979 255.027 182.548 284.595 182.548 320.94C182.548 327.861 181.483 334.675 179.38 341.192C178.266 344.647 180.163 348.352 183.619 349.466C187.075 350.581 190.778 348.682 191.893 345.227C194.416 337.403 195.695 329.231 195.695 320.939C195.695 292.103 180.175 266.828 157.052 253.017C165.567 249.294 171.536 240.794 171.536 230.922C171.536 220.074 164.331 210.88 154.456 207.866C152.775 197.021 146.224 187.77 137.119 182.409C141.115 177.995 143.552 172.145 143.552 165.737C143.552 160.932 142.179 156.444 139.809 152.637C158.168 153.235 178.413 151.526 200.338 144.253C213.975 139.728 242.349 130.313 262.28 103.356C283.159 75.1158 284.12 42.3447 282.834 25.3252ZM62.1906 375.457C62.2187 375.457 62.2461 375.462 62.2742 375.462C62.307 375.462 62.3391 375.459 62.3719 375.457H207.117C214.644 375.457 221.084 380.198 223.609 386.852H14.2867C16.8109 380.199 23.2516 375.457 30.7781 375.457H62.1906ZM77.532 83.3408C71.4914 83.3408 66.5758 78.4252 66.5758 72.3845V71.9463H100.394H136.98H171.317V72.3845C171.317 78.4259 166.402 83.3408 160.361 83.3408H77.532ZM117.45 117.557C117.852 117.634 118.264 117.678 118.688 117.678C119.22 117.678 119.736 117.607 120.233 117.488C126.158 118.066 130.805 123.074 130.805 129.149C130.805 133.02 128.91 136.448 126.009 138.583C120.574 138.06 115.281 137.391 110.116 136.676C108.404 134.638 107.367 132.013 107.367 129.149C107.366 123.243 111.762 118.357 117.45 117.557ZM118.688 154.015C125.15 154.015 130.407 159.272 130.407 165.735C130.407 172.196 125.15 177.453 118.688 177.453C112.226 177.454 106.969 172.196 106.969 165.735C106.969 159.273 112.226 154.015 118.688 154.015ZM66.9586 225.589C60.6562 226.738 48.8484 227.453 38.0242 220.2C19.8258 208.006 21.6117 184.384 21.632 184.146C22.8555 169.763 32.2281 159.659 36.2 155.984C51.8469 141.505 71.7844 144.407 99.3789 148.421C99.8102 148.485 100.248 148.548 100.682 148.61C96.4351 153.074 93.8211 159.103 93.8211 165.735C93.8211 172.239 96.3344 178.165 100.436 182.6C91.5055 187.99 85.0969 197.151 83.4359 207.863C75.2297 210.368 68.8734 217.144 66.9586 225.589ZM147.433 219.965C153.474 219.965 158.389 224.88 158.389 230.921C158.389 236.963 153.474 241.878 147.433 241.878H90.4602C84.4187 241.878 79.5039 236.963 79.5039 230.921C79.5039 224.88 84.4187 219.965 90.4602 219.965H147.433ZM140.766 206.817H97.1289C99.957 197.445 108.666 190.602 118.947 190.602C129.227 190.602 137.936 197.447 140.766 206.817Z" fill="#5D5D5D"/>
<path d="M42.2868 449.438V450.999H40.7258V449.438H42.2868ZM42.2868 447.877V449.438H40.7258V447.877H42.2868ZM42.2868 446.316V447.877H40.7258V446.316H42.2868ZM42.2868 444.755V446.316H40.7258V444.755H42.2868ZM42.2868 443.194V444.755H40.7258V443.194H42.2868ZM42.2868 441.633V443.194H40.7258V441.633H42.2868ZM42.2868 440.072V441.633H40.7258V440.072H42.2868ZM42.2868 438.511V440.072H40.7258V438.511H42.2868ZM42.2868 436.95V438.511H40.7258V436.95H42.2868ZM42.2868 435.389V436.95H40.7258V435.389H42.2868ZM42.2868 433.828V435.389H40.7258V433.828H42.2868ZM42.2868 432.267V433.828H40.7258V432.267H42.2868ZM42.2868 430.707V432.267H40.7258V430.707H42.2868ZM42.2868 429.146V430.707H40.7258V429.146H42.2868ZM42.2868 427.585V429.146H40.7258V427.585H42.2868ZM43.8478 427.585V429.146H42.2868V427.585H43.8478ZM43.8478 429.146V430.707H42.2868V429.146H43.8478ZM43.8478 430.707V432.267H42.2868V430.707H43.8478ZM43.8478 432.267V433.828H42.2868V432.267H43.8478ZM43.8478 433.828V435.389H42.2868V433.828H43.8478ZM43.8478 435.389V436.95H42.2868V435.389H43.8478ZM43.8478 436.95V438.511H42.2868V436.95H43.8478ZM45.4088 438.511V440.072H43.8478V438.511H45.4088ZM45.4088 440.072V441.633H43.8478V440.072H45.4088ZM45.4088 441.633V443.194H43.8478V441.633H45.4088ZM45.4088 443.194V444.755H43.8478V443.194H45.4088ZM45.4088 444.755V446.316H43.8478V444.755H45.4088ZM45.4088 446.316V447.877H43.8478V446.316H45.4088ZM45.4088 447.877V449.438H43.8478V447.877H45.4088ZM45.4088 449.438V450.999H43.8478V449.438H45.4088ZM46.9697 449.438V450.999H45.4088V449.438H46.9697ZM48.5307 449.438V450.999H46.9697V449.438H48.5307ZM48.5307 447.877V449.438H46.9697V447.877H48.5307ZM48.5307 446.316V447.877H46.9697V446.316H48.5307ZM48.5307 444.755V446.316H46.9697V444.755H48.5307ZM48.5307 443.194V444.755H46.9697V443.194H48.5307ZM48.5307 441.633V443.194H46.9697V441.633H48.5307ZM48.5307 440.072V441.633H46.9697V440.072H48.5307ZM48.5307 438.511V440.072H46.9697V438.511H48.5307ZM46.9697 438.511V440.072H45.4088V438.511H46.9697ZM46.9697 436.95V438.511H45.4088V436.95H46.9697ZM46.9697 440.072V441.633H45.4088V440.072H46.9697ZM46.9697 441.633V443.194H45.4088V441.633H46.9697ZM46.9697 443.194V444.755H45.4088V443.194H46.9697ZM46.9697 444.755V446.316H45.4088V444.755H46.9697ZM46.9697 446.316V447.877H45.4088V446.316H46.9697ZM46.9697 447.877V449.438H45.4088V447.877H46.9697ZM43.8478 449.438V450.999H42.2868V449.438H43.8478ZM43.8478 447.877V449.438H42.2868V447.877H43.8478ZM43.8478 446.316V447.877H42.2868V446.316H43.8478ZM43.8478 444.755V446.316H42.2868V444.755H43.8478ZM43.8478 443.194V444.755H42.2868V443.194H43.8478ZM43.8478 441.633V443.194H42.2868V441.633H43.8478ZM43.8478 440.072V441.633H42.2868V440.072H43.8478ZM43.8478 438.511V440.072H42.2868V438.511H43.8478ZM42.2868 411.975V413.536H40.7258V411.975H42.2868ZM42.2868 413.536V415.097H40.7258V413.536H42.2868ZM42.2868 415.097V416.658H40.7258V415.097H42.2868ZM42.2868 416.658V418.219H40.7258V416.658H42.2868ZM42.2868 418.219V419.78H40.7258V418.219H42.2868ZM42.2868 419.78V421.341H40.7258V419.78H42.2868ZM42.2868 421.341V422.902H40.7258V421.341H42.2868ZM42.2868 422.902V424.463H40.7258V422.902H42.2868ZM42.2868 424.463V426.024H40.7258V424.463H42.2868ZM42.2868 426.024V427.585H40.7258V426.024H42.2868ZM46.9697 411.975V413.536H45.4088V411.975H46.9697ZM46.9697 413.536V415.097H45.4088V413.536H46.9697ZM46.9697 415.097V416.658H45.4088V415.097H46.9697ZM46.9697 416.658V418.219H45.4088V416.658H46.9697ZM46.9697 418.219V419.78H45.4088V418.219H46.9697ZM46.9697 419.78V421.341H45.4088V419.78H46.9697ZM46.9697 422.902V424.463H45.4088V422.902H46.9697ZM46.9697 424.463V426.024H45.4088V424.463H46.9697ZM46.9697 426.024V427.585H45.4088V426.024H46.9697ZM46.9697 427.585V429.146H45.4088V427.585H46.9697ZM46.9697 429.146V430.707H45.4088V429.146H46.9697ZM46.9697 430.707V432.267H45.4088V430.707H46.9697ZM46.9697 432.267V433.828H45.4088V432.267H46.9697ZM48.5307 433.828V435.389H46.9697V433.828H48.5307ZM48.5307 435.389V436.95H46.9697V435.389H48.5307ZM48.5307 436.95V438.511H46.9697V436.95H48.5307ZM48.5307 432.267V433.828H46.9697V432.267H48.5307ZM48.5307 430.707V432.267H46.9697V430.707H48.5307ZM48.5307 429.146V430.707H46.9697V429.146H48.5307ZM48.5307 427.585V429.146H46.9697V427.585H48.5307ZM48.5307 426.024V427.585H46.9697V426.024H48.5307ZM48.5307 424.463V426.024H46.9697V424.463H48.5307ZM48.5307 422.902V424.463H46.9697V422.902H48.5307ZM48.5307 421.341V422.902H46.9697V421.341H48.5307ZM48.5307 419.78V421.341H46.9697V419.78H48.5307ZM48.5307 418.219V419.78H46.9697V418.219H48.5307ZM46.9697 421.341V422.902H45.4088V421.341H46.9697ZM48.5307 416.658V418.219H46.9697V416.658H48.5307ZM48.5307 415.097V416.658H46.9697V415.097H48.5307ZM48.5307 413.536V415.097H46.9697V413.536H48.5307ZM48.5307 411.975V413.536H46.9697V411.975H48.5307ZM45.4088 411.975V413.536H43.8478V411.975H45.4088ZM43.8478 411.975V413.536H42.2868V411.975H43.8478ZM43.8478 413.536V415.097H42.2868V413.536H43.8478ZM45.4088 413.536V415.097H43.8478V413.536H45.4088ZM45.4088 415.097V416.658H43.8478V415.097H45.4088ZM45.4088 416.658V418.219H43.8478V416.658H45.4088ZM45.4088 418.219V419.78H43.8478V418.219H45.4088ZM45.4088 419.78V421.341H43.8478V419.78H45.4088ZM45.4088 421.341V422.902H43.8478V421.341H45.4088ZM45.4088 422.902V424.463H43.8478V422.902H45.4088ZM43.8478 424.463V426.024H42.2868V424.463H43.8478ZM43.8478 426.024V427.585H42.2868V426.024H43.8478ZM43.8478 422.902V424.463H42.2868V422.902H43.8478ZM43.8478 421.341V422.902H42.2868V421.341H43.8478ZM43.8478 419.78V421.341H42.2868V419.78H43.8478ZM43.8478 418.219V419.78H42.2868V418.219H43.8478ZM43.8478 416.658V418.219H42.2868V416.658H43.8478ZM43.8478 415.097V416.658H42.2868V415.097H43.8478ZM45.4088 424.463V426.024H43.8478V424.463H45.4088ZM45.4088 426.024V427.585H43.8478V426.024H45.4088ZM45.4088 427.585V429.146H43.8478V427.585H45.4088ZM45.4088 429.146V430.707H43.8478V429.146H45.4088ZM45.4088 430.707V432.267H43.8478V430.707H45.4088ZM45.4088 432.267V433.828H43.8478V432.267H45.4088ZM45.4088 433.828V435.389H43.8478V433.828H45.4088ZM45.4088 435.389V436.95H43.8478V435.389H45.4088ZM45.4088 436.95V438.511H43.8478V436.95H45.4088ZM46.9697 435.389V436.95H45.4088V435.389H46.9697ZM46.9697 433.828V435.389H45.4088V433.828H46.9697ZM61.0185 411.975V413.536H59.4575V411.975H61.0185ZM61.0185 413.536V415.097H59.4575V413.536H61.0185ZM61.0185 415.097V416.658H59.4575V415.097H61.0185ZM61.0185 418.219V419.78H59.4575V418.219H61.0185ZM61.0185 419.78V421.341H59.4575V419.78H61.0185ZM61.0185 421.341V422.902H59.4575V421.341H61.0185ZM61.0185 422.902V424.463H59.4575V422.902H61.0185ZM61.0185 424.463V426.024H59.4575V424.463H61.0185ZM61.0185 426.024V427.585H59.4575V426.024H61.0185ZM61.0185 427.585V429.146H59.4575V427.585H61.0185ZM62.5795 429.146V430.707H61.0185V429.146H62.5795ZM62.5795 430.707V432.267H61.0185V430.707H62.5795ZM62.5795 432.267V433.828H61.0185V432.267H62.5795ZM62.5795 433.828V435.389H61.0185V433.828H62.5795ZM62.5795 435.389V436.95H61.0185V435.389H62.5795ZM62.5795 436.95V438.511H61.0185V436.95H62.5795ZM64.1405 436.95V438.511H62.5795V436.95H64.1405ZM64.1405 438.511V440.072H62.5795V438.511H64.1405ZM64.1405 440.072V441.633H62.5795V440.072H64.1405ZM64.1405 441.633V443.194H62.5795V441.633H64.1405ZM64.1405 443.194V444.755H62.5795V443.194H64.1405ZM64.1405 444.755V446.316H62.5795V444.755H64.1405ZM64.1405 446.316V447.877H62.5795V446.316H64.1405ZM64.1405 447.877V449.438H62.5795V447.877H64.1405ZM64.1405 449.438V450.999H62.5795V449.438H64.1405ZM62.5795 449.438V450.999H61.0185V449.438H62.5795ZM62.5795 447.877V449.438H61.0185V447.877H62.5795ZM62.5795 446.316V447.877H61.0185V446.316H62.5795ZM62.5795 444.755V446.316H61.0185V444.755H62.5795ZM62.5795 443.194V444.755H61.0185V443.194H62.5795ZM62.5795 441.633V443.194H61.0185V441.633H62.5795ZM62.5795 440.072V441.633H61.0185V440.072H62.5795ZM61.0185 440.072V441.633H59.4575V440.072H61.0185ZM61.0185 438.511V440.072H59.4575V438.511H61.0185ZM62.5795 438.511V440.072H61.0185V438.511H62.5795ZM61.0185 429.146V430.707H59.4575V429.146H61.0185ZM61.0185 430.707V432.267H59.4575V430.707H61.0185ZM61.0185 432.267V433.828H59.4575V432.267H61.0185ZM61.0185 433.828V435.389H59.4575V433.828H61.0185ZM61.0185 435.389V436.95H59.4575V435.389H61.0185ZM61.0185 436.95V438.511H59.4575V436.95H61.0185ZM61.0185 416.658V418.219H59.4575V416.658H61.0185ZM61.0185 441.633V443.194H59.4575V441.633H61.0185ZM61.0185 443.194V444.755H59.4575V443.194H61.0185ZM61.0185 444.755V446.316H59.4575V444.755H61.0185ZM61.0185 446.316V447.877H59.4575V446.316H61.0185ZM61.0185 447.877V449.438H59.4575V447.877H61.0185ZM61.0185 449.438V450.999H59.4575V449.438H61.0185ZM65.7014 449.438V450.999H64.1405V449.438H65.7014ZM67.2624 449.438V450.999H65.7014V449.438H67.2624ZM67.2624 447.877V449.438H65.7014V447.877H67.2624ZM67.2624 446.316V447.877H65.7014V446.316H67.2624ZM67.2624 444.755V446.316H65.7014V444.755H67.2624ZM67.2624 443.194V444.755H65.7014V443.194H67.2624ZM67.2624 441.633V443.194H65.7014V441.633H67.2624ZM67.2624 440.072V441.633H65.7014V440.072H67.2624ZM67.2624 438.511V440.072H65.7014V438.511H67.2624ZM67.2624 436.95V438.511H65.7014V436.95H67.2624ZM67.2624 435.389V436.95H65.7014V435.389H67.2624ZM67.2624 433.828V435.389H65.7014V433.828H67.2624ZM67.2624 432.267V433.828H65.7014V432.267H67.2624ZM67.2624 430.707V432.267H65.7014V430.707H67.2624ZM67.2624 429.146V430.707H65.7014V429.146H67.2624ZM67.2624 427.585V429.146H65.7014V427.585H67.2624ZM67.2624 426.024V427.585H65.7014V426.024H67.2624ZM67.2624 424.463V426.024H65.7014V424.463H67.2624ZM67.2624 422.902V424.463H65.7014V422.902H67.2624ZM67.2624 421.341V422.902H65.7014V421.341H67.2624ZM62.5795 411.975V413.536H61.0185V411.975H62.5795ZM64.1405 411.975V413.536H62.5795V411.975H64.1405ZM65.7014 411.975V413.536H64.1405V411.975H65.7014ZM67.2624 411.975V413.536H65.7014V411.975H67.2624ZM67.2624 413.536V415.097H65.7014V413.536H67.2624ZM67.2624 415.097V416.658H65.7014V415.097H67.2624ZM67.2624 416.658V418.219H65.7014V416.658H67.2624ZM67.2624 418.219V419.78H65.7014V418.219H67.2624ZM67.2624 419.78V421.341H65.7014V419.78H67.2624ZM62.5795 413.536V415.097H61.0185V413.536H62.5795ZM64.1405 413.536V415.097H62.5795V413.536H64.1405ZM65.7014 413.536V415.097H64.1405V413.536H65.7014ZM65.7014 415.097V416.658H64.1405V415.097H65.7014ZM65.7014 416.658V418.219H64.1405V416.658H65.7014ZM65.7014 418.219V419.78H64.1405V418.219H65.7014ZM65.7014 419.78V421.341H64.1405V419.78H65.7014ZM64.1405 419.78V421.341H62.5795V419.78H64.1405ZM64.1405 418.219V419.78H62.5795V418.219H64.1405ZM64.1405 416.658V418.219H62.5795V416.658H64.1405ZM64.1405 415.097V416.658H62.5795V415.097H64.1405ZM62.5795 415.097V416.658H61.0185V415.097H62.5795ZM62.5795 416.658V418.219H61.0185V416.658H62.5795ZM62.5795 418.219V419.78H61.0185V418.219H62.5795ZM62.5795 419.78V421.341H61.0185V419.78H62.5795ZM62.5795 421.341V422.902H61.0185V421.341H62.5795ZM62.5795 422.902V424.463H61.0185V422.902H62.5795ZM62.5795 424.463V426.024H61.0185V424.463H62.5795ZM62.5795 426.024V427.585H61.0185V426.024H62.5795ZM64.1405 426.024V427.585H62.5795V426.024H64.1405ZM64.1405 424.463V426.024H62.5795V424.463H64.1405ZM64.1405 422.902V424.463H62.5795V422.902H64.1405ZM64.1405 421.341V422.902H62.5795V421.341H64.1405ZM65.7014 421.341V422.902H64.1405V421.341H65.7014ZM65.7014 422.902V424.463H64.1405V422.902H65.7014ZM65.7014 424.463V426.024H64.1405V424.463H65.7014ZM65.7014 426.024V427.585H64.1405V426.024H65.7014ZM65.7014 427.585V429.146H64.1405V427.585H65.7014ZM65.7014 429.146V430.707H64.1405V429.146H65.7014ZM65.7014 430.707V432.267H64.1405V430.707H65.7014ZM65.7014 432.267V433.828H64.1405V432.267H65.7014ZM65.7014 433.828V435.389H64.1405V433.828H65.7014ZM65.7014 435.389V436.95H64.1405V435.389H65.7014ZM64.1405 435.389V436.95H62.5795V435.389H64.1405ZM64.1405 433.828V435.389H62.5795V433.828H64.1405ZM64.1405 432.267V433.828H62.5795V432.267H64.1405ZM64.1405 430.707V432.267H62.5795V430.707H64.1405ZM64.1405 429.146V430.707H62.5795V429.146H64.1405ZM62.5795 427.585V429.146H61.0185V427.585H62.5795ZM64.1405 427.585V429.146H62.5795V427.585H64.1405ZM65.7014 436.95V438.511H64.1405V436.95H65.7014ZM65.7014 438.511V440.072H64.1405V438.511H65.7014ZM65.7014 440.072V441.633H64.1405V440.072H65.7014ZM65.7014 441.633V443.194H64.1405V441.633H65.7014ZM65.7014 443.194V444.755H64.1405V443.194H65.7014ZM65.7014 444.755V446.316H64.1405V444.755H65.7014ZM65.7014 446.316V447.877H64.1405V446.316H65.7014ZM65.7014 447.877V449.438H64.1405V447.877H65.7014ZM50.0917 430.707V432.267H48.5307V430.707H50.0917ZM51.6527 430.707V432.267H50.0917V430.707H51.6527ZM53.2136 430.707V432.267H51.6527V430.707H53.2136ZM54.7746 430.707V432.267H53.2136V430.707H54.7746ZM56.3356 430.707V432.267H54.7746V430.707H56.3356ZM57.8966 430.707V432.267H56.3356V430.707H57.8966ZM59.4575 430.707V432.267H57.8966V430.707H59.4575ZM59.4575 432.267V433.828H57.8966V432.267H59.4575ZM57.8966 432.267V433.828H56.3356V432.267H57.8966ZM56.3356 432.267V433.828H54.7746V432.267H56.3356ZM54.7746 432.267V433.828H53.2136V432.267H54.7746ZM53.2136 432.267V433.828H51.6527V432.267H53.2136ZM51.6527 432.267V433.828H50.0917V432.267H51.6527ZM50.0917 432.267V433.828H48.5307V432.267H50.0917ZM50.0917 427.585V429.146H48.5307V427.585H50.0917ZM51.6527 427.585V429.146H50.0917V427.585H51.6527ZM53.2136 427.585V429.146H51.6527V427.585H53.2136ZM54.7746 427.585V429.146H53.2136V427.585H54.7746ZM56.3356 427.585V429.146H54.7746V427.585H56.3356ZM57.8966 427.585V429.146H56.3356V427.585H57.8966ZM59.4575 427.585V429.146H57.8966V427.585H59.4575ZM59.4575 429.146V430.707H57.8966V429.146H59.4575ZM57.8966 429.146V430.707H56.3356V429.146H57.8966ZM56.3356 429.146V430.707H54.7746V429.146H56.3356ZM54.7746 429.146V430.707H53.2136V429.146H54.7746ZM53.2136 429.146V430.707H51.6527V429.146H53.2136ZM50.0917 433.828V435.389H48.5307V433.828H50.0917ZM51.6527 433.828V435.389H50.0917V433.828H51.6527ZM53.2136 433.828V435.389H51.6527V433.828H53.2136ZM54.7746 433.828V435.389H53.2136V433.828H54.7746ZM56.3356 433.828V435.389H54.7746V433.828H56.3356ZM57.8966 433.828V435.389H56.3356V433.828H57.8966ZM59.4575 433.828V435.389H57.8966V433.828H59.4575ZM51.6527 429.146V430.707H50.0917V429.146H51.6527ZM50.0917 429.146V430.707H48.5307V429.146H50.0917ZM90.6466 430.707V432.267H89.0856V430.707H90.6466ZM92.2075 430.707V432.267H90.6466V430.707H92.2075ZM93.7685 430.707V432.267H92.2075V430.707H93.7685ZM95.3295 430.707V432.267H93.7685V430.707H95.3295ZM96.8905 430.707V432.267H95.3295V430.707H96.8905ZM96.8905 429.146V430.707H95.3295V429.146H96.8905ZM96.8905 427.585V429.146H95.3295V427.585H96.8905ZM95.3295 427.585V429.146H93.7685V427.585H95.3295ZM93.7685 427.585V429.146H92.2075V427.585H93.7685ZM92.2075 427.585V429.146H90.6466V427.585H92.2075ZM92.2075 429.146V430.707H90.6466V429.146H92.2075ZM90.6466 429.146V430.707H89.0856V429.146H90.6466ZM93.7685 429.146V430.707H92.2075V429.146H93.7685ZM95.3295 429.146V430.707H93.7685V429.146H95.3295ZM90.6466 427.585V429.146H89.0856V427.585H90.6466ZM89.0856 427.585V429.146H87.5246V427.585H89.0856ZM89.0856 426.024V427.585H87.5246V426.024H89.0856ZM90.6466 426.024V427.585H89.0856V426.024H90.6466ZM92.2075 426.024V427.585H90.6466V426.024H92.2075ZM93.7685 426.024V427.585H92.2075V426.024H93.7685ZM95.3295 426.024V427.585H93.7685V426.024H95.3295ZM95.3295 424.463V426.024H93.7685V424.463H95.3295ZM93.7685 424.463V426.024H92.2075V424.463H93.7685ZM92.2075 424.463V426.024H90.6466V424.463H92.2075ZM90.6466 424.463V426.024H89.0856V424.463H90.6466ZM89.0856 424.463V426.024H87.5246V424.463H89.0856ZM92.2075 422.902V424.463H90.6466V422.902H92.2075ZM93.7685 422.902V424.463H92.2075V422.902H93.7685ZM90.6466 422.902V424.463H89.0856V422.902H90.6466ZM90.6466 421.341V422.902H89.0856V421.341H90.6466ZM89.0856 421.341V422.902H87.5246V421.341H89.0856ZM89.0856 422.902V424.463H87.5246V422.902H89.0856ZM87.5246 422.902V424.463H85.9636V422.902H87.5246ZM87.5246 421.341V422.902H85.9636V421.341H87.5246ZM87.5246 424.463V426.024H85.9636V424.463H87.5246ZM85.9636 424.463V426.024H84.4027V424.463H85.9636ZM85.9636 426.024V427.585H84.4027V426.024H85.9636ZM87.5246 426.024V427.585H85.9636V426.024H87.5246ZM84.4027 426.024V427.585H82.8417V426.024H84.4027ZM84.4027 424.463V426.024H82.8417V424.463H84.4027ZM84.4027 422.902V424.463H82.8417V422.902H84.4027ZM84.4027 421.341V422.902H82.8417V421.341H84.4027ZM85.9636 421.341V422.902H84.4027V421.341H85.9636ZM85.9636 422.902V424.463H84.4027V422.902H85.9636ZM82.8417 421.341V422.902H81.2807V421.341H82.8417ZM81.2807 421.341V422.902H79.7197V421.341H81.2807ZM79.7197 421.341V422.902H78.1588V421.341H79.7197ZM79.7197 422.902V424.463H78.1588V422.902H79.7197ZM79.7197 424.463V426.024H78.1588V424.463H79.7197ZM79.7197 426.024V427.585H78.1588V426.024H79.7197ZM81.2807 426.024V427.585H79.7197V426.024H81.2807ZM82.8417 426.024V427.585H81.2807V426.024H82.8417ZM82.8417 424.463V426.024H81.2807V424.463H82.8417ZM82.8417 422.902V424.463H81.2807V422.902H82.8417ZM81.2807 422.902V424.463H79.7197V422.902H81.2807ZM81.2807 424.463V426.024H79.7197V424.463H81.2807ZM78.1588 424.463V426.024H76.5978V424.463H78.1588ZM78.1588 422.902V424.463H76.5978V422.902H78.1588ZM76.5978 422.902V424.463H75.0368V422.902H76.5978ZM76.5978 424.463V426.024H75.0368V424.463H76.5978ZM75.0368 424.463V426.024H73.4758V424.463H75.0368ZM75.0368 426.024V427.585H73.4758V426.024H75.0368ZM75.0368 427.585V429.146H73.4758V427.585H75.0368ZM76.5978 427.585V429.146H75.0368V427.585H76.5978ZM76.5978 426.024V427.585H75.0368V426.024H76.5978ZM78.1588 426.024V427.585H76.5978V426.024H78.1588ZM78.1588 427.585V429.146H76.5978V427.585H78.1588ZM79.7197 427.585V429.146H78.1588V427.585H79.7197ZM81.2807 427.585V429.146H79.7197V427.585H81.2807ZM73.4758 427.585V429.146H71.9149V427.585H73.4758ZM73.4758 429.146V430.707H71.9149V429.146H73.4758ZM73.4758 430.707V432.267H71.9149V430.707H73.4758ZM73.4758 432.267V433.828H71.9149V432.267H73.4758ZM73.4758 433.828V435.389H71.9149V433.828H73.4758ZM73.4758 435.389V436.95H71.9149V435.389H73.4758ZM73.4758 436.95V438.511H71.9149V436.95H73.4758ZM73.4758 438.511V440.072H71.9149V438.511H73.4758ZM73.4758 440.072V441.633H71.9149V440.072H73.4758ZM73.4758 441.633V443.194H71.9149V441.633H73.4758ZM75.0368 441.633V443.194H73.4758V441.633H75.0368ZM75.0368 443.194V444.755H73.4758V443.194H75.0368ZM73.4758 443.194V444.755H71.9149V443.194H73.4758ZM76.5978 443.194V444.755H75.0368V443.194H76.5978ZM78.1588 443.194V444.755H76.5978V443.194H78.1588ZM79.7197 443.194V444.755H78.1588V443.194H79.7197ZM81.2807 443.194V444.755H79.7197V443.194H81.2807ZM79.7197 441.633V443.194H78.1588V441.633H79.7197ZM79.7197 440.072V441.633H78.1588V440.072H79.7197ZM79.7197 438.511V440.072H78.1588V438.511H79.7197ZM79.7197 436.95V438.511H78.1588V436.95H79.7197ZM79.7197 435.389V436.95H78.1588V435.389H79.7197ZM79.7197 433.828V435.389H78.1588V433.828H79.7197ZM79.7197 432.267V433.828H78.1588V432.267H79.7197ZM79.7197 430.707V432.267H78.1588V430.707H79.7197ZM79.7197 429.146V430.707H78.1588V429.146H79.7197ZM78.1588 429.146V430.707H76.5978V429.146H78.1588ZM76.5978 429.146V430.707H75.0368V429.146H76.5978ZM75.0368 429.146V430.707H73.4758V429.146H75.0368ZM75.0368 430.707V432.267H73.4758V430.707H75.0368ZM75.0368 432.267V433.828H73.4758V432.267H75.0368ZM75.0368 433.828V435.389H73.4758V433.828H75.0368ZM75.0368 435.389V436.95H73.4758V435.389H75.0368ZM75.0368 436.95V438.511H73.4758V436.95H75.0368ZM75.0368 438.511V440.072H73.4758V438.511H75.0368ZM75.0368 440.072V441.633H73.4758V440.072H75.0368ZM76.5978 441.633V443.194H75.0368V441.633H76.5978ZM78.1588 441.633V443.194H76.5978V441.633H78.1588ZM78.1588 440.072V441.633H76.5978V440.072H78.1588ZM78.1588 438.511V440.072H76.5978V438.511H78.1588ZM78.1588 436.95V438.511H76.5978V436.95H78.1588ZM78.1588 435.389V436.95H76.5978V435.389H78.1588ZM76.5978 435.389V436.95H75.0368V435.389H76.5978ZM76.5978 433.828V435.389H75.0368V433.828H76.5978ZM76.5978 432.267V433.828H75.0368V432.267H76.5978ZM76.5978 430.707V432.267H75.0368V430.707H76.5978ZM78.1588 430.707V432.267H76.5978V430.707H78.1588ZM78.1588 432.267V433.828H76.5978V432.267H78.1588ZM78.1588 433.828V435.389H76.5978V433.828H78.1588ZM76.5978 438.511V440.072H75.0368V438.511H76.5978ZM76.5978 440.072V441.633H75.0368V440.072H76.5978ZM76.5978 436.95V438.511H75.0368V436.95H76.5978ZM90.6466 440.072V441.633H89.0856V440.072H90.6466ZM90.6466 441.633V443.194H89.0856V441.633H90.6466ZM92.2075 441.633V443.194H90.6466V441.633H92.2075ZM93.7685 441.633V443.194H92.2075V441.633H93.7685ZM95.3295 441.633V443.194H93.7685V441.633H95.3295ZM96.8905 441.633V443.194H95.3295V441.633H96.8905ZM96.8905 440.072V441.633H95.3295V440.072H96.8905ZM95.3295 440.072V441.633H93.7685V440.072H95.3295ZM93.7685 440.072V441.633H92.2075V440.072H93.7685ZM92.2075 440.072V441.633H90.6466V440.072H92.2075ZM96.8905 443.194V444.755H95.3295V443.194H96.8905ZM95.3295 443.194V444.755H93.7685V443.194H95.3295ZM93.7685 443.194V444.755H92.2075V443.194H93.7685ZM92.2075 443.194V444.755H90.6466V443.194H92.2075ZM90.6466 443.194V444.755H89.0856V443.194H90.6466ZM89.0856 443.194V444.755H87.5246V443.194H89.0856ZM89.0856 444.755V446.316H87.5246V444.755H89.0856ZM90.6466 444.755V446.316H89.0856V444.755H90.6466ZM92.2075 444.755V446.316H90.6466V444.755H92.2075ZM93.7685 444.755V446.316H92.2075V444.755H93.7685ZM93.7685 446.316V447.877H92.2075V446.316H93.7685ZM95.3295 446.316V447.877H93.7685V446.316H95.3295ZM95.3295 444.755V446.316H93.7685V444.755H95.3295ZM93.7685 447.877V449.438H92.2075V447.877H93.7685ZM92.2075 447.877V449.438H90.6466V447.877H92.2075ZM92.2075 446.316V447.877H90.6466V446.316H92.2075ZM90.6466 446.316V447.877H89.0856V446.316H90.6466ZM90.6466 447.877V449.438H89.0856V447.877H90.6466ZM90.6466 449.438V450.999H89.0856V449.438H90.6466ZM89.0856 449.438V450.999H87.5246V449.438H89.0856ZM87.5246 449.438V450.999H85.9636V449.438H87.5246ZM85.9636 449.438V450.999H84.4027V449.438H85.9636ZM84.4027 449.438V450.999H82.8417V449.438H84.4027ZM82.8417 449.438V450.999H81.2807V449.438H82.8417ZM81.2807 449.438V450.999H79.7197V449.438H81.2807ZM79.7197 449.438V450.999H78.1588V449.438H79.7197ZM81.2807 447.877V449.438H79.7197V447.877H81.2807ZM82.8417 447.877V449.438H81.2807V447.877H82.8417ZM84.4027 447.877V449.438H82.8417V447.877H84.4027ZM85.9636 447.877V449.438H84.4027V447.877H85.9636ZM87.5246 447.877V449.438H85.9636V447.877H87.5246ZM89.0856 447.877V449.438H87.5246V447.877H89.0856ZM89.0856 446.316V447.877H87.5246V446.316H89.0856ZM87.5246 446.316V447.877H85.9636V446.316H87.5246ZM85.9636 446.316V447.877H84.4027V446.316H85.9636ZM84.4027 446.316V447.877H82.8417V446.316H84.4027ZM82.8417 446.316V447.877H81.2807V446.316H82.8417ZM81.2807 446.316V447.877H79.7197V446.316H81.2807ZM79.7197 447.877V449.438H78.1588V447.877H79.7197ZM78.1588 447.877V449.438H76.5978V447.877H78.1588ZM76.5978 447.877V449.438H75.0368V447.877H76.5978ZM76.5978 446.316V447.877H75.0368V446.316H76.5978ZM75.0368 446.316V447.877H73.4758V446.316H75.0368ZM75.0368 444.755V446.316H73.4758V444.755H75.0368ZM76.5978 444.755V446.316H75.0368V444.755H76.5978ZM78.1588 444.755V446.316H76.5978V444.755H78.1588ZM79.7197 444.755V446.316H78.1588V444.755H79.7197ZM81.2807 444.755V446.316H79.7197V444.755H81.2807ZM82.8417 444.755V446.316H81.2807V444.755H82.8417ZM84.4027 444.755V446.316H82.8417V444.755H84.4027ZM85.9636 444.755V446.316H84.4027V444.755H85.9636ZM87.5246 444.755V446.316H85.9636V444.755H87.5246ZM79.7197 446.316V447.877H78.1588V446.316H79.7197ZM78.1588 446.316V447.877H76.5978V446.316H78.1588ZM90.6466 432.267V433.828H89.0856V432.267H90.6466ZM90.6466 433.828V435.389H89.0856V433.828H90.6466ZM92.2075 433.828V435.389H90.6466V433.828H92.2075ZM93.7685 433.828V435.389H92.2075V433.828H93.7685ZM95.3295 433.828V435.389H93.7685V433.828H95.3295ZM96.8905 433.828V435.389H95.3295V433.828H96.8905ZM96.8905 432.267V433.828H95.3295V432.267H96.8905ZM95.3295 432.267V433.828H93.7685V432.267H95.3295ZM93.7685 432.267V433.828H92.2075V432.267H93.7685ZM92.2075 432.267V433.828H90.6466V432.267H92.2075ZM92.2075 435.389V436.95H90.6466V435.389H92.2075ZM93.7685 435.389V436.95H92.2075V435.389H93.7685ZM93.7685 436.95V438.511H92.2075V436.95H93.7685ZM95.3295 436.95V438.511H93.7685V436.95H95.3295ZM95.3295 435.389V436.95H93.7685V435.389H95.3295ZM96.8905 435.389V436.95H95.3295V435.389H96.8905ZM96.8905 436.95V438.511H95.3295V436.95H96.8905ZM96.8905 438.511V440.072H95.3295V438.511H96.8905ZM95.3295 438.511V440.072H93.7685V438.511H95.3295ZM93.7685 438.511V440.072H92.2075V438.511H93.7685ZM92.2075 438.511V440.072H90.6466V438.511H92.2075ZM92.2075 436.95V438.511H90.6466V436.95H92.2075ZM90.6466 436.95V438.511H89.0856V436.95H90.6466ZM90.6466 435.389V436.95H89.0856V435.389H90.6466ZM90.6466 438.511V440.072H89.0856V438.511H90.6466ZM118.772 430.707V432.267H117.211V430.707H118.772ZM120.333 430.707V432.267H118.772V430.707H120.333ZM121.894 430.707V432.267H120.333V430.707H121.894ZM123.454 430.707V432.267H121.894V430.707H123.454ZM125.015 430.707V432.267H123.454V430.707H125.015ZM125.015 429.146V430.707H123.454V429.146H125.015ZM125.015 427.585V429.146H123.454V427.585H125.015ZM123.454 427.585V429.146H121.894V427.585H123.454ZM121.894 427.585V429.146H120.333V427.585H121.894ZM120.333 427.585V429.146H118.772V427.585H120.333ZM120.333 429.146V430.707H118.772V429.146H120.333ZM118.772 429.146V430.707H117.211V429.146H118.772ZM121.894 429.146V430.707H120.333V429.146H121.894ZM123.454 429.146V430.707H121.894V429.146H123.454ZM118.772 427.585V429.146H117.211V427.585H118.772ZM117.211 427.585V429.146H115.65V427.585H117.211ZM117.211 426.024V427.585H115.65V426.024H117.211ZM118.772 426.024V427.585H117.211V426.024H118.772ZM120.333 426.024V427.585H118.772V426.024H120.333ZM121.894 426.024V427.585H120.333V426.024H121.894ZM123.454 426.024V427.585H121.894V426.024H123.454ZM123.454 424.463V426.024H121.894V424.463H123.454ZM121.894 424.463V426.024H120.333V424.463H121.894ZM120.333 424.463V426.024H118.772V424.463H120.333ZM118.772 424.463V426.024H117.211V424.463H118.772ZM117.211 424.463V426.024H115.65V424.463H117.211ZM120.333 422.902V424.463H118.772V422.902H120.333ZM121.894 422.902V424.463H120.333V422.902H121.894ZM118.772 422.902V424.463H117.211V422.902H118.772ZM118.772 421.341V422.902H117.211V421.341H118.772ZM117.211 421.341V422.902H115.65V421.341H117.211ZM117.211 422.902V424.463H115.65V422.902H117.211ZM115.65 422.902V424.463H114.089V422.902H115.65ZM115.65 421.341V422.902H114.089V421.341H115.65ZM115.65 424.463V426.024H114.089V424.463H115.65ZM114.089 424.463V426.024H112.528V424.463H114.089ZM114.089 426.024V427.585H112.528V426.024H114.089ZM115.65 426.024V427.585H114.089V426.024H115.65ZM112.528 426.024V427.585H110.967V426.024H112.528ZM112.528 424.463V426.024H110.967V424.463H112.528ZM112.528 422.902V424.463H110.967V422.902H112.528ZM112.528 421.341V422.902H110.967V421.341H112.528ZM114.089 421.341V422.902H112.528V421.341H114.089ZM114.089 422.902V424.463H112.528V422.902H114.089ZM110.967 421.341V422.902H109.406V421.341H110.967ZM109.406 421.341V422.902H107.845V421.341H109.406ZM107.845 421.341V422.902H106.284V421.341H107.845ZM107.845 422.902V424.463H106.284V422.902H107.845ZM107.845 424.463V426.024H106.284V424.463H107.845ZM107.845 426.024V427.585H106.284V426.024H107.845ZM109.406 426.024V427.585H107.845V426.024H109.406ZM110.967 426.024V427.585H109.406V426.024H110.967ZM110.967 424.463V426.024H109.406V424.463H110.967ZM110.967 422.902V424.463H109.406V422.902H110.967ZM109.406 422.902V424.463H107.845V422.902H109.406ZM109.406 424.463V426.024H107.845V424.463H109.406ZM106.284 424.463V426.024H104.723V424.463H106.284ZM106.284 422.902V424.463H104.723V422.902H106.284ZM104.723 422.902V424.463H103.162V422.902H104.723ZM104.723 424.463V426.024H103.162V424.463H104.723ZM103.162 424.463V426.024H101.601V424.463H103.162ZM103.162 426.024V427.585H101.601V426.024H103.162ZM103.162 427.585V429.146H101.601V427.585H103.162ZM104.723 427.585V429.146H103.162V427.585H104.723ZM104.723 426.024V427.585H103.162V426.024H104.723ZM106.284 426.024V427.585H104.723V426.024H106.284ZM106.284 427.585V429.146H104.723V427.585H106.284ZM107.845 427.585V429.146H106.284V427.585H107.845ZM109.406 427.585V429.146H107.845V427.585H109.406ZM101.601 427.585V429.146H100.04V427.585H101.601ZM101.601 429.146V430.707H100.04V429.146H101.601ZM101.601 430.707V432.267H100.04V430.707H101.601ZM101.601 432.267V433.828H100.04V432.267H101.601ZM101.601 433.828V435.389H100.04V433.828H101.601ZM101.601 435.389V436.95H100.04V435.389H101.601ZM101.601 436.95V438.511H100.04V436.95H101.601ZM101.601 438.511V440.072H100.04V438.511H101.601ZM101.601 440.072V441.633H100.04V440.072H101.601ZM101.601 441.633V443.194H100.04V441.633H101.601ZM103.162 441.633V443.194H101.601V441.633H103.162ZM103.162 443.194V444.755H101.601V443.194H103.162ZM101.601 443.194V444.755H100.04V443.194H101.601ZM104.723 443.194V444.755H103.162V443.194H104.723ZM106.284 443.194V444.755H104.723V443.194H106.284ZM107.845 443.194V444.755H106.284V443.194H107.845ZM109.406 443.194V444.755H107.845V443.194H109.406ZM107.845 441.633V443.194H106.284V441.633H107.845ZM107.845 440.072V441.633H106.284V440.072H107.845ZM107.845 438.511V440.072H106.284V438.511H107.845ZM107.845 436.95V438.511H106.284V436.95H107.845ZM107.845 435.389V436.95H106.284V435.389H107.845ZM107.845 433.828V435.389H106.284V433.828H107.845ZM107.845 432.267V433.828H106.284V432.267H107.845ZM107.845 430.707V432.267H106.284V430.707H107.845ZM107.845 429.146V430.707H106.284V429.146H107.845ZM106.284 429.146V430.707H104.723V429.146H106.284ZM104.723 429.146V430.707H103.162V429.146H104.723ZM103.162 429.146V430.707H101.601V429.146H103.162ZM103.162 430.707V432.267H101.601V430.707H103.162ZM103.162 432.267V433.828H101.601V432.267H103.162ZM103.162 433.828V435.389H101.601V433.828H103.162ZM103.162 435.389V436.95H101.601V435.389H103.162ZM103.162 436.95V438.511H101.601V436.95H103.162ZM103.162 438.511V440.072H101.601V438.511H103.162ZM103.162 440.072V441.633H101.601V440.072H103.162ZM104.723 441.633V443.194H103.162V441.633H104.723ZM106.284 441.633V443.194H104.723V441.633H106.284ZM106.284 440.072V441.633H104.723V440.072H106.284ZM106.284 438.511V440.072H104.723V438.511H106.284ZM106.284 436.95V438.511H104.723V436.95H106.284ZM106.284 435.389V436.95H104.723V435.389H106.284ZM104.723 435.389V436.95H103.162V435.389H104.723ZM104.723 433.828V435.389H103.162V433.828H104.723ZM104.723 432.267V433.828H103.162V432.267H104.723ZM104.723 430.707V432.267H103.162V430.707H104.723ZM106.284 430.707V432.267H104.723V430.707H106.284ZM106.284 432.267V433.828H104.723V432.267H106.284ZM106.284 433.828V435.389H104.723V433.828H106.284ZM104.723 438.511V440.072H103.162V438.511H104.723ZM104.723 440.072V441.633H103.162V440.072H104.723ZM104.723 436.95V438.511H103.162V436.95H104.723ZM118.772 440.072V441.633H117.211V440.072H118.772ZM118.772 441.633V443.194H117.211V441.633H118.772ZM120.333 441.633V443.194H118.772V441.633H120.333ZM121.894 441.633V443.194H120.333V441.633H121.894ZM123.454 441.633V443.194H121.894V441.633H123.454ZM125.015 441.633V443.194H123.454V441.633H125.015ZM125.015 440.072V441.633H123.454V440.072H125.015ZM123.454 440.072V441.633H121.894V440.072H123.454ZM121.894 440.072V441.633H120.333V440.072H121.894ZM120.333 440.072V441.633H118.772V440.072H120.333ZM125.015 443.194V444.755H123.454V443.194H125.015ZM123.454 443.194V444.755H121.894V443.194H123.454ZM121.894 443.194V444.755H120.333V443.194H121.894ZM120.333 443.194V444.755H118.772V443.194H120.333ZM118.772 443.194V444.755H117.211V443.194H118.772ZM117.211 443.194V444.755H115.65V443.194H117.211ZM117.211 444.755V446.316H115.65V444.755H117.211ZM118.772 444.755V446.316H117.211V444.755H118.772ZM120.333 444.755V446.316H118.772V444.755H120.333ZM121.894 444.755V446.316H120.333V444.755H121.894ZM121.894 446.316V447.877H120.333V446.316H121.894ZM123.454 446.316V447.877H121.894V446.316H123.454ZM123.454 444.755V446.316H121.894V444.755H123.454ZM121.894 447.877V449.438H120.333V447.877H121.894ZM120.333 447.877V449.438H118.772V447.877H120.333ZM120.333 446.316V447.877H118.772V446.316H120.333ZM118.772 446.316V447.877H117.211V446.316H118.772ZM118.772 447.877V449.438H117.211V447.877H118.772ZM118.772 449.438V450.999H117.211V449.438H118.772ZM117.211 449.438V450.999H115.65V449.438H117.211ZM115.65 449.438V450.999H114.089V449.438H115.65ZM114.089 449.438V450.999H112.528V449.438H114.089ZM112.528 449.438V450.999H110.967V449.438H112.528ZM110.967 449.438V450.999H109.406V449.438H110.967ZM109.406 449.438V450.999H107.845V449.438H109.406ZM107.845 449.438V450.999H106.284V449.438H107.845ZM109.406 447.877V449.438H107.845V447.877H109.406ZM110.967 447.877V449.438H109.406V447.877H110.967ZM112.528 447.877V449.438H110.967V447.877H112.528ZM114.089 447.877V449.438H112.528V447.877H114.089ZM115.65 447.877V449.438H114.089V447.877H115.65ZM117.211 447.877V449.438H115.65V447.877H117.211ZM117.211 446.316V447.877H115.65V446.316H117.211ZM115.65 446.316V447.877H114.089V446.316H115.65ZM114.089 446.316V447.877H112.528V446.316H114.089ZM112.528 446.316V447.877H110.967V446.316H112.528ZM110.967 446.316V447.877H109.406V446.316H110.967ZM109.406 446.316V447.877H107.845V446.316H109.406ZM107.845 447.877V449.438H106.284V447.877H107.845ZM106.284 447.877V449.438H104.723V447.877H106.284ZM104.723 447.877V449.438H103.162V447.877H104.723ZM104.723 446.316V447.877H103.162V446.316H104.723ZM103.162 446.316V447.877H101.601V446.316H103.162ZM103.162 444.755V446.316H101.601V444.755H103.162ZM104.723 444.755V446.316H103.162V444.755H104.723ZM106.284 444.755V446.316H104.723V444.755H106.284ZM107.845 444.755V446.316H106.284V444.755H107.845ZM109.406 444.755V446.316H107.845V444.755H109.406ZM110.967 444.755V446.316H109.406V444.755H110.967ZM112.528 444.755V446.316H110.967V444.755H112.528ZM114.089 444.755V446.316H112.528V444.755H114.089ZM115.65 444.755V446.316H114.089V444.755H115.65ZM107.845 446.316V447.877H106.284V446.316H107.845ZM106.284 446.316V447.877H104.723V446.316H106.284ZM118.772 432.267V433.828H117.211V432.267H118.772ZM118.772 433.828V435.389H117.211V433.828H118.772ZM120.333 433.828V435.389H118.772V433.828H120.333ZM121.894 433.828V435.389H120.333V433.828H121.894ZM123.454 433.828V435.389H121.894V433.828H123.454ZM125.015 433.828V435.389H123.454V433.828H125.015ZM125.015 432.267V433.828H123.454V432.267H125.015ZM123.454 432.267V433.828H121.894V432.267H123.454ZM121.894 432.267V433.828H120.333V432.267H121.894ZM120.333 432.267V433.828H118.772V432.267H120.333ZM120.333 435.389V436.95H118.772V435.389H120.333ZM121.894 435.389V436.95H120.333V435.389H121.894ZM121.894 436.95V438.511H120.333V436.95H121.894ZM123.454 436.95V438.511H121.894V436.95H123.454ZM123.454 435.389V436.95H121.894V435.389H123.454ZM125.015 435.389V436.95H123.454V435.389H125.015ZM125.015 436.95V438.511H123.454V436.95H125.015ZM125.015 438.511V440.072H123.454V438.511H125.015ZM123.454 438.511V440.072H121.894V438.511H123.454ZM121.894 438.511V440.072H120.333V438.511H121.894ZM120.333 438.511V440.072H118.772V438.511H120.333ZM120.333 436.95V438.511H118.772V436.95H120.333ZM118.772 436.95V438.511H117.211V436.95H118.772ZM118.772 435.389V436.95H117.211V435.389H118.772ZM118.772 438.511V440.072H117.211V438.511H118.772ZM131.287 449.438V450.999H129.726V449.438H131.287ZM131.287 447.877V449.438H129.726V447.877H131.287ZM131.287 446.316V447.877H129.726V446.316H131.287ZM131.287 444.755V446.316H129.726V444.755H131.287ZM131.287 443.194V444.755H129.726V443.194H131.287ZM131.287 441.633V443.194H129.726V441.633H131.287ZM131.287 440.072V441.633H129.726V440.072H131.287ZM131.287 438.511V440.072H129.726V438.511H131.287ZM131.287 436.95V438.511H129.726V436.95H131.287ZM131.287 435.389V436.95H129.726V435.389H131.287ZM131.287 433.828V435.389H129.726V433.828H131.287ZM131.287 432.267V433.828H129.726V432.267H131.287ZM131.287 430.707V432.267H129.726V430.707H131.287ZM131.287 429.146V430.707H129.726V429.146H131.287ZM131.287 427.585V429.146H129.726V427.585H131.287ZM132.848 427.585V429.146H131.287V427.585H132.848ZM132.848 429.146V430.707H131.287V429.146H132.848ZM132.848 430.707V432.267H131.287V430.707H132.848ZM132.848 432.267V433.828H131.287V432.267H132.848ZM132.848 433.828V435.389H131.287V433.828H132.848ZM132.848 435.389V436.95H131.287V435.389H132.848ZM132.848 436.95V438.511H131.287V436.95H132.848ZM134.409 438.511V440.072H132.848V438.511H134.409ZM134.409 440.072V441.633H132.848V440.072H134.409ZM134.409 441.633V443.194H132.848V441.633H134.409ZM134.409 443.194V444.755H132.848V443.194H134.409ZM134.409 444.755V446.316H132.848V444.755H134.409ZM134.409 446.316V447.877H132.848V446.316H134.409ZM134.409 447.877V449.438H132.848V447.877H134.409ZM134.409 449.438V450.999H132.848V449.438H134.409ZM135.97 449.438V450.999H134.409V449.438H135.97ZM137.531 449.438V450.999H135.97V449.438H137.531ZM137.531 447.877V449.438H135.97V447.877H137.531ZM137.531 446.316V447.877H135.97V446.316H137.531ZM137.531 444.755V446.316H135.97V444.755H137.531ZM137.531 443.194V444.755H135.97V443.194H137.531ZM137.531 441.633V443.194H135.97V441.633H137.531ZM137.531 440.072V441.633H135.97V440.072H137.531ZM137.531 438.511V440.072H135.97V438.511H137.531ZM135.97 438.511V440.072H134.409V438.511H135.97ZM135.97 436.95V438.511H134.409V436.95H135.97ZM135.97 440.072V441.633H134.409V440.072H135.97ZM135.97 441.633V443.194H134.409V441.633H135.97ZM135.97 443.194V444.755H134.409V443.194H135.97ZM135.97 444.755V446.316H134.409V444.755H135.97ZM135.97 446.316V447.877H134.409V446.316H135.97ZM135.97 447.877V449.438H134.409V447.877H135.97ZM132.848 449.438V450.999H131.287V449.438H132.848ZM132.848 447.877V449.438H131.287V447.877H132.848ZM132.848 446.316V447.877H131.287V446.316H132.848ZM132.848 444.755V446.316H131.287V444.755H132.848ZM132.848 443.194V444.755H131.287V443.194H132.848ZM132.848 441.633V443.194H131.287V441.633H132.848ZM132.848 440.072V441.633H131.287V440.072H132.848ZM132.848 438.511V440.072H131.287V438.511H132.848ZM131.287 411.975V413.536H129.726V411.975H131.287ZM131.287 413.536V415.097H129.726V413.536H131.287ZM131.287 415.097V416.658H129.726V415.097H131.287ZM131.287 416.658V418.219H129.726V416.658H131.287ZM131.287 418.219V419.78H129.726V418.219H131.287ZM131.287 419.78V421.341H129.726V419.78H131.287ZM131.287 421.341V422.902H129.726V421.341H131.287ZM131.287 422.902V424.463H129.726V422.902H131.287ZM131.287 424.463V426.024H129.726V424.463H131.287ZM131.287 426.024V427.585H129.726V426.024H131.287ZM135.97 411.975V413.536H134.409V411.975H135.97ZM135.97 413.536V415.097H134.409V413.536H135.97ZM135.97 415.097V416.658H134.409V415.097H135.97ZM135.97 416.658V418.219H134.409V416.658H135.97ZM135.97 418.219V419.78H134.409V418.219H135.97ZM135.97 419.78V421.341H134.409V419.78H135.97ZM135.97 422.902V424.463H134.409V422.902H135.97ZM135.97 424.463V426.024H134.409V424.463H135.97ZM135.97 426.024V427.585H134.409V426.024H135.97ZM135.97 427.585V429.146H134.409V427.585H135.97ZM135.97 429.146V430.707H134.409V429.146H135.97ZM135.97 430.707V432.267H134.409V430.707H135.97ZM135.97 432.267V433.828H134.409V432.267H135.97ZM137.531 433.828V435.389H135.97V433.828H137.531ZM137.531 435.389V436.95H135.97V435.389H137.531ZM137.531 436.95V438.511H135.97V436.95H137.531ZM137.531 432.267V433.828H135.97V432.267H137.531ZM137.531 430.707V432.267H135.97V430.707H137.531ZM137.531 429.146V430.707H135.97V429.146H137.531ZM137.531 427.585V429.146H135.97V427.585H137.531ZM137.531 426.024V427.585H135.97V426.024H137.531ZM137.531 424.463V426.024H135.97V424.463H137.531ZM137.531 422.902V424.463H135.97V422.902H137.531ZM137.531 421.341V422.902H135.97V421.341H137.531ZM137.531 419.78V421.341H135.97V419.78H137.531ZM137.531 418.219V419.78H135.97V418.219H137.531ZM135.97 421.341V422.902H134.409V421.341H135.97ZM137.531 416.658V418.219H135.97V416.658H137.531ZM137.531 415.097V416.658H135.97V415.097H137.531ZM137.531 413.536V415.097H135.97V413.536H137.531ZM137.531 411.975V413.536H135.97V411.975H137.531ZM134.409 411.975V413.536H132.848V411.975H134.409ZM132.848 411.975V413.536H131.287V411.975H132.848ZM132.848 413.536V415.097H131.287V413.536H132.848ZM134.409 413.536V415.097H132.848V413.536H134.409ZM134.409 415.097V416.658H132.848V415.097H134.409ZM134.409 416.658V418.219H132.848V416.658H134.409ZM134.409 418.219V419.78H132.848V418.219H134.409ZM134.409 419.78V421.341H132.848V419.78H134.409ZM134.409 421.341V422.902H132.848V421.341H134.409ZM134.409 422.902V424.463H132.848V422.902H134.409ZM132.848 424.463V426.024H131.287V424.463H132.848ZM132.848 426.024V427.585H131.287V426.024H132.848ZM132.848 422.902V424.463H131.287V422.902H132.848ZM132.848 421.341V422.902H131.287V421.341H132.848ZM132.848 419.78V421.341H131.287V419.78H132.848ZM132.848 418.219V419.78H131.287V418.219H132.848ZM132.848 416.658V418.219H131.287V416.658H132.848ZM132.848 415.097V416.658H131.287V415.097H132.848ZM134.409 424.463V426.024H132.848V424.463H134.409ZM134.409 426.024V427.585H132.848V426.024H134.409ZM134.409 427.585V429.146H132.848V427.585H134.409ZM134.409 429.146V430.707H132.848V429.146H134.409ZM134.409 430.707V432.267H132.848V430.707H134.409ZM134.409 432.267V433.828H132.848V432.267H134.409ZM134.409 433.828V435.389H132.848V433.828H134.409ZM134.409 435.389V436.95H132.848V435.389H134.409ZM134.409 436.95V438.511H132.848V436.95H134.409ZM135.97 435.389V436.95H134.409V435.389H135.97ZM135.97 433.828V435.389H134.409V433.828H135.97ZM145.336 422.902V424.463H143.775V422.902H145.336ZM145.336 421.341V422.902H143.775V421.341H145.336ZM146.897 421.341V422.902H145.336V421.341H146.897ZM148.458 421.341V422.902H146.897V421.341H148.458ZM150.019 421.341V422.902H148.458V421.341H150.019ZM151.579 421.341V422.902H150.019V421.341H151.579ZM151.579 422.902V424.463H150.019V422.902H151.579ZM151.579 424.463V426.024H150.019V424.463H151.579ZM151.579 426.024V427.585H150.019V426.024H151.579ZM151.579 427.585V429.146H150.019V427.585H151.579ZM150.019 427.585V429.146H148.458V427.585H150.019ZM150.019 429.146V430.707H148.458V429.146H150.019ZM148.458 429.146V430.707H146.897V429.146H148.458ZM148.458 430.707V432.267H146.897V430.707H148.458ZM146.897 430.707V432.267H145.336V430.707H146.897ZM146.897 432.267V433.828H145.336V432.267H146.897ZM145.336 432.267V433.828H143.775V432.267H145.336ZM145.336 433.828V435.389H143.775V433.828H145.336ZM145.336 435.389V436.95H143.775V435.389H145.336ZM146.897 435.389V436.95H145.336V435.389H146.897ZM146.897 436.95V438.511H145.336V436.95H146.897ZM148.458 436.95V438.511H146.897V436.95H148.458ZM148.458 438.511V440.072H146.897V438.511H148.458ZM150.019 438.511V440.072H148.458V438.511H150.019ZM150.019 440.072V441.633H148.458V440.072H150.019ZM151.579 440.072V441.633H150.019V440.072H151.579ZM151.579 441.633V443.194H150.019V441.633H151.579ZM151.579 443.194V444.755H150.019V443.194H151.579ZM151.579 444.755V446.316H150.019V444.755H151.579ZM151.579 446.316V447.877H150.019V446.316H151.579ZM151.579 447.877V449.438H150.019V447.877H151.579ZM151.579 449.438V450.999H150.019V449.438H151.579ZM145.336 424.463V426.024H143.775V424.463H145.336ZM145.336 426.024V427.585H143.775V426.024H145.336ZM145.336 427.585V429.146H143.775V427.585H145.336ZM143.775 427.585V429.146H142.214V427.585H143.775ZM145.336 429.146V430.707H143.775V429.146H145.336ZM143.775 429.146V430.707H142.214V429.146H143.775ZM143.775 430.707V432.267H142.214V430.707H143.775ZM142.214 429.146V430.707H140.653V429.146H142.214ZM142.214 430.707V432.267H140.653V430.707H142.214ZM143.775 432.267V433.828H142.214V432.267H143.775ZM145.336 430.707V432.267H143.775V430.707H145.336ZM146.897 429.146V430.707H145.336V429.146H146.897ZM148.458 427.585V429.146H146.897V427.585H148.458ZM150.019 426.024V427.585H148.458V426.024H150.019ZM150.019 424.463V426.024H148.458V424.463H150.019ZM150.019 422.902V424.463H148.458V422.902H150.019ZM148.458 422.902V424.463H146.897V422.902H148.458ZM146.897 424.463V426.024H145.336V424.463H146.897ZM146.897 426.024V427.585H145.336V426.024H146.897ZM146.897 427.585V429.146H145.336V427.585H146.897ZM148.458 426.024V427.585H146.897V426.024H148.458ZM148.458 424.463V426.024H146.897V424.463H148.458ZM146.897 422.902V424.463H145.336V422.902H146.897ZM140.653 430.707V432.267H139.092V430.707H140.653ZM139.092 430.707V432.267H137.531V430.707H139.092ZM139.092 432.267V433.828H137.531V432.267H139.092ZM139.092 433.828V435.389H137.531V433.828H139.092ZM139.092 435.389V436.95H137.531V435.389H139.092ZM140.653 435.389V436.95H139.092V435.389H140.653ZM140.653 436.95V438.511H139.092V436.95H140.653ZM139.092 436.95V438.511H137.531V436.95H139.092ZM142.214 436.95V438.511H140.653V436.95H142.214ZM142.214 438.511V440.072H140.653V438.511H142.214ZM143.775 438.511V440.072H142.214V438.511H143.775ZM143.775 440.072V441.633H142.214V440.072H143.775ZM145.336 440.072V441.633H143.775V440.072H145.336ZM145.336 441.633V443.194H143.775V441.633H145.336ZM146.897 443.194V444.755H145.336V443.194H146.897ZM146.897 444.755V446.316H145.336V444.755H146.897ZM146.897 446.316V447.877H145.336V446.316H146.897ZM145.336 446.316V447.877H143.775V446.316H145.336ZM145.336 444.755V446.316H143.775V444.755H145.336ZM145.336 443.194V444.755H143.775V443.194H145.336ZM145.336 447.877V449.438H143.775V447.877H145.336ZM145.336 449.438V450.999H143.775V449.438H145.336ZM146.897 449.438V450.999H145.336V449.438H146.897ZM148.458 449.438V450.999H146.897V449.438H148.458ZM150.019 449.438V450.999H148.458V449.438H150.019ZM150.019 447.877V449.438H148.458V447.877H150.019ZM148.458 447.877V449.438H146.897V447.877H148.458ZM146.897 447.877V449.438H145.336V447.877H146.897ZM148.458 446.316V447.877H146.897V446.316H148.458ZM150.019 446.316V447.877H148.458V446.316H150.019ZM150.019 444.755V446.316H148.458V444.755H150.019ZM150.019 443.194V444.755H148.458V443.194H150.019ZM150.019 441.633V443.194H148.458V441.633H150.019ZM148.458 441.633V443.194H146.897V441.633H148.458ZM148.458 443.194V444.755H146.897V443.194H148.458ZM148.458 444.755V446.316H146.897V444.755H148.458ZM148.458 440.072V441.633H146.897V440.072H148.458ZM146.897 440.072V441.633H145.336V440.072H146.897ZM146.897 438.511V440.072H145.336V438.511H146.897ZM145.336 438.511V440.072H143.775V438.511H145.336ZM145.336 436.95V438.511H143.775V436.95H145.336ZM143.775 436.95V438.511H142.214V436.95H143.775ZM143.775 435.389V436.95H142.214V435.389H143.775ZM143.775 433.828V435.389H142.214V433.828H143.775ZM142.214 433.828V435.389H140.653V433.828H142.214ZM142.214 432.267V433.828H140.653V432.267H142.214ZM140.653 432.267V433.828H139.092V432.267H140.653ZM140.653 433.828V435.389H139.092V433.828H140.653ZM142.214 435.389V436.95H140.653V435.389H142.214ZM146.897 441.633V443.194H145.336V441.633H146.897ZM162.534 441.633V440.072H164.095V441.633H162.534ZM160.973 441.633V440.072H162.534V441.633H160.973ZM159.412 441.633V440.072H160.973V441.633H159.412ZM157.851 441.633V440.072H159.412V441.633H157.851ZM156.29 441.633V440.072H157.851V441.633H156.29ZM156.29 443.194V441.633H157.851V443.194H156.29ZM156.29 444.755V443.194H157.851V444.755H156.29ZM157.851 444.755V443.194H159.412V444.755H157.851ZM159.412 444.755V443.194H160.973V444.755H159.412ZM160.973 444.755V443.194H162.534V444.755H160.973ZM160.973 443.194V441.633H162.534V443.194H160.973ZM162.534 443.194V441.633H164.095V443.194H162.534ZM159.412 443.194V441.633H160.973V443.194H159.412ZM157.851 443.194V441.633H159.412V443.194H157.851ZM162.534 444.755V443.194H164.095V444.755H162.534ZM164.095 444.755V443.194H165.656V444.755H164.095ZM164.095 446.316V444.755H165.656V446.316H164.095ZM162.534 446.316V444.755H164.095V446.316H162.534ZM160.973 446.316V444.755H162.534V446.316H160.973ZM159.412 446.316V444.755H160.973V446.316H159.412ZM157.851 446.316V444.755H159.412V446.316H157.851ZM157.851 447.877V446.316H159.412V447.877H157.851ZM159.412 447.877V446.316H160.973V447.877H159.412ZM160.973 447.877V446.316H162.534V447.877H160.973ZM162.534 447.877V446.316H164.095V447.877H162.534ZM164.095 447.877V446.316H165.656V447.877H164.095ZM160.973 449.438V447.877H162.534V449.438H160.973ZM159.412 449.438V447.877H160.973V449.438H159.412ZM162.534 449.438V447.877H164.095V449.438H162.534ZM162.534 450.999V449.438H164.095V450.999H162.534ZM164.095 450.999V449.438H165.656V450.999H164.095ZM164.095 449.438V447.877H165.656V449.438H164.095ZM165.656 449.438V447.877H167.217V449.438H165.656ZM165.656 450.999V449.438H167.217V450.999H165.656ZM165.656 447.877V446.316H167.217V447.877H165.656ZM167.217 447.877V446.316H168.778V447.877H167.217ZM167.217 446.316V444.755H168.778V446.316H167.217ZM165.656 446.316V444.755H167.217V446.316H165.656ZM168.778 446.316V444.755H170.339V446.316H168.778ZM168.778 447.877V446.316H170.339V447.877H168.778ZM168.778 449.438V447.877H170.339V449.438H168.778ZM168.778 450.999V449.438H170.339V450.999H168.778ZM167.217 450.999V449.438H168.778V450.999H167.217ZM167.217 449.438V447.877H168.778V449.438H167.217ZM170.339 450.999V449.438H171.9V450.999H170.339ZM173.461 449.438V447.877H175.022V449.438H173.461ZM173.461 447.877V446.316H175.022V447.877H173.461ZM173.461 446.316V444.755H175.022V446.316H173.461ZM171.9 446.316V444.755H173.461V446.316H171.9ZM170.339 446.316V444.755H171.9V446.316H170.339ZM170.339 447.877V446.316H171.9V447.877H170.339ZM170.339 449.438V447.877H171.9V449.438H170.339ZM171.9 449.438V447.877H173.461V449.438H171.9ZM171.9 447.877V446.316H173.461V447.877H171.9ZM175.022 447.877V446.316H176.583V447.877H175.022ZM175.022 449.438V447.877H176.583V449.438H175.022ZM176.583 449.438V447.877H178.144V449.438H176.583ZM176.583 447.877V446.316H178.144V447.877H176.583ZM178.144 447.877V446.316H179.704V447.877H178.144ZM178.144 446.316V444.755H179.704V446.316H178.144ZM178.144 444.755V443.194H179.704V444.755H178.144ZM176.583 444.755V443.194H178.144V444.755H176.583ZM176.583 446.316V444.755H178.144V446.316H176.583ZM175.022 446.316V444.755H176.583V446.316H175.022ZM175.022 444.755V443.194H176.583V444.755H175.022ZM173.461 444.755V443.194H175.022V444.755H173.461ZM179.704 444.755V443.194H181.265V444.755H179.704ZM179.704 443.194V441.633H181.265V443.194H179.704ZM179.704 441.633V440.072H181.265V441.633H179.704ZM179.704 440.072V438.511H181.265V440.072H179.704ZM179.704 438.511V436.95H181.265V438.511H179.704ZM179.704 436.95V435.389H181.265V436.95H179.704ZM179.704 435.389V433.828H181.265V435.389H179.704ZM179.704 433.828V432.267H181.265V433.828H179.704ZM179.704 432.267V430.707H181.265V432.267H179.704ZM179.704 430.707V429.146H181.265V430.707H179.704ZM178.144 430.707V429.146H179.704V430.707H178.144ZM178.144 429.146V427.585H179.704V429.146H178.144ZM179.704 429.146V427.585H181.265V429.146H179.704ZM176.583 429.146V427.585H178.144V429.146H176.583ZM175.022 429.146V427.585H176.583V429.146H175.022ZM173.461 429.146V427.585H175.022V429.146H173.461ZM171.9 429.146V427.585H173.461V429.146H171.9ZM173.461 430.707V429.146H175.022V430.707H173.461ZM173.461 432.267V430.707H175.022V432.267H173.461ZM173.461 433.828V432.267H175.022V433.828H173.461ZM173.461 435.389V433.828H175.022V435.389H173.461ZM173.461 436.95V435.389H175.022V436.95H173.461ZM173.461 438.511V436.95H175.022V438.511H173.461ZM173.461 440.072V438.511H175.022V440.072H173.461ZM173.461 441.633V440.072H175.022V441.633H173.461ZM173.461 443.194V441.633H175.022V443.194H173.461ZM175.022 443.194V441.633H176.583V443.194H175.022ZM176.583 443.194V441.633H178.144V443.194H176.583ZM178.144 443.194V441.633H179.704V443.194H178.144ZM178.144 441.633V440.072H179.704V441.633H178.144ZM178.144 440.072V438.511H179.704V440.072H178.144ZM178.144 438.511V436.95H179.704V438.511H178.144ZM178.144 436.95V435.389H179.704V436.95H178.144ZM178.144 435.389V433.828H179.704V435.389H178.144ZM178.144 433.828V432.267H179.704V433.828H178.144ZM178.144 432.267V430.707H179.704V432.267H178.144ZM176.583 430.707V429.146H178.144V430.707H176.583ZM175.022 430.707V429.146H176.583V430.707H175.022ZM175.022 432.267V430.707H176.583V432.267H175.022ZM175.022 433.828V432.267H176.583V433.828H175.022ZM175.022 435.389V433.828H176.583V435.389H175.022ZM175.022 436.95V435.389H176.583V436.95H175.022ZM176.583 436.95V435.389H178.144V436.95H176.583ZM176.583 438.511V436.95H178.144V438.511H176.583ZM176.583 440.072V438.511H178.144V440.072H176.583ZM176.583 441.633V440.072H178.144V441.633H176.583ZM175.022 441.633V440.072H176.583V441.633H175.022ZM175.022 440.072V438.511H176.583V440.072H175.022ZM175.022 438.511V436.95H176.583V438.511H175.022ZM176.583 433.828V432.267H178.144V433.828H176.583ZM176.583 432.267V430.707H178.144V432.267H176.583ZM176.583 435.389V433.828H178.144V435.389H176.583ZM162.534 430.707V429.146H164.095V430.707H162.534ZM160.973 430.707V429.146H162.534V430.707H160.973ZM159.412 430.707V429.146H160.973V430.707H159.412ZM157.851 430.707V429.146H159.412V430.707H157.851ZM156.29 430.707V429.146H157.851V430.707H156.29ZM156.29 429.146V427.585H157.851V429.146H156.29ZM157.851 429.146V427.585H159.412V429.146H157.851ZM159.412 429.146V427.585H160.973V429.146H159.412ZM160.973 429.146V427.585H162.534V429.146H160.973ZM162.534 429.146V427.585H164.095V429.146H162.534ZM164.095 429.146V427.585H165.656V429.146H164.095ZM164.095 427.585V426.024H165.656V427.585H164.095ZM162.534 427.585V426.024H164.095V427.585H162.534ZM160.973 427.585V426.024H162.534V427.585H160.973ZM159.412 427.585V426.024H160.973V427.585H159.412ZM159.412 426.024V424.463H160.973V426.024H159.412ZM157.851 426.024V424.463H159.412V426.024H157.851ZM157.851 427.585V426.024H159.412V427.585H157.851ZM159.412 424.463V422.902H160.973V424.463H159.412ZM160.973 424.463V422.902H162.534V424.463H160.973ZM160.973 426.024V424.463H162.534V426.024H160.973ZM162.534 426.024V424.463H164.095V426.024H162.534ZM162.534 424.463V422.902H164.095V424.463H162.534ZM162.534 422.902V421.341H164.095V422.902H162.534ZM164.095 422.902V421.341H165.656V422.902H164.095ZM165.656 422.902V421.341H167.217V422.902H165.656ZM167.217 422.902V421.341H168.778V422.902H167.217ZM168.778 422.902V421.341H170.339V422.902H168.778ZM170.339 422.902V421.341H171.9V422.902H170.339ZM171.9 422.902V421.341H173.461V422.902H171.9ZM173.461 422.902V421.341H175.022V422.902H173.461ZM171.9 424.463V422.902H173.461V424.463H171.9ZM170.339 424.463V422.902H171.9V424.463H170.339ZM168.778 424.463V422.902H170.339V424.463H168.778ZM167.217 424.463V422.902H168.778V424.463H167.217ZM165.656 424.463V422.902H167.217V424.463H165.656ZM164.095 424.463V422.902H165.656V424.463H164.095ZM164.095 426.024V424.463H165.656V426.024H164.095ZM165.656 426.024V424.463H167.217V426.024H165.656ZM167.217 426.024V424.463H168.778V426.024H167.217ZM168.778 426.024V424.463H170.339V426.024H168.778ZM170.339 426.024V424.463H171.9V426.024H170.339ZM171.9 426.024V424.463H173.461V426.024H171.9ZM173.461 424.463V422.902H175.022V424.463H173.461ZM175.022 424.463V422.902H176.583V424.463H175.022ZM176.583 424.463V422.902H178.144V424.463H176.583ZM176.583 426.024V424.463H178.144V426.024H176.583ZM178.144 426.024V424.463H179.704V426.024H178.144ZM178.144 427.585V426.024H179.704V427.585H178.144ZM176.583 427.585V426.024H178.144V427.585H176.583ZM175.022 427.585V426.024H176.583V427.585H175.022ZM173.461 427.585V426.024H175.022V427.585H173.461ZM171.9 427.585V426.024H173.461V427.585H171.9ZM170.339 427.585V426.024H171.9V427.585H170.339ZM168.778 427.585V426.024H170.339V427.585H168.778ZM167.217 427.585V426.024H168.778V427.585H167.217ZM165.656 427.585V426.024H167.217V427.585H165.656ZM173.461 426.024V424.463H175.022V426.024H173.461ZM175.022 426.024V424.463H176.583V426.024H175.022ZM157.851 440.072V438.511H159.412V440.072H157.851ZM159.412 440.072V438.511H160.973V440.072H159.412ZM160.973 440.072V438.511H162.534V440.072H160.973ZM162.534 440.072V438.511H164.095V440.072H162.534ZM159.412 438.511V436.95H160.973V438.511H159.412ZM160.973 438.511V436.95H162.534V438.511H160.973ZM164.095 438.511V436.95H165.656V438.511H164.095ZM165.656 438.511V436.95H167.217V438.511H165.656ZM167.217 438.511V436.95H168.778V438.511H167.217ZM168.778 438.511V436.95H170.339V438.511H168.778ZM170.339 438.511V436.95H171.9V438.511H170.339ZM171.9 438.511V436.95H173.461V438.511H171.9ZM162.534 438.511V436.95H164.095V438.511H162.534ZM157.851 438.511V436.95H159.412V438.511H157.851ZM159.412 436.95V435.389H160.973V436.95H159.412ZM160.973 436.95V435.389H162.534V436.95H160.973ZM162.534 436.95V435.389H164.095V436.95H162.534ZM164.095 436.95V435.389H165.656V436.95H164.095ZM165.656 436.95V435.389H167.217V436.95H165.656ZM167.217 436.95V435.389H168.778V436.95H167.217ZM168.778 436.95V435.389H170.339V436.95H168.778ZM170.339 436.95V435.389H171.9V436.95H170.339ZM171.9 436.95V435.389H173.461V436.95H171.9ZM171.9 435.389V433.828H173.461V435.389H171.9ZM170.339 435.389V433.828H171.9V435.389H170.339ZM168.778 435.389V433.828H170.339V435.389H168.778ZM165.656 435.389V433.828H167.217V435.389H165.656ZM164.095 435.389V433.828H165.656V435.389H164.095ZM162.534 435.389V433.828H164.095V435.389H162.534ZM167.217 435.389V433.828H168.778V435.389H167.217ZM181.265 444.755V446.316H179.704V444.755H181.265ZM181.265 446.316V447.877H179.704V446.316H181.265ZM181.265 447.877V449.438H179.704V447.877H181.265ZM181.265 449.438V450.999H179.704V449.438H181.265ZM179.704 449.438V450.999H178.144V449.438H179.704ZM179.704 447.877V449.438H178.144V447.877H179.704ZM178.144 449.438V450.999H176.583V449.438H178.144ZM176.583 449.438V450.999H175.022V449.438H176.583ZM175.022 449.438V450.999H173.461V449.438H175.022ZM173.461 443.194V444.755H171.9V443.194H173.461ZM162.534 449.438V450.999H160.973V449.438H162.534ZM165.656 438.511V440.072H164.095V438.511H165.656ZM189.099 449.438V450.999H187.538V449.438H189.099ZM189.099 447.877V449.438H187.538V447.877H189.099ZM189.099 446.316V447.877H187.538V446.316H189.099ZM189.099 444.755V446.316H187.538V444.755H189.099ZM189.099 443.194V444.755H187.538V443.194H189.099ZM189.099 441.633V443.194H187.538V441.633H189.099ZM189.099 440.072V441.633H187.538V440.072H189.099ZM189.099 438.511V440.072H187.538V438.511H189.099ZM189.099 436.95V438.511H187.538V436.95H189.099ZM189.099 435.389V436.95H187.538V435.389H189.099ZM189.099 433.828V435.389H187.538V433.828H189.099ZM189.099 432.267V433.828H187.538V432.267H189.099ZM189.099 430.707V432.267H187.538V430.707H189.099ZM189.099 429.146V430.707H187.538V429.146H189.099ZM189.099 427.585V429.146H187.538V427.585H189.099ZM190.66 427.585V429.146H189.099V427.585H190.66ZM190.66 429.146V430.707H189.099V429.146H190.66ZM190.66 430.707V432.267H189.099V430.707H190.66ZM190.66 432.267V433.828H189.099V432.267H190.66ZM190.66 433.828V435.389H189.099V433.828H190.66ZM190.66 435.389V436.95H189.099V435.389H190.66ZM190.66 436.95V438.511H189.099V436.95H190.66ZM192.221 438.511V440.072H190.66V438.511H192.221ZM192.221 440.072V441.633H190.66V440.072H192.221ZM192.221 441.633V443.194H190.66V441.633H192.221ZM192.221 443.194V444.755H190.66V443.194H192.221ZM192.221 444.755V446.316H190.66V444.755H192.221ZM192.221 446.316V447.877H190.66V446.316H192.221ZM192.221 447.877V449.438H190.66V447.877H192.221ZM192.221 449.438V450.999H190.66V449.438H192.221ZM193.782 449.438V450.999H192.221V449.438H193.782ZM195.343 449.438V450.999H193.782V449.438H195.343ZM195.343 447.877V449.438H193.782V447.877H195.343ZM195.343 446.316V447.877H193.782V446.316H195.343ZM195.343 444.755V446.316H193.782V444.755H195.343ZM195.343 443.194V444.755H193.782V443.194H195.343ZM195.343 441.633V443.194H193.782V441.633H195.343ZM195.343 440.072V441.633H193.782V440.072H195.343ZM195.343 438.511V440.072H193.782V438.511H195.343ZM193.782 438.511V440.072H192.221V438.511H193.782ZM193.782 436.95V438.511H192.221V436.95H193.782ZM193.782 440.072V441.633H192.221V440.072H193.782ZM193.782 441.633V443.194H192.221V441.633H193.782ZM193.782 443.194V444.755H192.221V443.194H193.782ZM193.782 444.755V446.316H192.221V444.755H193.782ZM193.782 446.316V447.877H192.221V446.316H193.782ZM193.782 447.877V449.438H192.221V447.877H193.782ZM190.66 449.438V450.999H189.099V449.438H190.66ZM190.66 447.877V449.438H189.099V447.877H190.66ZM190.66 446.316V447.877H189.099V446.316H190.66ZM190.66 444.755V446.316H189.099V444.755H190.66ZM190.66 443.194V444.755H189.099V443.194H190.66ZM190.66 441.633V443.194H189.099V441.633H190.66ZM190.66 440.072V441.633H189.099V440.072H190.66ZM190.66 438.511V440.072H189.099V438.511H190.66ZM189.099 411.975V413.536H187.538V411.975H189.099ZM189.099 413.536V415.097H187.538V413.536H189.099ZM189.099 415.097V416.658H187.538V415.097H189.099ZM189.099 416.658V418.219H187.538V416.658H189.099ZM189.099 418.219V419.78H187.538V418.219H189.099ZM189.099 419.78V421.341H187.538V419.78H189.099ZM189.099 421.341V422.902H187.538V421.341H189.099ZM189.099 422.902V424.463H187.538V422.902H189.099ZM189.099 424.463V426.024H187.538V424.463H189.099ZM189.099 426.024V427.585H187.538V426.024H189.099ZM193.782 411.975V413.536H192.221V411.975H193.782ZM193.782 413.536V415.097H192.221V413.536H193.782ZM193.782 415.097V416.658H192.221V415.097H193.782ZM193.782 416.658V418.219H192.221V416.658H193.782ZM193.782 418.219V419.78H192.221V418.219H193.782ZM193.782 419.78V421.341H192.221V419.78H193.782ZM193.782 422.902V424.463H192.221V422.902H193.782ZM193.782 424.463V426.024H192.221V424.463H193.782ZM193.782 426.024V427.585H192.221V426.024H193.782ZM193.782 427.585V429.146H192.221V427.585H193.782ZM193.782 429.146V430.707H192.221V429.146H193.782ZM193.782 430.707V432.267H192.221V430.707H193.782ZM193.782 432.267V433.828H192.221V432.267H193.782ZM195.343 433.828V435.389H193.782V433.828H195.343ZM195.343 435.389V436.95H193.782V435.389H195.343ZM195.343 436.95V438.511H193.782V436.95H195.343ZM195.343 432.267V433.828H193.782V432.267H195.343ZM195.343 430.707V432.267H193.782V430.707H195.343ZM195.343 429.146V430.707H193.782V429.146H195.343ZM195.343 427.585V429.146H193.782V427.585H195.343ZM195.343 426.024V427.585H193.782V426.024H195.343ZM195.343 424.463V426.024H193.782V424.463H195.343ZM195.343 422.902V424.463H193.782V422.902H195.343ZM195.343 421.341V422.902H193.782V421.341H195.343ZM195.343 419.78V421.341H193.782V419.78H195.343ZM195.343 418.219V419.78H193.782V418.219H195.343ZM193.782 421.341V422.902H192.221V421.341H193.782ZM195.343 416.658V418.219H193.782V416.658H195.343ZM195.343 415.097V416.658H193.782V415.097H195.343ZM195.343 413.536V415.097H193.782V413.536H195.343ZM195.343 411.975V413.536H193.782V411.975H195.343ZM192.221 411.975V413.536H190.66V411.975H192.221ZM190.66 411.975V413.536H189.099V411.975H190.66ZM190.66 413.536V415.097H189.099V413.536H190.66ZM192.221 413.536V415.097H190.66V413.536H192.221ZM192.221 415.097V416.658H190.66V415.097H192.221ZM192.221 416.658V418.219H190.66V416.658H192.221ZM192.221 418.219V419.78H190.66V418.219H192.221ZM192.221 419.78V421.341H190.66V419.78H192.221ZM192.221 421.341V422.902H190.66V421.341H192.221ZM192.221 422.902V424.463H190.66V422.902H192.221ZM190.66 424.463V426.024H189.099V424.463H190.66ZM190.66 426.024V427.585H189.099V426.024H190.66ZM190.66 422.902V424.463H189.099V422.902H190.66ZM190.66 421.341V422.902H189.099V421.341H190.66ZM190.66 419.78V421.341H189.099V419.78H190.66ZM190.66 418.219V419.78H189.099V418.219H190.66ZM190.66 416.658V418.219H189.099V416.658H190.66ZM190.66 415.097V416.658H189.099V415.097H190.66ZM192.221 424.463V426.024H190.66V424.463H192.221ZM192.221 426.024V427.585H190.66V426.024H192.221ZM192.221 427.585V429.146H190.66V427.585H192.221ZM192.221 429.146V430.707H190.66V429.146H192.221ZM192.221 430.707V432.267H190.66V430.707H192.221ZM192.221 432.267V433.828H190.66V432.267H192.221ZM192.221 433.828V435.389H190.66V433.828H192.221ZM192.221 435.389V436.95H190.66V435.389H192.221ZM192.221 436.95V438.511H190.66V436.95H192.221ZM193.782 435.389V436.95H192.221V435.389H193.782ZM193.782 433.828V435.389H192.221V433.828H193.782ZM206.27 449.438V450.999H204.709V449.438H206.27ZM207.831 449.438V450.999H206.27V449.438H207.831ZM209.392 449.438V450.999H207.831V449.438H209.392ZM210.953 449.438V450.999H209.392V449.438H210.953ZM212.514 447.877V449.438H210.953V447.877H212.514ZM212.514 446.316V447.877H210.953V446.316H212.514ZM212.514 449.438V450.999H210.953V449.438H212.514ZM210.953 447.877V449.438H209.392V447.877H210.953ZM209.392 447.877V449.438H207.831V447.877H209.392ZM207.831 447.877V449.438H206.27V447.877H207.831ZM206.27 447.877V449.438H204.709V447.877H206.27ZM206.27 446.316V447.877H204.709V446.316H206.27ZM206.27 444.755V446.316H204.709V444.755H206.27ZM207.831 444.755V446.316H206.27V444.755H207.831ZM209.392 444.755V446.316H207.831V444.755H209.392ZM210.953 444.755V446.316H209.392V444.755H210.953ZM212.514 444.755V446.316H210.953V444.755H212.514ZM210.953 446.316V447.877H209.392V446.316H210.953ZM209.392 446.316V447.877H207.831V446.316H209.392ZM207.831 446.316V447.877H206.27V446.316H207.831ZM212.514 427.585V429.146H210.953V427.585H212.514ZM210.953 427.585V429.146H209.392V427.585H210.953ZM207.831 427.585V429.146H206.27V427.585H207.831ZM207.831 429.146V430.707H206.27V429.146H207.831ZM207.831 430.707V432.267H206.27V430.707H207.831ZM206.27 432.267V433.828H204.709V432.267H206.27ZM206.27 433.828V435.389H204.709V433.828H206.27ZM206.27 435.389V436.95H204.709V435.389H206.27ZM206.27 436.95V438.511H204.709V436.95H206.27ZM206.27 438.511V440.072H204.709V438.511H206.27ZM206.27 440.072V441.633H204.709V440.072H206.27ZM206.27 441.633V443.194H204.709V441.633H206.27ZM206.27 443.194V444.755H204.709V443.194H206.27ZM207.831 443.194V444.755H206.27V443.194H207.831ZM209.392 443.194V444.755H207.831V443.194H209.392ZM210.953 443.194V444.755H209.392V443.194H210.953ZM212.514 443.194V444.755H210.953V443.194H212.514ZM212.514 441.633V443.194H210.953V441.633H212.514ZM212.514 438.511V440.072H210.953V438.511H212.514ZM212.514 436.95V438.511H210.953V436.95H212.514ZM212.514 435.389V436.95H210.953V435.389H212.514ZM212.514 433.828V435.389H210.953V433.828H212.514ZM212.514 432.267V433.828H210.953V432.267H212.514ZM212.514 430.707V432.267H210.953V430.707H212.514ZM212.514 429.146V430.707H210.953V429.146H212.514ZM210.953 435.389V436.95H209.392V435.389H210.953ZM210.953 438.511V440.072H209.392V438.511H210.953ZM210.953 440.072V441.633H209.392V440.072H210.953ZM210.953 441.633V443.194H209.392V441.633H210.953ZM212.514 440.072V441.633H210.953V440.072H212.514ZM210.953 432.267V433.828H209.392V432.267H210.953ZM209.392 432.267V433.828H207.831V432.267H209.392ZM207.831 432.267V433.828H206.27V432.267H207.831ZM207.831 433.828V435.389H206.27V433.828H207.831ZM207.831 435.389V436.95H206.27V435.389H207.831ZM207.831 436.95V438.511H206.27V436.95H207.831ZM207.831 438.511V440.072H206.27V438.511H207.831ZM207.831 440.072V441.633H206.27V440.072H207.831ZM207.831 441.633V443.194H206.27V441.633H207.831ZM209.392 441.633V443.194H207.831V441.633H209.392ZM209.392 440.072V441.633H207.831V440.072H209.392ZM209.392 438.511V440.072H207.831V438.511H209.392ZM209.392 436.95V438.511H207.831V436.95H209.392ZM209.392 435.389V436.95H207.831V435.389H209.392ZM209.392 433.828V435.389H207.831V433.828H209.392ZM210.953 433.828V435.389H209.392V433.828H210.953ZM210.953 436.95V438.511H209.392V436.95H210.953ZM210.953 430.707V432.267H209.392V430.707H210.953ZM210.953 429.146V430.707H209.392V429.146H210.953ZM209.392 429.146V430.707H207.831V429.146H209.392ZM209.392 430.707V432.267H207.831V430.707H209.392ZM206.27 430.707V432.267H204.709V430.707H206.27ZM206.27 429.146V430.707H204.709V429.146H206.27ZM206.27 427.585V429.146H204.709V427.585H206.27ZM209.392 427.585V429.146H207.831V427.585H209.392ZM206.27 421.341V422.902H204.709V421.341H206.27ZM206.27 422.902V424.463H204.709V422.902H206.27ZM207.831 422.902V424.463H206.27V422.902H207.831ZM209.392 422.902V424.463H207.831V422.902H209.392ZM209.392 424.463V426.024H207.831V424.463H209.392ZM210.953 424.463V426.024H209.392V424.463H210.953ZM210.953 426.024V427.585H209.392V426.024H210.953ZM209.392 426.024V427.585H207.831V426.024H209.392ZM207.831 426.024V427.585H206.27V426.024H207.831ZM207.831 424.463V426.024H206.27V424.463H207.831ZM206.27 424.463V426.024H204.709V424.463H206.27ZM204.709 424.463V426.024H203.148V424.463H204.709ZM204.709 426.024V427.585H203.148V426.024H204.709ZM206.27 426.024V427.585H204.709V426.024H206.27ZM204.709 427.585V429.146H203.148V427.585H204.709ZM203.148 426.024V427.585H201.587V426.024H203.148ZM203.148 424.463V426.024H201.587V424.463H203.148ZM203.148 422.902V424.463H201.587V422.902H203.148ZM203.148 421.341V422.902H201.587V421.341H203.148ZM204.709 421.341V422.902H203.148V421.341H204.709ZM204.709 422.902V424.463H203.148V422.902H204.709ZM201.587 421.341V422.902H200.026V421.341H201.587ZM201.587 422.902V424.463H200.026V422.902H201.587ZM201.587 424.463V426.024H200.026V424.463H201.587ZM201.587 426.024V427.585H200.026V426.024H201.587ZM200.026 421.341V422.902H198.465V421.341H200.026ZM200.026 422.902V424.463H198.465V422.902H200.026ZM198.465 422.902V424.463H196.904V422.902H198.465ZM198.465 424.463V426.024H196.904V424.463H198.465ZM196.904 424.463V426.024H195.343V424.463H196.904ZM196.904 426.024V427.585H195.343V426.024H196.904ZM198.465 426.024V427.585H196.904V426.024H198.465ZM200.026 426.024V427.585H198.465V426.024H200.026ZM200.026 424.463V426.024H198.465V424.463H200.026ZM196.904 427.585V429.146H195.343V427.585H196.904ZM198.465 421.341V422.902H196.904V421.341H198.465ZM196.904 422.902V424.463H195.343V422.902H196.904Z" fill="#5D5D5D"/>
</svg>
