<svg width="418" height="339" viewBox="0 0 418 339" fill="none" xmlns="http://www.w3.org/2000/svg">
<path d="M170.538 9C81.3077 9 9 93.9333 9 199.667V217C9 246.467 29 269 55.1538 269M55.1538 269C81.3077 269 101.308 246.467 101.308 217V199.667C101.308 93.9333 170.538 9 255.154 9C339.769 9 409 93.9333 409 199.667V229.133C409 251.667 393.615 269 373.615 269H55.1538Z" stroke="#5D5D5D" stroke-width="18" stroke-miterlimit="10" stroke-linecap="round" stroke-linejoin="round"/>
<path d="M270.539 78.3333V113" stroke="#5D5D5D" stroke-width="18" stroke-miterlimit="10" stroke-linecap="round" stroke-linejoin="round"/>
<path d="M347.461 182.333V217" stroke="#5D5D5D" stroke-width="18" stroke-miterlimit="10" stroke-linecap="round" stroke-linejoin="round"/>
<path d="M193.615 147.667V182.333" stroke="#5D5D5D" stroke-width="18" stroke-miterlimit="10" stroke-linecap="round" stroke-linejoin="round"/>
<path d="M146.683 331.195V332.756H145.122V331.195H146.683ZM146.683 329.634V331.195H145.122V329.634H146.683ZM146.683 328.073V329.634H145.122V328.073H146.683ZM146.683 326.512V328.073H145.122V326.512H146.683ZM146.683 315.585V317.146H145.122V315.585H146.683ZM148.244 315.585V317.146H146.683V315.585H148.244ZM148.244 317.146V318.707H146.683V317.146H148.244ZM148.244 318.707V320.268H146.683V318.707H148.244ZM149.805 326.512V328.073H148.244V326.512H149.805ZM149.805 328.073V329.634H148.244V328.073H149.805ZM149.805 329.634V331.195H148.244V329.634H149.805ZM149.805 331.195V332.756H148.244V331.195H149.805ZM149.805 332.756V334.317H148.244V332.756H149.805ZM149.805 334.317V335.878H148.244V334.317H149.805ZM149.805 335.878V337.439H148.244V335.878H149.805ZM152.927 337.439V339H151.366V337.439H152.927ZM152.927 335.878V337.439H151.366V335.878H152.927ZM152.927 334.317V335.878H151.366V334.317H152.927ZM152.927 332.756V334.317H151.366V332.756H152.927ZM152.927 331.195V332.756H151.366V331.195H152.927ZM152.927 329.634V331.195H151.366V329.634H152.927ZM152.927 328.073V329.634H151.366V328.073H152.927ZM152.927 326.512V328.073H151.366V326.512H152.927ZM151.366 326.512V328.073H149.805V326.512H151.366ZM151.366 328.073V329.634H149.805V328.073H151.366ZM151.366 329.634V331.195H149.805V329.634H151.366ZM151.366 331.195V332.756H149.805V331.195H151.366ZM151.366 332.756V334.317H149.805V332.756H151.366ZM151.366 334.317V335.878H149.805V334.317H151.366ZM151.366 335.878V337.439H149.805V335.878H151.366ZM148.244 334.317V335.878H146.683V334.317H148.244ZM148.244 332.756V334.317H146.683V332.756H148.244ZM148.244 331.195V332.756H146.683V331.195H148.244ZM148.244 329.634V331.195H146.683V329.634H148.244ZM148.244 328.073V329.634H146.683V328.073H148.244ZM148.244 326.512V328.073H146.683V326.512H148.244ZM146.683 314.024V315.585H145.122V314.024H146.683ZM151.366 314.024V315.585H149.805V314.024H151.366ZM151.366 315.585V317.146H149.805V315.585H151.366ZM151.366 317.146V318.707H149.805V317.146H151.366ZM151.366 318.707V320.268H149.805V318.707H151.366ZM151.366 320.268V321.829H149.805V320.268H151.366ZM152.927 321.829V323.39H151.366V321.829H152.927ZM152.927 320.268V321.829H151.366V320.268H152.927ZM152.927 318.707V320.268H151.366V318.707H152.927ZM152.927 317.146V318.707H151.366V317.146H152.927ZM152.927 315.585V317.146H151.366V315.585H152.927ZM152.927 314.024V315.585H151.366V314.024H152.927ZM148.244 314.024V315.585H146.683V314.024H148.244ZM149.805 314.024V315.585H148.244V314.024H149.805ZM149.805 315.585V317.146H148.244V315.585H149.805ZM149.805 317.146V318.707H148.244V317.146H149.805ZM149.805 318.707V320.268H148.244V318.707H149.805ZM149.805 320.268V321.829H148.244V320.268H149.805ZM165.415 337.439V339H163.854V337.439H165.415ZM165.415 335.878V337.439H163.854V335.878H165.415ZM165.415 334.317V335.878H163.854V334.317H165.415ZM165.415 332.756V334.317H163.854V332.756H165.415ZM165.415 331.195V332.756H163.854V331.195H165.415ZM165.415 329.634V331.195H163.854V329.634H165.415ZM165.415 328.073V329.634H163.854V328.073H165.415ZM165.415 326.512V328.073H163.854V326.512H165.415ZM165.415 324.951V326.512H163.854V324.951H165.415ZM165.415 323.39V324.951H163.854V323.39H165.415ZM165.415 321.829V323.39H163.854V321.829H165.415ZM165.415 320.268V321.829H163.854V320.268H165.415ZM165.415 318.707V320.268H163.854V318.707H165.415ZM165.415 317.146V318.707H163.854V317.146H165.415ZM165.415 315.585V317.146H163.854V315.585H165.415ZM166.976 317.146V318.707H165.415V317.146H166.976ZM166.976 318.707V320.268H165.415V318.707H166.976ZM166.976 320.268V321.829H165.415V320.268H166.976ZM166.976 321.829V323.39H165.415V321.829H166.976ZM166.976 323.39V324.951H165.415V323.39H166.976ZM166.976 324.951V326.512H165.415V324.951H166.976ZM168.537 326.512V328.073H166.976V326.512H168.537ZM168.537 328.073V329.634H166.976V328.073H168.537ZM168.537 329.634V331.195H166.976V329.634H168.537ZM168.537 331.195V332.756H166.976V331.195H168.537ZM168.537 332.756V334.317H166.976V332.756H168.537ZM168.537 334.317V335.878H166.976V334.317H168.537ZM168.537 335.878V337.439H166.976V335.878H168.537ZM171.659 331.195V332.756H170.098V331.195H171.659ZM171.659 329.634V331.195H170.098V329.634H171.659ZM171.659 328.073V329.634H170.098V328.073H171.659ZM171.659 326.512V328.073H170.098V326.512H171.659ZM170.098 326.512V328.073H168.537V326.512H170.098ZM170.098 324.951V326.512H168.537V324.951H170.098ZM170.098 328.073V329.634H168.537V328.073H170.098ZM170.098 329.634V331.195H168.537V329.634H170.098ZM170.098 331.195V332.756H168.537V331.195H170.098ZM170.098 332.756V334.317H168.537V332.756H170.098ZM170.098 334.317V335.878H168.537V334.317H170.098ZM166.976 335.878V337.439H165.415V335.878H166.976ZM166.976 334.317V335.878H165.415V334.317H166.976ZM166.976 332.756V334.317H165.415V332.756H166.976ZM166.976 331.195V332.756H165.415V331.195H166.976ZM166.976 329.634V331.195H165.415V329.634H166.976ZM166.976 328.073V329.634H165.415V328.073H166.976ZM166.976 326.512V328.073H165.415V326.512H166.976ZM170.098 320.268V321.829H168.537V320.268H170.098ZM171.659 321.829V323.39H170.098V321.829H171.659ZM171.659 323.39V324.951H170.098V323.39H171.659ZM171.659 324.951V326.512H170.098V324.951H171.659ZM168.537 317.146V318.707H166.976V317.146H168.537ZM168.537 318.707V320.268H166.976V318.707H168.537ZM168.537 320.268V321.829H166.976V320.268H168.537ZM168.537 321.829V323.39H166.976V321.829H168.537ZM168.537 323.39V324.951H166.976V323.39H168.537ZM168.537 324.951V326.512H166.976V324.951H168.537ZM170.098 323.39V324.951H168.537V323.39H170.098ZM170.098 321.829V323.39H168.537V321.829H170.098ZM154.488 337.439V339H152.927V337.439H154.488ZM156.049 337.439V339H154.488V337.439H156.049ZM157.61 337.439V339H156.049V337.439H157.61ZM160.732 337.439V339H159.171V337.439H160.732ZM162.293 337.439V339H160.732V337.439H162.293ZM163.854 337.439V339H162.293V337.439H163.854ZM163.854 335.878V337.439H162.293V335.878H163.854ZM162.293 335.878V337.439H160.732V335.878H162.293ZM160.732 335.878V337.439H159.171V335.878H160.732ZM157.61 335.878V337.439H156.049V335.878H157.61ZM156.049 335.878V337.439H154.488V335.878H156.049ZM154.488 335.878V337.439H152.927V335.878H154.488ZM154.488 334.317V335.878H152.927V334.317H154.488ZM156.049 334.317V335.878H154.488V334.317H156.049ZM157.61 334.317V335.878H156.049V334.317H157.61ZM160.732 334.317V335.878H159.171V334.317H160.732ZM162.293 334.317V335.878H160.732V334.317H162.293ZM163.854 334.317V335.878H162.293V334.317H163.854ZM163.854 332.756V334.317H162.293V332.756H163.854ZM162.293 332.756V334.317H160.732V332.756H162.293ZM160.732 332.756V334.317H159.171V332.756H160.732ZM157.61 332.756V334.317H156.049V332.756H157.61ZM156.049 332.756V334.317H154.488V332.756H156.049ZM154.488 332.756V334.317H152.927V332.756H154.488ZM154.488 331.195V332.756H152.927V331.195H154.488ZM163.854 331.195V332.756H162.293V331.195H163.854ZM170.098 307.78V306.22H171.659V307.78H170.098ZM170.098 309.341V307.78H171.659V309.341H170.098ZM170.098 310.902V309.341H171.659V310.902H170.098ZM166.976 310.902V309.341H168.537V310.902H166.976ZM166.976 309.341V307.78H168.537V309.341H166.976ZM166.976 307.78V306.22H168.537V307.78H166.976ZM166.976 306.22V304.659H168.537V306.22H166.976ZM166.976 304.659V303.098H168.537V304.659H166.976ZM166.976 303.098V301.537H168.537V303.098H166.976ZM163.854 301.537V299.976H165.415V301.537H163.854ZM163.854 303.098V301.537H165.415V303.098H163.854ZM163.854 304.659V303.098H165.415V304.659H163.854ZM163.854 306.22V304.659H165.415V306.22H163.854ZM163.854 307.78V306.22H165.415V307.78H163.854ZM163.854 309.341V307.78H165.415V309.341H163.854ZM163.854 310.902V309.341H165.415V310.902H163.854ZM165.415 310.902V309.341H166.976V310.902H165.415ZM165.415 309.341V307.78H166.976V309.341H165.415ZM165.415 307.78V306.22H166.976V307.78H165.415ZM165.415 306.22V304.659H166.976V306.22H165.415ZM165.415 304.659V303.098H166.976V304.659H165.415ZM165.415 303.098V301.537H166.976V303.098H165.415ZM168.537 304.659V303.098H170.098V304.659H168.537ZM168.537 306.22V304.659H170.098V306.22H168.537ZM168.537 307.78V306.22H170.098V307.78H168.537ZM168.537 309.341V307.78H170.098V309.341H168.537ZM168.537 310.902V309.341H170.098V310.902H168.537ZM151.366 301.537V299.976H152.927V301.537H151.366ZM151.366 303.098V301.537H152.927V303.098H151.366ZM151.366 304.659V303.098H152.927V304.659H151.366ZM151.366 306.22V304.659H152.927V306.22H151.366ZM151.366 307.78V306.22H152.927V307.78H151.366ZM151.366 309.341V307.78H152.927V309.341H151.366ZM151.366 310.902V309.341H152.927V310.902H151.366ZM148.244 310.902V309.341H149.805V310.902H148.244ZM148.244 309.341V307.78H149.805V309.341H148.244ZM148.244 307.78V306.22H149.805V307.78H148.244ZM148.244 306.22V304.659H149.805V306.22H148.244ZM148.244 304.659V303.098H149.805V304.659H148.244ZM148.244 303.098V301.537H149.805V303.098H148.244ZM145.122 307.78V306.22H146.683V307.78H145.122ZM145.122 309.341V307.78H146.683V309.341H145.122ZM145.122 310.902V309.341H146.683V310.902H145.122ZM146.683 310.902V309.341H148.244V310.902H146.683ZM146.683 309.341V307.78H148.244V309.341H146.683ZM146.683 307.78V306.22H148.244V307.78H146.683ZM146.683 306.22V304.659H148.244V306.22H146.683ZM146.683 304.659V303.098H148.244V304.659H146.683ZM149.805 303.098V301.537H151.366V303.098H149.805ZM149.805 304.659V303.098H151.366V304.659H149.805ZM149.805 306.22V304.659H151.366V306.22H149.805ZM149.805 307.78V306.22H151.366V307.78H149.805ZM149.805 309.341V307.78H151.366V309.341H149.805ZM149.805 310.902V309.341H151.366V310.902H149.805ZM162.293 301.537V299.976H163.854V301.537H162.293ZM160.732 301.537V299.976H162.293V301.537H160.732ZM159.171 301.537V299.976H160.732V301.537H159.171ZM156.049 301.537V299.976H157.61V301.537H156.049ZM154.488 301.537V299.976H156.049V301.537H154.488ZM152.927 301.537V299.976H154.488V301.537H152.927ZM152.927 303.098V301.537H154.488V303.098H152.927ZM154.488 303.098V301.537H156.049V303.098H154.488ZM156.049 303.098V301.537H157.61V303.098H156.049ZM159.171 303.098V301.537H160.732V303.098H159.171ZM160.732 303.098V301.537H162.293V303.098H160.732ZM162.293 303.098V301.537H163.854V303.098H162.293ZM162.293 304.659V303.098H163.854V304.659H162.293ZM160.732 304.659V303.098H162.293V304.659H160.732ZM159.171 304.659V303.098H160.732V304.659H159.171ZM156.049 304.659V303.098H157.61V304.659H156.049ZM154.488 304.659V303.098H156.049V304.659H154.488ZM152.927 304.659V303.098H154.488V304.659H152.927ZM152.927 306.22V304.659H154.488V306.22H152.927ZM154.488 306.22V304.659H156.049V306.22H154.488ZM156.049 306.22V304.659H157.61V306.22H156.049ZM159.171 306.22V304.659H160.732V306.22H159.171ZM160.732 306.22V304.659H162.293V306.22H160.732ZM162.293 306.22V304.659H163.854V306.22H162.293ZM162.293 307.78V306.22H163.854V307.78H162.293ZM152.927 307.78V306.22H154.488V307.78H152.927ZM146.683 312.463V314.024H145.122V312.463H146.683ZM148.244 312.463V314.024H146.683V312.463H148.244ZM146.683 310.902V312.463H145.122V310.902H146.683ZM151.366 310.902V312.463H149.805V310.902H151.366ZM151.366 312.463V314.024H149.805V312.463H151.366ZM152.927 312.463V314.024H151.366V312.463H152.927ZM152.927 310.902V312.463H151.366V310.902H152.927ZM148.244 310.902V312.463H146.683V310.902H148.244ZM149.805 310.902V312.463H148.244V310.902H149.805ZM149.805 312.463V314.024H148.244V312.463H149.805ZM156.049 331.195V332.756H154.488V331.195H156.049ZM157.61 331.195V332.756H156.049V331.195H157.61ZM160.732 331.195V332.756H159.171V331.195H160.732ZM162.293 331.195V332.756H160.732V331.195H162.293ZM163.854 329.634V331.195H162.293V329.634H163.854ZM154.488 329.634V331.195H152.927V329.634H154.488ZM156.049 306.22V307.78H154.488V306.22H156.049ZM157.61 306.22V307.78H156.049V306.22H157.61ZM160.732 306.22V307.78H159.171V306.22H160.732ZM162.293 306.22V307.78H160.732V306.22H162.293ZM163.854 307.78V309.341H162.293V307.78H163.854ZM154.488 307.78V309.341H152.927V307.78H154.488ZM157.61 318.707V320.268H156.049V318.707H157.61ZM160.732 318.707V320.268H159.171V318.707H160.732ZM162.293 318.707V320.268H160.732V318.707H162.293ZM163.854 318.707V320.268H162.293V318.707H163.854ZM163.854 320.268V321.829H162.293V320.268H163.854ZM162.293 320.268V321.829H160.732V320.268H162.293ZM160.732 320.268V321.829H159.171V320.268H160.732ZM157.61 320.268V321.829H156.049V320.268H157.61ZM157.61 315.585V317.146H156.049V315.585H157.61ZM160.732 315.585V317.146H159.171V315.585H160.732ZM162.293 315.585V317.146H160.732V315.585H162.293ZM163.854 315.585V317.146H162.293V315.585H163.854ZM163.854 317.146V318.707H162.293V317.146H163.854ZM162.293 317.146V318.707H160.732V317.146H162.293ZM160.732 317.146V318.707H159.171V317.146H160.732ZM157.61 317.146V318.707H156.049V317.146H157.61ZM157.61 321.829V323.39H156.049V321.829H157.61ZM160.732 321.829V323.39H159.171V321.829H160.732ZM162.293 321.829V323.39H160.732V321.829H162.293ZM163.854 321.829V323.39H162.293V321.829H163.854ZM170.098 318.707V320.268H168.537V318.707H170.098ZM163.854 323.39V324.951H162.293V323.39H163.854ZM154.488 315.585V317.146H152.927V315.585H154.488ZM156.049 315.585V317.146H154.488V315.585H156.049ZM154.488 314.024V315.585H152.927V314.024H154.488ZM156.049 317.146V318.707H154.488V317.146H156.049ZM156.049 318.707V320.268H154.488V318.707H156.049ZM156.049 320.268V321.829H154.488V320.268H156.049ZM156.049 321.829V323.39H154.488V321.829H156.049ZM154.488 321.829V323.39H152.927V321.829H154.488ZM154.488 320.268V321.829H152.927V320.268H154.488ZM154.488 318.707V320.268H152.927V318.707H154.488ZM154.488 317.146V318.707H152.927V317.146H154.488ZM159.171 299.976V301.537H157.61V299.976H159.171ZM159.171 301.537V303.098H157.61V301.537H159.171ZM159.171 303.098V304.659H157.61V303.098H159.171ZM159.171 304.659V306.22H157.61V304.659H159.171ZM159.171 306.22V307.78H157.61V306.22H159.171ZM159.171 315.585V317.146H157.61V315.585H159.171ZM159.171 317.146V318.707H157.61V317.146H159.171ZM159.171 318.707V320.268H157.61V318.707H159.171ZM159.171 320.268V321.829H157.61V320.268H159.171ZM159.171 321.829V323.39H157.61V321.829H159.171ZM159.171 331.195V332.756H157.61V331.195H159.171ZM159.171 332.756V334.317H157.61V332.756H159.171ZM159.171 334.317V335.878H157.61V334.317H159.171ZM159.171 335.878V337.439H157.61V335.878H159.171ZM159.171 337.439V339H157.61V337.439H159.171ZM179.433 299.976V301.537H177.872V299.976H179.433ZM179.433 301.537V303.098H177.872V301.537H179.433ZM179.433 303.098V304.659H177.872V303.098H179.433ZM184.116 299.976V301.537H182.555V299.976H184.116ZM184.116 301.537V303.098H182.555V301.537H184.116ZM184.116 303.098V304.659H182.555V303.098H184.116ZM185.677 303.098V304.659H184.116V303.098H185.677ZM185.677 301.537V303.098H184.116V301.537H185.677ZM185.677 299.976V301.537H184.116V299.976H185.677ZM182.555 299.976V301.537H180.994V299.976H182.555ZM180.994 299.976V301.537H179.433V299.976H180.994ZM180.994 301.537V303.098H179.433V301.537H180.994ZM182.555 301.537V303.098H180.994V301.537H182.555ZM182.555 303.098V304.659H180.994V303.098H182.555ZM180.994 303.098V304.659H179.433V303.098H180.994ZM179.433 304.659V306.22H177.872V304.659H179.433ZM180.994 304.659V306.22H179.433V304.659H180.994ZM182.555 304.659V306.22H180.994V304.659H182.555ZM184.116 304.659V306.22H182.555V304.659H184.116ZM185.677 304.659V306.22H184.116V304.659H185.677ZM179.433 337.439V339H177.872V337.439H179.433ZM179.433 335.878V337.439H177.872V335.878H179.433ZM179.433 334.317V335.878H177.872V334.317H179.433ZM179.433 332.756V334.317H177.872V332.756H179.433ZM179.433 331.195V332.756H177.872V331.195H179.433ZM179.433 329.634V331.195H177.872V329.634H179.433ZM179.433 328.073V329.634H177.872V328.073H179.433ZM179.433 326.512V328.073H177.872V326.512H179.433ZM179.433 324.951V326.512H177.872V324.951H179.433ZM179.433 323.39V324.951H177.872V323.39H179.433ZM179.433 321.829V323.39H177.872V321.829H179.433ZM179.433 320.268V321.829H177.872V320.268H179.433ZM179.433 318.707V320.268H177.872V318.707H179.433ZM179.433 317.146V318.707H177.872V317.146H179.433ZM179.433 315.585V317.146H177.872V315.585H179.433ZM180.994 315.585V317.146H179.433V315.585H180.994ZM180.994 317.146V318.707H179.433V317.146H180.994ZM180.994 318.707V320.268H179.433V318.707H180.994ZM180.994 320.268V321.829H179.433V320.268H180.994ZM180.994 321.829V323.39H179.433V321.829H180.994ZM180.994 323.39V324.951H179.433V323.39H180.994ZM180.994 324.951V326.512H179.433V324.951H180.994ZM182.555 326.512V328.073H180.994V326.512H182.555ZM182.555 328.073V329.634H180.994V328.073H182.555ZM182.555 329.634V331.195H180.994V329.634H182.555ZM182.555 331.195V332.756H180.994V331.195H182.555ZM182.555 332.756V334.317H180.994V332.756H182.555ZM182.555 334.317V335.878H180.994V334.317H182.555ZM182.555 335.878V337.439H180.994V335.878H182.555ZM182.555 337.439V339H180.994V337.439H182.555ZM184.116 337.439V339H182.555V337.439H184.116ZM185.677 337.439V339H184.116V337.439H185.677ZM185.677 335.878V337.439H184.116V335.878H185.677ZM185.677 334.317V335.878H184.116V334.317H185.677ZM185.677 332.756V334.317H184.116V332.756H185.677ZM185.677 331.195V332.756H184.116V331.195H185.677ZM185.677 329.634V331.195H184.116V329.634H185.677ZM185.677 328.073V329.634H184.116V328.073H185.677ZM185.677 326.512V328.073H184.116V326.512H185.677ZM184.116 326.512V328.073H182.555V326.512H184.116ZM184.116 324.951V326.512H182.555V324.951H184.116ZM184.116 328.073V329.634H182.555V328.073H184.116ZM184.116 329.634V331.195H182.555V329.634H184.116ZM184.116 331.195V332.756H182.555V331.195H184.116ZM184.116 332.756V334.317H182.555V332.756H184.116ZM184.116 334.317V335.878H182.555V334.317H184.116ZM184.116 335.878V337.439H182.555V335.878H184.116ZM180.994 337.439V339H179.433V337.439H180.994ZM180.994 335.878V337.439H179.433V335.878H180.994ZM180.994 334.317V335.878H179.433V334.317H180.994ZM180.994 332.756V334.317H179.433V332.756H180.994ZM180.994 331.195V332.756H179.433V331.195H180.994ZM180.994 329.634V331.195H179.433V329.634H180.994ZM180.994 328.073V329.634H179.433V328.073H180.994ZM180.994 326.512V328.073H179.433V326.512H180.994ZM179.433 312.463V314.024H177.872V312.463H179.433ZM179.433 314.024V315.585H177.872V314.024H179.433ZM184.116 312.463V314.024H182.555V312.463H184.116ZM184.116 314.024V315.585H182.555V314.024H184.116ZM184.116 315.585V317.146H182.555V315.585H184.116ZM184.116 317.146V318.707H182.555V317.146H184.116ZM184.116 318.707V320.268H182.555V318.707H184.116ZM184.116 320.268V321.829H182.555V320.268H184.116ZM185.677 321.829V323.39H184.116V321.829H185.677ZM185.677 323.39V324.951H184.116V323.39H185.677ZM185.677 324.951V326.512H184.116V324.951H185.677ZM185.677 320.268V321.829H184.116V320.268H185.677ZM185.677 318.707V320.268H184.116V318.707H185.677ZM185.677 317.146V318.707H184.116V317.146H185.677ZM185.677 315.585V317.146H184.116V315.585H185.677ZM185.677 314.024V315.585H184.116V314.024H185.677ZM185.677 312.463V314.024H184.116V312.463H185.677ZM180.994 312.463V314.024H179.433V312.463H180.994ZM180.994 314.024V315.585H179.433V314.024H180.994ZM182.555 312.463V314.024H180.994V312.463H182.555ZM182.555 314.024V315.585H180.994V314.024H182.555ZM182.555 315.585V317.146H180.994V315.585H182.555ZM182.555 317.146V318.707H180.994V317.146H182.555ZM182.555 318.707V320.268H180.994V318.707H182.555ZM182.555 320.268V321.829H180.994V320.268H182.555ZM182.555 321.829V323.39H180.994V321.829H182.555ZM182.555 323.39V324.951H180.994V323.39H182.555ZM182.555 324.951V326.512H180.994V324.951H182.555ZM184.116 323.39V324.951H182.555V323.39H184.116ZM184.116 321.829V323.39H182.555V321.829H184.116ZM184.116 310.902V312.463H182.555V310.902H184.116ZM185.677 310.902V312.463H184.116V310.902H185.677ZM182.555 310.902V312.463H180.994V310.902H182.555ZM180.994 310.902V312.463H179.433V310.902H180.994ZM179.433 310.902V312.463H177.872V310.902H179.433ZM207.544 314.024V315.585H205.983V314.024H207.544ZM207.544 312.463V314.024H205.983V312.463H207.544ZM207.544 310.902V312.463H205.983V310.902H207.544ZM205.983 310.902V312.463H204.422V310.902H205.983ZM205.983 309.341V310.902H204.422V309.341H205.983ZM205.983 312.463V314.024H204.422V312.463H205.983ZM204.422 312.463V314.024H202.861V312.463H204.422ZM204.422 314.024V315.585H202.861V314.024H204.422ZM205.983 314.024V315.585H204.422V314.024H205.983ZM202.861 314.024V315.585H201.3V314.024H202.861ZM202.861 312.463V314.024H201.3V312.463H202.861ZM202.861 310.902V312.463H201.3V310.902H202.861ZM202.861 309.341V310.902H201.3V309.341H202.861ZM204.422 309.341V310.902H202.861V309.341H204.422ZM204.422 310.902V312.463H202.861V310.902H204.422ZM201.3 309.341V310.902H199.739V309.341H201.3ZM199.739 309.341V310.902H198.178V309.341H199.739ZM198.178 309.341V310.902H196.617V309.341H198.178ZM198.178 310.902V312.463H196.617V310.902H198.178ZM198.178 312.463V314.024H196.617V312.463H198.178ZM198.178 314.024V315.585H196.617V314.024H198.178ZM199.739 314.024V315.585H198.178V314.024H199.739ZM201.3 314.024V315.585H199.739V314.024H201.3ZM201.3 312.463V314.024H199.739V312.463H201.3ZM201.3 310.902V312.463H199.739V310.902H201.3ZM199.739 310.902V312.463H198.178V310.902H199.739ZM199.739 312.463V314.024H198.178V312.463H199.739ZM196.617 312.463V314.024H195.056V312.463H196.617ZM196.617 310.902V312.463H195.056V310.902H196.617ZM195.056 310.902V312.463H193.495V310.902H195.056ZM195.056 312.463V314.024H193.495V312.463H195.056ZM193.495 312.463V314.024H191.934V312.463H193.495ZM193.495 314.024V315.585H191.934V314.024H193.495ZM193.495 315.585V317.146H191.934V315.585H193.495ZM195.056 315.585V317.146H193.495V315.585H195.056ZM195.056 314.024V315.585H193.495V314.024H195.056ZM196.617 314.024V315.585H195.056V314.024H196.617ZM196.617 315.585V317.146H195.056V315.585H196.617ZM198.178 315.585V317.146H196.617V315.585H198.178ZM199.739 315.585V317.146H198.178V315.585H199.739ZM191.934 315.585V317.146H190.373V315.585H191.934ZM191.934 317.146V318.707H190.373V317.146H191.934ZM191.934 318.707V320.268H190.373V318.707H191.934ZM191.934 320.268V321.829H190.373V320.268H191.934ZM191.934 321.829V323.39H190.373V321.829H191.934ZM191.934 323.39V324.951H190.373V323.39H191.934ZM191.934 324.951V326.512H190.373V324.951H191.934ZM191.934 326.512V328.073H190.373V326.512H191.934ZM191.934 328.073V329.634H190.373V328.073H191.934ZM191.934 329.634V331.195H190.373V329.634H191.934ZM193.495 329.634V331.195H191.934V329.634H193.495ZM193.495 331.195V332.756H191.934V331.195H193.495ZM191.934 331.195V332.756H190.373V331.195H191.934ZM195.056 331.195V332.756H193.495V331.195H195.056ZM196.617 331.195V332.756H195.056V331.195H196.617ZM198.178 331.195V332.756H196.617V331.195H198.178ZM199.739 331.195V332.756H198.178V331.195H199.739ZM198.178 329.634V331.195H196.617V329.634H198.178ZM198.178 328.073V329.634H196.617V328.073H198.178ZM198.178 326.512V328.073H196.617V326.512H198.178ZM198.178 324.951V326.512H196.617V324.951H198.178ZM198.178 323.39V324.951H196.617V323.39H198.178ZM198.178 321.829V323.39H196.617V321.829H198.178ZM198.178 320.268V321.829H196.617V320.268H198.178ZM198.178 318.707V320.268H196.617V318.707H198.178ZM198.178 317.146V318.707H196.617V317.146H198.178ZM196.617 317.146V318.707H195.056V317.146H196.617ZM195.056 317.146V318.707H193.495V317.146H195.056ZM193.495 317.146V318.707H191.934V317.146H193.495ZM193.495 318.707V320.268H191.934V318.707H193.495ZM193.495 320.268V321.829H191.934V320.268H193.495ZM193.495 321.829V323.39H191.934V321.829H193.495ZM193.495 323.39V324.951H191.934V323.39H193.495ZM193.495 324.951V326.512H191.934V324.951H193.495ZM193.495 326.512V328.073H191.934V326.512H193.495ZM193.495 328.073V329.634H191.934V328.073H193.495ZM195.056 329.634V331.195H193.495V329.634H195.056ZM196.617 329.634V331.195H195.056V329.634H196.617ZM196.617 328.073V329.634H195.056V328.073H196.617ZM196.617 326.512V328.073H195.056V326.512H196.617ZM196.617 324.951V326.512H195.056V324.951H196.617ZM196.617 323.39V324.951H195.056V323.39H196.617ZM195.056 323.39V324.951H193.495V323.39H195.056ZM195.056 321.829V323.39H193.495V321.829H195.056ZM195.056 320.268V321.829H193.495V320.268H195.056ZM195.056 318.707V320.268H193.495V318.707H195.056ZM196.617 318.707V320.268H195.056V318.707H196.617ZM196.617 320.268V321.829H195.056V320.268H196.617ZM196.617 321.829V323.39H195.056V321.829H196.617ZM195.056 326.512V328.073H193.495V326.512H195.056ZM195.056 328.073V329.634H193.495V328.073H195.056ZM195.056 324.951V326.512H193.495V324.951H195.056ZM207.544 332.756V334.317H205.983V332.756H207.544ZM205.983 337.439V339H204.422V337.439H205.983ZM204.422 337.439V339H202.861V337.439H204.422ZM202.861 337.439V339H201.3V337.439H202.861ZM201.3 337.439V339H199.739V337.439H201.3ZM199.739 337.439V339H198.178V337.439H199.739ZM198.178 337.439V339H196.617V337.439H198.178ZM199.739 335.878V337.439H198.178V335.878H199.739ZM201.3 335.878V337.439H199.739V335.878H201.3ZM202.861 335.878V337.439H201.3V335.878H202.861ZM204.422 335.878V337.439H202.861V335.878H204.422ZM205.983 335.878V337.439H204.422V335.878H205.983ZM207.544 335.878V337.439H205.983V335.878H207.544ZM207.544 334.317V335.878H205.983V334.317H207.544ZM205.983 334.317V335.878H204.422V334.317H205.983ZM204.422 334.317V335.878H202.861V334.317H204.422ZM202.861 334.317V335.878H201.3V334.317H202.861ZM201.3 334.317V335.878H199.739V334.317H201.3ZM199.739 334.317V335.878H198.178V334.317H199.739ZM198.178 335.878V337.439H196.617V335.878H198.178ZM196.617 335.878V337.439H195.056V335.878H196.617ZM195.056 335.878V337.439H193.495V335.878H195.056ZM195.056 334.317V335.878H193.495V334.317H195.056ZM193.495 334.317V335.878H191.934V334.317H193.495ZM193.495 332.756V334.317H191.934V332.756H193.495ZM195.056 332.756V334.317H193.495V332.756H195.056ZM196.617 332.756V334.317H195.056V332.756H196.617ZM198.178 332.756V334.317H196.617V332.756H198.178ZM199.739 332.756V334.317H198.178V332.756H199.739ZM201.3 332.756V334.317H199.739V332.756H201.3ZM202.861 332.756V334.317H201.3V332.756H202.861ZM204.422 332.756V334.317H202.861V332.756H204.422ZM205.983 332.756V334.317H204.422V332.756H205.983ZM198.178 334.317V335.878H196.617V334.317H198.178ZM196.617 334.317V335.878H195.056V334.317H196.617ZM209.105 334.317V335.878H207.544V334.317H209.105ZM209.105 332.756V334.317H207.544V332.756H209.105ZM209.105 331.195V332.756H207.544V331.195H209.105ZM209.105 329.634V331.195H207.544V329.634H209.105ZM209.105 328.073V329.634H207.544V328.073H209.105ZM209.105 326.512V328.073H207.544V326.512H209.105ZM209.105 324.951V326.512H207.544V324.951H209.105ZM209.105 323.39V324.951H207.544V323.39H209.105ZM209.105 321.829V323.39H207.544V321.829H209.105ZM209.105 320.268V321.829H207.544V320.268H209.105ZM209.105 318.707V320.268H207.544V318.707H209.105ZM209.105 317.146V318.707H207.544V317.146H209.105ZM209.105 315.585V317.146H207.544V315.585H209.105ZM210.666 315.585V317.146H209.105V315.585H210.666ZM210.666 317.146V318.707H209.105V317.146H210.666ZM210.666 318.707V320.268H209.105V318.707H210.666ZM210.666 320.268V321.829H209.105V320.268H210.666ZM210.666 321.829V323.39H209.105V321.829H210.666ZM210.666 323.39V324.951H209.105V323.39H210.666ZM210.666 324.951V326.512H209.105V324.951H210.666ZM212.227 326.512V328.073H210.666V326.512H212.227ZM212.227 328.073V329.634H210.666V328.073H212.227ZM212.227 329.634V331.195H210.666V329.634H212.227ZM212.227 331.195V332.756H210.666V331.195H212.227ZM212.227 332.756V334.317H210.666V332.756H212.227ZM212.227 334.317V335.878H210.666V334.317H212.227ZM212.227 335.878V337.439H210.666V335.878H212.227ZM212.227 337.439V339H210.666V337.439H212.227ZM213.788 337.439V339H212.227V337.439H213.788ZM215.349 337.439V339H213.788V337.439H215.349ZM215.349 335.878V337.439H213.788V335.878H215.349ZM215.349 334.317V335.878H213.788V334.317H215.349ZM215.349 332.756V334.317H213.788V332.756H215.349ZM215.349 331.195V332.756H213.788V331.195H215.349ZM215.349 329.634V331.195H213.788V329.634H215.349ZM215.349 328.073V329.634H213.788V328.073H215.349ZM215.349 326.512V328.073H213.788V326.512H215.349ZM213.788 326.512V328.073H212.227V326.512H213.788ZM213.788 324.951V326.512H212.227V324.951H213.788ZM213.788 328.073V329.634H212.227V328.073H213.788ZM213.788 329.634V331.195H212.227V329.634H213.788ZM213.788 331.195V332.756H212.227V331.195H213.788ZM213.788 332.756V334.317H212.227V332.756H213.788ZM213.788 334.317V335.878H212.227V334.317H213.788ZM213.788 335.878V337.439H212.227V335.878H213.788ZM210.666 334.317V335.878H209.105V334.317H210.666ZM210.666 332.756V334.317H209.105V332.756H210.666ZM210.666 331.195V332.756H209.105V331.195H210.666ZM210.666 329.634V331.195H209.105V329.634H210.666ZM210.666 328.073V329.634H209.105V328.073H210.666ZM210.666 326.512V328.073H209.105V326.512H210.666ZM209.105 299.976V301.537H207.544V299.976H209.105ZM209.105 301.537V303.098H207.544V301.537H209.105ZM209.105 303.098V304.659H207.544V303.098H209.105ZM209.105 304.659V306.22H207.544V304.659H209.105ZM209.105 306.22V307.78H207.544V306.22H209.105ZM209.105 307.78V309.341H207.544V307.78H209.105ZM209.105 310.902V312.463H207.544V310.902H209.105ZM209.105 314.024V315.585H207.544V314.024H209.105ZM213.788 299.976V301.537H212.227V299.976H213.788ZM213.788 301.537V303.098H212.227V301.537H213.788ZM213.788 303.098V304.659H212.227V303.098H213.788ZM213.788 304.659V306.22H212.227V304.659H213.788ZM213.788 306.22V307.78H212.227V306.22H213.788ZM213.788 307.78V309.341H212.227V307.78H213.788ZM213.788 310.902V312.463H212.227V310.902H213.788ZM213.788 312.463V314.024H212.227V312.463H213.788ZM213.788 314.024V315.585H212.227V314.024H213.788ZM213.788 317.146V318.707H212.227V317.146H213.788ZM213.788 318.707V320.268H212.227V318.707H213.788ZM213.788 320.268V321.829H212.227V320.268H213.788ZM215.349 321.829V323.39H213.788V321.829H215.349ZM215.349 323.39V324.951H213.788V323.39H215.349ZM215.349 324.951V326.512H213.788V324.951H215.349ZM215.349 320.268V321.829H213.788V320.268H215.349ZM215.349 318.707V320.268H213.788V318.707H215.349ZM215.349 315.585V317.146H213.788V315.585H215.349ZM215.349 314.024V315.585H213.788V314.024H215.349ZM215.349 312.463V314.024H213.788V312.463H215.349ZM215.349 310.902V312.463H213.788V310.902H215.349ZM215.349 309.341V310.902H213.788V309.341H215.349ZM215.349 307.78V309.341H213.788V307.78H215.349ZM215.349 306.22V307.78H213.788V306.22H215.349ZM213.788 309.341V310.902H212.227V309.341H213.788ZM215.349 304.659V306.22H213.788V304.659H215.349ZM215.349 303.098V304.659H213.788V303.098H215.349ZM215.349 301.537V303.098H213.788V301.537H215.349ZM215.349 299.976V301.537H213.788V299.976H215.349ZM212.227 299.976V301.537H210.666V299.976H212.227ZM210.666 299.976V301.537H209.105V299.976H210.666ZM210.666 301.537V303.098H209.105V301.537H210.666ZM212.227 301.537V303.098H210.666V301.537H212.227ZM212.227 303.098V304.659H210.666V303.098H212.227ZM212.227 304.659V306.22H210.666V304.659H212.227ZM212.227 306.22V307.78H210.666V306.22H212.227ZM212.227 307.78V309.341H210.666V307.78H212.227ZM212.227 309.341V310.902H210.666V309.341H212.227ZM212.227 310.902V312.463H210.666V310.902H212.227ZM210.666 312.463V314.024H209.105V312.463H210.666ZM210.666 314.024V315.585H209.105V314.024H210.666ZM210.666 310.902V312.463H209.105V310.902H210.666ZM210.666 309.341V310.902H209.105V309.341H210.666ZM210.666 307.78V309.341H209.105V307.78H210.666ZM210.666 306.22V307.78H209.105V306.22H210.666ZM210.666 304.659V306.22H209.105V304.659H210.666ZM210.666 303.098V304.659H209.105V303.098H210.666ZM212.227 314.024V315.585H210.666V314.024H212.227ZM212.227 317.146V318.707H210.666V317.146H212.227ZM212.227 318.707V320.268H210.666V318.707H212.227ZM212.227 320.268V321.829H210.666V320.268H212.227ZM212.227 321.829V323.39H210.666V321.829H212.227ZM212.227 323.39V324.951H210.666V323.39H212.227ZM212.227 324.951V326.512H210.666V324.951H212.227ZM213.788 323.39V324.951H212.227V323.39H213.788ZM213.788 321.829V323.39H212.227V321.829H213.788ZM209.105 309.341V310.902H207.544V309.341H209.105ZM215.349 317.146V318.707H213.788V317.146H215.349ZM209.105 312.463V314.024H207.544V312.463H209.105ZM212.227 312.463V314.024H210.666V312.463H212.227ZM212.227 315.585V317.146H210.666V315.585H212.227ZM213.788 315.585V317.146H212.227V315.585H213.788ZM209.105 335.878V337.439H207.544V335.878H209.105ZM210.666 335.878V337.439H209.105V335.878H210.666ZM210.666 337.439V339H209.105V337.439H210.666ZM207.544 309.341V310.902H205.983V309.341H207.544ZM207.544 331.195V332.756H205.983V331.195H207.544ZM209.105 337.439V339H207.544V337.439H209.105ZM238.793 318.707V320.268H237.232V318.707H238.793ZM240.354 318.707V320.268H238.793V318.707H240.354ZM241.915 318.707V320.268H240.354V318.707H241.915ZM243.476 318.707V320.268H241.915V318.707H243.476ZM245.037 318.707V320.268H243.476V318.707H245.037ZM245.037 317.146V318.707H243.476V317.146H245.037ZM245.037 315.585V317.146H243.476V315.585H245.037ZM243.476 315.585V317.146H241.915V315.585H243.476ZM241.915 315.585V317.146H240.354V315.585H241.915ZM240.354 315.585V317.146H238.793V315.585H240.354ZM240.354 317.146V318.707H238.793V317.146H240.354ZM238.793 317.146V318.707H237.232V317.146H238.793ZM241.915 317.146V318.707H240.354V317.146H241.915ZM243.476 317.146V318.707H241.915V317.146H243.476ZM238.793 315.585V317.146H237.232V315.585H238.793ZM237.232 315.585V317.146H235.671V315.585H237.232ZM237.232 314.024V315.585H235.671V314.024H237.232ZM238.793 314.024V315.585H237.232V314.024H238.793ZM240.354 314.024V315.585H238.793V314.024H240.354ZM241.915 314.024V315.585H240.354V314.024H241.915ZM243.476 314.024V315.585H241.915V314.024H243.476ZM243.476 312.463V314.024H241.915V312.463H243.476ZM241.915 312.463V314.024H240.354V312.463H241.915ZM240.354 312.463V314.024H238.793V312.463H240.354ZM238.793 312.463V314.024H237.232V312.463H238.793ZM237.232 312.463V314.024H235.671V312.463H237.232ZM240.354 310.902V312.463H238.793V310.902H240.354ZM241.915 310.902V312.463H240.354V310.902H241.915ZM238.793 310.902V312.463H237.232V310.902H238.793ZM238.793 309.341V310.902H237.232V309.341H238.793ZM237.232 309.341V310.902H235.671V309.341H237.232ZM237.232 310.902V312.463H235.671V310.902H237.232ZM235.671 310.902V312.463H234.11V310.902H235.671ZM235.671 309.341V310.902H234.11V309.341H235.671ZM235.671 312.463V314.024H234.11V312.463H235.671ZM234.11 312.463V314.024H232.549V312.463H234.11ZM234.11 314.024V315.585H232.549V314.024H234.11ZM235.671 314.024V315.585H234.11V314.024H235.671ZM232.549 314.024V315.585H230.988V314.024H232.549ZM232.549 312.463V314.024H230.988V312.463H232.549ZM232.549 310.902V312.463H230.988V310.902H232.549ZM232.549 309.341V310.902H230.988V309.341H232.549ZM234.11 309.341V310.902H232.549V309.341H234.11ZM234.11 310.902V312.463H232.549V310.902H234.11ZM230.988 309.341V310.902H229.427V309.341H230.988ZM229.427 309.341V310.902H227.866V309.341H229.427ZM227.866 309.341V310.902H226.305V309.341H227.866ZM227.866 310.902V312.463H226.305V310.902H227.866ZM227.866 312.463V314.024H226.305V312.463H227.866ZM227.866 314.024V315.585H226.305V314.024H227.866ZM229.427 314.024V315.585H227.866V314.024H229.427ZM230.988 314.024V315.585H229.427V314.024H230.988ZM230.988 312.463V314.024H229.427V312.463H230.988ZM230.988 310.902V312.463H229.427V310.902H230.988ZM229.427 310.902V312.463H227.866V310.902H229.427ZM229.427 312.463V314.024H227.866V312.463H229.427ZM226.305 312.463V314.024H224.744V312.463H226.305ZM226.305 310.902V312.463H224.744V310.902H226.305ZM224.744 310.902V312.463H223.183V310.902H224.744ZM224.744 312.463V314.024H223.183V312.463H224.744ZM223.183 312.463V314.024H221.622V312.463H223.183ZM223.183 314.024V315.585H221.622V314.024H223.183ZM223.183 315.585V317.146H221.622V315.585H223.183ZM224.744 315.585V317.146H223.183V315.585H224.744ZM224.744 314.024V315.585H223.183V314.024H224.744ZM226.305 314.024V315.585H224.744V314.024H226.305ZM226.305 315.585V317.146H224.744V315.585H226.305ZM227.866 315.585V317.146H226.305V315.585H227.866ZM229.427 315.585V317.146H227.866V315.585H229.427ZM221.622 315.585V317.146H220.061V315.585H221.622ZM221.622 317.146V318.707H220.061V317.146H221.622ZM221.622 318.707V320.268H220.061V318.707H221.622ZM221.622 320.268V321.829H220.061V320.268H221.622ZM221.622 321.829V323.39H220.061V321.829H221.622ZM221.622 323.39V324.951H220.061V323.39H221.622ZM221.622 324.951V326.512H220.061V324.951H221.622ZM221.622 326.512V328.073H220.061V326.512H221.622ZM221.622 328.073V329.634H220.061V328.073H221.622ZM221.622 329.634V331.195H220.061V329.634H221.622ZM223.183 329.634V331.195H221.622V329.634H223.183ZM223.183 331.195V332.756H221.622V331.195H223.183ZM221.622 331.195V332.756H220.061V331.195H221.622ZM224.744 331.195V332.756H223.183V331.195H224.744ZM226.305 331.195V332.756H224.744V331.195H226.305ZM227.866 331.195V332.756H226.305V331.195H227.866ZM229.427 331.195V332.756H227.866V331.195H229.427ZM227.866 329.634V331.195H226.305V329.634H227.866ZM227.866 328.073V329.634H226.305V328.073H227.866ZM227.866 326.512V328.073H226.305V326.512H227.866ZM227.866 324.951V326.512H226.305V324.951H227.866ZM227.866 323.39V324.951H226.305V323.39H227.866ZM227.866 321.829V323.39H226.305V321.829H227.866ZM227.866 320.268V321.829H226.305V320.268H227.866ZM227.866 318.707V320.268H226.305V318.707H227.866ZM227.866 317.146V318.707H226.305V317.146H227.866ZM226.305 317.146V318.707H224.744V317.146H226.305ZM224.744 317.146V318.707H223.183V317.146H224.744ZM223.183 317.146V318.707H221.622V317.146H223.183ZM223.183 318.707V320.268H221.622V318.707H223.183ZM223.183 320.268V321.829H221.622V320.268H223.183ZM223.183 321.829V323.39H221.622V321.829H223.183ZM223.183 323.39V324.951H221.622V323.39H223.183ZM223.183 324.951V326.512H221.622V324.951H223.183ZM223.183 326.512V328.073H221.622V326.512H223.183ZM223.183 328.073V329.634H221.622V328.073H223.183ZM224.744 329.634V331.195H223.183V329.634H224.744ZM226.305 329.634V331.195H224.744V329.634H226.305ZM226.305 328.073V329.634H224.744V328.073H226.305ZM226.305 326.512V328.073H224.744V326.512H226.305ZM226.305 324.951V326.512H224.744V324.951H226.305ZM226.305 323.39V324.951H224.744V323.39H226.305ZM224.744 323.39V324.951H223.183V323.39H224.744ZM224.744 321.829V323.39H223.183V321.829H224.744ZM224.744 320.268V321.829H223.183V320.268H224.744ZM224.744 318.707V320.268H223.183V318.707H224.744ZM226.305 318.707V320.268H224.744V318.707H226.305ZM226.305 320.268V321.829H224.744V320.268H226.305ZM226.305 321.829V323.39H224.744V321.829H226.305ZM224.744 326.512V328.073H223.183V326.512H224.744ZM224.744 328.073V329.634H223.183V328.073H224.744ZM224.744 324.951V326.512H223.183V324.951H224.744ZM238.793 329.634V331.195H237.232V329.634H238.793ZM240.354 329.634V331.195H238.793V329.634H240.354ZM241.915 329.634V331.195H240.354V329.634H241.915ZM243.476 329.634V331.195H241.915V329.634H243.476ZM245.037 329.634V331.195H243.476V329.634H245.037ZM245.037 331.195V332.756H243.476V331.195H245.037ZM243.476 331.195V332.756H241.915V331.195H243.476ZM241.915 331.195V332.756H240.354V331.195H241.915ZM240.354 331.195V332.756H238.793V331.195H240.354ZM238.793 331.195V332.756H237.232V331.195H238.793ZM237.232 331.195V332.756H235.671V331.195H237.232ZM237.232 332.756V334.317H235.671V332.756H237.232ZM238.793 332.756V334.317H237.232V332.756H238.793ZM240.354 332.756V334.317H238.793V332.756H240.354ZM241.915 332.756V334.317H240.354V332.756H241.915ZM241.915 334.317V335.878H240.354V334.317H241.915ZM243.476 334.317V335.878H241.915V334.317H243.476ZM243.476 332.756V334.317H241.915V332.756H243.476ZM241.915 335.878V337.439H240.354V335.878H241.915ZM240.354 335.878V337.439H238.793V335.878H240.354ZM240.354 334.317V335.878H238.793V334.317H240.354ZM238.793 334.317V335.878H237.232V334.317H238.793ZM238.793 335.878V337.439H237.232V335.878H238.793ZM238.793 337.439V339H237.232V337.439H238.793ZM237.232 337.439V339H235.671V337.439H237.232ZM235.671 337.439V339H234.11V337.439H235.671ZM234.11 337.439V339H232.549V337.439H234.11ZM232.549 337.439V339H230.988V337.439H232.549ZM230.988 337.439V339H229.427V337.439H230.988ZM229.427 337.439V339H227.866V337.439H229.427ZM227.866 337.439V339H226.305V337.439H227.866ZM229.427 335.878V337.439H227.866V335.878H229.427ZM230.988 335.878V337.439H229.427V335.878H230.988ZM232.549 335.878V337.439H230.988V335.878H232.549ZM234.11 335.878V337.439H232.549V335.878H234.11ZM235.671 335.878V337.439H234.11V335.878H235.671ZM237.232 335.878V337.439H235.671V335.878H237.232ZM237.232 334.317V335.878H235.671V334.317H237.232ZM235.671 334.317V335.878H234.11V334.317H235.671ZM234.11 334.317V335.878H232.549V334.317H234.11ZM232.549 334.317V335.878H230.988V334.317H232.549ZM230.988 334.317V335.878H229.427V334.317H230.988ZM229.427 334.317V335.878H227.866V334.317H229.427ZM227.866 335.878V337.439H226.305V335.878H227.866ZM226.305 335.878V337.439H224.744V335.878H226.305ZM224.744 335.878V337.439H223.183V335.878H224.744ZM224.744 334.317V335.878H223.183V334.317H224.744ZM223.183 334.317V335.878H221.622V334.317H223.183ZM223.183 332.756V334.317H221.622V332.756H223.183ZM224.744 332.756V334.317H223.183V332.756H224.744ZM226.305 332.756V334.317H224.744V332.756H226.305ZM227.866 332.756V334.317H226.305V332.756H227.866ZM229.427 332.756V334.317H227.866V332.756H229.427ZM230.988 332.756V334.317H229.427V332.756H230.988ZM232.549 332.756V334.317H230.988V332.756H232.549ZM234.11 332.756V334.317H232.549V332.756H234.11ZM235.671 332.756V334.317H234.11V332.756H235.671ZM227.866 334.317V335.878H226.305V334.317H227.866ZM226.305 334.317V335.878H224.744V334.317H226.305ZM245.037 320.268V321.829H243.476V320.268H245.037ZM243.476 320.268V321.829H241.915V320.268H243.476ZM241.915 320.268V321.829H240.354V320.268H241.915ZM240.354 320.268V321.829H238.793V320.268H240.354ZM238.793 320.268V321.829H237.232V320.268H238.793ZM245.037 321.829V323.39H243.476V321.829H245.037ZM241.915 321.829V323.39H240.354V321.829H241.915ZM240.354 321.829V323.39H238.793V321.829H240.354ZM237.232 321.829V323.39H235.671V321.829H237.232ZM235.671 321.829V323.39H234.11V321.829H235.671ZM234.11 321.829V323.39H232.549V321.829H234.11ZM232.549 321.829V323.39H230.988V321.829H232.549ZM230.988 321.829V323.39H229.427V321.829H230.988ZM229.427 321.829V323.39H227.866V321.829H229.427ZM238.793 321.829V323.39H237.232V321.829H238.793ZM243.476 321.829V323.39H241.915V321.829H243.476ZM245.037 323.39V324.951H243.476V323.39H245.037ZM243.476 323.39V324.951H241.915V323.39H243.476ZM241.915 323.39V324.951H240.354V323.39H241.915ZM240.354 323.39V324.951H238.793V323.39H240.354ZM238.793 323.39V324.951H237.232V323.39H238.793ZM237.232 323.39V324.951H235.671V323.39H237.232ZM235.671 323.39V324.951H234.11V323.39H235.671ZM234.11 323.39V324.951H232.549V323.39H234.11ZM232.549 323.39V324.951H230.988V323.39H232.549ZM230.988 323.39V324.951H229.427V323.39H230.988ZM229.427 323.39V324.951H227.866V323.39H229.427ZM229.427 324.951V326.512H227.866V324.951H229.427ZM230.988 324.951V326.512H229.427V324.951H230.988ZM232.549 324.951V326.512H230.988V324.951H232.549ZM235.671 324.951V326.512H234.11V324.951H235.671ZM237.232 324.951V326.512H235.671V324.951H237.232ZM238.793 324.951V326.512H237.232V324.951H238.793ZM240.354 324.951V326.512H238.793V324.951H240.354ZM241.915 324.951V326.512H240.354V324.951H241.915ZM243.476 324.951V326.512H241.915V324.951H243.476ZM245.037 324.951V326.512H243.476V324.951H245.037ZM234.11 324.951V326.512H232.549V324.951H234.11ZM271.601 315.585V317.146H270.04V315.585H271.601ZM270.04 315.585V317.146H268.479V315.585H270.04ZM268.479 315.585V317.146H266.918V315.585H268.479ZM266.918 315.585V317.146H265.357V315.585H266.918ZM265.357 314.024V315.585H263.796V314.024H265.357ZM266.918 314.024V315.585H265.357V314.024H266.918ZM268.479 314.024V315.585H266.918V314.024H268.479ZM270.04 314.024V315.585H268.479V314.024H270.04ZM271.601 314.024V315.585H270.04V314.024H271.601ZM271.601 312.463V314.024H270.04V312.463H271.601ZM270.04 312.463V314.024H268.479V312.463H270.04ZM268.479 312.463V314.024H266.918V312.463H268.479ZM266.918 312.463V314.024H265.357V312.463H266.918ZM265.357 312.463V314.024H263.796V312.463H265.357ZM268.479 310.902V312.463H266.918V310.902H268.479ZM270.04 310.902V312.463H268.479V310.902H270.04ZM266.918 310.902V312.463H265.357V310.902H266.918ZM266.918 309.341V310.902H265.357V309.341H266.918ZM265.357 309.341V310.902H263.796V309.341H265.357ZM265.357 310.902V312.463H263.796V310.902H265.357ZM263.796 310.902V312.463H262.235V310.902H263.796ZM263.796 309.341V310.902H262.235V309.341H263.796ZM263.796 312.463V314.024H262.235V312.463H263.796ZM262.235 312.463V314.024H260.674V312.463H262.235ZM262.235 314.024V315.585H260.674V314.024H262.235ZM263.796 314.024V315.585H262.235V314.024H263.796ZM260.674 314.024V315.585H259.113V314.024H260.674ZM260.674 312.463V314.024H259.113V312.463H260.674ZM260.674 310.902V312.463H259.113V310.902H260.674ZM260.674 309.341V310.902H259.113V309.341H260.674ZM262.235 309.341V310.902H260.674V309.341H262.235ZM262.235 310.902V312.463H260.674V310.902H262.235ZM259.113 309.341V310.902H257.552V309.341H259.113ZM257.552 309.341V310.902H255.991V309.341H257.552ZM255.991 309.341V310.902H254.43V309.341H255.991ZM255.991 310.902V312.463H254.43V310.902H255.991ZM255.991 312.463V314.024H254.43V312.463H255.991ZM255.991 314.024V315.585H254.43V314.024H255.991ZM257.552 314.024V315.585H255.991V314.024H257.552ZM259.113 314.024V315.585H257.552V314.024H259.113ZM259.113 312.463V314.024H257.552V312.463H259.113ZM259.113 310.902V312.463H257.552V310.902H259.113ZM257.552 310.902V312.463H255.991V310.902H257.552ZM257.552 312.463V314.024H255.991V312.463H257.552ZM254.43 312.463V314.024H252.869V312.463H254.43ZM254.43 310.902V312.463H252.869V310.902H254.43ZM252.869 310.902V312.463H251.308V310.902H252.869ZM252.869 312.463V314.024H251.308V312.463H252.869ZM251.308 312.463V314.024H249.747V312.463H251.308ZM251.308 314.024V315.585H249.747V314.024H251.308ZM251.308 315.585V317.146H249.747V315.585H251.308ZM252.869 315.585V317.146H251.308V315.585H252.869ZM252.869 314.024V315.585H251.308V314.024H252.869ZM254.43 314.024V315.585H252.869V314.024H254.43ZM254.43 315.585V317.146H252.869V315.585H254.43ZM255.991 315.585V317.146H254.43V315.585H255.991ZM257.552 315.585V317.146H255.991V315.585H257.552ZM249.747 315.585V317.146H248.186V315.585H249.747ZM249.747 317.146V318.707H248.186V317.146H249.747ZM249.747 318.707V320.268H248.186V318.707H249.747ZM249.747 329.634V331.195H248.186V329.634H249.747ZM251.308 329.634V331.195H249.747V329.634H251.308ZM251.308 331.195V332.756H249.747V331.195H251.308ZM249.747 331.195V332.756H248.186V331.195H249.747ZM252.869 331.195V332.756H251.308V331.195H252.869ZM254.43 331.195V332.756H252.869V331.195H254.43ZM255.991 331.195V332.756H254.43V331.195H255.991ZM257.552 331.195V332.756H255.991V331.195H257.552ZM255.991 329.634V331.195H254.43V329.634H255.991ZM255.991 318.707V320.268H254.43V318.707H255.991ZM255.991 317.146V318.707H254.43V317.146H255.991ZM254.43 317.146V318.707H252.869V317.146H254.43ZM252.869 317.146V318.707H251.308V317.146H252.869ZM251.308 317.146V318.707H249.747V317.146H251.308ZM251.308 318.707V320.268H249.747V318.707H251.308ZM252.869 329.634V331.195H251.308V329.634H252.869ZM254.43 329.634V331.195H252.869V329.634H254.43ZM252.869 318.707V320.268H251.308V318.707H252.869ZM254.43 318.707V320.268H252.869V318.707H254.43ZM266.918 328.073V329.634H265.357V328.073H266.918ZM266.918 329.634V331.195H265.357V329.634H266.918ZM268.479 329.634V331.195H266.918V329.634H268.479ZM270.04 329.634V331.195H268.479V329.634H270.04ZM271.601 329.634V331.195H270.04V329.634H271.601ZM273.162 329.634V331.195H271.601V329.634H273.162ZM273.162 328.073V329.634H271.601V328.073H273.162ZM271.601 328.073V329.634H270.04V328.073H271.601ZM270.04 328.073V329.634H268.479V328.073H270.04ZM268.479 328.073V329.634H266.918V328.073H268.479ZM273.162 331.195V332.756H271.601V331.195H273.162ZM271.601 331.195V332.756H270.04V331.195H271.601ZM270.04 331.195V332.756H268.479V331.195H270.04ZM268.479 331.195V332.756H266.918V331.195H268.479ZM266.918 331.195V332.756H265.357V331.195H266.918ZM265.357 331.195V332.756H263.796V331.195H265.357ZM265.357 332.756V334.317H263.796V332.756H265.357ZM266.918 332.756V334.317H265.357V332.756H266.918ZM268.479 332.756V334.317H266.918V332.756H268.479ZM270.04 332.756V334.317H268.479V332.756H270.04ZM270.04 334.317V335.878H268.479V334.317H270.04ZM271.601 334.317V335.878H270.04V334.317H271.601ZM271.601 332.756V334.317H270.04V332.756H271.601ZM270.04 335.878V337.439H268.479V335.878H270.04ZM268.479 335.878V337.439H266.918V335.878H268.479ZM268.479 334.317V335.878H266.918V334.317H268.479ZM266.918 334.317V335.878H265.357V334.317H266.918ZM266.918 335.878V337.439H265.357V335.878H266.918ZM266.918 337.439V339H265.357V337.439H266.918ZM265.357 337.439V339H263.796V337.439H265.357ZM263.796 337.439V339H262.235V337.439H263.796ZM262.235 337.439V339H260.674V337.439H262.235ZM260.674 337.439V339H259.113V337.439H260.674ZM259.113 337.439V339H257.552V337.439H259.113ZM257.552 337.439V339H255.991V337.439H257.552ZM255.991 337.439V339H254.43V337.439H255.991ZM257.552 335.878V337.439H255.991V335.878H257.552ZM259.113 335.878V337.439H257.552V335.878H259.113ZM260.674 335.878V337.439H259.113V335.878H260.674ZM262.235 335.878V337.439H260.674V335.878H262.235ZM263.796 335.878V337.439H262.235V335.878H263.796ZM265.357 335.878V337.439H263.796V335.878H265.357ZM265.357 334.317V335.878H263.796V334.317H265.357ZM263.796 334.317V335.878H262.235V334.317H263.796ZM262.235 334.317V335.878H260.674V334.317H262.235ZM260.674 334.317V335.878H259.113V334.317H260.674ZM259.113 334.317V335.878H257.552V334.317H259.113ZM257.552 334.317V335.878H255.991V334.317H257.552ZM255.991 335.878V337.439H254.43V335.878H255.991ZM254.43 335.878V337.439H252.869V335.878H254.43ZM252.869 335.878V337.439H251.308V335.878H252.869ZM252.869 334.317V335.878H251.308V334.317H252.869ZM251.308 334.317V335.878H249.747V334.317H251.308ZM251.308 332.756V334.317H249.747V332.756H251.308ZM252.869 332.756V334.317H251.308V332.756H252.869ZM254.43 332.756V334.317H252.869V332.756H254.43ZM255.991 332.756V334.317H254.43V332.756H255.991ZM257.552 332.756V334.317H255.991V332.756H257.552ZM259.113 332.756V334.317H257.552V332.756H259.113ZM260.674 332.756V334.317H259.113V332.756H260.674ZM262.235 332.756V334.317H260.674V332.756H262.235ZM263.796 332.756V334.317H262.235V332.756H263.796ZM255.991 334.317V335.878H254.43V334.317H255.991ZM254.43 334.317V335.878H252.869V334.317H254.43ZM270.04 324.951V326.512H268.479V324.951H270.04ZM273.162 326.512V328.073H271.601V326.512H273.162ZM271.601 326.512V328.073H270.04V326.512H271.601ZM270.04 326.512V328.073H268.479V326.512H270.04ZM268.479 326.512V328.073H266.918V326.512H268.479ZM268.479 324.951V326.512H266.918V324.951H268.479ZM266.918 324.951V326.512H265.357V324.951H266.918ZM266.918 326.512V328.073H265.357V326.512H266.918ZM257.552 318.707V320.268H255.991V318.707H257.552ZM251.308 320.268V321.829H249.747V320.268H251.308ZM251.308 321.829V323.39H249.747V321.829H251.308ZM252.869 321.829V323.39H251.308V321.829H252.869ZM252.869 323.39V324.951H251.308V323.39H252.869ZM254.43 323.39V324.951H252.869V323.39H254.43ZM255.991 324.951V326.512H254.43V324.951H255.991ZM255.991 323.39V324.951H254.43V323.39H255.991ZM255.991 321.829V323.39H254.43V321.829H255.991ZM255.991 320.268V321.829H254.43V320.268H255.991ZM254.43 320.268V321.829H252.869V320.268H254.43ZM254.43 321.829V323.39H252.869V321.829H254.43ZM252.869 320.268V321.829H251.308V320.268H252.869ZM257.552 324.951V326.512H255.991V324.951H257.552ZM259.113 324.951V326.512H257.552V324.951H259.113ZM260.674 324.951V326.512H259.113V324.951H260.674ZM262.235 324.951V326.512H260.674V324.951H262.235ZM262.235 323.39V324.951H260.674V323.39H262.235ZM260.674 323.39V324.951H259.113V323.39H260.674ZM259.113 323.39V324.951H257.552V323.39H259.113ZM257.552 323.39V324.951H255.991V323.39H257.552ZM257.552 321.829V323.39H255.991V321.829H257.552ZM257.552 320.268V321.829H255.991V320.268H257.552ZM259.113 320.268V321.829H257.552V320.268H259.113ZM260.674 320.268V321.829H259.113V320.268H260.674ZM262.235 320.268V321.829H260.674V320.268H262.235ZM262.235 321.829V323.39H260.674V321.829H262.235ZM260.674 321.829V323.39H259.113V321.829H260.674ZM259.113 321.829V323.39H257.552V321.829H259.113ZM263.796 320.268V321.829H262.235V320.268H263.796ZM265.357 320.268V321.829H263.796V320.268H265.357ZM265.357 321.829V323.39H263.796V321.829H265.357ZM265.357 323.39V324.951H263.796V323.39H265.357ZM265.357 324.951V326.512H263.796V324.951H265.357ZM263.796 324.951V326.512H262.235V324.951H263.796ZM263.796 323.39V324.951H262.235V323.39H263.796ZM263.796 321.829V323.39H262.235V321.829H263.796ZM265.357 326.512V328.073H263.796V326.512H265.357ZM266.918 320.268V321.829H265.357V320.268H266.918ZM271.601 324.951V326.512H270.04V324.951H271.601ZM271.601 323.39V324.951H270.04V323.39H271.601ZM270.04 321.829V323.39H268.479V321.829H270.04ZM268.479 321.829V323.39H266.918V321.829H268.479ZM266.918 321.829V323.39H265.357V321.829H266.918ZM266.918 323.39V324.951H265.357V323.39H266.918ZM268.479 323.39V324.951H266.918V323.39H268.479ZM270.04 323.39V324.951H268.479V323.39H270.04ZM265.357 315.585V317.146H263.796V315.585H265.357Z" fill="#5D5D5D"/>
</svg>
