<svg width="344" height="364" viewBox="0 0 344 364" fill="none" xmlns="http://www.w3.org/2000/svg">
<path d="M171.5 58L9.00024 217.25H259C259 156 229 98.425 177.75 62.9L171.5 58Z" stroke="#5D5D5D" stroke-width="18" stroke-miterlimit="10" stroke-linecap="round" stroke-linejoin="round"/>
<path d="M334 217.25C334 136.4 294 61.675 227.75 15.125L220.25 9C192.75 9 171.5 29.825 171.5 56.775V58" stroke="#5D5D5D" stroke-width="18" stroke-miterlimit="10" stroke-linecap="round" stroke-linejoin="round"/>
<path d="M184 180.5C197.807 180.5 209 169.531 209 156C209 142.469 197.807 131.5 184 131.5C170.193 131.5 159 142.469 159 156C159 169.531 170.193 180.5 184 180.5Z" stroke="#5D5D5D" stroke-width="18" stroke-miterlimit="10" stroke-linecap="round" stroke-linejoin="round"/>
<path d="M109 168.25V180.5" stroke="#5D5D5D" stroke-width="18" stroke-miterlimit="10" stroke-linecap="round" stroke-linejoin="round"/>
<path d="M302.75 180.5C279 176.825 259 193.975 259 217.25H9.00024V254H102.75C120.25 254 134 267.475 134 284.625C134 294.425 142.75 303 152.75 303C162.75 303 171.5 294.425 171.5 284.625C171.5 267.475 185.25 254 202.75 254H296.5C319 254 337.75 234.4 334 211.125C330.25 195.2 319 184.175 302.75 180.5Z" stroke="#5D5D5D" stroke-width="18" stroke-miterlimit="10" stroke-linecap="round" stroke-linejoin="round"/>
<path d="M72.6832 356.195V357.756H71.1222V356.195H72.6832ZM72.6832 354.634V356.195H71.1222V354.634H72.6832ZM72.6832 353.073V354.634H71.1222V353.073H72.6832ZM72.6832 351.512V353.073H71.1222V351.512H72.6832ZM72.6832 340.585V342.146H71.1222V340.585H72.6832ZM74.2441 340.585V342.146H72.6832V340.585H74.2441ZM74.2441 342.146V343.707H72.6832V342.146H74.2441ZM74.2441 343.707V345.268H72.6832V343.707H74.2441ZM75.8051 351.512V353.073H74.2441V351.512H75.8051ZM75.8051 353.073V354.634H74.2441V353.073H75.8051ZM75.8051 354.634V356.195H74.2441V354.634H75.8051ZM75.8051 356.195V357.756H74.2441V356.195H75.8051ZM75.8051 357.756V359.317H74.2441V357.756H75.8051ZM75.8051 359.317V360.878H74.2441V359.317H75.8051ZM75.8051 360.878V362.439H74.2441V360.878H75.8051ZM78.9271 362.439V364H77.3661V362.439H78.9271ZM78.9271 360.878V362.439H77.3661V360.878H78.9271ZM78.9271 359.317V360.878H77.3661V359.317H78.9271ZM78.9271 357.756V359.317H77.3661V357.756H78.9271ZM78.9271 356.195V357.756H77.3661V356.195H78.9271ZM78.9271 354.634V356.195H77.3661V354.634H78.9271ZM78.9271 353.073V354.634H77.3661V353.073H78.9271ZM78.9271 351.512V353.073H77.3661V351.512H78.9271ZM77.3661 351.512V353.073H75.8051V351.512H77.3661ZM77.3661 353.073V354.634H75.8051V353.073H77.3661ZM77.3661 354.634V356.195H75.8051V354.634H77.3661ZM77.3661 356.195V357.756H75.8051V356.195H77.3661ZM77.3661 357.756V359.317H75.8051V357.756H77.3661ZM77.3661 359.317V360.878H75.8051V359.317H77.3661ZM77.3661 360.878V362.439H75.8051V360.878H77.3661ZM74.2441 359.317V360.878H72.6832V359.317H74.2441ZM74.2441 357.756V359.317H72.6832V357.756H74.2441ZM74.2441 356.195V357.756H72.6832V356.195H74.2441ZM74.2441 354.634V356.195H72.6832V354.634H74.2441ZM74.2441 353.073V354.634H72.6832V353.073H74.2441ZM74.2441 351.512V353.073H72.6832V351.512H74.2441ZM72.6832 339.024V340.585H71.1222V339.024H72.6832ZM77.3661 339.024V340.585H75.8051V339.024H77.3661ZM77.3661 340.585V342.146H75.8051V340.585H77.3661ZM77.3661 342.146V343.707H75.8051V342.146H77.3661ZM77.3661 343.707V345.268H75.8051V343.707H77.3661ZM77.3661 345.268V346.829H75.8051V345.268H77.3661ZM78.9271 346.829V348.39H77.3661V346.829H78.9271ZM78.9271 345.268V346.829H77.3661V345.268H78.9271ZM78.9271 343.707V345.268H77.3661V343.707H78.9271ZM78.9271 342.146V343.707H77.3661V342.146H78.9271ZM78.9271 340.585V342.146H77.3661V340.585H78.9271ZM78.9271 339.024V340.585H77.3661V339.024H78.9271ZM74.2441 339.024V340.585H72.6832V339.024H74.2441ZM75.8051 339.024V340.585H74.2441V339.024H75.8051ZM75.8051 340.585V342.146H74.2441V340.585H75.8051ZM75.8051 342.146V343.707H74.2441V342.146H75.8051ZM75.8051 343.707V345.268H74.2441V343.707H75.8051ZM75.8051 345.268V346.829H74.2441V345.268H75.8051ZM91.4149 362.439V364H89.8539V362.439H91.4149ZM91.4149 360.878V362.439H89.8539V360.878H91.4149ZM91.4149 359.317V360.878H89.8539V359.317H91.4149ZM91.4149 357.756V359.317H89.8539V357.756H91.4149ZM91.4149 356.195V357.756H89.8539V356.195H91.4149ZM91.4149 354.634V356.195H89.8539V354.634H91.4149ZM91.4149 353.073V354.634H89.8539V353.073H91.4149ZM91.4149 351.512V353.073H89.8539V351.512H91.4149ZM91.4149 349.951V351.512H89.8539V349.951H91.4149ZM91.4149 348.39V349.951H89.8539V348.39H91.4149ZM91.4149 346.829V348.39H89.8539V346.829H91.4149ZM91.4149 345.268V346.829H89.8539V345.268H91.4149ZM91.4149 343.707V345.268H89.8539V343.707H91.4149ZM91.4149 342.146V343.707H89.8539V342.146H91.4149ZM91.4149 340.585V342.146H89.8539V340.585H91.4149ZM92.9759 342.146V343.707H91.4149V342.146H92.9759ZM92.9759 343.707V345.268H91.4149V343.707H92.9759ZM92.9759 345.268V346.829H91.4149V345.268H92.9759ZM92.9759 346.829V348.39H91.4149V346.829H92.9759ZM92.9759 348.39V349.951H91.4149V348.39H92.9759ZM92.9759 349.951V351.512H91.4149V349.951H92.9759ZM94.5368 351.512V353.073H92.9759V351.512H94.5368ZM94.5368 353.073V354.634H92.9759V353.073H94.5368ZM94.5368 354.634V356.195H92.9759V354.634H94.5368ZM94.5368 356.195V357.756H92.9759V356.195H94.5368ZM94.5368 357.756V359.317H92.9759V357.756H94.5368ZM94.5368 359.317V360.878H92.9759V359.317H94.5368ZM94.5368 360.878V362.439H92.9759V360.878H94.5368ZM97.6588 356.195V357.756H96.0978V356.195H97.6588ZM97.6588 354.634V356.195H96.0978V354.634H97.6588ZM97.6588 353.073V354.634H96.0978V353.073H97.6588ZM97.6588 351.512V353.073H96.0978V351.512H97.6588ZM96.0978 351.512V353.073H94.5368V351.512H96.0978ZM96.0978 349.951V351.512H94.5368V349.951H96.0978ZM96.0978 353.073V354.634H94.5368V353.073H96.0978ZM96.0978 354.634V356.195H94.5368V354.634H96.0978ZM96.0978 356.195V357.756H94.5368V356.195H96.0978ZM96.0978 357.756V359.317H94.5368V357.756H96.0978ZM96.0978 359.317V360.878H94.5368V359.317H96.0978ZM92.9759 360.878V362.439H91.4149V360.878H92.9759ZM92.9759 359.317V360.878H91.4149V359.317H92.9759ZM92.9759 357.756V359.317H91.4149V357.756H92.9759ZM92.9759 356.195V357.756H91.4149V356.195H92.9759ZM92.9759 354.634V356.195H91.4149V354.634H92.9759ZM92.9759 353.073V354.634H91.4149V353.073H92.9759ZM92.9759 351.512V353.073H91.4149V351.512H92.9759ZM96.0978 345.268V346.829H94.5368V345.268H96.0978ZM97.6588 346.829V348.39H96.0978V346.829H97.6588ZM97.6588 348.39V349.951H96.0978V348.39H97.6588ZM97.6588 349.951V351.512H96.0978V349.951H97.6588ZM94.5368 342.146V343.707H92.9759V342.146H94.5368ZM94.5368 343.707V345.268H92.9759V343.707H94.5368ZM94.5368 345.268V346.829H92.9759V345.268H94.5368ZM94.5368 346.829V348.39H92.9759V346.829H94.5368ZM94.5368 348.39V349.951H92.9759V348.39H94.5368ZM94.5368 349.951V351.512H92.9759V349.951H94.5368ZM96.0978 348.39V349.951H94.5368V348.39H96.0978ZM96.0978 346.829V348.39H94.5368V346.829H96.0978ZM80.488 362.439V364H78.9271V362.439H80.488ZM82.049 362.439V364H80.488V362.439H82.049ZM83.61 362.439V364H82.049V362.439H83.61ZM86.732 362.439V364H85.171V362.439H86.732ZM88.2929 362.439V364H86.732V362.439H88.2929ZM89.8539 362.439V364H88.2929V362.439H89.8539ZM89.8539 360.878V362.439H88.2929V360.878H89.8539ZM88.2929 360.878V362.439H86.732V360.878H88.2929ZM86.732 360.878V362.439H85.171V360.878H86.732ZM83.61 360.878V362.439H82.049V360.878H83.61ZM82.049 360.878V362.439H80.488V360.878H82.049ZM80.488 360.878V362.439H78.9271V360.878H80.488ZM80.488 359.317V360.878H78.9271V359.317H80.488ZM82.049 359.317V360.878H80.488V359.317H82.049ZM83.61 359.317V360.878H82.049V359.317H83.61ZM86.732 359.317V360.878H85.171V359.317H86.732ZM88.2929 359.317V360.878H86.732V359.317H88.2929ZM89.8539 359.317V360.878H88.2929V359.317H89.8539ZM89.8539 357.756V359.317H88.2929V357.756H89.8539ZM88.2929 357.756V359.317H86.732V357.756H88.2929ZM86.732 357.756V359.317H85.171V357.756H86.732ZM83.61 357.756V359.317H82.049V357.756H83.61ZM82.049 357.756V359.317H80.488V357.756H82.049ZM80.488 357.756V359.317H78.9271V357.756H80.488ZM80.488 356.195V357.756H78.9271V356.195H80.488ZM89.8539 356.195V357.756H88.2929V356.195H89.8539ZM96.0978 332.78V331.22H97.6588V332.78H96.0978ZM96.0978 334.341V332.78H97.6588V334.341H96.0978ZM96.0978 335.902V334.341H97.6588V335.902H96.0978ZM92.9759 335.902V334.341H94.5368V335.902H92.9759ZM92.9759 334.341V332.78H94.5368V334.341H92.9759ZM92.9759 332.78V331.22H94.5368V332.78H92.9759ZM92.9759 331.22V329.659H94.5368V331.22H92.9759ZM92.9759 329.659V328.098H94.5368V329.659H92.9759ZM92.9759 328.098V326.537H94.5368V328.098H92.9759ZM89.8539 326.537V324.976H91.4149V326.537H89.8539ZM89.8539 328.098V326.537H91.4149V328.098H89.8539ZM89.8539 329.659V328.098H91.4149V329.659H89.8539ZM89.8539 331.22V329.659H91.4149V331.22H89.8539ZM89.8539 332.78V331.22H91.4149V332.78H89.8539ZM89.8539 334.341V332.78H91.4149V334.341H89.8539ZM89.8539 335.902V334.341H91.4149V335.902H89.8539ZM91.4149 335.902V334.341H92.9759V335.902H91.4149ZM91.4149 334.341V332.78H92.9759V334.341H91.4149ZM91.4149 332.78V331.22H92.9759V332.78H91.4149ZM91.4149 331.22V329.659H92.9759V331.22H91.4149ZM91.4149 329.659V328.098H92.9759V329.659H91.4149ZM91.4149 328.098V326.537H92.9759V328.098H91.4149ZM94.5368 329.659V328.098H96.0978V329.659H94.5368ZM94.5368 331.22V329.659H96.0978V331.22H94.5368ZM94.5368 332.78V331.22H96.0978V332.78H94.5368ZM94.5368 334.341V332.78H96.0978V334.341H94.5368ZM94.5368 335.902V334.341H96.0978V335.902H94.5368ZM77.3661 326.537V324.976H78.9271V326.537H77.3661ZM77.3661 328.098V326.537H78.9271V328.098H77.3661ZM77.3661 329.659V328.098H78.9271V329.659H77.3661ZM77.3661 331.22V329.659H78.9271V331.22H77.3661ZM77.3661 332.78V331.22H78.9271V332.78H77.3661ZM77.3661 334.341V332.78H78.9271V334.341H77.3661ZM77.3661 335.902V334.341H78.9271V335.902H77.3661ZM74.2441 335.902V334.341H75.8051V335.902H74.2441ZM74.2441 334.341V332.78H75.8051V334.341H74.2441ZM74.2441 332.78V331.22H75.8051V332.78H74.2441ZM74.2441 331.22V329.659H75.8051V331.22H74.2441ZM74.2441 329.659V328.098H75.8051V329.659H74.2441ZM74.2441 328.098V326.537H75.8051V328.098H74.2441ZM71.1222 332.78V331.22H72.6832V332.78H71.1222ZM71.1222 334.341V332.78H72.6832V334.341H71.1222ZM71.1222 335.902V334.341H72.6832V335.902H71.1222ZM72.6832 335.902V334.341H74.2441V335.902H72.6832ZM72.6832 334.341V332.78H74.2441V334.341H72.6832ZM72.6832 332.78V331.22H74.2441V332.78H72.6832ZM72.6832 331.22V329.659H74.2441V331.22H72.6832ZM72.6832 329.659V328.098H74.2441V329.659H72.6832ZM75.8051 328.098V326.537H77.3661V328.098H75.8051ZM75.8051 329.659V328.098H77.3661V329.659H75.8051ZM75.8051 331.22V329.659H77.3661V331.22H75.8051ZM75.8051 332.78V331.22H77.3661V332.78H75.8051ZM75.8051 334.341V332.78H77.3661V334.341H75.8051ZM75.8051 335.902V334.341H77.3661V335.902H75.8051ZM88.2929 326.537V324.976H89.8539V326.537H88.2929ZM86.732 326.537V324.976H88.2929V326.537H86.732ZM85.171 326.537V324.976H86.732V326.537H85.171ZM82.049 326.537V324.976H83.61V326.537H82.049ZM80.488 326.537V324.976H82.049V326.537H80.488ZM78.9271 326.537V324.976H80.488V326.537H78.9271ZM78.9271 328.098V326.537H80.488V328.098H78.9271ZM80.488 328.098V326.537H82.049V328.098H80.488ZM82.049 328.098V326.537H83.61V328.098H82.049ZM85.171 328.098V326.537H86.732V328.098H85.171ZM86.732 328.098V326.537H88.2929V328.098H86.732ZM88.2929 328.098V326.537H89.8539V328.098H88.2929ZM88.2929 329.659V328.098H89.8539V329.659H88.2929ZM86.732 329.659V328.098H88.2929V329.659H86.732ZM85.171 329.659V328.098H86.732V329.659H85.171ZM82.049 329.659V328.098H83.61V329.659H82.049ZM80.488 329.659V328.098H82.049V329.659H80.488ZM78.9271 329.659V328.098H80.488V329.659H78.9271ZM78.9271 331.22V329.659H80.488V331.22H78.9271ZM80.488 331.22V329.659H82.049V331.22H80.488ZM82.049 331.22V329.659H83.61V331.22H82.049ZM85.171 331.22V329.659H86.732V331.22H85.171ZM86.732 331.22V329.659H88.2929V331.22H86.732ZM88.2929 331.22V329.659H89.8539V331.22H88.2929ZM88.2929 332.78V331.22H89.8539V332.78H88.2929ZM78.9271 332.78V331.22H80.488V332.78H78.9271ZM72.6832 337.463V339.024H71.1222V337.463H72.6832ZM74.2441 337.463V339.024H72.6832V337.463H74.2441ZM72.6832 335.902V337.463H71.1222V335.902H72.6832ZM77.3661 335.902V337.463H75.8051V335.902H77.3661ZM77.3661 337.463V339.024H75.8051V337.463H77.3661ZM78.9271 337.463V339.024H77.3661V337.463H78.9271ZM78.9271 335.902V337.463H77.3661V335.902H78.9271ZM74.2441 335.902V337.463H72.6832V335.902H74.2441ZM75.8051 335.902V337.463H74.2441V335.902H75.8051ZM75.8051 337.463V339.024H74.2441V337.463H75.8051ZM82.049 356.195V357.756H80.488V356.195H82.049ZM83.61 356.195V357.756H82.049V356.195H83.61ZM86.732 356.195V357.756H85.171V356.195H86.732ZM88.2929 356.195V357.756H86.732V356.195H88.2929ZM89.8539 354.634V356.195H88.2929V354.634H89.8539ZM80.488 354.634V356.195H78.9271V354.634H80.488ZM82.049 331.22V332.78H80.488V331.22H82.049ZM83.61 331.22V332.78H82.049V331.22H83.61ZM86.732 331.22V332.78H85.171V331.22H86.732ZM88.2929 331.22V332.78H86.732V331.22H88.2929ZM89.8539 332.78V334.341H88.2929V332.78H89.8539ZM80.488 332.78V334.341H78.9271V332.78H80.488ZM83.61 343.707V345.268H82.049V343.707H83.61ZM86.732 343.707V345.268H85.171V343.707H86.732ZM88.2929 343.707V345.268H86.732V343.707H88.2929ZM89.8539 343.707V345.268H88.2929V343.707H89.8539ZM89.8539 345.268V346.829H88.2929V345.268H89.8539ZM88.2929 345.268V346.829H86.732V345.268H88.2929ZM86.732 345.268V346.829H85.171V345.268H86.732ZM83.61 345.268V346.829H82.049V345.268H83.61ZM83.61 340.585V342.146H82.049V340.585H83.61ZM86.732 340.585V342.146H85.171V340.585H86.732ZM88.2929 340.585V342.146H86.732V340.585H88.2929ZM89.8539 340.585V342.146H88.2929V340.585H89.8539ZM89.8539 342.146V343.707H88.2929V342.146H89.8539ZM88.2929 342.146V343.707H86.732V342.146H88.2929ZM86.732 342.146V343.707H85.171V342.146H86.732ZM83.61 342.146V343.707H82.049V342.146H83.61ZM83.61 346.829V348.39H82.049V346.829H83.61ZM86.732 346.829V348.39H85.171V346.829H86.732ZM88.2929 346.829V348.39H86.732V346.829H88.2929ZM89.8539 346.829V348.39H88.2929V346.829H89.8539ZM96.0978 343.707V345.268H94.5368V343.707H96.0978ZM89.8539 348.39V349.951H88.2929V348.39H89.8539ZM80.488 340.585V342.146H78.9271V340.585H80.488ZM82.049 340.585V342.146H80.488V340.585H82.049ZM80.488 339.024V340.585H78.9271V339.024H80.488ZM82.049 342.146V343.707H80.488V342.146H82.049ZM82.049 343.707V345.268H80.488V343.707H82.049ZM82.049 345.268V346.829H80.488V345.268H82.049ZM82.049 346.829V348.39H80.488V346.829H82.049ZM80.488 346.829V348.39H78.9271V346.829H80.488ZM80.488 345.268V346.829H78.9271V345.268H80.488ZM80.488 343.707V345.268H78.9271V343.707H80.488ZM80.488 342.146V343.707H78.9271V342.146H80.488ZM85.171 324.976V326.537H83.61V324.976H85.171ZM85.171 326.537V328.098H83.61V326.537H85.171ZM85.171 328.098V329.659H83.61V328.098H85.171ZM85.171 329.659V331.22H83.61V329.659H85.171ZM85.171 331.22V332.78H83.61V331.22H85.171ZM85.171 340.585V342.146H83.61V340.585H85.171ZM85.171 342.146V343.707H83.61V342.146H85.171ZM85.171 343.707V345.268H83.61V343.707H85.171ZM85.171 345.268V346.829H83.61V345.268H85.171ZM85.171 346.829V348.39H83.61V346.829H85.171ZM85.171 356.195V357.756H83.61V356.195H85.171ZM85.171 357.756V359.317H83.61V357.756H85.171ZM85.171 359.317V360.878H83.61V359.317H85.171ZM85.171 360.878V362.439H83.61V360.878H85.171ZM85.171 362.439V364H83.61V362.439H85.171ZM111.677 328.098V329.659H110.116V328.098H111.677ZM111.677 329.659V331.22H110.116V329.659H111.677ZM111.677 331.22V332.78H110.116V331.22H111.677ZM111.677 332.78V334.341H110.116V332.78H111.677ZM111.677 334.341V335.902H110.116V334.341H111.677ZM111.677 335.902V337.463H110.116V335.902H111.677ZM111.677 337.463V339.024H110.116V337.463H111.677ZM111.677 339.024V340.585H110.116V339.024H111.677ZM113.238 339.024V340.585H111.677V339.024H113.238ZM114.799 339.024V340.585H113.238V339.024H114.799ZM116.36 339.024V340.585H114.799V339.024H116.36ZM117.921 339.024V340.585H116.36V339.024H117.921ZM111.677 342.146V343.707H110.116V342.146H111.677ZM110.116 342.146V343.707H108.555V342.146H110.116ZM110.116 340.585V342.146H108.555V340.585H110.116ZM111.677 340.585V342.146H110.116V340.585H111.677ZM111.677 343.707V345.268H110.116V343.707H111.677ZM110.116 343.707V345.268H108.555V343.707H110.116ZM108.555 343.707V345.268H106.994V343.707H108.555ZM106.994 343.707V345.268H105.433V343.707H106.994ZM105.433 343.707V345.268H103.872V343.707H105.433ZM102.311 339.024V340.585H100.75V339.024H102.311ZM103.872 339.024V340.585H102.311V339.024H103.872ZM105.433 339.024V340.585H103.872V339.024H105.433ZM106.994 339.024V340.585H105.433V339.024H106.994ZM108.555 339.024V340.585H106.994V339.024H108.555ZM110.116 339.024V340.585H108.555V339.024H110.116ZM108.555 342.146V343.707H106.994V342.146H108.555ZM108.555 340.585V342.146H106.994V340.585H108.555ZM106.994 340.585V342.146H105.433V340.585H106.994ZM105.433 340.585V342.146H103.872V340.585H105.433ZM105.433 342.146V343.707H103.872V342.146H105.433ZM106.994 342.146V343.707H105.433V342.146H106.994ZM110.116 329.659V331.22H108.555V329.659H110.116ZM110.116 331.22V332.78H108.555V331.22H110.116ZM108.555 331.22V332.78H106.994V331.22H108.555ZM108.555 332.78V334.341H106.994V332.78H108.555ZM108.555 334.341V335.902H106.994V334.341H108.555ZM106.994 332.78V334.341H105.433V332.78H106.994ZM106.994 334.341V335.902H105.433V334.341H106.994ZM105.433 334.341V335.902H103.872V334.341H105.433ZM105.433 335.902V337.463H103.872V335.902H105.433ZM105.433 337.463V339.024H103.872V337.463H105.433ZM108.555 337.463V339.024H106.994V337.463H108.555ZM110.116 337.463V339.024H108.555V337.463H110.116ZM110.116 335.902V337.463H108.555V335.902H110.116ZM110.116 334.341V335.902H108.555V334.341H110.116ZM110.116 332.78V334.341H108.555V332.78H110.116ZM108.555 335.902V337.463H106.994V335.902H108.555ZM106.994 337.463V339.024H105.433V337.463H106.994ZM106.994 335.902V337.463H105.433V335.902H106.994ZM117.921 357.756V359.317H116.36V357.756H117.921ZM117.921 359.317V360.878H116.36V359.317H117.921ZM117.921 362.439V364H116.36V362.439H117.921ZM116.36 362.439V364H114.799V362.439H116.36ZM114.799 362.439V364H113.238V362.439H114.799ZM113.238 362.439V364H111.677V362.439H113.238ZM111.677 362.439V364H110.116V362.439H111.677ZM111.677 360.878V362.439H110.116V360.878H111.677ZM110.116 360.878V362.439H108.555V360.878H110.116ZM108.555 360.878V362.439H106.994V360.878H108.555ZM108.555 359.317V360.878H106.994V359.317H108.555ZM106.994 359.317V360.878H105.433V359.317H106.994ZM106.994 357.756V359.317H105.433V357.756H106.994ZM106.994 356.195V357.756H105.433V356.195H106.994ZM105.433 356.195V357.756H103.872V356.195H105.433ZM105.433 354.634V356.195H103.872V354.634H105.433ZM105.433 353.073V354.634H103.872V353.073H105.433ZM105.433 351.512V353.073H103.872V351.512H105.433ZM105.433 349.951V351.512H103.872V349.951H105.433ZM105.433 348.39V349.951H103.872V348.39H105.433ZM105.433 346.829V348.39H103.872V346.829H105.433ZM105.433 345.268V346.829H103.872V345.268H105.433ZM106.994 345.268V346.829H105.433V345.268H106.994ZM108.555 345.268V346.829H106.994V345.268H108.555ZM110.116 345.268V346.829H108.555V345.268H110.116ZM111.677 345.268V346.829H110.116V345.268H111.677ZM111.677 346.829V348.39H110.116V346.829H111.677ZM111.677 348.39V349.951H110.116V348.39H111.677ZM111.677 349.951V351.512H110.116V349.951H111.677ZM111.677 351.512V353.073H110.116V351.512H111.677ZM111.677 353.073V354.634H110.116V353.073H111.677ZM111.677 354.634V356.195H110.116V354.634H111.677ZM111.677 356.195V357.756H110.116V356.195H111.677ZM113.238 356.195V357.756H111.677V356.195H113.238ZM113.238 357.756V359.317H111.677V357.756H113.238ZM114.799 357.756V359.317H113.238V357.756H114.799ZM114.799 359.317V360.878H113.238V359.317H114.799ZM116.36 359.317V360.878H114.799V359.317H116.36ZM116.36 357.756V359.317H114.799V357.756H116.36ZM117.921 360.878V362.439H116.36V360.878H117.921ZM116.36 360.878V362.439H114.799V360.878H116.36ZM114.799 360.878V362.439H113.238V360.878H114.799ZM113.238 360.878V362.439H111.677V360.878H113.238ZM113.238 359.317V360.878H111.677V359.317H113.238ZM111.677 359.317V360.878H110.116V359.317H111.677ZM111.677 357.756V359.317H110.116V357.756H111.677ZM110.116 357.756V359.317H108.555V357.756H110.116ZM110.116 359.317V360.878H108.555V359.317H110.116ZM108.555 357.756V359.317H106.994V357.756H108.555ZM110.116 356.195V357.756H108.555V356.195H110.116ZM110.116 354.634V356.195H108.555V354.634H110.116ZM108.555 356.195V357.756H106.994V356.195H108.555ZM108.555 354.634V356.195H106.994V354.634H108.555ZM110.116 353.073V354.634H108.555V353.073H110.116ZM110.116 351.512V353.073H108.555V351.512H110.116ZM110.116 349.951V351.512H108.555V349.951H110.116ZM110.116 348.39V349.951H108.555V348.39H110.116ZM110.116 346.829V348.39H108.555V346.829H110.116ZM108.555 346.829V348.39H106.994V346.829H108.555ZM106.994 346.829V348.39H105.433V346.829H106.994ZM106.994 348.39V349.951H105.433V348.39H106.994ZM106.994 349.951V351.512H105.433V349.951H106.994ZM106.994 351.512V353.073H105.433V351.512H106.994ZM106.994 353.073V354.634H105.433V353.073H106.994ZM106.994 354.634V356.195H105.433V354.634H106.994ZM108.555 353.073V354.634H106.994V353.073H108.555ZM108.555 351.512V353.073H106.994V351.512H108.555ZM108.555 349.951V351.512H106.994V349.951H108.555ZM108.555 348.39V349.951H106.994V348.39H108.555ZM117.921 335.902V337.463H116.36V335.902H117.921ZM116.36 335.902V337.463H114.799V335.902H116.36ZM116.36 337.463V339.024H114.799V337.463H116.36ZM117.921 337.463V339.024H116.36V337.463H117.921ZM114.799 337.463V339.024H113.238V337.463H114.799ZM113.238 337.463V339.024H111.677V337.463H113.238ZM113.238 335.902V337.463H111.677V335.902H113.238ZM114.799 335.902V337.463H113.238V335.902H114.799ZM105.433 332.78V334.341H103.872V332.78H105.433ZM106.994 331.22V332.78H105.433V331.22H106.994ZM108.555 329.659V331.22H106.994V329.659H108.555ZM110.116 328.098V329.659H108.555V328.098H110.116ZM103.872 335.902V337.463H102.311V335.902H103.872ZM103.872 337.463V339.024H102.311V337.463H103.872ZM102.311 337.463V339.024H100.75V337.463H102.311ZM102.311 335.902V337.463H100.75V335.902H102.311ZM111.677 326.537V328.098H110.116V326.537H111.677ZM102.311 340.585V342.146H100.75V340.585H102.311ZM103.872 340.585V342.146H102.311V340.585H103.872ZM113.238 340.585V342.146H111.677V340.585H113.238ZM114.799 340.585V342.146H113.238V340.585H114.799ZM116.36 340.585V342.146H114.799V340.585H116.36ZM117.921 340.585V342.146H116.36V340.585H117.921ZM127.305 354.634V353.073H128.866V354.634H127.305ZM125.744 354.634V353.073H127.305V354.634H125.744ZM124.183 354.634V353.073H125.744V354.634H124.183ZM122.622 354.634V353.073H124.183V354.634H122.622ZM121.061 354.634V353.073H122.622V354.634H121.061ZM121.061 356.195V354.634H122.622V356.195H121.061ZM121.061 357.756V356.195H122.622V357.756H121.061ZM122.622 357.756V356.195H124.183V357.756H122.622ZM124.183 357.756V356.195H125.744V357.756H124.183ZM125.744 357.756V356.195H127.305V357.756H125.744ZM125.744 356.195V354.634H127.305V356.195H125.744ZM127.305 356.195V354.634H128.866V356.195H127.305ZM124.183 356.195V354.634H125.744V356.195H124.183ZM122.622 356.195V354.634H124.183V356.195H122.622ZM127.305 357.756V356.195H128.866V357.756H127.305ZM128.866 357.756V356.195H130.427V357.756H128.866ZM128.866 359.317V357.756H130.427V359.317H128.866ZM127.305 359.317V357.756H128.866V359.317H127.305ZM125.744 359.317V357.756H127.305V359.317H125.744ZM124.183 359.317V357.756H125.744V359.317H124.183ZM122.622 359.317V357.756H124.183V359.317H122.622ZM122.622 360.878V359.317H124.183V360.878H122.622ZM124.183 360.878V359.317H125.744V360.878H124.183ZM125.744 360.878V359.317H127.305V360.878H125.744ZM127.305 360.878V359.317H128.866V360.878H127.305ZM128.866 360.878V359.317H130.427V360.878H128.866ZM125.744 362.439V360.878H127.305V362.439H125.744ZM124.183 362.439V360.878H125.744V362.439H124.183ZM127.305 362.439V360.878H128.866V362.439H127.305ZM127.305 364V362.439H128.866V364H127.305ZM128.866 364V362.439H130.427V364H128.866ZM128.866 362.439V360.878H130.427V362.439H128.866ZM130.427 362.439V360.878H131.988V362.439H130.427ZM130.427 364V362.439H131.988V364H130.427ZM130.427 360.878V359.317H131.988V360.878H130.427ZM131.988 360.878V359.317H133.549V360.878H131.988ZM131.988 359.317V357.756H133.549V359.317H131.988ZM130.427 359.317V357.756H131.988V359.317H130.427ZM133.549 359.317V357.756H135.11V359.317H133.549ZM133.549 360.878V359.317H135.11V360.878H133.549ZM133.549 362.439V360.878H135.11V362.439H133.549ZM133.549 364V362.439H135.11V364H133.549ZM131.988 364V362.439H133.549V364H131.988ZM131.988 362.439V360.878H133.549V362.439H131.988ZM135.11 364V362.439H136.671V364H135.11ZM138.232 362.439V360.878H139.793V362.439H138.232ZM138.232 360.878V359.317H139.793V360.878H138.232ZM138.232 359.317V357.756H139.793V359.317H138.232ZM136.671 359.317V357.756H138.232V359.317H136.671ZM135.11 359.317V357.756H136.671V359.317H135.11ZM135.11 360.878V359.317H136.671V360.878H135.11ZM135.11 362.439V360.878H136.671V362.439H135.11ZM136.671 362.439V360.878H138.232V362.439H136.671ZM136.671 360.878V359.317H138.232V360.878H136.671ZM139.793 360.878V359.317H141.354V360.878H139.793ZM139.793 362.439V360.878H141.354V362.439H139.793ZM141.354 362.439V360.878H142.915V362.439H141.354ZM141.354 360.878V359.317H142.915V360.878H141.354ZM142.915 360.878V359.317H144.476V360.878H142.915ZM142.915 359.317V357.756H144.476V359.317H142.915ZM142.915 357.756V356.195H144.476V357.756H142.915ZM141.354 357.756V356.195H142.915V357.756H141.354ZM141.354 359.317V357.756H142.915V359.317H141.354ZM139.793 359.317V357.756H141.354V359.317H139.793ZM139.793 357.756V356.195H141.354V357.756H139.793ZM138.232 357.756V356.195H139.793V357.756H138.232ZM144.476 357.756V356.195H146.037V357.756H144.476ZM144.476 356.195V354.634H146.037V356.195H144.476ZM144.476 354.634V353.073H146.037V354.634H144.476ZM144.476 353.073V351.512H146.037V353.073H144.476ZM144.476 351.512V349.951H146.037V351.512H144.476ZM144.476 349.951V348.39H146.037V349.951H144.476ZM144.476 348.39V346.829H146.037V348.39H144.476ZM144.476 346.829V345.268H146.037V346.829H144.476ZM144.476 345.268V343.707H146.037V345.268H144.476ZM144.476 343.707V342.146H146.037V343.707H144.476ZM142.915 343.707V342.146H144.476V343.707H142.915ZM142.915 342.146V340.585H144.476V342.146H142.915ZM144.476 342.146V340.585H146.037V342.146H144.476ZM141.354 342.146V340.585H142.915V342.146H141.354ZM139.793 342.146V340.585H141.354V342.146H139.793ZM138.232 342.146V340.585H139.793V342.146H138.232ZM136.671 342.146V340.585H138.232V342.146H136.671ZM138.232 343.707V342.146H139.793V343.707H138.232ZM138.232 345.268V343.707H139.793V345.268H138.232ZM138.232 346.829V345.268H139.793V346.829H138.232ZM138.232 348.39V346.829H139.793V348.39H138.232ZM138.232 349.951V348.39H139.793V349.951H138.232ZM138.232 351.512V349.951H139.793V351.512H138.232ZM138.232 353.073V351.512H139.793V353.073H138.232ZM138.232 354.634V353.073H139.793V354.634H138.232ZM138.232 356.195V354.634H139.793V356.195H138.232ZM139.793 356.195V354.634H141.354V356.195H139.793ZM141.354 356.195V354.634H142.915V356.195H141.354ZM142.915 356.195V354.634H144.476V356.195H142.915ZM142.915 354.634V353.073H144.476V354.634H142.915ZM142.915 353.073V351.512H144.476V353.073H142.915ZM142.915 351.512V349.951H144.476V351.512H142.915ZM142.915 349.951V348.39H144.476V349.951H142.915ZM142.915 348.39V346.829H144.476V348.39H142.915ZM142.915 346.829V345.268H144.476V346.829H142.915ZM142.915 345.268V343.707H144.476V345.268H142.915ZM141.354 343.707V342.146H142.915V343.707H141.354ZM139.793 343.707V342.146H141.354V343.707H139.793ZM139.793 345.268V343.707H141.354V345.268H139.793ZM139.793 346.829V345.268H141.354V346.829H139.793ZM139.793 348.39V346.829H141.354V348.39H139.793ZM139.793 349.951V348.39H141.354V349.951H139.793ZM141.354 349.951V348.39H142.915V349.951H141.354ZM141.354 351.512V349.951H142.915V351.512H141.354ZM141.354 353.073V351.512H142.915V353.073H141.354ZM141.354 354.634V353.073H142.915V354.634H141.354ZM139.793 354.634V353.073H141.354V354.634H139.793ZM139.793 353.073V351.512H141.354V353.073H139.793ZM139.793 351.512V349.951H141.354V351.512H139.793ZM141.354 346.829V345.268H142.915V346.829H141.354ZM141.354 345.268V343.707H142.915V345.268H141.354ZM141.354 348.39V346.829H142.915V348.39H141.354ZM127.305 343.707V342.146H128.866V343.707H127.305ZM125.744 343.707V342.146H127.305V343.707H125.744ZM124.183 343.707V342.146H125.744V343.707H124.183ZM122.622 343.707V342.146H124.183V343.707H122.622ZM121.061 343.707V342.146H122.622V343.707H121.061ZM121.061 342.146V340.585H122.622V342.146H121.061ZM122.622 342.146V340.585H124.183V342.146H122.622ZM124.183 342.146V340.585H125.744V342.146H124.183ZM125.744 342.146V340.585H127.305V342.146H125.744ZM127.305 342.146V340.585H128.866V342.146H127.305ZM128.866 342.146V340.585H130.427V342.146H128.866ZM128.866 340.585V339.024H130.427V340.585H128.866ZM127.305 340.585V339.024H128.866V340.585H127.305ZM125.744 340.585V339.024H127.305V340.585H125.744ZM124.183 340.585V339.024H125.744V340.585H124.183ZM124.183 339.024V337.463H125.744V339.024H124.183ZM122.622 339.024V337.463H124.183V339.024H122.622ZM122.622 340.585V339.024H124.183V340.585H122.622ZM124.183 337.463V335.902H125.744V337.463H124.183ZM125.744 337.463V335.902H127.305V337.463H125.744ZM125.744 339.024V337.463H127.305V339.024H125.744ZM127.305 339.024V337.463H128.866V339.024H127.305ZM127.305 337.463V335.902H128.866V337.463H127.305ZM127.305 335.902V334.341H128.866V335.902H127.305ZM128.866 335.902V334.341H130.427V335.902H128.866ZM130.427 335.902V334.341H131.988V335.902H130.427ZM131.988 335.902V334.341H133.549V335.902H131.988ZM133.549 335.902V334.341H135.11V335.902H133.549ZM135.11 335.902V334.341H136.671V335.902H135.11ZM136.671 335.902V334.341H138.232V335.902H136.671ZM138.232 335.902V334.341H139.793V335.902H138.232ZM136.671 337.463V335.902H138.232V337.463H136.671ZM135.11 337.463V335.902H136.671V337.463H135.11ZM133.549 337.463V335.902H135.11V337.463H133.549ZM131.988 337.463V335.902H133.549V337.463H131.988ZM130.427 337.463V335.902H131.988V337.463H130.427ZM128.866 337.463V335.902H130.427V337.463H128.866ZM128.866 339.024V337.463H130.427V339.024H128.866ZM130.427 339.024V337.463H131.988V339.024H130.427ZM131.988 339.024V337.463H133.549V339.024H131.988ZM133.549 339.024V337.463H135.11V339.024H133.549ZM135.11 339.024V337.463H136.671V339.024H135.11ZM136.671 339.024V337.463H138.232V339.024H136.671ZM138.232 337.463V335.902H139.793V337.463H138.232ZM139.793 337.463V335.902H141.354V337.463H139.793ZM141.354 337.463V335.902H142.915V337.463H141.354ZM141.354 339.024V337.463H142.915V339.024H141.354ZM142.915 339.024V337.463H144.476V339.024H142.915ZM142.915 340.585V339.024H144.476V340.585H142.915ZM141.354 340.585V339.024H142.915V340.585H141.354ZM139.793 340.585V339.024H141.354V340.585H139.793ZM138.232 340.585V339.024H139.793V340.585H138.232ZM136.671 340.585V339.024H138.232V340.585H136.671ZM135.11 340.585V339.024H136.671V340.585H135.11ZM133.549 340.585V339.024H135.11V340.585H133.549ZM131.988 340.585V339.024H133.549V340.585H131.988ZM130.427 340.585V339.024H131.988V340.585H130.427ZM138.232 339.024V337.463H139.793V339.024H138.232ZM139.793 339.024V337.463H141.354V339.024H139.793ZM122.622 353.073V351.512H124.183V353.073H122.622ZM124.183 353.073V351.512H125.744V353.073H124.183ZM125.744 353.073V351.512H127.305V353.073H125.744ZM127.305 353.073V351.512H128.866V353.073H127.305ZM124.183 351.512V349.951H125.744V351.512H124.183ZM125.744 351.512V349.951H127.305V351.512H125.744ZM128.866 351.512V349.951H130.427V351.512H128.866ZM130.427 351.512V349.951H131.988V351.512H130.427ZM131.988 351.512V349.951H133.549V351.512H131.988ZM133.549 351.512V349.951H135.11V351.512H133.549ZM135.11 351.512V349.951H136.671V351.512H135.11ZM136.671 351.512V349.951H138.232V351.512H136.671ZM127.305 351.512V349.951H128.866V351.512H127.305ZM122.622 351.512V349.951H124.183V351.512H122.622ZM124.183 349.951V348.39H125.744V349.951H124.183ZM125.744 349.951V348.39H127.305V349.951H125.744ZM127.305 349.951V348.39H128.866V349.951H127.305ZM128.866 349.951V348.39H130.427V349.951H128.866ZM130.427 349.951V348.39H131.988V349.951H130.427ZM131.988 349.951V348.39H133.549V349.951H131.988ZM133.549 349.951V348.39H135.11V349.951H133.549ZM135.11 349.951V348.39H136.671V349.951H135.11ZM136.671 349.951V348.39H138.232V349.951H136.671ZM136.671 348.39V346.829H138.232V348.39H136.671ZM135.11 348.39V346.829H136.671V348.39H135.11ZM133.549 348.39V346.829H135.11V348.39H133.549ZM130.427 348.39V346.829H131.988V348.39H130.427ZM128.866 348.39V346.829H130.427V348.39H128.866ZM127.305 348.39V346.829H128.866V348.39H127.305ZM131.988 348.39V346.829H133.549V348.39H131.988ZM146.037 357.756V359.317H144.476V357.756H146.037ZM146.037 359.317V360.878H144.476V359.317H146.037ZM146.037 360.878V362.439H144.476V360.878H146.037ZM146.037 362.439V364H144.476V362.439H146.037ZM144.476 362.439V364H142.915V362.439H144.476ZM144.476 360.878V362.439H142.915V360.878H144.476ZM142.915 362.439V364H141.354V362.439H142.915ZM141.354 362.439V364H139.793V362.439H141.354ZM139.793 362.439V364H138.232V362.439H139.793ZM138.232 356.195V357.756H136.671V356.195H138.232ZM127.305 362.439V364H125.744V362.439H127.305ZM130.427 351.512V353.073H128.866V351.512H130.427ZM153.871 362.439V364H152.31V362.439H153.871ZM153.871 360.878V362.439H152.31V360.878H153.871ZM153.871 359.317V360.878H152.31V359.317H153.871ZM153.871 357.756V359.317H152.31V357.756H153.871ZM153.871 356.195V357.756H152.31V356.195H153.871ZM153.871 354.634V356.195H152.31V354.634H153.871ZM153.871 353.073V354.634H152.31V353.073H153.871ZM153.871 351.512V353.073H152.31V351.512H153.871ZM153.871 349.951V351.512H152.31V349.951H153.871ZM153.871 348.39V349.951H152.31V348.39H153.871ZM153.871 346.829V348.39H152.31V346.829H153.871ZM153.871 345.268V346.829H152.31V345.268H153.871ZM153.871 343.707V345.268H152.31V343.707H153.871ZM153.871 342.146V343.707H152.31V342.146H153.871ZM153.871 340.585V342.146H152.31V340.585H153.871ZM155.432 340.585V342.146H153.871V340.585H155.432ZM155.432 342.146V343.707H153.871V342.146H155.432ZM155.432 343.707V345.268H153.871V343.707H155.432ZM155.432 345.268V346.829H153.871V345.268H155.432ZM155.432 346.829V348.39H153.871V346.829H155.432ZM155.432 348.39V349.951H153.871V348.39H155.432ZM155.432 349.951V351.512H153.871V349.951H155.432ZM156.993 351.512V353.073H155.432V351.512H156.993ZM156.993 353.073V354.634H155.432V353.073H156.993ZM156.993 354.634V356.195H155.432V354.634H156.993ZM156.993 356.195V357.756H155.432V356.195H156.993ZM156.993 357.756V359.317H155.432V357.756H156.993ZM156.993 359.317V360.878H155.432V359.317H156.993ZM156.993 360.878V362.439H155.432V360.878H156.993ZM156.993 362.439V364H155.432V362.439H156.993ZM158.554 362.439V364H156.993V362.439H158.554ZM160.115 362.439V364H158.554V362.439H160.115ZM160.115 360.878V362.439H158.554V360.878H160.115ZM160.115 359.317V360.878H158.554V359.317H160.115ZM160.115 357.756V359.317H158.554V357.756H160.115ZM160.115 356.195V357.756H158.554V356.195H160.115ZM160.115 354.634V356.195H158.554V354.634H160.115ZM160.115 353.073V354.634H158.554V353.073H160.115ZM160.115 351.512V353.073H158.554V351.512H160.115ZM158.554 351.512V353.073H156.993V351.512H158.554ZM158.554 349.951V351.512H156.993V349.951H158.554ZM158.554 353.073V354.634H156.993V353.073H158.554ZM158.554 354.634V356.195H156.993V354.634H158.554ZM158.554 356.195V357.756H156.993V356.195H158.554ZM158.554 357.756V359.317H156.993V357.756H158.554ZM158.554 359.317V360.878H156.993V359.317H158.554ZM158.554 360.878V362.439H156.993V360.878H158.554ZM155.432 362.439V364H153.871V362.439H155.432ZM155.432 360.878V362.439H153.871V360.878H155.432ZM155.432 359.317V360.878H153.871V359.317H155.432ZM155.432 357.756V359.317H153.871V357.756H155.432ZM155.432 356.195V357.756H153.871V356.195H155.432ZM155.432 354.634V356.195H153.871V354.634H155.432ZM155.432 353.073V354.634H153.871V353.073H155.432ZM155.432 351.512V353.073H153.871V351.512H155.432ZM153.871 334.341V335.902H152.31V334.341H153.871ZM153.871 335.902V337.463H152.31V335.902H153.871ZM153.871 337.463V339.024H152.31V337.463H153.871ZM153.871 339.024V340.585H152.31V339.024H153.871ZM158.554 335.902V337.463H156.993V335.902H158.554ZM158.554 337.463V339.024H156.993V337.463H158.554ZM158.554 339.024V340.585H156.993V339.024H158.554ZM158.554 340.585V342.146H156.993V340.585H158.554ZM158.554 342.146V343.707H156.993V342.146H158.554ZM158.554 343.707V345.268H156.993V343.707H158.554ZM158.554 345.268V346.829H156.993V345.268H158.554ZM160.115 346.829V348.39H158.554V346.829H160.115ZM160.115 348.39V349.951H158.554V348.39H160.115ZM160.115 349.951V351.512H158.554V349.951H160.115ZM160.115 345.268V346.829H158.554V345.268H160.115ZM160.115 343.707V345.268H158.554V343.707H160.115ZM160.115 342.146V343.707H158.554V342.146H160.115ZM160.115 340.585V342.146H158.554V340.585H160.115ZM160.115 339.024V340.585H158.554V339.024H160.115ZM160.115 337.463V339.024H158.554V337.463H160.115ZM160.115 335.902V337.463H158.554V335.902H160.115ZM160.115 334.341V335.902H158.554V334.341H160.115ZM158.554 334.341V335.902H156.993V334.341H158.554ZM156.993 334.341V335.902H155.432V334.341H156.993ZM156.993 335.902V337.463H155.432V335.902H156.993ZM155.432 337.463V339.024H153.871V337.463H155.432ZM155.432 339.024V340.585H153.871V339.024H155.432ZM155.432 335.902V337.463H153.871V335.902H155.432ZM155.432 334.341V335.902H153.871V334.341H155.432ZM156.993 337.463V339.024H155.432V337.463H156.993ZM156.993 339.024V340.585H155.432V339.024H156.993ZM156.993 340.585V342.146H155.432V340.585H156.993ZM156.993 342.146V343.707H155.432V342.146H156.993ZM156.993 343.707V345.268H155.432V343.707H156.993ZM156.993 345.268V346.829H155.432V345.268H156.993ZM156.993 346.829V348.39H155.432V346.829H156.993ZM156.993 348.39V349.951H155.432V348.39H156.993ZM156.993 349.951V351.512H155.432V349.951H156.993ZM158.554 348.39V349.951H156.993V348.39H158.554ZM158.554 346.829V348.39H156.993V346.829H158.554ZM171.041 340.585V342.146H169.48V340.585H171.041ZM171.041 334.341V335.902H169.48V334.341H171.041ZM171.041 335.902V337.463H169.48V335.902H171.041ZM172.602 335.902V337.463H171.041V335.902H172.602ZM174.163 337.463V339.024H172.602V337.463H174.163ZM172.602 339.024V340.585H171.041V339.024H172.602ZM172.602 337.463V339.024H171.041V337.463H172.602ZM171.041 337.463V339.024H169.48V337.463H171.041ZM169.48 337.463V339.024H167.919V337.463H169.48ZM169.48 339.024V340.585H167.919V339.024H169.48ZM171.041 339.024V340.585H169.48V339.024H171.041ZM169.48 340.585V342.146H167.919V340.585H169.48ZM167.919 339.024V340.585H166.358V339.024H167.919ZM167.919 337.463V339.024H166.358V337.463H167.919ZM167.919 335.902V337.463H166.358V335.902H167.919ZM167.919 334.341V335.902H166.358V334.341H167.919ZM169.48 334.341V335.902H167.919V334.341H169.48ZM169.48 335.902V337.463H167.919V335.902H169.48ZM166.358 334.341V335.902H164.797V334.341H166.358ZM166.358 335.902V337.463H164.797V335.902H166.358ZM166.358 337.463V339.024H164.797V337.463H166.358ZM166.358 339.024V340.585H164.797V339.024H166.358ZM164.797 334.341V335.902H163.237V334.341H164.797ZM164.797 335.902V337.463H163.237V335.902H164.797ZM163.237 335.902V337.463H161.676V335.902H163.237ZM163.237 337.463V339.024H161.676V337.463H163.237ZM161.676 337.463V339.024H160.115V337.463H161.676ZM161.676 339.024V340.585H160.115V339.024H161.676ZM163.237 339.024V340.585H161.676V339.024H163.237ZM164.797 339.024V340.585H163.237V339.024H164.797ZM164.797 337.463V339.024H163.237V337.463H164.797ZM161.676 340.585V342.146H160.115V340.585H161.676ZM163.237 334.341V335.902H161.676V334.341H163.237ZM161.676 335.902V337.463H160.115V335.902H161.676ZM167.919 340.585V342.146H166.358V340.585H167.919ZM169.48 342.146V343.707H167.919V342.146H169.48ZM185.115 328.098V329.659H183.554V328.098H185.115ZM185.115 329.659V331.22H183.554V329.659H185.115ZM185.115 331.22V332.78H183.554V331.22H185.115ZM185.115 332.78V334.341H183.554V332.78H185.115ZM185.115 334.341V335.902H183.554V334.341H185.115ZM185.115 335.902V337.463H183.554V335.902H185.115ZM185.115 337.463V339.024H183.554V337.463H185.115ZM185.115 339.024V340.585H183.554V339.024H185.115ZM186.676 339.024V340.585H185.115V339.024H186.676ZM188.237 339.024V340.585H186.676V339.024H188.237ZM189.797 339.024V340.585H188.237V339.024H189.797ZM191.358 339.024V340.585H189.797V339.024H191.358ZM185.115 342.146V343.707H183.554V342.146H185.115ZM183.554 342.146V343.707H181.993V342.146H183.554ZM183.554 340.585V342.146H181.993V340.585H183.554ZM185.115 340.585V342.146H183.554V340.585H185.115ZM185.115 343.707V345.268H183.554V343.707H185.115ZM183.554 343.707V345.268H181.993V343.707H183.554ZM181.993 343.707V345.268H180.432V343.707H181.993ZM180.432 343.707V345.268H178.871V343.707H180.432ZM178.871 343.707V345.268H177.31V343.707H178.871ZM175.749 339.024V340.585H174.188V339.024H175.749ZM177.31 339.024V340.585H175.749V339.024H177.31ZM178.871 339.024V340.585H177.31V339.024H178.871ZM180.432 339.024V340.585H178.871V339.024H180.432ZM181.993 339.024V340.585H180.432V339.024H181.993ZM183.554 339.024V340.585H181.993V339.024H183.554ZM181.993 342.146V343.707H180.432V342.146H181.993ZM181.993 340.585V342.146H180.432V340.585H181.993ZM180.432 340.585V342.146H178.871V340.585H180.432ZM178.871 340.585V342.146H177.31V340.585H178.871ZM178.871 342.146V343.707H177.31V342.146H178.871ZM180.432 342.146V343.707H178.871V342.146H180.432ZM183.554 329.659V331.22H181.993V329.659H183.554ZM183.554 331.22V332.78H181.993V331.22H183.554ZM181.993 331.22V332.78H180.432V331.22H181.993ZM181.993 332.78V334.341H180.432V332.78H181.993ZM181.993 334.341V335.902H180.432V334.341H181.993ZM180.432 332.78V334.341H178.871V332.78H180.432ZM180.432 334.341V335.902H178.871V334.341H180.432ZM178.871 334.341V335.902H177.31V334.341H178.871ZM178.871 335.902V337.463H177.31V335.902H178.871ZM178.871 337.463V339.024H177.31V337.463H178.871ZM181.993 337.463V339.024H180.432V337.463H181.993ZM183.554 337.463V339.024H181.993V337.463H183.554ZM183.554 335.902V337.463H181.993V335.902H183.554ZM183.554 334.341V335.902H181.993V334.341H183.554ZM183.554 332.78V334.341H181.993V332.78H183.554ZM181.993 335.902V337.463H180.432V335.902H181.993ZM180.432 337.463V339.024H178.871V337.463H180.432ZM180.432 335.902V337.463H178.871V335.902H180.432ZM191.358 357.756V359.317H189.797V357.756H191.358ZM191.358 359.317V360.878H189.797V359.317H191.358ZM191.358 362.439V364H189.797V362.439H191.358ZM189.797 362.439V364H188.237V362.439H189.797ZM188.237 362.439V364H186.676V362.439H188.237ZM186.676 362.439V364H185.115V362.439H186.676ZM185.115 362.439V364H183.554V362.439H185.115ZM185.115 360.878V362.439H183.554V360.878H185.115ZM183.554 360.878V362.439H181.993V360.878H183.554ZM181.993 360.878V362.439H180.432V360.878H181.993ZM181.993 359.317V360.878H180.432V359.317H181.993ZM180.432 359.317V360.878H178.871V359.317H180.432ZM180.432 357.756V359.317H178.871V357.756H180.432ZM180.432 356.195V357.756H178.871V356.195H180.432ZM178.871 356.195V357.756H177.31V356.195H178.871ZM178.871 354.634V356.195H177.31V354.634H178.871ZM178.871 353.073V354.634H177.31V353.073H178.871ZM178.871 351.512V353.073H177.31V351.512H178.871ZM178.871 349.951V351.512H177.31V349.951H178.871ZM178.871 348.39V349.951H177.31V348.39H178.871ZM178.871 346.829V348.39H177.31V346.829H178.871ZM178.871 345.268V346.829H177.31V345.268H178.871ZM180.432 345.268V346.829H178.871V345.268H180.432ZM181.993 345.268V346.829H180.432V345.268H181.993ZM183.554 345.268V346.829H181.993V345.268H183.554ZM185.115 345.268V346.829H183.554V345.268H185.115ZM185.115 346.829V348.39H183.554V346.829H185.115ZM185.115 348.39V349.951H183.554V348.39H185.115ZM185.115 349.951V351.512H183.554V349.951H185.115ZM185.115 351.512V353.073H183.554V351.512H185.115ZM185.115 353.073V354.634H183.554V353.073H185.115ZM185.115 354.634V356.195H183.554V354.634H185.115ZM185.115 356.195V357.756H183.554V356.195H185.115ZM186.676 356.195V357.756H185.115V356.195H186.676ZM186.676 357.756V359.317H185.115V357.756H186.676ZM188.237 357.756V359.317H186.676V357.756H188.237ZM188.237 359.317V360.878H186.676V359.317H188.237ZM189.797 359.317V360.878H188.237V359.317H189.797ZM189.797 357.756V359.317H188.237V357.756H189.797ZM191.358 360.878V362.439H189.797V360.878H191.358ZM189.797 360.878V362.439H188.237V360.878H189.797ZM188.237 360.878V362.439H186.676V360.878H188.237ZM186.676 360.878V362.439H185.115V360.878H186.676ZM186.676 359.317V360.878H185.115V359.317H186.676ZM185.115 359.317V360.878H183.554V359.317H185.115ZM185.115 357.756V359.317H183.554V357.756H185.115ZM183.554 357.756V359.317H181.993V357.756H183.554ZM183.554 359.317V360.878H181.993V359.317H183.554ZM181.993 357.756V359.317H180.432V357.756H181.993ZM183.554 356.195V357.756H181.993V356.195H183.554ZM183.554 354.634V356.195H181.993V354.634H183.554ZM181.993 356.195V357.756H180.432V356.195H181.993ZM181.993 354.634V356.195H180.432V354.634H181.993ZM183.554 353.073V354.634H181.993V353.073H183.554ZM183.554 351.512V353.073H181.993V351.512H183.554ZM183.554 349.951V351.512H181.993V349.951H183.554ZM183.554 348.39V349.951H181.993V348.39H183.554ZM183.554 346.829V348.39H181.993V346.829H183.554ZM181.993 346.829V348.39H180.432V346.829H181.993ZM180.432 346.829V348.39H178.871V346.829H180.432ZM180.432 348.39V349.951H178.871V348.39H180.432ZM180.432 349.951V351.512H178.871V349.951H180.432ZM180.432 351.512V353.073H178.871V351.512H180.432ZM180.432 353.073V354.634H178.871V353.073H180.432ZM180.432 354.634V356.195H178.871V354.634H180.432ZM181.993 353.073V354.634H180.432V353.073H181.993ZM181.993 351.512V353.073H180.432V351.512H181.993ZM181.993 349.951V351.512H180.432V349.951H181.993ZM181.993 348.39V349.951H180.432V348.39H181.993ZM191.358 335.902V337.463H189.797V335.902H191.358ZM189.797 335.902V337.463H188.237V335.902H189.797ZM189.797 337.463V339.024H188.237V337.463H189.797ZM191.358 337.463V339.024H189.797V337.463H191.358ZM188.237 337.463V339.024H186.676V337.463H188.237ZM186.676 337.463V339.024H185.115V337.463H186.676ZM186.676 335.902V337.463H185.115V335.902H186.676ZM188.237 335.902V337.463H186.676V335.902H188.237ZM178.871 332.78V334.341H177.31V332.78H178.871ZM180.432 331.22V332.78H178.871V331.22H180.432ZM181.993 329.659V331.22H180.432V329.659H181.993ZM183.554 328.098V329.659H181.993V328.098H183.554ZM177.31 335.902V337.463H175.749V335.902H177.31ZM177.31 337.463V339.024H175.749V337.463H177.31ZM175.749 337.463V339.024H174.188V337.463H175.749ZM175.749 335.902V337.463H174.188V335.902H175.749ZM185.115 326.537V328.098H183.554V326.537H185.115ZM175.749 340.585V342.146H174.188V340.585H175.749ZM177.31 340.585V342.146H175.749V340.585H177.31ZM186.676 340.585V342.146H185.115V340.585H186.676ZM188.237 340.585V342.146H186.676V340.585H188.237ZM189.797 340.585V342.146H188.237V340.585H189.797ZM191.358 340.585V342.146H189.797V340.585H191.358ZM213.23 343.707V345.268H211.669V343.707H213.23ZM214.791 343.707V345.268H213.23V343.707H214.791ZM216.352 343.707V345.268H214.791V343.707H216.352ZM217.913 343.707V345.268H216.352V343.707H217.913ZM219.474 343.707V345.268H217.913V343.707H219.474ZM219.474 342.146V343.707H217.913V342.146H219.474ZM219.474 340.585V342.146H217.913V340.585H219.474ZM217.913 340.585V342.146H216.352V340.585H217.913ZM216.352 340.585V342.146H214.791V340.585H216.352ZM214.791 340.585V342.146H213.23V340.585H214.791ZM214.791 342.146V343.707H213.23V342.146H214.791ZM213.23 342.146V343.707H211.669V342.146H213.23ZM216.352 342.146V343.707H214.791V342.146H216.352ZM217.913 342.146V343.707H216.352V342.146H217.913ZM213.23 340.585V342.146H211.669V340.585H213.23ZM211.669 340.585V342.146H210.108V340.585H211.669ZM211.669 339.024V340.585H210.108V339.024H211.669ZM213.23 339.024V340.585H211.669V339.024H213.23ZM214.791 339.024V340.585H213.23V339.024H214.791ZM216.352 339.024V340.585H214.791V339.024H216.352ZM217.913 339.024V340.585H216.352V339.024H217.913ZM217.913 337.463V339.024H216.352V337.463H217.913ZM216.352 337.463V339.024H214.791V337.463H216.352ZM214.791 337.463V339.024H213.23V337.463H214.791ZM213.23 337.463V339.024H211.669V337.463H213.23ZM211.669 337.463V339.024H210.108V337.463H211.669ZM214.791 335.902V337.463H213.23V335.902H214.791ZM216.352 335.902V337.463H214.791V335.902H216.352ZM213.23 335.902V337.463H211.669V335.902H213.23ZM213.23 334.341V335.902H211.669V334.341H213.23ZM211.669 334.341V335.902H210.108V334.341H211.669ZM211.669 335.902V337.463H210.108V335.902H211.669ZM210.108 335.902V337.463H208.547V335.902H210.108ZM210.108 334.341V335.902H208.547V334.341H210.108ZM210.108 337.463V339.024H208.547V337.463H210.108ZM208.547 337.463V339.024H206.987V337.463H208.547ZM208.547 339.024V340.585H206.987V339.024H208.547ZM210.108 339.024V340.585H208.547V339.024H210.108ZM206.987 339.024V340.585H205.426V339.024H206.987ZM206.987 337.463V339.024H205.426V337.463H206.987ZM206.987 335.902V337.463H205.426V335.902H206.987ZM206.987 334.341V335.902H205.426V334.341H206.987ZM208.547 334.341V335.902H206.987V334.341H208.547ZM208.547 335.902V337.463H206.987V335.902H208.547ZM205.426 334.341V335.902H203.865V334.341H205.426ZM203.865 334.341V335.902H202.304V334.341H203.865ZM202.304 334.341V335.902H200.743V334.341H202.304ZM202.304 335.902V337.463H200.743V335.902H202.304ZM202.304 337.463V339.024H200.743V337.463H202.304ZM202.304 339.024V340.585H200.743V339.024H202.304ZM203.865 339.024V340.585H202.304V339.024H203.865ZM205.426 339.024V340.585H203.865V339.024H205.426ZM205.426 337.463V339.024H203.865V337.463H205.426ZM205.426 335.902V337.463H203.865V335.902H205.426ZM203.865 335.902V337.463H202.304V335.902H203.865ZM203.865 337.463V339.024H202.304V337.463H203.865ZM200.743 337.463V339.024H199.182V337.463H200.743ZM200.743 335.902V337.463H199.182V335.902H200.743ZM199.182 335.902V337.463H197.621V335.902H199.182ZM199.182 337.463V339.024H197.621V337.463H199.182ZM197.621 337.463V339.024H196.06V337.463H197.621ZM197.621 339.024V340.585H196.06V339.024H197.621ZM197.621 340.585V342.146H196.06V340.585H197.621ZM199.182 340.585V342.146H197.621V340.585H199.182ZM199.182 339.024V340.585H197.621V339.024H199.182ZM200.743 339.024V340.585H199.182V339.024H200.743ZM200.743 340.585V342.146H199.182V340.585H200.743ZM202.304 340.585V342.146H200.743V340.585H202.304ZM203.865 340.585V342.146H202.304V340.585H203.865ZM196.06 340.585V342.146H194.499V340.585H196.06ZM196.06 342.146V343.707H194.499V342.146H196.06ZM196.06 343.707V345.268H194.499V343.707H196.06ZM196.06 345.268V346.829H194.499V345.268H196.06ZM196.06 346.829V348.39H194.499V346.829H196.06ZM196.06 348.39V349.951H194.499V348.39H196.06ZM196.06 349.951V351.512H194.499V349.951H196.06ZM196.06 351.512V353.073H194.499V351.512H196.06ZM196.06 353.073V354.634H194.499V353.073H196.06ZM196.06 354.634V356.195H194.499V354.634H196.06ZM197.621 354.634V356.195H196.06V354.634H197.621ZM197.621 356.195V357.756H196.06V356.195H197.621ZM196.06 356.195V357.756H194.499V356.195H196.06ZM199.182 356.195V357.756H197.621V356.195H199.182ZM200.743 356.195V357.756H199.182V356.195H200.743ZM202.304 356.195V357.756H200.743V356.195H202.304ZM203.865 356.195V357.756H202.304V356.195H203.865ZM202.304 354.634V356.195H200.743V354.634H202.304ZM202.304 353.073V354.634H200.743V353.073H202.304ZM202.304 351.512V353.073H200.743V351.512H202.304ZM202.304 349.951V351.512H200.743V349.951H202.304ZM202.304 348.39V349.951H200.743V348.39H202.304ZM202.304 346.829V348.39H200.743V346.829H202.304ZM202.304 345.268V346.829H200.743V345.268H202.304ZM202.304 343.707V345.268H200.743V343.707H202.304ZM202.304 342.146V343.707H200.743V342.146H202.304ZM200.743 342.146V343.707H199.182V342.146H200.743ZM199.182 342.146V343.707H197.621V342.146H199.182ZM197.621 342.146V343.707H196.06V342.146H197.621ZM197.621 343.707V345.268H196.06V343.707H197.621ZM197.621 345.268V346.829H196.06V345.268H197.621ZM197.621 346.829V348.39H196.06V346.829H197.621ZM197.621 348.39V349.951H196.06V348.39H197.621ZM197.621 349.951V351.512H196.06V349.951H197.621ZM197.621 351.512V353.073H196.06V351.512H197.621ZM197.621 353.073V354.634H196.06V353.073H197.621ZM199.182 354.634V356.195H197.621V354.634H199.182ZM200.743 354.634V356.195H199.182V354.634H200.743ZM200.743 353.073V354.634H199.182V353.073H200.743ZM200.743 351.512V353.073H199.182V351.512H200.743ZM200.743 349.951V351.512H199.182V349.951H200.743ZM200.743 348.39V349.951H199.182V348.39H200.743ZM199.182 348.39V349.951H197.621V348.39H199.182ZM199.182 346.829V348.39H197.621V346.829H199.182ZM199.182 345.268V346.829H197.621V345.268H199.182ZM199.182 343.707V345.268H197.621V343.707H199.182ZM200.743 343.707V345.268H199.182V343.707H200.743ZM200.743 345.268V346.829H199.182V345.268H200.743ZM200.743 346.829V348.39H199.182V346.829H200.743ZM199.182 351.512V353.073H197.621V351.512H199.182ZM199.182 353.073V354.634H197.621V353.073H199.182ZM199.182 349.951V351.512H197.621V349.951H199.182ZM213.23 354.634V356.195H211.669V354.634H213.23ZM214.791 354.634V356.195H213.23V354.634H214.791ZM216.352 354.634V356.195H214.791V354.634H216.352ZM217.913 354.634V356.195H216.352V354.634H217.913ZM219.474 354.634V356.195H217.913V354.634H219.474ZM219.474 356.195V357.756H217.913V356.195H219.474ZM217.913 356.195V357.756H216.352V356.195H217.913ZM216.352 356.195V357.756H214.791V356.195H216.352ZM214.791 356.195V357.756H213.23V356.195H214.791ZM213.23 356.195V357.756H211.669V356.195H213.23ZM211.669 356.195V357.756H210.108V356.195H211.669ZM211.669 357.756V359.317H210.108V357.756H211.669ZM213.23 357.756V359.317H211.669V357.756H213.23ZM214.791 357.756V359.317H213.23V357.756H214.791ZM216.352 357.756V359.317H214.791V357.756H216.352ZM216.352 359.317V360.878H214.791V359.317H216.352ZM217.913 359.317V360.878H216.352V359.317H217.913ZM217.913 357.756V359.317H216.352V357.756H217.913ZM216.352 360.878V362.439H214.791V360.878H216.352ZM214.791 360.878V362.439H213.23V360.878H214.791ZM214.791 359.317V360.878H213.23V359.317H214.791ZM213.23 359.317V360.878H211.669V359.317H213.23ZM213.23 360.878V362.439H211.669V360.878H213.23ZM213.23 362.439V364H211.669V362.439H213.23ZM211.669 362.439V364H210.108V362.439H211.669ZM210.108 362.439V364H208.547V362.439H210.108ZM208.547 362.439V364H206.987V362.439H208.547ZM206.987 362.439V364H205.426V362.439H206.987ZM205.426 362.439V364H203.865V362.439H205.426ZM203.865 362.439V364H202.304V362.439H203.865ZM202.304 362.439V364H200.743V362.439H202.304ZM203.865 360.878V362.439H202.304V360.878H203.865ZM205.426 360.878V362.439H203.865V360.878H205.426ZM206.987 360.878V362.439H205.426V360.878H206.987ZM208.547 360.878V362.439H206.987V360.878H208.547ZM210.108 360.878V362.439H208.547V360.878H210.108ZM211.669 360.878V362.439H210.108V360.878H211.669ZM211.669 359.317V360.878H210.108V359.317H211.669ZM210.108 359.317V360.878H208.547V359.317H210.108ZM208.547 359.317V360.878H206.987V359.317H208.547ZM206.987 359.317V360.878H205.426V359.317H206.987ZM205.426 359.317V360.878H203.865V359.317H205.426ZM203.865 359.317V360.878H202.304V359.317H203.865ZM202.304 360.878V362.439H200.743V360.878H202.304ZM200.743 360.878V362.439H199.182V360.878H200.743ZM199.182 360.878V362.439H197.621V360.878H199.182ZM199.182 359.317V360.878H197.621V359.317H199.182ZM197.621 359.317V360.878H196.06V359.317H197.621ZM197.621 357.756V359.317H196.06V357.756H197.621ZM199.182 357.756V359.317H197.621V357.756H199.182ZM200.743 357.756V359.317H199.182V357.756H200.743ZM202.304 357.756V359.317H200.743V357.756H202.304ZM203.865 357.756V359.317H202.304V357.756H203.865ZM205.426 357.756V359.317H203.865V357.756H205.426ZM206.987 357.756V359.317H205.426V357.756H206.987ZM208.547 357.756V359.317H206.987V357.756H208.547ZM210.108 357.756V359.317H208.547V357.756H210.108ZM202.304 359.317V360.878H200.743V359.317H202.304ZM200.743 359.317V360.878H199.182V359.317H200.743ZM219.474 345.268V346.829H217.913V345.268H219.474ZM217.913 345.268V346.829H216.352V345.268H217.913ZM216.352 345.268V346.829H214.791V345.268H216.352ZM214.791 345.268V346.829H213.23V345.268H214.791ZM213.23 345.268V346.829H211.669V345.268H213.23ZM219.474 346.829V348.39H217.913V346.829H219.474ZM216.352 346.829V348.39H214.791V346.829H216.352ZM214.791 346.829V348.39H213.23V346.829H214.791ZM211.669 346.829V348.39H210.108V346.829H211.669ZM210.108 346.829V348.39H208.547V346.829H210.108ZM208.547 346.829V348.39H206.987V346.829H208.547ZM206.987 346.829V348.39H205.426V346.829H206.987ZM205.426 346.829V348.39H203.865V346.829H205.426ZM203.865 346.829V348.39H202.304V346.829H203.865ZM213.23 346.829V348.39H211.669V346.829H213.23ZM217.913 346.829V348.39H216.352V346.829H217.913ZM219.474 348.39V349.951H217.913V348.39H219.474ZM217.913 348.39V349.951H216.352V348.39H217.913ZM216.352 348.39V349.951H214.791V348.39H216.352ZM214.791 348.39V349.951H213.23V348.39H214.791ZM213.23 348.39V349.951H211.669V348.39H213.23ZM211.669 348.39V349.951H210.108V348.39H211.669ZM210.108 348.39V349.951H208.547V348.39H210.108ZM208.547 348.39V349.951H206.987V348.39H208.547ZM206.987 348.39V349.951H205.426V348.39H206.987ZM205.426 348.39V349.951H203.865V348.39H205.426ZM203.865 348.39V349.951H202.304V348.39H203.865ZM203.865 349.951V351.512H202.304V349.951H203.865ZM205.426 349.951V351.512H203.865V349.951H205.426ZM206.987 349.951V351.512H205.426V349.951H206.987ZM210.108 349.951V351.512H208.547V349.951H210.108ZM211.669 349.951V351.512H210.108V349.951H211.669ZM213.23 349.951V351.512H211.669V349.951H213.23ZM214.791 349.951V351.512H213.23V349.951H214.791ZM216.352 349.951V351.512H214.791V349.951H216.352ZM217.913 349.951V351.512H216.352V349.951H217.913ZM219.474 349.951V351.512H217.913V349.951H219.474ZM208.547 349.951V351.512H206.987V349.951H208.547ZM225.746 362.439V364H224.185V362.439H225.746ZM225.746 360.878V362.439H224.185V360.878H225.746ZM225.746 359.317V360.878H224.185V359.317H225.746ZM225.746 357.756V359.317H224.185V357.756H225.746ZM225.746 356.195V357.756H224.185V356.195H225.746ZM225.746 354.634V356.195H224.185V354.634H225.746ZM225.746 353.073V354.634H224.185V353.073H225.746ZM225.746 351.512V353.073H224.185V351.512H225.746ZM225.746 349.951V351.512H224.185V349.951H225.746ZM225.746 348.39V349.951H224.185V348.39H225.746ZM225.746 346.829V348.39H224.185V346.829H225.746ZM225.746 345.268V346.829H224.185V345.268H225.746ZM225.746 343.707V345.268H224.185V343.707H225.746ZM225.746 342.146V343.707H224.185V342.146H225.746ZM225.746 340.585V342.146H224.185V340.585H225.746ZM227.307 340.585V342.146H225.746V340.585H227.307ZM227.307 342.146V343.707H225.746V342.146H227.307ZM227.307 343.707V345.268H225.746V343.707H227.307ZM227.307 345.268V346.829H225.746V345.268H227.307ZM227.307 346.829V348.39H225.746V346.829H227.307ZM227.307 348.39V349.951H225.746V348.39H227.307ZM227.307 349.951V351.512H225.746V349.951H227.307ZM228.868 351.512V353.073H227.307V351.512H228.868ZM228.868 353.073V354.634H227.307V353.073H228.868ZM228.868 354.634V356.195H227.307V354.634H228.868ZM228.868 356.195V357.756H227.307V356.195H228.868ZM228.868 357.756V359.317H227.307V357.756H228.868ZM228.868 359.317V360.878H227.307V359.317H228.868ZM228.868 360.878V362.439H227.307V360.878H228.868ZM228.868 362.439V364H227.307V362.439H228.868ZM230.429 362.439V364H228.868V362.439H230.429ZM231.99 362.439V364H230.429V362.439H231.99ZM231.99 360.878V362.439H230.429V360.878H231.99ZM231.99 359.317V360.878H230.429V359.317H231.99ZM231.99 357.756V359.317H230.429V357.756H231.99ZM231.99 356.195V357.756H230.429V356.195H231.99ZM231.99 354.634V356.195H230.429V354.634H231.99ZM231.99 353.073V354.634H230.429V353.073H231.99ZM231.99 351.512V353.073H230.429V351.512H231.99ZM230.429 351.512V353.073H228.868V351.512H230.429ZM230.429 349.951V351.512H228.868V349.951H230.429ZM230.429 353.073V354.634H228.868V353.073H230.429ZM230.429 354.634V356.195H228.868V354.634H230.429ZM230.429 356.195V357.756H228.868V356.195H230.429ZM230.429 357.756V359.317H228.868V357.756H230.429ZM230.429 359.317V360.878H228.868V359.317H230.429ZM230.429 360.878V362.439H228.868V360.878H230.429ZM227.307 362.439V364H225.746V362.439H227.307ZM227.307 360.878V362.439H225.746V360.878H227.307ZM227.307 359.317V360.878H225.746V359.317H227.307ZM227.307 357.756V359.317H225.746V357.756H227.307ZM227.307 356.195V357.756H225.746V356.195H227.307ZM227.307 354.634V356.195H225.746V354.634H227.307ZM227.307 353.073V354.634H225.746V353.073H227.307ZM227.307 351.512V353.073H225.746V351.512H227.307ZM225.746 334.341V335.902H224.185V334.341H225.746ZM225.746 335.902V337.463H224.185V335.902H225.746ZM225.746 337.463V339.024H224.185V337.463H225.746ZM225.746 339.024V340.585H224.185V339.024H225.746ZM230.429 335.902V337.463H228.868V335.902H230.429ZM230.429 337.463V339.024H228.868V337.463H230.429ZM230.429 339.024V340.585H228.868V339.024H230.429ZM230.429 340.585V342.146H228.868V340.585H230.429ZM230.429 342.146V343.707H228.868V342.146H230.429ZM230.429 343.707V345.268H228.868V343.707H230.429ZM230.429 345.268V346.829H228.868V345.268H230.429ZM231.99 346.829V348.39H230.429V346.829H231.99ZM231.99 348.39V349.951H230.429V348.39H231.99ZM231.99 349.951V351.512H230.429V349.951H231.99ZM231.99 345.268V346.829H230.429V345.268H231.99ZM231.99 343.707V345.268H230.429V343.707H231.99ZM231.99 342.146V343.707H230.429V342.146H231.99ZM231.99 340.585V342.146H230.429V340.585H231.99ZM231.99 339.024V340.585H230.429V339.024H231.99ZM231.99 337.463V339.024H230.429V337.463H231.99ZM231.99 335.902V337.463H230.429V335.902H231.99ZM231.99 334.341V335.902H230.429V334.341H231.99ZM230.429 334.341V335.902H228.868V334.341H230.429ZM228.868 334.341V335.902H227.307V334.341H228.868ZM228.868 335.902V337.463H227.307V335.902H228.868ZM227.307 337.463V339.024H225.746V337.463H227.307ZM227.307 339.024V340.585H225.746V339.024H227.307ZM227.307 335.902V337.463H225.746V335.902H227.307ZM227.307 334.341V335.902H225.746V334.341H227.307ZM228.868 337.463V339.024H227.307V337.463H228.868ZM228.868 339.024V340.585H227.307V339.024H228.868ZM228.868 340.585V342.146H227.307V340.585H228.868ZM228.868 342.146V343.707H227.307V342.146H228.868ZM228.868 343.707V345.268H227.307V343.707H228.868ZM228.868 345.268V346.829H227.307V345.268H228.868ZM228.868 346.829V348.39H227.307V346.829H228.868ZM228.868 348.39V349.951H227.307V348.39H228.868ZM228.868 349.951V351.512H227.307V349.951H228.868ZM230.429 348.39V349.951H228.868V348.39H230.429ZM230.429 346.829V348.39H228.868V346.829H230.429ZM242.916 340.585V342.146H241.355V340.585H242.916ZM242.916 334.341V335.902H241.355V334.341H242.916ZM242.916 335.902V337.463H241.355V335.902H242.916ZM244.477 335.902V337.463H242.916V335.902H244.477ZM246.038 337.463V339.024H244.477V337.463H246.038ZM244.477 339.024V340.585H242.916V339.024H244.477ZM244.477 337.463V339.024H242.916V337.463H244.477ZM242.916 337.463V339.024H241.355V337.463H242.916ZM241.355 337.463V339.024H239.794V337.463H241.355ZM241.355 339.024V340.585H239.794V339.024H241.355ZM242.916 339.024V340.585H241.355V339.024H242.916ZM241.355 340.585V342.146H239.794V340.585H241.355ZM239.794 339.024V340.585H238.233V339.024H239.794ZM239.794 337.463V339.024H238.233V337.463H239.794ZM239.794 335.902V337.463H238.233V335.902H239.794ZM239.794 334.341V335.902H238.233V334.341H239.794ZM241.355 334.341V335.902H239.794V334.341H241.355ZM241.355 335.902V337.463H239.794V335.902H241.355ZM238.233 334.341V335.902H236.672V334.341H238.233ZM238.233 335.902V337.463H236.672V335.902H238.233ZM238.233 337.463V339.024H236.672V337.463H238.233ZM238.233 339.024V340.585H236.672V339.024H238.233ZM236.672 334.341V335.902H235.112V334.341H236.672ZM236.672 335.902V337.463H235.112V335.902H236.672ZM235.112 335.902V337.463H233.551V335.902H235.112ZM235.112 337.463V339.024H233.551V337.463H235.112ZM233.551 337.463V339.024H231.99V337.463H233.551ZM233.551 339.024V340.585H231.99V339.024H233.551ZM235.112 339.024V340.585H233.551V339.024H235.112ZM236.672 339.024V340.585H235.112V339.024H236.672ZM236.672 337.463V339.024H235.112V337.463H236.672ZM233.551 340.585V342.146H231.99V340.585H233.551ZM235.112 334.341V335.902H233.551V334.341H235.112ZM233.551 335.902V337.463H231.99V335.902H233.551ZM239.794 340.585V342.146H238.233V340.585H239.794ZM241.355 342.146V343.707H239.794V342.146H241.355ZM271.038 340.585V342.146H269.477V340.585H271.038ZM269.477 340.585V342.146H267.916V340.585H269.477ZM267.916 340.585V342.146H266.355V340.585H267.916ZM266.355 340.585V342.146H264.794V340.585H266.355ZM264.794 339.024V340.585H263.233V339.024H264.794ZM266.355 339.024V340.585H264.794V339.024H266.355ZM267.916 339.024V340.585H266.355V339.024H267.916ZM269.477 339.024V340.585H267.916V339.024H269.477ZM271.038 339.024V340.585H269.477V339.024H271.038ZM271.038 337.463V339.024H269.477V337.463H271.038ZM269.477 337.463V339.024H267.916V337.463H269.477ZM267.916 337.463V339.024H266.355V337.463H267.916ZM266.355 337.463V339.024H264.794V337.463H266.355ZM264.794 337.463V339.024H263.233V337.463H264.794ZM267.916 335.902V337.463H266.355V335.902H267.916ZM269.477 335.902V337.463H267.916V335.902H269.477ZM266.355 335.902V337.463H264.794V335.902H266.355ZM266.355 334.341V335.902H264.794V334.341H266.355ZM264.794 334.341V335.902H263.233V334.341H264.794ZM264.794 335.902V337.463H263.233V335.902H264.794ZM263.233 335.902V337.463H261.672V335.902H263.233ZM263.233 334.341V335.902H261.672V334.341H263.233ZM263.233 337.463V339.024H261.672V337.463H263.233ZM261.672 337.463V339.024H260.112V337.463H261.672ZM261.672 339.024V340.585H260.112V339.024H261.672ZM263.233 339.024V340.585H261.672V339.024H263.233ZM260.112 339.024V340.585H258.551V339.024H260.112ZM260.112 337.463V339.024H258.551V337.463H260.112ZM260.112 335.902V337.463H258.551V335.902H260.112ZM260.112 334.341V335.902H258.551V334.341H260.112ZM261.672 334.341V335.902H260.112V334.341H261.672ZM261.672 335.902V337.463H260.112V335.902H261.672ZM258.551 334.341V335.902H256.99V334.341H258.551ZM256.99 334.341V335.902H255.429V334.341H256.99ZM255.429 334.341V335.902H253.868V334.341H255.429ZM255.429 335.902V337.463H253.868V335.902H255.429ZM255.429 337.463V339.024H253.868V337.463H255.429ZM255.429 339.024V340.585H253.868V339.024H255.429ZM256.99 339.024V340.585H255.429V339.024H256.99ZM258.551 339.024V340.585H256.99V339.024H258.551ZM258.551 337.463V339.024H256.99V337.463H258.551ZM258.551 335.902V337.463H256.99V335.902H258.551ZM256.99 335.902V337.463H255.429V335.902H256.99ZM256.99 337.463V339.024H255.429V337.463H256.99ZM253.868 337.463V339.024H252.307V337.463H253.868ZM253.868 335.902V337.463H252.307V335.902H253.868ZM252.307 335.902V337.463H250.746V335.902H252.307ZM252.307 337.463V339.024H250.746V337.463H252.307ZM250.746 337.463V339.024H249.185V337.463H250.746ZM250.746 339.024V340.585H249.185V339.024H250.746ZM250.746 340.585V342.146H249.185V340.585H250.746ZM252.307 340.585V342.146H250.746V340.585H252.307ZM252.307 339.024V340.585H250.746V339.024H252.307ZM253.868 339.024V340.585H252.307V339.024H253.868ZM253.868 340.585V342.146H252.307V340.585H253.868ZM255.429 340.585V342.146H253.868V340.585H255.429ZM256.99 340.585V342.146H255.429V340.585H256.99ZM249.185 340.585V342.146H247.624V340.585H249.185ZM249.185 342.146V343.707H247.624V342.146H249.185ZM249.185 343.707V345.268H247.624V343.707H249.185ZM249.185 354.634V356.195H247.624V354.634H249.185ZM250.746 354.634V356.195H249.185V354.634H250.746ZM250.746 356.195V357.756H249.185V356.195H250.746ZM249.185 356.195V357.756H247.624V356.195H249.185ZM252.307 356.195V357.756H250.746V356.195H252.307ZM253.868 356.195V357.756H252.307V356.195H253.868ZM255.429 356.195V357.756H253.868V356.195H255.429ZM256.99 356.195V357.756H255.429V356.195H256.99ZM255.429 354.634V356.195H253.868V354.634H255.429ZM255.429 343.707V345.268H253.868V343.707H255.429ZM255.429 342.146V343.707H253.868V342.146H255.429ZM253.868 342.146V343.707H252.307V342.146H253.868ZM252.307 342.146V343.707H250.746V342.146H252.307ZM250.746 342.146V343.707H249.185V342.146H250.746ZM250.746 343.707V345.268H249.185V343.707H250.746ZM252.307 354.634V356.195H250.746V354.634H252.307ZM253.868 354.634V356.195H252.307V354.634H253.868ZM252.307 343.707V345.268H250.746V343.707H252.307ZM253.868 343.707V345.268H252.307V343.707H253.868ZM266.355 353.073V354.634H264.794V353.073H266.355ZM266.355 354.634V356.195H264.794V354.634H266.355ZM267.916 354.634V356.195H266.355V354.634H267.916ZM269.477 354.634V356.195H267.916V354.634H269.477ZM271.038 354.634V356.195H269.477V354.634H271.038ZM272.599 354.634V356.195H271.038V354.634H272.599ZM272.599 353.073V354.634H271.038V353.073H272.599ZM271.038 353.073V354.634H269.477V353.073H271.038ZM269.477 353.073V354.634H267.916V353.073H269.477ZM267.916 353.073V354.634H266.355V353.073H267.916ZM272.599 356.195V357.756H271.038V356.195H272.599ZM271.038 356.195V357.756H269.477V356.195H271.038ZM269.477 356.195V357.756H267.916V356.195H269.477ZM267.916 356.195V357.756H266.355V356.195H267.916ZM266.355 356.195V357.756H264.794V356.195H266.355ZM264.794 356.195V357.756H263.233V356.195H264.794ZM264.794 357.756V359.317H263.233V357.756H264.794ZM266.355 357.756V359.317H264.794V357.756H266.355ZM267.916 357.756V359.317H266.355V357.756H267.916ZM269.477 357.756V359.317H267.916V357.756H269.477ZM269.477 359.317V360.878H267.916V359.317H269.477ZM271.038 359.317V360.878H269.477V359.317H271.038ZM271.038 357.756V359.317H269.477V357.756H271.038ZM269.477 360.878V362.439H267.916V360.878H269.477ZM267.916 360.878V362.439H266.355V360.878H267.916ZM267.916 359.317V360.878H266.355V359.317H267.916ZM266.355 359.317V360.878H264.794V359.317H266.355ZM266.355 360.878V362.439H264.794V360.878H266.355ZM266.355 362.439V364H264.794V362.439H266.355ZM264.794 362.439V364H263.233V362.439H264.794ZM263.233 362.439V364H261.672V362.439H263.233ZM261.672 362.439V364H260.112V362.439H261.672ZM260.112 362.439V364H258.551V362.439H260.112ZM258.551 362.439V364H256.99V362.439H258.551ZM256.99 362.439V364H255.429V362.439H256.99ZM255.429 362.439V364H253.868V362.439H255.429ZM256.99 360.878V362.439H255.429V360.878H256.99ZM258.551 360.878V362.439H256.99V360.878H258.551ZM260.112 360.878V362.439H258.551V360.878H260.112ZM261.672 360.878V362.439H260.112V360.878H261.672ZM263.233 360.878V362.439H261.672V360.878H263.233ZM264.794 360.878V362.439H263.233V360.878H264.794ZM264.794 359.317V360.878H263.233V359.317H264.794ZM263.233 359.317V360.878H261.672V359.317H263.233ZM261.672 359.317V360.878H260.112V359.317H261.672ZM260.112 359.317V360.878H258.551V359.317H260.112ZM258.551 359.317V360.878H256.99V359.317H258.551ZM256.99 359.317V360.878H255.429V359.317H256.99ZM255.429 360.878V362.439H253.868V360.878H255.429ZM253.868 360.878V362.439H252.307V360.878H253.868ZM252.307 360.878V362.439H250.746V360.878H252.307ZM252.307 359.317V360.878H250.746V359.317H252.307ZM250.746 359.317V360.878H249.185V359.317H250.746ZM250.746 357.756V359.317H249.185V357.756H250.746ZM252.307 357.756V359.317H250.746V357.756H252.307ZM253.868 357.756V359.317H252.307V357.756H253.868ZM255.429 357.756V359.317H253.868V357.756H255.429ZM256.99 357.756V359.317H255.429V357.756H256.99ZM258.551 357.756V359.317H256.99V357.756H258.551ZM260.112 357.756V359.317H258.551V357.756H260.112ZM261.672 357.756V359.317H260.112V357.756H261.672ZM263.233 357.756V359.317H261.672V357.756H263.233ZM255.429 359.317V360.878H253.868V359.317H255.429ZM253.868 359.317V360.878H252.307V359.317H253.868ZM269.477 349.951V351.512H267.916V349.951H269.477ZM272.599 351.512V353.073H271.038V351.512H272.599ZM271.038 351.512V353.073H269.477V351.512H271.038ZM269.477 351.512V353.073H267.916V351.512H269.477ZM267.916 351.512V353.073H266.355V351.512H267.916ZM267.916 349.951V351.512H266.355V349.951H267.916ZM266.355 349.951V351.512H264.794V349.951H266.355ZM266.355 351.512V353.073H264.794V351.512H266.355ZM256.99 343.707V345.268H255.429V343.707H256.99ZM250.746 345.268V346.829H249.185V345.268H250.746ZM250.746 346.829V348.39H249.185V346.829H250.746ZM252.307 346.829V348.39H250.746V346.829H252.307ZM252.307 348.39V349.951H250.746V348.39H252.307ZM253.868 348.39V349.951H252.307V348.39H253.868ZM255.429 349.951V351.512H253.868V349.951H255.429ZM255.429 348.39V349.951H253.868V348.39H255.429ZM255.429 346.829V348.39H253.868V346.829H255.429ZM255.429 345.268V346.829H253.868V345.268H255.429ZM253.868 345.268V346.829H252.307V345.268H253.868ZM253.868 346.829V348.39H252.307V346.829H253.868ZM252.307 345.268V346.829H250.746V345.268H252.307ZM256.99 349.951V351.512H255.429V349.951H256.99ZM258.551 349.951V351.512H256.99V349.951H258.551ZM260.112 349.951V351.512H258.551V349.951H260.112ZM261.672 349.951V351.512H260.112V349.951H261.672ZM261.672 348.39V349.951H260.112V348.39H261.672ZM260.112 348.39V349.951H258.551V348.39H260.112ZM258.551 348.39V349.951H256.99V348.39H258.551ZM256.99 348.39V349.951H255.429V348.39H256.99ZM256.99 346.829V348.39H255.429V346.829H256.99ZM256.99 345.268V346.829H255.429V345.268H256.99ZM258.551 345.268V346.829H256.99V345.268H258.551ZM260.112 345.268V346.829H258.551V345.268H260.112ZM261.672 345.268V346.829H260.112V345.268H261.672ZM261.672 346.829V348.39H260.112V346.829H261.672ZM260.112 346.829V348.39H258.551V346.829H260.112ZM258.551 346.829V348.39H256.99V346.829H258.551ZM263.233 345.268V346.829H261.672V345.268H263.233ZM264.794 345.268V346.829H263.233V345.268H264.794ZM264.794 346.829V348.39H263.233V346.829H264.794ZM264.794 348.39V349.951H263.233V348.39H264.794ZM264.794 349.951V351.512H263.233V349.951H264.794ZM263.233 349.951V351.512H261.672V349.951H263.233ZM263.233 348.39V349.951H261.672V348.39H263.233ZM263.233 346.829V348.39H261.672V346.829H263.233ZM264.794 351.512V353.073H263.233V351.512H264.794ZM266.355 345.268V346.829H264.794V345.268H266.355ZM271.038 349.951V351.512H269.477V349.951H271.038ZM271.038 348.39V349.951H269.477V348.39H271.038ZM269.477 346.829V348.39H267.916V346.829H269.477ZM267.916 346.829V348.39H266.355V346.829H267.916ZM266.355 346.829V348.39H264.794V346.829H266.355ZM266.355 348.39V349.951H264.794V348.39H266.355ZM267.916 348.39V349.951H266.355V348.39H267.916ZM269.477 348.39V349.951H267.916V348.39H269.477ZM264.794 340.585V342.146H263.233V340.585H264.794Z" fill="#5D5D5D"/>
</svg>
