<svg width="344" height="365" viewBox="0 0 344 365" fill="none" xmlns="http://www.w3.org/2000/svg">
<path d="M171.5 59L9.00024 221.5H259C259 159 229 100.25 177.75 64L171.5 59Z" stroke="#C21E1E" stroke-width="18" stroke-miterlimit="10" stroke-linecap="round" stroke-linejoin="round"/>
<path d="M334 221.5C334 139 294 62.75 227.75 15.25L220.25 9C192.75 9 171.5 30.25 171.5 57.75V59" stroke="#C21E1E" stroke-width="18" stroke-miterlimit="10" stroke-linecap="round" stroke-linejoin="round"/>
<path d="M184 184C197.807 184 209 172.807 209 159C209 145.193 197.807 134 184 134C170.193 134 159 145.193 159 159C159 172.807 170.193 184 184 184Z" stroke="#C21E1E" stroke-width="18" stroke-miterlimit="10" stroke-linecap="round" stroke-linejoin="round"/>
<path d="M109 171.5V184" stroke="#C21E1E" stroke-width="18" stroke-miterlimit="10" stroke-linecap="round" stroke-linejoin="round"/>
<path d="M302.75 184C279 180.25 259 197.75 259 221.5H9.00024V259H102.75C120.25 259 134 272.75 134 290.25C134 300.25 142.75 309 152.75 309C162.75 309 171.5 300.25 171.5 290.25C171.5 272.75 185.25 259 202.75 259H296.5C319 259 337.75 239 334 215.25C330.25 199 319 187.75 302.75 184Z" stroke="#C21E1E" stroke-width="18" stroke-miterlimit="10" stroke-linecap="round" stroke-linejoin="round"/>
<path d="M64.1832 357.195V358.756H62.6222V357.195H64.1832ZM64.1832 355.634V357.195H62.6222V355.634H64.1832ZM64.1832 354.073V355.634H62.6222V354.073H64.1832ZM64.1832 352.512V354.073H62.6222V352.512H64.1832ZM64.1832 341.585V343.146H62.6222V341.585H64.1832ZM65.7441 341.585V343.146H64.1832V341.585H65.7441ZM65.7441 343.146V344.707H64.1832V343.146H65.7441ZM65.7441 344.707V346.268H64.1832V344.707H65.7441ZM67.3051 352.512V354.073H65.7441V352.512H67.3051ZM67.3051 354.073V355.634H65.7441V354.073H67.3051ZM67.3051 355.634V357.195H65.7441V355.634H67.3051ZM67.3051 357.195V358.756H65.7441V357.195H67.3051ZM67.3051 358.756V360.317H65.7441V358.756H67.3051ZM67.3051 360.317V361.878H65.7441V360.317H67.3051ZM67.3051 361.878V363.439H65.7441V361.878H67.3051ZM70.4271 363.439V365H68.8661V363.439H70.4271ZM70.4271 361.878V363.439H68.8661V361.878H70.4271ZM70.4271 360.317V361.878H68.8661V360.317H70.4271ZM70.4271 358.756V360.317H68.8661V358.756H70.4271ZM70.4271 357.195V358.756H68.8661V357.195H70.4271ZM70.4271 355.634V357.195H68.8661V355.634H70.4271ZM70.4271 354.073V355.634H68.8661V354.073H70.4271ZM70.4271 352.512V354.073H68.8661V352.512H70.4271ZM68.8661 352.512V354.073H67.3051V352.512H68.8661ZM68.8661 354.073V355.634H67.3051V354.073H68.8661ZM68.8661 355.634V357.195H67.3051V355.634H68.8661ZM68.8661 357.195V358.756H67.3051V357.195H68.8661ZM68.8661 358.756V360.317H67.3051V358.756H68.8661ZM68.8661 360.317V361.878H67.3051V360.317H68.8661ZM68.8661 361.878V363.439H67.3051V361.878H68.8661ZM65.7441 360.317V361.878H64.1832V360.317H65.7441ZM65.7441 358.756V360.317H64.1832V358.756H65.7441ZM65.7441 357.195V358.756H64.1832V357.195H65.7441ZM65.7441 355.634V357.195H64.1832V355.634H65.7441ZM65.7441 354.073V355.634H64.1832V354.073H65.7441ZM65.7441 352.512V354.073H64.1832V352.512H65.7441ZM64.1832 340.024V341.585H62.6222V340.024H64.1832ZM68.8661 340.024V341.585H67.3051V340.024H68.8661ZM68.8661 341.585V343.146H67.3051V341.585H68.8661ZM68.8661 343.146V344.707H67.3051V343.146H68.8661ZM68.8661 344.707V346.268H67.3051V344.707H68.8661ZM68.8661 346.268V347.829H67.3051V346.268H68.8661ZM70.4271 347.829V349.39H68.8661V347.829H70.4271ZM70.4271 346.268V347.829H68.8661V346.268H70.4271ZM70.4271 344.707V346.268H68.8661V344.707H70.4271ZM70.4271 343.146V344.707H68.8661V343.146H70.4271ZM70.4271 341.585V343.146H68.8661V341.585H70.4271ZM70.4271 340.024V341.585H68.8661V340.024H70.4271ZM65.7441 340.024V341.585H64.1832V340.024H65.7441ZM67.3051 340.024V341.585H65.7441V340.024H67.3051ZM67.3051 341.585V343.146H65.7441V341.585H67.3051ZM67.3051 343.146V344.707H65.7441V343.146H67.3051ZM67.3051 344.707V346.268H65.7441V344.707H67.3051ZM67.3051 346.268V347.829H65.7441V346.268H67.3051ZM82.9149 363.439V365H81.3539V363.439H82.9149ZM82.9149 361.878V363.439H81.3539V361.878H82.9149ZM82.9149 360.317V361.878H81.3539V360.317H82.9149ZM82.9149 358.756V360.317H81.3539V358.756H82.9149ZM82.9149 357.195V358.756H81.3539V357.195H82.9149ZM82.9149 355.634V357.195H81.3539V355.634H82.9149ZM82.9149 354.073V355.634H81.3539V354.073H82.9149ZM82.9149 352.512V354.073H81.3539V352.512H82.9149ZM82.9149 350.951V352.512H81.3539V350.951H82.9149ZM82.9149 349.39V350.951H81.3539V349.39H82.9149ZM82.9149 347.829V349.39H81.3539V347.829H82.9149ZM82.9149 346.268V347.829H81.3539V346.268H82.9149ZM82.9149 344.707V346.268H81.3539V344.707H82.9149ZM82.9149 343.146V344.707H81.3539V343.146H82.9149ZM82.9149 341.585V343.146H81.3539V341.585H82.9149ZM84.4759 343.146V344.707H82.9149V343.146H84.4759ZM84.4759 344.707V346.268H82.9149V344.707H84.4759ZM84.4759 346.268V347.829H82.9149V346.268H84.4759ZM84.4759 347.829V349.39H82.9149V347.829H84.4759ZM84.4759 349.39V350.951H82.9149V349.39H84.4759ZM84.4759 350.951V352.512H82.9149V350.951H84.4759ZM86.0368 352.512V354.073H84.4759V352.512H86.0368ZM86.0368 354.073V355.634H84.4759V354.073H86.0368ZM86.0368 355.634V357.195H84.4759V355.634H86.0368ZM86.0368 357.195V358.756H84.4759V357.195H86.0368ZM86.0368 358.756V360.317H84.4759V358.756H86.0368ZM86.0368 360.317V361.878H84.4759V360.317H86.0368ZM86.0368 361.878V363.439H84.4759V361.878H86.0368ZM89.1588 357.195V358.756H87.5978V357.195H89.1588ZM89.1588 355.634V357.195H87.5978V355.634H89.1588ZM89.1588 354.073V355.634H87.5978V354.073H89.1588ZM89.1588 352.512V354.073H87.5978V352.512H89.1588ZM87.5978 352.512V354.073H86.0368V352.512H87.5978ZM87.5978 350.951V352.512H86.0368V350.951H87.5978ZM87.5978 354.073V355.634H86.0368V354.073H87.5978ZM87.5978 355.634V357.195H86.0368V355.634H87.5978ZM87.5978 357.195V358.756H86.0368V357.195H87.5978ZM87.5978 358.756V360.317H86.0368V358.756H87.5978ZM87.5978 360.317V361.878H86.0368V360.317H87.5978ZM84.4759 361.878V363.439H82.9149V361.878H84.4759ZM84.4759 360.317V361.878H82.9149V360.317H84.4759ZM84.4759 358.756V360.317H82.9149V358.756H84.4759ZM84.4759 357.195V358.756H82.9149V357.195H84.4759ZM84.4759 355.634V357.195H82.9149V355.634H84.4759ZM84.4759 354.073V355.634H82.9149V354.073H84.4759ZM84.4759 352.512V354.073H82.9149V352.512H84.4759ZM87.5978 346.268V347.829H86.0368V346.268H87.5978ZM89.1588 347.829V349.39H87.5978V347.829H89.1588ZM89.1588 349.39V350.951H87.5978V349.39H89.1588ZM89.1588 350.951V352.512H87.5978V350.951H89.1588ZM86.0368 343.146V344.707H84.4759V343.146H86.0368ZM86.0368 344.707V346.268H84.4759V344.707H86.0368ZM86.0368 346.268V347.829H84.4759V346.268H86.0368ZM86.0368 347.829V349.39H84.4759V347.829H86.0368ZM86.0368 349.39V350.951H84.4759V349.39H86.0368ZM86.0368 350.951V352.512H84.4759V350.951H86.0368ZM87.5978 349.39V350.951H86.0368V349.39H87.5978ZM87.5978 347.829V349.39H86.0368V347.829H87.5978ZM71.988 363.439V365H70.4271V363.439H71.988ZM73.549 363.439V365H71.988V363.439H73.549ZM75.11 363.439V365H73.549V363.439H75.11ZM78.232 363.439V365H76.671V363.439H78.232ZM79.7929 363.439V365H78.232V363.439H79.7929ZM81.3539 363.439V365H79.7929V363.439H81.3539ZM81.3539 361.878V363.439H79.7929V361.878H81.3539ZM79.7929 361.878V363.439H78.232V361.878H79.7929ZM78.232 361.878V363.439H76.671V361.878H78.232ZM75.11 361.878V363.439H73.549V361.878H75.11ZM73.549 361.878V363.439H71.988V361.878H73.549ZM71.988 361.878V363.439H70.4271V361.878H71.988ZM71.988 360.317V361.878H70.4271V360.317H71.988ZM73.549 360.317V361.878H71.988V360.317H73.549ZM75.11 360.317V361.878H73.549V360.317H75.11ZM78.232 360.317V361.878H76.671V360.317H78.232ZM79.7929 360.317V361.878H78.232V360.317H79.7929ZM81.3539 360.317V361.878H79.7929V360.317H81.3539ZM81.3539 358.756V360.317H79.7929V358.756H81.3539ZM79.7929 358.756V360.317H78.232V358.756H79.7929ZM78.232 358.756V360.317H76.671V358.756H78.232ZM75.11 358.756V360.317H73.549V358.756H75.11ZM73.549 358.756V360.317H71.988V358.756H73.549ZM71.988 358.756V360.317H70.4271V358.756H71.988ZM71.988 357.195V358.756H70.4271V357.195H71.988ZM81.3539 357.195V358.756H79.7929V357.195H81.3539ZM87.5978 333.78V332.22H89.1588V333.78H87.5978ZM87.5978 335.341V333.78H89.1588V335.341H87.5978ZM87.5978 336.902V335.341H89.1588V336.902H87.5978ZM84.4759 336.902V335.341H86.0368V336.902H84.4759ZM84.4759 335.341V333.78H86.0368V335.341H84.4759ZM84.4759 333.78V332.22H86.0368V333.78H84.4759ZM84.4759 332.22V330.659H86.0368V332.22H84.4759ZM84.4759 330.659V329.098H86.0368V330.659H84.4759ZM84.4759 329.098V327.537H86.0368V329.098H84.4759ZM81.3539 327.537V325.976H82.9149V327.537H81.3539ZM81.3539 329.098V327.537H82.9149V329.098H81.3539ZM81.3539 330.659V329.098H82.9149V330.659H81.3539ZM81.3539 332.22V330.659H82.9149V332.22H81.3539ZM81.3539 333.78V332.22H82.9149V333.78H81.3539ZM81.3539 335.341V333.78H82.9149V335.341H81.3539ZM81.3539 336.902V335.341H82.9149V336.902H81.3539ZM82.9149 336.902V335.341H84.4759V336.902H82.9149ZM82.9149 335.341V333.78H84.4759V335.341H82.9149ZM82.9149 333.78V332.22H84.4759V333.78H82.9149ZM82.9149 332.22V330.659H84.4759V332.22H82.9149ZM82.9149 330.659V329.098H84.4759V330.659H82.9149ZM82.9149 329.098V327.537H84.4759V329.098H82.9149ZM86.0368 330.659V329.098H87.5978V330.659H86.0368ZM86.0368 332.22V330.659H87.5978V332.22H86.0368ZM86.0368 333.78V332.22H87.5978V333.78H86.0368ZM86.0368 335.341V333.78H87.5978V335.341H86.0368ZM86.0368 336.902V335.341H87.5978V336.902H86.0368ZM68.8661 327.537V325.976H70.4271V327.537H68.8661ZM68.8661 329.098V327.537H70.4271V329.098H68.8661ZM68.8661 330.659V329.098H70.4271V330.659H68.8661ZM68.8661 332.22V330.659H70.4271V332.22H68.8661ZM68.8661 333.78V332.22H70.4271V333.78H68.8661ZM68.8661 335.341V333.78H70.4271V335.341H68.8661ZM68.8661 336.902V335.341H70.4271V336.902H68.8661ZM65.7441 336.902V335.341H67.3051V336.902H65.7441ZM65.7441 335.341V333.78H67.3051V335.341H65.7441ZM65.7441 333.78V332.22H67.3051V333.78H65.7441ZM65.7441 332.22V330.659H67.3051V332.22H65.7441ZM65.7441 330.659V329.098H67.3051V330.659H65.7441ZM65.7441 329.098V327.537H67.3051V329.098H65.7441ZM62.6222 333.78V332.22H64.1832V333.78H62.6222ZM62.6222 335.341V333.78H64.1832V335.341H62.6222ZM62.6222 336.902V335.341H64.1832V336.902H62.6222ZM64.1832 336.902V335.341H65.7441V336.902H64.1832ZM64.1832 335.341V333.78H65.7441V335.341H64.1832ZM64.1832 333.78V332.22H65.7441V333.78H64.1832ZM64.1832 332.22V330.659H65.7441V332.22H64.1832ZM64.1832 330.659V329.098H65.7441V330.659H64.1832ZM67.3051 329.098V327.537H68.8661V329.098H67.3051ZM67.3051 330.659V329.098H68.8661V330.659H67.3051ZM67.3051 332.22V330.659H68.8661V332.22H67.3051ZM67.3051 333.78V332.22H68.8661V333.78H67.3051ZM67.3051 335.341V333.78H68.8661V335.341H67.3051ZM67.3051 336.902V335.341H68.8661V336.902H67.3051ZM79.7929 327.537V325.976H81.3539V327.537H79.7929ZM78.232 327.537V325.976H79.7929V327.537H78.232ZM76.671 327.537V325.976H78.232V327.537H76.671ZM73.549 327.537V325.976H75.11V327.537H73.549ZM71.988 327.537V325.976H73.549V327.537H71.988ZM70.4271 327.537V325.976H71.988V327.537H70.4271ZM70.4271 329.098V327.537H71.988V329.098H70.4271ZM71.988 329.098V327.537H73.549V329.098H71.988ZM73.549 329.098V327.537H75.11V329.098H73.549ZM76.671 329.098V327.537H78.232V329.098H76.671ZM78.232 329.098V327.537H79.7929V329.098H78.232ZM79.7929 329.098V327.537H81.3539V329.098H79.7929ZM79.7929 330.659V329.098H81.3539V330.659H79.7929ZM78.232 330.659V329.098H79.7929V330.659H78.232ZM76.671 330.659V329.098H78.232V330.659H76.671ZM73.549 330.659V329.098H75.11V330.659H73.549ZM71.988 330.659V329.098H73.549V330.659H71.988ZM70.4271 330.659V329.098H71.988V330.659H70.4271ZM70.4271 332.22V330.659H71.988V332.22H70.4271ZM71.988 332.22V330.659H73.549V332.22H71.988ZM73.549 332.22V330.659H75.11V332.22H73.549ZM76.671 332.22V330.659H78.232V332.22H76.671ZM78.232 332.22V330.659H79.7929V332.22H78.232ZM79.7929 332.22V330.659H81.3539V332.22H79.7929ZM79.7929 333.78V332.22H81.3539V333.78H79.7929ZM70.4271 333.78V332.22H71.988V333.78H70.4271ZM64.1832 338.463V340.024H62.6222V338.463H64.1832ZM65.7441 338.463V340.024H64.1832V338.463H65.7441ZM64.1832 336.902V338.463H62.6222V336.902H64.1832ZM68.8661 336.902V338.463H67.3051V336.902H68.8661ZM68.8661 338.463V340.024H67.3051V338.463H68.8661ZM70.4271 338.463V340.024H68.8661V338.463H70.4271ZM70.4271 336.902V338.463H68.8661V336.902H70.4271ZM65.7441 336.902V338.463H64.1832V336.902H65.7441ZM67.3051 336.902V338.463H65.7441V336.902H67.3051ZM67.3051 338.463V340.024H65.7441V338.463H67.3051ZM73.549 357.195V358.756H71.988V357.195H73.549ZM75.11 357.195V358.756H73.549V357.195H75.11ZM78.232 357.195V358.756H76.671V357.195H78.232ZM79.7929 357.195V358.756H78.232V357.195H79.7929ZM81.3539 355.634V357.195H79.7929V355.634H81.3539ZM71.988 355.634V357.195H70.4271V355.634H71.988ZM73.549 332.22V333.78H71.988V332.22H73.549ZM75.11 332.22V333.78H73.549V332.22H75.11ZM78.232 332.22V333.78H76.671V332.22H78.232ZM79.7929 332.22V333.78H78.232V332.22H79.7929ZM81.3539 333.78V335.341H79.7929V333.78H81.3539ZM71.988 333.78V335.341H70.4271V333.78H71.988ZM75.11 344.707V346.268H73.549V344.707H75.11ZM78.232 344.707V346.268H76.671V344.707H78.232ZM79.7929 344.707V346.268H78.232V344.707H79.7929ZM81.3539 344.707V346.268H79.7929V344.707H81.3539ZM81.3539 346.268V347.829H79.7929V346.268H81.3539ZM79.7929 346.268V347.829H78.232V346.268H79.7929ZM78.232 346.268V347.829H76.671V346.268H78.232ZM75.11 346.268V347.829H73.549V346.268H75.11ZM75.11 341.585V343.146H73.549V341.585H75.11ZM78.232 341.585V343.146H76.671V341.585H78.232ZM79.7929 341.585V343.146H78.232V341.585H79.7929ZM81.3539 341.585V343.146H79.7929V341.585H81.3539ZM81.3539 343.146V344.707H79.7929V343.146H81.3539ZM79.7929 343.146V344.707H78.232V343.146H79.7929ZM78.232 343.146V344.707H76.671V343.146H78.232ZM75.11 343.146V344.707H73.549V343.146H75.11ZM75.11 347.829V349.39H73.549V347.829H75.11ZM78.232 347.829V349.39H76.671V347.829H78.232ZM79.7929 347.829V349.39H78.232V347.829H79.7929ZM81.3539 347.829V349.39H79.7929V347.829H81.3539ZM87.5978 344.707V346.268H86.0368V344.707H87.5978ZM81.3539 349.39V350.951H79.7929V349.39H81.3539ZM71.988 341.585V343.146H70.4271V341.585H71.988ZM73.549 341.585V343.146H71.988V341.585H73.549ZM71.988 340.024V341.585H70.4271V340.024H71.988ZM73.549 343.146V344.707H71.988V343.146H73.549ZM73.549 344.707V346.268H71.988V344.707H73.549ZM73.549 346.268V347.829H71.988V346.268H73.549ZM73.549 347.829V349.39H71.988V347.829H73.549ZM71.988 347.829V349.39H70.4271V347.829H71.988ZM71.988 346.268V347.829H70.4271V346.268H71.988ZM71.988 344.707V346.268H70.4271V344.707H71.988ZM71.988 343.146V344.707H70.4271V343.146H71.988ZM76.671 325.976V327.537H75.11V325.976H76.671ZM76.671 327.537V329.098H75.11V327.537H76.671ZM76.671 329.098V330.659H75.11V329.098H76.671ZM76.671 330.659V332.22H75.11V330.659H76.671ZM76.671 332.22V333.78H75.11V332.22H76.671ZM76.671 341.585V343.146H75.11V341.585H76.671ZM76.671 343.146V344.707H75.11V343.146H76.671ZM76.671 344.707V346.268H75.11V344.707H76.671ZM76.671 346.268V347.829H75.11V346.268H76.671ZM76.671 347.829V349.39H75.11V347.829H76.671ZM76.671 357.195V358.756H75.11V357.195H76.671ZM76.671 358.756V360.317H75.11V358.756H76.671ZM76.671 360.317V361.878H75.11V360.317H76.671ZM76.671 361.878V363.439H75.11V361.878H76.671ZM76.671 363.439V365H75.11V363.439H76.671ZM103.177 329.098V330.659H101.616V329.098H103.177ZM103.177 330.659V332.22H101.616V330.659H103.177ZM103.177 332.22V333.78H101.616V332.22H103.177ZM103.177 333.78V335.341H101.616V333.78H103.177ZM103.177 335.341V336.902H101.616V335.341H103.177ZM103.177 336.902V338.463H101.616V336.902H103.177ZM103.177 338.463V340.024H101.616V338.463H103.177ZM103.177 340.024V341.585H101.616V340.024H103.177ZM104.738 340.024V341.585H103.177V340.024H104.738ZM106.299 340.024V341.585H104.738V340.024H106.299ZM107.86 340.024V341.585H106.299V340.024H107.86ZM109.421 340.024V341.585H107.86V340.024H109.421ZM103.177 343.146V344.707H101.616V343.146H103.177ZM101.616 343.146V344.707H100.055V343.146H101.616ZM101.616 341.585V343.146H100.055V341.585H101.616ZM103.177 341.585V343.146H101.616V341.585H103.177ZM103.177 344.707V346.268H101.616V344.707H103.177ZM101.616 344.707V346.268H100.055V344.707H101.616ZM100.055 344.707V346.268H98.4941V344.707H100.055ZM98.4941 344.707V346.268H96.9332V344.707H98.4941ZM96.9332 344.707V346.268H95.3722V344.707H96.9332ZM93.8112 340.024V341.585H92.2502V340.024H93.8112ZM95.3722 340.024V341.585H93.8112V340.024H95.3722ZM96.9332 340.024V341.585H95.3722V340.024H96.9332ZM98.4941 340.024V341.585H96.9332V340.024H98.4941ZM100.055 340.024V341.585H98.4941V340.024H100.055ZM101.616 340.024V341.585H100.055V340.024H101.616ZM100.055 343.146V344.707H98.4941V343.146H100.055ZM100.055 341.585V343.146H98.4941V341.585H100.055ZM98.4941 341.585V343.146H96.9332V341.585H98.4941ZM96.9332 341.585V343.146H95.3722V341.585H96.9332ZM96.9332 343.146V344.707H95.3722V343.146H96.9332ZM98.4941 343.146V344.707H96.9332V343.146H98.4941ZM101.616 330.659V332.22H100.055V330.659H101.616ZM101.616 332.22V333.78H100.055V332.22H101.616ZM100.055 332.22V333.78H98.4941V332.22H100.055ZM100.055 333.78V335.341H98.4941V333.78H100.055ZM100.055 335.341V336.902H98.4941V335.341H100.055ZM98.4941 333.78V335.341H96.9332V333.78H98.4941ZM98.4941 335.341V336.902H96.9332V335.341H98.4941ZM96.9332 335.341V336.902H95.3722V335.341H96.9332ZM96.9332 336.902V338.463H95.3722V336.902H96.9332ZM96.9332 338.463V340.024H95.3722V338.463H96.9332ZM100.055 338.463V340.024H98.4941V338.463H100.055ZM101.616 338.463V340.024H100.055V338.463H101.616ZM101.616 336.902V338.463H100.055V336.902H101.616ZM101.616 335.341V336.902H100.055V335.341H101.616ZM101.616 333.78V335.341H100.055V333.78H101.616ZM100.055 336.902V338.463H98.4941V336.902H100.055ZM98.4941 338.463V340.024H96.9332V338.463H98.4941ZM98.4941 336.902V338.463H96.9332V336.902H98.4941ZM109.421 358.756V360.317H107.86V358.756H109.421ZM109.421 360.317V361.878H107.86V360.317H109.421ZM109.421 363.439V365H107.86V363.439H109.421ZM107.86 363.439V365H106.299V363.439H107.86ZM106.299 363.439V365H104.738V363.439H106.299ZM104.738 363.439V365H103.177V363.439H104.738ZM103.177 363.439V365H101.616V363.439H103.177ZM103.177 361.878V363.439H101.616V361.878H103.177ZM101.616 361.878V363.439H100.055V361.878H101.616ZM100.055 361.878V363.439H98.4941V361.878H100.055ZM100.055 360.317V361.878H98.4941V360.317H100.055ZM98.4941 360.317V361.878H96.9332V360.317H98.4941ZM98.4941 358.756V360.317H96.9332V358.756H98.4941ZM98.4941 357.195V358.756H96.9332V357.195H98.4941ZM96.9332 357.195V358.756H95.3722V357.195H96.9332ZM96.9332 355.634V357.195H95.3722V355.634H96.9332ZM96.9332 354.073V355.634H95.3722V354.073H96.9332ZM96.9332 352.512V354.073H95.3722V352.512H96.9332ZM96.9332 350.951V352.512H95.3722V350.951H96.9332ZM96.9332 349.39V350.951H95.3722V349.39H96.9332ZM96.9332 347.829V349.39H95.3722V347.829H96.9332ZM96.9332 346.268V347.829H95.3722V346.268H96.9332ZM98.4941 346.268V347.829H96.9332V346.268H98.4941ZM100.055 346.268V347.829H98.4941V346.268H100.055ZM101.616 346.268V347.829H100.055V346.268H101.616ZM103.177 346.268V347.829H101.616V346.268H103.177ZM103.177 347.829V349.39H101.616V347.829H103.177ZM103.177 349.39V350.951H101.616V349.39H103.177ZM103.177 350.951V352.512H101.616V350.951H103.177ZM103.177 352.512V354.073H101.616V352.512H103.177ZM103.177 354.073V355.634H101.616V354.073H103.177ZM103.177 355.634V357.195H101.616V355.634H103.177ZM103.177 357.195V358.756H101.616V357.195H103.177ZM104.738 357.195V358.756H103.177V357.195H104.738ZM104.738 358.756V360.317H103.177V358.756H104.738ZM106.299 358.756V360.317H104.738V358.756H106.299ZM106.299 360.317V361.878H104.738V360.317H106.299ZM107.86 360.317V361.878H106.299V360.317H107.86ZM107.86 358.756V360.317H106.299V358.756H107.86ZM109.421 361.878V363.439H107.86V361.878H109.421ZM107.86 361.878V363.439H106.299V361.878H107.86ZM106.299 361.878V363.439H104.738V361.878H106.299ZM104.738 361.878V363.439H103.177V361.878H104.738ZM104.738 360.317V361.878H103.177V360.317H104.738ZM103.177 360.317V361.878H101.616V360.317H103.177ZM103.177 358.756V360.317H101.616V358.756H103.177ZM101.616 358.756V360.317H100.055V358.756H101.616ZM101.616 360.317V361.878H100.055V360.317H101.616ZM100.055 358.756V360.317H98.4941V358.756H100.055ZM101.616 357.195V358.756H100.055V357.195H101.616ZM101.616 355.634V357.195H100.055V355.634H101.616ZM100.055 357.195V358.756H98.4941V357.195H100.055ZM100.055 355.634V357.195H98.4941V355.634H100.055ZM101.616 354.073V355.634H100.055V354.073H101.616ZM101.616 352.512V354.073H100.055V352.512H101.616ZM101.616 350.951V352.512H100.055V350.951H101.616ZM101.616 349.39V350.951H100.055V349.39H101.616ZM101.616 347.829V349.39H100.055V347.829H101.616ZM100.055 347.829V349.39H98.4941V347.829H100.055ZM98.4941 347.829V349.39H96.9332V347.829H98.4941ZM98.4941 349.39V350.951H96.9332V349.39H98.4941ZM98.4941 350.951V352.512H96.9332V350.951H98.4941ZM98.4941 352.512V354.073H96.9332V352.512H98.4941ZM98.4941 354.073V355.634H96.9332V354.073H98.4941ZM98.4941 355.634V357.195H96.9332V355.634H98.4941ZM100.055 354.073V355.634H98.4941V354.073H100.055ZM100.055 352.512V354.073H98.4941V352.512H100.055ZM100.055 350.951V352.512H98.4941V350.951H100.055ZM100.055 349.39V350.951H98.4941V349.39H100.055ZM109.421 336.902V338.463H107.86V336.902H109.421ZM107.86 336.902V338.463H106.299V336.902H107.86ZM107.86 338.463V340.024H106.299V338.463H107.86ZM109.421 338.463V340.024H107.86V338.463H109.421ZM106.299 338.463V340.024H104.738V338.463H106.299ZM104.738 338.463V340.024H103.177V338.463H104.738ZM104.738 336.902V338.463H103.177V336.902H104.738ZM106.299 336.902V338.463H104.738V336.902H106.299ZM96.9332 333.78V335.341H95.3722V333.78H96.9332ZM98.4941 332.22V333.78H96.9332V332.22H98.4941ZM100.055 330.659V332.22H98.4941V330.659H100.055ZM101.616 329.098V330.659H100.055V329.098H101.616ZM95.3722 336.902V338.463H93.8112V336.902H95.3722ZM95.3722 338.463V340.024H93.8112V338.463H95.3722ZM93.8112 338.463V340.024H92.2502V338.463H93.8112ZM93.8112 336.902V338.463H92.2502V336.902H93.8112ZM103.177 327.537V329.098H101.616V327.537H103.177ZM93.8112 341.585V343.146H92.2502V341.585H93.8112ZM95.3722 341.585V343.146H93.8112V341.585H95.3722ZM104.738 341.585V343.146H103.177V341.585H104.738ZM106.299 341.585V343.146H104.738V341.585H106.299ZM107.86 341.585V343.146H106.299V341.585H107.86ZM109.421 341.585V343.146H107.86V341.585H109.421ZM118.805 355.634V354.073H120.366V355.634H118.805ZM117.244 355.634V354.073H118.805V355.634H117.244ZM115.683 355.634V354.073H117.244V355.634H115.683ZM114.122 355.634V354.073H115.683V355.634H114.122ZM112.561 355.634V354.073H114.122V355.634H112.561ZM112.561 357.195V355.634H114.122V357.195H112.561ZM112.561 358.756V357.195H114.122V358.756H112.561ZM114.122 358.756V357.195H115.683V358.756H114.122ZM115.683 358.756V357.195H117.244V358.756H115.683ZM117.244 358.756V357.195H118.805V358.756H117.244ZM117.244 357.195V355.634H118.805V357.195H117.244ZM118.805 357.195V355.634H120.366V357.195H118.805ZM115.683 357.195V355.634H117.244V357.195H115.683ZM114.122 357.195V355.634H115.683V357.195H114.122ZM118.805 358.756V357.195H120.366V358.756H118.805ZM120.366 358.756V357.195H121.927V358.756H120.366ZM120.366 360.317V358.756H121.927V360.317H120.366ZM118.805 360.317V358.756H120.366V360.317H118.805ZM117.244 360.317V358.756H118.805V360.317H117.244ZM115.683 360.317V358.756H117.244V360.317H115.683ZM114.122 360.317V358.756H115.683V360.317H114.122ZM114.122 361.878V360.317H115.683V361.878H114.122ZM115.683 361.878V360.317H117.244V361.878H115.683ZM117.244 361.878V360.317H118.805V361.878H117.244ZM118.805 361.878V360.317H120.366V361.878H118.805ZM120.366 361.878V360.317H121.927V361.878H120.366ZM117.244 363.439V361.878H118.805V363.439H117.244ZM115.683 363.439V361.878H117.244V363.439H115.683ZM118.805 363.439V361.878H120.366V363.439H118.805ZM118.805 365V363.439H120.366V365H118.805ZM120.366 365V363.439H121.927V365H120.366ZM120.366 363.439V361.878H121.927V363.439H120.366ZM121.927 363.439V361.878H123.488V363.439H121.927ZM121.927 365V363.439H123.488V365H121.927ZM121.927 361.878V360.317H123.488V361.878H121.927ZM123.488 361.878V360.317H125.049V361.878H123.488ZM123.488 360.317V358.756H125.049V360.317H123.488ZM121.927 360.317V358.756H123.488V360.317H121.927ZM125.049 360.317V358.756H126.61V360.317H125.049ZM125.049 361.878V360.317H126.61V361.878H125.049ZM125.049 363.439V361.878H126.61V363.439H125.049ZM125.049 365V363.439H126.61V365H125.049ZM123.488 365V363.439H125.049V365H123.488ZM123.488 363.439V361.878H125.049V363.439H123.488ZM126.61 365V363.439H128.171V365H126.61ZM129.732 363.439V361.878H131.293V363.439H129.732ZM129.732 361.878V360.317H131.293V361.878H129.732ZM129.732 360.317V358.756H131.293V360.317H129.732ZM128.171 360.317V358.756H129.732V360.317H128.171ZM126.61 360.317V358.756H128.171V360.317H126.61ZM126.61 361.878V360.317H128.171V361.878H126.61ZM126.61 363.439V361.878H128.171V363.439H126.61ZM128.171 363.439V361.878H129.732V363.439H128.171ZM128.171 361.878V360.317H129.732V361.878H128.171ZM131.293 361.878V360.317H132.854V361.878H131.293ZM131.293 363.439V361.878H132.854V363.439H131.293ZM132.854 363.439V361.878H134.415V363.439H132.854ZM132.854 361.878V360.317H134.415V361.878H132.854ZM134.415 361.878V360.317H135.976V361.878H134.415ZM134.415 360.317V358.756H135.976V360.317H134.415ZM134.415 358.756V357.195H135.976V358.756H134.415ZM132.854 358.756V357.195H134.415V358.756H132.854ZM132.854 360.317V358.756H134.415V360.317H132.854ZM131.293 360.317V358.756H132.854V360.317H131.293ZM131.293 358.756V357.195H132.854V358.756H131.293ZM129.732 358.756V357.195H131.293V358.756H129.732ZM135.976 358.756V357.195H137.537V358.756H135.976ZM135.976 357.195V355.634H137.537V357.195H135.976ZM135.976 355.634V354.073H137.537V355.634H135.976ZM135.976 354.073V352.512H137.537V354.073H135.976ZM135.976 352.512V350.951H137.537V352.512H135.976ZM135.976 350.951V349.39H137.537V350.951H135.976ZM135.976 349.39V347.829H137.537V349.39H135.976ZM135.976 347.829V346.268H137.537V347.829H135.976ZM135.976 346.268V344.707H137.537V346.268H135.976ZM135.976 344.707V343.146H137.537V344.707H135.976ZM134.415 344.707V343.146H135.976V344.707H134.415ZM134.415 343.146V341.585H135.976V343.146H134.415ZM135.976 343.146V341.585H137.537V343.146H135.976ZM132.854 343.146V341.585H134.415V343.146H132.854ZM131.293 343.146V341.585H132.854V343.146H131.293ZM129.732 343.146V341.585H131.293V343.146H129.732ZM128.171 343.146V341.585H129.732V343.146H128.171ZM129.732 344.707V343.146H131.293V344.707H129.732ZM129.732 346.268V344.707H131.293V346.268H129.732ZM129.732 347.829V346.268H131.293V347.829H129.732ZM129.732 349.39V347.829H131.293V349.39H129.732ZM129.732 350.951V349.39H131.293V350.951H129.732ZM129.732 352.512V350.951H131.293V352.512H129.732ZM129.732 354.073V352.512H131.293V354.073H129.732ZM129.732 355.634V354.073H131.293V355.634H129.732ZM129.732 357.195V355.634H131.293V357.195H129.732ZM131.293 357.195V355.634H132.854V357.195H131.293ZM132.854 357.195V355.634H134.415V357.195H132.854ZM134.415 357.195V355.634H135.976V357.195H134.415ZM134.415 355.634V354.073H135.976V355.634H134.415ZM134.415 354.073V352.512H135.976V354.073H134.415ZM134.415 352.512V350.951H135.976V352.512H134.415ZM134.415 350.951V349.39H135.976V350.951H134.415ZM134.415 349.39V347.829H135.976V349.39H134.415ZM134.415 347.829V346.268H135.976V347.829H134.415ZM134.415 346.268V344.707H135.976V346.268H134.415ZM132.854 344.707V343.146H134.415V344.707H132.854ZM131.293 344.707V343.146H132.854V344.707H131.293ZM131.293 346.268V344.707H132.854V346.268H131.293ZM131.293 347.829V346.268H132.854V347.829H131.293ZM131.293 349.39V347.829H132.854V349.39H131.293ZM131.293 350.951V349.39H132.854V350.951H131.293ZM132.854 350.951V349.39H134.415V350.951H132.854ZM132.854 352.512V350.951H134.415V352.512H132.854ZM132.854 354.073V352.512H134.415V354.073H132.854ZM132.854 355.634V354.073H134.415V355.634H132.854ZM131.293 355.634V354.073H132.854V355.634H131.293ZM131.293 354.073V352.512H132.854V354.073H131.293ZM131.293 352.512V350.951H132.854V352.512H131.293ZM132.854 347.829V346.268H134.415V347.829H132.854ZM132.854 346.268V344.707H134.415V346.268H132.854ZM132.854 349.39V347.829H134.415V349.39H132.854ZM118.805 344.707V343.146H120.366V344.707H118.805ZM117.244 344.707V343.146H118.805V344.707H117.244ZM115.683 344.707V343.146H117.244V344.707H115.683ZM114.122 344.707V343.146H115.683V344.707H114.122ZM112.561 344.707V343.146H114.122V344.707H112.561ZM112.561 343.146V341.585H114.122V343.146H112.561ZM114.122 343.146V341.585H115.683V343.146H114.122ZM115.683 343.146V341.585H117.244V343.146H115.683ZM117.244 343.146V341.585H118.805V343.146H117.244ZM118.805 343.146V341.585H120.366V343.146H118.805ZM120.366 343.146V341.585H121.927V343.146H120.366ZM120.366 341.585V340.024H121.927V341.585H120.366ZM118.805 341.585V340.024H120.366V341.585H118.805ZM117.244 341.585V340.024H118.805V341.585H117.244ZM115.683 341.585V340.024H117.244V341.585H115.683ZM115.683 340.024V338.463H117.244V340.024H115.683ZM114.122 340.024V338.463H115.683V340.024H114.122ZM114.122 341.585V340.024H115.683V341.585H114.122ZM115.683 338.463V336.902H117.244V338.463H115.683ZM117.244 338.463V336.902H118.805V338.463H117.244ZM117.244 340.024V338.463H118.805V340.024H117.244ZM118.805 340.024V338.463H120.366V340.024H118.805ZM118.805 338.463V336.902H120.366V338.463H118.805ZM118.805 336.902V335.341H120.366V336.902H118.805ZM120.366 336.902V335.341H121.927V336.902H120.366ZM121.927 336.902V335.341H123.488V336.902H121.927ZM123.488 336.902V335.341H125.049V336.902H123.488ZM125.049 336.902V335.341H126.61V336.902H125.049ZM126.61 336.902V335.341H128.171V336.902H126.61ZM128.171 336.902V335.341H129.732V336.902H128.171ZM129.732 336.902V335.341H131.293V336.902H129.732ZM128.171 338.463V336.902H129.732V338.463H128.171ZM126.61 338.463V336.902H128.171V338.463H126.61ZM125.049 338.463V336.902H126.61V338.463H125.049ZM123.488 338.463V336.902H125.049V338.463H123.488ZM121.927 338.463V336.902H123.488V338.463H121.927ZM120.366 338.463V336.902H121.927V338.463H120.366ZM120.366 340.024V338.463H121.927V340.024H120.366ZM121.927 340.024V338.463H123.488V340.024H121.927ZM123.488 340.024V338.463H125.049V340.024H123.488ZM125.049 340.024V338.463H126.61V340.024H125.049ZM126.61 340.024V338.463H128.171V340.024H126.61ZM128.171 340.024V338.463H129.732V340.024H128.171ZM129.732 338.463V336.902H131.293V338.463H129.732ZM131.293 338.463V336.902H132.854V338.463H131.293ZM132.854 338.463V336.902H134.415V338.463H132.854ZM132.854 340.024V338.463H134.415V340.024H132.854ZM134.415 340.024V338.463H135.976V340.024H134.415ZM134.415 341.585V340.024H135.976V341.585H134.415ZM132.854 341.585V340.024H134.415V341.585H132.854ZM131.293 341.585V340.024H132.854V341.585H131.293ZM129.732 341.585V340.024H131.293V341.585H129.732ZM128.171 341.585V340.024H129.732V341.585H128.171ZM126.61 341.585V340.024H128.171V341.585H126.61ZM125.049 341.585V340.024H126.61V341.585H125.049ZM123.488 341.585V340.024H125.049V341.585H123.488ZM121.927 341.585V340.024H123.488V341.585H121.927ZM129.732 340.024V338.463H131.293V340.024H129.732ZM131.293 340.024V338.463H132.854V340.024H131.293ZM114.122 354.073V352.512H115.683V354.073H114.122ZM115.683 354.073V352.512H117.244V354.073H115.683ZM117.244 354.073V352.512H118.805V354.073H117.244ZM118.805 354.073V352.512H120.366V354.073H118.805ZM115.683 352.512V350.951H117.244V352.512H115.683ZM117.244 352.512V350.951H118.805V352.512H117.244ZM120.366 352.512V350.951H121.927V352.512H120.366ZM121.927 352.512V350.951H123.488V352.512H121.927ZM123.488 352.512V350.951H125.049V352.512H123.488ZM125.049 352.512V350.951H126.61V352.512H125.049ZM126.61 352.512V350.951H128.171V352.512H126.61ZM128.171 352.512V350.951H129.732V352.512H128.171ZM118.805 352.512V350.951H120.366V352.512H118.805ZM114.122 352.512V350.951H115.683V352.512H114.122ZM115.683 350.951V349.39H117.244V350.951H115.683ZM117.244 350.951V349.39H118.805V350.951H117.244ZM118.805 350.951V349.39H120.366V350.951H118.805ZM120.366 350.951V349.39H121.927V350.951H120.366ZM121.927 350.951V349.39H123.488V350.951H121.927ZM123.488 350.951V349.39H125.049V350.951H123.488ZM125.049 350.951V349.39H126.61V350.951H125.049ZM126.61 350.951V349.39H128.171V350.951H126.61ZM128.171 350.951V349.39H129.732V350.951H128.171ZM128.171 349.39V347.829H129.732V349.39H128.171ZM126.61 349.39V347.829H128.171V349.39H126.61ZM125.049 349.39V347.829H126.61V349.39H125.049ZM121.927 349.39V347.829H123.488V349.39H121.927ZM120.366 349.39V347.829H121.927V349.39H120.366ZM118.805 349.39V347.829H120.366V349.39H118.805ZM123.488 349.39V347.829H125.049V349.39H123.488ZM137.537 358.756V360.317H135.976V358.756H137.537ZM137.537 360.317V361.878H135.976V360.317H137.537ZM137.537 361.878V363.439H135.976V361.878H137.537ZM137.537 363.439V365H135.976V363.439H137.537ZM135.976 363.439V365H134.415V363.439H135.976ZM135.976 361.878V363.439H134.415V361.878H135.976ZM134.415 363.439V365H132.854V363.439H134.415ZM132.854 363.439V365H131.293V363.439H132.854ZM131.293 363.439V365H129.732V363.439H131.293ZM129.732 357.195V358.756H128.171V357.195H129.732ZM118.805 363.439V365H117.244V363.439H118.805ZM121.927 352.512V354.073H120.366V352.512H121.927ZM145.371 363.439V365H143.81V363.439H145.371ZM145.371 361.878V363.439H143.81V361.878H145.371ZM145.371 360.317V361.878H143.81V360.317H145.371ZM145.371 358.756V360.317H143.81V358.756H145.371ZM145.371 357.195V358.756H143.81V357.195H145.371ZM145.371 355.634V357.195H143.81V355.634H145.371ZM145.371 354.073V355.634H143.81V354.073H145.371ZM145.371 352.512V354.073H143.81V352.512H145.371ZM145.371 350.951V352.512H143.81V350.951H145.371ZM145.371 349.39V350.951H143.81V349.39H145.371ZM145.371 347.829V349.39H143.81V347.829H145.371ZM145.371 346.268V347.829H143.81V346.268H145.371ZM145.371 344.707V346.268H143.81V344.707H145.371ZM145.371 343.146V344.707H143.81V343.146H145.371ZM145.371 341.585V343.146H143.81V341.585H145.371ZM146.932 341.585V343.146H145.371V341.585H146.932ZM146.932 343.146V344.707H145.371V343.146H146.932ZM146.932 344.707V346.268H145.371V344.707H146.932ZM146.932 346.268V347.829H145.371V346.268H146.932ZM146.932 347.829V349.39H145.371V347.829H146.932ZM146.932 349.39V350.951H145.371V349.39H146.932ZM146.932 350.951V352.512H145.371V350.951H146.932ZM148.493 352.512V354.073H146.932V352.512H148.493ZM148.493 354.073V355.634H146.932V354.073H148.493ZM148.493 355.634V357.195H146.932V355.634H148.493ZM148.493 357.195V358.756H146.932V357.195H148.493ZM148.493 358.756V360.317H146.932V358.756H148.493ZM148.493 360.317V361.878H146.932V360.317H148.493ZM148.493 361.878V363.439H146.932V361.878H148.493ZM148.493 363.439V365H146.932V363.439H148.493ZM150.054 363.439V365H148.493V363.439H150.054ZM151.615 363.439V365H150.054V363.439H151.615ZM151.615 361.878V363.439H150.054V361.878H151.615ZM151.615 360.317V361.878H150.054V360.317H151.615ZM151.615 358.756V360.317H150.054V358.756H151.615ZM151.615 357.195V358.756H150.054V357.195H151.615ZM151.615 355.634V357.195H150.054V355.634H151.615ZM151.615 354.073V355.634H150.054V354.073H151.615ZM151.615 352.512V354.073H150.054V352.512H151.615ZM150.054 352.512V354.073H148.493V352.512H150.054ZM150.054 350.951V352.512H148.493V350.951H150.054ZM150.054 354.073V355.634H148.493V354.073H150.054ZM150.054 355.634V357.195H148.493V355.634H150.054ZM150.054 357.195V358.756H148.493V357.195H150.054ZM150.054 358.756V360.317H148.493V358.756H150.054ZM150.054 360.317V361.878H148.493V360.317H150.054ZM150.054 361.878V363.439H148.493V361.878H150.054ZM146.932 363.439V365H145.371V363.439H146.932ZM146.932 361.878V363.439H145.371V361.878H146.932ZM146.932 360.317V361.878H145.371V360.317H146.932ZM146.932 358.756V360.317H145.371V358.756H146.932ZM146.932 357.195V358.756H145.371V357.195H146.932ZM146.932 355.634V357.195H145.371V355.634H146.932ZM146.932 354.073V355.634H145.371V354.073H146.932ZM146.932 352.512V354.073H145.371V352.512H146.932ZM145.371 335.341V336.902H143.81V335.341H145.371ZM145.371 336.902V338.463H143.81V336.902H145.371ZM145.371 338.463V340.024H143.81V338.463H145.371ZM145.371 340.024V341.585H143.81V340.024H145.371ZM150.054 336.902V338.463H148.493V336.902H150.054ZM150.054 338.463V340.024H148.493V338.463H150.054ZM150.054 340.024V341.585H148.493V340.024H150.054ZM150.054 341.585V343.146H148.493V341.585H150.054ZM150.054 343.146V344.707H148.493V343.146H150.054ZM150.054 344.707V346.268H148.493V344.707H150.054ZM150.054 346.268V347.829H148.493V346.268H150.054ZM151.615 347.829V349.39H150.054V347.829H151.615ZM151.615 349.39V350.951H150.054V349.39H151.615ZM151.615 350.951V352.512H150.054V350.951H151.615ZM151.615 346.268V347.829H150.054V346.268H151.615ZM151.615 344.707V346.268H150.054V344.707H151.615ZM151.615 343.146V344.707H150.054V343.146H151.615ZM151.615 341.585V343.146H150.054V341.585H151.615ZM151.615 340.024V341.585H150.054V340.024H151.615ZM151.615 338.463V340.024H150.054V338.463H151.615ZM151.615 336.902V338.463H150.054V336.902H151.615ZM151.615 335.341V336.902H150.054V335.341H151.615ZM150.054 335.341V336.902H148.493V335.341H150.054ZM148.493 335.341V336.902H146.932V335.341H148.493ZM148.493 336.902V338.463H146.932V336.902H148.493ZM146.932 338.463V340.024H145.371V338.463H146.932ZM146.932 340.024V341.585H145.371V340.024H146.932ZM146.932 336.902V338.463H145.371V336.902H146.932ZM146.932 335.341V336.902H145.371V335.341H146.932ZM148.493 338.463V340.024H146.932V338.463H148.493ZM148.493 340.024V341.585H146.932V340.024H148.493ZM148.493 341.585V343.146H146.932V341.585H148.493ZM148.493 343.146V344.707H146.932V343.146H148.493ZM148.493 344.707V346.268H146.932V344.707H148.493ZM148.493 346.268V347.829H146.932V346.268H148.493ZM148.493 347.829V349.39H146.932V347.829H148.493ZM148.493 349.39V350.951H146.932V349.39H148.493ZM148.493 350.951V352.512H146.932V350.951H148.493ZM150.054 349.39V350.951H148.493V349.39H150.054ZM150.054 347.829V349.39H148.493V347.829H150.054ZM162.541 341.585V343.146H160.98V341.585H162.541ZM162.541 335.341V336.902H160.98V335.341H162.541ZM162.541 336.902V338.463H160.98V336.902H162.541ZM164.102 336.902V338.463H162.541V336.902H164.102ZM165.663 338.463V340.024H164.102V338.463H165.663ZM164.102 340.024V341.585H162.541V340.024H164.102ZM164.102 338.463V340.024H162.541V338.463H164.102ZM162.541 338.463V340.024H160.98V338.463H162.541ZM160.98 338.463V340.024H159.419V338.463H160.98ZM160.98 340.024V341.585H159.419V340.024H160.98ZM162.541 340.024V341.585H160.98V340.024H162.541ZM160.98 341.585V343.146H159.419V341.585H160.98ZM159.419 340.024V341.585H157.858V340.024H159.419ZM159.419 338.463V340.024H157.858V338.463H159.419ZM159.419 336.902V338.463H157.858V336.902H159.419ZM159.419 335.341V336.902H157.858V335.341H159.419ZM160.98 335.341V336.902H159.419V335.341H160.98ZM160.98 336.902V338.463H159.419V336.902H160.98ZM157.858 335.341V336.902H156.297V335.341H157.858ZM157.858 336.902V338.463H156.297V336.902H157.858ZM157.858 338.463V340.024H156.297V338.463H157.858ZM157.858 340.024V341.585H156.297V340.024H157.858ZM156.297 335.341V336.902H154.737V335.341H156.297ZM156.297 336.902V338.463H154.737V336.902H156.297ZM154.737 336.902V338.463H153.176V336.902H154.737ZM154.737 338.463V340.024H153.176V338.463H154.737ZM153.176 338.463V340.024H151.615V338.463H153.176ZM153.176 340.024V341.585H151.615V340.024H153.176ZM154.737 340.024V341.585H153.176V340.024H154.737ZM156.297 340.024V341.585H154.737V340.024H156.297ZM156.297 338.463V340.024H154.737V338.463H156.297ZM153.176 341.585V343.146H151.615V341.585H153.176ZM154.737 335.341V336.902H153.176V335.341H154.737ZM153.176 336.902V338.463H151.615V336.902H153.176ZM159.419 341.585V343.146H157.858V341.585H159.419ZM160.98 343.146V344.707H159.419V343.146H160.98ZM176.615 329.098V330.659H175.054V329.098H176.615ZM176.615 330.659V332.22H175.054V330.659H176.615ZM176.615 332.22V333.78H175.054V332.22H176.615ZM176.615 333.78V335.341H175.054V333.78H176.615ZM176.615 335.341V336.902H175.054V335.341H176.615ZM176.615 336.902V338.463H175.054V336.902H176.615ZM176.615 338.463V340.024H175.054V338.463H176.615ZM176.615 340.024V341.585H175.054V340.024H176.615ZM178.176 340.024V341.585H176.615V340.024H178.176ZM179.737 340.024V341.585H178.176V340.024H179.737ZM181.297 340.024V341.585H179.737V340.024H181.297ZM182.858 340.024V341.585H181.297V340.024H182.858ZM176.615 343.146V344.707H175.054V343.146H176.615ZM175.054 343.146V344.707H173.493V343.146H175.054ZM175.054 341.585V343.146H173.493V341.585H175.054ZM176.615 341.585V343.146H175.054V341.585H176.615ZM176.615 344.707V346.268H175.054V344.707H176.615ZM175.054 344.707V346.268H173.493V344.707H175.054ZM173.493 344.707V346.268H171.932V344.707H173.493ZM171.932 344.707V346.268H170.371V344.707H171.932ZM170.371 344.707V346.268H168.81V344.707H170.371ZM167.249 340.024V341.585H165.688V340.024H167.249ZM168.81 340.024V341.585H167.249V340.024H168.81ZM170.371 340.024V341.585H168.81V340.024H170.371ZM171.932 340.024V341.585H170.371V340.024H171.932ZM173.493 340.024V341.585H171.932V340.024H173.493ZM175.054 340.024V341.585H173.493V340.024H175.054ZM173.493 343.146V344.707H171.932V343.146H173.493ZM173.493 341.585V343.146H171.932V341.585H173.493ZM171.932 341.585V343.146H170.371V341.585H171.932ZM170.371 341.585V343.146H168.81V341.585H170.371ZM170.371 343.146V344.707H168.81V343.146H170.371ZM171.932 343.146V344.707H170.371V343.146H171.932ZM175.054 330.659V332.22H173.493V330.659H175.054ZM175.054 332.22V333.78H173.493V332.22H175.054ZM173.493 332.22V333.78H171.932V332.22H173.493ZM173.493 333.78V335.341H171.932V333.78H173.493ZM173.493 335.341V336.902H171.932V335.341H173.493ZM171.932 333.78V335.341H170.371V333.78H171.932ZM171.932 335.341V336.902H170.371V335.341H171.932ZM170.371 335.341V336.902H168.81V335.341H170.371ZM170.371 336.902V338.463H168.81V336.902H170.371ZM170.371 338.463V340.024H168.81V338.463H170.371ZM173.493 338.463V340.024H171.932V338.463H173.493ZM175.054 338.463V340.024H173.493V338.463H175.054ZM175.054 336.902V338.463H173.493V336.902H175.054ZM175.054 335.341V336.902H173.493V335.341H175.054ZM175.054 333.78V335.341H173.493V333.78H175.054ZM173.493 336.902V338.463H171.932V336.902H173.493ZM171.932 338.463V340.024H170.371V338.463H171.932ZM171.932 336.902V338.463H170.371V336.902H171.932ZM182.858 358.756V360.317H181.297V358.756H182.858ZM182.858 360.317V361.878H181.297V360.317H182.858ZM182.858 363.439V365H181.297V363.439H182.858ZM181.297 363.439V365H179.737V363.439H181.297ZM179.737 363.439V365H178.176V363.439H179.737ZM178.176 363.439V365H176.615V363.439H178.176ZM176.615 363.439V365H175.054V363.439H176.615ZM176.615 361.878V363.439H175.054V361.878H176.615ZM175.054 361.878V363.439H173.493V361.878H175.054ZM173.493 361.878V363.439H171.932V361.878H173.493ZM173.493 360.317V361.878H171.932V360.317H173.493ZM171.932 360.317V361.878H170.371V360.317H171.932ZM171.932 358.756V360.317H170.371V358.756H171.932ZM171.932 357.195V358.756H170.371V357.195H171.932ZM170.371 357.195V358.756H168.81V357.195H170.371ZM170.371 355.634V357.195H168.81V355.634H170.371ZM170.371 354.073V355.634H168.81V354.073H170.371ZM170.371 352.512V354.073H168.81V352.512H170.371ZM170.371 350.951V352.512H168.81V350.951H170.371ZM170.371 349.39V350.951H168.81V349.39H170.371ZM170.371 347.829V349.39H168.81V347.829H170.371ZM170.371 346.268V347.829H168.81V346.268H170.371ZM171.932 346.268V347.829H170.371V346.268H171.932ZM173.493 346.268V347.829H171.932V346.268H173.493ZM175.054 346.268V347.829H173.493V346.268H175.054ZM176.615 346.268V347.829H175.054V346.268H176.615ZM176.615 347.829V349.39H175.054V347.829H176.615ZM176.615 349.39V350.951H175.054V349.39H176.615ZM176.615 350.951V352.512H175.054V350.951H176.615ZM176.615 352.512V354.073H175.054V352.512H176.615ZM176.615 354.073V355.634H175.054V354.073H176.615ZM176.615 355.634V357.195H175.054V355.634H176.615ZM176.615 357.195V358.756H175.054V357.195H176.615ZM178.176 357.195V358.756H176.615V357.195H178.176ZM178.176 358.756V360.317H176.615V358.756H178.176ZM179.737 358.756V360.317H178.176V358.756H179.737ZM179.737 360.317V361.878H178.176V360.317H179.737ZM181.297 360.317V361.878H179.737V360.317H181.297ZM181.297 358.756V360.317H179.737V358.756H181.297ZM182.858 361.878V363.439H181.297V361.878H182.858ZM181.297 361.878V363.439H179.737V361.878H181.297ZM179.737 361.878V363.439H178.176V361.878H179.737ZM178.176 361.878V363.439H176.615V361.878H178.176ZM178.176 360.317V361.878H176.615V360.317H178.176ZM176.615 360.317V361.878H175.054V360.317H176.615ZM176.615 358.756V360.317H175.054V358.756H176.615ZM175.054 358.756V360.317H173.493V358.756H175.054ZM175.054 360.317V361.878H173.493V360.317H175.054ZM173.493 358.756V360.317H171.932V358.756H173.493ZM175.054 357.195V358.756H173.493V357.195H175.054ZM175.054 355.634V357.195H173.493V355.634H175.054ZM173.493 357.195V358.756H171.932V357.195H173.493ZM173.493 355.634V357.195H171.932V355.634H173.493ZM175.054 354.073V355.634H173.493V354.073H175.054ZM175.054 352.512V354.073H173.493V352.512H175.054ZM175.054 350.951V352.512H173.493V350.951H175.054ZM175.054 349.39V350.951H173.493V349.39H175.054ZM175.054 347.829V349.39H173.493V347.829H175.054ZM173.493 347.829V349.39H171.932V347.829H173.493ZM171.932 347.829V349.39H170.371V347.829H171.932ZM171.932 349.39V350.951H170.371V349.39H171.932ZM171.932 350.951V352.512H170.371V350.951H171.932ZM171.932 352.512V354.073H170.371V352.512H171.932ZM171.932 354.073V355.634H170.371V354.073H171.932ZM171.932 355.634V357.195H170.371V355.634H171.932ZM173.493 354.073V355.634H171.932V354.073H173.493ZM173.493 352.512V354.073H171.932V352.512H173.493ZM173.493 350.951V352.512H171.932V350.951H173.493ZM173.493 349.39V350.951H171.932V349.39H173.493ZM182.858 336.902V338.463H181.297V336.902H182.858ZM181.297 336.902V338.463H179.737V336.902H181.297ZM181.297 338.463V340.024H179.737V338.463H181.297ZM182.858 338.463V340.024H181.297V338.463H182.858ZM179.737 338.463V340.024H178.176V338.463H179.737ZM178.176 338.463V340.024H176.615V338.463H178.176ZM178.176 336.902V338.463H176.615V336.902H178.176ZM179.737 336.902V338.463H178.176V336.902H179.737ZM170.371 333.78V335.341H168.81V333.78H170.371ZM171.932 332.22V333.78H170.371V332.22H171.932ZM173.493 330.659V332.22H171.932V330.659H173.493ZM175.054 329.098V330.659H173.493V329.098H175.054ZM168.81 336.902V338.463H167.249V336.902H168.81ZM168.81 338.463V340.024H167.249V338.463H168.81ZM167.249 338.463V340.024H165.688V338.463H167.249ZM167.249 336.902V338.463H165.688V336.902H167.249ZM176.615 327.537V329.098H175.054V327.537H176.615ZM167.249 341.585V343.146H165.688V341.585H167.249ZM168.81 341.585V343.146H167.249V341.585H168.81ZM178.176 341.585V343.146H176.615V341.585H178.176ZM179.737 341.585V343.146H178.176V341.585H179.737ZM181.297 341.585V343.146H179.737V341.585H181.297ZM182.858 341.585V343.146H181.297V341.585H182.858ZM204.73 344.707V346.268H203.169V344.707H204.73ZM206.291 344.707V346.268H204.73V344.707H206.291ZM207.852 344.707V346.268H206.291V344.707H207.852ZM209.413 344.707V346.268H207.852V344.707H209.413ZM210.974 344.707V346.268H209.413V344.707H210.974ZM210.974 343.146V344.707H209.413V343.146H210.974ZM210.974 341.585V343.146H209.413V341.585H210.974ZM209.413 341.585V343.146H207.852V341.585H209.413ZM207.852 341.585V343.146H206.291V341.585H207.852ZM206.291 341.585V343.146H204.73V341.585H206.291ZM206.291 343.146V344.707H204.73V343.146H206.291ZM204.73 343.146V344.707H203.169V343.146H204.73ZM207.852 343.146V344.707H206.291V343.146H207.852ZM209.413 343.146V344.707H207.852V343.146H209.413ZM204.73 341.585V343.146H203.169V341.585H204.73ZM203.169 341.585V343.146H201.608V341.585H203.169ZM203.169 340.024V341.585H201.608V340.024H203.169ZM204.73 340.024V341.585H203.169V340.024H204.73ZM206.291 340.024V341.585H204.73V340.024H206.291ZM207.852 340.024V341.585H206.291V340.024H207.852ZM209.413 340.024V341.585H207.852V340.024H209.413ZM209.413 338.463V340.024H207.852V338.463H209.413ZM207.852 338.463V340.024H206.291V338.463H207.852ZM206.291 338.463V340.024H204.73V338.463H206.291ZM204.73 338.463V340.024H203.169V338.463H204.73ZM203.169 338.463V340.024H201.608V338.463H203.169ZM206.291 336.902V338.463H204.73V336.902H206.291ZM207.852 336.902V338.463H206.291V336.902H207.852ZM204.73 336.902V338.463H203.169V336.902H204.73ZM204.73 335.341V336.902H203.169V335.341H204.73ZM203.169 335.341V336.902H201.608V335.341H203.169ZM203.169 336.902V338.463H201.608V336.902H203.169ZM201.608 336.902V338.463H200.047V336.902H201.608ZM201.608 335.341V336.902H200.047V335.341H201.608ZM201.608 338.463V340.024H200.047V338.463H201.608ZM200.047 338.463V340.024H198.487V338.463H200.047ZM200.047 340.024V341.585H198.487V340.024H200.047ZM201.608 340.024V341.585H200.047V340.024H201.608ZM198.487 340.024V341.585H196.926V340.024H198.487ZM198.487 338.463V340.024H196.926V338.463H198.487ZM198.487 336.902V338.463H196.926V336.902H198.487ZM198.487 335.341V336.902H196.926V335.341H198.487ZM200.047 335.341V336.902H198.487V335.341H200.047ZM200.047 336.902V338.463H198.487V336.902H200.047ZM196.926 335.341V336.902H195.365V335.341H196.926ZM195.365 335.341V336.902H193.804V335.341H195.365ZM193.804 335.341V336.902H192.243V335.341H193.804ZM193.804 336.902V338.463H192.243V336.902H193.804ZM193.804 338.463V340.024H192.243V338.463H193.804ZM193.804 340.024V341.585H192.243V340.024H193.804ZM195.365 340.024V341.585H193.804V340.024H195.365ZM196.926 340.024V341.585H195.365V340.024H196.926ZM196.926 338.463V340.024H195.365V338.463H196.926ZM196.926 336.902V338.463H195.365V336.902H196.926ZM195.365 336.902V338.463H193.804V336.902H195.365ZM195.365 338.463V340.024H193.804V338.463H195.365ZM192.243 338.463V340.024H190.682V338.463H192.243ZM192.243 336.902V338.463H190.682V336.902H192.243ZM190.682 336.902V338.463H189.121V336.902H190.682ZM190.682 338.463V340.024H189.121V338.463H190.682ZM189.121 338.463V340.024H187.56V338.463H189.121ZM189.121 340.024V341.585H187.56V340.024H189.121ZM189.121 341.585V343.146H187.56V341.585H189.121ZM190.682 341.585V343.146H189.121V341.585H190.682ZM190.682 340.024V341.585H189.121V340.024H190.682ZM192.243 340.024V341.585H190.682V340.024H192.243ZM192.243 341.585V343.146H190.682V341.585H192.243ZM193.804 341.585V343.146H192.243V341.585H193.804ZM195.365 341.585V343.146H193.804V341.585H195.365ZM187.56 341.585V343.146H185.999V341.585H187.56ZM187.56 343.146V344.707H185.999V343.146H187.56ZM187.56 344.707V346.268H185.999V344.707H187.56ZM187.56 346.268V347.829H185.999V346.268H187.56ZM187.56 347.829V349.39H185.999V347.829H187.56ZM187.56 349.39V350.951H185.999V349.39H187.56ZM187.56 350.951V352.512H185.999V350.951H187.56ZM187.56 352.512V354.073H185.999V352.512H187.56ZM187.56 354.073V355.634H185.999V354.073H187.56ZM187.56 355.634V357.195H185.999V355.634H187.56ZM189.121 355.634V357.195H187.56V355.634H189.121ZM189.121 357.195V358.756H187.56V357.195H189.121ZM187.56 357.195V358.756H185.999V357.195H187.56ZM190.682 357.195V358.756H189.121V357.195H190.682ZM192.243 357.195V358.756H190.682V357.195H192.243ZM193.804 357.195V358.756H192.243V357.195H193.804ZM195.365 357.195V358.756H193.804V357.195H195.365ZM193.804 355.634V357.195H192.243V355.634H193.804ZM193.804 354.073V355.634H192.243V354.073H193.804ZM193.804 352.512V354.073H192.243V352.512H193.804ZM193.804 350.951V352.512H192.243V350.951H193.804ZM193.804 349.39V350.951H192.243V349.39H193.804ZM193.804 347.829V349.39H192.243V347.829H193.804ZM193.804 346.268V347.829H192.243V346.268H193.804ZM193.804 344.707V346.268H192.243V344.707H193.804ZM193.804 343.146V344.707H192.243V343.146H193.804ZM192.243 343.146V344.707H190.682V343.146H192.243ZM190.682 343.146V344.707H189.121V343.146H190.682ZM189.121 343.146V344.707H187.56V343.146H189.121ZM189.121 344.707V346.268H187.56V344.707H189.121ZM189.121 346.268V347.829H187.56V346.268H189.121ZM189.121 347.829V349.39H187.56V347.829H189.121ZM189.121 349.39V350.951H187.56V349.39H189.121ZM189.121 350.951V352.512H187.56V350.951H189.121ZM189.121 352.512V354.073H187.56V352.512H189.121ZM189.121 354.073V355.634H187.56V354.073H189.121ZM190.682 355.634V357.195H189.121V355.634H190.682ZM192.243 355.634V357.195H190.682V355.634H192.243ZM192.243 354.073V355.634H190.682V354.073H192.243ZM192.243 352.512V354.073H190.682V352.512H192.243ZM192.243 350.951V352.512H190.682V350.951H192.243ZM192.243 349.39V350.951H190.682V349.39H192.243ZM190.682 349.39V350.951H189.121V349.39H190.682ZM190.682 347.829V349.39H189.121V347.829H190.682ZM190.682 346.268V347.829H189.121V346.268H190.682ZM190.682 344.707V346.268H189.121V344.707H190.682ZM192.243 344.707V346.268H190.682V344.707H192.243ZM192.243 346.268V347.829H190.682V346.268H192.243ZM192.243 347.829V349.39H190.682V347.829H192.243ZM190.682 352.512V354.073H189.121V352.512H190.682ZM190.682 354.073V355.634H189.121V354.073H190.682ZM190.682 350.951V352.512H189.121V350.951H190.682ZM204.73 355.634V357.195H203.169V355.634H204.73ZM206.291 355.634V357.195H204.73V355.634H206.291ZM207.852 355.634V357.195H206.291V355.634H207.852ZM209.413 355.634V357.195H207.852V355.634H209.413ZM210.974 355.634V357.195H209.413V355.634H210.974ZM210.974 357.195V358.756H209.413V357.195H210.974ZM209.413 357.195V358.756H207.852V357.195H209.413ZM207.852 357.195V358.756H206.291V357.195H207.852ZM206.291 357.195V358.756H204.73V357.195H206.291ZM204.73 357.195V358.756H203.169V357.195H204.73ZM203.169 357.195V358.756H201.608V357.195H203.169ZM203.169 358.756V360.317H201.608V358.756H203.169ZM204.73 358.756V360.317H203.169V358.756H204.73ZM206.291 358.756V360.317H204.73V358.756H206.291ZM207.852 358.756V360.317H206.291V358.756H207.852ZM207.852 360.317V361.878H206.291V360.317H207.852ZM209.413 360.317V361.878H207.852V360.317H209.413ZM209.413 358.756V360.317H207.852V358.756H209.413ZM207.852 361.878V363.439H206.291V361.878H207.852ZM206.291 361.878V363.439H204.73V361.878H206.291ZM206.291 360.317V361.878H204.73V360.317H206.291ZM204.73 360.317V361.878H203.169V360.317H204.73ZM204.73 361.878V363.439H203.169V361.878H204.73ZM204.73 363.439V365H203.169V363.439H204.73ZM203.169 363.439V365H201.608V363.439H203.169ZM201.608 363.439V365H200.047V363.439H201.608ZM200.047 363.439V365H198.487V363.439H200.047ZM198.487 363.439V365H196.926V363.439H198.487ZM196.926 363.439V365H195.365V363.439H196.926ZM195.365 363.439V365H193.804V363.439H195.365ZM193.804 363.439V365H192.243V363.439H193.804ZM195.365 361.878V363.439H193.804V361.878H195.365ZM196.926 361.878V363.439H195.365V361.878H196.926ZM198.487 361.878V363.439H196.926V361.878H198.487ZM200.047 361.878V363.439H198.487V361.878H200.047ZM201.608 361.878V363.439H200.047V361.878H201.608ZM203.169 361.878V363.439H201.608V361.878H203.169ZM203.169 360.317V361.878H201.608V360.317H203.169ZM201.608 360.317V361.878H200.047V360.317H201.608ZM200.047 360.317V361.878H198.487V360.317H200.047ZM198.487 360.317V361.878H196.926V360.317H198.487ZM196.926 360.317V361.878H195.365V360.317H196.926ZM195.365 360.317V361.878H193.804V360.317H195.365ZM193.804 361.878V363.439H192.243V361.878H193.804ZM192.243 361.878V363.439H190.682V361.878H192.243ZM190.682 361.878V363.439H189.121V361.878H190.682ZM190.682 360.317V361.878H189.121V360.317H190.682ZM189.121 360.317V361.878H187.56V360.317H189.121ZM189.121 358.756V360.317H187.56V358.756H189.121ZM190.682 358.756V360.317H189.121V358.756H190.682ZM192.243 358.756V360.317H190.682V358.756H192.243ZM193.804 358.756V360.317H192.243V358.756H193.804ZM195.365 358.756V360.317H193.804V358.756H195.365ZM196.926 358.756V360.317H195.365V358.756H196.926ZM198.487 358.756V360.317H196.926V358.756H198.487ZM200.047 358.756V360.317H198.487V358.756H200.047ZM201.608 358.756V360.317H200.047V358.756H201.608ZM193.804 360.317V361.878H192.243V360.317H193.804ZM192.243 360.317V361.878H190.682V360.317H192.243ZM210.974 346.268V347.829H209.413V346.268H210.974ZM209.413 346.268V347.829H207.852V346.268H209.413ZM207.852 346.268V347.829H206.291V346.268H207.852ZM206.291 346.268V347.829H204.73V346.268H206.291ZM204.73 346.268V347.829H203.169V346.268H204.73ZM210.974 347.829V349.39H209.413V347.829H210.974ZM207.852 347.829V349.39H206.291V347.829H207.852ZM206.291 347.829V349.39H204.73V347.829H206.291ZM203.169 347.829V349.39H201.608V347.829H203.169ZM201.608 347.829V349.39H200.047V347.829H201.608ZM200.047 347.829V349.39H198.487V347.829H200.047ZM198.487 347.829V349.39H196.926V347.829H198.487ZM196.926 347.829V349.39H195.365V347.829H196.926ZM195.365 347.829V349.39H193.804V347.829H195.365ZM204.73 347.829V349.39H203.169V347.829H204.73ZM209.413 347.829V349.39H207.852V347.829H209.413ZM210.974 349.39V350.951H209.413V349.39H210.974ZM209.413 349.39V350.951H207.852V349.39H209.413ZM207.852 349.39V350.951H206.291V349.39H207.852ZM206.291 349.39V350.951H204.73V349.39H206.291ZM204.73 349.39V350.951H203.169V349.39H204.73ZM203.169 349.39V350.951H201.608V349.39H203.169ZM201.608 349.39V350.951H200.047V349.39H201.608ZM200.047 349.39V350.951H198.487V349.39H200.047ZM198.487 349.39V350.951H196.926V349.39H198.487ZM196.926 349.39V350.951H195.365V349.39H196.926ZM195.365 349.39V350.951H193.804V349.39H195.365ZM195.365 350.951V352.512H193.804V350.951H195.365ZM196.926 350.951V352.512H195.365V350.951H196.926ZM198.487 350.951V352.512H196.926V350.951H198.487ZM201.608 350.951V352.512H200.047V350.951H201.608ZM203.169 350.951V352.512H201.608V350.951H203.169ZM204.73 350.951V352.512H203.169V350.951H204.73ZM206.291 350.951V352.512H204.73V350.951H206.291ZM207.852 350.951V352.512H206.291V350.951H207.852ZM209.413 350.951V352.512H207.852V350.951H209.413ZM210.974 350.951V352.512H209.413V350.951H210.974ZM200.047 350.951V352.512H198.487V350.951H200.047ZM217.246 363.439V365H215.685V363.439H217.246ZM217.246 361.878V363.439H215.685V361.878H217.246ZM217.246 360.317V361.878H215.685V360.317H217.246ZM217.246 358.756V360.317H215.685V358.756H217.246ZM217.246 357.195V358.756H215.685V357.195H217.246ZM217.246 355.634V357.195H215.685V355.634H217.246ZM217.246 354.073V355.634H215.685V354.073H217.246ZM217.246 352.512V354.073H215.685V352.512H217.246ZM217.246 350.951V352.512H215.685V350.951H217.246ZM217.246 349.39V350.951H215.685V349.39H217.246ZM217.246 347.829V349.39H215.685V347.829H217.246ZM217.246 346.268V347.829H215.685V346.268H217.246ZM217.246 344.707V346.268H215.685V344.707H217.246ZM217.246 343.146V344.707H215.685V343.146H217.246ZM217.246 341.585V343.146H215.685V341.585H217.246ZM218.807 341.585V343.146H217.246V341.585H218.807ZM218.807 343.146V344.707H217.246V343.146H218.807ZM218.807 344.707V346.268H217.246V344.707H218.807ZM218.807 346.268V347.829H217.246V346.268H218.807ZM218.807 347.829V349.39H217.246V347.829H218.807ZM218.807 349.39V350.951H217.246V349.39H218.807ZM218.807 350.951V352.512H217.246V350.951H218.807ZM220.368 352.512V354.073H218.807V352.512H220.368ZM220.368 354.073V355.634H218.807V354.073H220.368ZM220.368 355.634V357.195H218.807V355.634H220.368ZM220.368 357.195V358.756H218.807V357.195H220.368ZM220.368 358.756V360.317H218.807V358.756H220.368ZM220.368 360.317V361.878H218.807V360.317H220.368ZM220.368 361.878V363.439H218.807V361.878H220.368ZM220.368 363.439V365H218.807V363.439H220.368ZM221.929 363.439V365H220.368V363.439H221.929ZM223.49 363.439V365H221.929V363.439H223.49ZM223.49 361.878V363.439H221.929V361.878H223.49ZM223.49 360.317V361.878H221.929V360.317H223.49ZM223.49 358.756V360.317H221.929V358.756H223.49ZM223.49 357.195V358.756H221.929V357.195H223.49ZM223.49 355.634V357.195H221.929V355.634H223.49ZM223.49 354.073V355.634H221.929V354.073H223.49ZM223.49 352.512V354.073H221.929V352.512H223.49ZM221.929 352.512V354.073H220.368V352.512H221.929ZM221.929 350.951V352.512H220.368V350.951H221.929ZM221.929 354.073V355.634H220.368V354.073H221.929ZM221.929 355.634V357.195H220.368V355.634H221.929ZM221.929 357.195V358.756H220.368V357.195H221.929ZM221.929 358.756V360.317H220.368V358.756H221.929ZM221.929 360.317V361.878H220.368V360.317H221.929ZM221.929 361.878V363.439H220.368V361.878H221.929ZM218.807 363.439V365H217.246V363.439H218.807ZM218.807 361.878V363.439H217.246V361.878H218.807ZM218.807 360.317V361.878H217.246V360.317H218.807ZM218.807 358.756V360.317H217.246V358.756H218.807ZM218.807 357.195V358.756H217.246V357.195H218.807ZM218.807 355.634V357.195H217.246V355.634H218.807ZM218.807 354.073V355.634H217.246V354.073H218.807ZM218.807 352.512V354.073H217.246V352.512H218.807ZM217.246 335.341V336.902H215.685V335.341H217.246ZM217.246 336.902V338.463H215.685V336.902H217.246ZM217.246 338.463V340.024H215.685V338.463H217.246ZM217.246 340.024V341.585H215.685V340.024H217.246ZM221.929 336.902V338.463H220.368V336.902H221.929ZM221.929 338.463V340.024H220.368V338.463H221.929ZM221.929 340.024V341.585H220.368V340.024H221.929ZM221.929 341.585V343.146H220.368V341.585H221.929ZM221.929 343.146V344.707H220.368V343.146H221.929ZM221.929 344.707V346.268H220.368V344.707H221.929ZM221.929 346.268V347.829H220.368V346.268H221.929ZM223.49 347.829V349.39H221.929V347.829H223.49ZM223.49 349.39V350.951H221.929V349.39H223.49ZM223.49 350.951V352.512H221.929V350.951H223.49ZM223.49 346.268V347.829H221.929V346.268H223.49ZM223.49 344.707V346.268H221.929V344.707H223.49ZM223.49 343.146V344.707H221.929V343.146H223.49ZM223.49 341.585V343.146H221.929V341.585H223.49ZM223.49 340.024V341.585H221.929V340.024H223.49ZM223.49 338.463V340.024H221.929V338.463H223.49ZM223.49 336.902V338.463H221.929V336.902H223.49ZM223.49 335.341V336.902H221.929V335.341H223.49ZM221.929 335.341V336.902H220.368V335.341H221.929ZM220.368 335.341V336.902H218.807V335.341H220.368ZM220.368 336.902V338.463H218.807V336.902H220.368ZM218.807 338.463V340.024H217.246V338.463H218.807ZM218.807 340.024V341.585H217.246V340.024H218.807ZM218.807 336.902V338.463H217.246V336.902H218.807ZM218.807 335.341V336.902H217.246V335.341H218.807ZM220.368 338.463V340.024H218.807V338.463H220.368ZM220.368 340.024V341.585H218.807V340.024H220.368ZM220.368 341.585V343.146H218.807V341.585H220.368ZM220.368 343.146V344.707H218.807V343.146H220.368ZM220.368 344.707V346.268H218.807V344.707H220.368ZM220.368 346.268V347.829H218.807V346.268H220.368ZM220.368 347.829V349.39H218.807V347.829H220.368ZM220.368 349.39V350.951H218.807V349.39H220.368ZM220.368 350.951V352.512H218.807V350.951H220.368ZM221.929 349.39V350.951H220.368V349.39H221.929ZM221.929 347.829V349.39H220.368V347.829H221.929ZM234.416 341.585V343.146H232.855V341.585H234.416ZM234.416 335.341V336.902H232.855V335.341H234.416ZM234.416 336.902V338.463H232.855V336.902H234.416ZM235.977 336.902V338.463H234.416V336.902H235.977ZM237.538 338.463V340.024H235.977V338.463H237.538ZM235.977 340.024V341.585H234.416V340.024H235.977ZM235.977 338.463V340.024H234.416V338.463H235.977ZM234.416 338.463V340.024H232.855V338.463H234.416ZM232.855 338.463V340.024H231.294V338.463H232.855ZM232.855 340.024V341.585H231.294V340.024H232.855ZM234.416 340.024V341.585H232.855V340.024H234.416ZM232.855 341.585V343.146H231.294V341.585H232.855ZM231.294 340.024V341.585H229.733V340.024H231.294ZM231.294 338.463V340.024H229.733V338.463H231.294ZM231.294 336.902V338.463H229.733V336.902H231.294ZM231.294 335.341V336.902H229.733V335.341H231.294ZM232.855 335.341V336.902H231.294V335.341H232.855ZM232.855 336.902V338.463H231.294V336.902H232.855ZM229.733 335.341V336.902H228.172V335.341H229.733ZM229.733 336.902V338.463H228.172V336.902H229.733ZM229.733 338.463V340.024H228.172V338.463H229.733ZM229.733 340.024V341.585H228.172V340.024H229.733ZM228.172 335.341V336.902H226.612V335.341H228.172ZM228.172 336.902V338.463H226.612V336.902H228.172ZM226.612 336.902V338.463H225.051V336.902H226.612ZM226.612 338.463V340.024H225.051V338.463H226.612ZM225.051 338.463V340.024H223.49V338.463H225.051ZM225.051 340.024V341.585H223.49V340.024H225.051ZM226.612 340.024V341.585H225.051V340.024H226.612ZM228.172 340.024V341.585H226.612V340.024H228.172ZM228.172 338.463V340.024H226.612V338.463H228.172ZM225.051 341.585V343.146H223.49V341.585H225.051ZM226.612 335.341V336.902H225.051V335.341H226.612ZM225.051 336.902V338.463H223.49V336.902H225.051ZM231.294 341.585V343.146H229.733V341.585H231.294ZM232.855 343.146V344.707H231.294V343.146H232.855ZM262.538 341.585V343.146H260.977V341.585H262.538ZM260.977 341.585V343.146H259.416V341.585H260.977ZM259.416 341.585V343.146H257.855V341.585H259.416ZM257.855 341.585V343.146H256.294V341.585H257.855ZM256.294 340.024V341.585H254.733V340.024H256.294ZM257.855 340.024V341.585H256.294V340.024H257.855ZM259.416 340.024V341.585H257.855V340.024H259.416ZM260.977 340.024V341.585H259.416V340.024H260.977ZM262.538 340.024V341.585H260.977V340.024H262.538ZM262.538 338.463V340.024H260.977V338.463H262.538ZM260.977 338.463V340.024H259.416V338.463H260.977ZM259.416 338.463V340.024H257.855V338.463H259.416ZM257.855 338.463V340.024H256.294V338.463H257.855ZM256.294 338.463V340.024H254.733V338.463H256.294ZM259.416 336.902V338.463H257.855V336.902H259.416ZM260.977 336.902V338.463H259.416V336.902H260.977ZM257.855 336.902V338.463H256.294V336.902H257.855ZM257.855 335.341V336.902H256.294V335.341H257.855ZM256.294 335.341V336.902H254.733V335.341H256.294ZM256.294 336.902V338.463H254.733V336.902H256.294ZM254.733 336.902V338.463H253.172V336.902H254.733ZM254.733 335.341V336.902H253.172V335.341H254.733ZM254.733 338.463V340.024H253.172V338.463H254.733ZM253.172 338.463V340.024H251.612V338.463H253.172ZM253.172 340.024V341.585H251.612V340.024H253.172ZM254.733 340.024V341.585H253.172V340.024H254.733ZM251.612 340.024V341.585H250.051V340.024H251.612ZM251.612 338.463V340.024H250.051V338.463H251.612ZM251.612 336.902V338.463H250.051V336.902H251.612ZM251.612 335.341V336.902H250.051V335.341H251.612ZM253.172 335.341V336.902H251.612V335.341H253.172ZM253.172 336.902V338.463H251.612V336.902H253.172ZM250.051 335.341V336.902H248.49V335.341H250.051ZM248.49 335.341V336.902H246.929V335.341H248.49ZM246.929 335.341V336.902H245.368V335.341H246.929ZM246.929 336.902V338.463H245.368V336.902H246.929ZM246.929 338.463V340.024H245.368V338.463H246.929ZM246.929 340.024V341.585H245.368V340.024H246.929ZM248.49 340.024V341.585H246.929V340.024H248.49ZM250.051 340.024V341.585H248.49V340.024H250.051ZM250.051 338.463V340.024H248.49V338.463H250.051ZM250.051 336.902V338.463H248.49V336.902H250.051ZM248.49 336.902V338.463H246.929V336.902H248.49ZM248.49 338.463V340.024H246.929V338.463H248.49ZM245.368 338.463V340.024H243.807V338.463H245.368ZM245.368 336.902V338.463H243.807V336.902H245.368ZM243.807 336.902V338.463H242.246V336.902H243.807ZM243.807 338.463V340.024H242.246V338.463H243.807ZM242.246 338.463V340.024H240.685V338.463H242.246ZM242.246 340.024V341.585H240.685V340.024H242.246ZM242.246 341.585V343.146H240.685V341.585H242.246ZM243.807 341.585V343.146H242.246V341.585H243.807ZM243.807 340.024V341.585H242.246V340.024H243.807ZM245.368 340.024V341.585H243.807V340.024H245.368ZM245.368 341.585V343.146H243.807V341.585H245.368ZM246.929 341.585V343.146H245.368V341.585H246.929ZM248.49 341.585V343.146H246.929V341.585H248.49ZM240.685 341.585V343.146H239.124V341.585H240.685ZM240.685 343.146V344.707H239.124V343.146H240.685ZM240.685 344.707V346.268H239.124V344.707H240.685ZM240.685 355.634V357.195H239.124V355.634H240.685ZM242.246 355.634V357.195H240.685V355.634H242.246ZM242.246 357.195V358.756H240.685V357.195H242.246ZM240.685 357.195V358.756H239.124V357.195H240.685ZM243.807 357.195V358.756H242.246V357.195H243.807ZM245.368 357.195V358.756H243.807V357.195H245.368ZM246.929 357.195V358.756H245.368V357.195H246.929ZM248.49 357.195V358.756H246.929V357.195H248.49ZM246.929 355.634V357.195H245.368V355.634H246.929ZM246.929 344.707V346.268H245.368V344.707H246.929ZM246.929 343.146V344.707H245.368V343.146H246.929ZM245.368 343.146V344.707H243.807V343.146H245.368ZM243.807 343.146V344.707H242.246V343.146H243.807ZM242.246 343.146V344.707H240.685V343.146H242.246ZM242.246 344.707V346.268H240.685V344.707H242.246ZM243.807 355.634V357.195H242.246V355.634H243.807ZM245.368 355.634V357.195H243.807V355.634H245.368ZM243.807 344.707V346.268H242.246V344.707H243.807ZM245.368 344.707V346.268H243.807V344.707H245.368ZM257.855 354.073V355.634H256.294V354.073H257.855ZM257.855 355.634V357.195H256.294V355.634H257.855ZM259.416 355.634V357.195H257.855V355.634H259.416ZM260.977 355.634V357.195H259.416V355.634H260.977ZM262.538 355.634V357.195H260.977V355.634H262.538ZM264.099 355.634V357.195H262.538V355.634H264.099ZM264.099 354.073V355.634H262.538V354.073H264.099ZM262.538 354.073V355.634H260.977V354.073H262.538ZM260.977 354.073V355.634H259.416V354.073H260.977ZM259.416 354.073V355.634H257.855V354.073H259.416ZM264.099 357.195V358.756H262.538V357.195H264.099ZM262.538 357.195V358.756H260.977V357.195H262.538ZM260.977 357.195V358.756H259.416V357.195H260.977ZM259.416 357.195V358.756H257.855V357.195H259.416ZM257.855 357.195V358.756H256.294V357.195H257.855ZM256.294 357.195V358.756H254.733V357.195H256.294ZM256.294 358.756V360.317H254.733V358.756H256.294ZM257.855 358.756V360.317H256.294V358.756H257.855ZM259.416 358.756V360.317H257.855V358.756H259.416ZM260.977 358.756V360.317H259.416V358.756H260.977ZM260.977 360.317V361.878H259.416V360.317H260.977ZM262.538 360.317V361.878H260.977V360.317H262.538ZM262.538 358.756V360.317H260.977V358.756H262.538ZM260.977 361.878V363.439H259.416V361.878H260.977ZM259.416 361.878V363.439H257.855V361.878H259.416ZM259.416 360.317V361.878H257.855V360.317H259.416ZM257.855 360.317V361.878H256.294V360.317H257.855ZM257.855 361.878V363.439H256.294V361.878H257.855ZM257.855 363.439V365H256.294V363.439H257.855ZM256.294 363.439V365H254.733V363.439H256.294ZM254.733 363.439V365H253.172V363.439H254.733ZM253.172 363.439V365H251.612V363.439H253.172ZM251.612 363.439V365H250.051V363.439H251.612ZM250.051 363.439V365H248.49V363.439H250.051ZM248.49 363.439V365H246.929V363.439H248.49ZM246.929 363.439V365H245.368V363.439H246.929ZM248.49 361.878V363.439H246.929V361.878H248.49ZM250.051 361.878V363.439H248.49V361.878H250.051ZM251.612 361.878V363.439H250.051V361.878H251.612ZM253.172 361.878V363.439H251.612V361.878H253.172ZM254.733 361.878V363.439H253.172V361.878H254.733ZM256.294 361.878V363.439H254.733V361.878H256.294ZM256.294 360.317V361.878H254.733V360.317H256.294ZM254.733 360.317V361.878H253.172V360.317H254.733ZM253.172 360.317V361.878H251.612V360.317H253.172ZM251.612 360.317V361.878H250.051V360.317H251.612ZM250.051 360.317V361.878H248.49V360.317H250.051ZM248.49 360.317V361.878H246.929V360.317H248.49ZM246.929 361.878V363.439H245.368V361.878H246.929ZM245.368 361.878V363.439H243.807V361.878H245.368ZM243.807 361.878V363.439H242.246V361.878H243.807ZM243.807 360.317V361.878H242.246V360.317H243.807ZM242.246 360.317V361.878H240.685V360.317H242.246ZM242.246 358.756V360.317H240.685V358.756H242.246ZM243.807 358.756V360.317H242.246V358.756H243.807ZM245.368 358.756V360.317H243.807V358.756H245.368ZM246.929 358.756V360.317H245.368V358.756H246.929ZM248.49 358.756V360.317H246.929V358.756H248.49ZM250.051 358.756V360.317H248.49V358.756H250.051ZM251.612 358.756V360.317H250.051V358.756H251.612ZM253.172 358.756V360.317H251.612V358.756H253.172ZM254.733 358.756V360.317H253.172V358.756H254.733ZM246.929 360.317V361.878H245.368V360.317H246.929ZM245.368 360.317V361.878H243.807V360.317H245.368ZM260.977 350.951V352.512H259.416V350.951H260.977ZM264.099 352.512V354.073H262.538V352.512H264.099ZM262.538 352.512V354.073H260.977V352.512H262.538ZM260.977 352.512V354.073H259.416V352.512H260.977ZM259.416 352.512V354.073H257.855V352.512H259.416ZM259.416 350.951V352.512H257.855V350.951H259.416ZM257.855 350.951V352.512H256.294V350.951H257.855ZM257.855 352.512V354.073H256.294V352.512H257.855ZM248.49 344.707V346.268H246.929V344.707H248.49ZM242.246 346.268V347.829H240.685V346.268H242.246ZM242.246 347.829V349.39H240.685V347.829H242.246ZM243.807 347.829V349.39H242.246V347.829H243.807ZM243.807 349.39V350.951H242.246V349.39H243.807ZM245.368 349.39V350.951H243.807V349.39H245.368ZM246.929 350.951V352.512H245.368V350.951H246.929ZM246.929 349.39V350.951H245.368V349.39H246.929ZM246.929 347.829V349.39H245.368V347.829H246.929ZM246.929 346.268V347.829H245.368V346.268H246.929ZM245.368 346.268V347.829H243.807V346.268H245.368ZM245.368 347.829V349.39H243.807V347.829H245.368ZM243.807 346.268V347.829H242.246V346.268H243.807ZM248.49 350.951V352.512H246.929V350.951H248.49ZM250.051 350.951V352.512H248.49V350.951H250.051ZM251.612 350.951V352.512H250.051V350.951H251.612ZM253.172 350.951V352.512H251.612V350.951H253.172ZM253.172 349.39V350.951H251.612V349.39H253.172ZM251.612 349.39V350.951H250.051V349.39H251.612ZM250.051 349.39V350.951H248.49V349.39H250.051ZM248.49 349.39V350.951H246.929V349.39H248.49ZM248.49 347.829V349.39H246.929V347.829H248.49ZM248.49 346.268V347.829H246.929V346.268H248.49ZM250.051 346.268V347.829H248.49V346.268H250.051ZM251.612 346.268V347.829H250.051V346.268H251.612ZM253.172 346.268V347.829H251.612V346.268H253.172ZM253.172 347.829V349.39H251.612V347.829H253.172ZM251.612 347.829V349.39H250.051V347.829H251.612ZM250.051 347.829V349.39H248.49V347.829H250.051ZM254.733 346.268V347.829H253.172V346.268H254.733ZM256.294 346.268V347.829H254.733V346.268H256.294ZM256.294 347.829V349.39H254.733V347.829H256.294ZM256.294 349.39V350.951H254.733V349.39H256.294ZM256.294 350.951V352.512H254.733V350.951H256.294ZM254.733 350.951V352.512H253.172V350.951H254.733ZM254.733 349.39V350.951H253.172V349.39H254.733ZM254.733 347.829V349.39H253.172V347.829H254.733ZM256.294 352.512V354.073H254.733V352.512H256.294ZM257.855 346.268V347.829H256.294V346.268H257.855ZM262.538 350.951V352.512H260.977V350.951H262.538ZM262.538 349.39V350.951H260.977V349.39H262.538ZM260.977 347.829V349.39H259.416V347.829H260.977ZM259.416 347.829V349.39H257.855V347.829H259.416ZM257.855 347.829V349.39H256.294V347.829H257.855ZM257.855 349.39V350.951H256.294V349.39H257.855ZM259.416 349.39V350.951H257.855V349.39H259.416ZM260.977 349.39V350.951H259.416V349.39H260.977ZM256.294 341.585V343.146H254.733V341.585H256.294Z" fill="#C21E1E"/>
</svg>
