<?xml version="1.0" encoding="UTF-8"?>
<svg version="1.1" xmlns="http://www.w3.org/2000/svg" width="197" height="197">
<path d="M0 0 C1.61605797 0.00119531 3.23211665 0.00164422 4.84817505 0.00138855 C8.22190759 0.00294485 11.59553275 0.01116629 14.96923828 0.0246582 C19.2612389 0.04161902 23.55312168 0.04547265 27.8451519 0.04471302 C31.17917982 0.044987 34.51318277 0.05050484 37.8472023 0.05771446 C39.42820167 0.06086326 41.00920382 0.06285951 42.59020615 0.06360817 C68.11627604 0.08893229 68.11627604 0.08893229 71.2578125 3.23046875 C72.2478125 3.72546875 72.2478125 3.72546875 73.2578125 4.23046875 C81.3482517 12.79196604 80.09772375 23.67592511 79.984375 34.61328125 C79.98333606 36.59764606 79.98437819 38.58201294 79.98739624 40.56637573 C79.98721751 44.71041894 79.96650441 48.85367818 79.93017578 52.99755859 C79.88474282 58.29467569 79.8837311 63.59065236 79.89721107 68.88791084 C79.90390991 72.98019452 79.8905956 77.07222068 79.87095261 81.16445541 C79.8632859 83.1171725 79.86093663 85.06991832 79.8641243 87.02264786 C79.86487048 89.75539521 79.8394973 92.48670775 79.80712891 95.21923828 C79.81208374 96.01633209 79.81703857 96.8134259 79.82214355 97.63467407 C79.69617192 104.3363294 77.70894813 109.63926822 73.0703125 114.54296875 C65.13493439 119.30419562 57.43904233 119.65484812 48.3515625 119.55859375 C47.11402222 119.55672058 45.87648193 119.55484741 44.60144043 119.55291748 C41.98247583 119.54621358 39.36352096 119.53233234 36.74462891 119.51171875 C32.82574654 119.48100124 28.90727133 119.47077937 24.98828125 119.46484375 C18.63535003 119.44695779 12.28431959 119.3819774 5.93212891 119.28442383 C3.50351658 119.24876115 1.07478355 119.2204729 -1.35400391 119.19995117 C-4.74476663 119.16723452 -8.13336997 119.10198873 -11.5234375 119.02734375 C-13.00982727 119.02024384 -13.00982727 119.02024384 -14.52624512 119.01300049 C-21.43578329 118.80813827 -26.99751022 117.18451305 -32.7421875 113.23046875 C-34.65295396 110.36431906 -35.7421875 108.66304587 -35.7421875 105.23046875 C-36.7321875 104.90046875 -37.7221875 104.57046875 -38.7421875 104.23046875 C-37.7521875 103.73546875 -37.7521875 103.73546875 -36.7421875 103.23046875 C-36.90227295 101.93625 -37.0623584 100.64203125 -37.22729492 99.30859375 C-37.99757892 91.54985361 -37.94739667 83.76936856 -37.98046875 75.98046875 C-37.98454428 75.16364624 -37.9886198 74.34682373 -37.99281883 73.50524902 C-38.01354806 69.18839788 -38.0279106 64.87157737 -38.03735352 60.5546875 C-38.04844218 56.12328973 -38.08290802 51.69239062 -38.12252522 47.26116943 C-38.14877267 43.8260002 -38.15705209 40.39094914 -38.16063499 36.95568848 C-38.16547315 35.32276 -38.17700701 33.6898358 -38.19567299 32.05700684 C-38.4059631 12.45798777 -38.4059631 12.45798777 -32.28633118 5.59863281 C-23.56136574 -1.55304881 -10.60348656 -0.05220773 0 0 Z M-22.7421875 9.23046875 C-24.010625 9.63265625 -24.010625 9.63265625 -25.3046875 10.04296875 C-28.5481663 11.62312509 -29.22102401 12.9598742 -30.7421875 16.23046875 C-31.02735489 19.09936737 -31.15273081 21.74745581 -31.13037109 24.61328125 C-31.13562805 25.44478699 -31.14088501 26.27629272 -31.14630127 27.13299561 C-31.15947529 29.87401263 -31.15077246 32.6144461 -31.140625 35.35546875 C-31.14264648 37.26448681 -31.14555854 39.17350411 -31.14932251 41.08251953 C-31.15374234 45.08047855 -31.14732574 49.07823628 -31.13330078 53.07617188 C-31.11620914 58.19756086 -31.12605214 63.31847817 -31.14401817 68.43984985 C-31.15486519 72.38097682 -31.15140544 76.3219922 -31.1436348 80.26312256 C-31.14163533 82.15134741 -31.14408316 84.03958244 -31.15107346 85.92779541 C-31.158703 88.56802155 -31.14706281 91.2074867 -31.13037109 93.84765625 C-31.13644379 94.62598816 -31.14251648 95.40432007 -31.14877319 96.20623779 C-31.09578354 100.73672706 -30.52469742 103.62153616 -27.7421875 107.23046875 C-22.58889069 111.86843588 -18.69096322 112.38153702 -11.96948242 112.39160156 C-11.17888931 112.39656647 -10.3882962 112.40153137 -9.57374573 112.40664673 C-6.95670706 112.42125856 -4.33972902 112.42806895 -1.72265625 112.43359375 C0.09714255 112.43934631 1.91694134 112.44510403 3.73674011 112.4508667 C7.55406985 112.4613741 11.37137854 112.46721838 15.1887207 112.47070312 C20.07461716 112.47618525 24.96023458 112.50020835 29.84604359 112.52867508 C33.60618394 112.54732095 37.36625737 112.55250811 41.12644005 112.554039 C42.92732963 112.55706199 44.72821813 112.5650786 46.52906227 112.57822418 C49.05189717 112.59532445 51.5740541 112.59339479 54.09692383 112.58691406 C54.8373996 112.59612885 55.57787537 112.60534363 56.34078979 112.61483765 C61.05560906 112.57699564 64.25271825 111.71453513 68.2578125 109.23046875 C72.95595911 104.15139134 73.4028455 100.18455878 73.35546875 93.5 C73.3540538 92.74957932 73.35263885 91.99915863 73.35118103 91.22599792 C73.3455881 88.83161415 73.33303694 86.43732422 73.3203125 84.04296875 C73.31529658 82.41862114 73.31073384 80.79427207 73.30664062 79.16992188 C73.29562098 75.19006806 73.27836123 71.21028431 73.2578125 67.23046875 C72.5978125 67.23046875 71.9378125 67.23046875 71.2578125 67.23046875 C71.2578125 66.57046875 71.2578125 65.91046875 71.2578125 65.23046875 C71.9178125 64.90046875 72.5778125 64.57046875 73.2578125 64.23046875 C72.5978125 64.23046875 71.9378125 64.23046875 71.2578125 64.23046875 C71.2578125 63.24046875 71.2578125 62.25046875 71.2578125 61.23046875 C71.9178125 60.90046875 72.5778125 60.57046875 73.2578125 60.23046875 C73.2578125 57.92046875 73.2578125 55.61046875 73.2578125 53.23046875 C72.5978125 53.23046875 71.9378125 53.23046875 71.2578125 53.23046875 C71.2578125 51.91046875 71.2578125 50.59046875 71.2578125 49.23046875 C71.9178125 49.23046875 72.5778125 49.23046875 73.2578125 49.23046875 C73.35713526 44.78310133 73.42949253 40.33633162 73.47753906 35.88818359 C73.49758041 34.37700139 73.52482155 32.86589603 73.55957031 31.35498047 C73.60842359 29.17526232 73.63085474 26.99657444 73.6484375 24.81640625 C73.66938477 23.50720215 73.69033203 22.19799805 73.71191406 20.84912109 C73.18127929 16.62058957 71.91460704 14.51951467 69.2578125 11.23046875 C63.87638528 7.32893401 59.10337812 7.08111015 52.61523438 7.08520508 C51.46819786 7.08016716 51.46819786 7.08016716 50.29798889 7.07502747 C47.77416351 7.06554041 45.2504046 7.06357566 42.7265625 7.0625 C40.97066216 7.0592865 39.21476208 7.05592236 37.4588623 7.05241394 C33.7803485 7.04642876 30.10185817 7.04457348 26.42333984 7.04516602 C21.70884867 7.04526775 16.99450772 7.03160114 12.28005219 7.01439381 C8.65467638 7.00327995 5.02933702 7.0012466 1.40394592 7.00177574 C-0.33439147 7.00059525 -2.07272979 6.99616962 -3.81105042 6.98844337 C-6.24067758 6.97865333 -8.669977 6.98151726 -11.09960938 6.98754883 C-11.81765244 6.98192932 -12.5356955 6.97630981 -13.27549744 6.97052002 C-16.97190058 6.99385487 -19.57906984 7.28352657 -22.7421875 9.23046875 Z " fill="#E5432D" transform="translate(72.7421875,17.76953125)"/>
<path d="M0 0 C1.875 0.3125 1.875 0.3125 4 1 C6.62641337 4.93962005 5.74774989 6.39739045 5 11 C4.87533733 13.98044848 4.90427683 16.95508131 4.9375 19.9375 C4.94201172 20.71673828 4.94652344 21.49597656 4.95117188 22.29882812 C4.96283092 24.19925268 4.98076123 26.09963706 5 28 C4.06929687 27.66226563 3.13859375 27.32453125 2.1796875 26.9765625 C-1.13895897 25.95732218 -2.72797054 26.03763839 -6 27 C-6.309375 26.360625 -6.61875 25.72125 -6.9375 25.0625 C-10.09768575 21.90231425 -13.68333908 22.18099207 -18 22 C-18.4125 22.825 -18.825 23.65 -19.25 24.5 C-20.11625 25.7375 -20.11625 25.7375 -21 27 C-22.32 27 -23.64 27 -25 27 C-24.43741334 21.26009556 -22.85083242 16.48994789 -20.625 11.1875 C-20.32078125 10.42501953 -20.0165625 9.66253906 -19.703125 8.87695312 C-19.40148437 8.14798828 -19.09984375 7.41902344 -18.7890625 6.66796875 C-18.51787598 6.01078857 -18.24668945 5.3536084 -17.96728516 4.67651367 C-17 3 -17 3 -14 1 C-9.88456128 4.45370518 -8.3256378 8.33248334 -6.375 13.1875 C-4.68508457 18.42122937 -4.68508457 18.42122937 -1 22 C-1 21.01 -1 20.02 -1 19 C-1.66 19 -2.32 19 -3 19 C-3 17.35 -3 15.7 -3 14 C-2.34 14 -1.68 14 -1 14 C-1 13.34 -1 12.68 -1 12 C-1.66 11.67 -2.32 11.34 -3 11 C-2.34 11 -1.68 11 -1 11 C-1 9.68 -1 8.36 -1 7 C-1.66 6.67 -2.32 6.34 -3 6 C-2.34 6 -1.68 6 -1 6 C-0.67 4.02 -0.34 2.04 0 0 Z M-14 11 C-14.66 12.65 -15.32 14.3 -16 16 C-14.68 15.34 -13.36 14.68 -12 14 C-12.66 13.01 -13.32 12.02 -14 11 Z " fill="#E1442C" transform="translate(99,158)"/>
<path d="M0 0 C0.99 0 1.98 0 3 0 C4.670625 -0.12375 4.670625 -0.12375 6.375 -0.25 C10.6348963 0.04378595 12.06325875 0.97688401 15 4 C15.33 4.99 15.66 5.98 16 7 C16.99 7 17.98 7 19 7 C19 7.66 19 8.32 19 9 C18.34 9 17.68 9 17 9 C17.226875 9.53625 17.45375 10.0725 17.6875 10.625 C18.15685512 14.19209894 16.90495264 16.01557419 15 19 C12.5625 20.75 12.5625 20.75 10 22 C9.319375 22.433125 8.63875 22.86625 7.9375 23.3125 C6 24 6 24 3.875 23.1875 C3.25625 22.795625 2.6375 22.40375 2 22 C1.34 21.67 0.68 21.34 0 21 C-2.13289483 18.88549219 -3.76838803 16.74623265 -5 14 C-4.90698093 10.02164606 -3.85746579 6.85746579 -1 4 C-0.3574765 1.93125966 -0.3574765 1.93125966 0 0 Z M6 7 C6 7.66 6 8.32 6 9 C5.34 9 4.68 9 4 9 C4 10.32 4 11.64 4 13 C3.01 13.495 3.01 13.495 2 14 C4.84826598 16.36692966 4.84826598 16.36692966 8.1875 15.625 C9.115625 15.41875 10.04375 15.2125 11 15 C11.33 13.35 11.66 11.7 12 10 C9.18567371 7.95112791 9.18567371 7.95112791 6 7 Z " fill="#E6432B" transform="translate(114,67)"/>
<path d="M0 0 C7.93548387 2.64516129 7.93548387 2.64516129 10.375 5.75 C11.58893039 10.12014942 11.56270374 13.70578141 9.75 17.875 C7.84080893 20.19330344 6.93752254 20.69611836 4 21 C4 21.66 4 22.32 4 23 C-4.58947368 21.98947368 -4.58947368 21.98947368 -8 20 C-10.47262444 16.45590497 -11.05481246 14.64678706 -10.6875 10.3125 C-10.460625 9.219375 -10.23375 8.12625 -10 7 C-10 6.01 -10 5.02 -10 4 C-10 3.34 -10 2.68 -10 2 C-6.7 1.67 -3.4 1.34 0 1 C0 0.67 0 0.34 0 0 Z M-3.75 8.1875 C-5.29839423 10.00671447 -5.29839423 10.00671447 -4.6875 12.6875 C-4.460625 13.450625 -4.23375 14.21375 -4 15 C-1.08517222 15.80967438 0.46113217 16.21845993 3.3125 15.0625 C3.869375 14.711875 4.42625 14.36125 5 14 C5 13.01 5 12.02 5 11 C4.34 10.34 3.68 9.68 3 9 C2.34 8.34 1.68 7.68 1 7 C-1.9387397 6.71924929 -1.9387397 6.71924929 -3.75 8.1875 Z " fill="#E64129" transform="translate(95,67)"/>
<path d="M0 0 C4.72497841 3.24842265 5.84341006 6.63762847 7 12 C6.34 12 5.68 12 5 12 C4.773125 12.763125 4.54625 13.52625 4.3125 14.3125 C2.6657595 17.68439721 1.44121198 18.54704383 -2 20 C-5.625 20.1875 -5.625 20.1875 -9 20 C-9.99 20 -10.98 20 -12 20 C-15.15016441 17.21613377 -16.80479528 15.59972647 -17.3203125 11.375 C-17.3132756 8.89801211 -17.21937129 6.46670834 -17 4 C-11.45824529 0.14486629 -6.76371834 -1.30688795 0 0 Z M-10 7 C-10.16687448 9.41645782 -10.16687448 9.41645782 -10 12 C-9.34 12.66 -8.68 13.32 -8 14 C-6.01508358 13.73323796 -6.01508358 13.73323796 -4 13 C-3.01 12.67 -2.02 12.34 -1 12 C-0.26676204 9.98491642 -0.26676204 9.98491642 0 8 C-4.11697302 4.70642158 -5.36496612 4.52798193 -10 7 Z " fill="#E7412B" transform="translate(126,95)"/>
<path d="M0 0 C0.4640625 1.2065625 0.4640625 1.2065625 0.9375 2.4375 C1.76335345 4.89080405 1.76335345 4.89080405 3 6 C3.28277537 10.24163052 3.3790045 13.04251496 1.8125 17 C0 19 0 19 -2.6875 19.3125 C-3.450625 19.209375 -4.21375 19.10625 -5 19 C-5 19.66 -5 20.32 -5 21 C-6.4391134 20.71640113 -7.87625518 20.42278601 -9.3125 20.125 C-10.11300781 19.96257812 -10.91351563 19.80015625 -11.73828125 19.6328125 C-14.87904804 18.75404874 -16.62263441 17.66038978 -18.25 14.8125 C-19.24111627 11.09581399 -18.99508014 8.71496585 -18 5 C-13.88685588 -1.90420621 -7.12796272 -0.46963151 0 0 Z M-11 6 C-11.33 6.66 -11.66 7.32 -12 8 C-11.67 8.66 -11.34 9.32 -11 10 C-11.99 10.495 -11.99 10.495 -13 11 C-11.89958081 12.68681738 -11.89958081 12.68681738 -10 14 C-6.85078091 13.76716851 -6.85078091 13.76716851 -4 13 C-3.67 11.35 -3.34 9.7 -3 8 C-6.22791555 5.8480563 -7.28400809 5.79913557 -11 6 Z " fill="#E6432B" transform="translate(78,69)"/>
<path d="M0 0 C3.35006926 2.96937958 4.02212846 5.07027079 4.75 9.4375 C4.42 10.0975 4.09 10.7575 3.75 11.4375 C4.41 11.7675 5.07 12.0975 5.75 12.4375 C2.3320161 16.62728672 -0.48094892 18.3793561 -5.82421875 19.3671875 C-9.96814013 19.48730116 -13.50006011 18.08640974 -17.25 16.4375 C-16.92 15.1175 -16.59 13.7975 -16.25 12.4375 C-16.91 12.1075 -17.57 11.7775 -18.25 11.4375 C-17.9964147 7.12654992 -17.6654009 4.94035372 -14.875 1.5625 C-10.05094642 -2.34268623 -5.55236381 -2.66940568 0 0 Z M-11.25 6.4375 C-10.92 8.4175 -10.59 10.3975 -10.25 12.4375 C-7.39921909 13.20466851 -7.39921909 13.20466851 -4.25 13.4375 C-2.20548981 12.39375978 -2.20548981 12.39375978 -1.25 10.4375 C-1.52036147 7.46352384 -2.10446026 6.58303974 -4.25 4.4375 C-8.29622502 4.06769987 -8.29622502 4.06769987 -11.25 6.4375 Z " fill="#E8432B" transform="translate(127.25,42.5625)"/>
<path d="M0 0 C3.81806058 3.11678415 3.81806058 3.11678415 5 6 C5.30479721 10.70831474 4.61930353 14.07104471 2 18 C-2.51914666 19.66623213 -6.7804335 20.2395577 -11.5 19.3125 C-14 18 -14 18 -16 15 C-17.11944881 10.05576778 -17.24904548 6.60518837 -15 2 C-10.35520398 -1.14647472 -5.3326952 -1.64640493 0 0 Z M-9.375 6.6875 C-11.26895116 8.84053203 -11.26895116 8.84053203 -10.75 11.25 C-10.5025 11.8275 -10.255 12.405 -10 13 C-7.03 13.495 -7.03 13.495 -4 14 C-3.34 11.36 -2.68 8.72 -2 6 C-5.35014618 4.88328461 -6.41734941 4.58601143 -9.375 6.6875 Z M-2 9 C-1 11 -1 11 -1 11 Z " fill="#E7432B" transform="translate(76,42)"/>
<path d="M0 0 C2.86030195 1.70400967 3.36790293 2.9046435 5 6 C5.80017639 10.48098781 5.3369686 12.39345651 3.125 16.375 C0.07301737 19.60088478 -3.22884484 20.12119398 -7.5546875 20.2890625 C-11.88915184 19.77668173 -13.27047231 18.42940659 -16 15 C-17.04436891 12.24512417 -17.36014121 9.92686191 -17 7 C-12.97620191 -0.63134121 -8.20110317 -1.22898376 0 0 Z M-9.9375 6.125 C-11.26380275 8.03554076 -11.26380275 8.03554076 -10.6875 10.6875 C-10.460625 11.450625 -10.23375 12.21375 -10 13 C-8.35 13.33 -6.7 13.66 -5 14 C-5 13.34 -5 12.68 -5 12 C-4.34 12 -3.68 12 -3 12 C-3 11.34 -3 10.68 -3 10 C-2.34 10 -1.68 10 -1 10 C-1.33 8.68 -1.66 7.36 -2 6 C-6.09542781 4.85796048 -6.09542781 4.85796048 -9.9375 6.125 Z " fill="#E6442B" transform="translate(101,95)"/>
<path d="M0 0 C2.85851522 3.77324009 3.03638073 6.32369269 2.5625 11.0625 C0.68146865 14.2367404 -0.75238817 16.4314644 -4.3046875 17.76171875 C-9.43890096 18.69067177 -12.99999856 17.72500086 -17.4375 15.0625 C-19.47257508 12.00988739 -19.44369465 10.23595033 -19.3125 6.5625 C-18.34852283 2.70659131 -17.27471285 0.81864963 -14.4375 -1.9375 C-9.93069895 -4.19090053 -3.78610853 -3.00947088 0 0 Z M-10.4375 3.0625 C-11.4275 5.0425 -12.4175 7.0225 -13.4375 9.0625 C-12.33708081 10.74931738 -12.33708081 10.74931738 -10.4375 12.0625 C-6.60483708 11.92159916 -6.60483708 11.92159916 -3.4375 10.0625 C-3.10406449 7.60457971 -3.10406449 7.60457971 -3.4375 5.0625 C-6.39127498 2.69269987 -6.39127498 2.69269987 -10.4375 3.0625 Z " fill="#E7452C" transform="translate(103.4375,43.9375)"/>
<path d="M0 0 C2 1.4375 2 1.4375 3 3 C3 3.99 3 4.98 3 6 C3.99 6.33 4.98 6.66 6 7 C5.34 7 4.68 7 4 7 C3.9175 8.0725 3.835 9.145 3.75 10.25 C3 14 3 14 1.5625 16.375 C-2.42139107 18.90136995 -6.32364251 19.42713186 -11 19 C-13.94078209 17.71524951 -14.85830645 16.58101531 -17 14 C-18.41754037 10.16430254 -18.07293007 8.26892965 -17 4.3125 C-15 1 -15 1 -11.8125 -1.0625 C-6.89378822 -2.27201929 -4.7299231 -1.73430514 0 0 Z M-10.9375 5.1875 C-12.20626005 6.9490522 -12.20626005 6.9490522 -11.8125 9.0625 C-11.06529664 11.18712526 -11.06529664 11.18712526 -9 13 C-6.41645782 13.16687448 -6.41645782 13.16687448 -4 13 C-2.57055055 10.64561267 -1.91338739 9.51967567 -2.375 6.75 C-2.58125 6.1725 -2.7875 5.595 -3 5 C-7.11465807 3.84044577 -7.11465807 3.84044577 -10.9375 5.1875 Z " fill="#E6432C" transform="translate(77,96)"/>
<path d="M0 0 C1.875 0.3125 1.875 0.3125 4 1 C6.62641337 4.93962005 5.74774989 6.39739045 5 11 C4.87533733 13.98044848 4.90427683 16.95508131 4.9375 19.9375 C4.94201172 20.71673828 4.94652344 21.49597656 4.95117188 22.29882812 C4.96283092 24.19925268 4.98076123 26.09963706 5 28 C4.06929687 27.66226563 3.13859375 27.32453125 2.1796875 26.9765625 C-1.13895897 25.95732218 -2.72797054 26.03763839 -6 27 C-6.5625 25.0625 -6.5625 25.0625 -7 23 C-6 22 -6 22 -3.4375 21.9375 C-2.2309375 21.9684375 -2.2309375 21.9684375 -1 22 C-1 21.01 -1 20.02 -1 19 C-1.66 19 -2.32 19 -3 19 C-3 17.35 -3 15.7 -3 14 C-2.34 14 -1.68 14 -1 14 C-1 13.34 -1 12.68 -1 12 C-1.66 11.67 -2.32 11.34 -3 11 C-2.34 11 -1.68 11 -1 11 C-1 9.68 -1 8.36 -1 7 C-1.66 6.67 -2.32 6.34 -3 6 C-2.34 6 -1.68 6 -1 6 C-0.67 4.02 -0.34 2.04 0 0 Z " fill="#E13B27" transform="translate(99,158)"/>
<path d="M0 0 C0.66 0 1.32 0 2 0 C2 0.66 2 1.32 2 2 C2.66 2.33 3.32 2.66 4 3 C4.19789024 6.22861733 4.38146345 9.45789727 4.5625 12.6875 C4.61857422 13.59951172 4.67464844 14.51152344 4.73242188 15.45117188 C4.78076172 16.33740234 4.82910156 17.22363281 4.87890625 18.13671875 C4.9260376 18.94842529 4.97316895 19.76013184 5.02172852 20.59643555 C4.99838228 23.1789485 4.5804792 25.48849909 4 28 C1.69 27.67 -0.62 27.34 -3 27 C-2.814375 26.360625 -2.62875 25.72125 -2.4375 25.0625 C-2.293125 24.381875 -2.14875 23.70125 -2 23 C-2.33 22.67 -2.66 22.34 -3 22 C-3.125 19 -3.125 19 -3 16 C-2.67 15.67 -2.34 15.34 -2 15 C-2.66 14.34 -3.32 13.68 -4 13 C-3.625 9.375 -3.625 9.375 -3 6 C-2.34 6 -1.68 6 -1 6 C-0.67 4.02 -0.34 2.04 0 0 Z " fill="#E1412A" transform="translate(108,157)"/>
<path d="M0 0 C0 3.96 0 7.92 0 12 C-0.99 12 -1.98 12 -3 12 C-2.7215625 11.0409375 -2.7215625 11.0409375 -2.4375 10.0625 C-2.293125 9.381875 -2.14875 8.70125 -2 8 C-2.33 7.67 -2.66 7.34 -3 7 C-3.04080783 5.00041636 -3.04254356 2.99954746 -3 1 C-1 0 -1 0 0 0 Z " fill="#D52219" transform="translate(108,172)"/>
<path d="M0 0 C0.99 0 1.98 0 3 0 C4.175625 -0.061875 5.35125 -0.12375 6.5625 -0.1875 C7.696875 -0.125625 8.83125 -0.06375 10 0 C10.66 0.99 11.32 1.98 12 3 C8.04 3 4.08 3 0 3 C0 2.01 0 1.02 0 0 Z " fill="#D02B1D" transform="translate(114,67)"/>
<path d="M0 0 C1.2065625 0.0309375 1.2065625 0.0309375 2.4375 0.0625 C2.1075 1.7125 1.7775 3.3625 1.4375 5.0625 C0.1175 5.0625 -1.2025 5.0625 -2.5625 5.0625 C-3.125 3.125 -3.125 3.125 -3.5625 1.0625 C-2.5625 0.0625 -2.5625 0.0625 0 0 Z " fill="#D33525" transform="translate(95.5625,179.9375)"/>
<path d="M0 0 C0.625 1.875 0.625 1.875 1 4 C0.34 4.66 -0.32 5.32 -1 6 C-2.32 6 -3.64 6 -5 6 C-5 4.68 -5 3.36 -5 2 C-4.34 2 -3.68 2 -3 2 C-3 2.66 -3 3.32 -3 4 C-2.34 3.67 -1.68 3.34 -1 3 C-0.67 2.01 -0.34 1.02 0 0 Z " fill="#D64433" transform="translate(79,179)"/>
<path d="M0 0 C0.66 0 1.32 0 2 0 C2 2.64 2 5.28 2 8 C1.01 8 0.02 8 -1 8 C-0.67 5.36 -0.34 2.72 0 0 Z " fill="#DB0404" transform="translate(105,163)"/>
<path d="M0 0 C0.8971875 0.309375 0.8971875 0.309375 1.8125 0.625 C0.69875 1.2746875 0.69875 1.2746875 -0.4375 1.9375 C-2.80583926 3.39079909 -4.99674065 4.92107606 -7.1875 6.625 C-4.6484375 -0.796875 -4.6484375 -0.796875 0 0 Z " fill="#E54D35" transform="translate(92.1875,95.375)"/>
<path d="M0 0 C4 1 4 1 4 1 Z " fill="#FF0000" transform="translate(90,67)"/>
<path d="M0 0 C2 1 2 1 2 1 Z " fill="#BF0000" transform="translate(99,186)"/>
<path d="M0 0 C2 1 2 1 2 1 Z " fill="#FF0000" transform="translate(86,113)"/>
<path d="M0 0 C2 1 2 1 2 1 Z " fill="#FF0000" transform="translate(70,107)"/>
<path d="M0 0 C2 1 2 1 2 1 Z " fill="#FF0000" transform="translate(63,94)"/>
<path d="M0 0 C2 1 2 1 2 1 Z " fill="#FF0000" transform="translate(123,93)"/>
<path d="M0 0 C2 1 2 1 2 1 Z " fill="#FF0000" transform="translate(91,93)"/>
<path d="M0 0 C2 1 2 1 2 1 Z " fill="#FF0000" transform="translate(119,92)"/>
<path d="M0 0 C2 1 2 1 2 1 Z " fill="#FF0000" transform="translate(76,91)"/>
<path d="M0 0 C2 1 2 1 2 1 Z " fill="#FF0000" transform="translate(74,67)"/>
<path d="M0 0 C2 1 2 1 2 1 Z " fill="#FF0000" transform="translate(69,54)"/>
<path d="" fill="#FF0000" transform="translate(0,0)"/>
<path d="" fill="#FF0000" transform="translate(0,0)"/>
<path d="" fill="#FF0000" transform="translate(0,0)"/>
<path d="" fill="#FF0000" transform="translate(0,0)"/>
<path d="" fill="#FF0000" transform="translate(0,0)"/>
<path d="" fill="#FF0000" transform="translate(0,0)"/>
<path d="" fill="#FF0000" transform="translate(0,0)"/>
<path d="" fill="#FF0000" transform="translate(0,0)"/>
<path d="" fill="#FF0000" transform="translate(0,0)"/>
<path d="" fill="#FF0000" transform="translate(0,0)"/>
</svg>
