<svg width="400" height="472" viewBox="0 0 400 472" fill="none" xmlns="http://www.w3.org/2000/svg">
<rect x="8" y="8" width="384" height="384" rx="38" stroke="#C21E1E" stroke-width="16"/>
<circle cx="107" cy="111" r="26" stroke="#C21E1E" stroke-width="18"/>
<circle cx="200" cy="111" r="26" stroke="#C21E1E" stroke-width="18"/>
<circle cx="293" cy="111" r="26" stroke="#C21E1E" stroke-width="18"/>
<circle cx="107" cy="284" r="26" stroke="#C21E1E" stroke-width="18"/>
<circle cx="200" cy="284" r="26" stroke="#C21E1E" stroke-width="18"/>
<circle cx="293" cy="284" r="26" stroke="#C21E1E" stroke-width="18"/>
<circle cx="107" cy="200" r="26" stroke="#C21E1E" stroke-width="18"/>
<circle cx="200" cy="200" r="26" stroke="#C21E1E" stroke-width="18"/>
<circle cx="293" cy="200" r="26" stroke="#C21E1E" stroke-width="18"/>
<path d="M161.683 457.439V459H160.122V457.439H161.683ZM161.683 455.878V457.439H160.122V455.878H161.683ZM161.683 454.317V455.878H160.122V454.317H161.683ZM161.683 452.756V454.317H160.122V452.756H161.683ZM161.683 451.195V452.756H160.122V451.195H161.683ZM161.683 449.634V451.195H160.122V449.634H161.683ZM161.683 448.073V449.634H160.122V448.073H161.683ZM161.683 446.512V448.073H160.122V446.512H161.683ZM161.683 444.951V446.512H160.122V444.951H161.683ZM161.683 443.39V444.951H160.122V443.39H161.683ZM161.683 441.829V443.39H160.122V441.829H161.683ZM161.683 440.268V441.829H160.122V440.268H161.683ZM161.683 438.707V440.268H160.122V438.707H161.683ZM161.683 437.146V438.707H160.122V437.146H161.683ZM161.683 435.585V437.146H160.122V435.585H161.683ZM163.244 435.585V437.146H161.683V435.585H163.244ZM163.244 437.146V438.707H161.683V437.146H163.244ZM163.244 438.707V440.268H161.683V438.707H163.244ZM163.244 440.268V441.829H161.683V440.268H163.244ZM163.244 441.829V443.39H161.683V441.829H163.244ZM163.244 443.39V444.951H161.683V443.39H163.244ZM163.244 444.951V446.512H161.683V444.951H163.244ZM164.805 446.512V448.073H163.244V446.512H164.805ZM164.805 448.073V449.634H163.244V448.073H164.805ZM164.805 449.634V451.195H163.244V449.634H164.805ZM164.805 451.195V452.756H163.244V451.195H164.805ZM164.805 452.756V454.317H163.244V452.756H164.805ZM164.805 454.317V455.878H163.244V454.317H164.805ZM164.805 455.878V457.439H163.244V455.878H164.805ZM164.805 457.439V459H163.244V457.439H164.805ZM166.366 457.439V459H164.805V457.439H166.366ZM167.927 457.439V459H166.366V457.439H167.927ZM167.927 455.878V457.439H166.366V455.878H167.927ZM167.927 454.317V455.878H166.366V454.317H167.927ZM167.927 452.756V454.317H166.366V452.756H167.927ZM167.927 451.195V452.756H166.366V451.195H167.927ZM167.927 449.634V451.195H166.366V449.634H167.927ZM167.927 448.073V449.634H166.366V448.073H167.927ZM167.927 446.512V448.073H166.366V446.512H167.927ZM166.366 446.512V448.073H164.805V446.512H166.366ZM166.366 444.951V446.512H164.805V444.951H166.366ZM166.366 448.073V449.634H164.805V448.073H166.366ZM166.366 449.634V451.195H164.805V449.634H166.366ZM166.366 451.195V452.756H164.805V451.195H166.366ZM166.366 452.756V454.317H164.805V452.756H166.366ZM166.366 454.317V455.878H164.805V454.317H166.366ZM166.366 455.878V457.439H164.805V455.878H166.366ZM163.244 457.439V459H161.683V457.439H163.244ZM163.244 455.878V457.439H161.683V455.878H163.244ZM163.244 454.317V455.878H161.683V454.317H163.244ZM163.244 452.756V454.317H161.683V452.756H163.244ZM163.244 451.195V452.756H161.683V451.195H163.244ZM163.244 449.634V451.195H161.683V449.634H163.244ZM163.244 448.073V449.634H161.683V448.073H163.244ZM163.244 446.512V448.073H161.683V446.512H163.244ZM161.683 430.902V432.463H160.122V430.902H161.683ZM161.683 432.463V434.024H160.122V432.463H161.683ZM161.683 434.024V435.585H160.122V434.024H161.683ZM166.366 427.78V429.341H164.805V427.78H166.366ZM166.366 430.902V432.463H164.805V430.902H166.366ZM166.366 432.463V434.024H164.805V432.463H166.366ZM166.366 434.024V435.585H164.805V434.024H166.366ZM166.366 435.585V437.146H164.805V435.585H166.366ZM166.366 437.146V438.707H164.805V437.146H166.366ZM166.366 438.707V440.268H164.805V438.707H166.366ZM166.366 440.268V441.829H164.805V440.268H166.366ZM167.927 441.829V443.39H166.366V441.829H167.927ZM167.927 443.39V444.951H166.366V443.39H167.927ZM167.927 444.951V446.512H166.366V444.951H167.927ZM167.927 440.268V441.829H166.366V440.268H167.927ZM167.927 438.707V440.268H166.366V438.707H167.927ZM167.927 437.146V438.707H166.366V437.146H167.927ZM167.927 435.585V437.146H166.366V435.585H167.927ZM167.927 434.024V435.585H166.366V434.024H167.927ZM167.927 432.463V434.024H166.366V432.463H167.927ZM167.927 430.902V432.463H166.366V430.902H167.927ZM167.927 429.341V430.902H166.366V429.341H167.927ZM167.927 427.78V429.341H166.366V427.78H167.927ZM167.927 426.22V427.78H166.366V426.22H167.927ZM166.366 429.341V430.902H164.805V429.341H166.366ZM167.927 424.659V426.22H166.366V424.659H167.927ZM167.927 423.098V424.659H166.366V423.098H167.927ZM164.805 427.78V429.341H163.244V427.78H164.805ZM164.805 429.341V430.902H163.244V429.341H164.805ZM164.805 430.902V432.463H163.244V430.902H164.805ZM163.244 432.463V434.024H161.683V432.463H163.244ZM163.244 434.024V435.585H161.683V434.024H163.244ZM163.244 430.902V432.463H161.683V430.902H163.244ZM163.244 429.341V430.902H161.683V429.341H163.244ZM164.805 432.463V434.024H163.244V432.463H164.805ZM164.805 434.024V435.585H163.244V434.024H164.805ZM164.805 435.585V437.146H163.244V435.585H164.805ZM164.805 437.146V438.707H163.244V437.146H164.805ZM164.805 438.707V440.268H163.244V438.707H164.805ZM164.805 440.268V441.829H163.244V440.268H164.805ZM164.805 441.829V443.39H163.244V441.829H164.805ZM164.805 443.39V444.951H163.244V443.39H164.805ZM164.805 444.951V446.512H163.244V444.951H164.805ZM166.366 443.39V444.951H164.805V443.39H166.366ZM166.366 441.829V443.39H164.805V441.829H166.366ZM178.854 457.439V459H177.293V457.439H178.854ZM178.854 455.878V457.439H177.293V455.878H178.854ZM178.854 454.317V455.878H177.293V454.317H178.854ZM178.854 452.756V454.317H177.293V452.756H178.854ZM178.854 451.195V452.756H177.293V451.195H178.854ZM178.854 449.634V451.195H177.293V449.634H178.854ZM178.854 448.073V449.634H177.293V448.073H178.854ZM178.854 446.512V448.073H177.293V446.512H178.854ZM178.854 444.951V446.512H177.293V444.951H178.854ZM178.854 443.39V444.951H177.293V443.39H178.854ZM178.854 441.829V443.39H177.293V441.829H178.854ZM178.854 440.268V441.829H177.293V440.268H178.854ZM178.854 438.707V440.268H177.293V438.707H178.854ZM178.854 437.146V438.707H177.293V437.146H178.854ZM178.854 435.585V437.146H177.293V435.585H178.854ZM180.415 435.585V437.146H178.854V435.585H180.415ZM180.415 437.146V438.707H178.854V437.146H180.415ZM180.415 438.707V440.268H178.854V438.707H180.415ZM180.415 440.268V441.829H178.854V440.268H180.415ZM180.415 441.829V443.39H178.854V441.829H180.415ZM180.415 443.39V444.951H178.854V443.39H180.415ZM180.415 444.951V446.512H178.854V444.951H180.415ZM181.976 446.512V448.073H180.415V446.512H181.976ZM181.976 448.073V449.634H180.415V448.073H181.976ZM181.976 449.634V451.195H180.415V449.634H181.976ZM181.976 451.195V452.756H180.415V451.195H181.976ZM181.976 452.756V454.317H180.415V452.756H181.976ZM181.976 454.317V455.878H180.415V454.317H181.976ZM181.976 455.878V457.439H180.415V455.878H181.976ZM181.976 457.439V459H180.415V457.439H181.976ZM183.537 457.439V459H181.976V457.439H183.537ZM185.098 457.439V459H183.537V457.439H185.098ZM185.098 455.878V457.439H183.537V455.878H185.098ZM185.098 454.317V455.878H183.537V454.317H185.098ZM185.098 452.756V454.317H183.537V452.756H185.098ZM185.098 451.195V452.756H183.537V451.195H185.098ZM185.098 449.634V451.195H183.537V449.634H185.098ZM185.098 448.073V449.634H183.537V448.073H185.098ZM185.098 446.512V448.073H183.537V446.512H185.098ZM183.537 446.512V448.073H181.976V446.512H183.537ZM183.537 444.951V446.512H181.976V444.951H183.537ZM183.537 448.073V449.634H181.976V448.073H183.537ZM183.537 449.634V451.195H181.976V449.634H183.537ZM183.537 451.195V452.756H181.976V451.195H183.537ZM183.537 452.756V454.317H181.976V452.756H183.537ZM183.537 454.317V455.878H181.976V454.317H183.537ZM183.537 455.878V457.439H181.976V455.878H183.537ZM180.415 457.439V459H178.854V457.439H180.415ZM180.415 455.878V457.439H178.854V455.878H180.415ZM180.415 454.317V455.878H178.854V454.317H180.415ZM180.415 452.756V454.317H178.854V452.756H180.415ZM180.415 451.195V452.756H178.854V451.195H180.415ZM180.415 449.634V451.195H178.854V449.634H180.415ZM180.415 448.073V449.634H178.854V448.073H180.415ZM180.415 446.512V448.073H178.854V446.512H180.415ZM178.854 423.098V424.659H177.293V423.098H178.854ZM178.854 424.659V426.22H177.293V424.659H178.854ZM178.854 426.22V427.78H177.293V426.22H178.854ZM178.854 427.78V429.341H177.293V427.78H178.854ZM178.854 429.341V430.902H177.293V429.341H178.854ZM178.854 430.902V432.463H177.293V430.902H178.854ZM178.854 432.463V434.024H177.293V432.463H178.854ZM178.854 434.024V435.585H177.293V434.024H178.854ZM183.537 427.78V429.341H181.976V427.78H183.537ZM183.537 430.902V432.463H181.976V430.902H183.537ZM183.537 432.463V434.024H181.976V432.463H183.537ZM183.537 434.024V435.585H181.976V434.024H183.537ZM183.537 435.585V437.146H181.976V435.585H183.537ZM183.537 437.146V438.707H181.976V437.146H183.537ZM183.537 438.707V440.268H181.976V438.707H183.537ZM183.537 440.268V441.829H181.976V440.268H183.537ZM185.098 441.829V443.39H183.537V441.829H185.098ZM185.098 443.39V444.951H183.537V443.39H185.098ZM185.098 444.951V446.512H183.537V444.951H185.098ZM185.098 440.268V441.829H183.537V440.268H185.098ZM185.098 438.707V440.268H183.537V438.707H185.098ZM185.098 437.146V438.707H183.537V437.146H185.098ZM185.098 435.585V437.146H183.537V435.585H185.098ZM185.098 434.024V435.585H183.537V434.024H185.098ZM185.098 432.463V434.024H183.537V432.463H185.098ZM185.098 430.902V432.463H183.537V430.902H185.098ZM185.098 429.341V430.902H183.537V429.341H185.098ZM183.537 429.341V430.902H181.976V429.341H183.537ZM181.976 426.22V427.78H180.415V426.22H181.976ZM181.976 427.78V429.341H180.415V427.78H181.976ZM181.976 429.341V430.902H180.415V429.341H181.976ZM181.976 430.902V432.463H180.415V430.902H181.976ZM180.415 432.463V434.024H178.854V432.463H180.415ZM180.415 434.024V435.585H178.854V434.024H180.415ZM180.415 430.902V432.463H178.854V430.902H180.415ZM180.415 429.341V430.902H178.854V429.341H180.415ZM180.415 427.78V429.341H178.854V427.78H180.415ZM180.415 426.22V427.78H178.854V426.22H180.415ZM180.415 424.659V426.22H178.854V424.659H180.415ZM181.976 432.463V434.024H180.415V432.463H181.976ZM181.976 434.024V435.585H180.415V434.024H181.976ZM181.976 435.585V437.146H180.415V435.585H181.976ZM181.976 437.146V438.707H180.415V437.146H181.976ZM181.976 438.707V440.268H180.415V438.707H181.976ZM181.976 440.268V441.829H180.415V440.268H181.976ZM181.976 441.829V443.39H180.415V441.829H181.976ZM181.976 443.39V444.951H180.415V443.39H181.976ZM181.976 444.951V446.512H180.415V444.951H181.976ZM183.537 443.39V444.951H181.976V443.39H183.537ZM183.537 441.829V443.39H181.976V441.829H183.537ZM171.049 419.976V421.537H169.488V419.976H171.049ZM172.61 419.976V421.537H171.049V419.976H172.61ZM174.171 419.976V421.537H172.61V419.976H174.171ZM175.732 419.976V421.537H174.171V419.976H175.732ZM177.293 421.537V423.098H175.732V421.537H177.293ZM175.732 421.537V423.098H174.171V421.537H175.732ZM174.171 421.537V423.098H172.61V421.537H174.171ZM172.61 421.537V423.098H171.049V421.537H172.61ZM171.049 421.537V423.098H169.488V421.537H171.049ZM169.488 421.537V423.098H167.927V421.537H169.488ZM169.488 423.098V424.659H167.927V423.098H169.488ZM169.488 424.659V426.22H167.927V424.659H169.488ZM171.049 423.098V424.659H169.488V423.098H171.049ZM172.61 423.098V424.659H171.049V423.098H172.61ZM174.171 423.098V424.659H172.61V423.098H174.171ZM175.732 423.098V424.659H174.171V423.098H175.732ZM177.293 423.098V424.659H175.732V423.098H177.293ZM177.293 424.659V426.22H175.732V424.659H177.293ZM175.732 424.659V426.22H174.171V424.659H175.732ZM174.171 424.659V426.22H172.61V424.659H174.171ZM172.61 424.659V426.22H171.049V424.659H172.61ZM171.049 424.659V426.22H169.488V424.659H171.049ZM169.488 426.22V427.78H167.927V426.22H169.488ZM171.049 426.22V427.78H169.488V426.22H171.049ZM177.293 426.22V427.78H175.732V426.22H177.293ZM175.732 426.22V427.78H174.171V426.22H175.732ZM177.293 427.78V429.341H175.732V427.78H177.293ZM169.488 427.78V429.341H167.927V427.78H169.488ZM166.366 424.659V426.22H164.805V424.659H166.366ZM166.366 426.22V427.78H164.805V426.22H166.366ZM164.805 426.22V427.78H163.244V426.22H164.805ZM163.244 427.78V429.341H161.683V427.78H163.244ZM161.683 429.341V430.902H160.122V429.341H161.683ZM169.488 429.341V430.902H167.927V429.341H169.488ZM171.049 427.78V429.341H169.488V427.78H171.049ZM172.61 426.22V427.78H171.049V426.22H172.61ZM174.171 426.22V427.78H172.61V426.22H174.171ZM175.732 427.78V429.341H174.171V427.78H175.732ZM177.293 429.341V430.902H175.732V429.341H177.293ZM169.488 448.073V449.634H167.927V448.073H169.488ZM171.049 448.073V449.634H169.488V448.073H171.049ZM172.61 448.073V449.634H171.049V448.073H172.61ZM174.171 448.073V449.634H172.61V448.073H174.171ZM175.732 448.073V449.634H174.171V448.073H175.732ZM177.293 448.073V449.634H175.732V448.073H177.293ZM177.293 446.512V448.073H175.732V446.512H177.293ZM175.732 446.512V448.073H174.171V446.512H175.732ZM174.171 446.512V448.073H172.61V446.512H174.171ZM172.61 446.512V448.073H171.049V446.512H172.61ZM171.049 446.512V448.073H169.488V446.512H171.049ZM169.488 446.512V448.073H167.927V446.512H169.488ZM169.488 444.951V446.512H167.927V444.951H169.488ZM171.049 444.951V446.512H169.488V444.951H171.049ZM172.61 444.951V446.512H171.049V444.951H172.61ZM174.171 444.951V446.512H172.61V444.951H174.171ZM175.732 444.951V446.512H174.171V444.951H175.732ZM177.293 444.951V446.512H175.732V444.951H177.293ZM177.293 443.39V444.951H175.732V443.39H177.293ZM175.732 443.39V444.951H174.171V443.39H175.732ZM174.171 443.39V444.951H172.61V443.39H174.171ZM172.61 443.39V444.951H171.049V443.39H172.61ZM171.049 443.39V444.951H169.488V443.39H171.049ZM169.488 443.39V444.951H167.927V443.39H169.488ZM169.488 441.829V443.39H167.927V441.829H169.488ZM171.049 441.829V443.39H169.488V441.829H171.049ZM172.61 441.829V443.39H171.049V441.829H172.61ZM174.171 441.829V443.39H172.61V441.829H174.171ZM175.732 441.829V443.39H174.171V441.829H175.732ZM177.293 441.829V443.39H175.732V441.829H177.293ZM172.61 427.78V429.341H171.049V427.78H172.61ZM174.171 427.78V429.341H172.61V427.78H174.171ZM171.049 429.341V430.902H169.488V429.341H171.049ZM169.488 430.902V432.463H167.927V430.902H169.488ZM175.732 429.341V430.902H174.171V429.341H175.732ZM177.293 430.902V432.463H175.732V430.902H177.293ZM192.933 457.439V459H191.372V457.439H192.933ZM192.933 455.878V457.439H191.372V455.878H192.933ZM192.933 454.317V455.878H191.372V454.317H192.933ZM192.933 452.756V454.317H191.372V452.756H192.933ZM192.933 451.195V452.756H191.372V451.195H192.933ZM192.933 449.634V451.195H191.372V449.634H192.933ZM192.933 448.073V449.634H191.372V448.073H192.933ZM192.933 446.512V448.073H191.372V446.512H192.933ZM192.933 444.951V446.512H191.372V444.951H192.933ZM192.933 443.39V444.951H191.372V443.39H192.933ZM192.933 441.829V443.39H191.372V441.829H192.933ZM192.933 440.268V441.829H191.372V440.268H192.933ZM192.933 438.707V440.268H191.372V438.707H192.933ZM192.933 437.146V438.707H191.372V437.146H192.933ZM192.933 435.585V437.146H191.372V435.585H192.933ZM194.494 435.585V437.146H192.933V435.585H194.494ZM194.494 437.146V438.707H192.933V437.146H194.494ZM194.494 438.707V440.268H192.933V438.707H194.494ZM194.494 440.268V441.829H192.933V440.268H194.494ZM194.494 441.829V443.39H192.933V441.829H194.494ZM194.494 443.39V444.951H192.933V443.39H194.494ZM194.494 444.951V446.512H192.933V444.951H194.494ZM196.055 446.512V448.073H194.494V446.512H196.055ZM196.055 448.073V449.634H194.494V448.073H196.055ZM196.055 449.634V451.195H194.494V449.634H196.055ZM196.055 451.195V452.756H194.494V451.195H196.055ZM196.055 452.756V454.317H194.494V452.756H196.055ZM196.055 454.317V455.878H194.494V454.317H196.055ZM196.055 455.878V457.439H194.494V455.878H196.055ZM196.055 457.439V459H194.494V457.439H196.055ZM197.616 457.439V459H196.055V457.439H197.616ZM199.177 457.439V459H197.616V457.439H199.177ZM199.177 455.878V457.439H197.616V455.878H199.177ZM199.177 454.317V455.878H197.616V454.317H199.177ZM199.177 452.756V454.317H197.616V452.756H199.177ZM199.177 451.195V452.756H197.616V451.195H199.177ZM199.177 449.634V451.195H197.616V449.634H199.177ZM199.177 448.073V449.634H197.616V448.073H199.177ZM199.177 446.512V448.073H197.616V446.512H199.177ZM197.616 446.512V448.073H196.055V446.512H197.616ZM197.616 444.951V446.512H196.055V444.951H197.616ZM197.616 448.073V449.634H196.055V448.073H197.616ZM197.616 449.634V451.195H196.055V449.634H197.616ZM197.616 451.195V452.756H196.055V451.195H197.616ZM197.616 452.756V454.317H196.055V452.756H197.616ZM197.616 454.317V455.878H196.055V454.317H197.616ZM197.616 455.878V457.439H196.055V455.878H197.616ZM194.494 457.439V459H192.933V457.439H194.494ZM194.494 455.878V457.439H192.933V455.878H194.494ZM194.494 454.317V455.878H192.933V454.317H194.494ZM194.494 452.756V454.317H192.933V452.756H194.494ZM194.494 451.195V452.756H192.933V451.195H194.494ZM194.494 449.634V451.195H192.933V449.634H194.494ZM194.494 448.073V449.634H192.933V448.073H194.494ZM194.494 446.512V448.073H192.933V446.512H194.494ZM192.933 419.976V421.537H191.372V419.976H192.933ZM192.933 421.537V423.098H191.372V421.537H192.933ZM192.933 423.098V424.659H191.372V423.098H192.933ZM192.933 424.659V426.22H191.372V424.659H192.933ZM192.933 426.22V427.78H191.372V426.22H192.933ZM192.933 427.78V429.341H191.372V427.78H192.933ZM192.933 429.341V430.902H191.372V429.341H192.933ZM192.933 430.902V432.463H191.372V430.902H192.933ZM192.933 432.463V434.024H191.372V432.463H192.933ZM192.933 434.024V435.585H191.372V434.024H192.933ZM197.616 419.976V421.537H196.055V419.976H197.616ZM197.616 421.537V423.098H196.055V421.537H197.616ZM197.616 423.098V424.659H196.055V423.098H197.616ZM197.616 424.659V426.22H196.055V424.659H197.616ZM197.616 426.22V427.78H196.055V426.22H197.616ZM197.616 427.78V429.341H196.055V427.78H197.616ZM197.616 430.902V432.463H196.055V430.902H197.616ZM197.616 432.463V434.024H196.055V432.463H197.616ZM197.616 434.024V435.585H196.055V434.024H197.616ZM197.616 435.585V437.146H196.055V435.585H197.616ZM197.616 437.146V438.707H196.055V437.146H197.616ZM197.616 438.707V440.268H196.055V438.707H197.616ZM197.616 440.268V441.829H196.055V440.268H197.616ZM199.177 441.829V443.39H197.616V441.829H199.177ZM199.177 443.39V444.951H197.616V443.39H199.177ZM199.177 444.951V446.512H197.616V444.951H199.177ZM199.177 440.268V441.829H197.616V440.268H199.177ZM199.177 438.707V440.268H197.616V438.707H199.177ZM199.177 437.146V438.707H197.616V437.146H199.177ZM199.177 435.585V437.146H197.616V435.585H199.177ZM199.177 434.024V435.585H197.616V434.024H199.177ZM199.177 432.463V434.024H197.616V432.463H199.177ZM199.177 430.902V432.463H197.616V430.902H199.177ZM199.177 429.341V430.902H197.616V429.341H199.177ZM199.177 427.78V429.341H197.616V427.78H199.177ZM199.177 426.22V427.78H197.616V426.22H199.177ZM197.616 429.341V430.902H196.055V429.341H197.616ZM199.177 424.659V426.22H197.616V424.659H199.177ZM199.177 423.098V424.659H197.616V423.098H199.177ZM199.177 421.537V423.098H197.616V421.537H199.177ZM199.177 419.976V421.537H197.616V419.976H199.177ZM196.055 419.976V421.537H194.494V419.976H196.055ZM194.494 419.976V421.537H192.933V419.976H194.494ZM194.494 421.537V423.098H192.933V421.537H194.494ZM196.055 421.537V423.098H194.494V421.537H196.055ZM196.055 423.098V424.659H194.494V423.098H196.055ZM196.055 424.659V426.22H194.494V424.659H196.055ZM196.055 426.22V427.78H194.494V426.22H196.055ZM196.055 427.78V429.341H194.494V427.78H196.055ZM196.055 429.341V430.902H194.494V429.341H196.055ZM196.055 430.902V432.463H194.494V430.902H196.055ZM194.494 432.463V434.024H192.933V432.463H194.494ZM194.494 434.024V435.585H192.933V434.024H194.494ZM194.494 430.902V432.463H192.933V430.902H194.494ZM194.494 429.341V430.902H192.933V429.341H194.494ZM194.494 427.78V429.341H192.933V427.78H194.494ZM194.494 426.22V427.78H192.933V426.22H194.494ZM194.494 424.659V426.22H192.933V424.659H194.494ZM194.494 423.098V424.659H192.933V423.098H194.494ZM196.055 432.463V434.024H194.494V432.463H196.055ZM196.055 434.024V435.585H194.494V434.024H196.055ZM196.055 435.585V437.146H194.494V435.585H196.055ZM196.055 437.146V438.707H194.494V437.146H196.055ZM196.055 438.707V440.268H194.494V438.707H196.055ZM196.055 440.268V441.829H194.494V440.268H196.055ZM196.055 441.829V443.39H194.494V441.829H196.055ZM196.055 443.39V444.951H194.494V443.39H196.055ZM196.055 444.951V446.512H194.494V444.951H196.055ZM197.616 443.39V444.951H196.055V443.39H197.616ZM197.616 441.829V443.39H196.055V441.829H197.616ZM200.738 457.439V459H199.177V457.439H200.738ZM202.299 457.439V459H200.738V457.439H202.299ZM202.299 455.878V457.439H200.738V455.878H202.299ZM202.299 454.317V455.878H200.738V454.317H202.299ZM202.299 452.756V454.317H200.738V452.756H202.299ZM202.299 451.195V452.756H200.738V451.195H202.299ZM200.738 451.195V452.756H199.177V451.195H200.738ZM200.738 452.756V454.317H199.177V452.756H200.738ZM200.738 454.317V455.878H199.177V454.317H200.738ZM200.738 455.878V457.439H199.177V455.878H200.738ZM203.86 451.195V452.756H202.299V451.195H203.86ZM205.421 451.195V452.756H203.86V451.195H205.421ZM206.982 451.195V452.756H205.421V451.195H206.982ZM206.982 455.878V457.439H205.421V455.878H206.982ZM205.421 457.439V459H203.86V457.439H205.421ZM203.86 457.439V459H202.299V457.439H203.86ZM206.982 457.439V459H205.421V457.439H206.982ZM205.421 455.878V457.439H203.86V455.878H205.421ZM203.86 455.878V457.439H202.299V455.878H203.86ZM203.86 454.317V455.878H202.299V454.317H203.86ZM205.421 454.317V455.878H203.86V454.317H205.421ZM206.982 454.317V455.878H205.421V454.317H206.982ZM206.982 452.756V454.317H205.421V452.756H206.982ZM205.421 452.756V454.317H203.86V452.756H205.421ZM203.86 452.756V454.317H202.299V452.756H203.86ZM208.543 457.439V459H206.982V457.439H208.543ZM210.104 457.439V459H208.543V457.439H210.104ZM211.665 457.439V459H210.104V457.439H211.665ZM211.665 455.878V457.439H210.104V455.878H211.665ZM208.543 451.195V452.756H206.982V451.195H208.543ZM210.104 451.195V452.756H208.543V451.195H210.104ZM211.665 451.195V452.756H210.104V451.195H211.665ZM211.665 452.756V454.317H210.104V452.756H211.665ZM211.665 454.317V455.878H210.104V454.317H211.665ZM210.104 454.317V455.878H208.543V454.317H210.104ZM210.104 452.756V454.317H208.543V452.756H210.104ZM208.543 452.756V454.317H206.982V452.756H208.543ZM208.543 454.317V455.878H206.982V454.317H208.543ZM208.543 455.878V457.439H206.982V455.878H208.543ZM210.104 455.878V457.439H208.543V455.878H210.104ZM219.495 457.439V459H217.934V457.439H219.495ZM219.495 455.878V457.439H217.934V455.878H219.495ZM219.495 454.317V455.878H217.934V454.317H219.495ZM219.495 452.756V454.317H217.934V452.756H219.495ZM219.495 451.195V452.756H217.934V451.195H219.495ZM219.495 449.634V451.195H217.934V449.634H219.495ZM219.495 448.073V449.634H217.934V448.073H219.495ZM219.495 446.512V448.073H217.934V446.512H219.495ZM219.495 444.951V446.512H217.934V444.951H219.495ZM219.495 443.39V444.951H217.934V443.39H219.495ZM219.495 441.829V443.39H217.934V441.829H219.495ZM219.495 440.268V441.829H217.934V440.268H219.495ZM219.495 438.707V440.268H217.934V438.707H219.495ZM219.495 437.146V438.707H217.934V437.146H219.495ZM219.495 435.585V437.146H217.934V435.585H219.495ZM221.056 435.585V437.146H219.495V435.585H221.056ZM221.056 437.146V438.707H219.495V437.146H221.056ZM221.056 438.707V440.268H219.495V438.707H221.056ZM221.056 440.268V441.829H219.495V440.268H221.056ZM221.056 441.829V443.39H219.495V441.829H221.056ZM221.056 443.39V444.951H219.495V443.39H221.056ZM221.056 444.951V446.512H219.495V444.951H221.056ZM222.617 446.512V448.073H221.056V446.512H222.617ZM222.617 448.073V449.634H221.056V448.073H222.617ZM222.617 449.634V451.195H221.056V449.634H222.617ZM222.617 451.195V452.756H221.056V451.195H222.617ZM222.617 452.756V454.317H221.056V452.756H222.617ZM222.617 454.317V455.878H221.056V454.317H222.617ZM222.617 455.878V457.439H221.056V455.878H222.617ZM222.617 457.439V459H221.056V457.439H222.617ZM224.178 457.439V459H222.617V457.439H224.178ZM225.739 457.439V459H224.178V457.439H225.739ZM225.739 455.878V457.439H224.178V455.878H225.739ZM225.739 454.317V455.878H224.178V454.317H225.739ZM225.739 452.756V454.317H224.178V452.756H225.739ZM225.739 451.195V452.756H224.178V451.195H225.739ZM225.739 449.634V451.195H224.178V449.634H225.739ZM225.739 448.073V449.634H224.178V448.073H225.739ZM225.739 446.512V448.073H224.178V446.512H225.739ZM224.178 446.512V448.073H222.617V446.512H224.178ZM224.178 444.951V446.512H222.617V444.951H224.178ZM224.178 448.073V449.634H222.617V448.073H224.178ZM224.178 449.634V451.195H222.617V449.634H224.178ZM224.178 451.195V452.756H222.617V451.195H224.178ZM224.178 452.756V454.317H222.617V452.756H224.178ZM224.178 454.317V455.878H222.617V454.317H224.178ZM224.178 455.878V457.439H222.617V455.878H224.178ZM221.056 457.439V459H219.495V457.439H221.056ZM221.056 455.878V457.439H219.495V455.878H221.056ZM221.056 454.317V455.878H219.495V454.317H221.056ZM221.056 452.756V454.317H219.495V452.756H221.056ZM221.056 451.195V452.756H219.495V451.195H221.056ZM221.056 449.634V451.195H219.495V449.634H221.056ZM221.056 448.073V449.634H219.495V448.073H221.056ZM221.056 446.512V448.073H219.495V446.512H221.056ZM219.495 419.976V421.537H217.934V419.976H219.495ZM219.495 421.537V423.098H217.934V421.537H219.495ZM219.495 423.098V424.659H217.934V423.098H219.495ZM219.495 424.659V426.22H217.934V424.659H219.495ZM219.495 426.22V427.78H217.934V426.22H219.495ZM219.495 427.78V429.341H217.934V427.78H219.495ZM219.495 429.341V430.902H217.934V429.341H219.495ZM219.495 430.902V432.463H217.934V430.902H219.495ZM219.495 432.463V434.024H217.934V432.463H219.495ZM219.495 434.024V435.585H217.934V434.024H219.495ZM224.178 419.976V421.537H222.617V419.976H224.178ZM224.178 421.537V423.098H222.617V421.537H224.178ZM224.178 423.098V424.659H222.617V423.098H224.178ZM224.178 424.659V426.22H222.617V424.659H224.178ZM224.178 426.22V427.78H222.617V426.22H224.178ZM224.178 427.78V429.341H222.617V427.78H224.178ZM224.178 430.902V432.463H222.617V430.902H224.178ZM224.178 432.463V434.024H222.617V432.463H224.178ZM224.178 434.024V435.585H222.617V434.024H224.178ZM224.178 435.585V437.146H222.617V435.585H224.178ZM224.178 437.146V438.707H222.617V437.146H224.178ZM224.178 438.707V440.268H222.617V438.707H224.178ZM224.178 440.268V441.829H222.617V440.268H224.178ZM225.739 441.829V443.39H224.178V441.829H225.739ZM225.739 443.39V444.951H224.178V443.39H225.739ZM225.739 444.951V446.512H224.178V444.951H225.739ZM225.739 440.268V441.829H224.178V440.268H225.739ZM225.739 438.707V440.268H224.178V438.707H225.739ZM225.739 437.146V438.707H224.178V437.146H225.739ZM225.739 435.585V437.146H224.178V435.585H225.739ZM225.739 434.024V435.585H224.178V434.024H225.739ZM225.739 432.463V434.024H224.178V432.463H225.739ZM225.739 430.902V432.463H224.178V430.902H225.739ZM225.739 429.341V430.902H224.178V429.341H225.739ZM225.739 427.78V429.341H224.178V427.78H225.739ZM225.739 426.22V427.78H224.178V426.22H225.739ZM224.178 429.341V430.902H222.617V429.341H224.178ZM225.739 424.659V426.22H224.178V424.659H225.739ZM225.739 423.098V424.659H224.178V423.098H225.739ZM225.739 421.537V423.098H224.178V421.537H225.739ZM225.739 419.976V421.537H224.178V419.976H225.739ZM222.617 419.976V421.537H221.056V419.976H222.617ZM221.056 419.976V421.537H219.495V419.976H221.056ZM221.056 421.537V423.098H219.495V421.537H221.056ZM222.617 421.537V423.098H221.056V421.537H222.617ZM222.617 423.098V424.659H221.056V423.098H222.617ZM222.617 424.659V426.22H221.056V424.659H222.617ZM222.617 426.22V427.78H221.056V426.22H222.617ZM222.617 427.78V429.341H221.056V427.78H222.617ZM222.617 429.341V430.902H221.056V429.341H222.617ZM222.617 430.902V432.463H221.056V430.902H222.617ZM221.056 432.463V434.024H219.495V432.463H221.056ZM221.056 434.024V435.585H219.495V434.024H221.056ZM221.056 430.902V432.463H219.495V430.902H221.056ZM221.056 429.341V430.902H219.495V429.341H221.056ZM221.056 427.78V429.341H219.495V427.78H221.056ZM221.056 426.22V427.78H219.495V426.22H221.056ZM221.056 424.659V426.22H219.495V424.659H221.056ZM221.056 423.098V424.659H219.495V423.098H221.056ZM222.617 432.463V434.024H221.056V432.463H222.617ZM222.617 434.024V435.585H221.056V434.024H222.617ZM222.617 435.585V437.146H221.056V435.585H222.617ZM222.617 437.146V438.707H221.056V437.146H222.617ZM222.617 438.707V440.268H221.056V438.707H222.617ZM222.617 440.268V441.829H221.056V440.268H222.617ZM222.617 441.829V443.39H221.056V441.829H222.617ZM222.617 443.39V444.951H221.056V443.39H222.617ZM222.617 444.951V446.512H221.056V444.951H222.617ZM224.178 443.39V444.951H222.617V443.39H224.178ZM224.178 441.829V443.39H222.617V441.829H224.178ZM227.3 457.439V459H225.739V457.439H227.3ZM228.861 457.439V459H227.3V457.439H228.861ZM228.861 455.878V457.439H227.3V455.878H228.861ZM228.861 454.317V455.878H227.3V454.317H228.861ZM228.861 452.756V454.317H227.3V452.756H228.861ZM228.861 451.195V452.756H227.3V451.195H228.861ZM227.3 451.195V452.756H225.739V451.195H227.3ZM227.3 452.756V454.317H225.739V452.756H227.3ZM227.3 454.317V455.878H225.739V454.317H227.3ZM227.3 455.878V457.439H225.739V455.878H227.3ZM230.422 451.195V452.756H228.861V451.195H230.422ZM231.983 451.195V452.756H230.422V451.195H231.983ZM233.544 451.195V452.756H231.983V451.195H233.544ZM233.544 455.878V457.439H231.983V455.878H233.544ZM231.983 457.439V459H230.422V457.439H231.983ZM230.422 457.439V459H228.861V457.439H230.422ZM233.544 457.439V459H231.983V457.439H233.544ZM231.983 455.878V457.439H230.422V455.878H231.983ZM230.422 455.878V457.439H228.861V455.878H230.422ZM230.422 454.317V455.878H228.861V454.317H230.422ZM231.983 454.317V455.878H230.422V454.317H231.983ZM233.544 454.317V455.878H231.983V454.317H233.544ZM233.544 452.756V454.317H231.983V452.756H233.544ZM231.983 452.756V454.317H230.422V452.756H231.983ZM230.422 452.756V454.317H228.861V452.756H230.422ZM235.105 457.439V459H233.544V457.439H235.105ZM236.666 457.439V459H235.105V457.439H236.666ZM238.227 457.439V459H236.666V457.439H238.227ZM238.227 455.878V457.439H236.666V455.878H238.227ZM235.105 451.195V452.756H233.544V451.195H235.105ZM236.666 451.195V452.756H235.105V451.195H236.666ZM238.227 451.195V452.756H236.666V451.195H238.227ZM238.227 452.756V454.317H236.666V452.756H238.227ZM238.227 454.317V455.878H236.666V454.317H238.227ZM236.666 454.317V455.878H235.105V454.317H236.666ZM236.666 452.756V454.317H235.105V452.756H236.666ZM235.105 452.756V454.317H233.544V452.756H235.105ZM235.105 454.317V455.878H233.544V454.317H235.105ZM235.105 455.878V457.439H233.544V455.878H235.105ZM236.666 455.878V457.439H235.105V455.878H236.666Z" fill="#C21E1E"/>
</svg>
