<svg width="330" height="453" viewBox="0 0 330 453" fill="none" xmlns="http://www.w3.org/2000/svg">
<path d="M226.799 97.9774C224.344 97.9774 221.866 97.2117 219.75 95.6242C214.552 91.7266 213.498 84.3524 217.396 79.1539L272.952 5.06798C276.849 -0.129677 284.223 -1.18515 289.422 2.71407C294.62 6.61173 295.673 13.9859 291.776 19.1844L236.22 93.2703C233.909 96.3531 230.376 97.9774 226.799 97.9774Z" fill="#5D5D5D"/>
<path d="M113.032 97.9775C109.455 97.9775 105.923 96.3524 103.611 93.2704L48.0555 19.1845C44.1578 13.986 45.2117 6.61182 50.4094 2.71416C55.6078 -1.18427 62.9813 -0.129586 66.8797 5.06807L122.435 79.154C126.333 84.3524 125.279 91.7267 120.081 95.6243C117.965 97.2118 115.488 97.9775 113.032 97.9775Z" fill="#5D5D5D"/>
<path d="M285.815 144.341C284.253 144.341 282.666 144.027 281.149 143.364C275.404 140.851 272.838 134.28 275.419 128.687C276.118 127.173 276.815 125.738 277.49 124.35C280.319 118.536 282.026 115.026 282.026 109.558C282.026 84.2459 260.874 63.6537 234.876 63.6537C234.003 63.6537 233.062 63.6869 231.917 63.7592C228.732 63.9678 226.284 62.9798 224.807 62.115C223.334 61.2597 221.275 59.6081 219.998 56.7076C210.069 35.7386 188.387 22.2061 164.707 22.2061C141.135 22.2061 119.47 35.6693 109.511 56.5063C109.083 57.4021 107.779 60.1301 104.491 62.0501C102.284 63.3337 99.8335 63.8978 97.1844 63.74C96.2045 63.6825 95.3366 63.6537 94.5376 63.6537C68.5393 63.6537 47.3885 84.2466 47.3885 109.558C47.3885 117.206 48.9084 121.803 52.1027 128.636C54.7116 134.217 52.1799 140.8 46.4471 143.341C40.7173 145.88 33.9531 143.416 31.3434 137.835C27.1669 128.904 24.5799 121.057 24.5799 109.558C24.5799 72.8914 54.4943 42.8979 91.8106 41.4985C106.557 16.0858 134.492 0 164.708 0C194.982 0 222.88 16.0836 237.607 41.4985C274.923 42.8986 304.835 72.8907 304.835 109.558C304.835 120.018 301.413 127.052 298.104 133.854C297.491 135.112 296.86 136.411 296.226 137.785C294.327 141.901 290.168 144.341 285.815 144.341Z" fill="#5D5D5D"/>
<path d="M164.708 301.881C73.8882 301.881 0 229.945 0 141.523C0 132.064 10.491 124.073 22.9078 124.073H306.507C327.183 124.073 329.415 136.276 329.415 141.523C329.415 154.646 327.781 167.701 324.557 180.326C323.038 186.278 316.852 189.905 310.739 188.423C304.626 186.944 300.903 180.921 302.423 174.969C304.81 165.619 306.185 155.989 306.524 146.279C306.518 146.279 306.512 146.279 306.506 146.279H22.9085C22.9025 146.279 22.8972 146.279 22.8911 146.279C25.472 220.265 88.0967 279.675 164.707 279.675C213.261 279.675 257.933 255.894 284.204 216.06C287.608 210.902 294.662 209.404 299.962 212.718C305.262 216.031 306.8 222.899 303.396 228.059C272.909 274.284 221.064 301.881 164.708 301.881Z" fill="#5D5D5D"/>
<path d="M164.708 377.5C158.41 377.5 153.304 372.529 153.304 366.397V299.779C153.304 293.647 158.41 288.676 164.708 288.676C171.007 288.676 176.112 293.647 176.112 299.779V366.397C176.112 372.529 171.007 377.5 164.708 377.5Z" fill="#5D5D5D"/>
<path d="M255.941 377.5H73.4747C67.1761 377.5 62.0704 372.529 62.0704 366.397C62.0704 360.265 67.1761 355.294 73.4747 355.294H255.941C262.239 355.294 267.345 360.265 267.345 366.397C267.345 372.529 262.239 377.5 255.941 377.5Z" fill="#5D5D5D"/>
<path d="M66.5978 438.439V440H65.0368V438.439H66.5978ZM66.5978 436.878V438.439H65.0368V436.878H66.5978ZM66.5978 435.317V436.878H65.0368V435.317H66.5978ZM66.5978 433.756V435.317H65.0368V433.756H66.5978ZM66.5978 432.195V433.756H65.0368V432.195H66.5978ZM66.5978 430.634V432.195H65.0368V430.634H66.5978ZM66.5978 429.073V430.634H65.0368V429.073H66.5978ZM66.5978 427.512V429.073H65.0368V427.512H66.5978ZM66.5978 425.951V427.512H65.0368V425.951H66.5978ZM66.5978 424.39V425.951H65.0368V424.39H66.5978ZM66.5978 422.829V424.39H65.0368V422.829H66.5978ZM66.5978 421.268V422.829H65.0368V421.268H66.5978ZM66.5978 419.707V421.268H65.0368V419.707H66.5978ZM66.5978 418.146V419.707H65.0368V418.146H66.5978ZM66.5978 416.585V418.146H65.0368V416.585H66.5978ZM68.1588 416.585V418.146H66.5978V416.585H68.1588ZM68.1588 418.146V419.707H66.5978V418.146H68.1588ZM68.1588 419.707V421.268H66.5978V419.707H68.1588ZM68.1588 421.268V422.829H66.5978V421.268H68.1588ZM68.1588 422.829V424.39H66.5978V422.829H68.1588ZM68.1588 424.39V425.951H66.5978V424.39H68.1588ZM68.1588 425.951V427.512H66.5978V425.951H68.1588ZM69.7197 427.512V429.073H68.1588V427.512H69.7197ZM69.7197 429.073V430.634H68.1588V429.073H69.7197ZM69.7197 430.634V432.195H68.1588V430.634H69.7197ZM69.7197 432.195V433.756H68.1588V432.195H69.7197ZM69.7197 433.756V435.317H68.1588V433.756H69.7197ZM69.7197 435.317V436.878H68.1588V435.317H69.7197ZM69.7197 436.878V438.439H68.1588V436.878H69.7197ZM69.7197 438.439V440H68.1588V438.439H69.7197ZM71.2807 438.439V440H69.7197V438.439H71.2807ZM72.8417 438.439V440H71.2807V438.439H72.8417ZM72.8417 436.878V438.439H71.2807V436.878H72.8417ZM72.8417 435.317V436.878H71.2807V435.317H72.8417ZM72.8417 433.756V435.317H71.2807V433.756H72.8417ZM72.8417 432.195V433.756H71.2807V432.195H72.8417ZM72.8417 430.634V432.195H71.2807V430.634H72.8417ZM72.8417 429.073V430.634H71.2807V429.073H72.8417ZM72.8417 427.512V429.073H71.2807V427.512H72.8417ZM71.2807 427.512V429.073H69.7197V427.512H71.2807ZM71.2807 425.951V427.512H69.7197V425.951H71.2807ZM71.2807 429.073V430.634H69.7197V429.073H71.2807ZM71.2807 430.634V432.195H69.7197V430.634H71.2807ZM71.2807 432.195V433.756H69.7197V432.195H71.2807ZM71.2807 433.756V435.317H69.7197V433.756H71.2807ZM71.2807 435.317V436.878H69.7197V435.317H71.2807ZM71.2807 436.878V438.439H69.7197V436.878H71.2807ZM68.1588 438.439V440H66.5978V438.439H68.1588ZM68.1588 436.878V438.439H66.5978V436.878H68.1588ZM68.1588 435.317V436.878H66.5978V435.317H68.1588ZM68.1588 433.756V435.317H66.5978V433.756H68.1588ZM68.1588 432.195V433.756H66.5978V432.195H68.1588ZM68.1588 430.634V432.195H66.5978V430.634H68.1588ZM68.1588 429.073V430.634H66.5978V429.073H68.1588ZM68.1588 427.512V429.073H66.5978V427.512H68.1588ZM66.5978 400.976V402.537H65.0368V400.976H66.5978ZM66.5978 402.537V404.098H65.0368V402.537H66.5978ZM66.5978 404.098V405.659H65.0368V404.098H66.5978ZM66.5978 405.659V407.22H65.0368V405.659H66.5978ZM66.5978 407.22V408.78H65.0368V407.22H66.5978ZM66.5978 408.78V410.341H65.0368V408.78H66.5978ZM66.5978 410.341V411.902H65.0368V410.341H66.5978ZM66.5978 411.902V413.463H65.0368V411.902H66.5978ZM66.5978 413.463V415.024H65.0368V413.463H66.5978ZM66.5978 415.024V416.585H65.0368V415.024H66.5978ZM71.2807 400.976V402.537H69.7197V400.976H71.2807ZM71.2807 402.537V404.098H69.7197V402.537H71.2807ZM71.2807 404.098V405.659H69.7197V404.098H71.2807ZM71.2807 405.659V407.22H69.7197V405.659H71.2807ZM71.2807 407.22V408.78H69.7197V407.22H71.2807ZM71.2807 408.78V410.341H69.7197V408.78H71.2807ZM71.2807 411.902V413.463H69.7197V411.902H71.2807ZM71.2807 413.463V415.024H69.7197V413.463H71.2807ZM71.2807 415.024V416.585H69.7197V415.024H71.2807ZM71.2807 416.585V418.146H69.7197V416.585H71.2807ZM71.2807 418.146V419.707H69.7197V418.146H71.2807ZM71.2807 419.707V421.268H69.7197V419.707H71.2807ZM71.2807 421.268V422.829H69.7197V421.268H71.2807ZM72.8417 422.829V424.39H71.2807V422.829H72.8417ZM72.8417 424.39V425.951H71.2807V424.39H72.8417ZM72.8417 425.951V427.512H71.2807V425.951H72.8417ZM72.8417 421.268V422.829H71.2807V421.268H72.8417ZM72.8417 419.707V421.268H71.2807V419.707H72.8417ZM72.8417 418.146V419.707H71.2807V418.146H72.8417ZM72.8417 416.585V418.146H71.2807V416.585H72.8417ZM72.8417 415.024V416.585H71.2807V415.024H72.8417ZM72.8417 413.463V415.024H71.2807V413.463H72.8417ZM72.8417 411.902V413.463H71.2807V411.902H72.8417ZM72.8417 410.341V411.902H71.2807V410.341H72.8417ZM72.8417 408.78V410.341H71.2807V408.78H72.8417ZM72.8417 407.22V408.78H71.2807V407.22H72.8417ZM71.2807 410.341V411.902H69.7197V410.341H71.2807ZM72.8417 405.659V407.22H71.2807V405.659H72.8417ZM72.8417 404.098V405.659H71.2807V404.098H72.8417ZM72.8417 402.537V404.098H71.2807V402.537H72.8417ZM72.8417 400.976V402.537H71.2807V400.976H72.8417ZM69.7197 400.976V402.537H68.1588V400.976H69.7197ZM68.1588 400.976V402.537H66.5978V400.976H68.1588ZM68.1588 402.537V404.098H66.5978V402.537H68.1588ZM69.7197 402.537V404.098H68.1588V402.537H69.7197ZM69.7197 404.098V405.659H68.1588V404.098H69.7197ZM69.7197 405.659V407.22H68.1588V405.659H69.7197ZM69.7197 407.22V408.78H68.1588V407.22H69.7197ZM69.7197 408.78V410.341H68.1588V408.78H69.7197ZM69.7197 410.341V411.902H68.1588V410.341H69.7197ZM69.7197 411.902V413.463H68.1588V411.902H69.7197ZM68.1588 413.463V415.024H66.5978V413.463H68.1588ZM68.1588 415.024V416.585H66.5978V415.024H68.1588ZM68.1588 411.902V413.463H66.5978V411.902H68.1588ZM68.1588 410.341V411.902H66.5978V410.341H68.1588ZM68.1588 408.78V410.341H66.5978V408.78H68.1588ZM68.1588 407.22V408.78H66.5978V407.22H68.1588ZM68.1588 405.659V407.22H66.5978V405.659H68.1588ZM68.1588 404.098V405.659H66.5978V404.098H68.1588ZM69.7197 413.463V415.024H68.1588V413.463H69.7197ZM69.7197 415.024V416.585H68.1588V415.024H69.7197ZM69.7197 416.585V418.146H68.1588V416.585H69.7197ZM69.7197 418.146V419.707H68.1588V418.146H69.7197ZM69.7197 419.707V421.268H68.1588V419.707H69.7197ZM69.7197 421.268V422.829H68.1588V421.268H69.7197ZM69.7197 422.829V424.39H68.1588V422.829H69.7197ZM69.7197 424.39V425.951H68.1588V424.39H69.7197ZM69.7197 425.951V427.512H68.1588V425.951H69.7197ZM71.2807 424.39V425.951H69.7197V424.39H71.2807ZM71.2807 422.829V424.39H69.7197V422.829H71.2807ZM74.4027 400.976V402.537H72.8417V400.976H74.4027ZM75.9636 400.976V402.537H74.4027V400.976H75.9636ZM75.9636 402.537V404.098H74.4027V402.537H75.9636ZM74.4027 402.537V404.098H72.8417V402.537H74.4027ZM74.4027 404.098V405.659H72.8417V404.098H74.4027ZM75.9636 404.098V405.659H74.4027V404.098H75.9636ZM75.9636 405.659V407.22H74.4027V405.659H75.9636ZM74.4027 405.659V407.22H72.8417V405.659H74.4027ZM74.4027 407.22V408.78H72.8417V407.22H74.4027ZM75.9636 407.22V408.78H74.4027V407.22H75.9636ZM74.4027 438.439V440H72.8417V438.439H74.4027ZM75.9636 438.439V440H74.4027V438.439H75.9636ZM75.9636 436.878V438.439H74.4027V436.878H75.9636ZM75.9636 435.317V436.878H74.4027V435.317H75.9636ZM75.9636 433.756V435.317H74.4027V433.756H75.9636ZM75.9636 432.195V433.756H74.4027V432.195H75.9636ZM74.4027 432.195V433.756H72.8417V432.195H74.4027ZM74.4027 433.756V435.317H72.8417V433.756H74.4027ZM74.4027 435.317V436.878H72.8417V435.317H74.4027ZM74.4027 436.878V438.439H72.8417V436.878H74.4027ZM83.7685 413.463V415.024H82.2075V413.463H83.7685ZM83.7685 411.902V413.463H82.2075V411.902H83.7685ZM83.7685 410.341V411.902H82.2075V410.341H83.7685ZM82.2075 408.78V410.341H80.6466V408.78H82.2075ZM80.6466 407.22V408.78H79.0856V407.22H80.6466ZM79.0856 407.22V408.78H77.5246V407.22H79.0856ZM77.5246 407.22V408.78H75.9636V407.22H77.5246ZM77.5246 400.976V402.537H75.9636V400.976H77.5246ZM79.0856 400.976V402.537H77.5246V400.976H79.0856ZM80.6466 400.976V402.537H79.0856V400.976H80.6466ZM82.2075 400.976V402.537H80.6466V400.976H82.2075ZM82.2075 402.537V404.098H80.6466V402.537H82.2075ZM82.2075 404.098V405.659H80.6466V404.098H82.2075ZM82.2075 405.659V407.22H80.6466V405.659H82.2075ZM80.6466 405.659V407.22H79.0856V405.659H80.6466ZM80.6466 404.098V405.659H79.0856V404.098H80.6466ZM79.0856 404.098V405.659H77.5246V404.098H79.0856ZM77.5246 404.098V405.659H75.9636V404.098H77.5246ZM77.5246 402.537V404.098H75.9636V402.537H77.5246ZM79.0856 402.537V404.098H77.5246V402.537H79.0856ZM80.6466 402.537V404.098H79.0856V402.537H80.6466ZM77.5246 405.659V407.22H75.9636V405.659H77.5246ZM79.0856 405.659V407.22H77.5246V405.659H79.0856ZM82.2075 407.22V408.78H80.6466V407.22H82.2075ZM83.7685 408.78V410.341H82.2075V408.78H83.7685ZM83.7685 407.22V408.78H82.2075V407.22H83.7685ZM83.7685 405.659V407.22H82.2075V405.659H83.7685ZM83.7685 404.098V405.659H82.2075V404.098H83.7685ZM83.7685 402.537V404.098H82.2075V402.537H83.7685ZM83.7685 400.976V402.537H82.2075V400.976H83.7685ZM83.7685 415.024V416.585H82.2075V415.024H83.7685ZM83.7685 416.585V418.146H82.2075V416.585H83.7685ZM83.7685 418.146V419.707H82.2075V418.146H83.7685ZM83.7685 419.707V421.268H82.2075V419.707H83.7685ZM83.7685 421.268V422.829H82.2075V421.268H83.7685ZM83.7685 422.829V424.39H82.2075V422.829H83.7685ZM83.7685 425.951V427.512H82.2075V425.951H83.7685ZM83.7685 424.39V425.951H82.2075V424.39H83.7685ZM83.7685 427.512V429.073H82.2075V427.512H83.7685ZM83.7685 429.073V430.634H82.2075V429.073H83.7685ZM77.5246 432.195V433.756H75.9636V432.195H77.5246ZM79.0856 432.195V433.756H77.5246V432.195H79.0856ZM80.6466 432.195V433.756H79.0856V432.195H80.6466ZM82.2075 430.634V432.195H80.6466V430.634H82.2075ZM83.7685 430.634V432.195H82.2075V430.634H83.7685ZM83.7685 432.195V433.756H82.2075V432.195H83.7685ZM82.2075 432.195V433.756H80.6466V432.195H82.2075ZM83.7685 433.756V435.317H82.2075V433.756H83.7685ZM83.7685 435.317V436.878H82.2075V435.317H83.7685ZM83.7685 436.878V438.439H82.2075V436.878H83.7685ZM83.7685 438.439V440H82.2075V438.439H83.7685ZM82.2075 438.439V440H80.6466V438.439H82.2075ZM82.2075 436.878V438.439H80.6466V436.878H82.2075ZM80.6466 436.878V438.439H79.0856V436.878H80.6466ZM79.0856 438.439V440H77.5246V438.439H79.0856ZM77.5246 438.439V440H75.9636V438.439H77.5246ZM80.6466 438.439V440H79.0856V438.439H80.6466ZM79.0856 436.878V438.439H77.5246V436.878H79.0856ZM77.5246 436.878V438.439H75.9636V436.878H77.5246ZM77.5246 435.317V436.878H75.9636V435.317H77.5246ZM79.0856 435.317V436.878H77.5246V435.317H79.0856ZM80.6466 435.317V436.878H79.0856V435.317H80.6466ZM82.2075 435.317V436.878H80.6466V435.317H82.2075ZM82.2075 433.756V435.317H80.6466V433.756H82.2075ZM80.6466 433.756V435.317H79.0856V433.756H80.6466ZM79.0856 433.756V435.317H77.5246V433.756H79.0856ZM77.5246 433.756V435.317H75.9636V433.756H77.5246ZM85.3295 402.537V404.098H83.7685V402.537H85.3295ZM86.8905 402.537V404.098H85.3295V402.537H86.8905ZM86.8905 404.098V405.659H85.3295V404.098H86.8905ZM88.4514 404.098V405.659H86.8905V404.098H88.4514ZM88.4514 405.659V407.22H86.8905V405.659H88.4514ZM88.4514 407.22V408.78H86.8905V407.22H88.4514ZM90.0124 407.22V408.78H88.4514V407.22H90.0124ZM90.0124 408.78V410.341H88.4514V408.78H90.0124ZM90.0124 410.341V411.902H88.4514V410.341H90.0124ZM90.0124 411.902V413.463H88.4514V411.902H90.0124ZM90.0124 413.463V415.024H88.4514V413.463H90.0124ZM90.0124 415.024V416.585H88.4514V415.024H90.0124ZM90.0124 416.585V418.146H88.4514V416.585H90.0124ZM88.4514 418.146V419.707H86.8905V418.146H88.4514ZM86.8905 419.707V421.268H85.3295V419.707H86.8905ZM88.4514 421.268V422.829H86.8905V421.268H88.4514ZM90.0124 422.829V424.39H88.4514V422.829H90.0124ZM85.3295 436.878V438.439H83.7685V436.878H85.3295ZM86.8905 436.878V438.439H85.3295V436.878H86.8905ZM88.4514 435.317V436.878H86.8905V435.317H88.4514ZM90.0124 432.195V433.756H88.4514V432.195H90.0124ZM86.8905 435.317V436.878H85.3295V435.317H86.8905ZM86.8905 433.756V435.317H85.3295V433.756H86.8905ZM88.4514 433.756V435.317H86.8905V433.756H88.4514ZM90.0124 430.634V432.195H88.4514V430.634H90.0124ZM90.0124 429.073V430.634H88.4514V429.073H90.0124ZM90.0124 427.512V429.073H88.4514V427.512H90.0124ZM90.0124 425.951V427.512H88.4514V425.951H90.0124ZM90.0124 424.39V425.951H88.4514V424.39H90.0124ZM85.3295 421.268V422.829H83.7685V421.268H85.3295ZM86.8905 421.268V422.829H85.3295V421.268H86.8905ZM86.8905 422.829V424.39H85.3295V422.829H86.8905ZM85.3295 422.829V424.39H83.7685V422.829H85.3295ZM88.4514 422.829V424.39H86.8905V422.829H88.4514ZM88.4514 424.39V425.951H86.8905V424.39H88.4514ZM88.4514 425.951V427.512H86.8905V425.951H88.4514ZM88.4514 427.512V429.073H86.8905V427.512H88.4514ZM88.4514 429.073V430.634H86.8905V429.073H88.4514ZM88.4514 430.634V432.195H86.8905V430.634H88.4514ZM88.4514 432.195V433.756H86.8905V432.195H88.4514ZM86.8905 432.195V433.756H85.3295V432.195H86.8905ZM86.8905 430.634V432.195H85.3295V430.634H86.8905ZM86.8905 429.073V430.634H85.3295V429.073H86.8905ZM86.8905 427.512V429.073H85.3295V427.512H86.8905ZM86.8905 425.951V427.512H85.3295V425.951H86.8905ZM86.8905 424.39V425.951H85.3295V424.39H86.8905ZM85.3295 424.39V425.951H83.7685V424.39H85.3295ZM85.3295 425.951V427.512H83.7685V425.951H85.3295ZM85.3295 427.512V429.073H83.7685V427.512H85.3295ZM85.3295 429.073V430.634H83.7685V429.073H85.3295ZM85.3295 430.634V432.195H83.7685V430.634H85.3295ZM85.3295 432.195V433.756H83.7685V432.195H85.3295ZM85.3295 433.756V435.317H83.7685V433.756H85.3295ZM85.3295 435.317V436.878H83.7685V435.317H85.3295ZM85.3295 404.098V405.659H83.7685V404.098H85.3295ZM85.3295 405.659V407.22H83.7685V405.659H85.3295ZM85.3295 407.22V408.78H83.7685V407.22H85.3295ZM85.3295 408.78V410.341H83.7685V408.78H85.3295ZM85.3295 410.341V411.902H83.7685V410.341H85.3295ZM85.3295 411.902V413.463H83.7685V411.902H85.3295ZM85.3295 413.463V415.024H83.7685V413.463H85.3295ZM85.3295 415.024V416.585H83.7685V415.024H85.3295ZM85.3295 416.585V418.146H83.7685V416.585H85.3295ZM85.3295 418.146V419.707H83.7685V418.146H85.3295ZM85.3295 419.707V421.268H83.7685V419.707H85.3295ZM86.8905 418.146V419.707H85.3295V418.146H86.8905ZM86.8905 416.585V418.146H85.3295V416.585H86.8905ZM86.8905 415.024V416.585H85.3295V415.024H86.8905ZM86.8905 413.463V415.024H85.3295V413.463H86.8905ZM86.8905 411.902V413.463H85.3295V411.902H86.8905ZM86.8905 410.341V411.902H85.3295V410.341H86.8905ZM86.8905 408.78V410.341H85.3295V408.78H86.8905ZM86.8905 407.22V408.78H85.3295V407.22H86.8905ZM86.8905 405.659V407.22H85.3295V405.659H86.8905ZM88.4514 408.78V410.341H86.8905V408.78H88.4514ZM88.4514 410.341V411.902H86.8905V410.341H88.4514ZM88.4514 411.902V413.463H86.8905V411.902H88.4514ZM88.4514 413.463V415.024H86.8905V413.463H88.4514ZM88.4514 415.024V416.585H86.8905V415.024H88.4514ZM88.4514 416.585V418.146H86.8905V416.585H88.4514ZM90.0124 418.146V419.707H88.4514V418.146H90.0124ZM90.0124 419.707V421.268H88.4514V419.707H90.0124ZM90.0124 421.268V422.829H88.4514V421.268H90.0124ZM88.4514 419.707V421.268H86.8905V419.707H88.4514ZM113.458 419.707V421.268H111.897V419.707H113.458ZM115.019 419.707V421.268H113.458V419.707H115.019ZM116.579 419.707V421.268H115.019V419.707H116.579ZM118.14 419.707V421.268H116.579V419.707H118.14ZM119.701 419.707V421.268H118.14V419.707H119.701ZM119.701 418.146V419.707H118.14V418.146H119.701ZM119.701 416.585V418.146H118.14V416.585H119.701ZM118.14 416.585V418.146H116.579V416.585H118.14ZM116.579 416.585V418.146H115.019V416.585H116.579ZM115.019 416.585V418.146H113.458V416.585H115.019ZM115.019 418.146V419.707H113.458V418.146H115.019ZM113.458 418.146V419.707H111.897V418.146H113.458ZM116.579 418.146V419.707H115.019V418.146H116.579ZM118.14 418.146V419.707H116.579V418.146H118.14ZM113.458 416.585V418.146H111.897V416.585H113.458ZM111.897 416.585V418.146H110.336V416.585H111.897ZM111.897 415.024V416.585H110.336V415.024H111.897ZM113.458 415.024V416.585H111.897V415.024H113.458ZM115.019 415.024V416.585H113.458V415.024H115.019ZM116.579 415.024V416.585H115.019V415.024H116.579ZM118.14 415.024V416.585H116.579V415.024H118.14ZM118.14 413.463V415.024H116.579V413.463H118.14ZM116.579 413.463V415.024H115.019V413.463H116.579ZM115.019 413.463V415.024H113.458V413.463H115.019ZM113.458 413.463V415.024H111.897V413.463H113.458ZM111.897 413.463V415.024H110.336V413.463H111.897ZM115.019 411.902V413.463H113.458V411.902H115.019ZM116.579 411.902V413.463H115.019V411.902H116.579ZM113.458 411.902V413.463H111.897V411.902H113.458ZM113.458 410.341V411.902H111.897V410.341H113.458ZM111.897 410.341V411.902H110.336V410.341H111.897ZM111.897 411.902V413.463H110.336V411.902H111.897ZM110.336 411.902V413.463H108.775V411.902H110.336ZM110.336 410.341V411.902H108.775V410.341H110.336ZM110.336 413.463V415.024H108.775V413.463H110.336ZM108.775 413.463V415.024H107.214V413.463H108.775ZM108.775 415.024V416.585H107.214V415.024H108.775ZM110.336 415.024V416.585H108.775V415.024H110.336ZM107.214 415.024V416.585H105.653V415.024H107.214ZM107.214 413.463V415.024H105.653V413.463H107.214ZM107.214 411.902V413.463H105.653V411.902H107.214ZM107.214 410.341V411.902H105.653V410.341H107.214ZM108.775 410.341V411.902H107.214V410.341H108.775ZM108.775 411.902V413.463H107.214V411.902H108.775ZM105.653 410.341V411.902H104.092V410.341H105.653ZM104.092 410.341V411.902H102.531V410.341H104.092ZM102.531 410.341V411.902H100.97V410.341H102.531ZM102.531 411.902V413.463H100.97V411.902H102.531ZM102.531 413.463V415.024H100.97V413.463H102.531ZM102.531 415.024V416.585H100.97V415.024H102.531ZM104.092 415.024V416.585H102.531V415.024H104.092ZM105.653 415.024V416.585H104.092V415.024H105.653ZM105.653 413.463V415.024H104.092V413.463H105.653ZM105.653 411.902V413.463H104.092V411.902H105.653ZM104.092 411.902V413.463H102.531V411.902H104.092ZM104.092 413.463V415.024H102.531V413.463H104.092ZM100.97 413.463V415.024H99.4088V413.463H100.97ZM100.97 411.902V413.463H99.4088V411.902H100.97ZM99.4088 411.902V413.463H97.8478V411.902H99.4088ZM99.4088 413.463V415.024H97.8478V413.463H99.4088ZM97.8478 413.463V415.024H96.2868V413.463H97.8478ZM97.8478 415.024V416.585H96.2868V415.024H97.8478ZM97.8478 416.585V418.146H96.2868V416.585H97.8478ZM99.4088 416.585V418.146H97.8478V416.585H99.4088ZM99.4088 415.024V416.585H97.8478V415.024H99.4088ZM100.97 415.024V416.585H99.4088V415.024H100.97ZM100.97 416.585V418.146H99.4088V416.585H100.97ZM102.531 416.585V418.146H100.97V416.585H102.531ZM104.092 416.585V418.146H102.531V416.585H104.092ZM96.2868 416.585V418.146H94.7258V416.585H96.2868ZM96.2868 418.146V419.707H94.7258V418.146H96.2868ZM96.2868 419.707V421.268H94.7258V419.707H96.2868ZM96.2868 421.268V422.829H94.7258V421.268H96.2868ZM96.2868 422.829V424.39H94.7258V422.829H96.2868ZM96.2868 424.39V425.951H94.7258V424.39H96.2868ZM96.2868 425.951V427.512H94.7258V425.951H96.2868ZM96.2868 427.512V429.073H94.7258V427.512H96.2868ZM96.2868 429.073V430.634H94.7258V429.073H96.2868ZM96.2868 430.634V432.195H94.7258V430.634H96.2868ZM97.8478 430.634V432.195H96.2868V430.634H97.8478ZM97.8478 432.195V433.756H96.2868V432.195H97.8478ZM96.2868 432.195V433.756H94.7258V432.195H96.2868ZM99.4088 432.195V433.756H97.8478V432.195H99.4088ZM100.97 432.195V433.756H99.4088V432.195H100.97ZM102.531 432.195V433.756H100.97V432.195H102.531ZM104.092 432.195V433.756H102.531V432.195H104.092ZM102.531 430.634V432.195H100.97V430.634H102.531ZM102.531 429.073V430.634H100.97V429.073H102.531ZM102.531 427.512V429.073H100.97V427.512H102.531ZM102.531 425.951V427.512H100.97V425.951H102.531ZM102.531 424.39V425.951H100.97V424.39H102.531ZM102.531 422.829V424.39H100.97V422.829H102.531ZM102.531 421.268V422.829H100.97V421.268H102.531ZM102.531 419.707V421.268H100.97V419.707H102.531ZM102.531 418.146V419.707H100.97V418.146H102.531ZM100.97 418.146V419.707H99.4088V418.146H100.97ZM99.4088 418.146V419.707H97.8478V418.146H99.4088ZM97.8478 418.146V419.707H96.2868V418.146H97.8478ZM97.8478 419.707V421.268H96.2868V419.707H97.8478ZM97.8478 421.268V422.829H96.2868V421.268H97.8478ZM97.8478 422.829V424.39H96.2868V422.829H97.8478ZM97.8478 424.39V425.951H96.2868V424.39H97.8478ZM97.8478 425.951V427.512H96.2868V425.951H97.8478ZM97.8478 427.512V429.073H96.2868V427.512H97.8478ZM97.8478 429.073V430.634H96.2868V429.073H97.8478ZM99.4088 430.634V432.195H97.8478V430.634H99.4088ZM100.97 430.634V432.195H99.4088V430.634H100.97ZM100.97 429.073V430.634H99.4088V429.073H100.97ZM100.97 427.512V429.073H99.4088V427.512H100.97ZM100.97 425.951V427.512H99.4088V425.951H100.97ZM100.97 424.39V425.951H99.4088V424.39H100.97ZM99.4088 424.39V425.951H97.8478V424.39H99.4088ZM99.4088 422.829V424.39H97.8478V422.829H99.4088ZM99.4088 421.268V422.829H97.8478V421.268H99.4088ZM99.4088 419.707V421.268H97.8478V419.707H99.4088ZM100.97 419.707V421.268H99.4088V419.707H100.97ZM100.97 421.268V422.829H99.4088V421.268H100.97ZM100.97 422.829V424.39H99.4088V422.829H100.97ZM99.4088 427.512V429.073H97.8478V427.512H99.4088ZM99.4088 429.073V430.634H97.8478V429.073H99.4088ZM99.4088 425.951V427.512H97.8478V425.951H99.4088ZM113.458 430.634V432.195H111.897V430.634H113.458ZM115.019 430.634V432.195H113.458V430.634H115.019ZM116.579 430.634V432.195H115.019V430.634H116.579ZM118.14 430.634V432.195H116.579V430.634H118.14ZM119.701 430.634V432.195H118.14V430.634H119.701ZM119.701 432.195V433.756H118.14V432.195H119.701ZM118.14 432.195V433.756H116.579V432.195H118.14ZM116.579 432.195V433.756H115.019V432.195H116.579ZM115.019 432.195V433.756H113.458V432.195H115.019ZM113.458 432.195V433.756H111.897V432.195H113.458ZM111.897 432.195V433.756H110.336V432.195H111.897ZM111.897 433.756V435.317H110.336V433.756H111.897ZM113.458 433.756V435.317H111.897V433.756H113.458ZM115.019 433.756V435.317H113.458V433.756H115.019ZM116.579 433.756V435.317H115.019V433.756H116.579ZM116.579 435.317V436.878H115.019V435.317H116.579ZM118.14 435.317V436.878H116.579V435.317H118.14ZM118.14 433.756V435.317H116.579V433.756H118.14ZM116.579 436.878V438.439H115.019V436.878H116.579ZM115.019 436.878V438.439H113.458V436.878H115.019ZM115.019 435.317V436.878H113.458V435.317H115.019ZM113.458 435.317V436.878H111.897V435.317H113.458ZM113.458 436.878V438.439H111.897V436.878H113.458ZM113.458 438.439V440H111.897V438.439H113.458ZM111.897 438.439V440H110.336V438.439H111.897ZM110.336 438.439V440H108.775V438.439H110.336ZM108.775 438.439V440H107.214V438.439H108.775ZM107.214 438.439V440H105.653V438.439H107.214ZM105.653 438.439V440H104.092V438.439H105.653ZM104.092 438.439V440H102.531V438.439H104.092ZM102.531 438.439V440H100.97V438.439H102.531ZM104.092 436.878V438.439H102.531V436.878H104.092ZM105.653 436.878V438.439H104.092V436.878H105.653ZM107.214 436.878V438.439H105.653V436.878H107.214ZM108.775 436.878V438.439H107.214V436.878H108.775ZM110.336 436.878V438.439H108.775V436.878H110.336ZM111.897 436.878V438.439H110.336V436.878H111.897ZM111.897 435.317V436.878H110.336V435.317H111.897ZM110.336 435.317V436.878H108.775V435.317H110.336ZM108.775 435.317V436.878H107.214V435.317H108.775ZM107.214 435.317V436.878H105.653V435.317H107.214ZM105.653 435.317V436.878H104.092V435.317H105.653ZM104.092 435.317V436.878H102.531V435.317H104.092ZM102.531 436.878V438.439H100.97V436.878H102.531ZM100.97 436.878V438.439H99.4088V436.878H100.97ZM99.4088 436.878V438.439H97.8478V436.878H99.4088ZM99.4088 435.317V436.878H97.8478V435.317H99.4088ZM97.8478 435.317V436.878H96.2868V435.317H97.8478ZM97.8478 433.756V435.317H96.2868V433.756H97.8478ZM99.4088 433.756V435.317H97.8478V433.756H99.4088ZM100.97 433.756V435.317H99.4088V433.756H100.97ZM102.531 433.756V435.317H100.97V433.756H102.531ZM104.092 433.756V435.317H102.531V433.756H104.092ZM105.653 433.756V435.317H104.092V433.756H105.653ZM107.214 433.756V435.317H105.653V433.756H107.214ZM108.775 433.756V435.317H107.214V433.756H108.775ZM110.336 433.756V435.317H108.775V433.756H110.336ZM102.531 435.317V436.878H100.97V435.317H102.531ZM100.97 435.317V436.878H99.4088V435.317H100.97ZM119.701 421.268V422.829H118.14V421.268H119.701ZM118.14 421.268V422.829H116.579V421.268H118.14ZM116.579 421.268V422.829H115.019V421.268H116.579ZM115.019 421.268V422.829H113.458V421.268H115.019ZM113.458 421.268V422.829H111.897V421.268H113.458ZM119.701 422.829V424.39H118.14V422.829H119.701ZM116.579 422.829V424.39H115.019V422.829H116.579ZM115.019 422.829V424.39H113.458V422.829H115.019ZM111.897 422.829V424.39H110.336V422.829H111.897ZM110.336 422.829V424.39H108.775V422.829H110.336ZM108.775 422.829V424.39H107.214V422.829H108.775ZM107.214 422.829V424.39H105.653V422.829H107.214ZM105.653 422.829V424.39H104.092V422.829H105.653ZM104.092 422.829V424.39H102.531V422.829H104.092ZM113.458 422.829V424.39H111.897V422.829H113.458ZM118.14 422.829V424.39H116.579V422.829H118.14ZM119.701 424.39V425.951H118.14V424.39H119.701ZM118.14 424.39V425.951H116.579V424.39H118.14ZM116.579 424.39V425.951H115.019V424.39H116.579ZM115.019 424.39V425.951H113.458V424.39H115.019ZM113.458 424.39V425.951H111.897V424.39H113.458ZM111.897 424.39V425.951H110.336V424.39H111.897ZM110.336 424.39V425.951H108.775V424.39H110.336ZM108.775 424.39V425.951H107.214V424.39H108.775ZM107.214 424.39V425.951H105.653V424.39H107.214ZM105.653 424.39V425.951H104.092V424.39H105.653ZM104.092 424.39V425.951H102.531V424.39H104.092ZM104.092 425.951V427.512H102.531V425.951H104.092ZM105.653 425.951V427.512H104.092V425.951H105.653ZM107.214 425.951V427.512H105.653V425.951H107.214ZM110.336 425.951V427.512H108.775V425.951H110.336ZM111.897 425.951V427.512H110.336V425.951H111.897ZM113.458 425.951V427.512H111.897V425.951H113.458ZM115.019 425.951V427.512H113.458V425.951H115.019ZM116.579 425.951V427.512H115.019V425.951H116.579ZM118.14 425.951V427.512H116.579V425.951H118.14ZM119.701 425.951V427.512H118.14V425.951H119.701ZM108.775 425.951V427.512H107.214V425.951H108.775ZM146.265 416.585V418.146H144.704V416.585H146.265ZM144.704 416.585V418.146H143.144V416.585H144.704ZM143.144 416.585V418.146H141.583V416.585H143.144ZM141.583 416.585V418.146H140.022V416.585H141.583ZM140.022 415.024V416.585H138.461V415.024H140.022ZM141.583 415.024V416.585H140.022V415.024H141.583ZM143.144 415.024V416.585H141.583V415.024H143.144ZM144.704 415.024V416.585H143.144V415.024H144.704ZM146.265 415.024V416.585H144.704V415.024H146.265ZM146.265 413.463V415.024H144.704V413.463H146.265ZM144.704 413.463V415.024H143.144V413.463H144.704ZM143.144 413.463V415.024H141.583V413.463H143.144ZM141.583 413.463V415.024H140.022V413.463H141.583ZM140.022 413.463V415.024H138.461V413.463H140.022ZM143.144 411.902V413.463H141.583V411.902H143.144ZM144.704 411.902V413.463H143.144V411.902H144.704ZM141.583 411.902V413.463H140.022V411.902H141.583ZM141.583 410.341V411.902H140.022V410.341H141.583ZM140.022 410.341V411.902H138.461V410.341H140.022ZM140.022 411.902V413.463H138.461V411.902H140.022ZM138.461 411.902V413.463H136.9V411.902H138.461ZM138.461 410.341V411.902H136.9V410.341H138.461ZM138.461 413.463V415.024H136.9V413.463H138.461ZM136.9 413.463V415.024H135.339V413.463H136.9ZM136.9 415.024V416.585H135.339V415.024H136.9ZM138.461 415.024V416.585H136.9V415.024H138.461ZM135.339 415.024V416.585H133.778V415.024H135.339ZM135.339 413.463V415.024H133.778V413.463H135.339ZM135.339 411.902V413.463H133.778V411.902H135.339ZM135.339 410.341V411.902H133.778V410.341H135.339ZM136.9 410.341V411.902H135.339V410.341H136.9ZM136.9 411.902V413.463H135.339V411.902H136.9ZM133.778 410.341V411.902H132.217V410.341H133.778ZM132.217 410.341V411.902H130.656V410.341H132.217ZM130.656 410.341V411.902H129.095V410.341H130.656ZM130.656 411.902V413.463H129.095V411.902H130.656ZM130.656 413.463V415.024H129.095V413.463H130.656ZM130.656 415.024V416.585H129.095V415.024H130.656ZM132.217 415.024V416.585H130.656V415.024H132.217ZM133.778 415.024V416.585H132.217V415.024H133.778ZM133.778 413.463V415.024H132.217V413.463H133.778ZM133.778 411.902V413.463H132.217V411.902H133.778ZM132.217 411.902V413.463H130.656V411.902H132.217ZM132.217 413.463V415.024H130.656V413.463H132.217ZM129.095 413.463V415.024H127.534V413.463H129.095ZM129.095 411.902V413.463H127.534V411.902H129.095ZM127.534 411.902V413.463H125.973V411.902H127.534ZM127.534 413.463V415.024H125.973V413.463H127.534ZM125.973 413.463V415.024H124.412V413.463H125.973ZM125.973 415.024V416.585H124.412V415.024H125.973ZM125.973 416.585V418.146H124.412V416.585H125.973ZM127.534 416.585V418.146H125.973V416.585H127.534ZM127.534 415.024V416.585H125.973V415.024H127.534ZM129.095 415.024V416.585H127.534V415.024H129.095ZM129.095 416.585V418.146H127.534V416.585H129.095ZM130.656 416.585V418.146H129.095V416.585H130.656ZM132.217 416.585V418.146H130.656V416.585H132.217ZM124.412 416.585V418.146H122.851V416.585H124.412ZM124.412 418.146V419.707H122.851V418.146H124.412ZM124.412 419.707V421.268H122.851V419.707H124.412ZM124.412 430.634V432.195H122.851V430.634H124.412ZM125.973 430.634V432.195H124.412V430.634H125.973ZM125.973 432.195V433.756H124.412V432.195H125.973ZM124.412 432.195V433.756H122.851V432.195H124.412ZM127.534 432.195V433.756H125.973V432.195H127.534ZM129.095 432.195V433.756H127.534V432.195H129.095ZM130.656 432.195V433.756H129.095V432.195H130.656ZM132.217 432.195V433.756H130.656V432.195H132.217ZM130.656 430.634V432.195H129.095V430.634H130.656ZM130.656 419.707V421.268H129.095V419.707H130.656ZM130.656 418.146V419.707H129.095V418.146H130.656ZM129.095 418.146V419.707H127.534V418.146H129.095ZM127.534 418.146V419.707H125.973V418.146H127.534ZM125.973 418.146V419.707H124.412V418.146H125.973ZM125.973 419.707V421.268H124.412V419.707H125.973ZM127.534 430.634V432.195H125.973V430.634H127.534ZM129.095 430.634V432.195H127.534V430.634H129.095ZM127.534 419.707V421.268H125.973V419.707H127.534ZM129.095 419.707V421.268H127.534V419.707H129.095ZM141.583 429.073V430.634H140.022V429.073H141.583ZM141.583 430.634V432.195H140.022V430.634H141.583ZM143.144 430.634V432.195H141.583V430.634H143.144ZM144.704 430.634V432.195H143.144V430.634H144.704ZM146.265 430.634V432.195H144.704V430.634H146.265ZM147.826 430.634V432.195H146.265V430.634H147.826ZM147.826 429.073V430.634H146.265V429.073H147.826ZM146.265 429.073V430.634H144.704V429.073H146.265ZM144.704 429.073V430.634H143.144V429.073H144.704ZM143.144 429.073V430.634H141.583V429.073H143.144ZM147.826 432.195V433.756H146.265V432.195H147.826ZM146.265 432.195V433.756H144.704V432.195H146.265ZM144.704 432.195V433.756H143.144V432.195H144.704ZM143.144 432.195V433.756H141.583V432.195H143.144ZM141.583 432.195V433.756H140.022V432.195H141.583ZM140.022 432.195V433.756H138.461V432.195H140.022ZM140.022 433.756V435.317H138.461V433.756H140.022ZM141.583 433.756V435.317H140.022V433.756H141.583ZM143.144 433.756V435.317H141.583V433.756H143.144ZM144.704 433.756V435.317H143.144V433.756H144.704ZM144.704 435.317V436.878H143.144V435.317H144.704ZM146.265 435.317V436.878H144.704V435.317H146.265ZM146.265 433.756V435.317H144.704V433.756H146.265ZM144.704 436.878V438.439H143.144V436.878H144.704ZM143.144 436.878V438.439H141.583V436.878H143.144ZM143.144 435.317V436.878H141.583V435.317H143.144ZM141.583 435.317V436.878H140.022V435.317H141.583ZM141.583 436.878V438.439H140.022V436.878H141.583ZM141.583 438.439V440H140.022V438.439H141.583ZM140.022 438.439V440H138.461V438.439H140.022ZM138.461 438.439V440H136.9V438.439H138.461ZM136.9 438.439V440H135.339V438.439H136.9ZM135.339 438.439V440H133.778V438.439H135.339ZM133.778 438.439V440H132.217V438.439H133.778ZM132.217 438.439V440H130.656V438.439H132.217ZM130.656 438.439V440H129.095V438.439H130.656ZM132.217 436.878V438.439H130.656V436.878H132.217ZM133.778 436.878V438.439H132.217V436.878H133.778ZM135.339 436.878V438.439H133.778V436.878H135.339ZM136.9 436.878V438.439H135.339V436.878H136.9ZM138.461 436.878V438.439H136.9V436.878H138.461ZM140.022 436.878V438.439H138.461V436.878H140.022ZM140.022 435.317V436.878H138.461V435.317H140.022ZM138.461 435.317V436.878H136.9V435.317H138.461ZM136.9 435.317V436.878H135.339V435.317H136.9ZM135.339 435.317V436.878H133.778V435.317H135.339ZM133.778 435.317V436.878H132.217V435.317H133.778ZM132.217 435.317V436.878H130.656V435.317H132.217ZM130.656 436.878V438.439H129.095V436.878H130.656ZM129.095 436.878V438.439H127.534V436.878H129.095ZM127.534 436.878V438.439H125.973V436.878H127.534ZM127.534 435.317V436.878H125.973V435.317H127.534ZM125.973 435.317V436.878H124.412V435.317H125.973ZM125.973 433.756V435.317H124.412V433.756H125.973ZM127.534 433.756V435.317H125.973V433.756H127.534ZM129.095 433.756V435.317H127.534V433.756H129.095ZM130.656 433.756V435.317H129.095V433.756H130.656ZM132.217 433.756V435.317H130.656V433.756H132.217ZM133.778 433.756V435.317H132.217V433.756H133.778ZM135.339 433.756V435.317H133.778V433.756H135.339ZM136.9 433.756V435.317H135.339V433.756H136.9ZM138.461 433.756V435.317H136.9V433.756H138.461ZM130.656 435.317V436.878H129.095V435.317H130.656ZM129.095 435.317V436.878H127.534V435.317H129.095ZM144.704 425.951V427.512H143.144V425.951H144.704ZM147.826 427.512V429.073H146.265V427.512H147.826ZM146.265 427.512V429.073H144.704V427.512H146.265ZM144.704 427.512V429.073H143.144V427.512H144.704ZM143.144 427.512V429.073H141.583V427.512H143.144ZM143.144 425.951V427.512H141.583V425.951H143.144ZM141.583 425.951V427.512H140.022V425.951H141.583ZM141.583 427.512V429.073H140.022V427.512H141.583ZM132.217 419.707V421.268H130.656V419.707H132.217ZM125.973 421.268V422.829H124.412V421.268H125.973ZM125.973 422.829V424.39H124.412V422.829H125.973ZM127.534 422.829V424.39H125.973V422.829H127.534ZM127.534 424.39V425.951H125.973V424.39H127.534ZM129.095 424.39V425.951H127.534V424.39H129.095ZM130.656 425.951V427.512H129.095V425.951H130.656ZM130.656 424.39V425.951H129.095V424.39H130.656ZM130.656 422.829V424.39H129.095V422.829H130.656ZM130.656 421.268V422.829H129.095V421.268H130.656ZM129.095 421.268V422.829H127.534V421.268H129.095ZM129.095 422.829V424.39H127.534V422.829H129.095ZM127.534 421.268V422.829H125.973V421.268H127.534ZM132.217 425.951V427.512H130.656V425.951H132.217ZM133.778 425.951V427.512H132.217V425.951H133.778ZM135.339 425.951V427.512H133.778V425.951H135.339ZM136.9 425.951V427.512H135.339V425.951H136.9ZM136.9 424.39V425.951H135.339V424.39H136.9ZM135.339 424.39V425.951H133.778V424.39H135.339ZM133.778 424.39V425.951H132.217V424.39H133.778ZM132.217 424.39V425.951H130.656V424.39H132.217ZM132.217 422.829V424.39H130.656V422.829H132.217ZM132.217 421.268V422.829H130.656V421.268H132.217ZM133.778 421.268V422.829H132.217V421.268H133.778ZM135.339 421.268V422.829H133.778V421.268H135.339ZM136.9 421.268V422.829H135.339V421.268H136.9ZM136.9 422.829V424.39H135.339V422.829H136.9ZM135.339 422.829V424.39H133.778V422.829H135.339ZM133.778 422.829V424.39H132.217V422.829H133.778ZM138.461 421.268V422.829H136.9V421.268H138.461ZM140.022 421.268V422.829H138.461V421.268H140.022ZM140.022 422.829V424.39H138.461V422.829H140.022ZM140.022 424.39V425.951H138.461V424.39H140.022ZM140.022 425.951V427.512H138.461V425.951H140.022ZM138.461 425.951V427.512H136.9V425.951H138.461ZM138.461 424.39V425.951H136.9V424.39H138.461ZM138.461 422.829V424.39H136.9V422.829H138.461ZM140.022 427.512V429.073H138.461V427.512H140.022ZM141.583 421.268V422.829H140.022V421.268H141.583ZM146.265 425.951V427.512H144.704V425.951H146.265ZM146.265 424.39V425.951H144.704V424.39H146.265ZM144.704 422.829V424.39H143.144V422.829H144.704ZM143.144 422.829V424.39H141.583V422.829H143.144ZM141.583 422.829V424.39H140.022V422.829H141.583ZM141.583 424.39V425.951H140.022V424.39H141.583ZM143.144 424.39V425.951H141.583V424.39H143.144ZM144.704 424.39V425.951H143.144V424.39H144.704ZM140.022 416.585V418.146H138.461V416.585H140.022ZM174.39 416.585V418.146H172.829V416.585H174.39ZM172.829 416.585V418.146H171.269V416.585H172.829ZM171.269 416.585V418.146H169.708V416.585H171.269ZM169.708 416.585V418.146H168.147V416.585H169.708ZM168.147 415.024V416.585H166.586V415.024H168.147ZM169.708 415.024V416.585H168.147V415.024H169.708ZM171.269 415.024V416.585H169.708V415.024H171.269ZM172.829 415.024V416.585H171.269V415.024H172.829ZM174.39 415.024V416.585H172.829V415.024H174.39ZM174.39 413.463V415.024H172.829V413.463H174.39ZM172.829 413.463V415.024H171.269V413.463H172.829ZM171.269 413.463V415.024H169.708V413.463H171.269ZM169.708 413.463V415.024H168.147V413.463H169.708ZM168.147 413.463V415.024H166.586V413.463H168.147ZM171.269 411.902V413.463H169.708V411.902H171.269ZM172.829 411.902V413.463H171.269V411.902H172.829ZM169.708 411.902V413.463H168.147V411.902H169.708ZM169.708 410.341V411.902H168.147V410.341H169.708ZM168.147 410.341V411.902H166.586V410.341H168.147ZM168.147 411.902V413.463H166.586V411.902H168.147ZM166.586 411.902V413.463H165.025V411.902H166.586ZM166.586 410.341V411.902H165.025V410.341H166.586ZM166.586 413.463V415.024H165.025V413.463H166.586ZM165.025 413.463V415.024H163.464V413.463H165.025ZM165.025 415.024V416.585H163.464V415.024H165.025ZM166.586 415.024V416.585H165.025V415.024H166.586ZM163.464 415.024V416.585H161.903V415.024H163.464ZM163.464 413.463V415.024H161.903V413.463H163.464ZM163.464 411.902V413.463H161.903V411.902H163.464ZM163.464 410.341V411.902H161.903V410.341H163.464ZM165.025 410.341V411.902H163.464V410.341H165.025ZM165.025 411.902V413.463H163.464V411.902H165.025ZM161.903 410.341V411.902H160.342V410.341H161.903ZM160.342 410.341V411.902H158.781V410.341H160.342ZM158.781 410.341V411.902H157.22V410.341H158.781ZM158.781 411.902V413.463H157.22V411.902H158.781ZM158.781 413.463V415.024H157.22V413.463H158.781ZM158.781 415.024V416.585H157.22V415.024H158.781ZM160.342 415.024V416.585H158.781V415.024H160.342ZM161.903 415.024V416.585H160.342V415.024H161.903ZM161.903 413.463V415.024H160.342V413.463H161.903ZM161.903 411.902V413.463H160.342V411.902H161.903ZM160.342 411.902V413.463H158.781V411.902H160.342ZM160.342 413.463V415.024H158.781V413.463H160.342ZM157.22 413.463V415.024H155.659V413.463H157.22ZM157.22 411.902V413.463H155.659V411.902H157.22ZM155.659 411.902V413.463H154.098V411.902H155.659ZM155.659 413.463V415.024H154.098V413.463H155.659ZM154.098 413.463V415.024H152.537V413.463H154.098ZM154.098 415.024V416.585H152.537V415.024H154.098ZM154.098 416.585V418.146H152.537V416.585H154.098ZM155.659 416.585V418.146H154.098V416.585H155.659ZM155.659 415.024V416.585H154.098V415.024H155.659ZM157.22 415.024V416.585H155.659V415.024H157.22ZM157.22 416.585V418.146H155.659V416.585H157.22ZM158.781 416.585V418.146H157.22V416.585H158.781ZM160.342 416.585V418.146H158.781V416.585H160.342ZM152.537 416.585V418.146H150.976V416.585H152.537ZM152.537 418.146V419.707H150.976V418.146H152.537ZM152.537 419.707V421.268H150.976V419.707H152.537ZM152.537 430.634V432.195H150.976V430.634H152.537ZM154.098 430.634V432.195H152.537V430.634H154.098ZM154.098 432.195V433.756H152.537V432.195H154.098ZM152.537 432.195V433.756H150.976V432.195H152.537ZM155.659 432.195V433.756H154.098V432.195H155.659ZM157.22 432.195V433.756H155.659V432.195H157.22ZM158.781 432.195V433.756H157.22V432.195H158.781ZM160.342 432.195V433.756H158.781V432.195H160.342ZM158.781 430.634V432.195H157.22V430.634H158.781ZM158.781 419.707V421.268H157.22V419.707H158.781ZM158.781 418.146V419.707H157.22V418.146H158.781ZM157.22 418.146V419.707H155.659V418.146H157.22ZM155.659 418.146V419.707H154.098V418.146H155.659ZM154.098 418.146V419.707H152.537V418.146H154.098ZM154.098 419.707V421.268H152.537V419.707H154.098ZM155.659 430.634V432.195H154.098V430.634H155.659ZM157.22 430.634V432.195H155.659V430.634H157.22ZM155.659 419.707V421.268H154.098V419.707H155.659ZM157.22 419.707V421.268H155.659V419.707H157.22ZM169.708 429.073V430.634H168.147V429.073H169.708ZM169.708 430.634V432.195H168.147V430.634H169.708ZM171.269 430.634V432.195H169.708V430.634H171.269ZM172.829 430.634V432.195H171.269V430.634H172.829ZM174.39 430.634V432.195H172.829V430.634H174.39ZM175.951 430.634V432.195H174.39V430.634H175.951ZM175.951 429.073V430.634H174.39V429.073H175.951ZM174.39 429.073V430.634H172.829V429.073H174.39ZM172.829 429.073V430.634H171.269V429.073H172.829ZM171.269 429.073V430.634H169.708V429.073H171.269ZM175.951 432.195V433.756H174.39V432.195H175.951ZM174.39 432.195V433.756H172.829V432.195H174.39ZM172.829 432.195V433.756H171.269V432.195H172.829ZM171.269 432.195V433.756H169.708V432.195H171.269ZM169.708 432.195V433.756H168.147V432.195H169.708ZM168.147 432.195V433.756H166.586V432.195H168.147ZM168.147 433.756V435.317H166.586V433.756H168.147ZM169.708 433.756V435.317H168.147V433.756H169.708ZM171.269 433.756V435.317H169.708V433.756H171.269ZM172.829 433.756V435.317H171.269V433.756H172.829ZM172.829 435.317V436.878H171.269V435.317H172.829ZM174.39 435.317V436.878H172.829V435.317H174.39ZM174.39 433.756V435.317H172.829V433.756H174.39ZM172.829 436.878V438.439H171.269V436.878H172.829ZM171.269 436.878V438.439H169.708V436.878H171.269ZM171.269 435.317V436.878H169.708V435.317H171.269ZM169.708 435.317V436.878H168.147V435.317H169.708ZM169.708 436.878V438.439H168.147V436.878H169.708ZM169.708 438.439V440H168.147V438.439H169.708ZM168.147 438.439V440H166.586V438.439H168.147ZM166.586 438.439V440H165.025V438.439H166.586ZM165.025 438.439V440H163.464V438.439H165.025ZM163.464 438.439V440H161.903V438.439H163.464ZM161.903 438.439V440H160.342V438.439H161.903ZM160.342 438.439V440H158.781V438.439H160.342ZM158.781 438.439V440H157.22V438.439H158.781ZM160.342 436.878V438.439H158.781V436.878H160.342ZM161.903 436.878V438.439H160.342V436.878H161.903ZM163.464 436.878V438.439H161.903V436.878H163.464ZM165.025 436.878V438.439H163.464V436.878H165.025ZM166.586 436.878V438.439H165.025V436.878H166.586ZM168.147 436.878V438.439H166.586V436.878H168.147ZM168.147 435.317V436.878H166.586V435.317H168.147ZM166.586 435.317V436.878H165.025V435.317H166.586ZM165.025 435.317V436.878H163.464V435.317H165.025ZM163.464 435.317V436.878H161.903V435.317H163.464ZM161.903 435.317V436.878H160.342V435.317H161.903ZM160.342 435.317V436.878H158.781V435.317H160.342ZM158.781 436.878V438.439H157.22V436.878H158.781ZM157.22 436.878V438.439H155.659V436.878H157.22ZM155.659 436.878V438.439H154.098V436.878H155.659ZM155.659 435.317V436.878H154.098V435.317H155.659ZM154.098 435.317V436.878H152.537V435.317H154.098ZM154.098 433.756V435.317H152.537V433.756H154.098ZM155.659 433.756V435.317H154.098V433.756H155.659ZM157.22 433.756V435.317H155.659V433.756H157.22ZM158.781 433.756V435.317H157.22V433.756H158.781ZM160.342 433.756V435.317H158.781V433.756H160.342ZM161.903 433.756V435.317H160.342V433.756H161.903ZM163.464 433.756V435.317H161.903V433.756H163.464ZM165.025 433.756V435.317H163.464V433.756H165.025ZM166.586 433.756V435.317H165.025V433.756H166.586ZM158.781 435.317V436.878H157.22V435.317H158.781ZM157.22 435.317V436.878H155.659V435.317H157.22ZM172.829 425.951V427.512H171.269V425.951H172.829ZM175.951 427.512V429.073H174.39V427.512H175.951ZM174.39 427.512V429.073H172.829V427.512H174.39ZM172.829 427.512V429.073H171.269V427.512H172.829ZM171.269 427.512V429.073H169.708V427.512H171.269ZM171.269 425.951V427.512H169.708V425.951H171.269ZM169.708 425.951V427.512H168.147V425.951H169.708ZM169.708 427.512V429.073H168.147V427.512H169.708ZM160.342 419.707V421.268H158.781V419.707H160.342ZM154.098 421.268V422.829H152.537V421.268H154.098ZM154.098 422.829V424.39H152.537V422.829H154.098ZM155.659 422.829V424.39H154.098V422.829H155.659ZM155.659 424.39V425.951H154.098V424.39H155.659ZM157.22 424.39V425.951H155.659V424.39H157.22ZM158.781 425.951V427.512H157.22V425.951H158.781ZM158.781 424.39V425.951H157.22V424.39H158.781ZM158.781 422.829V424.39H157.22V422.829H158.781ZM158.781 421.268V422.829H157.22V421.268H158.781ZM157.22 421.268V422.829H155.659V421.268H157.22ZM157.22 422.829V424.39H155.659V422.829H157.22ZM155.659 421.268V422.829H154.098V421.268H155.659ZM160.342 425.951V427.512H158.781V425.951H160.342ZM161.903 425.951V427.512H160.342V425.951H161.903ZM163.464 425.951V427.512H161.903V425.951H163.464ZM165.025 425.951V427.512H163.464V425.951H165.025ZM165.025 424.39V425.951H163.464V424.39H165.025ZM163.464 424.39V425.951H161.903V424.39H163.464ZM161.903 424.39V425.951H160.342V424.39H161.903ZM160.342 424.39V425.951H158.781V424.39H160.342ZM160.342 422.829V424.39H158.781V422.829H160.342ZM160.342 421.268V422.829H158.781V421.268H160.342ZM161.903 421.268V422.829H160.342V421.268H161.903ZM163.464 421.268V422.829H161.903V421.268H163.464ZM165.025 421.268V422.829H163.464V421.268H165.025ZM165.025 422.829V424.39H163.464V422.829H165.025ZM163.464 422.829V424.39H161.903V422.829H163.464ZM161.903 422.829V424.39H160.342V422.829H161.903ZM166.586 421.268V422.829H165.025V421.268H166.586ZM168.147 421.268V422.829H166.586V421.268H168.147ZM168.147 422.829V424.39H166.586V422.829H168.147ZM168.147 424.39V425.951H166.586V424.39H168.147ZM168.147 425.951V427.512H166.586V425.951H168.147ZM166.586 425.951V427.512H165.025V425.951H166.586ZM166.586 424.39V425.951H165.025V424.39H166.586ZM166.586 422.829V424.39H165.025V422.829H166.586ZM168.147 427.512V429.073H166.586V427.512H168.147ZM169.708 421.268V422.829H168.147V421.268H169.708ZM174.39 425.951V427.512H172.829V425.951H174.39ZM174.39 424.39V425.951H172.829V424.39H174.39ZM172.829 422.829V424.39H171.269V422.829H172.829ZM171.269 422.829V424.39H169.708V422.829H171.269ZM169.708 422.829V424.39H168.147V422.829H169.708ZM169.708 424.39V425.951H168.147V424.39H169.708ZM171.269 424.39V425.951H169.708V424.39H171.269ZM172.829 424.39V425.951H171.269V424.39H172.829ZM168.147 416.585V418.146H166.586V416.585H168.147ZM197.833 419.707V421.268H196.272V419.707H197.833ZM199.394 419.707V421.268H197.833V419.707H199.394ZM200.954 419.707V421.268H199.394V419.707H200.954ZM202.515 419.707V421.268H200.954V419.707H202.515ZM204.076 419.707V421.268H202.515V419.707H204.076ZM204.076 418.146V419.707H202.515V418.146H204.076ZM204.076 416.585V418.146H202.515V416.585H204.076ZM202.515 416.585V418.146H200.954V416.585H202.515ZM200.954 416.585V418.146H199.394V416.585H200.954ZM199.394 416.585V418.146H197.833V416.585H199.394ZM199.394 418.146V419.707H197.833V418.146H199.394ZM197.833 418.146V419.707H196.272V418.146H197.833ZM200.954 418.146V419.707H199.394V418.146H200.954ZM202.515 418.146V419.707H200.954V418.146H202.515ZM197.833 416.585V418.146H196.272V416.585H197.833ZM196.272 416.585V418.146H194.711V416.585H196.272ZM196.272 415.024V416.585H194.711V415.024H196.272ZM197.833 415.024V416.585H196.272V415.024H197.833ZM199.394 415.024V416.585H197.833V415.024H199.394ZM200.954 415.024V416.585H199.394V415.024H200.954ZM202.515 415.024V416.585H200.954V415.024H202.515ZM202.515 413.463V415.024H200.954V413.463H202.515ZM200.954 413.463V415.024H199.394V413.463H200.954ZM199.394 413.463V415.024H197.833V413.463H199.394ZM197.833 413.463V415.024H196.272V413.463H197.833ZM196.272 413.463V415.024H194.711V413.463H196.272ZM199.394 411.902V413.463H197.833V411.902H199.394ZM200.954 411.902V413.463H199.394V411.902H200.954ZM197.833 411.902V413.463H196.272V411.902H197.833ZM197.833 410.341V411.902H196.272V410.341H197.833ZM196.272 410.341V411.902H194.711V410.341H196.272ZM196.272 411.902V413.463H194.711V411.902H196.272ZM194.711 411.902V413.463H193.15V411.902H194.711ZM194.711 410.341V411.902H193.15V410.341H194.711ZM194.711 413.463V415.024H193.15V413.463H194.711ZM193.15 413.463V415.024H191.589V413.463H193.15ZM193.15 415.024V416.585H191.589V415.024H193.15ZM194.711 415.024V416.585H193.15V415.024H194.711ZM191.589 415.024V416.585H190.028V415.024H191.589ZM191.589 413.463V415.024H190.028V413.463H191.589ZM191.589 411.902V413.463H190.028V411.902H191.589ZM191.589 410.341V411.902H190.028V410.341H191.589ZM193.15 410.341V411.902H191.589V410.341H193.15ZM193.15 411.902V413.463H191.589V411.902H193.15ZM190.028 410.341V411.902H188.467V410.341H190.028ZM188.467 410.341V411.902H186.906V410.341H188.467ZM186.906 410.341V411.902H185.345V410.341H186.906ZM186.906 411.902V413.463H185.345V411.902H186.906ZM186.906 413.463V415.024H185.345V413.463H186.906ZM186.906 415.024V416.585H185.345V415.024H186.906ZM188.467 415.024V416.585H186.906V415.024H188.467ZM190.028 415.024V416.585H188.467V415.024H190.028ZM190.028 413.463V415.024H188.467V413.463H190.028ZM190.028 411.902V413.463H188.467V411.902H190.028ZM188.467 411.902V413.463H186.906V411.902H188.467ZM188.467 413.463V415.024H186.906V413.463H188.467ZM185.345 413.463V415.024H183.784V413.463H185.345ZM185.345 411.902V413.463H183.784V411.902H185.345ZM183.784 411.902V413.463H182.223V411.902H183.784ZM183.784 413.463V415.024H182.223V413.463H183.784ZM182.223 413.463V415.024H180.662V413.463H182.223ZM182.223 415.024V416.585H180.662V415.024H182.223ZM182.223 416.585V418.146H180.662V416.585H182.223ZM183.784 416.585V418.146H182.223V416.585H183.784ZM183.784 415.024V416.585H182.223V415.024H183.784ZM185.345 415.024V416.585H183.784V415.024H185.345ZM185.345 416.585V418.146H183.784V416.585H185.345ZM186.906 416.585V418.146H185.345V416.585H186.906ZM188.467 416.585V418.146H186.906V416.585H188.467ZM180.662 416.585V418.146H179.101V416.585H180.662ZM180.662 418.146V419.707H179.101V418.146H180.662ZM180.662 419.707V421.268H179.101V419.707H180.662ZM180.662 421.268V422.829H179.101V421.268H180.662ZM180.662 422.829V424.39H179.101V422.829H180.662ZM180.662 424.39V425.951H179.101V424.39H180.662ZM180.662 425.951V427.512H179.101V425.951H180.662ZM180.662 427.512V429.073H179.101V427.512H180.662ZM180.662 429.073V430.634H179.101V429.073H180.662ZM180.662 430.634V432.195H179.101V430.634H180.662ZM182.223 430.634V432.195H180.662V430.634H182.223ZM182.223 432.195V433.756H180.662V432.195H182.223ZM180.662 432.195V433.756H179.101V432.195H180.662ZM183.784 432.195V433.756H182.223V432.195H183.784ZM185.345 432.195V433.756H183.784V432.195H185.345ZM186.906 432.195V433.756H185.345V432.195H186.906ZM188.467 432.195V433.756H186.906V432.195H188.467ZM186.906 430.634V432.195H185.345V430.634H186.906ZM186.906 429.073V430.634H185.345V429.073H186.906ZM186.906 427.512V429.073H185.345V427.512H186.906ZM186.906 425.951V427.512H185.345V425.951H186.906ZM186.906 424.39V425.951H185.345V424.39H186.906ZM186.906 422.829V424.39H185.345V422.829H186.906ZM186.906 421.268V422.829H185.345V421.268H186.906ZM186.906 419.707V421.268H185.345V419.707H186.906ZM186.906 418.146V419.707H185.345V418.146H186.906ZM185.345 418.146V419.707H183.784V418.146H185.345ZM183.784 418.146V419.707H182.223V418.146H183.784ZM182.223 418.146V419.707H180.662V418.146H182.223ZM182.223 419.707V421.268H180.662V419.707H182.223ZM182.223 421.268V422.829H180.662V421.268H182.223ZM182.223 422.829V424.39H180.662V422.829H182.223ZM182.223 424.39V425.951H180.662V424.39H182.223ZM182.223 425.951V427.512H180.662V425.951H182.223ZM182.223 427.512V429.073H180.662V427.512H182.223ZM182.223 429.073V430.634H180.662V429.073H182.223ZM183.784 430.634V432.195H182.223V430.634H183.784ZM185.345 430.634V432.195H183.784V430.634H185.345ZM185.345 429.073V430.634H183.784V429.073H185.345ZM185.345 427.512V429.073H183.784V427.512H185.345ZM185.345 425.951V427.512H183.784V425.951H185.345ZM185.345 424.39V425.951H183.784V424.39H185.345ZM183.784 424.39V425.951H182.223V424.39H183.784ZM183.784 422.829V424.39H182.223V422.829H183.784ZM183.784 421.268V422.829H182.223V421.268H183.784ZM183.784 419.707V421.268H182.223V419.707H183.784ZM185.345 419.707V421.268H183.784V419.707H185.345ZM185.345 421.268V422.829H183.784V421.268H185.345ZM185.345 422.829V424.39H183.784V422.829H185.345ZM183.784 427.512V429.073H182.223V427.512H183.784ZM183.784 429.073V430.634H182.223V429.073H183.784ZM183.784 425.951V427.512H182.223V425.951H183.784ZM197.833 430.634V432.195H196.272V430.634H197.833ZM199.394 430.634V432.195H197.833V430.634H199.394ZM200.954 430.634V432.195H199.394V430.634H200.954ZM202.515 430.634V432.195H200.954V430.634H202.515ZM204.076 430.634V432.195H202.515V430.634H204.076ZM204.076 432.195V433.756H202.515V432.195H204.076ZM202.515 432.195V433.756H200.954V432.195H202.515ZM200.954 432.195V433.756H199.394V432.195H200.954ZM199.394 432.195V433.756H197.833V432.195H199.394ZM197.833 432.195V433.756H196.272V432.195H197.833ZM196.272 432.195V433.756H194.711V432.195H196.272ZM196.272 433.756V435.317H194.711V433.756H196.272ZM197.833 433.756V435.317H196.272V433.756H197.833ZM199.394 433.756V435.317H197.833V433.756H199.394ZM200.954 433.756V435.317H199.394V433.756H200.954ZM200.954 435.317V436.878H199.394V435.317H200.954ZM202.515 435.317V436.878H200.954V435.317H202.515ZM202.515 433.756V435.317H200.954V433.756H202.515ZM200.954 436.878V438.439H199.394V436.878H200.954ZM199.394 436.878V438.439H197.833V436.878H199.394ZM199.394 435.317V436.878H197.833V435.317H199.394ZM197.833 435.317V436.878H196.272V435.317H197.833ZM197.833 436.878V438.439H196.272V436.878H197.833ZM197.833 438.439V440H196.272V438.439H197.833ZM196.272 438.439V440H194.711V438.439H196.272ZM194.711 438.439V440H193.15V438.439H194.711ZM193.15 438.439V440H191.589V438.439H193.15ZM191.589 438.439V440H190.028V438.439H191.589ZM190.028 438.439V440H188.467V438.439H190.028ZM188.467 438.439V440H186.906V438.439H188.467ZM186.906 438.439V440H185.345V438.439H186.906ZM188.467 436.878V438.439H186.906V436.878H188.467ZM190.028 436.878V438.439H188.467V436.878H190.028ZM191.589 436.878V438.439H190.028V436.878H191.589ZM193.15 436.878V438.439H191.589V436.878H193.15ZM194.711 436.878V438.439H193.15V436.878H194.711ZM196.272 436.878V438.439H194.711V436.878H196.272ZM196.272 435.317V436.878H194.711V435.317H196.272ZM194.711 435.317V436.878H193.15V435.317H194.711ZM193.15 435.317V436.878H191.589V435.317H193.15ZM191.589 435.317V436.878H190.028V435.317H191.589ZM190.028 435.317V436.878H188.467V435.317H190.028ZM188.467 435.317V436.878H186.906V435.317H188.467ZM186.906 436.878V438.439H185.345V436.878H186.906ZM185.345 436.878V438.439H183.784V436.878H185.345ZM183.784 436.878V438.439H182.223V436.878H183.784ZM183.784 435.317V436.878H182.223V435.317H183.784ZM182.223 435.317V436.878H180.662V435.317H182.223ZM182.223 433.756V435.317H180.662V433.756H182.223ZM183.784 433.756V435.317H182.223V433.756H183.784ZM185.345 433.756V435.317H183.784V433.756H185.345ZM186.906 433.756V435.317H185.345V433.756H186.906ZM188.467 433.756V435.317H186.906V433.756H188.467ZM190.028 433.756V435.317H188.467V433.756H190.028ZM191.589 433.756V435.317H190.028V433.756H191.589ZM193.15 433.756V435.317H191.589V433.756H193.15ZM194.711 433.756V435.317H193.15V433.756H194.711ZM186.906 435.317V436.878H185.345V435.317H186.906ZM185.345 435.317V436.878H183.784V435.317H185.345ZM204.076 421.268V422.829H202.515V421.268H204.076ZM202.515 421.268V422.829H200.954V421.268H202.515ZM200.954 421.268V422.829H199.394V421.268H200.954ZM199.394 421.268V422.829H197.833V421.268H199.394ZM197.833 421.268V422.829H196.272V421.268H197.833ZM204.076 422.829V424.39H202.515V422.829H204.076ZM200.954 422.829V424.39H199.394V422.829H200.954ZM199.394 422.829V424.39H197.833V422.829H199.394ZM196.272 422.829V424.39H194.711V422.829H196.272ZM194.711 422.829V424.39H193.15V422.829H194.711ZM193.15 422.829V424.39H191.589V422.829H193.15ZM191.589 422.829V424.39H190.028V422.829H191.589ZM190.028 422.829V424.39H188.467V422.829H190.028ZM188.467 422.829V424.39H186.906V422.829H188.467ZM197.833 422.829V424.39H196.272V422.829H197.833ZM202.515 422.829V424.39H200.954V422.829H202.515ZM204.076 424.39V425.951H202.515V424.39H204.076ZM202.515 424.39V425.951H200.954V424.39H202.515ZM200.954 424.39V425.951H199.394V424.39H200.954ZM199.394 424.39V425.951H197.833V424.39H199.394ZM197.833 424.39V425.951H196.272V424.39H197.833ZM196.272 424.39V425.951H194.711V424.39H196.272ZM194.711 424.39V425.951H193.15V424.39H194.711ZM193.15 424.39V425.951H191.589V424.39H193.15ZM191.589 424.39V425.951H190.028V424.39H191.589ZM190.028 424.39V425.951H188.467V424.39H190.028ZM188.467 424.39V425.951H186.906V424.39H188.467ZM188.467 425.951V427.512H186.906V425.951H188.467ZM190.028 425.951V427.512H188.467V425.951H190.028ZM191.589 425.951V427.512H190.028V425.951H191.589ZM194.711 425.951V427.512H193.15V425.951H194.711ZM196.272 425.951V427.512H194.711V425.951H196.272ZM197.833 425.951V427.512H196.272V425.951H197.833ZM199.394 425.951V427.512H197.833V425.951H199.394ZM200.954 425.951V427.512H199.394V425.951H200.954ZM202.515 425.951V427.512H200.954V425.951H202.515ZM204.076 425.951V427.512H202.515V425.951H204.076ZM193.15 425.951V427.512H191.589V425.951H193.15ZM210.348 438.439V440H208.787V438.439H210.348ZM210.348 436.878V438.439H208.787V436.878H210.348ZM210.348 435.317V436.878H208.787V435.317H210.348ZM210.348 433.756V435.317H208.787V433.756H210.348ZM210.348 432.195V433.756H208.787V432.195H210.348ZM210.348 430.634V432.195H208.787V430.634H210.348ZM210.348 429.073V430.634H208.787V429.073H210.348ZM210.348 427.512V429.073H208.787V427.512H210.348ZM210.348 425.951V427.512H208.787V425.951H210.348ZM210.348 424.39V425.951H208.787V424.39H210.348ZM210.348 422.829V424.39H208.787V422.829H210.348ZM210.348 421.268V422.829H208.787V421.268H210.348ZM210.348 419.707V421.268H208.787V419.707H210.348ZM210.348 418.146V419.707H208.787V418.146H210.348ZM210.348 416.585V418.146H208.787V416.585H210.348ZM211.909 416.585V418.146H210.348V416.585H211.909ZM211.909 418.146V419.707H210.348V418.146H211.909ZM211.909 419.707V421.268H210.348V419.707H211.909ZM211.909 421.268V422.829H210.348V421.268H211.909ZM211.909 422.829V424.39H210.348V422.829H211.909ZM211.909 424.39V425.951H210.348V424.39H211.909ZM211.909 425.951V427.512H210.348V425.951H211.909ZM213.47 427.512V429.073H211.909V427.512H213.47ZM213.47 429.073V430.634H211.909V429.073H213.47ZM213.47 430.634V432.195H211.909V430.634H213.47ZM213.47 432.195V433.756H211.909V432.195H213.47ZM213.47 433.756V435.317H211.909V433.756H213.47ZM213.47 435.317V436.878H211.909V435.317H213.47ZM213.47 436.878V438.439H211.909V436.878H213.47ZM213.47 438.439V440H211.909V438.439H213.47ZM215.031 438.439V440H213.47V438.439H215.031ZM216.592 438.439V440H215.031V438.439H216.592ZM216.592 436.878V438.439H215.031V436.878H216.592ZM216.592 435.317V436.878H215.031V435.317H216.592ZM216.592 433.756V435.317H215.031V433.756H216.592ZM216.592 432.195V433.756H215.031V432.195H216.592ZM216.592 430.634V432.195H215.031V430.634H216.592ZM216.592 429.073V430.634H215.031V429.073H216.592ZM216.592 427.512V429.073H215.031V427.512H216.592ZM215.031 427.512V429.073H213.47V427.512H215.031ZM215.031 425.951V427.512H213.47V425.951H215.031ZM215.031 429.073V430.634H213.47V429.073H215.031ZM215.031 430.634V432.195H213.47V430.634H215.031ZM215.031 432.195V433.756H213.47V432.195H215.031ZM215.031 433.756V435.317H213.47V433.756H215.031ZM215.031 435.317V436.878H213.47V435.317H215.031ZM215.031 436.878V438.439H213.47V436.878H215.031ZM211.909 438.439V440H210.348V438.439H211.909ZM211.909 436.878V438.439H210.348V436.878H211.909ZM211.909 435.317V436.878H210.348V435.317H211.909ZM211.909 433.756V435.317H210.348V433.756H211.909ZM211.909 432.195V433.756H210.348V432.195H211.909ZM211.909 430.634V432.195H210.348V430.634H211.909ZM211.909 429.073V430.634H210.348V429.073H211.909ZM211.909 427.512V429.073H210.348V427.512H211.909ZM210.348 410.341V411.902H208.787V410.341H210.348ZM210.348 411.902V413.463H208.787V411.902H210.348ZM210.348 413.463V415.024H208.787V413.463H210.348ZM210.348 415.024V416.585H208.787V415.024H210.348ZM215.031 411.902V413.463H213.47V411.902H215.031ZM215.031 413.463V415.024H213.47V413.463H215.031ZM215.031 415.024V416.585H213.47V415.024H215.031ZM215.031 416.585V418.146H213.47V416.585H215.031ZM215.031 418.146V419.707H213.47V418.146H215.031ZM215.031 419.707V421.268H213.47V419.707H215.031ZM215.031 421.268V422.829H213.47V421.268H215.031ZM216.592 422.829V424.39H215.031V422.829H216.592ZM216.592 424.39V425.951H215.031V424.39H216.592ZM216.592 425.951V427.512H215.031V425.951H216.592ZM216.592 421.268V422.829H215.031V421.268H216.592ZM216.592 419.707V421.268H215.031V419.707H216.592ZM216.592 418.146V419.707H215.031V418.146H216.592ZM216.592 416.585V418.146H215.031V416.585H216.592ZM216.592 415.024V416.585H215.031V415.024H216.592ZM216.592 413.463V415.024H215.031V413.463H216.592ZM216.592 411.902V413.463H215.031V411.902H216.592ZM216.592 410.341V411.902H215.031V410.341H216.592ZM215.031 410.341V411.902H213.47V410.341H215.031ZM213.47 410.341V411.902H211.909V410.341H213.47ZM213.47 411.902V413.463H211.909V411.902H213.47ZM211.909 413.463V415.024H210.348V413.463H211.909ZM211.909 415.024V416.585H210.348V415.024H211.909ZM211.909 411.902V413.463H210.348V411.902H211.909ZM211.909 410.341V411.902H210.348V410.341H211.909ZM213.47 413.463V415.024H211.909V413.463H213.47ZM213.47 415.024V416.585H211.909V415.024H213.47ZM213.47 416.585V418.146H211.909V416.585H213.47ZM213.47 418.146V419.707H211.909V418.146H213.47ZM213.47 419.707V421.268H211.909V419.707H213.47ZM213.47 421.268V422.829H211.909V421.268H213.47ZM213.47 422.829V424.39H211.909V422.829H213.47ZM213.47 424.39V425.951H211.909V424.39H213.47ZM213.47 425.951V427.512H211.909V425.951H213.47ZM215.031 424.39V425.951H213.47V424.39H215.031ZM215.031 422.829V424.39H213.47V422.829H215.031ZM227.519 416.585V418.146H225.958V416.585H227.519ZM227.519 410.341V411.902H225.958V410.341H227.519ZM227.519 411.902V413.463H225.958V411.902H227.519ZM229.079 411.902V413.463H227.519V411.902H229.079ZM230.64 413.463V415.024H229.079V413.463H230.64ZM229.079 415.024V416.585H227.519V415.024H229.079ZM229.079 413.463V415.024H227.519V413.463H229.079ZM227.519 413.463V415.024H225.958V413.463H227.519ZM225.958 413.463V415.024H224.397V413.463H225.958ZM225.958 415.024V416.585H224.397V415.024H225.958ZM227.519 415.024V416.585H225.958V415.024H227.519ZM225.958 416.585V418.146H224.397V416.585H225.958ZM224.397 415.024V416.585H222.836V415.024H224.397ZM224.397 413.463V415.024H222.836V413.463H224.397ZM224.397 411.902V413.463H222.836V411.902H224.397ZM224.397 410.341V411.902H222.836V410.341H224.397ZM225.958 410.341V411.902H224.397V410.341H225.958ZM225.958 411.902V413.463H224.397V411.902H225.958ZM222.836 410.341V411.902H221.275V410.341H222.836ZM222.836 411.902V413.463H221.275V411.902H222.836ZM222.836 413.463V415.024H221.275V413.463H222.836ZM222.836 415.024V416.585H221.275V415.024H222.836ZM221.275 410.341V411.902H219.714V410.341H221.275ZM221.275 411.902V413.463H219.714V411.902H221.275ZM219.714 411.902V413.463H218.153V411.902H219.714ZM219.714 413.463V415.024H218.153V413.463H219.714ZM218.153 413.463V415.024H216.592V413.463H218.153ZM218.153 415.024V416.585H216.592V415.024H218.153ZM219.714 415.024V416.585H218.153V415.024H219.714ZM221.275 415.024V416.585H219.714V415.024H221.275ZM221.275 413.463V415.024H219.714V413.463H221.275ZM218.153 416.585V418.146H216.592V416.585H218.153ZM219.714 410.341V411.902H218.153V410.341H219.714ZM218.153 411.902V413.463H216.592V411.902H218.153ZM224.397 416.585V418.146H222.836V416.585H224.397ZM225.958 418.146V419.707H224.397V418.146H225.958ZM241.592 404.098V405.659H240.031V404.098H241.592ZM241.592 405.659V407.22H240.031V405.659H241.592ZM241.592 407.22V408.78H240.031V407.22H241.592ZM241.592 408.78V410.341H240.031V408.78H241.592ZM241.592 410.341V411.902H240.031V410.341H241.592ZM241.592 411.902V413.463H240.031V411.902H241.592ZM241.592 413.463V415.024H240.031V413.463H241.592ZM241.592 415.024V416.585H240.031V415.024H241.592ZM243.153 415.024V416.585H241.592V415.024H243.153ZM244.714 415.024V416.585H243.153V415.024H244.714ZM246.275 415.024V416.585H244.714V415.024H246.275ZM247.836 415.024V416.585H246.275V415.024H247.836ZM241.592 418.146V419.707H240.031V418.146H241.592ZM240.031 418.146V419.707H238.47V418.146H240.031ZM240.031 416.585V418.146H238.47V416.585H240.031ZM241.592 416.585V418.146H240.031V416.585H241.592ZM241.592 419.707V421.268H240.031V419.707H241.592ZM240.031 419.707V421.268H238.47V419.707H240.031ZM238.47 419.707V421.268H236.909V419.707H238.47ZM236.909 419.707V421.268H235.348V419.707H236.909ZM235.348 419.707V421.268H233.787V419.707H235.348ZM232.226 415.024V416.585H230.665V415.024H232.226ZM233.787 415.024V416.585H232.226V415.024H233.787ZM235.348 415.024V416.585H233.787V415.024H235.348ZM236.909 415.024V416.585H235.348V415.024H236.909ZM238.47 415.024V416.585H236.909V415.024H238.47ZM240.031 415.024V416.585H238.47V415.024H240.031ZM238.47 418.146V419.707H236.909V418.146H238.47ZM238.47 416.585V418.146H236.909V416.585H238.47ZM236.909 416.585V418.146H235.348V416.585H236.909ZM235.348 416.585V418.146H233.787V416.585H235.348ZM235.348 418.146V419.707H233.787V418.146H235.348ZM236.909 418.146V419.707H235.348V418.146H236.909ZM240.031 405.659V407.22H238.47V405.659H240.031ZM240.031 407.22V408.78H238.47V407.22H240.031ZM238.47 407.22V408.78H236.909V407.22H238.47ZM238.47 408.78V410.341H236.909V408.78H238.47ZM238.47 410.341V411.902H236.909V410.341H238.47ZM236.909 408.78V410.341H235.348V408.78H236.909ZM236.909 410.341V411.902H235.348V410.341H236.909ZM235.348 410.341V411.902H233.787V410.341H235.348ZM235.348 411.902V413.463H233.787V411.902H235.348ZM235.348 413.463V415.024H233.787V413.463H235.348ZM238.47 413.463V415.024H236.909V413.463H238.47ZM240.031 413.463V415.024H238.47V413.463H240.031ZM240.031 411.902V413.463H238.47V411.902H240.031ZM240.031 410.341V411.902H238.47V410.341H240.031ZM240.031 408.78V410.341H238.47V408.78H240.031ZM238.47 411.902V413.463H236.909V411.902H238.47ZM236.909 413.463V415.024H235.348V413.463H236.909ZM236.909 411.902V413.463H235.348V411.902H236.909ZM247.836 433.756V435.317H246.275V433.756H247.836ZM247.836 435.317V436.878H246.275V435.317H247.836ZM247.836 438.439V440H246.275V438.439H247.836ZM246.275 438.439V440H244.714V438.439H246.275ZM244.714 438.439V440H243.153V438.439H244.714ZM243.153 438.439V440H241.592V438.439H243.153ZM241.592 438.439V440H240.031V438.439H241.592ZM241.592 436.878V438.439H240.031V436.878H241.592ZM240.031 436.878V438.439H238.47V436.878H240.031ZM238.47 436.878V438.439H236.909V436.878H238.47ZM238.47 435.317V436.878H236.909V435.317H238.47ZM236.909 435.317V436.878H235.348V435.317H236.909ZM236.909 433.756V435.317H235.348V433.756H236.909ZM236.909 432.195V433.756H235.348V432.195H236.909ZM235.348 432.195V433.756H233.787V432.195H235.348ZM235.348 430.634V432.195H233.787V430.634H235.348ZM235.348 429.073V430.634H233.787V429.073H235.348ZM235.348 427.512V429.073H233.787V427.512H235.348ZM235.348 425.951V427.512H233.787V425.951H235.348ZM235.348 424.39V425.951H233.787V424.39H235.348ZM235.348 422.829V424.39H233.787V422.829H235.348ZM235.348 421.268V422.829H233.787V421.268H235.348ZM236.909 421.268V422.829H235.348V421.268H236.909ZM238.47 421.268V422.829H236.909V421.268H238.47ZM240.031 421.268V422.829H238.47V421.268H240.031ZM241.592 421.268V422.829H240.031V421.268H241.592ZM241.592 422.829V424.39H240.031V422.829H241.592ZM241.592 424.39V425.951H240.031V424.39H241.592ZM241.592 425.951V427.512H240.031V425.951H241.592ZM241.592 427.512V429.073H240.031V427.512H241.592ZM241.592 429.073V430.634H240.031V429.073H241.592ZM241.592 430.634V432.195H240.031V430.634H241.592ZM241.592 432.195V433.756H240.031V432.195H241.592ZM243.153 432.195V433.756H241.592V432.195H243.153ZM243.153 433.756V435.317H241.592V433.756H243.153ZM244.714 433.756V435.317H243.153V433.756H244.714ZM244.714 435.317V436.878H243.153V435.317H244.714ZM246.275 435.317V436.878H244.714V435.317H246.275ZM246.275 433.756V435.317H244.714V433.756H246.275ZM247.836 436.878V438.439H246.275V436.878H247.836ZM246.275 436.878V438.439H244.714V436.878H246.275ZM244.714 436.878V438.439H243.153V436.878H244.714ZM243.153 436.878V438.439H241.592V436.878H243.153ZM243.153 435.317V436.878H241.592V435.317H243.153ZM241.592 435.317V436.878H240.031V435.317H241.592ZM241.592 433.756V435.317H240.031V433.756H241.592ZM240.031 433.756V435.317H238.47V433.756H240.031ZM240.031 435.317V436.878H238.47V435.317H240.031ZM238.47 433.756V435.317H236.909V433.756H238.47ZM240.031 432.195V433.756H238.47V432.195H240.031ZM240.031 430.634V432.195H238.47V430.634H240.031ZM238.47 432.195V433.756H236.909V432.195H238.47ZM238.47 430.634V432.195H236.909V430.634H238.47ZM240.031 429.073V430.634H238.47V429.073H240.031ZM240.031 427.512V429.073H238.47V427.512H240.031ZM240.031 425.951V427.512H238.47V425.951H240.031ZM240.031 424.39V425.951H238.47V424.39H240.031ZM240.031 422.829V424.39H238.47V422.829H240.031ZM238.47 422.829V424.39H236.909V422.829H238.47ZM236.909 422.829V424.39H235.348V422.829H236.909ZM236.909 424.39V425.951H235.348V424.39H236.909ZM236.909 425.951V427.512H235.348V425.951H236.909ZM236.909 427.512V429.073H235.348V427.512H236.909ZM236.909 429.073V430.634H235.348V429.073H236.909ZM236.909 430.634V432.195H235.348V430.634H236.909ZM238.47 429.073V430.634H236.909V429.073H238.47ZM238.47 427.512V429.073H236.909V427.512H238.47ZM238.47 425.951V427.512H236.909V425.951H238.47ZM238.47 424.39V425.951H236.909V424.39H238.47ZM247.836 411.902V413.463H246.275V411.902H247.836ZM246.275 411.902V413.463H244.714V411.902H246.275ZM246.275 413.463V415.024H244.714V413.463H246.275ZM247.836 413.463V415.024H246.275V413.463H247.836ZM244.714 413.463V415.024H243.153V413.463H244.714ZM243.153 413.463V415.024H241.592V413.463H243.153ZM243.153 411.902V413.463H241.592V411.902H243.153ZM244.714 411.902V413.463H243.153V411.902H244.714ZM235.348 408.78V410.341H233.787V408.78H235.348ZM236.909 407.22V408.78H235.348V407.22H236.909ZM238.47 405.659V407.22H236.909V405.659H238.47ZM240.031 404.098V405.659H238.47V404.098H240.031ZM233.787 411.902V413.463H232.226V411.902H233.787ZM233.787 413.463V415.024H232.226V413.463H233.787ZM232.226 413.463V415.024H230.665V413.463H232.226ZM232.226 411.902V413.463H230.665V411.902H232.226ZM241.592 402.537V404.098H240.031V402.537H241.592ZM232.226 416.585V418.146H230.665V416.585H232.226ZM233.787 416.585V418.146H232.226V416.585H233.787ZM243.153 416.585V418.146H241.592V416.585H243.153ZM244.714 416.585V418.146H243.153V416.585H244.714ZM246.275 416.585V418.146H244.714V416.585H246.275ZM247.836 416.585V418.146H246.275V416.585H247.836ZM274.39 416.585V418.146H272.829V416.585H274.39ZM272.829 416.585V418.146H271.269V416.585H272.829ZM271.269 416.585V418.146H269.708V416.585H271.269ZM269.708 416.585V418.146H268.147V416.585H269.708ZM268.147 415.024V416.585H266.586V415.024H268.147ZM269.708 415.024V416.585H268.147V415.024H269.708ZM271.269 415.024V416.585H269.708V415.024H271.269ZM272.829 415.024V416.585H271.269V415.024H272.829ZM274.39 415.024V416.585H272.829V415.024H274.39ZM274.39 413.463V415.024H272.829V413.463H274.39ZM272.829 413.463V415.024H271.269V413.463H272.829ZM271.269 413.463V415.024H269.708V413.463H271.269ZM269.708 413.463V415.024H268.147V413.463H269.708ZM268.147 413.463V415.024H266.586V413.463H268.147ZM271.269 411.902V413.463H269.708V411.902H271.269ZM272.829 411.902V413.463H271.269V411.902H272.829ZM269.708 411.902V413.463H268.147V411.902H269.708ZM269.708 410.341V411.902H268.147V410.341H269.708ZM268.147 410.341V411.902H266.586V410.341H268.147ZM268.147 411.902V413.463H266.586V411.902H268.147ZM266.586 411.902V413.463H265.025V411.902H266.586ZM266.586 410.341V411.902H265.025V410.341H266.586ZM266.586 413.463V415.024H265.025V413.463H266.586ZM265.025 413.463V415.024H263.464V413.463H265.025ZM265.025 415.024V416.585H263.464V415.024H265.025ZM266.586 415.024V416.585H265.025V415.024H266.586ZM263.464 415.024V416.585H261.903V415.024H263.464ZM263.464 413.463V415.024H261.903V413.463H263.464ZM263.464 411.902V413.463H261.903V411.902H263.464ZM263.464 410.341V411.902H261.903V410.341H263.464ZM265.025 410.341V411.902H263.464V410.341H265.025ZM265.025 411.902V413.463H263.464V411.902H265.025ZM261.903 410.341V411.902H260.342V410.341H261.903ZM260.342 410.341V411.902H258.781V410.341H260.342ZM258.781 410.341V411.902H257.22V410.341H258.781ZM258.781 411.902V413.463H257.22V411.902H258.781ZM258.781 413.463V415.024H257.22V413.463H258.781ZM258.781 415.024V416.585H257.22V415.024H258.781ZM260.342 415.024V416.585H258.781V415.024H260.342ZM261.903 415.024V416.585H260.342V415.024H261.903ZM261.903 413.463V415.024H260.342V413.463H261.903ZM261.903 411.902V413.463H260.342V411.902H261.903ZM260.342 411.902V413.463H258.781V411.902H260.342ZM260.342 413.463V415.024H258.781V413.463H260.342ZM257.22 413.463V415.024H255.659V413.463H257.22ZM257.22 411.902V413.463H255.659V411.902H257.22ZM255.659 411.902V413.463H254.098V411.902H255.659ZM255.659 413.463V415.024H254.098V413.463H255.659ZM254.098 413.463V415.024H252.537V413.463H254.098ZM254.098 415.024V416.585H252.537V415.024H254.098ZM254.098 416.585V418.146H252.537V416.585H254.098ZM255.659 416.585V418.146H254.098V416.585H255.659ZM255.659 415.024V416.585H254.098V415.024H255.659ZM257.22 415.024V416.585H255.659V415.024H257.22ZM257.22 416.585V418.146H255.659V416.585H257.22ZM258.781 416.585V418.146H257.22V416.585H258.781ZM260.342 416.585V418.146H258.781V416.585H260.342ZM252.537 416.585V418.146H250.976V416.585H252.537ZM252.537 418.146V419.707H250.976V418.146H252.537ZM252.537 419.707V421.268H250.976V419.707H252.537ZM252.537 430.634V432.195H250.976V430.634H252.537ZM254.098 430.634V432.195H252.537V430.634H254.098ZM254.098 432.195V433.756H252.537V432.195H254.098ZM252.537 432.195V433.756H250.976V432.195H252.537ZM255.659 432.195V433.756H254.098V432.195H255.659ZM257.22 432.195V433.756H255.659V432.195H257.22ZM258.781 432.195V433.756H257.22V432.195H258.781ZM260.342 432.195V433.756H258.781V432.195H260.342ZM258.781 430.634V432.195H257.22V430.634H258.781ZM258.781 419.707V421.268H257.22V419.707H258.781ZM258.781 418.146V419.707H257.22V418.146H258.781ZM257.22 418.146V419.707H255.659V418.146H257.22ZM255.659 418.146V419.707H254.098V418.146H255.659ZM254.098 418.146V419.707H252.537V418.146H254.098ZM254.098 419.707V421.268H252.537V419.707H254.098ZM255.659 430.634V432.195H254.098V430.634H255.659ZM257.22 430.634V432.195H255.659V430.634H257.22ZM255.659 419.707V421.268H254.098V419.707H255.659ZM257.22 419.707V421.268H255.659V419.707H257.22ZM269.708 429.073V430.634H268.147V429.073H269.708ZM269.708 430.634V432.195H268.147V430.634H269.708ZM271.269 430.634V432.195H269.708V430.634H271.269ZM272.829 430.634V432.195H271.269V430.634H272.829ZM274.39 430.634V432.195H272.829V430.634H274.39ZM275.951 430.634V432.195H274.39V430.634H275.951ZM275.951 429.073V430.634H274.39V429.073H275.951ZM274.39 429.073V430.634H272.829V429.073H274.39ZM272.829 429.073V430.634H271.269V429.073H272.829ZM271.269 429.073V430.634H269.708V429.073H271.269ZM275.951 432.195V433.756H274.39V432.195H275.951ZM274.39 432.195V433.756H272.829V432.195H274.39ZM272.829 432.195V433.756H271.269V432.195H272.829ZM271.269 432.195V433.756H269.708V432.195H271.269ZM269.708 432.195V433.756H268.147V432.195H269.708ZM268.147 432.195V433.756H266.586V432.195H268.147ZM268.147 433.756V435.317H266.586V433.756H268.147ZM269.708 433.756V435.317H268.147V433.756H269.708ZM271.269 433.756V435.317H269.708V433.756H271.269ZM272.829 433.756V435.317H271.269V433.756H272.829ZM272.829 435.317V436.878H271.269V435.317H272.829ZM274.39 435.317V436.878H272.829V435.317H274.39ZM274.39 433.756V435.317H272.829V433.756H274.39ZM272.829 436.878V438.439H271.269V436.878H272.829ZM271.269 436.878V438.439H269.708V436.878H271.269ZM271.269 435.317V436.878H269.708V435.317H271.269ZM269.708 435.317V436.878H268.147V435.317H269.708ZM269.708 436.878V438.439H268.147V436.878H269.708ZM269.708 438.439V440H268.147V438.439H269.708ZM268.147 438.439V440H266.586V438.439H268.147ZM266.586 438.439V440H265.025V438.439H266.586ZM265.025 438.439V440H263.464V438.439H265.025ZM263.464 438.439V440H261.903V438.439H263.464ZM261.903 438.439V440H260.342V438.439H261.903ZM260.342 438.439V440H258.781V438.439H260.342ZM258.781 438.439V440H257.22V438.439H258.781ZM260.342 436.878V438.439H258.781V436.878H260.342ZM261.903 436.878V438.439H260.342V436.878H261.903ZM263.464 436.878V438.439H261.903V436.878H263.464ZM265.025 436.878V438.439H263.464V436.878H265.025ZM266.586 436.878V438.439H265.025V436.878H266.586ZM268.147 436.878V438.439H266.586V436.878H268.147ZM268.147 435.317V436.878H266.586V435.317H268.147ZM266.586 435.317V436.878H265.025V435.317H266.586ZM265.025 435.317V436.878H263.464V435.317H265.025ZM263.464 435.317V436.878H261.903V435.317H263.464ZM261.903 435.317V436.878H260.342V435.317H261.903ZM260.342 435.317V436.878H258.781V435.317H260.342ZM258.781 436.878V438.439H257.22V436.878H258.781ZM257.22 436.878V438.439H255.659V436.878H257.22ZM255.659 436.878V438.439H254.098V436.878H255.659ZM255.659 435.317V436.878H254.098V435.317H255.659ZM254.098 435.317V436.878H252.537V435.317H254.098ZM254.098 433.756V435.317H252.537V433.756H254.098ZM255.659 433.756V435.317H254.098V433.756H255.659ZM257.22 433.756V435.317H255.659V433.756H257.22ZM258.781 433.756V435.317H257.22V433.756H258.781ZM260.342 433.756V435.317H258.781V433.756H260.342ZM261.903 433.756V435.317H260.342V433.756H261.903ZM263.464 433.756V435.317H261.903V433.756H263.464ZM265.025 433.756V435.317H263.464V433.756H265.025ZM266.586 433.756V435.317H265.025V433.756H266.586ZM258.781 435.317V436.878H257.22V435.317H258.781ZM257.22 435.317V436.878H255.659V435.317H257.22ZM272.829 425.951V427.512H271.269V425.951H272.829ZM275.951 427.512V429.073H274.39V427.512H275.951ZM274.39 427.512V429.073H272.829V427.512H274.39ZM272.829 427.512V429.073H271.269V427.512H272.829ZM271.269 427.512V429.073H269.708V427.512H271.269ZM271.269 425.951V427.512H269.708V425.951H271.269ZM269.708 425.951V427.512H268.147V425.951H269.708ZM269.708 427.512V429.073H268.147V427.512H269.708ZM260.342 419.707V421.268H258.781V419.707H260.342ZM254.098 421.268V422.829H252.537V421.268H254.098ZM254.098 422.829V424.39H252.537V422.829H254.098ZM255.659 422.829V424.39H254.098V422.829H255.659ZM255.659 424.39V425.951H254.098V424.39H255.659ZM257.22 424.39V425.951H255.659V424.39H257.22ZM258.781 425.951V427.512H257.22V425.951H258.781ZM258.781 424.39V425.951H257.22V424.39H258.781ZM258.781 422.829V424.39H257.22V422.829H258.781ZM258.781 421.268V422.829H257.22V421.268H258.781ZM257.22 421.268V422.829H255.659V421.268H257.22ZM257.22 422.829V424.39H255.659V422.829H257.22ZM255.659 421.268V422.829H254.098V421.268H255.659ZM260.342 425.951V427.512H258.781V425.951H260.342ZM261.903 425.951V427.512H260.342V425.951H261.903ZM263.464 425.951V427.512H261.903V425.951H263.464ZM265.025 425.951V427.512H263.464V425.951H265.025ZM265.025 424.39V425.951H263.464V424.39H265.025ZM263.464 424.39V425.951H261.903V424.39H263.464ZM261.903 424.39V425.951H260.342V424.39H261.903ZM260.342 424.39V425.951H258.781V424.39H260.342ZM260.342 422.829V424.39H258.781V422.829H260.342ZM260.342 421.268V422.829H258.781V421.268H260.342ZM261.903 421.268V422.829H260.342V421.268H261.903ZM263.464 421.268V422.829H261.903V421.268H263.464ZM265.025 421.268V422.829H263.464V421.268H265.025ZM265.025 422.829V424.39H263.464V422.829H265.025ZM263.464 422.829V424.39H261.903V422.829H263.464ZM261.903 422.829V424.39H260.342V422.829H261.903ZM266.586 421.268V422.829H265.025V421.268H266.586ZM268.147 421.268V422.829H266.586V421.268H268.147ZM268.147 422.829V424.39H266.586V422.829H268.147ZM268.147 424.39V425.951H266.586V424.39H268.147ZM268.147 425.951V427.512H266.586V425.951H268.147ZM266.586 425.951V427.512H265.025V425.951H266.586ZM266.586 424.39V425.951H265.025V424.39H266.586ZM266.586 422.829V424.39H265.025V422.829H266.586ZM268.147 427.512V429.073H266.586V427.512H268.147ZM269.708 421.268V422.829H268.147V421.268H269.708ZM274.39 425.951V427.512H272.829V425.951H274.39ZM274.39 424.39V425.951H272.829V424.39H274.39ZM272.829 422.829V424.39H271.269V422.829H272.829ZM271.269 422.829V424.39H269.708V422.829H271.269ZM269.708 422.829V424.39H268.147V422.829H269.708ZM269.708 424.39V425.951H268.147V424.39H269.708ZM271.269 424.39V425.951H269.708V424.39H271.269ZM272.829 424.39V425.951H271.269V424.39H272.829ZM268.147 416.585V418.146H266.586V416.585H268.147Z" fill="#5D5D5D"/>
</svg>
