<svg width="248" height="435" viewBox="0 0 248 435" fill="none" xmlns="http://www.w3.org/2000/svg">
<path d="M50 159.688C77.6142 159.688 100 137.302 100 109.688C100 82.0733 77.6142 59.6875 50 59.6875C22.3858 59.6875 0 82.0733 0 109.688C0 137.302 22.3858 159.688 50 159.688Z" fill="#C21E1E"/>
<path d="M50.6947 149.965C73.3229 149.965 91.6666 131.621 91.6666 108.993C91.6666 86.3646 73.3229 68.0208 50.6947 68.0208C28.0665 68.0208 9.72278 86.3646 9.72278 108.993C9.72278 131.621 28.0665 149.965 50.6947 149.965Z" fill="#EF2A2A"/>
<path d="M50.6947 149.965C73.3229 149.965 91.6666 131.621 91.6666 108.993C91.6666 86.3646 73.3229 68.0208 50.6947 68.0208C28.0665 68.0208 9.72278 86.3646 9.72278 108.993C9.72278 131.621 28.0665 149.965 50.6947 149.965Z" fill="#EF2A2A"/>
<path d="M48.7869 106.68V75.238C31.2963 76.0273 17.1286 89.5022 15.228 106.68H48.7869Z" fill="#E30E0E"/>
<path d="M86.1614 106.216C83.2805 89.8108 69.8603 77.0507 53.1208 75.1956V106.216H86.1614Z" fill="#E30E0E"/>
<path d="M48.7869 111.31V142.75C31.2963 141.961 17.1286 128.488 15.228 111.31H48.7869Z" fill="#E30E0E"/>
<path d="M86.1614 111.77C83.2805 128.175 69.8603 140.937 53.1208 142.79V111.77H86.1614Z" fill="#E30E0E"/>
<path d="M235.187 99.0125C242.15 99.0125 247.787 104.65 247.787 111.613L224.95 362.775C224.95 369.738 219.312 375.375 212.35 375.375H81.6375C74.675 375.375 69.0375 369.738 69.0375 362.775L46.225 111.613C46.225 104.65 51.8625 99.0125 58.825 99.0125H171.45L184.775 31.0625L245.262 0L240.912 16.225L196.012 38.7375L184.287 99.0125H235.187ZM165.925 187.2H216.287V197.687H77.7125V187.2H153.075L168.812 111.613H58.8125L81.6375 362.775H212.337L235.175 111.613H181.65L165.925 187.2Z" fill="#C21E1E"/>
<path d="M185.361 218.188C190.884 218.188 195.361 222.665 195.361 228.188C195.361 233.71 190.884 238.187 185.361 238.188C179.838 238.188 175.361 233.71 175.361 228.188C175.361 222.665 179.838 218.188 185.361 218.188Z" stroke="#C21E1E" stroke-width="10"/>
<path d="M159.5 322.048C165.023 322.048 169.5 326.526 169.5 332.048C169.5 337.571 165.023 342.048 159.5 342.048C153.977 342.048 149.5 337.571 149.5 332.048C149.5 326.526 153.977 322.048 159.5 322.048Z" stroke="#C21E1E" stroke-width="10"/>
<circle cx="122" cy="266.687" r="10" stroke="#C21E1E" stroke-width="10"/>
<path d="M73.1829 433.127V434.688H71.622V433.127H73.1829ZM73.1829 431.566V433.127H71.622V431.566H73.1829ZM73.1829 430.005V431.566H71.622V430.005H73.1829ZM73.1829 428.444V430.005H71.622V428.444H73.1829ZM73.1829 426.883V428.444H71.622V426.883H73.1829ZM73.1829 425.322V426.883H71.622V425.322H73.1829ZM73.1829 423.761V425.322H71.622V423.761H73.1829ZM73.1829 422.2V423.761H71.622V422.2H73.1829ZM73.1829 420.639V422.2H71.622V420.639H73.1829ZM73.1829 419.078V420.639H71.622V419.078H73.1829ZM73.1829 417.517V419.078H71.622V417.517H73.1829ZM73.1829 415.956V417.517H71.622V415.956H73.1829ZM73.1829 414.395V415.956H71.622V414.395H73.1829ZM73.1829 412.834V414.395H71.622V412.834H73.1829ZM73.1829 411.273V412.834H71.622V411.273H73.1829ZM74.7439 411.273V412.834H73.1829V411.273H74.7439ZM74.7439 412.834V414.395H73.1829V412.834H74.7439ZM74.7439 414.395V415.956H73.1829V414.395H74.7439ZM74.7439 415.956V417.517H73.1829V415.956H74.7439ZM74.7439 417.517V419.078H73.1829V417.517H74.7439ZM74.7439 419.078V420.639H73.1829V419.078H74.7439ZM74.7439 420.639V422.2H73.1829V420.639H74.7439ZM76.3049 422.2V423.761H74.7439V422.2H76.3049ZM76.3049 423.761V425.322H74.7439V423.761H76.3049ZM76.3049 425.322V426.883H74.7439V425.322H76.3049ZM76.3049 426.883V428.444H74.7439V426.883H76.3049ZM76.3049 428.444V430.005H74.7439V428.444H76.3049ZM76.3049 430.005V431.566H74.7439V430.005H76.3049ZM76.3049 431.566V433.127H74.7439V431.566H76.3049ZM76.3049 433.127V434.688H74.7439V433.127H76.3049ZM77.8659 433.127V434.688H76.3049V433.127H77.8659ZM79.4268 433.127V434.688H77.8659V433.127H79.4268ZM79.4268 431.566V433.127H77.8659V431.566H79.4268ZM79.4268 430.005V431.566H77.8659V430.005H79.4268ZM79.4268 428.444V430.005H77.8659V428.444H79.4268ZM79.4268 426.883V428.444H77.8659V426.883H79.4268ZM79.4268 425.322V426.883H77.8659V425.322H79.4268ZM79.4268 423.761V425.322H77.8659V423.761H79.4268ZM79.4268 422.2V423.761H77.8659V422.2H79.4268ZM77.8659 422.2V423.761H76.3049V422.2H77.8659ZM77.8659 420.639V422.2H76.3049V420.639H77.8659ZM77.8659 423.761V425.322H76.3049V423.761H77.8659ZM77.8659 425.322V426.883H76.3049V425.322H77.8659ZM77.8659 426.883V428.444H76.3049V426.883H77.8659ZM77.8659 428.444V430.005H76.3049V428.444H77.8659ZM77.8659 430.005V431.566H76.3049V430.005H77.8659ZM77.8659 431.566V433.127H76.3049V431.566H77.8659ZM74.7439 433.127V434.688H73.1829V433.127H74.7439ZM74.7439 431.566V433.127H73.1829V431.566H74.7439ZM74.7439 430.005V431.566H73.1829V430.005H74.7439ZM74.7439 428.444V430.005H73.1829V428.444H74.7439ZM74.7439 426.883V428.444H73.1829V426.883H74.7439ZM74.7439 425.322V426.883H73.1829V425.322H74.7439ZM74.7439 423.761V425.322H73.1829V423.761H74.7439ZM74.7439 422.2V423.761H73.1829V422.2H74.7439ZM73.1829 395.663V397.224H71.622V395.663H73.1829ZM73.1829 397.224V398.785H71.622V397.224H73.1829ZM73.1829 398.785V400.346H71.622V398.785H73.1829ZM73.1829 400.346V401.907H71.622V400.346H73.1829ZM73.1829 401.907V403.468H71.622V401.907H73.1829ZM73.1829 403.468V405.029H71.622V403.468H73.1829ZM73.1829 405.029V406.59H71.622V405.029H73.1829ZM73.1829 406.59V408.151H71.622V406.59H73.1829ZM73.1829 408.151V409.712H71.622V408.151H73.1829ZM73.1829 409.712V411.273H71.622V409.712H73.1829ZM77.8659 395.663V397.224H76.3049V395.663H77.8659ZM77.8659 397.224V398.785H76.3049V397.224H77.8659ZM77.8659 398.785V400.346H76.3049V398.785H77.8659ZM77.8659 400.346V401.907H76.3049V400.346H77.8659ZM77.8659 401.907V403.468H76.3049V401.907H77.8659ZM77.8659 403.468V405.029H76.3049V403.468H77.8659ZM77.8659 406.59V408.151H76.3049V406.59H77.8659ZM77.8659 408.151V409.712H76.3049V408.151H77.8659ZM77.8659 409.712V411.273H76.3049V409.712H77.8659ZM77.8659 411.273V412.834H76.3049V411.273H77.8659ZM77.8659 412.834V414.395H76.3049V412.834H77.8659ZM77.8659 414.395V415.956H76.3049V414.395H77.8659ZM77.8659 415.956V417.517H76.3049V415.956H77.8659ZM79.4268 417.517V419.078H77.8659V417.517H79.4268ZM79.4268 419.078V420.639H77.8659V419.078H79.4268ZM79.4268 420.639V422.2H77.8659V420.639H79.4268ZM79.4268 415.956V417.517H77.8659V415.956H79.4268ZM79.4268 414.395V415.956H77.8659V414.395H79.4268ZM79.4268 412.834V414.395H77.8659V412.834H79.4268ZM79.4268 411.273V412.834H77.8659V411.273H79.4268ZM79.4268 409.712V411.273H77.8659V409.712H79.4268ZM79.4268 408.151V409.712H77.8659V408.151H79.4268ZM79.4268 406.59V408.151H77.8659V406.59H79.4268ZM79.4268 405.029V406.59H77.8659V405.029H79.4268ZM79.4268 403.468V405.029H77.8659V403.468H79.4268ZM79.4268 401.907V403.468H77.8659V401.907H79.4268ZM77.8659 405.029V406.59H76.3049V405.029H77.8659ZM79.4268 400.346V401.907H77.8659V400.346H79.4268ZM79.4268 398.785V400.346H77.8659V398.785H79.4268ZM79.4268 397.224V398.785H77.8659V397.224H79.4268ZM79.4268 395.663V397.224H77.8659V395.663H79.4268ZM76.3049 395.663V397.224H74.7439V395.663H76.3049ZM74.7439 395.663V397.224H73.1829V395.663H74.7439ZM74.7439 397.224V398.785H73.1829V397.224H74.7439ZM76.3049 397.224V398.785H74.7439V397.224H76.3049ZM76.3049 398.785V400.346H74.7439V398.785H76.3049ZM76.3049 400.346V401.907H74.7439V400.346H76.3049ZM76.3049 401.907V403.468H74.7439V401.907H76.3049ZM76.3049 403.468V405.029H74.7439V403.468H76.3049ZM76.3049 405.029V406.59H74.7439V405.029H76.3049ZM76.3049 406.59V408.151H74.7439V406.59H76.3049ZM74.7439 408.151V409.712H73.1829V408.151H74.7439ZM74.7439 409.712V411.273H73.1829V409.712H74.7439ZM74.7439 406.59V408.151H73.1829V406.59H74.7439ZM74.7439 405.029V406.59H73.1829V405.029H74.7439ZM74.7439 403.468V405.029H73.1829V403.468H74.7439ZM74.7439 401.907V403.468H73.1829V401.907H74.7439ZM74.7439 400.346V401.907H73.1829V400.346H74.7439ZM74.7439 398.785V400.346H73.1829V398.785H74.7439ZM76.3049 408.151V409.712H74.7439V408.151H76.3049ZM76.3049 409.712V411.273H74.7439V409.712H76.3049ZM76.3049 411.273V412.834H74.7439V411.273H76.3049ZM76.3049 412.834V414.395H74.7439V412.834H76.3049ZM76.3049 414.395V415.956H74.7439V414.395H76.3049ZM76.3049 415.956V417.517H74.7439V415.956H76.3049ZM76.3049 417.517V419.078H74.7439V417.517H76.3049ZM76.3049 419.078V420.639H74.7439V419.078H76.3049ZM76.3049 420.639V422.2H74.7439V420.639H76.3049ZM77.8659 419.078V420.639H76.3049V419.078H77.8659ZM77.8659 417.517V419.078H76.3049V417.517H77.8659ZM80.9878 395.663V397.224H79.4268V395.663H80.9878ZM82.5488 395.663V397.224H80.9878V395.663H82.5488ZM82.5488 397.224V398.785H80.9878V397.224H82.5488ZM80.9878 397.224V398.785H79.4268V397.224H80.9878ZM80.9878 398.785V400.346H79.4268V398.785H80.9878ZM82.5488 398.785V400.346H80.9878V398.785H82.5488ZM82.5488 400.346V401.907H80.9878V400.346H82.5488ZM80.9878 400.346V401.907H79.4268V400.346H80.9878ZM80.9878 401.907V403.468H79.4268V401.907H80.9878ZM82.5488 401.907V403.468H80.9878V401.907H82.5488ZM80.9878 433.127V434.688H79.4268V433.127H80.9878ZM82.5488 433.127V434.688H80.9878V433.127H82.5488ZM82.5488 431.566V433.127H80.9878V431.566H82.5488ZM82.5488 430.005V431.566H80.9878V430.005H82.5488ZM82.5488 428.444V430.005H80.9878V428.444H82.5488ZM82.5488 426.883V428.444H80.9878V426.883H82.5488ZM80.9878 426.883V428.444H79.4268V426.883H80.9878ZM80.9878 428.444V430.005H79.4268V428.444H80.9878ZM80.9878 430.005V431.566H79.4268V430.005H80.9878ZM80.9878 431.566V433.127H79.4268V431.566H80.9878ZM90.3537 408.151V409.712H88.7927V408.151H90.3537ZM90.3537 406.59V408.151H88.7927V406.59H90.3537ZM90.3537 405.029V406.59H88.7927V405.029H90.3537ZM88.7927 403.468V405.029H87.2317V403.468H88.7927ZM87.2317 401.907V403.468H85.6707V401.907H87.2317ZM85.6707 401.907V403.468H84.1098V401.907H85.6707ZM84.1098 401.907V403.468H82.5488V401.907H84.1098ZM84.1098 395.663V397.224H82.5488V395.663H84.1098ZM85.6707 395.663V397.224H84.1098V395.663H85.6707ZM87.2317 395.663V397.224H85.6707V395.663H87.2317ZM88.7927 395.663V397.224H87.2317V395.663H88.7927ZM88.7927 397.224V398.785H87.2317V397.224H88.7927ZM88.7927 398.785V400.346H87.2317V398.785H88.7927ZM88.7927 400.346V401.907H87.2317V400.346H88.7927ZM87.2317 400.346V401.907H85.6707V400.346H87.2317ZM87.2317 398.785V400.346H85.6707V398.785H87.2317ZM85.6707 398.785V400.346H84.1098V398.785H85.6707ZM84.1098 398.785V400.346H82.5488V398.785H84.1098ZM84.1098 397.224V398.785H82.5488V397.224H84.1098ZM85.6707 397.224V398.785H84.1098V397.224H85.6707ZM87.2317 397.224V398.785H85.6707V397.224H87.2317ZM84.1098 400.346V401.907H82.5488V400.346H84.1098ZM85.6707 400.346V401.907H84.1098V400.346H85.6707ZM88.7927 401.907V403.468H87.2317V401.907H88.7927ZM90.3537 403.468V405.029H88.7927V403.468H90.3537ZM90.3537 401.907V403.468H88.7927V401.907H90.3537ZM90.3537 400.346V401.907H88.7927V400.346H90.3537ZM90.3537 398.785V400.346H88.7927V398.785H90.3537ZM90.3537 397.224V398.785H88.7927V397.224H90.3537ZM90.3537 395.663V397.224H88.7927V395.663H90.3537ZM90.3537 409.712V411.273H88.7927V409.712H90.3537ZM90.3537 411.273V412.834H88.7927V411.273H90.3537ZM90.3537 412.834V414.395H88.7927V412.834H90.3537ZM90.3537 414.395V415.956H88.7927V414.395H90.3537ZM90.3537 415.956V417.517H88.7927V415.956H90.3537ZM90.3537 417.517V419.078H88.7927V417.517H90.3537ZM90.3537 420.639V422.2H88.7927V420.639H90.3537ZM90.3537 419.078V420.639H88.7927V419.078H90.3537ZM90.3537 422.2V423.761H88.7927V422.2H90.3537ZM90.3537 423.761V425.322H88.7927V423.761H90.3537ZM84.1098 426.883V428.444H82.5488V426.883H84.1098ZM85.6707 426.883V428.444H84.1098V426.883H85.6707ZM87.2317 426.883V428.444H85.6707V426.883H87.2317ZM88.7927 425.322V426.883H87.2317V425.322H88.7927ZM90.3537 425.322V426.883H88.7927V425.322H90.3537ZM90.3537 426.883V428.444H88.7927V426.883H90.3537ZM88.7927 426.883V428.444H87.2317V426.883H88.7927ZM90.3537 428.444V430.005H88.7927V428.444H90.3537ZM90.3537 430.005V431.566H88.7927V430.005H90.3537ZM90.3537 431.566V433.127H88.7927V431.566H90.3537ZM90.3537 433.127V434.688H88.7927V433.127H90.3537ZM88.7927 433.127V434.688H87.2317V433.127H88.7927ZM88.7927 431.566V433.127H87.2317V431.566H88.7927ZM87.2317 431.566V433.127H85.6707V431.566H87.2317ZM85.6707 433.127V434.688H84.1098V433.127H85.6707ZM84.1098 433.127V434.688H82.5488V433.127H84.1098ZM87.2317 433.127V434.688H85.6707V433.127H87.2317ZM85.6707 431.566V433.127H84.1098V431.566H85.6707ZM84.1098 431.566V433.127H82.5488V431.566H84.1098ZM84.1098 430.005V431.566H82.5488V430.005H84.1098ZM85.6707 430.005V431.566H84.1098V430.005H85.6707ZM87.2317 430.005V431.566H85.6707V430.005H87.2317ZM88.7927 430.005V431.566H87.2317V430.005H88.7927ZM88.7927 428.444V430.005H87.2317V428.444H88.7927ZM87.2317 428.444V430.005H85.6707V428.444H87.2317ZM85.6707 428.444V430.005H84.1098V428.444H85.6707ZM84.1098 428.444V430.005H82.5488V428.444H84.1098ZM91.9146 397.224V398.785H90.3537V397.224H91.9146ZM93.4756 397.224V398.785H91.9146V397.224H93.4756ZM93.4756 398.785V400.346H91.9146V398.785H93.4756ZM95.0366 398.785V400.346H93.4756V398.785H95.0366ZM95.0366 400.346V401.907H93.4756V400.346H95.0366ZM95.0366 401.907V403.468H93.4756V401.907H95.0366ZM96.5976 401.907V403.468H95.0366V401.907H96.5976ZM96.5976 403.468V405.029H95.0366V403.468H96.5976ZM96.5976 405.029V406.59H95.0366V405.029H96.5976ZM96.5976 406.59V408.151H95.0366V406.59H96.5976ZM96.5976 408.151V409.712H95.0366V408.151H96.5976ZM96.5976 409.712V411.273H95.0366V409.712H96.5976ZM96.5976 411.273V412.834H95.0366V411.273H96.5976ZM95.0366 412.834V414.395H93.4756V412.834H95.0366ZM93.4756 414.395V415.956H91.9146V414.395H93.4756ZM95.0366 415.956V417.517H93.4756V415.956H95.0366ZM96.5976 417.517V419.078H95.0366V417.517H96.5976ZM91.9146 431.566V433.127H90.3537V431.566H91.9146ZM93.4756 431.566V433.127H91.9146V431.566H93.4756ZM95.0366 430.005V431.566H93.4756V430.005H95.0366ZM96.5976 426.883V428.444H95.0366V426.883H96.5976ZM93.4756 430.005V431.566H91.9146V430.005H93.4756ZM93.4756 428.444V430.005H91.9146V428.444H93.4756ZM95.0366 428.444V430.005H93.4756V428.444H95.0366ZM96.5976 425.322V426.883H95.0366V425.322H96.5976ZM96.5976 423.761V425.322H95.0366V423.761H96.5976ZM96.5976 422.2V423.761H95.0366V422.2H96.5976ZM96.5976 420.639V422.2H95.0366V420.639H96.5976ZM96.5976 419.078V420.639H95.0366V419.078H96.5976ZM91.9146 415.956V417.517H90.3537V415.956H91.9146ZM93.4756 415.956V417.517H91.9146V415.956H93.4756ZM93.4756 417.517V419.078H91.9146V417.517H93.4756ZM91.9146 417.517V419.078H90.3537V417.517H91.9146ZM95.0366 417.517V419.078H93.4756V417.517H95.0366ZM95.0366 419.078V420.639H93.4756V419.078H95.0366ZM95.0366 420.639V422.2H93.4756V420.639H95.0366ZM95.0366 422.2V423.761H93.4756V422.2H95.0366ZM95.0366 423.761V425.322H93.4756V423.761H95.0366ZM95.0366 425.322V426.883H93.4756V425.322H95.0366ZM95.0366 426.883V428.444H93.4756V426.883H95.0366ZM93.4756 426.883V428.444H91.9146V426.883H93.4756ZM93.4756 425.322V426.883H91.9146V425.322H93.4756ZM93.4756 423.761V425.322H91.9146V423.761H93.4756ZM93.4756 422.2V423.761H91.9146V422.2H93.4756ZM93.4756 420.639V422.2H91.9146V420.639H93.4756ZM93.4756 419.078V420.639H91.9146V419.078H93.4756ZM91.9146 419.078V420.639H90.3537V419.078H91.9146ZM91.9146 420.639V422.2H90.3537V420.639H91.9146ZM91.9146 422.2V423.761H90.3537V422.2H91.9146ZM91.9146 423.761V425.322H90.3537V423.761H91.9146ZM91.9146 425.322V426.883H90.3537V425.322H91.9146ZM91.9146 426.883V428.444H90.3537V426.883H91.9146ZM91.9146 428.444V430.005H90.3537V428.444H91.9146ZM91.9146 430.005V431.566H90.3537V430.005H91.9146ZM91.9146 398.785V400.346H90.3537V398.785H91.9146ZM91.9146 400.346V401.907H90.3537V400.346H91.9146ZM91.9146 401.907V403.468H90.3537V401.907H91.9146ZM91.9146 403.468V405.029H90.3537V403.468H91.9146ZM91.9146 405.029V406.59H90.3537V405.029H91.9146ZM91.9146 406.59V408.151H90.3537V406.59H91.9146ZM91.9146 408.151V409.712H90.3537V408.151H91.9146ZM91.9146 409.712V411.273H90.3537V409.712H91.9146ZM91.9146 411.273V412.834H90.3537V411.273H91.9146ZM91.9146 412.834V414.395H90.3537V412.834H91.9146ZM91.9146 414.395V415.956H90.3537V414.395H91.9146ZM93.4756 412.834V414.395H91.9146V412.834H93.4756ZM93.4756 411.273V412.834H91.9146V411.273H93.4756ZM93.4756 409.712V411.273H91.9146V409.712H93.4756ZM93.4756 408.151V409.712H91.9146V408.151H93.4756ZM93.4756 406.59V408.151H91.9146V406.59H93.4756ZM93.4756 405.029V406.59H91.9146V405.029H93.4756ZM93.4756 403.468V405.029H91.9146V403.468H93.4756ZM93.4756 401.907V403.468H91.9146V401.907H93.4756ZM93.4756 400.346V401.907H91.9146V400.346H93.4756ZM95.0366 403.468V405.029H93.4756V403.468H95.0366ZM95.0366 405.029V406.59H93.4756V405.029H95.0366ZM95.0366 406.59V408.151H93.4756V406.59H95.0366ZM95.0366 408.151V409.712H93.4756V408.151H95.0366ZM95.0366 409.712V411.273H93.4756V409.712H95.0366ZM95.0366 411.273V412.834H93.4756V411.273H95.0366ZM96.5976 412.834V414.395H95.0366V412.834H96.5976ZM96.5976 414.395V415.956H95.0366V414.395H96.5976ZM96.5976 415.956V417.517H95.0366V415.956H96.5976ZM95.0366 414.395V415.956H93.4756V414.395H95.0366ZM104.433 433.127V434.688H102.872V433.127H104.433ZM104.433 431.566V433.127H102.872V431.566H104.433ZM104.433 430.005V431.566H102.872V430.005H104.433ZM104.433 428.444V430.005H102.872V428.444H104.433ZM104.433 426.883V428.444H102.872V426.883H104.433ZM104.433 425.322V426.883H102.872V425.322H104.433ZM104.433 423.761V425.322H102.872V423.761H104.433ZM104.433 422.2V423.761H102.872V422.2H104.433ZM104.433 420.639V422.2H102.872V420.639H104.433ZM104.433 419.078V420.639H102.872V419.078H104.433ZM104.433 417.517V419.078H102.872V417.517H104.433ZM104.433 415.956V417.517H102.872V415.956H104.433ZM104.433 414.395V415.956H102.872V414.395H104.433ZM104.433 412.834V414.395H102.872V412.834H104.433ZM104.433 411.273V412.834H102.872V411.273H104.433ZM105.994 411.273V412.834H104.433V411.273H105.994ZM105.994 412.834V414.395H104.433V412.834H105.994ZM105.994 414.395V415.956H104.433V414.395H105.994ZM105.994 415.956V417.517H104.433V415.956H105.994ZM105.994 417.517V419.078H104.433V417.517H105.994ZM105.994 419.078V420.639H104.433V419.078H105.994ZM105.994 420.639V422.2H104.433V420.639H105.994ZM107.555 422.2V423.761H105.994V422.2H107.555ZM107.555 423.761V425.322H105.994V423.761H107.555ZM107.555 425.322V426.883H105.994V425.322H107.555ZM107.555 426.883V428.444H105.994V426.883H107.555ZM107.555 428.444V430.005H105.994V428.444H107.555ZM107.555 430.005V431.566H105.994V430.005H107.555ZM107.555 431.566V433.127H105.994V431.566H107.555ZM107.555 433.127V434.688H105.994V433.127H107.555ZM109.116 433.127V434.688H107.555V433.127H109.116ZM110.677 433.127V434.688H109.116V433.127H110.677ZM110.677 431.566V433.127H109.116V431.566H110.677ZM110.677 430.005V431.566H109.116V430.005H110.677ZM110.677 428.444V430.005H109.116V428.444H110.677ZM110.677 426.883V428.444H109.116V426.883H110.677ZM110.677 425.322V426.883H109.116V425.322H110.677ZM110.677 423.761V425.322H109.116V423.761H110.677ZM110.677 422.2V423.761H109.116V422.2H110.677ZM109.116 422.2V423.761H107.555V422.2H109.116ZM109.116 420.639V422.2H107.555V420.639H109.116ZM109.116 423.761V425.322H107.555V423.761H109.116ZM109.116 425.322V426.883H107.555V425.322H109.116ZM109.116 426.883V428.444H107.555V426.883H109.116ZM109.116 428.444V430.005H107.555V428.444H109.116ZM109.116 430.005V431.566H107.555V430.005H109.116ZM109.116 431.566V433.127H107.555V431.566H109.116ZM105.994 433.127V434.688H104.433V433.127H105.994ZM105.994 431.566V433.127H104.433V431.566H105.994ZM105.994 430.005V431.566H104.433V430.005H105.994ZM105.994 428.444V430.005H104.433V428.444H105.994ZM105.994 426.883V428.444H104.433V426.883H105.994ZM105.994 425.322V426.883H104.433V425.322H105.994ZM105.994 423.761V425.322H104.433V423.761H105.994ZM105.994 422.2V423.761H104.433V422.2H105.994ZM104.433 405.029V406.59H102.872V405.029H104.433ZM104.433 406.59V408.151H102.872V406.59H104.433ZM104.433 408.151V409.712H102.872V408.151H104.433ZM104.433 409.712V411.273H102.872V409.712H104.433ZM109.116 406.59V408.151H107.555V406.59H109.116ZM109.116 408.151V409.712H107.555V408.151H109.116ZM109.116 409.712V411.273H107.555V409.712H109.116ZM109.116 411.273V412.834H107.555V411.273H109.116ZM109.116 412.834V414.395H107.555V412.834H109.116ZM109.116 414.395V415.956H107.555V414.395H109.116ZM109.116 415.956V417.517H107.555V415.956H109.116ZM110.677 417.517V419.078H109.116V417.517H110.677ZM110.677 419.078V420.639H109.116V419.078H110.677ZM110.677 420.639V422.2H109.116V420.639H110.677ZM110.677 415.956V417.517H109.116V415.956H110.677ZM110.677 414.395V415.956H109.116V414.395H110.677ZM110.677 412.834V414.395H109.116V412.834H110.677ZM110.677 411.273V412.834H109.116V411.273H110.677ZM110.677 409.712V411.273H109.116V409.712H110.677ZM110.677 408.151V409.712H109.116V408.151H110.677ZM110.677 406.59V408.151H109.116V406.59H110.677ZM110.677 405.029V406.59H109.116V405.029H110.677ZM109.116 405.029V406.59H107.555V405.029H109.116ZM107.555 405.029V406.59H105.994V405.029H107.555ZM107.555 406.59V408.151H105.994V406.59H107.555ZM105.994 408.151V409.712H104.433V408.151H105.994ZM105.994 409.712V411.273H104.433V409.712H105.994ZM105.994 406.59V408.151H104.433V406.59H105.994ZM105.994 405.029V406.59H104.433V405.029H105.994ZM107.555 408.151V409.712H105.994V408.151H107.555ZM107.555 409.712V411.273H105.994V409.712H107.555ZM107.555 411.273V412.834H105.994V411.273H107.555ZM107.555 412.834V414.395H105.994V412.834H107.555ZM107.555 414.395V415.956H105.994V414.395H107.555ZM107.555 415.956V417.517H105.994V415.956H107.555ZM107.555 417.517V419.078H105.994V417.517H107.555ZM107.555 419.078V420.639H105.994V419.078H107.555ZM107.555 420.639V422.2H105.994V420.639H107.555ZM109.116 419.078V420.639H107.555V419.078H109.116ZM109.116 417.517V419.078H107.555V417.517H109.116ZM121.604 411.273V412.834H120.043V411.273H121.604ZM121.604 405.029V406.59H120.043V405.029H121.604ZM121.604 406.59V408.151H120.043V406.59H121.604ZM123.165 406.59V408.151H121.604V406.59H123.165ZM124.726 408.151V409.712H123.165V408.151H124.726ZM123.165 409.712V411.273H121.604V409.712H123.165ZM123.165 408.151V409.712H121.604V408.151H123.165ZM121.604 408.151V409.712H120.043V408.151H121.604ZM120.043 408.151V409.712H118.482V408.151H120.043ZM120.043 409.712V411.273H118.482V409.712H120.043ZM121.604 409.712V411.273H120.043V409.712H121.604ZM120.043 411.273V412.834H118.482V411.273H120.043ZM118.482 409.712V411.273H116.921V409.712H118.482ZM118.482 408.151V409.712H116.921V408.151H118.482ZM118.482 406.59V408.151H116.921V406.59H118.482ZM118.482 405.029V406.59H116.921V405.029H118.482ZM120.043 405.029V406.59H118.482V405.029H120.043ZM120.043 406.59V408.151H118.482V406.59H120.043ZM116.921 405.029V406.59H115.36V405.029H116.921ZM116.921 406.59V408.151H115.36V406.59H116.921ZM116.921 408.151V409.712H115.36V408.151H116.921ZM116.921 409.712V411.273H115.36V409.712H116.921ZM115.36 405.029V406.59H113.799V405.029H115.36ZM115.36 406.59V408.151H113.799V406.59H115.36ZM113.799 406.59V408.151H112.238V406.59H113.799ZM113.799 408.151V409.712H112.238V408.151H113.799ZM112.238 408.151V409.712H110.677V408.151H112.238ZM112.238 409.712V411.273H110.677V409.712H112.238ZM113.799 409.712V411.273H112.238V409.712H113.799ZM115.36 409.712V411.273H113.799V409.712H115.36ZM115.36 408.151V409.712H113.799V408.151H115.36ZM112.238 411.273V412.834H110.677V411.273H112.238ZM113.799 405.029V406.59H112.238V405.029H113.799ZM112.238 406.59V408.151H110.677V406.59H112.238ZM118.482 411.273V412.834H116.921V411.273H118.482ZM120.043 412.834V414.395H118.482V412.834H120.043ZM129.433 395.663V397.224H127.872V395.663H129.433ZM129.433 397.224V398.785H127.872V397.224H129.433ZM129.433 398.785V400.346H127.872V398.785H129.433ZM134.116 395.663V397.224H132.555V395.663H134.116ZM134.116 397.224V398.785H132.555V397.224H134.116ZM134.116 398.785V400.346H132.555V398.785H134.116ZM135.677 398.785V400.346H134.116V398.785H135.677ZM135.677 397.224V398.785H134.116V397.224H135.677ZM135.677 395.663V397.224H134.116V395.663H135.677ZM132.555 395.663V397.224H130.994V395.663H132.555ZM130.994 395.663V397.224H129.433V395.663H130.994ZM130.994 397.224V398.785H129.433V397.224H130.994ZM132.555 397.224V398.785H130.994V397.224H132.555ZM132.555 398.785V400.346H130.994V398.785H132.555ZM130.994 398.785V400.346H129.433V398.785H130.994ZM129.433 400.346V401.907H127.872V400.346H129.433ZM130.994 400.346V401.907H129.433V400.346H130.994ZM132.555 400.346V401.907H130.994V400.346H132.555ZM134.116 400.346V401.907H132.555V400.346H134.116ZM135.677 400.346V401.907H134.116V400.346H135.677ZM129.433 433.127V434.688H127.872V433.127H129.433ZM129.433 431.566V433.127H127.872V431.566H129.433ZM129.433 430.005V431.566H127.872V430.005H129.433ZM129.433 428.444V430.005H127.872V428.444H129.433ZM129.433 426.883V428.444H127.872V426.883H129.433ZM129.433 425.322V426.883H127.872V425.322H129.433ZM129.433 423.761V425.322H127.872V423.761H129.433ZM129.433 422.2V423.761H127.872V422.2H129.433ZM129.433 420.639V422.2H127.872V420.639H129.433ZM129.433 419.078V420.639H127.872V419.078H129.433ZM129.433 417.517V419.078H127.872V417.517H129.433ZM129.433 415.956V417.517H127.872V415.956H129.433ZM129.433 414.395V415.956H127.872V414.395H129.433ZM129.433 412.834V414.395H127.872V412.834H129.433ZM129.433 411.273V412.834H127.872V411.273H129.433ZM130.994 411.273V412.834H129.433V411.273H130.994ZM130.994 412.834V414.395H129.433V412.834H130.994ZM130.994 414.395V415.956H129.433V414.395H130.994ZM130.994 415.956V417.517H129.433V415.956H130.994ZM130.994 417.517V419.078H129.433V417.517H130.994ZM130.994 419.078V420.639H129.433V419.078H130.994ZM130.994 420.639V422.2H129.433V420.639H130.994ZM132.555 422.2V423.761H130.994V422.2H132.555ZM132.555 423.761V425.322H130.994V423.761H132.555ZM132.555 425.322V426.883H130.994V425.322H132.555ZM132.555 426.883V428.444H130.994V426.883H132.555ZM132.555 428.444V430.005H130.994V428.444H132.555ZM132.555 430.005V431.566H130.994V430.005H132.555ZM132.555 431.566V433.127H130.994V431.566H132.555ZM132.555 433.127V434.688H130.994V433.127H132.555ZM134.116 433.127V434.688H132.555V433.127H134.116ZM135.677 433.127V434.688H134.116V433.127H135.677ZM135.677 431.566V433.127H134.116V431.566H135.677ZM135.677 430.005V431.566H134.116V430.005H135.677ZM135.677 428.444V430.005H134.116V428.444H135.677ZM135.677 426.883V428.444H134.116V426.883H135.677ZM135.677 425.322V426.883H134.116V425.322H135.677ZM135.677 423.761V425.322H134.116V423.761H135.677ZM135.677 422.2V423.761H134.116V422.2H135.677ZM134.116 422.2V423.761H132.555V422.2H134.116ZM134.116 420.639V422.2H132.555V420.639H134.116ZM134.116 423.761V425.322H132.555V423.761H134.116ZM134.116 425.322V426.883H132.555V425.322H134.116ZM134.116 426.883V428.444H132.555V426.883H134.116ZM134.116 428.444V430.005H132.555V428.444H134.116ZM134.116 430.005V431.566H132.555V430.005H134.116ZM134.116 431.566V433.127H132.555V431.566H134.116ZM130.994 433.127V434.688H129.433V433.127H130.994ZM130.994 431.566V433.127H129.433V431.566H130.994ZM130.994 430.005V431.566H129.433V430.005H130.994ZM130.994 428.444V430.005H129.433V428.444H130.994ZM130.994 426.883V428.444H129.433V426.883H130.994ZM130.994 425.322V426.883H129.433V425.322H130.994ZM130.994 423.761V425.322H129.433V423.761H130.994ZM130.994 422.2V423.761H129.433V422.2H130.994ZM129.433 408.151V409.712H127.872V408.151H129.433ZM129.433 409.712V411.273H127.872V409.712H129.433ZM134.116 408.151V409.712H132.555V408.151H134.116ZM134.116 409.712V411.273H132.555V409.712H134.116ZM134.116 411.273V412.834H132.555V411.273H134.116ZM134.116 412.834V414.395H132.555V412.834H134.116ZM134.116 414.395V415.956H132.555V414.395H134.116ZM134.116 415.956V417.517H132.555V415.956H134.116ZM135.677 417.517V419.078H134.116V417.517H135.677ZM135.677 419.078V420.639H134.116V419.078H135.677ZM135.677 420.639V422.2H134.116V420.639H135.677ZM135.677 415.956V417.517H134.116V415.956H135.677ZM135.677 414.395V415.956H134.116V414.395H135.677ZM135.677 412.834V414.395H134.116V412.834H135.677ZM135.677 411.273V412.834H134.116V411.273H135.677ZM135.677 409.712V411.273H134.116V409.712H135.677ZM135.677 408.151V409.712H134.116V408.151H135.677ZM130.994 408.151V409.712H129.433V408.151H130.994ZM130.994 409.712V411.273H129.433V409.712H130.994ZM132.555 408.151V409.712H130.994V408.151H132.555ZM132.555 409.712V411.273H130.994V409.712H132.555ZM132.555 411.273V412.834H130.994V411.273H132.555ZM132.555 412.834V414.395H130.994V412.834H132.555ZM132.555 414.395V415.956H130.994V414.395H132.555ZM132.555 415.956V417.517H130.994V415.956H132.555ZM132.555 417.517V419.078H130.994V417.517H132.555ZM132.555 419.078V420.639H130.994V419.078H132.555ZM132.555 420.639V422.2H130.994V420.639H132.555ZM134.116 419.078V420.639H132.555V419.078H134.116ZM134.116 417.517V419.078H132.555V417.517H134.116ZM134.116 406.59V408.151H132.555V406.59H134.116ZM135.677 406.59V408.151H134.116V406.59H135.677ZM132.555 406.59V408.151H130.994V406.59H132.555ZM130.994 406.59V408.151H129.433V406.59H130.994ZM129.433 406.59V408.151H127.872V406.59H129.433ZM143.495 433.127V434.688H141.934V433.127H143.495ZM143.495 431.566V433.127H141.934V431.566H143.495ZM143.495 430.005V431.566H141.934V430.005H143.495ZM143.495 428.444V430.005H141.934V428.444H143.495ZM143.495 426.883V428.444H141.934V426.883H143.495ZM143.495 425.322V426.883H141.934V425.322H143.495ZM143.495 423.761V425.322H141.934V423.761H143.495ZM143.495 422.2V423.761H141.934V422.2H143.495ZM143.495 420.639V422.2H141.934V420.639H143.495ZM143.495 419.078V420.639H141.934V419.078H143.495ZM143.495 417.517V419.078H141.934V417.517H143.495ZM143.495 415.956V417.517H141.934V415.956H143.495ZM143.495 414.395V415.956H141.934V414.395H143.495ZM143.495 412.834V414.395H141.934V412.834H143.495ZM143.495 411.273V412.834H141.934V411.273H143.495ZM145.056 411.273V412.834H143.495V411.273H145.056ZM145.056 412.834V414.395H143.495V412.834H145.056ZM145.056 414.395V415.956H143.495V414.395H145.056ZM145.056 415.956V417.517H143.495V415.956H145.056ZM145.056 417.517V419.078H143.495V417.517H145.056ZM145.056 419.078V420.639H143.495V419.078H145.056ZM145.056 420.639V422.2H143.495V420.639H145.056ZM146.617 422.2V423.761H145.056V422.2H146.617ZM146.617 423.761V425.322H145.056V423.761H146.617ZM146.617 425.322V426.883H145.056V425.322H146.617ZM146.617 426.883V428.444H145.056V426.883H146.617ZM146.617 428.444V430.005H145.056V428.444H146.617ZM146.617 430.005V431.566H145.056V430.005H146.617ZM146.617 431.566V433.127H145.056V431.566H146.617ZM146.617 433.127V434.688H145.056V433.127H146.617ZM148.178 433.127V434.688H146.617V433.127H148.178ZM149.739 433.127V434.688H148.178V433.127H149.739ZM149.739 431.566V433.127H148.178V431.566H149.739ZM149.739 430.005V431.566H148.178V430.005H149.739ZM149.739 428.444V430.005H148.178V428.444H149.739ZM149.739 426.883V428.444H148.178V426.883H149.739ZM149.739 425.322V426.883H148.178V425.322H149.739ZM149.739 423.761V425.322H148.178V423.761H149.739ZM149.739 422.2V423.761H148.178V422.2H149.739ZM148.178 422.2V423.761H146.617V422.2H148.178ZM148.178 420.639V422.2H146.617V420.639H148.178ZM148.178 423.761V425.322H146.617V423.761H148.178ZM148.178 425.322V426.883H146.617V425.322H148.178ZM148.178 426.883V428.444H146.617V426.883H148.178ZM148.178 428.444V430.005H146.617V428.444H148.178ZM148.178 430.005V431.566H146.617V430.005H148.178ZM148.178 431.566V433.127H146.617V431.566H148.178ZM145.056 433.127V434.688H143.495V433.127H145.056ZM145.056 431.566V433.127H143.495V431.566H145.056ZM145.056 430.005V431.566H143.495V430.005H145.056ZM145.056 428.444V430.005H143.495V428.444H145.056ZM145.056 426.883V428.444H143.495V426.883H145.056ZM145.056 425.322V426.883H143.495V425.322H145.056ZM145.056 423.761V425.322H143.495V423.761H145.056ZM145.056 422.2V423.761H143.495V422.2H145.056ZM143.495 405.029V406.59H141.934V405.029H143.495ZM143.495 406.59V408.151H141.934V406.59H143.495ZM143.495 408.151V409.712H141.934V408.151H143.495ZM143.495 409.712V411.273H141.934V409.712H143.495ZM148.178 406.59V408.151H146.617V406.59H148.178ZM148.178 408.151V409.712H146.617V408.151H148.178ZM148.178 409.712V411.273H146.617V409.712H148.178ZM148.178 411.273V412.834H146.617V411.273H148.178ZM148.178 412.834V414.395H146.617V412.834H148.178ZM148.178 414.395V415.956H146.617V414.395H148.178ZM148.178 415.956V417.517H146.617V415.956H148.178ZM149.739 417.517V419.078H148.178V417.517H149.739ZM149.739 419.078V420.639H148.178V419.078H149.739ZM149.739 420.639V422.2H148.178V420.639H149.739ZM149.739 415.956V417.517H148.178V415.956H149.739ZM149.739 414.395V415.956H148.178V414.395H149.739ZM149.739 412.834V414.395H148.178V412.834H149.739ZM149.739 411.273V412.834H148.178V411.273H149.739ZM149.739 409.712V411.273H148.178V409.712H149.739ZM149.739 408.151V409.712H148.178V408.151H149.739ZM149.739 406.59V408.151H148.178V406.59H149.739ZM149.739 405.029V406.59H148.178V405.029H149.739ZM148.178 405.029V406.59H146.617V405.029H148.178ZM146.617 405.029V406.59H145.056V405.029H146.617ZM146.617 406.59V408.151H145.056V406.59H146.617ZM145.056 408.151V409.712H143.495V408.151H145.056ZM145.056 409.712V411.273H143.495V409.712H145.056ZM145.056 406.59V408.151H143.495V406.59H145.056ZM145.056 405.029V406.59H143.495V405.029H145.056ZM146.617 408.151V409.712H145.056V408.151H146.617ZM146.617 409.712V411.273H145.056V409.712H146.617ZM146.617 411.273V412.834H145.056V411.273H146.617ZM146.617 412.834V414.395H145.056V412.834H146.617ZM146.617 414.395V415.956H145.056V414.395H146.617ZM146.617 415.956V417.517H145.056V415.956H146.617ZM146.617 417.517V419.078H145.056V417.517H146.617ZM146.617 419.078V420.639H145.056V419.078H146.617ZM146.617 420.639V422.2H145.056V420.639H146.617ZM148.178 419.078V420.639H146.617V419.078H148.178ZM148.178 417.517V419.078H146.617V417.517H148.178ZM160.666 433.127V434.688H159.105V433.127H160.666ZM162.227 433.127V434.688H160.666V433.127H162.227ZM163.788 433.127V434.688H162.227V433.127H163.788ZM165.349 433.127V434.688H163.788V433.127H165.349ZM166.91 431.566V433.127H165.349V431.566H166.91ZM166.91 430.005V431.566H165.349V430.005H166.91ZM166.91 433.127V434.688H165.349V433.127H166.91ZM165.349 431.566V433.127H163.788V431.566H165.349ZM163.788 431.566V433.127H162.227V431.566H163.788ZM162.227 431.566V433.127H160.666V431.566H162.227ZM160.666 431.566V433.127H159.105V431.566H160.666ZM160.666 430.005V431.566H159.105V430.005H160.666ZM160.666 428.444V430.005H159.105V428.444H160.666ZM162.227 428.444V430.005H160.666V428.444H162.227ZM163.788 428.444V430.005H162.227V428.444H163.788ZM165.349 428.444V430.005H163.788V428.444H165.349ZM166.91 428.444V430.005H165.349V428.444H166.91ZM165.349 430.005V431.566H163.788V430.005H165.349ZM163.788 430.005V431.566H162.227V430.005H163.788ZM162.227 430.005V431.566H160.666V430.005H162.227ZM166.91 411.273V412.834H165.349V411.273H166.91ZM165.349 411.273V412.834H163.788V411.273H165.349ZM162.227 411.273V412.834H160.666V411.273H162.227ZM162.227 412.834V414.395H160.666V412.834H162.227ZM162.227 414.395V415.956H160.666V414.395H162.227ZM160.666 415.956V417.517H159.105V415.956H160.666ZM160.666 417.517V419.078H159.105V417.517H160.666ZM160.666 419.078V420.639H159.105V419.078H160.666ZM160.666 420.639V422.2H159.105V420.639H160.666ZM160.666 422.2V423.761H159.105V422.2H160.666ZM160.666 423.761V425.322H159.105V423.761H160.666ZM160.666 425.322V426.883H159.105V425.322H160.666ZM160.666 426.883V428.444H159.105V426.883H160.666ZM162.227 426.883V428.444H160.666V426.883H162.227ZM163.788 426.883V428.444H162.227V426.883H163.788ZM165.349 426.883V428.444H163.788V426.883H165.349ZM166.91 426.883V428.444H165.349V426.883H166.91ZM166.91 425.322V426.883H165.349V425.322H166.91ZM166.91 422.2V423.761H165.349V422.2H166.91ZM166.91 420.639V422.2H165.349V420.639H166.91ZM166.91 419.078V420.639H165.349V419.078H166.91ZM166.91 417.517V419.078H165.349V417.517H166.91ZM166.91 415.956V417.517H165.349V415.956H166.91ZM166.91 414.395V415.956H165.349V414.395H166.91ZM166.91 412.834V414.395H165.349V412.834H166.91ZM165.349 419.078V420.639H163.788V419.078H165.349ZM165.349 422.2V423.761H163.788V422.2H165.349ZM165.349 423.761V425.322H163.788V423.761H165.349ZM165.349 425.322V426.883H163.788V425.322H165.349ZM166.91 423.761V425.322H165.349V423.761H166.91ZM165.349 415.956V417.517H163.788V415.956H165.349ZM163.788 415.956V417.517H162.227V415.956H163.788ZM162.227 415.956V417.517H160.666V415.956H162.227ZM162.227 417.517V419.078H160.666V417.517H162.227ZM162.227 419.078V420.639H160.666V419.078H162.227ZM162.227 420.639V422.2H160.666V420.639H162.227ZM162.227 422.2V423.761H160.666V422.2H162.227ZM162.227 423.761V425.322H160.666V423.761H162.227ZM162.227 425.322V426.883H160.666V425.322H162.227ZM163.788 425.322V426.883H162.227V425.322H163.788ZM163.788 423.761V425.322H162.227V423.761H163.788ZM163.788 422.2V423.761H162.227V422.2H163.788ZM163.788 420.639V422.2H162.227V420.639H163.788ZM163.788 419.078V420.639H162.227V419.078H163.788ZM163.788 417.517V419.078H162.227V417.517H163.788ZM165.349 417.517V419.078H163.788V417.517H165.349ZM165.349 420.639V422.2H163.788V420.639H165.349ZM165.349 414.395V415.956H163.788V414.395H165.349ZM165.349 412.834V414.395H163.788V412.834H165.349ZM163.788 412.834V414.395H162.227V412.834H163.788ZM163.788 414.395V415.956H162.227V414.395H163.788ZM160.666 414.395V415.956H159.105V414.395H160.666ZM160.666 412.834V414.395H159.105V412.834H160.666ZM160.666 411.273V412.834H159.105V411.273H160.666ZM163.788 411.273V412.834H162.227V411.273H163.788ZM160.666 405.029V406.59H159.105V405.029H160.666ZM160.666 406.59V408.151H159.105V406.59H160.666ZM162.227 406.59V408.151H160.666V406.59H162.227ZM163.788 406.59V408.151H162.227V406.59H163.788ZM163.788 408.151V409.712H162.227V408.151H163.788ZM165.349 408.151V409.712H163.788V408.151H165.349ZM165.349 409.712V411.273H163.788V409.712H165.349ZM163.788 409.712V411.273H162.227V409.712H163.788ZM162.227 409.712V411.273H160.666V409.712H162.227ZM162.227 408.151V409.712H160.666V408.151H162.227ZM160.666 408.151V409.712H159.105V408.151H160.666ZM159.105 408.151V409.712H157.544V408.151H159.105ZM159.105 409.712V411.273H157.544V409.712H159.105ZM160.666 409.712V411.273H159.105V409.712H160.666ZM159.105 411.273V412.834H157.544V411.273H159.105ZM157.544 409.712V411.273H155.983V409.712H157.544ZM157.544 408.151V409.712H155.983V408.151H157.544ZM157.544 406.59V408.151H155.983V406.59H157.544ZM157.544 405.029V406.59H155.983V405.029H157.544ZM159.105 405.029V406.59H157.544V405.029H159.105ZM159.105 406.59V408.151H157.544V406.59H159.105ZM155.983 405.029V406.59H154.422V405.029H155.983ZM155.983 406.59V408.151H154.422V406.59H155.983ZM155.983 408.151V409.712H154.422V408.151H155.983ZM155.983 409.712V411.273H154.422V409.712H155.983ZM154.422 405.029V406.59H152.861V405.029H154.422ZM154.422 406.59V408.151H152.861V406.59H154.422ZM152.861 406.59V408.151H151.3V406.59H152.861ZM152.861 408.151V409.712H151.3V408.151H152.861ZM151.3 408.151V409.712H149.739V408.151H151.3ZM151.3 409.712V411.273H149.739V409.712H151.3ZM152.861 409.712V411.273H151.3V409.712H152.861ZM154.422 409.712V411.273H152.861V409.712H154.422ZM154.422 408.151V409.712H152.861V408.151H154.422ZM151.3 411.273V412.834H149.739V411.273H151.3ZM152.861 405.029V406.59H151.3V405.029H152.861ZM151.3 406.59V408.151H149.739V406.59H151.3ZM173.183 433.127V434.688H171.622V433.127H173.183ZM173.183 431.566V433.127H171.622V431.566H173.183ZM173.183 430.005V431.566H171.622V430.005H173.183ZM173.183 428.444V430.005H171.622V428.444H173.183ZM173.183 426.883V428.444H171.622V426.883H173.183ZM173.183 425.322V426.883H171.622V425.322H173.183ZM173.183 423.761V425.322H171.622V423.761H173.183ZM173.183 422.2V423.761H171.622V422.2H173.183ZM173.183 420.639V422.2H171.622V420.639H173.183ZM173.183 419.078V420.639H171.622V419.078H173.183ZM173.183 417.517V419.078H171.622V417.517H173.183ZM173.183 415.956V417.517H171.622V415.956H173.183ZM173.183 414.395V415.956H171.622V414.395H173.183ZM173.183 412.834V414.395H171.622V412.834H173.183ZM173.183 411.273V412.834H171.622V411.273H173.183ZM174.744 411.273V412.834H173.183V411.273H174.744ZM174.744 412.834V414.395H173.183V412.834H174.744ZM174.744 414.395V415.956H173.183V414.395H174.744ZM174.744 415.956V417.517H173.183V415.956H174.744ZM174.744 417.517V419.078H173.183V417.517H174.744ZM174.744 419.078V420.639H173.183V419.078H174.744ZM174.744 420.639V422.2H173.183V420.639H174.744ZM176.305 422.2V423.761H174.744V422.2H176.305ZM176.305 423.761V425.322H174.744V423.761H176.305ZM176.305 425.322V426.883H174.744V425.322H176.305ZM176.305 426.883V428.444H174.744V426.883H176.305ZM176.305 428.444V430.005H174.744V428.444H176.305ZM176.305 430.005V431.566H174.744V430.005H176.305ZM176.305 431.566V433.127H174.744V431.566H176.305ZM176.305 433.127V434.688H174.744V433.127H176.305ZM177.866 433.127V434.688H176.305V433.127H177.866ZM179.427 433.127V434.688H177.866V433.127H179.427ZM179.427 431.566V433.127H177.866V431.566H179.427ZM179.427 430.005V431.566H177.866V430.005H179.427ZM179.427 428.444V430.005H177.866V428.444H179.427ZM179.427 426.883V428.444H177.866V426.883H179.427ZM179.427 425.322V426.883H177.866V425.322H179.427ZM179.427 423.761V425.322H177.866V423.761H179.427ZM179.427 422.2V423.761H177.866V422.2H179.427ZM177.866 422.2V423.761H176.305V422.2H177.866ZM177.866 420.639V422.2H176.305V420.639H177.866ZM177.866 423.761V425.322H176.305V423.761H177.866ZM177.866 425.322V426.883H176.305V425.322H177.866ZM177.866 426.883V428.444H176.305V426.883H177.866ZM177.866 428.444V430.005H176.305V428.444H177.866ZM177.866 430.005V431.566H176.305V430.005H177.866ZM177.866 431.566V433.127H176.305V431.566H177.866ZM174.744 433.127V434.688H173.183V433.127H174.744ZM174.744 431.566V433.127H173.183V431.566H174.744ZM174.744 430.005V431.566H173.183V430.005H174.744ZM174.744 428.444V430.005H173.183V428.444H174.744ZM174.744 426.883V428.444H173.183V426.883H174.744ZM174.744 425.322V426.883H173.183V425.322H174.744ZM174.744 423.761V425.322H173.183V423.761H174.744ZM174.744 422.2V423.761H173.183V422.2H174.744ZM173.183 395.663V397.224H171.622V395.663H173.183ZM173.183 397.224V398.785H171.622V397.224H173.183ZM173.183 398.785V400.346H171.622V398.785H173.183ZM173.183 400.346V401.907H171.622V400.346H173.183ZM173.183 401.907V403.468H171.622V401.907H173.183ZM173.183 403.468V405.029H171.622V403.468H173.183ZM173.183 405.029V406.59H171.622V405.029H173.183ZM173.183 406.59V408.151H171.622V406.59H173.183ZM173.183 408.151V409.712H171.622V408.151H173.183ZM173.183 409.712V411.273H171.622V409.712H173.183ZM177.866 395.663V397.224H176.305V395.663H177.866ZM177.866 397.224V398.785H176.305V397.224H177.866ZM177.866 398.785V400.346H176.305V398.785H177.866ZM177.866 400.346V401.907H176.305V400.346H177.866ZM177.866 401.907V403.468H176.305V401.907H177.866ZM177.866 403.468V405.029H176.305V403.468H177.866ZM177.866 406.59V408.151H176.305V406.59H177.866ZM177.866 408.151V409.712H176.305V408.151H177.866ZM177.866 409.712V411.273H176.305V409.712H177.866ZM177.866 411.273V412.834H176.305V411.273H177.866ZM177.866 412.834V414.395H176.305V412.834H177.866ZM177.866 414.395V415.956H176.305V414.395H177.866ZM177.866 415.956V417.517H176.305V415.956H177.866ZM179.427 417.517V419.078H177.866V417.517H179.427ZM179.427 419.078V420.639H177.866V419.078H179.427ZM179.427 420.639V422.2H177.866V420.639H179.427ZM179.427 415.956V417.517H177.866V415.956H179.427ZM179.427 414.395V415.956H177.866V414.395H179.427ZM179.427 412.834V414.395H177.866V412.834H179.427ZM179.427 411.273V412.834H177.866V411.273H179.427ZM179.427 409.712V411.273H177.866V409.712H179.427ZM179.427 408.151V409.712H177.866V408.151H179.427ZM179.427 406.59V408.151H177.866V406.59H179.427ZM179.427 405.029V406.59H177.866V405.029H179.427ZM179.427 403.468V405.029H177.866V403.468H179.427ZM179.427 401.907V403.468H177.866V401.907H179.427ZM177.866 405.029V406.59H176.305V405.029H177.866ZM179.427 400.346V401.907H177.866V400.346H179.427ZM179.427 398.785V400.346H177.866V398.785H179.427ZM179.427 397.224V398.785H177.866V397.224H179.427ZM179.427 395.663V397.224H177.866V395.663H179.427ZM176.305 395.663V397.224H174.744V395.663H176.305ZM174.744 395.663V397.224H173.183V395.663H174.744ZM174.744 397.224V398.785H173.183V397.224H174.744ZM176.305 397.224V398.785H174.744V397.224H176.305ZM176.305 398.785V400.346H174.744V398.785H176.305ZM176.305 400.346V401.907H174.744V400.346H176.305ZM176.305 401.907V403.468H174.744V401.907H176.305ZM176.305 403.468V405.029H174.744V403.468H176.305ZM176.305 405.029V406.59H174.744V405.029H176.305ZM176.305 406.59V408.151H174.744V406.59H176.305ZM174.744 408.151V409.712H173.183V408.151H174.744ZM174.744 409.712V411.273H173.183V409.712H174.744ZM174.744 406.59V408.151H173.183V406.59H174.744ZM174.744 405.029V406.59H173.183V405.029H174.744ZM174.744 403.468V405.029H173.183V403.468H174.744ZM174.744 401.907V403.468H173.183V401.907H174.744ZM174.744 400.346V401.907H173.183V400.346H174.744ZM174.744 398.785V400.346H173.183V398.785H174.744ZM176.305 408.151V409.712H174.744V408.151H176.305ZM176.305 409.712V411.273H174.744V409.712H176.305ZM176.305 411.273V412.834H174.744V411.273H176.305ZM176.305 412.834V414.395H174.744V412.834H176.305ZM176.305 414.395V415.956H174.744V414.395H176.305ZM176.305 415.956V417.517H174.744V415.956H176.305ZM176.305 417.517V419.078H174.744V417.517H176.305ZM176.305 419.078V420.639H174.744V419.078H176.305ZM176.305 420.639V422.2H174.744V420.639H176.305ZM177.866 419.078V420.639H176.305V419.078H177.866ZM177.866 417.517V419.078H176.305V417.517H177.866ZM187.232 406.59V408.151H185.671V406.59H187.232ZM187.232 405.029V406.59H185.671V405.029H187.232ZM188.793 405.029V406.59H187.232V405.029H188.793ZM190.354 405.029V406.59H188.793V405.029H190.354ZM191.915 405.029V406.59H190.354V405.029H191.915ZM193.476 405.029V406.59H191.915V405.029H193.476ZM193.476 406.59V408.151H191.915V406.59H193.476ZM193.476 408.151V409.712H191.915V408.151H193.476ZM193.476 409.712V411.273H191.915V409.712H193.476ZM193.476 411.273V412.834H191.915V411.273H193.476ZM191.915 411.273V412.834H190.354V411.273H191.915ZM191.915 412.834V414.395H190.354V412.834H191.915ZM190.354 412.834V414.395H188.793V412.834H190.354ZM190.354 414.395V415.956H188.793V414.395H190.354ZM188.793 414.395V415.956H187.232V414.395H188.793ZM188.793 415.956V417.517H187.232V415.956H188.793ZM187.232 415.956V417.517H185.671V415.956H187.232ZM187.232 417.517V419.078H185.671V417.517H187.232ZM187.232 419.078V420.639H185.671V419.078H187.232ZM188.793 419.078V420.639H187.232V419.078H188.793ZM188.793 420.639V422.2H187.232V420.639H188.793ZM190.354 420.639V422.2H188.793V420.639H190.354ZM190.354 422.2V423.761H188.793V422.2H190.354ZM191.915 422.2V423.761H190.354V422.2H191.915ZM191.915 423.761V425.322H190.354V423.761H191.915ZM193.476 423.761V425.322H191.915V423.761H193.476ZM193.476 425.322V426.883H191.915V425.322H193.476ZM193.476 426.883V428.444H191.915V426.883H193.476ZM193.476 428.444V430.005H191.915V428.444H193.476ZM193.476 430.005V431.566H191.915V430.005H193.476ZM193.476 431.566V433.127H191.915V431.566H193.476ZM193.476 433.127V434.688H191.915V433.127H193.476ZM187.232 408.151V409.712H185.671V408.151H187.232ZM187.232 409.712V411.273H185.671V409.712H187.232ZM187.232 411.273V412.834H185.671V411.273H187.232ZM185.671 411.273V412.834H184.11V411.273H185.671ZM187.232 412.834V414.395H185.671V412.834H187.232ZM185.671 412.834V414.395H184.11V412.834H185.671ZM185.671 414.395V415.956H184.11V414.395H185.671ZM184.11 412.834V414.395H182.549V412.834H184.11ZM184.11 414.395V415.956H182.549V414.395H184.11ZM185.671 415.956V417.517H184.11V415.956H185.671ZM187.232 414.395V415.956H185.671V414.395H187.232ZM188.793 412.834V414.395H187.232V412.834H188.793ZM190.354 411.273V412.834H188.793V411.273H190.354ZM191.915 409.712V411.273H190.354V409.712H191.915ZM191.915 408.151V409.712H190.354V408.151H191.915ZM191.915 406.59V408.151H190.354V406.59H191.915ZM190.354 406.59V408.151H188.793V406.59H190.354ZM188.793 408.151V409.712H187.232V408.151H188.793ZM188.793 409.712V411.273H187.232V409.712H188.793ZM188.793 411.273V412.834H187.232V411.273H188.793ZM190.354 409.712V411.273H188.793V409.712H190.354ZM190.354 408.151V409.712H188.793V408.151H190.354ZM188.793 406.59V408.151H187.232V406.59H188.793ZM182.549 414.395V415.956H180.988V414.395H182.549ZM180.988 414.395V415.956H179.427V414.395H180.988ZM180.988 415.956V417.517H179.427V415.956H180.988ZM180.988 417.517V419.078H179.427V417.517H180.988ZM180.988 419.078V420.639H179.427V419.078H180.988ZM182.549 419.078V420.639H180.988V419.078H182.549ZM182.549 420.639V422.2H180.988V420.639H182.549ZM180.988 420.639V422.2H179.427V420.639H180.988ZM184.11 420.639V422.2H182.549V420.639H184.11ZM184.11 422.2V423.761H182.549V422.2H184.11ZM185.671 422.2V423.761H184.11V422.2H185.671ZM185.671 423.761V425.322H184.11V423.761H185.671ZM187.232 423.761V425.322H185.671V423.761H187.232ZM187.232 425.322V426.883H185.671V425.322H187.232ZM188.793 426.883V428.444H187.232V426.883H188.793ZM188.793 428.444V430.005H187.232V428.444H188.793ZM188.793 430.005V431.566H187.232V430.005H188.793ZM187.232 430.005V431.566H185.671V430.005H187.232ZM187.232 428.444V430.005H185.671V428.444H187.232ZM187.232 426.883V428.444H185.671V426.883H187.232ZM187.232 431.566V433.127H185.671V431.566H187.232ZM187.232 433.127V434.688H185.671V433.127H187.232ZM188.793 433.127V434.688H187.232V433.127H188.793ZM190.354 433.127V434.688H188.793V433.127H190.354ZM191.915 433.127V434.688H190.354V433.127H191.915ZM191.915 431.566V433.127H190.354V431.566H191.915ZM190.354 431.566V433.127H188.793V431.566H190.354ZM188.793 431.566V433.127H187.232V431.566H188.793ZM190.354 430.005V431.566H188.793V430.005H190.354ZM191.915 430.005V431.566H190.354V430.005H191.915ZM191.915 428.444V430.005H190.354V428.444H191.915ZM191.915 426.883V428.444H190.354V426.883H191.915ZM191.915 425.322V426.883H190.354V425.322H191.915ZM190.354 425.322V426.883H188.793V425.322H190.354ZM190.354 426.883V428.444H188.793V426.883H190.354ZM190.354 428.444V430.005H188.793V428.444H190.354ZM190.354 423.761V425.322H188.793V423.761H190.354ZM188.793 423.761V425.322H187.232V423.761H188.793ZM188.793 422.2V423.761H187.232V422.2H188.793ZM187.232 422.2V423.761H185.671V422.2H187.232ZM187.232 420.639V422.2H185.671V420.639H187.232ZM185.671 420.639V422.2H184.11V420.639H185.671ZM185.671 419.078V420.639H184.11V419.078H185.671ZM185.671 417.517V419.078H184.11V417.517H185.671ZM184.11 417.517V419.078H182.549V417.517H184.11ZM184.11 415.956V417.517H182.549V415.956H184.11ZM182.549 415.956V417.517H180.988V415.956H182.549ZM182.549 417.517V419.078H180.988V417.517H182.549ZM184.11 419.078V420.639H182.549V419.078H184.11ZM188.793 425.322V426.883H187.232V425.322H188.793ZM221.601 411.273V412.834H220.04V411.273H221.601ZM220.04 411.273V412.834H218.479V411.273H220.04ZM218.479 411.273V412.834H216.918V411.273H218.479ZM216.918 411.273V412.834H215.357V411.273H216.918ZM215.357 409.712V411.273H213.796V409.712H215.357ZM216.918 409.712V411.273H215.357V409.712H216.918ZM218.479 409.712V411.273H216.918V409.712H218.479ZM220.04 409.712V411.273H218.479V409.712H220.04ZM221.601 409.712V411.273H220.04V409.712H221.601ZM221.601 408.151V409.712H220.04V408.151H221.601ZM220.04 408.151V409.712H218.479V408.151H220.04ZM218.479 408.151V409.712H216.918V408.151H218.479ZM216.918 408.151V409.712H215.357V408.151H216.918ZM215.357 408.151V409.712H213.796V408.151H215.357ZM218.479 406.59V408.151H216.918V406.59H218.479ZM220.04 406.59V408.151H218.479V406.59H220.04ZM216.918 406.59V408.151H215.357V406.59H216.918ZM216.918 405.029V406.59H215.357V405.029H216.918ZM215.357 405.029V406.59H213.796V405.029H215.357ZM215.357 406.59V408.151H213.796V406.59H215.357ZM213.796 406.59V408.151H212.235V406.59H213.796ZM213.796 405.029V406.59H212.235V405.029H213.796ZM213.796 408.151V409.712H212.235V408.151H213.796ZM212.235 408.151V409.712H210.674V408.151H212.235ZM212.235 409.712V411.273H210.674V409.712H212.235ZM213.796 409.712V411.273H212.235V409.712H213.796ZM210.674 409.712V411.273H209.113V409.712H210.674ZM210.674 408.151V409.712H209.113V408.151H210.674ZM210.674 406.59V408.151H209.113V406.59H210.674ZM210.674 405.029V406.59H209.113V405.029H210.674ZM212.235 405.029V406.59H210.674V405.029H212.235ZM212.235 406.59V408.151H210.674V406.59H212.235ZM209.113 405.029V406.59H207.552V405.029H209.113ZM207.552 405.029V406.59H205.991V405.029H207.552ZM205.991 405.029V406.59H204.43V405.029H205.991ZM205.991 406.59V408.151H204.43V406.59H205.991ZM205.991 408.151V409.712H204.43V408.151H205.991ZM205.991 409.712V411.273H204.43V409.712H205.991ZM207.552 409.712V411.273H205.991V409.712H207.552ZM209.113 409.712V411.273H207.552V409.712H209.113ZM209.113 408.151V409.712H207.552V408.151H209.113ZM209.113 406.59V408.151H207.552V406.59H209.113ZM207.552 406.59V408.151H205.991V406.59H207.552ZM207.552 408.151V409.712H205.991V408.151H207.552ZM204.43 408.151V409.712H202.869V408.151H204.43ZM204.43 406.59V408.151H202.869V406.59H204.43ZM202.869 406.59V408.151H201.308V406.59H202.869ZM202.869 408.151V409.712H201.308V408.151H202.869ZM201.308 408.151V409.712H199.747V408.151H201.308ZM201.308 409.712V411.273H199.747V409.712H201.308ZM201.308 411.273V412.834H199.747V411.273H201.308ZM202.869 411.273V412.834H201.308V411.273H202.869ZM202.869 409.712V411.273H201.308V409.712H202.869ZM204.43 409.712V411.273H202.869V409.712H204.43ZM204.43 411.273V412.834H202.869V411.273H204.43ZM205.991 411.273V412.834H204.43V411.273H205.991ZM207.552 411.273V412.834H205.991V411.273H207.552ZM199.747 411.273V412.834H198.186V411.273H199.747ZM199.747 412.834V414.395H198.186V412.834H199.747ZM199.747 414.395V415.956H198.186V414.395H199.747ZM199.747 425.322V426.883H198.186V425.322H199.747ZM201.308 425.322V426.883H199.747V425.322H201.308ZM201.308 426.883V428.444H199.747V426.883H201.308ZM199.747 426.883V428.444H198.186V426.883H199.747ZM202.869 426.883V428.444H201.308V426.883H202.869ZM204.43 426.883V428.444H202.869V426.883H204.43ZM205.991 426.883V428.444H204.43V426.883H205.991ZM207.552 426.883V428.444H205.991V426.883H207.552ZM205.991 425.322V426.883H204.43V425.322H205.991ZM205.991 414.395V415.956H204.43V414.395H205.991ZM205.991 412.834V414.395H204.43V412.834H205.991ZM204.43 412.834V414.395H202.869V412.834H204.43ZM202.869 412.834V414.395H201.308V412.834H202.869ZM201.308 412.834V414.395H199.747V412.834H201.308ZM201.308 414.395V415.956H199.747V414.395H201.308ZM202.869 425.322V426.883H201.308V425.322H202.869ZM204.43 425.322V426.883H202.869V425.322H204.43ZM202.869 414.395V415.956H201.308V414.395H202.869ZM204.43 414.395V415.956H202.869V414.395H204.43ZM216.918 423.761V425.322H215.357V423.761H216.918ZM216.918 425.322V426.883H215.357V425.322H216.918ZM218.479 425.322V426.883H216.918V425.322H218.479ZM220.04 425.322V426.883H218.479V425.322H220.04ZM221.601 425.322V426.883H220.04V425.322H221.601ZM223.162 425.322V426.883H221.601V425.322H223.162ZM223.162 423.761V425.322H221.601V423.761H223.162ZM221.601 423.761V425.322H220.04V423.761H221.601ZM220.04 423.761V425.322H218.479V423.761H220.04ZM218.479 423.761V425.322H216.918V423.761H218.479ZM223.162 426.883V428.444H221.601V426.883H223.162ZM221.601 426.883V428.444H220.04V426.883H221.601ZM220.04 426.883V428.444H218.479V426.883H220.04ZM218.479 426.883V428.444H216.918V426.883H218.479ZM216.918 426.883V428.444H215.357V426.883H216.918ZM215.357 426.883V428.444H213.796V426.883H215.357ZM215.357 428.444V430.005H213.796V428.444H215.357ZM216.918 428.444V430.005H215.357V428.444H216.918ZM218.479 428.444V430.005H216.918V428.444H218.479ZM220.04 428.444V430.005H218.479V428.444H220.04ZM220.04 430.005V431.566H218.479V430.005H220.04ZM221.601 430.005V431.566H220.04V430.005H221.601ZM221.601 428.444V430.005H220.04V428.444H221.601ZM220.04 431.566V433.127H218.479V431.566H220.04ZM218.479 431.566V433.127H216.918V431.566H218.479ZM218.479 430.005V431.566H216.918V430.005H218.479ZM216.918 430.005V431.566H215.357V430.005H216.918ZM216.918 431.566V433.127H215.357V431.566H216.918ZM216.918 433.127V434.688H215.357V433.127H216.918ZM215.357 433.127V434.688H213.796V433.127H215.357ZM213.796 433.127V434.688H212.235V433.127H213.796ZM212.235 433.127V434.688H210.674V433.127H212.235ZM210.674 433.127V434.688H209.113V433.127H210.674ZM209.113 433.127V434.688H207.552V433.127H209.113ZM207.552 433.127V434.688H205.991V433.127H207.552ZM205.991 433.127V434.688H204.43V433.127H205.991ZM207.552 431.566V433.127H205.991V431.566H207.552ZM209.113 431.566V433.127H207.552V431.566H209.113ZM210.674 431.566V433.127H209.113V431.566H210.674ZM212.235 431.566V433.127H210.674V431.566H212.235ZM213.796 431.566V433.127H212.235V431.566H213.796ZM215.357 431.566V433.127H213.796V431.566H215.357ZM215.357 430.005V431.566H213.796V430.005H215.357ZM213.796 430.005V431.566H212.235V430.005H213.796ZM212.235 430.005V431.566H210.674V430.005H212.235ZM210.674 430.005V431.566H209.113V430.005H210.674ZM209.113 430.005V431.566H207.552V430.005H209.113ZM207.552 430.005V431.566H205.991V430.005H207.552ZM205.991 431.566V433.127H204.43V431.566H205.991ZM204.43 431.566V433.127H202.869V431.566H204.43ZM202.869 431.566V433.127H201.308V431.566H202.869ZM202.869 430.005V431.566H201.308V430.005H202.869ZM201.308 430.005V431.566H199.747V430.005H201.308ZM201.308 428.444V430.005H199.747V428.444H201.308ZM202.869 428.444V430.005H201.308V428.444H202.869ZM204.43 428.444V430.005H202.869V428.444H204.43ZM205.991 428.444V430.005H204.43V428.444H205.991ZM207.552 428.444V430.005H205.991V428.444H207.552ZM209.113 428.444V430.005H207.552V428.444H209.113ZM210.674 428.444V430.005H209.113V428.444H210.674ZM212.235 428.444V430.005H210.674V428.444H212.235ZM213.796 428.444V430.005H212.235V428.444H213.796ZM205.991 430.005V431.566H204.43V430.005H205.991ZM204.43 430.005V431.566H202.869V430.005H204.43ZM220.04 420.639V422.2H218.479V420.639H220.04ZM223.162 422.2V423.761H221.601V422.2H223.162ZM221.601 422.2V423.761H220.04V422.2H221.601ZM220.04 422.2V423.761H218.479V422.2H220.04ZM218.479 422.2V423.761H216.918V422.2H218.479ZM218.479 420.639V422.2H216.918V420.639H218.479ZM216.918 420.639V422.2H215.357V420.639H216.918ZM216.918 422.2V423.761H215.357V422.2H216.918ZM207.552 414.395V415.956H205.991V414.395H207.552ZM201.308 415.956V417.517H199.747V415.956H201.308ZM201.308 417.517V419.078H199.747V417.517H201.308ZM202.869 417.517V419.078H201.308V417.517H202.869ZM202.869 419.078V420.639H201.308V419.078H202.869ZM204.43 419.078V420.639H202.869V419.078H204.43ZM205.991 420.639V422.2H204.43V420.639H205.991ZM205.991 419.078V420.639H204.43V419.078H205.991ZM205.991 417.517V419.078H204.43V417.517H205.991ZM205.991 415.956V417.517H204.43V415.956H205.991ZM204.43 415.956V417.517H202.869V415.956H204.43ZM204.43 417.517V419.078H202.869V417.517H204.43ZM202.869 415.956V417.517H201.308V415.956H202.869ZM207.552 420.639V422.2H205.991V420.639H207.552ZM209.113 420.639V422.2H207.552V420.639H209.113ZM210.674 420.639V422.2H209.113V420.639H210.674ZM212.235 420.639V422.2H210.674V420.639H212.235ZM212.235 419.078V420.639H210.674V419.078H212.235ZM210.674 419.078V420.639H209.113V419.078H210.674ZM209.113 419.078V420.639H207.552V419.078H209.113ZM207.552 419.078V420.639H205.991V419.078H207.552ZM207.552 417.517V419.078H205.991V417.517H207.552ZM207.552 415.956V417.517H205.991V415.956H207.552ZM209.113 415.956V417.517H207.552V415.956H209.113ZM210.674 415.956V417.517H209.113V415.956H210.674ZM212.235 415.956V417.517H210.674V415.956H212.235ZM212.235 417.517V419.078H210.674V417.517H212.235ZM210.674 417.517V419.078H209.113V417.517H210.674ZM209.113 417.517V419.078H207.552V417.517H209.113ZM213.796 415.956V417.517H212.235V415.956H213.796ZM215.357 415.956V417.517H213.796V415.956H215.357ZM215.357 417.517V419.078H213.796V417.517H215.357ZM215.357 419.078V420.639H213.796V419.078H215.357ZM215.357 420.639V422.2H213.796V420.639H215.357ZM213.796 420.639V422.2H212.235V420.639H213.796ZM213.796 419.078V420.639H212.235V419.078H213.796ZM213.796 417.517V419.078H212.235V417.517H213.796ZM215.357 422.2V423.761H213.796V422.2H215.357ZM216.918 415.956V417.517H215.357V415.956H216.918ZM221.601 420.639V422.2H220.04V420.639H221.601ZM221.601 419.078V420.639H220.04V419.078H221.601ZM220.04 417.517V419.078H218.479V417.517H220.04ZM218.479 417.517V419.078H216.918V417.517H218.479ZM216.918 417.517V419.078H215.357V417.517H216.918ZM216.918 419.078V420.639H215.357V419.078H216.918ZM218.479 419.078V420.639H216.918V419.078H218.479ZM220.04 419.078V420.639H218.479V419.078H220.04ZM215.357 411.273V412.834H213.796V411.273H215.357Z" fill="#C21E1E"/>
</svg>
