<svg width="284" height="444" viewBox="0 0 284 444" fill="none" xmlns="http://www.w3.org/2000/svg">
<path d="M282.834 25.3252C282.56 21.7048 279.405 18.9908 275.784 19.265C272.164 19.5384 269.45 22.6947 269.723 26.315C271.126 44.8822 269.139 71.9634 251.709 95.5384C234.255 119.147 209.5 127.36 196.2 131.774C176.505 138.307 158.425 140.01 141.655 139.57C143.125 136.399 143.952 132.87 143.952 129.15C143.952 117.57 135.994 107.813 125.26 105.06V96.4884H160.36C173.652 96.4884 184.464 85.6752 184.464 72.3845V65.3728C184.464 61.7416 181.521 58.7994 177.891 58.7994H145.899L159.053 16.3705C160.254 12.497 159.563 8.4025 157.157 5.13844C154.751 1.87438 151.045 0.00250183 146.99 0.00250183H112.112C108.482 0.00250183 105.539 2.94469 105.539 6.57594C105.539 10.2072 108.482 13.1494 112.112 13.1494H146.287L132.135 58.8002H105.032L85.6648 4.37047C84.4484 0.950158 80.6867 -0.832654 77.268 0.380627C73.8469 1.59781 72.0617 5.35797 73.2781 8.77828L91.0773 58.7986H60.0023C56.3719 58.7986 53.4289 61.7408 53.4289 65.372V72.3837C53.4289 85.6744 64.2414 96.4877 77.5328 96.4877H112.114V105.285C101.788 108.306 94.2195 117.859 94.2195 129.15C94.2195 130.981 94.4234 132.763 94.8016 134.482C68.6961 130.799 45.9953 129.011 27.2711 146.336C22.175 151.053 10.1469 164.07 8.53203 183.035C8.42265 184.319 6.14063 214.664 30.7055 231.124C40.4898 237.681 50.6359 239.499 58.8781 239.499C62.1687 239.499 65.1531 239.209 67.6914 238.815C69.5984 244.302 73.4344 248.89 78.3844 251.77C54.0695 265.27 37.5742 291.213 37.5742 320.94C37.5742 335.653 41.6727 349.945 49.2711 362.312H30.7781C13.807 362.312 0 376.12 0 393.09V393.428C0 397.059 2.94297 400.001 6.57344 400.001H231.32C234.951 400.001 237.894 397.059 237.894 393.428V393.09C237.894 376.119 224.088 362.312 207.116 362.312H65.3219C55.8875 350.62 50.7211 336.043 50.7211 320.94C50.7211 284.595 80.2898 255.027 116.634 255.027C152.979 255.027 182.548 284.595 182.548 320.94C182.548 327.861 181.483 334.675 179.38 341.192C178.266 344.647 180.163 348.352 183.619 349.466C187.075 350.581 190.778 348.682 191.893 345.227C194.416 337.403 195.695 329.231 195.695 320.939C195.695 292.103 180.175 266.828 157.052 253.017C165.567 249.294 171.536 240.794 171.536 230.922C171.536 220.074 164.331 210.88 154.456 207.866C152.775 197.021 146.224 187.77 137.119 182.409C141.115 177.995 143.552 172.145 143.552 165.737C143.552 160.932 142.179 156.444 139.809 152.637C158.168 153.235 178.413 151.526 200.338 144.253C213.975 139.728 242.349 130.313 262.28 103.356C283.159 75.1158 284.12 42.3447 282.834 25.3252ZM62.1906 375.457C62.2187 375.457 62.2461 375.462 62.2742 375.462C62.307 375.462 62.3391 375.459 62.3719 375.457H207.117C214.644 375.457 221.084 380.198 223.609 386.852H14.2867C16.8109 380.199 23.2516 375.457 30.7781 375.457H62.1906ZM77.532 83.3408C71.4914 83.3408 66.5758 78.4252 66.5758 72.3845V71.9463H100.394H136.98H171.317V72.3845C171.317 78.4259 166.402 83.3408 160.361 83.3408H77.532ZM117.45 117.557C117.852 117.634 118.264 117.678 118.688 117.678C119.22 117.678 119.736 117.607 120.233 117.488C126.158 118.066 130.805 123.074 130.805 129.149C130.805 133.02 128.91 136.448 126.009 138.583C120.574 138.06 115.281 137.391 110.116 136.676C108.404 134.638 107.367 132.013 107.367 129.149C107.366 123.243 111.762 118.357 117.45 117.557ZM118.688 154.015C125.15 154.015 130.407 159.272 130.407 165.735C130.407 172.196 125.15 177.453 118.688 177.453C112.226 177.454 106.969 172.196 106.969 165.735C106.969 159.273 112.226 154.015 118.688 154.015ZM66.9586 225.589C60.6562 226.738 48.8484 227.453 38.0242 220.2C19.8258 208.006 21.6117 184.384 21.632 184.146C22.8555 169.763 32.2281 159.659 36.2 155.984C51.8469 141.505 71.7844 144.407 99.3789 148.421C99.8102 148.485 100.248 148.548 100.682 148.61C96.4351 153.074 93.8211 159.103 93.8211 165.735C93.8211 172.239 96.3344 178.165 100.436 182.6C91.5055 187.99 85.0969 197.151 83.4359 207.863C75.2297 210.368 68.8734 217.144 66.9586 225.589ZM147.433 219.965C153.474 219.965 158.389 224.88 158.389 230.921C158.389 236.963 153.474 241.878 147.433 241.878H90.4602C84.4187 241.878 79.5039 236.963 79.5039 230.921C79.5039 224.88 84.4187 219.965 90.4602 219.965H147.433ZM140.766 206.817H97.1289C99.957 197.445 108.666 190.602 118.947 190.602C129.227 190.602 137.936 197.447 140.766 206.817Z" fill="#C21E1E"/>
<path d="M36.6829 442.439V444H35.122V442.439H36.6829ZM36.6829 440.878V442.439H35.122V440.878H36.6829ZM36.6829 439.317V440.878H35.122V439.317H36.6829ZM36.6829 437.756V439.317H35.122V437.756H36.6829ZM36.6829 436.195V437.756H35.122V436.195H36.6829ZM36.6829 434.634V436.195H35.122V434.634H36.6829ZM36.6829 433.073V434.634H35.122V433.073H36.6829ZM36.6829 431.512V433.073H35.122V431.512H36.6829ZM36.6829 429.951V431.512H35.122V429.951H36.6829ZM36.6829 428.39V429.951H35.122V428.39H36.6829ZM36.6829 426.829V428.39H35.122V426.829H36.6829ZM36.6829 425.268V426.829H35.122V425.268H36.6829ZM36.6829 423.707V425.268H35.122V423.707H36.6829ZM36.6829 422.146V423.707H35.122V422.146H36.6829ZM36.6829 420.585V422.146H35.122V420.585H36.6829ZM38.2439 420.585V422.146H36.6829V420.585H38.2439ZM38.2439 422.146V423.707H36.6829V422.146H38.2439ZM38.2439 423.707V425.268H36.6829V423.707H38.2439ZM38.2439 425.268V426.829H36.6829V425.268H38.2439ZM38.2439 426.829V428.39H36.6829V426.829H38.2439ZM38.2439 428.39V429.951H36.6829V428.39H38.2439ZM38.2439 429.951V431.512H36.6829V429.951H38.2439ZM39.8049 431.512V433.073H38.2439V431.512H39.8049ZM39.8049 433.073V434.634H38.2439V433.073H39.8049ZM39.8049 434.634V436.195H38.2439V434.634H39.8049ZM39.8049 436.195V437.756H38.2439V436.195H39.8049ZM39.8049 437.756V439.317H38.2439V437.756H39.8049ZM39.8049 439.317V440.878H38.2439V439.317H39.8049ZM39.8049 440.878V442.439H38.2439V440.878H39.8049ZM39.8049 442.439V444H38.2439V442.439H39.8049ZM41.3659 442.439V444H39.8049V442.439H41.3659ZM42.9268 442.439V444H41.3659V442.439H42.9268ZM42.9268 440.878V442.439H41.3659V440.878H42.9268ZM42.9268 439.317V440.878H41.3659V439.317H42.9268ZM42.9268 437.756V439.317H41.3659V437.756H42.9268ZM42.9268 436.195V437.756H41.3659V436.195H42.9268ZM42.9268 434.634V436.195H41.3659V434.634H42.9268ZM42.9268 433.073V434.634H41.3659V433.073H42.9268ZM42.9268 431.512V433.073H41.3659V431.512H42.9268ZM41.3659 431.512V433.073H39.8049V431.512H41.3659ZM41.3659 429.951V431.512H39.8049V429.951H41.3659ZM41.3659 433.073V434.634H39.8049V433.073H41.3659ZM41.3659 434.634V436.195H39.8049V434.634H41.3659ZM41.3659 436.195V437.756H39.8049V436.195H41.3659ZM41.3659 437.756V439.317H39.8049V437.756H41.3659ZM41.3659 439.317V440.878H39.8049V439.317H41.3659ZM41.3659 440.878V442.439H39.8049V440.878H41.3659ZM38.2439 442.439V444H36.6829V442.439H38.2439ZM38.2439 440.878V442.439H36.6829V440.878H38.2439ZM38.2439 439.317V440.878H36.6829V439.317H38.2439ZM38.2439 437.756V439.317H36.6829V437.756H38.2439ZM38.2439 436.195V437.756H36.6829V436.195H38.2439ZM38.2439 434.634V436.195H36.6829V434.634H38.2439ZM38.2439 433.073V434.634H36.6829V433.073H38.2439ZM38.2439 431.512V433.073H36.6829V431.512H38.2439ZM36.6829 404.976V406.537H35.122V404.976H36.6829ZM36.6829 406.537V408.098H35.122V406.537H36.6829ZM36.6829 408.098V409.659H35.122V408.098H36.6829ZM36.6829 409.659V411.22H35.122V409.659H36.6829ZM36.6829 411.22V412.78H35.122V411.22H36.6829ZM36.6829 412.78V414.341H35.122V412.78H36.6829ZM36.6829 414.341V415.902H35.122V414.341H36.6829ZM36.6829 415.902V417.463H35.122V415.902H36.6829ZM36.6829 417.463V419.024H35.122V417.463H36.6829ZM36.6829 419.024V420.585H35.122V419.024H36.6829ZM41.3659 404.976V406.537H39.8049V404.976H41.3659ZM41.3659 406.537V408.098H39.8049V406.537H41.3659ZM41.3659 408.098V409.659H39.8049V408.098H41.3659ZM41.3659 409.659V411.22H39.8049V409.659H41.3659ZM41.3659 411.22V412.78H39.8049V411.22H41.3659ZM41.3659 412.78V414.341H39.8049V412.78H41.3659ZM41.3659 415.902V417.463H39.8049V415.902H41.3659ZM41.3659 417.463V419.024H39.8049V417.463H41.3659ZM41.3659 419.024V420.585H39.8049V419.024H41.3659ZM41.3659 420.585V422.146H39.8049V420.585H41.3659ZM41.3659 422.146V423.707H39.8049V422.146H41.3659ZM41.3659 423.707V425.268H39.8049V423.707H41.3659ZM41.3659 425.268V426.829H39.8049V425.268H41.3659ZM42.9268 426.829V428.39H41.3659V426.829H42.9268ZM42.9268 428.39V429.951H41.3659V428.39H42.9268ZM42.9268 429.951V431.512H41.3659V429.951H42.9268ZM42.9268 425.268V426.829H41.3659V425.268H42.9268ZM42.9268 423.707V425.268H41.3659V423.707H42.9268ZM42.9268 422.146V423.707H41.3659V422.146H42.9268ZM42.9268 420.585V422.146H41.3659V420.585H42.9268ZM42.9268 419.024V420.585H41.3659V419.024H42.9268ZM42.9268 417.463V419.024H41.3659V417.463H42.9268ZM42.9268 415.902V417.463H41.3659V415.902H42.9268ZM42.9268 414.341V415.902H41.3659V414.341H42.9268ZM42.9268 412.78V414.341H41.3659V412.78H42.9268ZM42.9268 411.22V412.78H41.3659V411.22H42.9268ZM41.3659 414.341V415.902H39.8049V414.341H41.3659ZM42.9268 409.659V411.22H41.3659V409.659H42.9268ZM42.9268 408.098V409.659H41.3659V408.098H42.9268ZM42.9268 406.537V408.098H41.3659V406.537H42.9268ZM42.9268 404.976V406.537H41.3659V404.976H42.9268ZM39.8049 404.976V406.537H38.2439V404.976H39.8049ZM38.2439 404.976V406.537H36.6829V404.976H38.2439ZM38.2439 406.537V408.098H36.6829V406.537H38.2439ZM39.8049 406.537V408.098H38.2439V406.537H39.8049ZM39.8049 408.098V409.659H38.2439V408.098H39.8049ZM39.8049 409.659V411.22H38.2439V409.659H39.8049ZM39.8049 411.22V412.78H38.2439V411.22H39.8049ZM39.8049 412.78V414.341H38.2439V412.78H39.8049ZM39.8049 414.341V415.902H38.2439V414.341H39.8049ZM39.8049 415.902V417.463H38.2439V415.902H39.8049ZM38.2439 417.463V419.024H36.6829V417.463H38.2439ZM38.2439 419.024V420.585H36.6829V419.024H38.2439ZM38.2439 415.902V417.463H36.6829V415.902H38.2439ZM38.2439 414.341V415.902H36.6829V414.341H38.2439ZM38.2439 412.78V414.341H36.6829V412.78H38.2439ZM38.2439 411.22V412.78H36.6829V411.22H38.2439ZM38.2439 409.659V411.22H36.6829V409.659H38.2439ZM38.2439 408.098V409.659H36.6829V408.098H38.2439ZM39.8049 417.463V419.024H38.2439V417.463H39.8049ZM39.8049 419.024V420.585H38.2439V419.024H39.8049ZM39.8049 420.585V422.146H38.2439V420.585H39.8049ZM39.8049 422.146V423.707H38.2439V422.146H39.8049ZM39.8049 423.707V425.268H38.2439V423.707H39.8049ZM39.8049 425.268V426.829H38.2439V425.268H39.8049ZM39.8049 426.829V428.39H38.2439V426.829H39.8049ZM39.8049 428.39V429.951H38.2439V428.39H39.8049ZM39.8049 429.951V431.512H38.2439V429.951H39.8049ZM41.3659 428.39V429.951H39.8049V428.39H41.3659ZM41.3659 426.829V428.39H39.8049V426.829H41.3659ZM55.4146 404.976V406.537H53.8537V404.976H55.4146ZM55.4146 406.537V408.098H53.8537V406.537H55.4146ZM55.4146 408.098V409.659H53.8537V408.098H55.4146ZM55.4146 411.22V412.78H53.8537V411.22H55.4146ZM55.4146 412.78V414.341H53.8537V412.78H55.4146ZM55.4146 414.341V415.902H53.8537V414.341H55.4146ZM55.4146 415.902V417.463H53.8537V415.902H55.4146ZM55.4146 417.463V419.024H53.8537V417.463H55.4146ZM55.4146 419.024V420.585H53.8537V419.024H55.4146ZM55.4146 420.585V422.146H53.8537V420.585H55.4146ZM56.9756 422.146V423.707H55.4146V422.146H56.9756ZM56.9756 423.707V425.268H55.4146V423.707H56.9756ZM56.9756 425.268V426.829H55.4146V425.268H56.9756ZM56.9756 426.829V428.39H55.4146V426.829H56.9756ZM56.9756 428.39V429.951H55.4146V428.39H56.9756ZM56.9756 429.951V431.512H55.4146V429.951H56.9756ZM58.5366 429.951V431.512H56.9756V429.951H58.5366ZM58.5366 431.512V433.073H56.9756V431.512H58.5366ZM58.5366 433.073V434.634H56.9756V433.073H58.5366ZM58.5366 434.634V436.195H56.9756V434.634H58.5366ZM58.5366 436.195V437.756H56.9756V436.195H58.5366ZM58.5366 437.756V439.317H56.9756V437.756H58.5366ZM58.5366 439.317V440.878H56.9756V439.317H58.5366ZM58.5366 440.878V442.439H56.9756V440.878H58.5366ZM58.5366 442.439V444H56.9756V442.439H58.5366ZM56.9756 442.439V444H55.4146V442.439H56.9756ZM56.9756 440.878V442.439H55.4146V440.878H56.9756ZM56.9756 439.317V440.878H55.4146V439.317H56.9756ZM56.9756 437.756V439.317H55.4146V437.756H56.9756ZM56.9756 436.195V437.756H55.4146V436.195H56.9756ZM56.9756 434.634V436.195H55.4146V434.634H56.9756ZM56.9756 433.073V434.634H55.4146V433.073H56.9756ZM55.4146 433.073V434.634H53.8537V433.073H55.4146ZM55.4146 431.512V433.073H53.8537V431.512H55.4146ZM56.9756 431.512V433.073H55.4146V431.512H56.9756ZM55.4146 422.146V423.707H53.8537V422.146H55.4146ZM55.4146 423.707V425.268H53.8537V423.707H55.4146ZM55.4146 425.268V426.829H53.8537V425.268H55.4146ZM55.4146 426.829V428.39H53.8537V426.829H55.4146ZM55.4146 428.39V429.951H53.8537V428.39H55.4146ZM55.4146 429.951V431.512H53.8537V429.951H55.4146ZM55.4146 409.659V411.22H53.8537V409.659H55.4146ZM55.4146 434.634V436.195H53.8537V434.634H55.4146ZM55.4146 436.195V437.756H53.8537V436.195H55.4146ZM55.4146 437.756V439.317H53.8537V437.756H55.4146ZM55.4146 439.317V440.878H53.8537V439.317H55.4146ZM55.4146 440.878V442.439H53.8537V440.878H55.4146ZM55.4146 442.439V444H53.8537V442.439H55.4146ZM60.0976 442.439V444H58.5366V442.439H60.0976ZM61.6585 442.439V444H60.0976V442.439H61.6585ZM61.6585 440.878V442.439H60.0976V440.878H61.6585ZM61.6585 439.317V440.878H60.0976V439.317H61.6585ZM61.6585 437.756V439.317H60.0976V437.756H61.6585ZM61.6585 436.195V437.756H60.0976V436.195H61.6585ZM61.6585 434.634V436.195H60.0976V434.634H61.6585ZM61.6585 433.073V434.634H60.0976V433.073H61.6585ZM61.6585 431.512V433.073H60.0976V431.512H61.6585ZM61.6585 429.951V431.512H60.0976V429.951H61.6585ZM61.6585 428.39V429.951H60.0976V428.39H61.6585ZM61.6585 426.829V428.39H60.0976V426.829H61.6585ZM61.6585 425.268V426.829H60.0976V425.268H61.6585ZM61.6585 423.707V425.268H60.0976V423.707H61.6585ZM61.6585 422.146V423.707H60.0976V422.146H61.6585ZM61.6585 420.585V422.146H60.0976V420.585H61.6585ZM61.6585 419.024V420.585H60.0976V419.024H61.6585ZM61.6585 417.463V419.024H60.0976V417.463H61.6585ZM61.6585 415.902V417.463H60.0976V415.902H61.6585ZM61.6585 414.341V415.902H60.0976V414.341H61.6585ZM56.9756 404.976V406.537H55.4146V404.976H56.9756ZM58.5366 404.976V406.537H56.9756V404.976H58.5366ZM60.0976 404.976V406.537H58.5366V404.976H60.0976ZM61.6585 404.976V406.537H60.0976V404.976H61.6585ZM61.6585 406.537V408.098H60.0976V406.537H61.6585ZM61.6585 408.098V409.659H60.0976V408.098H61.6585ZM61.6585 409.659V411.22H60.0976V409.659H61.6585ZM61.6585 411.22V412.78H60.0976V411.22H61.6585ZM61.6585 412.78V414.341H60.0976V412.78H61.6585ZM56.9756 406.537V408.098H55.4146V406.537H56.9756ZM58.5366 406.537V408.098H56.9756V406.537H58.5366ZM60.0976 406.537V408.098H58.5366V406.537H60.0976ZM60.0976 408.098V409.659H58.5366V408.098H60.0976ZM60.0976 409.659V411.22H58.5366V409.659H60.0976ZM60.0976 411.22V412.78H58.5366V411.22H60.0976ZM60.0976 412.78V414.341H58.5366V412.78H60.0976ZM58.5366 412.78V414.341H56.9756V412.78H58.5366ZM58.5366 411.22V412.78H56.9756V411.22H58.5366ZM58.5366 409.659V411.22H56.9756V409.659H58.5366ZM58.5366 408.098V409.659H56.9756V408.098H58.5366ZM56.9756 408.098V409.659H55.4146V408.098H56.9756ZM56.9756 409.659V411.22H55.4146V409.659H56.9756ZM56.9756 411.22V412.78H55.4146V411.22H56.9756ZM56.9756 412.78V414.341H55.4146V412.78H56.9756ZM56.9756 414.341V415.902H55.4146V414.341H56.9756ZM56.9756 415.902V417.463H55.4146V415.902H56.9756ZM56.9756 417.463V419.024H55.4146V417.463H56.9756ZM56.9756 419.024V420.585H55.4146V419.024H56.9756ZM58.5366 419.024V420.585H56.9756V419.024H58.5366ZM58.5366 417.463V419.024H56.9756V417.463H58.5366ZM58.5366 415.902V417.463H56.9756V415.902H58.5366ZM58.5366 414.341V415.902H56.9756V414.341H58.5366ZM60.0976 414.341V415.902H58.5366V414.341H60.0976ZM60.0976 415.902V417.463H58.5366V415.902H60.0976ZM60.0976 417.463V419.024H58.5366V417.463H60.0976ZM60.0976 419.024V420.585H58.5366V419.024H60.0976ZM60.0976 420.585V422.146H58.5366V420.585H60.0976ZM60.0976 422.146V423.707H58.5366V422.146H60.0976ZM60.0976 423.707V425.268H58.5366V423.707H60.0976ZM60.0976 425.268V426.829H58.5366V425.268H60.0976ZM60.0976 426.829V428.39H58.5366V426.829H60.0976ZM60.0976 428.39V429.951H58.5366V428.39H60.0976ZM58.5366 428.39V429.951H56.9756V428.39H58.5366ZM58.5366 426.829V428.39H56.9756V426.829H58.5366ZM58.5366 425.268V426.829H56.9756V425.268H58.5366ZM58.5366 423.707V425.268H56.9756V423.707H58.5366ZM58.5366 422.146V423.707H56.9756V422.146H58.5366ZM56.9756 420.585V422.146H55.4146V420.585H56.9756ZM58.5366 420.585V422.146H56.9756V420.585H58.5366ZM60.0976 429.951V431.512H58.5366V429.951H60.0976ZM60.0976 431.512V433.073H58.5366V431.512H60.0976ZM60.0976 433.073V434.634H58.5366V433.073H60.0976ZM60.0976 434.634V436.195H58.5366V434.634H60.0976ZM60.0976 436.195V437.756H58.5366V436.195H60.0976ZM60.0976 437.756V439.317H58.5366V437.756H60.0976ZM60.0976 439.317V440.878H58.5366V439.317H60.0976ZM60.0976 440.878V442.439H58.5366V440.878H60.0976ZM44.4878 423.707V425.268H42.9268V423.707H44.4878ZM46.0488 423.707V425.268H44.4878V423.707H46.0488ZM47.6098 423.707V425.268H46.0488V423.707H47.6098ZM49.1707 423.707V425.268H47.6098V423.707H49.1707ZM50.7317 423.707V425.268H49.1707V423.707H50.7317ZM52.2927 423.707V425.268H50.7317V423.707H52.2927ZM53.8537 423.707V425.268H52.2927V423.707H53.8537ZM53.8537 425.268V426.829H52.2927V425.268H53.8537ZM52.2927 425.268V426.829H50.7317V425.268H52.2927ZM50.7317 425.268V426.829H49.1707V425.268H50.7317ZM49.1707 425.268V426.829H47.6098V425.268H49.1707ZM47.6098 425.268V426.829H46.0488V425.268H47.6098ZM46.0488 425.268V426.829H44.4878V425.268H46.0488ZM44.4878 425.268V426.829H42.9268V425.268H44.4878ZM44.4878 420.585V422.146H42.9268V420.585H44.4878ZM46.0488 420.585V422.146H44.4878V420.585H46.0488ZM47.6098 420.585V422.146H46.0488V420.585H47.6098ZM49.1707 420.585V422.146H47.6098V420.585H49.1707ZM50.7317 420.585V422.146H49.1707V420.585H50.7317ZM52.2927 420.585V422.146H50.7317V420.585H52.2927ZM53.8537 420.585V422.146H52.2927V420.585H53.8537ZM53.8537 422.146V423.707H52.2927V422.146H53.8537ZM52.2927 422.146V423.707H50.7317V422.146H52.2927ZM50.7317 422.146V423.707H49.1707V422.146H50.7317ZM49.1707 422.146V423.707H47.6098V422.146H49.1707ZM47.6098 422.146V423.707H46.0488V422.146H47.6098ZM44.4878 426.829V428.39H42.9268V426.829H44.4878ZM46.0488 426.829V428.39H44.4878V426.829H46.0488ZM47.6098 426.829V428.39H46.0488V426.829H47.6098ZM49.1707 426.829V428.39H47.6098V426.829H49.1707ZM50.7317 426.829V428.39H49.1707V426.829H50.7317ZM52.2927 426.829V428.39H50.7317V426.829H52.2927ZM53.8537 426.829V428.39H52.2927V426.829H53.8537ZM46.0488 422.146V423.707H44.4878V422.146H46.0488ZM44.4878 422.146V423.707H42.9268V422.146H44.4878ZM85.0427 423.707V425.268H83.4817V423.707H85.0427ZM86.6037 423.707V425.268H85.0427V423.707H86.6037ZM88.1646 423.707V425.268H86.6037V423.707H88.1646ZM89.7256 423.707V425.268H88.1646V423.707H89.7256ZM91.2866 423.707V425.268H89.7256V423.707H91.2866ZM91.2866 422.146V423.707H89.7256V422.146H91.2866ZM91.2866 420.585V422.146H89.7256V420.585H91.2866ZM89.7256 420.585V422.146H88.1646V420.585H89.7256ZM88.1646 420.585V422.146H86.6037V420.585H88.1646ZM86.6037 420.585V422.146H85.0427V420.585H86.6037ZM86.6037 422.146V423.707H85.0427V422.146H86.6037ZM85.0427 422.146V423.707H83.4817V422.146H85.0427ZM88.1646 422.146V423.707H86.6037V422.146H88.1646ZM89.7256 422.146V423.707H88.1646V422.146H89.7256ZM85.0427 420.585V422.146H83.4817V420.585H85.0427ZM83.4817 420.585V422.146H81.9207V420.585H83.4817ZM83.4817 419.024V420.585H81.9207V419.024H83.4817ZM85.0427 419.024V420.585H83.4817V419.024H85.0427ZM86.6037 419.024V420.585H85.0427V419.024H86.6037ZM88.1646 419.024V420.585H86.6037V419.024H88.1646ZM89.7256 419.024V420.585H88.1646V419.024H89.7256ZM89.7256 417.463V419.024H88.1646V417.463H89.7256ZM88.1646 417.463V419.024H86.6037V417.463H88.1646ZM86.6037 417.463V419.024H85.0427V417.463H86.6037ZM85.0427 417.463V419.024H83.4817V417.463H85.0427ZM83.4817 417.463V419.024H81.9207V417.463H83.4817ZM86.6037 415.902V417.463H85.0427V415.902H86.6037ZM88.1646 415.902V417.463H86.6037V415.902H88.1646ZM85.0427 415.902V417.463H83.4817V415.902H85.0427ZM85.0427 414.341V415.902H83.4817V414.341H85.0427ZM83.4817 414.341V415.902H81.9207V414.341H83.4817ZM83.4817 415.902V417.463H81.9207V415.902H83.4817ZM81.9207 415.902V417.463H80.3598V415.902H81.9207ZM81.9207 414.341V415.902H80.3598V414.341H81.9207ZM81.9207 417.463V419.024H80.3598V417.463H81.9207ZM80.3598 417.463V419.024H78.7988V417.463H80.3598ZM80.3598 419.024V420.585H78.7988V419.024H80.3598ZM81.9207 419.024V420.585H80.3598V419.024H81.9207ZM78.7988 419.024V420.585H77.2378V419.024H78.7988ZM78.7988 417.463V419.024H77.2378V417.463H78.7988ZM78.7988 415.902V417.463H77.2378V415.902H78.7988ZM78.7988 414.341V415.902H77.2378V414.341H78.7988ZM80.3598 414.341V415.902H78.7988V414.341H80.3598ZM80.3598 415.902V417.463H78.7988V415.902H80.3598ZM77.2378 414.341V415.902H75.6768V414.341H77.2378ZM75.6768 414.341V415.902H74.1159V414.341H75.6768ZM74.1159 414.341V415.902H72.5549V414.341H74.1159ZM74.1159 415.902V417.463H72.5549V415.902H74.1159ZM74.1159 417.463V419.024H72.5549V417.463H74.1159ZM74.1159 419.024V420.585H72.5549V419.024H74.1159ZM75.6768 419.024V420.585H74.1159V419.024H75.6768ZM77.2378 419.024V420.585H75.6768V419.024H77.2378ZM77.2378 417.463V419.024H75.6768V417.463H77.2378ZM77.2378 415.902V417.463H75.6768V415.902H77.2378ZM75.6768 415.902V417.463H74.1159V415.902H75.6768ZM75.6768 417.463V419.024H74.1159V417.463H75.6768ZM72.5549 417.463V419.024H70.9939V417.463H72.5549ZM72.5549 415.902V417.463H70.9939V415.902H72.5549ZM70.9939 415.902V417.463H69.4329V415.902H70.9939ZM70.9939 417.463V419.024H69.4329V417.463H70.9939ZM69.4329 417.463V419.024H67.872V417.463H69.4329ZM69.4329 419.024V420.585H67.872V419.024H69.4329ZM69.4329 420.585V422.146H67.872V420.585H69.4329ZM70.9939 420.585V422.146H69.4329V420.585H70.9939ZM70.9939 419.024V420.585H69.4329V419.024H70.9939ZM72.5549 419.024V420.585H70.9939V419.024H72.5549ZM72.5549 420.585V422.146H70.9939V420.585H72.5549ZM74.1159 420.585V422.146H72.5549V420.585H74.1159ZM75.6768 420.585V422.146H74.1159V420.585H75.6768ZM67.872 420.585V422.146H66.311V420.585H67.872ZM67.872 422.146V423.707H66.311V422.146H67.872ZM67.872 423.707V425.268H66.311V423.707H67.872ZM67.872 425.268V426.829H66.311V425.268H67.872ZM67.872 426.829V428.39H66.311V426.829H67.872ZM67.872 428.39V429.951H66.311V428.39H67.872ZM67.872 429.951V431.512H66.311V429.951H67.872ZM67.872 431.512V433.073H66.311V431.512H67.872ZM67.872 433.073V434.634H66.311V433.073H67.872ZM67.872 434.634V436.195H66.311V434.634H67.872ZM69.4329 434.634V436.195H67.872V434.634H69.4329ZM69.4329 436.195V437.756H67.872V436.195H69.4329ZM67.872 436.195V437.756H66.311V436.195H67.872ZM70.9939 436.195V437.756H69.4329V436.195H70.9939ZM72.5549 436.195V437.756H70.9939V436.195H72.5549ZM74.1159 436.195V437.756H72.5549V436.195H74.1159ZM75.6768 436.195V437.756H74.1159V436.195H75.6768ZM74.1159 434.634V436.195H72.5549V434.634H74.1159ZM74.1159 433.073V434.634H72.5549V433.073H74.1159ZM74.1159 431.512V433.073H72.5549V431.512H74.1159ZM74.1159 429.951V431.512H72.5549V429.951H74.1159ZM74.1159 428.39V429.951H72.5549V428.39H74.1159ZM74.1159 426.829V428.39H72.5549V426.829H74.1159ZM74.1159 425.268V426.829H72.5549V425.268H74.1159ZM74.1159 423.707V425.268H72.5549V423.707H74.1159ZM74.1159 422.146V423.707H72.5549V422.146H74.1159ZM72.5549 422.146V423.707H70.9939V422.146H72.5549ZM70.9939 422.146V423.707H69.4329V422.146H70.9939ZM69.4329 422.146V423.707H67.872V422.146H69.4329ZM69.4329 423.707V425.268H67.872V423.707H69.4329ZM69.4329 425.268V426.829H67.872V425.268H69.4329ZM69.4329 426.829V428.39H67.872V426.829H69.4329ZM69.4329 428.39V429.951H67.872V428.39H69.4329ZM69.4329 429.951V431.512H67.872V429.951H69.4329ZM69.4329 431.512V433.073H67.872V431.512H69.4329ZM69.4329 433.073V434.634H67.872V433.073H69.4329ZM70.9939 434.634V436.195H69.4329V434.634H70.9939ZM72.5549 434.634V436.195H70.9939V434.634H72.5549ZM72.5549 433.073V434.634H70.9939V433.073H72.5549ZM72.5549 431.512V433.073H70.9939V431.512H72.5549ZM72.5549 429.951V431.512H70.9939V429.951H72.5549ZM72.5549 428.39V429.951H70.9939V428.39H72.5549ZM70.9939 428.39V429.951H69.4329V428.39H70.9939ZM70.9939 426.829V428.39H69.4329V426.829H70.9939ZM70.9939 425.268V426.829H69.4329V425.268H70.9939ZM70.9939 423.707V425.268H69.4329V423.707H70.9939ZM72.5549 423.707V425.268H70.9939V423.707H72.5549ZM72.5549 425.268V426.829H70.9939V425.268H72.5549ZM72.5549 426.829V428.39H70.9939V426.829H72.5549ZM70.9939 431.512V433.073H69.4329V431.512H70.9939ZM70.9939 433.073V434.634H69.4329V433.073H70.9939ZM70.9939 429.951V431.512H69.4329V429.951H70.9939ZM85.0427 433.073V434.634H83.4817V433.073H85.0427ZM85.0427 434.634V436.195H83.4817V434.634H85.0427ZM86.6037 434.634V436.195H85.0427V434.634H86.6037ZM88.1646 434.634V436.195H86.6037V434.634H88.1646ZM89.7256 434.634V436.195H88.1646V434.634H89.7256ZM91.2866 434.634V436.195H89.7256V434.634H91.2866ZM91.2866 433.073V434.634H89.7256V433.073H91.2866ZM89.7256 433.073V434.634H88.1646V433.073H89.7256ZM88.1646 433.073V434.634H86.6037V433.073H88.1646ZM86.6037 433.073V434.634H85.0427V433.073H86.6037ZM91.2866 436.195V437.756H89.7256V436.195H91.2866ZM89.7256 436.195V437.756H88.1646V436.195H89.7256ZM88.1646 436.195V437.756H86.6037V436.195H88.1646ZM86.6037 436.195V437.756H85.0427V436.195H86.6037ZM85.0427 436.195V437.756H83.4817V436.195H85.0427ZM83.4817 436.195V437.756H81.9207V436.195H83.4817ZM83.4817 437.756V439.317H81.9207V437.756H83.4817ZM85.0427 437.756V439.317H83.4817V437.756H85.0427ZM86.6037 437.756V439.317H85.0427V437.756H86.6037ZM88.1646 437.756V439.317H86.6037V437.756H88.1646ZM88.1646 439.317V440.878H86.6037V439.317H88.1646ZM89.7256 439.317V440.878H88.1646V439.317H89.7256ZM89.7256 437.756V439.317H88.1646V437.756H89.7256ZM88.1646 440.878V442.439H86.6037V440.878H88.1646ZM86.6037 440.878V442.439H85.0427V440.878H86.6037ZM86.6037 439.317V440.878H85.0427V439.317H86.6037ZM85.0427 439.317V440.878H83.4817V439.317H85.0427ZM85.0427 440.878V442.439H83.4817V440.878H85.0427ZM85.0427 442.439V444H83.4817V442.439H85.0427ZM83.4817 442.439V444H81.9207V442.439H83.4817ZM81.9207 442.439V444H80.3598V442.439H81.9207ZM80.3598 442.439V444H78.7988V442.439H80.3598ZM78.7988 442.439V444H77.2378V442.439H78.7988ZM77.2378 442.439V444H75.6768V442.439H77.2378ZM75.6768 442.439V444H74.1159V442.439H75.6768ZM74.1159 442.439V444H72.5549V442.439H74.1159ZM75.6768 440.878V442.439H74.1159V440.878H75.6768ZM77.2378 440.878V442.439H75.6768V440.878H77.2378ZM78.7988 440.878V442.439H77.2378V440.878H78.7988ZM80.3598 440.878V442.439H78.7988V440.878H80.3598ZM81.9207 440.878V442.439H80.3598V440.878H81.9207ZM83.4817 440.878V442.439H81.9207V440.878H83.4817ZM83.4817 439.317V440.878H81.9207V439.317H83.4817ZM81.9207 439.317V440.878H80.3598V439.317H81.9207ZM80.3598 439.317V440.878H78.7988V439.317H80.3598ZM78.7988 439.317V440.878H77.2378V439.317H78.7988ZM77.2378 439.317V440.878H75.6768V439.317H77.2378ZM75.6768 439.317V440.878H74.1159V439.317H75.6768ZM74.1159 440.878V442.439H72.5549V440.878H74.1159ZM72.5549 440.878V442.439H70.9939V440.878H72.5549ZM70.9939 440.878V442.439H69.4329V440.878H70.9939ZM70.9939 439.317V440.878H69.4329V439.317H70.9939ZM69.4329 439.317V440.878H67.872V439.317H69.4329ZM69.4329 437.756V439.317H67.872V437.756H69.4329ZM70.9939 437.756V439.317H69.4329V437.756H70.9939ZM72.5549 437.756V439.317H70.9939V437.756H72.5549ZM74.1159 437.756V439.317H72.5549V437.756H74.1159ZM75.6768 437.756V439.317H74.1159V437.756H75.6768ZM77.2378 437.756V439.317H75.6768V437.756H77.2378ZM78.7988 437.756V439.317H77.2378V437.756H78.7988ZM80.3598 437.756V439.317H78.7988V437.756H80.3598ZM81.9207 437.756V439.317H80.3598V437.756H81.9207ZM74.1159 439.317V440.878H72.5549V439.317H74.1159ZM72.5549 439.317V440.878H70.9939V439.317H72.5549ZM85.0427 425.268V426.829H83.4817V425.268H85.0427ZM85.0427 426.829V428.39H83.4817V426.829H85.0427ZM86.6037 426.829V428.39H85.0427V426.829H86.6037ZM88.1646 426.829V428.39H86.6037V426.829H88.1646ZM89.7256 426.829V428.39H88.1646V426.829H89.7256ZM91.2866 426.829V428.39H89.7256V426.829H91.2866ZM91.2866 425.268V426.829H89.7256V425.268H91.2866ZM89.7256 425.268V426.829H88.1646V425.268H89.7256ZM88.1646 425.268V426.829H86.6037V425.268H88.1646ZM86.6037 425.268V426.829H85.0427V425.268H86.6037ZM86.6037 428.39V429.951H85.0427V428.39H86.6037ZM88.1646 428.39V429.951H86.6037V428.39H88.1646ZM88.1646 429.951V431.512H86.6037V429.951H88.1646ZM89.7256 429.951V431.512H88.1646V429.951H89.7256ZM89.7256 428.39V429.951H88.1646V428.39H89.7256ZM91.2866 428.39V429.951H89.7256V428.39H91.2866ZM91.2866 429.951V431.512H89.7256V429.951H91.2866ZM91.2866 431.512V433.073H89.7256V431.512H91.2866ZM89.7256 431.512V433.073H88.1646V431.512H89.7256ZM88.1646 431.512V433.073H86.6037V431.512H88.1646ZM86.6037 431.512V433.073H85.0427V431.512H86.6037ZM86.6037 429.951V431.512H85.0427V429.951H86.6037ZM85.0427 429.951V431.512H83.4817V429.951H85.0427ZM85.0427 428.39V429.951H83.4817V428.39H85.0427ZM85.0427 431.512V433.073H83.4817V431.512H85.0427ZM113.168 423.707V425.268H111.607V423.707H113.168ZM114.729 423.707V425.268H113.168V423.707H114.729ZM116.29 423.707V425.268H114.729V423.707H116.29ZM117.851 423.707V425.268H116.29V423.707H117.851ZM119.412 423.707V425.268H117.851V423.707H119.412ZM119.412 422.146V423.707H117.851V422.146H119.412ZM119.412 420.585V422.146H117.851V420.585H119.412ZM117.851 420.585V422.146H116.29V420.585H117.851ZM116.29 420.585V422.146H114.729V420.585H116.29ZM114.729 420.585V422.146H113.168V420.585H114.729ZM114.729 422.146V423.707H113.168V422.146H114.729ZM113.168 422.146V423.707H111.607V422.146H113.168ZM116.29 422.146V423.707H114.729V422.146H116.29ZM117.851 422.146V423.707H116.29V422.146H117.851ZM113.168 420.585V422.146H111.607V420.585H113.168ZM111.607 420.585V422.146H110.046V420.585H111.607ZM111.607 419.024V420.585H110.046V419.024H111.607ZM113.168 419.024V420.585H111.607V419.024H113.168ZM114.729 419.024V420.585H113.168V419.024H114.729ZM116.29 419.024V420.585H114.729V419.024H116.29ZM117.851 419.024V420.585H116.29V419.024H117.851ZM117.851 417.463V419.024H116.29V417.463H117.851ZM116.29 417.463V419.024H114.729V417.463H116.29ZM114.729 417.463V419.024H113.168V417.463H114.729ZM113.168 417.463V419.024H111.607V417.463H113.168ZM111.607 417.463V419.024H110.046V417.463H111.607ZM114.729 415.902V417.463H113.168V415.902H114.729ZM116.29 415.902V417.463H114.729V415.902H116.29ZM113.168 415.902V417.463H111.607V415.902H113.168ZM113.168 414.341V415.902H111.607V414.341H113.168ZM111.607 414.341V415.902H110.046V414.341H111.607ZM111.607 415.902V417.463H110.046V415.902H111.607ZM110.046 415.902V417.463H108.485V415.902H110.046ZM110.046 414.341V415.902H108.485V414.341H110.046ZM110.046 417.463V419.024H108.485V417.463H110.046ZM108.485 417.463V419.024H106.924V417.463H108.485ZM108.485 419.024V420.585H106.924V419.024H108.485ZM110.046 419.024V420.585H108.485V419.024H110.046ZM106.924 419.024V420.585H105.363V419.024H106.924ZM106.924 417.463V419.024H105.363V417.463H106.924ZM106.924 415.902V417.463H105.363V415.902H106.924ZM106.924 414.341V415.902H105.363V414.341H106.924ZM108.485 414.341V415.902H106.924V414.341H108.485ZM108.485 415.902V417.463H106.924V415.902H108.485ZM105.363 414.341V415.902H103.802V414.341H105.363ZM103.802 414.341V415.902H102.241V414.341H103.802ZM102.241 414.341V415.902H100.68V414.341H102.241ZM102.241 415.902V417.463H100.68V415.902H102.241ZM102.241 417.463V419.024H100.68V417.463H102.241ZM102.241 419.024V420.585H100.68V419.024H102.241ZM103.802 419.024V420.585H102.241V419.024H103.802ZM105.363 419.024V420.585H103.802V419.024H105.363ZM105.363 417.463V419.024H103.802V417.463H105.363ZM105.363 415.902V417.463H103.802V415.902H105.363ZM103.802 415.902V417.463H102.241V415.902H103.802ZM103.802 417.463V419.024H102.241V417.463H103.802ZM100.68 417.463V419.024H99.1189V417.463H100.68ZM100.68 415.902V417.463H99.1189V415.902H100.68ZM99.1189 415.902V417.463H97.5579V415.902H99.1189ZM99.1189 417.463V419.024H97.5579V417.463H99.1189ZM97.5579 417.463V419.024H95.997V417.463H97.5579ZM97.5579 419.024V420.585H95.997V419.024H97.5579ZM97.5579 420.585V422.146H95.997V420.585H97.5579ZM99.1189 420.585V422.146H97.5579V420.585H99.1189ZM99.1189 419.024V420.585H97.5579V419.024H99.1189ZM100.68 419.024V420.585H99.1189V419.024H100.68ZM100.68 420.585V422.146H99.1189V420.585H100.68ZM102.241 420.585V422.146H100.68V420.585H102.241ZM103.802 420.585V422.146H102.241V420.585H103.802ZM95.997 420.585V422.146H94.436V420.585H95.997ZM95.997 422.146V423.707H94.436V422.146H95.997ZM95.997 423.707V425.268H94.436V423.707H95.997ZM95.997 425.268V426.829H94.436V425.268H95.997ZM95.997 426.829V428.39H94.436V426.829H95.997ZM95.997 428.39V429.951H94.436V428.39H95.997ZM95.997 429.951V431.512H94.436V429.951H95.997ZM95.997 431.512V433.073H94.436V431.512H95.997ZM95.997 433.073V434.634H94.436V433.073H95.997ZM95.997 434.634V436.195H94.436V434.634H95.997ZM97.5579 434.634V436.195H95.997V434.634H97.5579ZM97.5579 436.195V437.756H95.997V436.195H97.5579ZM95.997 436.195V437.756H94.436V436.195H95.997ZM99.1189 436.195V437.756H97.5579V436.195H99.1189ZM100.68 436.195V437.756H99.1189V436.195H100.68ZM102.241 436.195V437.756H100.68V436.195H102.241ZM103.802 436.195V437.756H102.241V436.195H103.802ZM102.241 434.634V436.195H100.68V434.634H102.241ZM102.241 433.073V434.634H100.68V433.073H102.241ZM102.241 431.512V433.073H100.68V431.512H102.241ZM102.241 429.951V431.512H100.68V429.951H102.241ZM102.241 428.39V429.951H100.68V428.39H102.241ZM102.241 426.829V428.39H100.68V426.829H102.241ZM102.241 425.268V426.829H100.68V425.268H102.241ZM102.241 423.707V425.268H100.68V423.707H102.241ZM102.241 422.146V423.707H100.68V422.146H102.241ZM100.68 422.146V423.707H99.1189V422.146H100.68ZM99.1189 422.146V423.707H97.5579V422.146H99.1189ZM97.5579 422.146V423.707H95.997V422.146H97.5579ZM97.5579 423.707V425.268H95.997V423.707H97.5579ZM97.5579 425.268V426.829H95.997V425.268H97.5579ZM97.5579 426.829V428.39H95.997V426.829H97.5579ZM97.5579 428.39V429.951H95.997V428.39H97.5579ZM97.5579 429.951V431.512H95.997V429.951H97.5579ZM97.5579 431.512V433.073H95.997V431.512H97.5579ZM97.5579 433.073V434.634H95.997V433.073H97.5579ZM99.1189 434.634V436.195H97.5579V434.634H99.1189ZM100.68 434.634V436.195H99.1189V434.634H100.68ZM100.68 433.073V434.634H99.1189V433.073H100.68ZM100.68 431.512V433.073H99.1189V431.512H100.68ZM100.68 429.951V431.512H99.1189V429.951H100.68ZM100.68 428.39V429.951H99.1189V428.39H100.68ZM99.1189 428.39V429.951H97.5579V428.39H99.1189ZM99.1189 426.829V428.39H97.5579V426.829H99.1189ZM99.1189 425.268V426.829H97.5579V425.268H99.1189ZM99.1189 423.707V425.268H97.5579V423.707H99.1189ZM100.68 423.707V425.268H99.1189V423.707H100.68ZM100.68 425.268V426.829H99.1189V425.268H100.68ZM100.68 426.829V428.39H99.1189V426.829H100.68ZM99.1189 431.512V433.073H97.5579V431.512H99.1189ZM99.1189 433.073V434.634H97.5579V433.073H99.1189ZM99.1189 429.951V431.512H97.5579V429.951H99.1189ZM113.168 433.073V434.634H111.607V433.073H113.168ZM113.168 434.634V436.195H111.607V434.634H113.168ZM114.729 434.634V436.195H113.168V434.634H114.729ZM116.29 434.634V436.195H114.729V434.634H116.29ZM117.851 434.634V436.195H116.29V434.634H117.851ZM119.412 434.634V436.195H117.851V434.634H119.412ZM119.412 433.073V434.634H117.851V433.073H119.412ZM117.851 433.073V434.634H116.29V433.073H117.851ZM116.29 433.073V434.634H114.729V433.073H116.29ZM114.729 433.073V434.634H113.168V433.073H114.729ZM119.412 436.195V437.756H117.851V436.195H119.412ZM117.851 436.195V437.756H116.29V436.195H117.851ZM116.29 436.195V437.756H114.729V436.195H116.29ZM114.729 436.195V437.756H113.168V436.195H114.729ZM113.168 436.195V437.756H111.607V436.195H113.168ZM111.607 436.195V437.756H110.046V436.195H111.607ZM111.607 437.756V439.317H110.046V437.756H111.607ZM113.168 437.756V439.317H111.607V437.756H113.168ZM114.729 437.756V439.317H113.168V437.756H114.729ZM116.29 437.756V439.317H114.729V437.756H116.29ZM116.29 439.317V440.878H114.729V439.317H116.29ZM117.851 439.317V440.878H116.29V439.317H117.851ZM117.851 437.756V439.317H116.29V437.756H117.851ZM116.29 440.878V442.439H114.729V440.878H116.29ZM114.729 440.878V442.439H113.168V440.878H114.729ZM114.729 439.317V440.878H113.168V439.317H114.729ZM113.168 439.317V440.878H111.607V439.317H113.168ZM113.168 440.878V442.439H111.607V440.878H113.168ZM113.168 442.439V444H111.607V442.439H113.168ZM111.607 442.439V444H110.046V442.439H111.607ZM110.046 442.439V444H108.485V442.439H110.046ZM108.485 442.439V444H106.924V442.439H108.485ZM106.924 442.439V444H105.363V442.439H106.924ZM105.363 442.439V444H103.802V442.439H105.363ZM103.802 442.439V444H102.241V442.439H103.802ZM102.241 442.439V444H100.68V442.439H102.241ZM103.802 440.878V442.439H102.241V440.878H103.802ZM105.363 440.878V442.439H103.802V440.878H105.363ZM106.924 440.878V442.439H105.363V440.878H106.924ZM108.485 440.878V442.439H106.924V440.878H108.485ZM110.046 440.878V442.439H108.485V440.878H110.046ZM111.607 440.878V442.439H110.046V440.878H111.607ZM111.607 439.317V440.878H110.046V439.317H111.607ZM110.046 439.317V440.878H108.485V439.317H110.046ZM108.485 439.317V440.878H106.924V439.317H108.485ZM106.924 439.317V440.878H105.363V439.317H106.924ZM105.363 439.317V440.878H103.802V439.317H105.363ZM103.802 439.317V440.878H102.241V439.317H103.802ZM102.241 440.878V442.439H100.68V440.878H102.241ZM100.68 440.878V442.439H99.1189V440.878H100.68ZM99.1189 440.878V442.439H97.5579V440.878H99.1189ZM99.1189 439.317V440.878H97.5579V439.317H99.1189ZM97.5579 439.317V440.878H95.997V439.317H97.5579ZM97.5579 437.756V439.317H95.997V437.756H97.5579ZM99.1189 437.756V439.317H97.5579V437.756H99.1189ZM100.68 437.756V439.317H99.1189V437.756H100.68ZM102.241 437.756V439.317H100.68V437.756H102.241ZM103.802 437.756V439.317H102.241V437.756H103.802ZM105.363 437.756V439.317H103.802V437.756H105.363ZM106.924 437.756V439.317H105.363V437.756H106.924ZM108.485 437.756V439.317H106.924V437.756H108.485ZM110.046 437.756V439.317H108.485V437.756H110.046ZM102.241 439.317V440.878H100.68V439.317H102.241ZM100.68 439.317V440.878H99.1189V439.317H100.68ZM113.168 425.268V426.829H111.607V425.268H113.168ZM113.168 426.829V428.39H111.607V426.829H113.168ZM114.729 426.829V428.39H113.168V426.829H114.729ZM116.29 426.829V428.39H114.729V426.829H116.29ZM117.851 426.829V428.39H116.29V426.829H117.851ZM119.412 426.829V428.39H117.851V426.829H119.412ZM119.412 425.268V426.829H117.851V425.268H119.412ZM117.851 425.268V426.829H116.29V425.268H117.851ZM116.29 425.268V426.829H114.729V425.268H116.29ZM114.729 425.268V426.829H113.168V425.268H114.729ZM114.729 428.39V429.951H113.168V428.39H114.729ZM116.29 428.39V429.951H114.729V428.39H116.29ZM116.29 429.951V431.512H114.729V429.951H116.29ZM117.851 429.951V431.512H116.29V429.951H117.851ZM117.851 428.39V429.951H116.29V428.39H117.851ZM119.412 428.39V429.951H117.851V428.39H119.412ZM119.412 429.951V431.512H117.851V429.951H119.412ZM119.412 431.512V433.073H117.851V431.512H119.412ZM117.851 431.512V433.073H116.29V431.512H117.851ZM116.29 431.512V433.073H114.729V431.512H116.29ZM114.729 431.512V433.073H113.168V431.512H114.729ZM114.729 429.951V431.512H113.168V429.951H114.729ZM113.168 429.951V431.512H111.607V429.951H113.168ZM113.168 428.39V429.951H111.607V428.39H113.168ZM113.168 431.512V433.073H111.607V431.512H113.168ZM125.683 442.439V444H124.122V442.439H125.683ZM125.683 440.878V442.439H124.122V440.878H125.683ZM125.683 439.317V440.878H124.122V439.317H125.683ZM125.683 437.756V439.317H124.122V437.756H125.683ZM125.683 436.195V437.756H124.122V436.195H125.683ZM125.683 434.634V436.195H124.122V434.634H125.683ZM125.683 433.073V434.634H124.122V433.073H125.683ZM125.683 431.512V433.073H124.122V431.512H125.683ZM125.683 429.951V431.512H124.122V429.951H125.683ZM125.683 428.39V429.951H124.122V428.39H125.683ZM125.683 426.829V428.39H124.122V426.829H125.683ZM125.683 425.268V426.829H124.122V425.268H125.683ZM125.683 423.707V425.268H124.122V423.707H125.683ZM125.683 422.146V423.707H124.122V422.146H125.683ZM125.683 420.585V422.146H124.122V420.585H125.683ZM127.244 420.585V422.146H125.683V420.585H127.244ZM127.244 422.146V423.707H125.683V422.146H127.244ZM127.244 423.707V425.268H125.683V423.707H127.244ZM127.244 425.268V426.829H125.683V425.268H127.244ZM127.244 426.829V428.39H125.683V426.829H127.244ZM127.244 428.39V429.951H125.683V428.39H127.244ZM127.244 429.951V431.512H125.683V429.951H127.244ZM128.805 431.512V433.073H127.244V431.512H128.805ZM128.805 433.073V434.634H127.244V433.073H128.805ZM128.805 434.634V436.195H127.244V434.634H128.805ZM128.805 436.195V437.756H127.244V436.195H128.805ZM128.805 437.756V439.317H127.244V437.756H128.805ZM128.805 439.317V440.878H127.244V439.317H128.805ZM128.805 440.878V442.439H127.244V440.878H128.805ZM128.805 442.439V444H127.244V442.439H128.805ZM130.366 442.439V444H128.805V442.439H130.366ZM131.927 442.439V444H130.366V442.439H131.927ZM131.927 440.878V442.439H130.366V440.878H131.927ZM131.927 439.317V440.878H130.366V439.317H131.927ZM131.927 437.756V439.317H130.366V437.756H131.927ZM131.927 436.195V437.756H130.366V436.195H131.927ZM131.927 434.634V436.195H130.366V434.634H131.927ZM131.927 433.073V434.634H130.366V433.073H131.927ZM131.927 431.512V433.073H130.366V431.512H131.927ZM130.366 431.512V433.073H128.805V431.512H130.366ZM130.366 429.951V431.512H128.805V429.951H130.366ZM130.366 433.073V434.634H128.805V433.073H130.366ZM130.366 434.634V436.195H128.805V434.634H130.366ZM130.366 436.195V437.756H128.805V436.195H130.366ZM130.366 437.756V439.317H128.805V437.756H130.366ZM130.366 439.317V440.878H128.805V439.317H130.366ZM130.366 440.878V442.439H128.805V440.878H130.366ZM127.244 442.439V444H125.683V442.439H127.244ZM127.244 440.878V442.439H125.683V440.878H127.244ZM127.244 439.317V440.878H125.683V439.317H127.244ZM127.244 437.756V439.317H125.683V437.756H127.244ZM127.244 436.195V437.756H125.683V436.195H127.244ZM127.244 434.634V436.195H125.683V434.634H127.244ZM127.244 433.073V434.634H125.683V433.073H127.244ZM127.244 431.512V433.073H125.683V431.512H127.244ZM125.683 404.976V406.537H124.122V404.976H125.683ZM125.683 406.537V408.098H124.122V406.537H125.683ZM125.683 408.098V409.659H124.122V408.098H125.683ZM125.683 409.659V411.22H124.122V409.659H125.683ZM125.683 411.22V412.78H124.122V411.22H125.683ZM125.683 412.78V414.341H124.122V412.78H125.683ZM125.683 414.341V415.902H124.122V414.341H125.683ZM125.683 415.902V417.463H124.122V415.902H125.683ZM125.683 417.463V419.024H124.122V417.463H125.683ZM125.683 419.024V420.585H124.122V419.024H125.683ZM130.366 404.976V406.537H128.805V404.976H130.366ZM130.366 406.537V408.098H128.805V406.537H130.366ZM130.366 408.098V409.659H128.805V408.098H130.366ZM130.366 409.659V411.22H128.805V409.659H130.366ZM130.366 411.22V412.78H128.805V411.22H130.366ZM130.366 412.78V414.341H128.805V412.78H130.366ZM130.366 415.902V417.463H128.805V415.902H130.366ZM130.366 417.463V419.024H128.805V417.463H130.366ZM130.366 419.024V420.585H128.805V419.024H130.366ZM130.366 420.585V422.146H128.805V420.585H130.366ZM130.366 422.146V423.707H128.805V422.146H130.366ZM130.366 423.707V425.268H128.805V423.707H130.366ZM130.366 425.268V426.829H128.805V425.268H130.366ZM131.927 426.829V428.39H130.366V426.829H131.927ZM131.927 428.39V429.951H130.366V428.39H131.927ZM131.927 429.951V431.512H130.366V429.951H131.927ZM131.927 425.268V426.829H130.366V425.268H131.927ZM131.927 423.707V425.268H130.366V423.707H131.927ZM131.927 422.146V423.707H130.366V422.146H131.927ZM131.927 420.585V422.146H130.366V420.585H131.927ZM131.927 419.024V420.585H130.366V419.024H131.927ZM131.927 417.463V419.024H130.366V417.463H131.927ZM131.927 415.902V417.463H130.366V415.902H131.927ZM131.927 414.341V415.902H130.366V414.341H131.927ZM131.927 412.78V414.341H130.366V412.78H131.927ZM131.927 411.22V412.78H130.366V411.22H131.927ZM130.366 414.341V415.902H128.805V414.341H130.366ZM131.927 409.659V411.22H130.366V409.659H131.927ZM131.927 408.098V409.659H130.366V408.098H131.927ZM131.927 406.537V408.098H130.366V406.537H131.927ZM131.927 404.976V406.537H130.366V404.976H131.927ZM128.805 404.976V406.537H127.244V404.976H128.805ZM127.244 404.976V406.537H125.683V404.976H127.244ZM127.244 406.537V408.098H125.683V406.537H127.244ZM128.805 406.537V408.098H127.244V406.537H128.805ZM128.805 408.098V409.659H127.244V408.098H128.805ZM128.805 409.659V411.22H127.244V409.659H128.805ZM128.805 411.22V412.78H127.244V411.22H128.805ZM128.805 412.78V414.341H127.244V412.78H128.805ZM128.805 414.341V415.902H127.244V414.341H128.805ZM128.805 415.902V417.463H127.244V415.902H128.805ZM127.244 417.463V419.024H125.683V417.463H127.244ZM127.244 419.024V420.585H125.683V419.024H127.244ZM127.244 415.902V417.463H125.683V415.902H127.244ZM127.244 414.341V415.902H125.683V414.341H127.244ZM127.244 412.78V414.341H125.683V412.78H127.244ZM127.244 411.22V412.78H125.683V411.22H127.244ZM127.244 409.659V411.22H125.683V409.659H127.244ZM127.244 408.098V409.659H125.683V408.098H127.244ZM128.805 417.463V419.024H127.244V417.463H128.805ZM128.805 419.024V420.585H127.244V419.024H128.805ZM128.805 420.585V422.146H127.244V420.585H128.805ZM128.805 422.146V423.707H127.244V422.146H128.805ZM128.805 423.707V425.268H127.244V423.707H128.805ZM128.805 425.268V426.829H127.244V425.268H128.805ZM128.805 426.829V428.39H127.244V426.829H128.805ZM128.805 428.39V429.951H127.244V428.39H128.805ZM128.805 429.951V431.512H127.244V429.951H128.805ZM130.366 428.39V429.951H128.805V428.39H130.366ZM130.366 426.829V428.39H128.805V426.829H130.366ZM139.732 415.902V417.463H138.171V415.902H139.732ZM139.732 414.341V415.902H138.171V414.341H139.732ZM141.293 414.341V415.902H139.732V414.341H141.293ZM142.854 414.341V415.902H141.293V414.341H142.854ZM144.415 414.341V415.902H142.854V414.341H144.415ZM145.976 414.341V415.902H144.415V414.341H145.976ZM145.976 415.902V417.463H144.415V415.902H145.976ZM145.976 417.463V419.024H144.415V417.463H145.976ZM145.976 419.024V420.585H144.415V419.024H145.976ZM145.976 420.585V422.146H144.415V420.585H145.976ZM144.415 420.585V422.146H142.854V420.585H144.415ZM144.415 422.146V423.707H142.854V422.146H144.415ZM142.854 422.146V423.707H141.293V422.146H142.854ZM142.854 423.707V425.268H141.293V423.707H142.854ZM141.293 423.707V425.268H139.732V423.707H141.293ZM141.293 425.268V426.829H139.732V425.268H141.293ZM139.732 425.268V426.829H138.171V425.268H139.732ZM139.732 426.829V428.39H138.171V426.829H139.732ZM139.732 428.39V429.951H138.171V428.39H139.732ZM141.293 428.39V429.951H139.732V428.39H141.293ZM141.293 429.951V431.512H139.732V429.951H141.293ZM142.854 429.951V431.512H141.293V429.951H142.854ZM142.854 431.512V433.073H141.293V431.512H142.854ZM144.415 431.512V433.073H142.854V431.512H144.415ZM144.415 433.073V434.634H142.854V433.073H144.415ZM145.976 433.073V434.634H144.415V433.073H145.976ZM145.976 434.634V436.195H144.415V434.634H145.976ZM145.976 436.195V437.756H144.415V436.195H145.976ZM145.976 437.756V439.317H144.415V437.756H145.976ZM145.976 439.317V440.878H144.415V439.317H145.976ZM145.976 440.878V442.439H144.415V440.878H145.976ZM145.976 442.439V444H144.415V442.439H145.976ZM139.732 417.463V419.024H138.171V417.463H139.732ZM139.732 419.024V420.585H138.171V419.024H139.732ZM139.732 420.585V422.146H138.171V420.585H139.732ZM138.171 420.585V422.146H136.61V420.585H138.171ZM139.732 422.146V423.707H138.171V422.146H139.732ZM138.171 422.146V423.707H136.61V422.146H138.171ZM138.171 423.707V425.268H136.61V423.707H138.171ZM136.61 422.146V423.707H135.049V422.146H136.61ZM136.61 423.707V425.268H135.049V423.707H136.61ZM138.171 425.268V426.829H136.61V425.268H138.171ZM139.732 423.707V425.268H138.171V423.707H139.732ZM141.293 422.146V423.707H139.732V422.146H141.293ZM142.854 420.585V422.146H141.293V420.585H142.854ZM144.415 419.024V420.585H142.854V419.024H144.415ZM144.415 417.463V419.024H142.854V417.463H144.415ZM144.415 415.902V417.463H142.854V415.902H144.415ZM142.854 415.902V417.463H141.293V415.902H142.854ZM141.293 417.463V419.024H139.732V417.463H141.293ZM141.293 419.024V420.585H139.732V419.024H141.293ZM141.293 420.585V422.146H139.732V420.585H141.293ZM142.854 419.024V420.585H141.293V419.024H142.854ZM142.854 417.463V419.024H141.293V417.463H142.854ZM141.293 415.902V417.463H139.732V415.902H141.293ZM135.049 423.707V425.268H133.488V423.707H135.049ZM133.488 423.707V425.268H131.927V423.707H133.488ZM133.488 425.268V426.829H131.927V425.268H133.488ZM133.488 426.829V428.39H131.927V426.829H133.488ZM133.488 428.39V429.951H131.927V428.39H133.488ZM135.049 428.39V429.951H133.488V428.39H135.049ZM135.049 429.951V431.512H133.488V429.951H135.049ZM133.488 429.951V431.512H131.927V429.951H133.488ZM136.61 429.951V431.512H135.049V429.951H136.61ZM136.61 431.512V433.073H135.049V431.512H136.61ZM138.171 431.512V433.073H136.61V431.512H138.171ZM138.171 433.073V434.634H136.61V433.073H138.171ZM139.732 433.073V434.634H138.171V433.073H139.732ZM139.732 434.634V436.195H138.171V434.634H139.732ZM141.293 436.195V437.756H139.732V436.195H141.293ZM141.293 437.756V439.317H139.732V437.756H141.293ZM141.293 439.317V440.878H139.732V439.317H141.293ZM139.732 439.317V440.878H138.171V439.317H139.732ZM139.732 437.756V439.317H138.171V437.756H139.732ZM139.732 436.195V437.756H138.171V436.195H139.732ZM139.732 440.878V442.439H138.171V440.878H139.732ZM139.732 442.439V444H138.171V442.439H139.732ZM141.293 442.439V444H139.732V442.439H141.293ZM142.854 442.439V444H141.293V442.439H142.854ZM144.415 442.439V444H142.854V442.439H144.415ZM144.415 440.878V442.439H142.854V440.878H144.415ZM142.854 440.878V442.439H141.293V440.878H142.854ZM141.293 440.878V442.439H139.732V440.878H141.293ZM142.854 439.317V440.878H141.293V439.317H142.854ZM144.415 439.317V440.878H142.854V439.317H144.415ZM144.415 437.756V439.317H142.854V437.756H144.415ZM144.415 436.195V437.756H142.854V436.195H144.415ZM144.415 434.634V436.195H142.854V434.634H144.415ZM142.854 434.634V436.195H141.293V434.634H142.854ZM142.854 436.195V437.756H141.293V436.195H142.854ZM142.854 437.756V439.317H141.293V437.756H142.854ZM142.854 433.073V434.634H141.293V433.073H142.854ZM141.293 433.073V434.634H139.732V433.073H141.293ZM141.293 431.512V433.073H139.732V431.512H141.293ZM139.732 431.512V433.073H138.171V431.512H139.732ZM139.732 429.951V431.512H138.171V429.951H139.732ZM138.171 429.951V431.512H136.61V429.951H138.171ZM138.171 428.39V429.951H136.61V428.39H138.171ZM138.171 426.829V428.39H136.61V426.829H138.171ZM136.61 426.829V428.39H135.049V426.829H136.61ZM136.61 425.268V426.829H135.049V425.268H136.61ZM135.049 425.268V426.829H133.488V425.268H135.049ZM135.049 426.829V428.39H133.488V426.829H135.049ZM136.61 428.39V429.951H135.049V428.39H136.61ZM141.293 434.634V436.195H139.732V434.634H141.293ZM156.93 434.634V433.073H158.491V434.634H156.93ZM155.369 434.634V433.073H156.93V434.634H155.369ZM153.808 434.634V433.073H155.369V434.634H153.808ZM152.247 434.634V433.073H153.808V434.634H152.247ZM150.686 434.634V433.073H152.247V434.634H150.686ZM150.686 436.195V434.634H152.247V436.195H150.686ZM150.686 437.756V436.195H152.247V437.756H150.686ZM152.247 437.756V436.195H153.808V437.756H152.247ZM153.808 437.756V436.195H155.369V437.756H153.808ZM155.369 437.756V436.195H156.93V437.756H155.369ZM155.369 436.195V434.634H156.93V436.195H155.369ZM156.93 436.195V434.634H158.491V436.195H156.93ZM153.808 436.195V434.634H155.369V436.195H153.808ZM152.247 436.195V434.634H153.808V436.195H152.247ZM156.93 437.756V436.195H158.491V437.756H156.93ZM158.491 437.756V436.195H160.052V437.756H158.491ZM158.491 439.317V437.756H160.052V439.317H158.491ZM156.93 439.317V437.756H158.491V439.317H156.93ZM155.369 439.317V437.756H156.93V439.317H155.369ZM153.808 439.317V437.756H155.369V439.317H153.808ZM152.247 439.317V437.756H153.808V439.317H152.247ZM152.247 440.878V439.317H153.808V440.878H152.247ZM153.808 440.878V439.317H155.369V440.878H153.808ZM155.369 440.878V439.317H156.93V440.878H155.369ZM156.93 440.878V439.317H158.491V440.878H156.93ZM158.491 440.878V439.317H160.052V440.878H158.491ZM155.369 442.439V440.878H156.93V442.439H155.369ZM153.808 442.439V440.878H155.369V442.439H153.808ZM156.93 442.439V440.878H158.491V442.439H156.93ZM156.93 444V442.439H158.491V444H156.93ZM158.491 444V442.439H160.052V444H158.491ZM158.491 442.439V440.878H160.052V442.439H158.491ZM160.052 442.439V440.878H161.613V442.439H160.052ZM160.052 444V442.439H161.613V444H160.052ZM160.052 440.878V439.317H161.613V440.878H160.052ZM161.613 440.878V439.317H163.174V440.878H161.613ZM161.613 439.317V437.756H163.174V439.317H161.613ZM160.052 439.317V437.756H161.613V439.317H160.052ZM163.174 439.317V437.756H164.735V439.317H163.174ZM163.174 440.878V439.317H164.735V440.878H163.174ZM163.174 442.439V440.878H164.735V442.439H163.174ZM163.174 444V442.439H164.735V444H163.174ZM161.613 444V442.439H163.174V444H161.613ZM161.613 442.439V440.878H163.174V442.439H161.613ZM164.735 444V442.439H166.296V444H164.735ZM167.857 442.439V440.878H169.418V442.439H167.857ZM167.857 440.878V439.317H169.418V440.878H167.857ZM167.857 439.317V437.756H169.418V439.317H167.857ZM166.296 439.317V437.756H167.857V439.317H166.296ZM164.735 439.317V437.756H166.296V439.317H164.735ZM164.735 440.878V439.317H166.296V440.878H164.735ZM164.735 442.439V440.878H166.296V442.439H164.735ZM166.296 442.439V440.878H167.857V442.439H166.296ZM166.296 440.878V439.317H167.857V440.878H166.296ZM169.418 440.878V439.317H170.979V440.878H169.418ZM169.418 442.439V440.878H170.979V442.439H169.418ZM170.979 442.439V440.878H172.54V442.439H170.979ZM170.979 440.878V439.317H172.54V440.878H170.979ZM172.54 440.878V439.317H174.101V440.878H172.54ZM172.54 439.317V437.756H174.101V439.317H172.54ZM172.54 437.756V436.195H174.101V437.756H172.54ZM170.979 437.756V436.195H172.54V437.756H170.979ZM170.979 439.317V437.756H172.54V439.317H170.979ZM169.418 439.317V437.756H170.979V439.317H169.418ZM169.418 437.756V436.195H170.979V437.756H169.418ZM167.857 437.756V436.195H169.418V437.756H167.857ZM174.101 437.756V436.195H175.662V437.756H174.101ZM174.101 436.195V434.634H175.662V436.195H174.101ZM174.101 434.634V433.073H175.662V434.634H174.101ZM174.101 433.073V431.512H175.662V433.073H174.101ZM174.101 431.512V429.951H175.662V431.512H174.101ZM174.101 429.951V428.39H175.662V429.951H174.101ZM174.101 428.39V426.829H175.662V428.39H174.101ZM174.101 426.829V425.268H175.662V426.829H174.101ZM174.101 425.268V423.707H175.662V425.268H174.101ZM174.101 423.707V422.146H175.662V423.707H174.101ZM172.54 423.707V422.146H174.101V423.707H172.54ZM172.54 422.146V420.585H174.101V422.146H172.54ZM174.101 422.146V420.585H175.662V422.146H174.101ZM170.979 422.146V420.585H172.54V422.146H170.979ZM169.418 422.146V420.585H170.979V422.146H169.418ZM167.857 422.146V420.585H169.418V422.146H167.857ZM166.296 422.146V420.585H167.857V422.146H166.296ZM167.857 423.707V422.146H169.418V423.707H167.857ZM167.857 425.268V423.707H169.418V425.268H167.857ZM167.857 426.829V425.268H169.418V426.829H167.857ZM167.857 428.39V426.829H169.418V428.39H167.857ZM167.857 429.951V428.39H169.418V429.951H167.857ZM167.857 431.512V429.951H169.418V431.512H167.857ZM167.857 433.073V431.512H169.418V433.073H167.857ZM167.857 434.634V433.073H169.418V434.634H167.857ZM167.857 436.195V434.634H169.418V436.195H167.857ZM169.418 436.195V434.634H170.979V436.195H169.418ZM170.979 436.195V434.634H172.54V436.195H170.979ZM172.54 436.195V434.634H174.101V436.195H172.54ZM172.54 434.634V433.073H174.101V434.634H172.54ZM172.54 433.073V431.512H174.101V433.073H172.54ZM172.54 431.512V429.951H174.101V431.512H172.54ZM172.54 429.951V428.39H174.101V429.951H172.54ZM172.54 428.39V426.829H174.101V428.39H172.54ZM172.54 426.829V425.268H174.101V426.829H172.54ZM172.54 425.268V423.707H174.101V425.268H172.54ZM170.979 423.707V422.146H172.54V423.707H170.979ZM169.418 423.707V422.146H170.979V423.707H169.418ZM169.418 425.268V423.707H170.979V425.268H169.418ZM169.418 426.829V425.268H170.979V426.829H169.418ZM169.418 428.39V426.829H170.979V428.39H169.418ZM169.418 429.951V428.39H170.979V429.951H169.418ZM170.979 429.951V428.39H172.54V429.951H170.979ZM170.979 431.512V429.951H172.54V431.512H170.979ZM170.979 433.073V431.512H172.54V433.073H170.979ZM170.979 434.634V433.073H172.54V434.634H170.979ZM169.418 434.634V433.073H170.979V434.634H169.418ZM169.418 433.073V431.512H170.979V433.073H169.418ZM169.418 431.512V429.951H170.979V431.512H169.418ZM170.979 426.829V425.268H172.54V426.829H170.979ZM170.979 425.268V423.707H172.54V425.268H170.979ZM170.979 428.39V426.829H172.54V428.39H170.979ZM156.93 423.707V422.146H158.491V423.707H156.93ZM155.369 423.707V422.146H156.93V423.707H155.369ZM153.808 423.707V422.146H155.369V423.707H153.808ZM152.247 423.707V422.146H153.808V423.707H152.247ZM150.686 423.707V422.146H152.247V423.707H150.686ZM150.686 422.146V420.585H152.247V422.146H150.686ZM152.247 422.146V420.585H153.808V422.146H152.247ZM153.808 422.146V420.585H155.369V422.146H153.808ZM155.369 422.146V420.585H156.93V422.146H155.369ZM156.93 422.146V420.585H158.491V422.146H156.93ZM158.491 422.146V420.585H160.052V422.146H158.491ZM158.491 420.585V419.024H160.052V420.585H158.491ZM156.93 420.585V419.024H158.491V420.585H156.93ZM155.369 420.585V419.024H156.93V420.585H155.369ZM153.808 420.585V419.024H155.369V420.585H153.808ZM153.808 419.024V417.463H155.369V419.024H153.808ZM152.247 419.024V417.463H153.808V419.024H152.247ZM152.247 420.585V419.024H153.808V420.585H152.247ZM153.808 417.463V415.902H155.369V417.463H153.808ZM155.369 417.463V415.902H156.93V417.463H155.369ZM155.369 419.024V417.463H156.93V419.024H155.369ZM156.93 419.024V417.463H158.491V419.024H156.93ZM156.93 417.463V415.902H158.491V417.463H156.93ZM156.93 415.902V414.341H158.491V415.902H156.93ZM158.491 415.902V414.341H160.052V415.902H158.491ZM160.052 415.902V414.341H161.613V415.902H160.052ZM161.613 415.902V414.341H163.174V415.902H161.613ZM163.174 415.902V414.341H164.735V415.902H163.174ZM164.735 415.902V414.341H166.296V415.902H164.735ZM166.296 415.902V414.341H167.857V415.902H166.296ZM167.857 415.902V414.341H169.418V415.902H167.857ZM166.296 417.463V415.902H167.857V417.463H166.296ZM164.735 417.463V415.902H166.296V417.463H164.735ZM163.174 417.463V415.902H164.735V417.463H163.174ZM161.613 417.463V415.902H163.174V417.463H161.613ZM160.052 417.463V415.902H161.613V417.463H160.052ZM158.491 417.463V415.902H160.052V417.463H158.491ZM158.491 419.024V417.463H160.052V419.024H158.491ZM160.052 419.024V417.463H161.613V419.024H160.052ZM161.613 419.024V417.463H163.174V419.024H161.613ZM163.174 419.024V417.463H164.735V419.024H163.174ZM164.735 419.024V417.463H166.296V419.024H164.735ZM166.296 419.024V417.463H167.857V419.024H166.296ZM167.857 417.463V415.902H169.418V417.463H167.857ZM169.418 417.463V415.902H170.979V417.463H169.418ZM170.979 417.463V415.902H172.54V417.463H170.979ZM170.979 419.024V417.463H172.54V419.024H170.979ZM172.54 419.024V417.463H174.101V419.024H172.54ZM172.54 420.585V419.024H174.101V420.585H172.54ZM170.979 420.585V419.024H172.54V420.585H170.979ZM169.418 420.585V419.024H170.979V420.585H169.418ZM167.857 420.585V419.024H169.418V420.585H167.857ZM166.296 420.585V419.024H167.857V420.585H166.296ZM164.735 420.585V419.024H166.296V420.585H164.735ZM163.174 420.585V419.024H164.735V420.585H163.174ZM161.613 420.585V419.024H163.174V420.585H161.613ZM160.052 420.585V419.024H161.613V420.585H160.052ZM167.857 419.024V417.463H169.418V419.024H167.857ZM169.418 419.024V417.463H170.979V419.024H169.418ZM152.247 433.073V431.512H153.808V433.073H152.247ZM153.808 433.073V431.512H155.369V433.073H153.808ZM155.369 433.073V431.512H156.93V433.073H155.369ZM156.93 433.073V431.512H158.491V433.073H156.93ZM153.808 431.512V429.951H155.369V431.512H153.808ZM155.369 431.512V429.951H156.93V431.512H155.369ZM158.491 431.512V429.951H160.052V431.512H158.491ZM160.052 431.512V429.951H161.613V431.512H160.052ZM161.613 431.512V429.951H163.174V431.512H161.613ZM163.174 431.512V429.951H164.735V431.512H163.174ZM164.735 431.512V429.951H166.296V431.512H164.735ZM166.296 431.512V429.951H167.857V431.512H166.296ZM156.93 431.512V429.951H158.491V431.512H156.93ZM152.247 431.512V429.951H153.808V431.512H152.247ZM153.808 429.951V428.39H155.369V429.951H153.808ZM155.369 429.951V428.39H156.93V429.951H155.369ZM156.93 429.951V428.39H158.491V429.951H156.93ZM158.491 429.951V428.39H160.052V429.951H158.491ZM160.052 429.951V428.39H161.613V429.951H160.052ZM161.613 429.951V428.39H163.174V429.951H161.613ZM163.174 429.951V428.39H164.735V429.951H163.174ZM164.735 429.951V428.39H166.296V429.951H164.735ZM166.296 429.951V428.39H167.857V429.951H166.296ZM166.296 428.39V426.829H167.857V428.39H166.296ZM164.735 428.39V426.829H166.296V428.39H164.735ZM163.174 428.39V426.829H164.735V428.39H163.174ZM160.052 428.39V426.829H161.613V428.39H160.052ZM158.491 428.39V426.829H160.052V428.39H158.491ZM156.93 428.39V426.829H158.491V428.39H156.93ZM161.613 428.39V426.829H163.174V428.39H161.613ZM175.662 437.756V439.317H174.101V437.756H175.662ZM175.662 439.317V440.878H174.101V439.317H175.662ZM175.662 440.878V442.439H174.101V440.878H175.662ZM175.662 442.439V444H174.101V442.439H175.662ZM174.101 442.439V444H172.54V442.439H174.101ZM174.101 440.878V442.439H172.54V440.878H174.101ZM172.54 442.439V444H170.979V442.439H172.54ZM170.979 442.439V444H169.418V442.439H170.979ZM169.418 442.439V444H167.857V442.439H169.418ZM167.857 436.195V437.756H166.296V436.195H167.857ZM156.93 442.439V444H155.369V442.439H156.93ZM160.052 431.512V433.073H158.491V431.512H160.052ZM183.495 442.439V444H181.934V442.439H183.495ZM183.495 440.878V442.439H181.934V440.878H183.495ZM183.495 439.317V440.878H181.934V439.317H183.495ZM183.495 437.756V439.317H181.934V437.756H183.495ZM183.495 436.195V437.756H181.934V436.195H183.495ZM183.495 434.634V436.195H181.934V434.634H183.495ZM183.495 433.073V434.634H181.934V433.073H183.495ZM183.495 431.512V433.073H181.934V431.512H183.495ZM183.495 429.951V431.512H181.934V429.951H183.495ZM183.495 428.39V429.951H181.934V428.39H183.495ZM183.495 426.829V428.39H181.934V426.829H183.495ZM183.495 425.268V426.829H181.934V425.268H183.495ZM183.495 423.707V425.268H181.934V423.707H183.495ZM183.495 422.146V423.707H181.934V422.146H183.495ZM183.495 420.585V422.146H181.934V420.585H183.495ZM185.056 420.585V422.146H183.495V420.585H185.056ZM185.056 422.146V423.707H183.495V422.146H185.056ZM185.056 423.707V425.268H183.495V423.707H185.056ZM185.056 425.268V426.829H183.495V425.268H185.056ZM185.056 426.829V428.39H183.495V426.829H185.056ZM185.056 428.39V429.951H183.495V428.39H185.056ZM185.056 429.951V431.512H183.495V429.951H185.056ZM186.617 431.512V433.073H185.056V431.512H186.617ZM186.617 433.073V434.634H185.056V433.073H186.617ZM186.617 434.634V436.195H185.056V434.634H186.617ZM186.617 436.195V437.756H185.056V436.195H186.617ZM186.617 437.756V439.317H185.056V437.756H186.617ZM186.617 439.317V440.878H185.056V439.317H186.617ZM186.617 440.878V442.439H185.056V440.878H186.617ZM186.617 442.439V444H185.056V442.439H186.617ZM188.178 442.439V444H186.617V442.439H188.178ZM189.739 442.439V444H188.178V442.439H189.739ZM189.739 440.878V442.439H188.178V440.878H189.739ZM189.739 439.317V440.878H188.178V439.317H189.739ZM189.739 437.756V439.317H188.178V437.756H189.739ZM189.739 436.195V437.756H188.178V436.195H189.739ZM189.739 434.634V436.195H188.178V434.634H189.739ZM189.739 433.073V434.634H188.178V433.073H189.739ZM189.739 431.512V433.073H188.178V431.512H189.739ZM188.178 431.512V433.073H186.617V431.512H188.178ZM188.178 429.951V431.512H186.617V429.951H188.178ZM188.178 433.073V434.634H186.617V433.073H188.178ZM188.178 434.634V436.195H186.617V434.634H188.178ZM188.178 436.195V437.756H186.617V436.195H188.178ZM188.178 437.756V439.317H186.617V437.756H188.178ZM188.178 439.317V440.878H186.617V439.317H188.178ZM188.178 440.878V442.439H186.617V440.878H188.178ZM185.056 442.439V444H183.495V442.439H185.056ZM185.056 440.878V442.439H183.495V440.878H185.056ZM185.056 439.317V440.878H183.495V439.317H185.056ZM185.056 437.756V439.317H183.495V437.756H185.056ZM185.056 436.195V437.756H183.495V436.195H185.056ZM185.056 434.634V436.195H183.495V434.634H185.056ZM185.056 433.073V434.634H183.495V433.073H185.056ZM185.056 431.512V433.073H183.495V431.512H185.056ZM183.495 404.976V406.537H181.934V404.976H183.495ZM183.495 406.537V408.098H181.934V406.537H183.495ZM183.495 408.098V409.659H181.934V408.098H183.495ZM183.495 409.659V411.22H181.934V409.659H183.495ZM183.495 411.22V412.78H181.934V411.22H183.495ZM183.495 412.78V414.341H181.934V412.78H183.495ZM183.495 414.341V415.902H181.934V414.341H183.495ZM183.495 415.902V417.463H181.934V415.902H183.495ZM183.495 417.463V419.024H181.934V417.463H183.495ZM183.495 419.024V420.585H181.934V419.024H183.495ZM188.178 404.976V406.537H186.617V404.976H188.178ZM188.178 406.537V408.098H186.617V406.537H188.178ZM188.178 408.098V409.659H186.617V408.098H188.178ZM188.178 409.659V411.22H186.617V409.659H188.178ZM188.178 411.22V412.78H186.617V411.22H188.178ZM188.178 412.78V414.341H186.617V412.78H188.178ZM188.178 415.902V417.463H186.617V415.902H188.178ZM188.178 417.463V419.024H186.617V417.463H188.178ZM188.178 419.024V420.585H186.617V419.024H188.178ZM188.178 420.585V422.146H186.617V420.585H188.178ZM188.178 422.146V423.707H186.617V422.146H188.178ZM188.178 423.707V425.268H186.617V423.707H188.178ZM188.178 425.268V426.829H186.617V425.268H188.178ZM189.739 426.829V428.39H188.178V426.829H189.739ZM189.739 428.39V429.951H188.178V428.39H189.739ZM189.739 429.951V431.512H188.178V429.951H189.739ZM189.739 425.268V426.829H188.178V425.268H189.739ZM189.739 423.707V425.268H188.178V423.707H189.739ZM189.739 422.146V423.707H188.178V422.146H189.739ZM189.739 420.585V422.146H188.178V420.585H189.739ZM189.739 419.024V420.585H188.178V419.024H189.739ZM189.739 417.463V419.024H188.178V417.463H189.739ZM189.739 415.902V417.463H188.178V415.902H189.739ZM189.739 414.341V415.902H188.178V414.341H189.739ZM189.739 412.78V414.341H188.178V412.78H189.739ZM189.739 411.22V412.78H188.178V411.22H189.739ZM188.178 414.341V415.902H186.617V414.341H188.178ZM189.739 409.659V411.22H188.178V409.659H189.739ZM189.739 408.098V409.659H188.178V408.098H189.739ZM189.739 406.537V408.098H188.178V406.537H189.739ZM189.739 404.976V406.537H188.178V404.976H189.739ZM186.617 404.976V406.537H185.056V404.976H186.617ZM185.056 404.976V406.537H183.495V404.976H185.056ZM185.056 406.537V408.098H183.495V406.537H185.056ZM186.617 406.537V408.098H185.056V406.537H186.617ZM186.617 408.098V409.659H185.056V408.098H186.617ZM186.617 409.659V411.22H185.056V409.659H186.617ZM186.617 411.22V412.78H185.056V411.22H186.617ZM186.617 412.78V414.341H185.056V412.78H186.617ZM186.617 414.341V415.902H185.056V414.341H186.617ZM186.617 415.902V417.463H185.056V415.902H186.617ZM185.056 417.463V419.024H183.495V417.463H185.056ZM185.056 419.024V420.585H183.495V419.024H185.056ZM185.056 415.902V417.463H183.495V415.902H185.056ZM185.056 414.341V415.902H183.495V414.341H185.056ZM185.056 412.78V414.341H183.495V412.78H185.056ZM185.056 411.22V412.78H183.495V411.22H185.056ZM185.056 409.659V411.22H183.495V409.659H185.056ZM185.056 408.098V409.659H183.495V408.098H185.056ZM186.617 417.463V419.024H185.056V417.463H186.617ZM186.617 419.024V420.585H185.056V419.024H186.617ZM186.617 420.585V422.146H185.056V420.585H186.617ZM186.617 422.146V423.707H185.056V422.146H186.617ZM186.617 423.707V425.268H185.056V423.707H186.617ZM186.617 425.268V426.829H185.056V425.268H186.617ZM186.617 426.829V428.39H185.056V426.829H186.617ZM186.617 428.39V429.951H185.056V428.39H186.617ZM186.617 429.951V431.512H185.056V429.951H186.617ZM188.178 428.39V429.951H186.617V428.39H188.178ZM188.178 426.829V428.39H186.617V426.829H188.178ZM200.666 442.439V444H199.105V442.439H200.666ZM202.227 442.439V444H200.666V442.439H202.227ZM203.788 442.439V444H202.227V442.439H203.788ZM205.349 442.439V444H203.788V442.439H205.349ZM206.91 440.878V442.439H205.349V440.878H206.91ZM206.91 439.317V440.878H205.349V439.317H206.91ZM206.91 442.439V444H205.349V442.439H206.91ZM205.349 440.878V442.439H203.788V440.878H205.349ZM203.788 440.878V442.439H202.227V440.878H203.788ZM202.227 440.878V442.439H200.666V440.878H202.227ZM200.666 440.878V442.439H199.105V440.878H200.666ZM200.666 439.317V440.878H199.105V439.317H200.666ZM200.666 437.756V439.317H199.105V437.756H200.666ZM202.227 437.756V439.317H200.666V437.756H202.227ZM203.788 437.756V439.317H202.227V437.756H203.788ZM205.349 437.756V439.317H203.788V437.756H205.349ZM206.91 437.756V439.317H205.349V437.756H206.91ZM205.349 439.317V440.878H203.788V439.317H205.349ZM203.788 439.317V440.878H202.227V439.317H203.788ZM202.227 439.317V440.878H200.666V439.317H202.227ZM206.91 420.585V422.146H205.349V420.585H206.91ZM205.349 420.585V422.146H203.788V420.585H205.349ZM202.227 420.585V422.146H200.666V420.585H202.227ZM202.227 422.146V423.707H200.666V422.146H202.227ZM202.227 423.707V425.268H200.666V423.707H202.227ZM200.666 425.268V426.829H199.105V425.268H200.666ZM200.666 426.829V428.39H199.105V426.829H200.666ZM200.666 428.39V429.951H199.105V428.39H200.666ZM200.666 429.951V431.512H199.105V429.951H200.666ZM200.666 431.512V433.073H199.105V431.512H200.666ZM200.666 433.073V434.634H199.105V433.073H200.666ZM200.666 434.634V436.195H199.105V434.634H200.666ZM200.666 436.195V437.756H199.105V436.195H200.666ZM202.227 436.195V437.756H200.666V436.195H202.227ZM203.788 436.195V437.756H202.227V436.195H203.788ZM205.349 436.195V437.756H203.788V436.195H205.349ZM206.91 436.195V437.756H205.349V436.195H206.91ZM206.91 434.634V436.195H205.349V434.634H206.91ZM206.91 431.512V433.073H205.349V431.512H206.91ZM206.91 429.951V431.512H205.349V429.951H206.91ZM206.91 428.39V429.951H205.349V428.39H206.91ZM206.91 426.829V428.39H205.349V426.829H206.91ZM206.91 425.268V426.829H205.349V425.268H206.91ZM206.91 423.707V425.268H205.349V423.707H206.91ZM206.91 422.146V423.707H205.349V422.146H206.91ZM205.349 428.39V429.951H203.788V428.39H205.349ZM205.349 431.512V433.073H203.788V431.512H205.349ZM205.349 433.073V434.634H203.788V433.073H205.349ZM205.349 434.634V436.195H203.788V434.634H205.349ZM206.91 433.073V434.634H205.349V433.073H206.91ZM205.349 425.268V426.829H203.788V425.268H205.349ZM203.788 425.268V426.829H202.227V425.268H203.788ZM202.227 425.268V426.829H200.666V425.268H202.227ZM202.227 426.829V428.39H200.666V426.829H202.227ZM202.227 428.39V429.951H200.666V428.39H202.227ZM202.227 429.951V431.512H200.666V429.951H202.227ZM202.227 431.512V433.073H200.666V431.512H202.227ZM202.227 433.073V434.634H200.666V433.073H202.227ZM202.227 434.634V436.195H200.666V434.634H202.227ZM203.788 434.634V436.195H202.227V434.634H203.788ZM203.788 433.073V434.634H202.227V433.073H203.788ZM203.788 431.512V433.073H202.227V431.512H203.788ZM203.788 429.951V431.512H202.227V429.951H203.788ZM203.788 428.39V429.951H202.227V428.39H203.788ZM203.788 426.829V428.39H202.227V426.829H203.788ZM205.349 426.829V428.39H203.788V426.829H205.349ZM205.349 429.951V431.512H203.788V429.951H205.349ZM205.349 423.707V425.268H203.788V423.707H205.349ZM205.349 422.146V423.707H203.788V422.146H205.349ZM203.788 422.146V423.707H202.227V422.146H203.788ZM203.788 423.707V425.268H202.227V423.707H203.788ZM200.666 423.707V425.268H199.105V423.707H200.666ZM200.666 422.146V423.707H199.105V422.146H200.666ZM200.666 420.585V422.146H199.105V420.585H200.666ZM203.788 420.585V422.146H202.227V420.585H203.788ZM200.666 414.341V415.902H199.105V414.341H200.666ZM200.666 415.902V417.463H199.105V415.902H200.666ZM202.227 415.902V417.463H200.666V415.902H202.227ZM203.788 415.902V417.463H202.227V415.902H203.788ZM203.788 417.463V419.024H202.227V417.463H203.788ZM205.349 417.463V419.024H203.788V417.463H205.349ZM205.349 419.024V420.585H203.788V419.024H205.349ZM203.788 419.024V420.585H202.227V419.024H203.788ZM202.227 419.024V420.585H200.666V419.024H202.227ZM202.227 417.463V419.024H200.666V417.463H202.227ZM200.666 417.463V419.024H199.105V417.463H200.666ZM199.105 417.463V419.024H197.544V417.463H199.105ZM199.105 419.024V420.585H197.544V419.024H199.105ZM200.666 419.024V420.585H199.105V419.024H200.666ZM199.105 420.585V422.146H197.544V420.585H199.105ZM197.544 419.024V420.585H195.983V419.024H197.544ZM197.544 417.463V419.024H195.983V417.463H197.544ZM197.544 415.902V417.463H195.983V415.902H197.544ZM197.544 414.341V415.902H195.983V414.341H197.544ZM199.105 414.341V415.902H197.544V414.341H199.105ZM199.105 415.902V417.463H197.544V415.902H199.105ZM195.983 414.341V415.902H194.422V414.341H195.983ZM195.983 415.902V417.463H194.422V415.902H195.983ZM195.983 417.463V419.024H194.422V417.463H195.983ZM195.983 419.024V420.585H194.422V419.024H195.983ZM194.422 414.341V415.902H192.861V414.341H194.422ZM194.422 415.902V417.463H192.861V415.902H194.422ZM192.861 415.902V417.463H191.3V415.902H192.861ZM192.861 417.463V419.024H191.3V417.463H192.861ZM191.3 417.463V419.024H189.739V417.463H191.3ZM191.3 419.024V420.585H189.739V419.024H191.3ZM192.861 419.024V420.585H191.3V419.024H192.861ZM194.422 419.024V420.585H192.861V419.024H194.422ZM194.422 417.463V419.024H192.861V417.463H194.422ZM191.3 420.585V422.146H189.739V420.585H191.3ZM192.861 414.341V415.902H191.3V414.341H192.861ZM191.3 415.902V417.463H189.739V415.902H191.3Z" fill="#C21E1E"/>
</svg>
