<svg width="485" height="470" viewBox="0 0 485 470" fill="none" xmlns="http://www.w3.org/2000/svg">
<path d="M162.206 122.039C117.149 142.002 81.265 177.826 61.2455 222.876C58.2237 229.674 61.2995 237.605 68.0986 240.626C69.8793 241.435 71.714 241.813 73.5486 241.813C78.7289 241.813 83.6393 238.845 85.8517 233.828C103.173 194.875 134.147 163.906 173.106 146.641C179.905 143.62 182.981 135.689 179.959 128.891C176.992 122.093 169.005 119.018 162.206 122.039ZM278.006 63.5015C281.891 57.1352 284.266 49.7437 284.266 41.7588C284.266 18.6674 265.541 0 242.5 0C219.405 0 200.734 18.7213 200.734 41.7588C200.734 49.7437 203.109 57.1891 206.994 63.5015C90.0606 80.7122 0.05396 181.656 0.05396 303.264V332.452C0.05396 339.897 6.09758 345.94 13.5442 345.94H471.51C478.956 345.94 485 339.897 485 332.452V303.264C484.946 181.656 394.885 80.7661 278.006 63.5015ZM458.02 318.964H26.9804V303.264C26.9804 184.462 123.678 87.8338 242.5 87.8338C361.322 87.8338 458.02 184.462 458.02 303.264V318.964ZM471.456 373.024H13.4902C6.04361 373.024 0 379.067 0 386.512C0 393.957 6.04361 400 13.4902 400H471.456C478.902 400 484.946 393.957 484.946 386.512C484.946 379.067 478.902 373.024 471.456 373.024Z" fill="#C21E1E"/>
<path d="M170.683 468.439V470H169.122V468.439H170.683ZM170.683 466.878V468.439H169.122V466.878H170.683ZM170.683 465.317V466.878H169.122V465.317H170.683ZM170.683 463.756V465.317H169.122V463.756H170.683ZM170.683 462.195V463.756H169.122V462.195H170.683ZM170.683 460.634V462.195H169.122V460.634H170.683ZM170.683 459.073V460.634H169.122V459.073H170.683ZM170.683 457.512V459.073H169.122V457.512H170.683ZM170.683 455.951V457.512H169.122V455.951H170.683ZM170.683 454.39V455.951H169.122V454.39H170.683ZM170.683 452.829V454.39H169.122V452.829H170.683ZM170.683 451.268V452.829H169.122V451.268H170.683ZM170.683 449.707V451.268H169.122V449.707H170.683ZM170.683 448.146V449.707H169.122V448.146H170.683ZM170.683 446.585V448.146H169.122V446.585H170.683ZM172.244 446.585V448.146H170.683V446.585H172.244ZM172.244 448.146V449.707H170.683V448.146H172.244ZM172.244 449.707V451.268H170.683V449.707H172.244ZM172.244 451.268V452.829H170.683V451.268H172.244ZM172.244 452.829V454.39H170.683V452.829H172.244ZM172.244 454.39V455.951H170.683V454.39H172.244ZM172.244 455.951V457.512H170.683V455.951H172.244ZM173.805 457.512V459.073H172.244V457.512H173.805ZM173.805 459.073V460.634H172.244V459.073H173.805ZM173.805 460.634V462.195H172.244V460.634H173.805ZM173.805 462.195V463.756H172.244V462.195H173.805ZM173.805 463.756V465.317H172.244V463.756H173.805ZM173.805 465.317V466.878H172.244V465.317H173.805ZM173.805 466.878V468.439H172.244V466.878H173.805ZM173.805 468.439V470H172.244V468.439H173.805ZM175.366 468.439V470H173.805V468.439H175.366ZM176.927 468.439V470H175.366V468.439H176.927ZM176.927 466.878V468.439H175.366V466.878H176.927ZM176.927 465.317V466.878H175.366V465.317H176.927ZM176.927 463.756V465.317H175.366V463.756H176.927ZM176.927 462.195V463.756H175.366V462.195H176.927ZM176.927 460.634V462.195H175.366V460.634H176.927ZM176.927 459.073V460.634H175.366V459.073H176.927ZM176.927 457.512V459.073H175.366V457.512H176.927ZM175.366 457.512V459.073H173.805V457.512H175.366ZM175.366 455.951V457.512H173.805V455.951H175.366ZM175.366 459.073V460.634H173.805V459.073H175.366ZM175.366 460.634V462.195H173.805V460.634H175.366ZM175.366 462.195V463.756H173.805V462.195H175.366ZM175.366 463.756V465.317H173.805V463.756H175.366ZM175.366 465.317V466.878H173.805V465.317H175.366ZM175.366 466.878V468.439H173.805V466.878H175.366ZM172.244 468.439V470H170.683V468.439H172.244ZM172.244 466.878V468.439H170.683V466.878H172.244ZM172.244 465.317V466.878H170.683V465.317H172.244ZM172.244 463.756V465.317H170.683V463.756H172.244ZM172.244 462.195V463.756H170.683V462.195H172.244ZM172.244 460.634V462.195H170.683V460.634H172.244ZM172.244 459.073V460.634H170.683V459.073H172.244ZM172.244 457.512V459.073H170.683V457.512H172.244ZM170.683 430.976V432.537H169.122V430.976H170.683ZM170.683 432.537V434.098H169.122V432.537H170.683ZM170.683 434.098V435.659H169.122V434.098H170.683ZM170.683 435.659V437.22H169.122V435.659H170.683ZM170.683 437.22V438.78H169.122V437.22H170.683ZM170.683 438.78V440.341H169.122V438.78H170.683ZM170.683 440.341V441.902H169.122V440.341H170.683ZM170.683 441.902V443.463H169.122V441.902H170.683ZM170.683 443.463V445.024H169.122V443.463H170.683ZM170.683 445.024V446.585H169.122V445.024H170.683ZM175.366 430.976V432.537H173.805V430.976H175.366ZM175.366 432.537V434.098H173.805V432.537H175.366ZM175.366 434.098V435.659H173.805V434.098H175.366ZM175.366 435.659V437.22H173.805V435.659H175.366ZM175.366 437.22V438.78H173.805V437.22H175.366ZM175.366 438.78V440.341H173.805V438.78H175.366ZM175.366 441.902V443.463H173.805V441.902H175.366ZM175.366 443.463V445.024H173.805V443.463H175.366ZM175.366 445.024V446.585H173.805V445.024H175.366ZM175.366 446.585V448.146H173.805V446.585H175.366ZM175.366 448.146V449.707H173.805V448.146H175.366ZM175.366 449.707V451.268H173.805V449.707H175.366ZM175.366 451.268V452.829H173.805V451.268H175.366ZM176.927 452.829V454.39H175.366V452.829H176.927ZM176.927 454.39V455.951H175.366V454.39H176.927ZM176.927 455.951V457.512H175.366V455.951H176.927ZM176.927 451.268V452.829H175.366V451.268H176.927ZM176.927 449.707V451.268H175.366V449.707H176.927ZM176.927 448.146V449.707H175.366V448.146H176.927ZM176.927 446.585V448.146H175.366V446.585H176.927ZM176.927 445.024V446.585H175.366V445.024H176.927ZM176.927 443.463V445.024H175.366V443.463H176.927ZM176.927 441.902V443.463H175.366V441.902H176.927ZM176.927 440.341V441.902H175.366V440.341H176.927ZM176.927 438.78V440.341H175.366V438.78H176.927ZM176.927 437.22V438.78H175.366V437.22H176.927ZM175.366 440.341V441.902H173.805V440.341H175.366ZM176.927 435.659V437.22H175.366V435.659H176.927ZM176.927 434.098V435.659H175.366V434.098H176.927ZM176.927 432.537V434.098H175.366V432.537H176.927ZM176.927 430.976V432.537H175.366V430.976H176.927ZM173.805 430.976V432.537H172.244V430.976H173.805ZM172.244 430.976V432.537H170.683V430.976H172.244ZM172.244 432.537V434.098H170.683V432.537H172.244ZM173.805 432.537V434.098H172.244V432.537H173.805ZM173.805 434.098V435.659H172.244V434.098H173.805ZM173.805 435.659V437.22H172.244V435.659H173.805ZM173.805 437.22V438.78H172.244V437.22H173.805ZM173.805 438.78V440.341H172.244V438.78H173.805ZM173.805 440.341V441.902H172.244V440.341H173.805ZM173.805 441.902V443.463H172.244V441.902H173.805ZM172.244 443.463V445.024H170.683V443.463H172.244ZM172.244 445.024V446.585H170.683V445.024H172.244ZM172.244 441.902V443.463H170.683V441.902H172.244ZM172.244 440.341V441.902H170.683V440.341H172.244ZM172.244 438.78V440.341H170.683V438.78H172.244ZM172.244 437.22V438.78H170.683V437.22H172.244ZM172.244 435.659V437.22H170.683V435.659H172.244ZM172.244 434.098V435.659H170.683V434.098H172.244ZM173.805 443.463V445.024H172.244V443.463H173.805ZM173.805 445.024V446.585H172.244V445.024H173.805ZM173.805 446.585V448.146H172.244V446.585H173.805ZM173.805 448.146V449.707H172.244V448.146H173.805ZM173.805 449.707V451.268H172.244V449.707H173.805ZM173.805 451.268V452.829H172.244V451.268H173.805ZM173.805 452.829V454.39H172.244V452.829H173.805ZM173.805 454.39V455.951H172.244V454.39H173.805ZM173.805 455.951V457.512H172.244V455.951H173.805ZM175.366 454.39V455.951H173.805V454.39H175.366ZM175.366 452.829V454.39H173.805V452.829H175.366ZM200.341 430.976V432.537H198.78V430.976H200.341ZM200.341 432.537V434.098H198.78V432.537H200.341ZM200.341 434.098V435.659H198.78V434.098H200.341ZM200.341 437.22V438.78H198.78V437.22H200.341ZM200.341 438.78V440.341H198.78V438.78H200.341ZM200.341 440.341V441.902H198.78V440.341H200.341ZM200.341 441.902V443.463H198.78V441.902H200.341ZM200.341 443.463V445.024H198.78V443.463H200.341ZM200.341 445.024V446.585H198.78V445.024H200.341ZM200.341 446.585V448.146H198.78V446.585H200.341ZM201.902 448.146V449.707H200.341V448.146H201.902ZM201.902 449.707V451.268H200.341V449.707H201.902ZM201.902 451.268V452.829H200.341V451.268H201.902ZM201.902 452.829V454.39H200.341V452.829H201.902ZM201.902 454.39V455.951H200.341V454.39H201.902ZM201.902 455.951V457.512H200.341V455.951H201.902ZM203.463 455.951V457.512H201.902V455.951H203.463ZM203.463 457.512V459.073H201.902V457.512H203.463ZM203.463 459.073V460.634H201.902V459.073H203.463ZM203.463 460.634V462.195H201.902V460.634H203.463ZM203.463 462.195V463.756H201.902V462.195H203.463ZM203.463 463.756V465.317H201.902V463.756H203.463ZM203.463 465.317V466.878H201.902V465.317H203.463ZM203.463 466.878V468.439H201.902V466.878H203.463ZM203.463 468.439V470H201.902V468.439H203.463ZM201.902 468.439V470H200.341V468.439H201.902ZM201.902 466.878V468.439H200.341V466.878H201.902ZM201.902 465.317V466.878H200.341V465.317H201.902ZM201.902 463.756V465.317H200.341V463.756H201.902ZM201.902 462.195V463.756H200.341V462.195H201.902ZM201.902 460.634V462.195H200.341V460.634H201.902ZM201.902 459.073V460.634H200.341V459.073H201.902ZM200.341 459.073V460.634H198.78V459.073H200.341ZM200.341 457.512V459.073H198.78V457.512H200.341ZM201.902 457.512V459.073H200.341V457.512H201.902ZM200.341 448.146V449.707H198.78V448.146H200.341ZM200.341 449.707V451.268H198.78V449.707H200.341ZM200.341 451.268V452.829H198.78V451.268H200.341ZM200.341 452.829V454.39H198.78V452.829H200.341ZM200.341 454.39V455.951H198.78V454.39H200.341ZM200.341 455.951V457.512H198.78V455.951H200.341ZM200.341 435.659V437.22H198.78V435.659H200.341ZM200.341 460.634V462.195H198.78V460.634H200.341ZM200.341 462.195V463.756H198.78V462.195H200.341ZM200.341 463.756V465.317H198.78V463.756H200.341ZM200.341 465.317V466.878H198.78V465.317H200.341ZM200.341 466.878V468.439H198.78V466.878H200.341ZM200.341 468.439V470H198.78V468.439H200.341ZM205.024 468.439V470H203.463V468.439H205.024ZM206.585 468.439V470H205.024V468.439H206.585ZM206.585 466.878V468.439H205.024V466.878H206.585ZM206.585 465.317V466.878H205.024V465.317H206.585ZM206.585 463.756V465.317H205.024V463.756H206.585ZM206.585 462.195V463.756H205.024V462.195H206.585ZM206.585 460.634V462.195H205.024V460.634H206.585ZM206.585 459.073V460.634H205.024V459.073H206.585ZM206.585 457.512V459.073H205.024V457.512H206.585ZM206.585 455.951V457.512H205.024V455.951H206.585ZM206.585 454.39V455.951H205.024V454.39H206.585ZM206.585 452.829V454.39H205.024V452.829H206.585ZM206.585 451.268V452.829H205.024V451.268H206.585ZM206.585 449.707V451.268H205.024V449.707H206.585ZM206.585 448.146V449.707H205.024V448.146H206.585ZM206.585 446.585V448.146H205.024V446.585H206.585ZM206.585 445.024V446.585H205.024V445.024H206.585ZM206.585 443.463V445.024H205.024V443.463H206.585ZM206.585 441.902V443.463H205.024V441.902H206.585ZM206.585 440.341V441.902H205.024V440.341H206.585ZM201.902 430.976V432.537H200.341V430.976H201.902ZM203.463 430.976V432.537H201.902V430.976H203.463ZM205.024 430.976V432.537H203.463V430.976H205.024ZM206.585 430.976V432.537H205.024V430.976H206.585ZM206.585 432.537V434.098H205.024V432.537H206.585ZM206.585 434.098V435.659H205.024V434.098H206.585ZM206.585 435.659V437.22H205.024V435.659H206.585ZM206.585 437.22V438.78H205.024V437.22H206.585ZM206.585 438.78V440.341H205.024V438.78H206.585ZM201.902 432.537V434.098H200.341V432.537H201.902ZM203.463 432.537V434.098H201.902V432.537H203.463ZM205.024 432.537V434.098H203.463V432.537H205.024ZM205.024 434.098V435.659H203.463V434.098H205.024ZM205.024 435.659V437.22H203.463V435.659H205.024ZM205.024 437.22V438.78H203.463V437.22H205.024ZM205.024 438.78V440.341H203.463V438.78H205.024ZM203.463 438.78V440.341H201.902V438.78H203.463ZM203.463 437.22V438.78H201.902V437.22H203.463ZM203.463 435.659V437.22H201.902V435.659H203.463ZM203.463 434.098V435.659H201.902V434.098H203.463ZM201.902 434.098V435.659H200.341V434.098H201.902ZM201.902 435.659V437.22H200.341V435.659H201.902ZM201.902 437.22V438.78H200.341V437.22H201.902ZM201.902 438.78V440.341H200.341V438.78H201.902ZM201.902 440.341V441.902H200.341V440.341H201.902ZM201.902 441.902V443.463H200.341V441.902H201.902ZM201.902 443.463V445.024H200.341V443.463H201.902ZM201.902 445.024V446.585H200.341V445.024H201.902ZM203.463 445.024V446.585H201.902V445.024H203.463ZM203.463 443.463V445.024H201.902V443.463H203.463ZM203.463 441.902V443.463H201.902V441.902H203.463ZM203.463 440.341V441.902H201.902V440.341H203.463ZM205.024 440.341V441.902H203.463V440.341H205.024ZM205.024 441.902V443.463H203.463V441.902H205.024ZM205.024 443.463V445.024H203.463V443.463H205.024ZM205.024 445.024V446.585H203.463V445.024H205.024ZM205.024 446.585V448.146H203.463V446.585H205.024ZM205.024 448.146V449.707H203.463V448.146H205.024ZM205.024 449.707V451.268H203.463V449.707H205.024ZM205.024 451.268V452.829H203.463V451.268H205.024ZM205.024 452.829V454.39H203.463V452.829H205.024ZM205.024 454.39V455.951H203.463V454.39H205.024ZM203.463 454.39V455.951H201.902V454.39H203.463ZM203.463 452.829V454.39H201.902V452.829H203.463ZM203.463 451.268V452.829H201.902V451.268H203.463ZM203.463 449.707V451.268H201.902V449.707H203.463ZM203.463 448.146V449.707H201.902V448.146H203.463ZM201.902 446.585V448.146H200.341V446.585H201.902ZM203.463 446.585V448.146H201.902V446.585H203.463ZM205.024 455.951V457.512H203.463V455.951H205.024ZM205.024 457.512V459.073H203.463V457.512H205.024ZM205.024 459.073V460.634H203.463V459.073H205.024ZM205.024 460.634V462.195H203.463V460.634H205.024ZM205.024 462.195V463.756H203.463V462.195H205.024ZM205.024 463.756V465.317H203.463V463.756H205.024ZM205.024 465.317V466.878H203.463V465.317H205.024ZM205.024 466.878V468.439H203.463V466.878H205.024ZM187.854 449.707V451.268H186.293V449.707H187.854ZM187.854 448.146V449.707H186.293V448.146H187.854ZM187.854 446.585V448.146H186.293V446.585H187.854ZM187.854 445.024V446.585H186.293V445.024H187.854ZM187.854 443.463V445.024H186.293V443.463H187.854ZM187.854 441.902V443.463H186.293V441.902H187.854ZM187.854 451.268V452.829H186.293V451.268H187.854ZM190.976 440.341V441.902H189.415V440.341H190.976ZM192.537 438.78V440.341H190.976V438.78H192.537ZM194.098 437.22V438.78H192.537V437.22H194.098ZM195.659 435.659V437.22H194.098V435.659H195.659ZM186.293 440.341V441.902H184.732V440.341H186.293ZM184.732 438.78V440.341H183.171V438.78H184.732ZM183.171 437.22V438.78H181.61V437.22H183.171ZM181.61 435.659V437.22H180.049V435.659H181.61ZM190.976 449.707V451.268H189.415V449.707H190.976ZM192.537 448.146V449.707H190.976V448.146H192.537ZM194.098 446.585V448.146H192.537V446.585H194.098ZM195.659 445.024V446.585H194.098V445.024H195.659ZM186.293 449.707V451.268H184.732V449.707H186.293ZM184.732 448.146V449.707H183.171V448.146H184.732ZM183.171 446.585V448.146H181.61V446.585H183.171ZM181.61 445.024V446.585H180.049V445.024H181.61ZM178.488 432.537V434.098H176.927V432.537H178.488ZM180.049 434.098V435.659H178.488V434.098H180.049ZM197.22 434.098V435.659H195.659V434.098H197.22ZM198.78 432.537V434.098H197.22V432.537H198.78ZM180.049 438.78V440.341H178.488V438.78H180.049ZM180.049 443.463V445.024H178.488V443.463H180.049ZM180.049 441.902V443.463H178.488V441.902H180.049ZM178.488 441.902V443.463H176.927V441.902H178.488ZM197.22 443.463V445.024H195.659V443.463H197.22ZM198.78 441.902V443.463H197.22V441.902H198.78ZM198.78 440.341V441.902H197.22V440.341H198.78ZM198.78 438.78V440.341H197.22V438.78H198.78ZM198.78 437.22V438.78H197.22V437.22H198.78ZM198.78 435.659V437.22H197.22V435.659H198.78ZM198.78 434.098V435.659H197.22V434.098H198.78ZM197.22 435.659V437.22H195.659V435.659H197.22ZM197.22 437.22V438.78H195.659V437.22H197.22ZM197.22 438.78V440.341H195.659V438.78H197.22ZM197.22 440.341V441.902H195.659V440.341H197.22ZM197.22 441.902V443.463H195.659V441.902H197.22ZM195.659 437.22V438.78H194.098V437.22H195.659ZM195.659 438.78V440.341H194.098V438.78H195.659ZM195.659 440.341V441.902H194.098V440.341H195.659ZM195.659 441.902V443.463H194.098V441.902H195.659ZM195.659 443.463V445.024H194.098V443.463H195.659ZM194.098 438.78V440.341H192.537V438.78H194.098ZM194.098 440.341V441.902H192.537V440.341H194.098ZM194.098 441.902V443.463H192.537V441.902H194.098ZM194.098 443.463V445.024H192.537V443.463H194.098ZM194.098 445.024V446.585H192.537V445.024H194.098ZM192.537 440.341V441.902H190.976V440.341H192.537ZM192.537 441.902V443.463H190.976V441.902H192.537ZM192.537 443.463V445.024H190.976V443.463H192.537ZM192.537 445.024V446.585H190.976V445.024H192.537ZM192.537 446.585V448.146H190.976V446.585H192.537ZM190.976 441.902V443.463H189.415V441.902H190.976ZM190.976 443.463V445.024H189.415V443.463H190.976ZM190.976 445.024V446.585H189.415V445.024H190.976ZM190.976 446.585V448.146H189.415V446.585H190.976ZM190.976 448.146V449.707H189.415V448.146H190.976ZM186.293 448.146V449.707H184.732V448.146H186.293ZM186.293 446.585V448.146H184.732V446.585H186.293ZM184.732 446.585V448.146H183.171V446.585H184.732ZM184.732 445.024V446.585H183.171V445.024H184.732ZM183.171 445.024V446.585H181.61V445.024H183.171ZM183.171 443.463V445.024H181.61V443.463H183.171ZM181.61 443.463V445.024H180.049V443.463H181.61ZM181.61 441.902V443.463H180.049V441.902H181.61ZM180.049 440.341V441.902H178.488V440.341H180.049ZM178.488 440.341V441.902H176.927V440.341H178.488ZM178.488 438.78V440.341H176.927V438.78H178.488ZM178.488 437.22V438.78H176.927V437.22H178.488ZM178.488 435.659V437.22H176.927V435.659H178.488ZM178.488 434.098V435.659H176.927V434.098H178.488ZM180.049 435.659V437.22H178.488V435.659H180.049ZM180.049 437.22V438.78H178.488V437.22H180.049ZM181.61 437.22V438.78H180.049V437.22H181.61ZM181.61 438.78V440.341H180.049V438.78H181.61ZM183.171 438.78V440.341H181.61V438.78H183.171ZM183.171 440.341V441.902H181.61V440.341H183.171ZM184.732 440.341V441.902H183.171V440.341H184.732ZM184.732 441.902V443.463H183.171V441.902H184.732ZM186.293 441.902V443.463H184.732V441.902H186.293ZM186.293 443.463V445.024H184.732V443.463H186.293ZM186.293 445.024V446.585H184.732V445.024H186.293ZM184.732 443.463V445.024H183.171V443.463H184.732ZM183.171 441.902V443.463H181.61V441.902H183.171ZM181.61 440.341V441.902H180.049V440.341H181.61ZM189.415 441.902V443.463H187.854V441.902H189.415ZM189.415 443.463V445.024H187.854V443.463H189.415ZM189.415 445.024V446.585H187.854V445.024H189.415ZM189.415 446.585V448.146H187.854V446.585H189.415ZM189.415 448.146V449.707H187.854V448.146H189.415ZM189.415 449.707V451.268H187.854V449.707H189.415ZM189.415 451.268V452.829H187.854V451.268H189.415ZM217.492 460.634V459.073H219.053V460.634H217.492ZM215.931 460.634V459.073H217.492V460.634H215.931ZM214.37 460.634V459.073H215.931V460.634H214.37ZM212.809 460.634V459.073H214.37V460.634H212.809ZM211.248 460.634V459.073H212.809V460.634H211.248ZM211.248 462.195V460.634H212.809V462.195H211.248ZM211.248 463.756V462.195H212.809V463.756H211.248ZM212.809 463.756V462.195H214.37V463.756H212.809ZM214.37 463.756V462.195H215.931V463.756H214.37ZM215.931 463.756V462.195H217.492V463.756H215.931ZM215.931 462.195V460.634H217.492V462.195H215.931ZM217.492 462.195V460.634H219.053V462.195H217.492ZM214.37 462.195V460.634H215.931V462.195H214.37ZM212.809 462.195V460.634H214.37V462.195H212.809ZM217.492 463.756V462.195H219.053V463.756H217.492ZM219.053 463.756V462.195H220.614V463.756H219.053ZM219.053 465.317V463.756H220.614V465.317H219.053ZM217.492 465.317V463.756H219.053V465.317H217.492ZM215.931 465.317V463.756H217.492V465.317H215.931ZM214.37 465.317V463.756H215.931V465.317H214.37ZM212.809 465.317V463.756H214.37V465.317H212.809ZM212.809 466.878V465.317H214.37V466.878H212.809ZM214.37 466.878V465.317H215.931V466.878H214.37ZM215.931 466.878V465.317H217.492V466.878H215.931ZM217.492 466.878V465.317H219.053V466.878H217.492ZM219.053 466.878V465.317H220.614V466.878H219.053ZM215.931 468.439V466.878H217.492V468.439H215.931ZM214.37 468.439V466.878H215.931V468.439H214.37ZM217.492 468.439V466.878H219.053V468.439H217.492ZM217.492 470V468.439H219.053V470H217.492ZM219.053 470V468.439H220.614V470H219.053ZM219.053 468.439V466.878H220.614V468.439H219.053ZM220.614 468.439V466.878H222.175V468.439H220.614ZM220.614 470V468.439H222.175V470H220.614ZM220.614 466.878V465.317H222.175V466.878H220.614ZM222.175 466.878V465.317H223.736V466.878H222.175ZM222.175 465.317V463.756H223.736V465.317H222.175ZM220.614 465.317V463.756H222.175V465.317H220.614ZM223.736 465.317V463.756H225.297V465.317H223.736ZM223.736 466.878V465.317H225.297V466.878H223.736ZM223.736 468.439V466.878H225.297V468.439H223.736ZM223.736 470V468.439H225.297V470H223.736ZM222.175 470V468.439H223.736V470H222.175ZM222.175 468.439V466.878H223.736V468.439H222.175ZM225.297 470V468.439H226.858V470H225.297ZM228.419 468.439V466.878H229.98V468.439H228.419ZM228.419 466.878V465.317H229.98V466.878H228.419ZM228.419 465.317V463.756H229.98V465.317H228.419ZM226.858 465.317V463.756H228.419V465.317H226.858ZM225.297 465.317V463.756H226.858V465.317H225.297ZM225.297 466.878V465.317H226.858V466.878H225.297ZM225.297 468.439V466.878H226.858V468.439H225.297ZM226.858 468.439V466.878H228.419V468.439H226.858ZM226.858 466.878V465.317H228.419V466.878H226.858ZM229.98 466.878V465.317H231.541V466.878H229.98ZM229.98 468.439V466.878H231.541V468.439H229.98ZM231.541 468.439V466.878H233.102V468.439H231.541ZM231.541 466.878V465.317H233.102V466.878H231.541ZM233.102 466.878V465.317H234.663V466.878H233.102ZM233.102 465.317V463.756H234.663V465.317H233.102ZM233.102 463.756V462.195H234.663V463.756H233.102ZM231.541 463.756V462.195H233.102V463.756H231.541ZM231.541 465.317V463.756H233.102V465.317H231.541ZM229.98 465.317V463.756H231.541V465.317H229.98ZM229.98 463.756V462.195H231.541V463.756H229.98ZM228.419 463.756V462.195H229.98V463.756H228.419ZM234.663 463.756V462.195H236.224V463.756H234.663ZM234.663 462.195V460.634H236.224V462.195H234.663ZM234.663 460.634V459.073H236.224V460.634H234.663ZM234.663 459.073V457.512H236.224V459.073H234.663ZM234.663 457.512V455.951H236.224V457.512H234.663ZM234.663 455.951V454.39H236.224V455.951H234.663ZM234.663 454.39V452.829H236.224V454.39H234.663ZM234.663 452.829V451.268H236.224V452.829H234.663ZM234.663 451.268V449.707H236.224V451.268H234.663ZM234.663 449.707V448.146H236.224V449.707H234.663ZM233.102 449.707V448.146H234.663V449.707H233.102ZM233.102 448.146V446.585H234.663V448.146H233.102ZM234.663 448.146V446.585H236.224V448.146H234.663ZM231.541 448.146V446.585H233.102V448.146H231.541ZM229.98 448.146V446.585H231.541V448.146H229.98ZM228.419 448.146V446.585H229.98V448.146H228.419ZM226.858 448.146V446.585H228.419V448.146H226.858ZM228.419 449.707V448.146H229.98V449.707H228.419ZM228.419 451.268V449.707H229.98V451.268H228.419ZM228.419 452.829V451.268H229.98V452.829H228.419ZM228.419 454.39V452.829H229.98V454.39H228.419ZM228.419 455.951V454.39H229.98V455.951H228.419ZM228.419 457.512V455.951H229.98V457.512H228.419ZM228.419 459.073V457.512H229.98V459.073H228.419ZM228.419 460.634V459.073H229.98V460.634H228.419ZM228.419 462.195V460.634H229.98V462.195H228.419ZM229.98 462.195V460.634H231.541V462.195H229.98ZM231.541 462.195V460.634H233.102V462.195H231.541ZM233.102 462.195V460.634H234.663V462.195H233.102ZM233.102 460.634V459.073H234.663V460.634H233.102ZM233.102 459.073V457.512H234.663V459.073H233.102ZM233.102 457.512V455.951H234.663V457.512H233.102ZM233.102 455.951V454.39H234.663V455.951H233.102ZM233.102 454.39V452.829H234.663V454.39H233.102ZM233.102 452.829V451.268H234.663V452.829H233.102ZM233.102 451.268V449.707H234.663V451.268H233.102ZM231.541 449.707V448.146H233.102V449.707H231.541ZM229.98 449.707V448.146H231.541V449.707H229.98ZM229.98 451.268V449.707H231.541V451.268H229.98ZM229.98 452.829V451.268H231.541V452.829H229.98ZM229.98 454.39V452.829H231.541V454.39H229.98ZM229.98 455.951V454.39H231.541V455.951H229.98ZM231.541 455.951V454.39H233.102V455.951H231.541ZM231.541 457.512V455.951H233.102V457.512H231.541ZM231.541 459.073V457.512H233.102V459.073H231.541ZM231.541 460.634V459.073H233.102V460.634H231.541ZM229.98 460.634V459.073H231.541V460.634H229.98ZM229.98 459.073V457.512H231.541V459.073H229.98ZM229.98 457.512V455.951H231.541V457.512H229.98ZM231.541 452.829V451.268H233.102V452.829H231.541ZM231.541 451.268V449.707H233.102V451.268H231.541ZM231.541 454.39V452.829H233.102V454.39H231.541ZM217.492 449.707V448.146H219.053V449.707H217.492ZM215.931 449.707V448.146H217.492V449.707H215.931ZM214.37 449.707V448.146H215.931V449.707H214.37ZM212.809 449.707V448.146H214.37V449.707H212.809ZM211.248 449.707V448.146H212.809V449.707H211.248ZM211.248 448.146V446.585H212.809V448.146H211.248ZM212.809 448.146V446.585H214.37V448.146H212.809ZM214.37 448.146V446.585H215.931V448.146H214.37ZM215.931 448.146V446.585H217.492V448.146H215.931ZM217.492 448.146V446.585H219.053V448.146H217.492ZM219.053 448.146V446.585H220.614V448.146H219.053ZM219.053 446.585V445.024H220.614V446.585H219.053ZM217.492 446.585V445.024H219.053V446.585H217.492ZM215.931 446.585V445.024H217.492V446.585H215.931ZM214.37 446.585V445.024H215.931V446.585H214.37ZM214.37 445.024V443.463H215.931V445.024H214.37ZM212.809 445.024V443.463H214.37V445.024H212.809ZM212.809 446.585V445.024H214.37V446.585H212.809ZM214.37 443.463V441.902H215.931V443.463H214.37ZM215.931 443.463V441.902H217.492V443.463H215.931ZM215.931 445.024V443.463H217.492V445.024H215.931ZM217.492 445.024V443.463H219.053V445.024H217.492ZM217.492 443.463V441.902H219.053V443.463H217.492ZM217.492 441.902V440.341H219.053V441.902H217.492ZM219.053 441.902V440.341H220.614V441.902H219.053ZM220.614 441.902V440.341H222.175V441.902H220.614ZM222.175 441.902V440.341H223.736V441.902H222.175ZM223.736 441.902V440.341H225.297V441.902H223.736ZM225.297 441.902V440.341H226.858V441.902H225.297ZM226.858 441.902V440.341H228.419V441.902H226.858ZM228.419 441.902V440.341H229.98V441.902H228.419ZM226.858 443.463V441.902H228.419V443.463H226.858ZM225.297 443.463V441.902H226.858V443.463H225.297ZM223.736 443.463V441.902H225.297V443.463H223.736ZM222.175 443.463V441.902H223.736V443.463H222.175ZM220.614 443.463V441.902H222.175V443.463H220.614ZM219.053 443.463V441.902H220.614V443.463H219.053ZM219.053 445.024V443.463H220.614V445.024H219.053ZM220.614 445.024V443.463H222.175V445.024H220.614ZM222.175 445.024V443.463H223.736V445.024H222.175ZM223.736 445.024V443.463H225.297V445.024H223.736ZM225.297 445.024V443.463H226.858V445.024H225.297ZM226.858 445.024V443.463H228.419V445.024H226.858ZM228.419 443.463V441.902H229.98V443.463H228.419ZM229.98 443.463V441.902H231.541V443.463H229.98ZM231.541 443.463V441.902H233.102V443.463H231.541ZM231.541 445.024V443.463H233.102V445.024H231.541ZM233.102 445.024V443.463H234.663V445.024H233.102ZM233.102 446.585V445.024H234.663V446.585H233.102ZM231.541 446.585V445.024H233.102V446.585H231.541ZM229.98 446.585V445.024H231.541V446.585H229.98ZM228.419 446.585V445.024H229.98V446.585H228.419ZM226.858 446.585V445.024H228.419V446.585H226.858ZM225.297 446.585V445.024H226.858V446.585H225.297ZM223.736 446.585V445.024H225.297V446.585H223.736ZM222.175 446.585V445.024H223.736V446.585H222.175ZM220.614 446.585V445.024H222.175V446.585H220.614ZM228.419 445.024V443.463H229.98V445.024H228.419ZM229.98 445.024V443.463H231.541V445.024H229.98ZM212.809 459.073V457.512H214.37V459.073H212.809ZM214.37 459.073V457.512H215.931V459.073H214.37ZM215.931 459.073V457.512H217.492V459.073H215.931ZM217.492 459.073V457.512H219.053V459.073H217.492ZM214.37 457.512V455.951H215.931V457.512H214.37ZM215.931 457.512V455.951H217.492V457.512H215.931ZM219.053 457.512V455.951H220.614V457.512H219.053ZM220.614 457.512V455.951H222.175V457.512H220.614ZM222.175 457.512V455.951H223.736V457.512H222.175ZM223.736 457.512V455.951H225.297V457.512H223.736ZM225.297 457.512V455.951H226.858V457.512H225.297ZM226.858 457.512V455.951H228.419V457.512H226.858ZM217.492 457.512V455.951H219.053V457.512H217.492ZM212.809 457.512V455.951H214.37V457.512H212.809ZM214.37 455.951V454.39H215.931V455.951H214.37ZM215.931 455.951V454.39H217.492V455.951H215.931ZM217.492 455.951V454.39H219.053V455.951H217.492ZM219.053 455.951V454.39H220.614V455.951H219.053ZM220.614 455.951V454.39H222.175V455.951H220.614ZM222.175 455.951V454.39H223.736V455.951H222.175ZM223.736 455.951V454.39H225.297V455.951H223.736ZM225.297 455.951V454.39H226.858V455.951H225.297ZM226.858 455.951V454.39H228.419V455.951H226.858ZM226.858 454.39V452.829H228.419V454.39H226.858ZM225.297 454.39V452.829H226.858V454.39H225.297ZM223.736 454.39V452.829H225.297V454.39H223.736ZM220.614 454.39V452.829H222.175V454.39H220.614ZM219.053 454.39V452.829H220.614V454.39H219.053ZM217.492 454.39V452.829H219.053V454.39H217.492ZM222.175 454.39V452.829H223.736V454.39H222.175ZM236.224 463.756V465.317H234.663V463.756H236.224ZM236.224 465.317V466.878H234.663V465.317H236.224ZM236.224 466.878V468.439H234.663V466.878H236.224ZM236.224 468.439V470H234.663V468.439H236.224ZM234.663 468.439V470H233.102V468.439H234.663ZM234.663 466.878V468.439H233.102V466.878H234.663ZM233.102 468.439V470H231.541V468.439H233.102ZM231.541 468.439V470H229.98V468.439H231.541ZM229.98 468.439V470H228.419V468.439H229.98ZM228.419 462.195V463.756H226.858V462.195H228.419ZM217.492 468.439V470H215.931V468.439H217.492ZM220.614 457.512V459.073H219.053V457.512H220.614ZM244.058 430.976V432.537H242.497V430.976H244.058ZM244.058 432.537V434.098H242.497V432.537H244.058ZM244.058 434.098V435.659H242.497V434.098H244.058ZM248.741 430.976V432.537H247.18V430.976H248.741ZM248.741 432.537V434.098H247.18V432.537H248.741ZM248.741 434.098V435.659H247.18V434.098H248.741ZM250.302 434.098V435.659H248.741V434.098H250.302ZM250.302 432.537V434.098H248.741V432.537H250.302ZM250.302 430.976V432.537H248.741V430.976H250.302ZM247.18 430.976V432.537H245.619V430.976H247.18ZM245.619 430.976V432.537H244.058V430.976H245.619ZM245.619 432.537V434.098H244.058V432.537H245.619ZM247.18 432.537V434.098H245.619V432.537H247.18ZM247.18 434.098V435.659H245.619V434.098H247.18ZM245.619 434.098V435.659H244.058V434.098H245.619ZM244.058 435.659V437.22H242.497V435.659H244.058ZM245.619 435.659V437.22H244.058V435.659H245.619ZM247.18 435.659V437.22H245.619V435.659H247.18ZM248.741 435.659V437.22H247.18V435.659H248.741ZM250.302 435.659V437.22H248.741V435.659H250.302ZM244.058 468.439V470H242.497V468.439H244.058ZM244.058 466.878V468.439H242.497V466.878H244.058ZM244.058 465.317V466.878H242.497V465.317H244.058ZM244.058 463.756V465.317H242.497V463.756H244.058ZM244.058 462.195V463.756H242.497V462.195H244.058ZM244.058 460.634V462.195H242.497V460.634H244.058ZM244.058 459.073V460.634H242.497V459.073H244.058ZM244.058 457.512V459.073H242.497V457.512H244.058ZM244.058 455.951V457.512H242.497V455.951H244.058ZM244.058 454.39V455.951H242.497V454.39H244.058ZM244.058 452.829V454.39H242.497V452.829H244.058ZM244.058 451.268V452.829H242.497V451.268H244.058ZM244.058 449.707V451.268H242.497V449.707H244.058ZM244.058 448.146V449.707H242.497V448.146H244.058ZM244.058 446.585V448.146H242.497V446.585H244.058ZM245.619 446.585V448.146H244.058V446.585H245.619ZM245.619 448.146V449.707H244.058V448.146H245.619ZM245.619 449.707V451.268H244.058V449.707H245.619ZM245.619 451.268V452.829H244.058V451.268H245.619ZM245.619 452.829V454.39H244.058V452.829H245.619ZM245.619 454.39V455.951H244.058V454.39H245.619ZM245.619 455.951V457.512H244.058V455.951H245.619ZM247.18 457.512V459.073H245.619V457.512H247.18ZM247.18 459.073V460.634H245.619V459.073H247.18ZM247.18 460.634V462.195H245.619V460.634H247.18ZM247.18 462.195V463.756H245.619V462.195H247.18ZM247.18 463.756V465.317H245.619V463.756H247.18ZM247.18 465.317V466.878H245.619V465.317H247.18ZM247.18 466.878V468.439H245.619V466.878H247.18ZM247.18 468.439V470H245.619V468.439H247.18ZM248.741 468.439V470H247.18V468.439H248.741ZM250.302 468.439V470H248.741V468.439H250.302ZM250.302 466.878V468.439H248.741V466.878H250.302ZM250.302 465.317V466.878H248.741V465.317H250.302ZM250.302 463.756V465.317H248.741V463.756H250.302ZM250.302 462.195V463.756H248.741V462.195H250.302ZM250.302 460.634V462.195H248.741V460.634H250.302ZM250.302 459.073V460.634H248.741V459.073H250.302ZM250.302 457.512V459.073H248.741V457.512H250.302ZM248.741 457.512V459.073H247.18V457.512H248.741ZM248.741 455.951V457.512H247.18V455.951H248.741ZM248.741 459.073V460.634H247.18V459.073H248.741ZM248.741 460.634V462.195H247.18V460.634H248.741ZM248.741 462.195V463.756H247.18V462.195H248.741ZM248.741 463.756V465.317H247.18V463.756H248.741ZM248.741 465.317V466.878H247.18V465.317H248.741ZM248.741 466.878V468.439H247.18V466.878H248.741ZM245.619 468.439V470H244.058V468.439H245.619ZM245.619 466.878V468.439H244.058V466.878H245.619ZM245.619 465.317V466.878H244.058V465.317H245.619ZM245.619 463.756V465.317H244.058V463.756H245.619ZM245.619 462.195V463.756H244.058V462.195H245.619ZM245.619 460.634V462.195H244.058V460.634H245.619ZM245.619 459.073V460.634H244.058V459.073H245.619ZM245.619 457.512V459.073H244.058V457.512H245.619ZM244.058 443.463V445.024H242.497V443.463H244.058ZM244.058 445.024V446.585H242.497V445.024H244.058ZM248.741 443.463V445.024H247.18V443.463H248.741ZM248.741 445.024V446.585H247.18V445.024H248.741ZM248.741 446.585V448.146H247.18V446.585H248.741ZM248.741 448.146V449.707H247.18V448.146H248.741ZM248.741 449.707V451.268H247.18V449.707H248.741ZM248.741 451.268V452.829H247.18V451.268H248.741ZM250.302 452.829V454.39H248.741V452.829H250.302ZM250.302 454.39V455.951H248.741V454.39H250.302ZM250.302 455.951V457.512H248.741V455.951H250.302ZM250.302 451.268V452.829H248.741V451.268H250.302ZM250.302 449.707V451.268H248.741V449.707H250.302ZM250.302 448.146V449.707H248.741V448.146H250.302ZM250.302 446.585V448.146H248.741V446.585H250.302ZM250.302 445.024V446.585H248.741V445.024H250.302ZM250.302 443.463V445.024H248.741V443.463H250.302ZM245.619 443.463V445.024H244.058V443.463H245.619ZM245.619 445.024V446.585H244.058V445.024H245.619ZM247.18 443.463V445.024H245.619V443.463H247.18ZM247.18 445.024V446.585H245.619V445.024H247.18ZM247.18 446.585V448.146H245.619V446.585H247.18ZM247.18 448.146V449.707H245.619V448.146H247.18ZM247.18 449.707V451.268H245.619V449.707H247.18ZM247.18 451.268V452.829H245.619V451.268H247.18ZM247.18 452.829V454.39H245.619V452.829H247.18ZM247.18 454.39V455.951H245.619V454.39H247.18ZM247.18 455.951V457.512H245.619V455.951H247.18ZM248.741 454.39V455.951H247.18V454.39H248.741ZM248.741 452.829V454.39H247.18V452.829H248.741ZM248.741 441.902V443.463H247.18V441.902H248.741ZM250.302 441.902V443.463H248.741V441.902H250.302ZM247.18 441.902V443.463H245.619V441.902H247.18ZM245.619 441.902V443.463H244.058V441.902H245.619ZM244.058 441.902V443.463H242.497V441.902H244.058ZM258.12 468.439V470H256.559V468.439H258.12ZM258.12 466.878V468.439H256.559V466.878H258.12ZM258.12 465.317V466.878H256.559V465.317H258.12ZM258.12 463.756V465.317H256.559V463.756H258.12ZM258.12 462.195V463.756H256.559V462.195H258.12ZM258.12 460.634V462.195H256.559V460.634H258.12ZM258.12 459.073V460.634H256.559V459.073H258.12ZM258.12 457.512V459.073H256.559V457.512H258.12ZM258.12 455.951V457.512H256.559V455.951H258.12ZM258.12 454.39V455.951H256.559V454.39H258.12ZM258.12 452.829V454.39H256.559V452.829H258.12ZM258.12 451.268V452.829H256.559V451.268H258.12ZM258.12 449.707V451.268H256.559V449.707H258.12ZM258.12 448.146V449.707H256.559V448.146H258.12ZM258.12 446.585V448.146H256.559V446.585H258.12ZM259.681 446.585V448.146H258.12V446.585H259.681ZM259.681 448.146V449.707H258.12V448.146H259.681ZM259.681 449.707V451.268H258.12V449.707H259.681ZM259.681 451.268V452.829H258.12V451.268H259.681ZM259.681 452.829V454.39H258.12V452.829H259.681ZM259.681 454.39V455.951H258.12V454.39H259.681ZM259.681 455.951V457.512H258.12V455.951H259.681ZM261.242 457.512V459.073H259.681V457.512H261.242ZM261.242 459.073V460.634H259.681V459.073H261.242ZM261.242 460.634V462.195H259.681V460.634H261.242ZM261.242 462.195V463.756H259.681V462.195H261.242ZM261.242 463.756V465.317H259.681V463.756H261.242ZM261.242 465.317V466.878H259.681V465.317H261.242ZM261.242 466.878V468.439H259.681V466.878H261.242ZM261.242 468.439V470H259.681V468.439H261.242ZM262.803 468.439V470H261.242V468.439H262.803ZM264.364 468.439V470H262.803V468.439H264.364ZM264.364 466.878V468.439H262.803V466.878H264.364ZM264.364 465.317V466.878H262.803V465.317H264.364ZM264.364 463.756V465.317H262.803V463.756H264.364ZM264.364 462.195V463.756H262.803V462.195H264.364ZM264.364 460.634V462.195H262.803V460.634H264.364ZM264.364 459.073V460.634H262.803V459.073H264.364ZM264.364 457.512V459.073H262.803V457.512H264.364ZM262.803 457.512V459.073H261.242V457.512H262.803ZM262.803 455.951V457.512H261.242V455.951H262.803ZM262.803 459.073V460.634H261.242V459.073H262.803ZM262.803 460.634V462.195H261.242V460.634H262.803ZM262.803 462.195V463.756H261.242V462.195H262.803ZM262.803 463.756V465.317H261.242V463.756H262.803ZM262.803 465.317V466.878H261.242V465.317H262.803ZM262.803 466.878V468.439H261.242V466.878H262.803ZM259.681 468.439V470H258.12V468.439H259.681ZM259.681 466.878V468.439H258.12V466.878H259.681ZM259.681 465.317V466.878H258.12V465.317H259.681ZM259.681 463.756V465.317H258.12V463.756H259.681ZM259.681 462.195V463.756H258.12V462.195H259.681ZM259.681 460.634V462.195H258.12V460.634H259.681ZM259.681 459.073V460.634H258.12V459.073H259.681ZM259.681 457.512V459.073H258.12V457.512H259.681ZM258.12 440.341V441.902H256.559V440.341H258.12ZM258.12 441.902V443.463H256.559V441.902H258.12ZM258.12 443.463V445.024H256.559V443.463H258.12ZM258.12 445.024V446.585H256.559V445.024H258.12ZM262.803 441.902V443.463H261.242V441.902H262.803ZM262.803 443.463V445.024H261.242V443.463H262.803ZM262.803 445.024V446.585H261.242V445.024H262.803ZM262.803 446.585V448.146H261.242V446.585H262.803ZM262.803 448.146V449.707H261.242V448.146H262.803ZM262.803 449.707V451.268H261.242V449.707H262.803ZM262.803 451.268V452.829H261.242V451.268H262.803ZM264.364 452.829V454.39H262.803V452.829H264.364ZM264.364 454.39V455.951H262.803V454.39H264.364ZM264.364 455.951V457.512H262.803V455.951H264.364ZM264.364 451.268V452.829H262.803V451.268H264.364ZM264.364 449.707V451.268H262.803V449.707H264.364ZM264.364 448.146V449.707H262.803V448.146H264.364ZM264.364 446.585V448.146H262.803V446.585H264.364ZM264.364 445.024V446.585H262.803V445.024H264.364ZM264.364 443.463V445.024H262.803V443.463H264.364ZM264.364 441.902V443.463H262.803V441.902H264.364ZM264.364 440.341V441.902H262.803V440.341H264.364ZM262.803 440.341V441.902H261.242V440.341H262.803ZM261.242 440.341V441.902H259.681V440.341H261.242ZM261.242 441.902V443.463H259.681V441.902H261.242ZM259.681 443.463V445.024H258.12V443.463H259.681ZM259.681 445.024V446.585H258.12V445.024H259.681ZM259.681 441.902V443.463H258.12V441.902H259.681ZM259.681 440.341V441.902H258.12V440.341H259.681ZM261.242 443.463V445.024H259.681V443.463H261.242ZM261.242 445.024V446.585H259.681V445.024H261.242ZM261.242 446.585V448.146H259.681V446.585H261.242ZM261.242 448.146V449.707H259.681V448.146H261.242ZM261.242 449.707V451.268H259.681V449.707H261.242ZM261.242 451.268V452.829H259.681V451.268H261.242ZM261.242 452.829V454.39H259.681V452.829H261.242ZM261.242 454.39V455.951H259.681V454.39H261.242ZM261.242 455.951V457.512H259.681V455.951H261.242ZM262.803 454.39V455.951H261.242V454.39H262.803ZM262.803 452.829V454.39H261.242V452.829H262.803ZM275.291 468.439V470H273.73V468.439H275.291ZM276.852 468.439V470H275.291V468.439H276.852ZM278.413 468.439V470H276.852V468.439H278.413ZM279.974 468.439V470H278.413V468.439H279.974ZM281.535 466.878V468.439H279.974V466.878H281.535ZM281.535 465.317V466.878H279.974V465.317H281.535ZM281.535 468.439V470H279.974V468.439H281.535ZM279.974 466.878V468.439H278.413V466.878H279.974ZM278.413 466.878V468.439H276.852V466.878H278.413ZM276.852 466.878V468.439H275.291V466.878H276.852ZM275.291 466.878V468.439H273.73V466.878H275.291ZM275.291 465.317V466.878H273.73V465.317H275.291ZM275.291 463.756V465.317H273.73V463.756H275.291ZM276.852 463.756V465.317H275.291V463.756H276.852ZM278.413 463.756V465.317H276.852V463.756H278.413ZM279.974 463.756V465.317H278.413V463.756H279.974ZM281.535 463.756V465.317H279.974V463.756H281.535ZM279.974 465.317V466.878H278.413V465.317H279.974ZM278.413 465.317V466.878H276.852V465.317H278.413ZM276.852 465.317V466.878H275.291V465.317H276.852ZM281.535 446.585V448.146H279.974V446.585H281.535ZM279.974 446.585V448.146H278.413V446.585H279.974ZM276.852 446.585V448.146H275.291V446.585H276.852ZM276.852 448.146V449.707H275.291V448.146H276.852ZM276.852 449.707V451.268H275.291V449.707H276.852ZM275.291 451.268V452.829H273.73V451.268H275.291ZM275.291 452.829V454.39H273.73V452.829H275.291ZM275.291 454.39V455.951H273.73V454.39H275.291ZM275.291 455.951V457.512H273.73V455.951H275.291ZM275.291 457.512V459.073H273.73V457.512H275.291ZM275.291 459.073V460.634H273.73V459.073H275.291ZM275.291 460.634V462.195H273.73V460.634H275.291ZM275.291 462.195V463.756H273.73V462.195H275.291ZM276.852 462.195V463.756H275.291V462.195H276.852ZM278.413 462.195V463.756H276.852V462.195H278.413ZM279.974 462.195V463.756H278.413V462.195H279.974ZM281.535 462.195V463.756H279.974V462.195H281.535ZM281.535 460.634V462.195H279.974V460.634H281.535ZM281.535 457.512V459.073H279.974V457.512H281.535ZM281.535 455.951V457.512H279.974V455.951H281.535ZM281.535 454.39V455.951H279.974V454.39H281.535ZM281.535 452.829V454.39H279.974V452.829H281.535ZM281.535 451.268V452.829H279.974V451.268H281.535ZM281.535 449.707V451.268H279.974V449.707H281.535ZM281.535 448.146V449.707H279.974V448.146H281.535ZM279.974 454.39V455.951H278.413V454.39H279.974ZM279.974 457.512V459.073H278.413V457.512H279.974ZM279.974 459.073V460.634H278.413V459.073H279.974ZM279.974 460.634V462.195H278.413V460.634H279.974ZM281.535 459.073V460.634H279.974V459.073H281.535ZM279.974 451.268V452.829H278.413V451.268H279.974ZM278.413 451.268V452.829H276.852V451.268H278.413ZM276.852 451.268V452.829H275.291V451.268H276.852ZM276.852 452.829V454.39H275.291V452.829H276.852ZM276.852 454.39V455.951H275.291V454.39H276.852ZM276.852 455.951V457.512H275.291V455.951H276.852ZM276.852 457.512V459.073H275.291V457.512H276.852ZM276.852 459.073V460.634H275.291V459.073H276.852ZM276.852 460.634V462.195H275.291V460.634H276.852ZM278.413 460.634V462.195H276.852V460.634H278.413ZM278.413 459.073V460.634H276.852V459.073H278.413ZM278.413 457.512V459.073H276.852V457.512H278.413ZM278.413 455.951V457.512H276.852V455.951H278.413ZM278.413 454.39V455.951H276.852V454.39H278.413ZM278.413 452.829V454.39H276.852V452.829H278.413ZM279.974 452.829V454.39H278.413V452.829H279.974ZM279.974 455.951V457.512H278.413V455.951H279.974ZM279.974 449.707V451.268H278.413V449.707H279.974ZM279.974 448.146V449.707H278.413V448.146H279.974ZM278.413 448.146V449.707H276.852V448.146H278.413ZM278.413 449.707V451.268H276.852V449.707H278.413ZM275.291 449.707V451.268H273.73V449.707H275.291ZM275.291 448.146V449.707H273.73V448.146H275.291ZM275.291 446.585V448.146H273.73V446.585H275.291ZM278.413 446.585V448.146H276.852V446.585H278.413ZM275.291 440.341V441.902H273.73V440.341H275.291ZM275.291 441.902V443.463H273.73V441.902H275.291ZM276.852 441.902V443.463H275.291V441.902H276.852ZM278.413 441.902V443.463H276.852V441.902H278.413ZM278.413 443.463V445.024H276.852V443.463H278.413ZM279.974 443.463V445.024H278.413V443.463H279.974ZM279.974 445.024V446.585H278.413V445.024H279.974ZM278.413 445.024V446.585H276.852V445.024H278.413ZM276.852 445.024V446.585H275.291V445.024H276.852ZM276.852 443.463V445.024H275.291V443.463H276.852ZM275.291 443.463V445.024H273.73V443.463H275.291ZM273.73 443.463V445.024H272.169V443.463H273.73ZM273.73 445.024V446.585H272.169V445.024H273.73ZM275.291 445.024V446.585H273.73V445.024H275.291ZM273.73 446.585V448.146H272.169V446.585H273.73ZM272.169 445.024V446.585H270.608V445.024H272.169ZM272.169 443.463V445.024H270.608V443.463H272.169ZM272.169 441.902V443.463H270.608V441.902H272.169ZM272.169 440.341V441.902H270.608V440.341H272.169ZM273.73 440.341V441.902H272.169V440.341H273.73ZM273.73 441.902V443.463H272.169V441.902H273.73ZM270.608 440.341V441.902H269.047V440.341H270.608ZM270.608 441.902V443.463H269.047V441.902H270.608ZM270.608 443.463V445.024H269.047V443.463H270.608ZM270.608 445.024V446.585H269.047V445.024H270.608ZM269.047 440.341V441.902H267.486V440.341H269.047ZM269.047 441.902V443.463H267.486V441.902H269.047ZM267.486 441.902V443.463H265.925V441.902H267.486ZM267.486 443.463V445.024H265.925V443.463H267.486ZM265.925 443.463V445.024H264.364V443.463H265.925ZM265.925 445.024V446.585H264.364V445.024H265.925ZM267.486 445.024V446.585H265.925V445.024H267.486ZM269.047 445.024V446.585H267.486V445.024H269.047ZM269.047 443.463V445.024H267.486V443.463H269.047ZM265.925 446.585V448.146H264.364V446.585H265.925ZM267.486 440.341V441.902H265.925V440.341H267.486ZM265.925 441.902V443.463H264.364V441.902H265.925ZM308.101 446.585V448.146H306.54V446.585H308.101ZM306.54 446.585V448.146H304.979V446.585H306.54ZM304.979 446.585V448.146H303.418V446.585H304.979ZM303.418 446.585V448.146H301.857V446.585H303.418ZM301.857 445.024V446.585H300.296V445.024H301.857ZM303.418 445.024V446.585H301.857V445.024H303.418ZM304.979 445.024V446.585H303.418V445.024H304.979ZM306.54 445.024V446.585H304.979V445.024H306.54ZM308.101 445.024V446.585H306.54V445.024H308.101ZM308.101 443.463V445.024H306.54V443.463H308.101ZM306.54 443.463V445.024H304.979V443.463H306.54ZM304.979 443.463V445.024H303.418V443.463H304.979ZM303.418 443.463V445.024H301.857V443.463H303.418ZM301.857 443.463V445.024H300.296V443.463H301.857ZM304.979 441.902V443.463H303.418V441.902H304.979ZM306.54 441.902V443.463H304.979V441.902H306.54ZM303.418 441.902V443.463H301.857V441.902H303.418ZM303.418 440.341V441.902H301.857V440.341H303.418ZM301.857 440.341V441.902H300.296V440.341H301.857ZM301.857 441.902V443.463H300.296V441.902H301.857ZM300.296 441.902V443.463H298.735V441.902H300.296ZM300.296 440.341V441.902H298.735V440.341H300.296ZM300.296 443.463V445.024H298.735V443.463H300.296ZM298.735 443.463V445.024H297.174V443.463H298.735ZM298.735 445.024V446.585H297.174V445.024H298.735ZM300.296 445.024V446.585H298.735V445.024H300.296ZM297.174 445.024V446.585H295.613V445.024H297.174ZM297.174 443.463V445.024H295.613V443.463H297.174ZM297.174 441.902V443.463H295.613V441.902H297.174ZM297.174 440.341V441.902H295.613V440.341H297.174ZM298.735 440.341V441.902H297.174V440.341H298.735ZM298.735 441.902V443.463H297.174V441.902H298.735ZM295.613 440.341V441.902H294.052V440.341H295.613ZM294.052 440.341V441.902H292.491V440.341H294.052ZM292.491 440.341V441.902H290.93V440.341H292.491ZM292.491 441.902V443.463H290.93V441.902H292.491ZM292.491 443.463V445.024H290.93V443.463H292.491ZM292.491 445.024V446.585H290.93V445.024H292.491ZM294.052 445.024V446.585H292.491V445.024H294.052ZM295.613 445.024V446.585H294.052V445.024H295.613ZM295.613 443.463V445.024H294.052V443.463H295.613ZM295.613 441.902V443.463H294.052V441.902H295.613ZM294.052 441.902V443.463H292.491V441.902H294.052ZM294.052 443.463V445.024H292.491V443.463H294.052ZM290.93 443.463V445.024H289.369V443.463H290.93ZM290.93 441.902V443.463H289.369V441.902H290.93ZM289.369 441.902V443.463H287.808V441.902H289.369ZM289.369 443.463V445.024H287.808V443.463H289.369ZM287.808 443.463V445.024H286.247V443.463H287.808ZM287.808 445.024V446.585H286.247V445.024H287.808ZM287.808 446.585V448.146H286.247V446.585H287.808ZM289.369 446.585V448.146H287.808V446.585H289.369ZM289.369 445.024V446.585H287.808V445.024H289.369ZM290.93 445.024V446.585H289.369V445.024H290.93ZM290.93 446.585V448.146H289.369V446.585H290.93ZM292.491 446.585V448.146H290.93V446.585H292.491ZM294.052 446.585V448.146H292.491V446.585H294.052ZM286.247 446.585V448.146H284.686V446.585H286.247ZM286.247 448.146V449.707H284.686V448.146H286.247ZM286.247 449.707V451.268H284.686V449.707H286.247ZM286.247 460.634V462.195H284.686V460.634H286.247ZM287.808 460.634V462.195H286.247V460.634H287.808ZM287.808 462.195V463.756H286.247V462.195H287.808ZM286.247 462.195V463.756H284.686V462.195H286.247ZM289.369 462.195V463.756H287.808V462.195H289.369ZM290.93 462.195V463.756H289.369V462.195H290.93ZM292.491 462.195V463.756H290.93V462.195H292.491ZM294.052 462.195V463.756H292.491V462.195H294.052ZM292.491 460.634V462.195H290.93V460.634H292.491ZM292.491 449.707V451.268H290.93V449.707H292.491ZM292.491 448.146V449.707H290.93V448.146H292.491ZM290.93 448.146V449.707H289.369V448.146H290.93ZM289.369 448.146V449.707H287.808V448.146H289.369ZM287.808 448.146V449.707H286.247V448.146H287.808ZM287.808 449.707V451.268H286.247V449.707H287.808ZM289.369 460.634V462.195H287.808V460.634H289.369ZM290.93 460.634V462.195H289.369V460.634H290.93ZM289.369 449.707V451.268H287.808V449.707H289.369ZM290.93 449.707V451.268H289.369V449.707H290.93ZM303.418 459.073V460.634H301.857V459.073H303.418ZM303.418 460.634V462.195H301.857V460.634H303.418ZM304.979 460.634V462.195H303.418V460.634H304.979ZM306.54 460.634V462.195H304.979V460.634H306.54ZM308.101 460.634V462.195H306.54V460.634H308.101ZM309.662 460.634V462.195H308.101V460.634H309.662ZM309.662 459.073V460.634H308.101V459.073H309.662ZM308.101 459.073V460.634H306.54V459.073H308.101ZM306.54 459.073V460.634H304.979V459.073H306.54ZM304.979 459.073V460.634H303.418V459.073H304.979ZM309.662 462.195V463.756H308.101V462.195H309.662ZM308.101 462.195V463.756H306.54V462.195H308.101ZM306.54 462.195V463.756H304.979V462.195H306.54ZM304.979 462.195V463.756H303.418V462.195H304.979ZM303.418 462.195V463.756H301.857V462.195H303.418ZM301.857 462.195V463.756H300.296V462.195H301.857ZM301.857 463.756V465.317H300.296V463.756H301.857ZM303.418 463.756V465.317H301.857V463.756H303.418ZM304.979 463.756V465.317H303.418V463.756H304.979ZM306.54 463.756V465.317H304.979V463.756H306.54ZM306.54 465.317V466.878H304.979V465.317H306.54ZM308.101 465.317V466.878H306.54V465.317H308.101ZM308.101 463.756V465.317H306.54V463.756H308.101ZM306.54 466.878V468.439H304.979V466.878H306.54ZM304.979 466.878V468.439H303.418V466.878H304.979ZM304.979 465.317V466.878H303.418V465.317H304.979ZM303.418 465.317V466.878H301.857V465.317H303.418ZM303.418 466.878V468.439H301.857V466.878H303.418ZM303.418 468.439V470H301.857V468.439H303.418ZM301.857 468.439V470H300.296V468.439H301.857ZM300.296 468.439V470H298.735V468.439H300.296ZM298.735 468.439V470H297.174V468.439H298.735ZM297.174 468.439V470H295.613V468.439H297.174ZM295.613 468.439V470H294.052V468.439H295.613ZM294.052 468.439V470H292.491V468.439H294.052ZM292.491 468.439V470H290.93V468.439H292.491ZM294.052 466.878V468.439H292.491V466.878H294.052ZM295.613 466.878V468.439H294.052V466.878H295.613ZM297.174 466.878V468.439H295.613V466.878H297.174ZM298.735 466.878V468.439H297.174V466.878H298.735ZM300.296 466.878V468.439H298.735V466.878H300.296ZM301.857 466.878V468.439H300.296V466.878H301.857ZM301.857 465.317V466.878H300.296V465.317H301.857ZM300.296 465.317V466.878H298.735V465.317H300.296ZM298.735 465.317V466.878H297.174V465.317H298.735ZM297.174 465.317V466.878H295.613V465.317H297.174ZM295.613 465.317V466.878H294.052V465.317H295.613ZM294.052 465.317V466.878H292.491V465.317H294.052ZM292.491 466.878V468.439H290.93V466.878H292.491ZM290.93 466.878V468.439H289.369V466.878H290.93ZM289.369 466.878V468.439H287.808V466.878H289.369ZM289.369 465.317V466.878H287.808V465.317H289.369ZM287.808 465.317V466.878H286.247V465.317H287.808ZM287.808 463.756V465.317H286.247V463.756H287.808ZM289.369 463.756V465.317H287.808V463.756H289.369ZM290.93 463.756V465.317H289.369V463.756H290.93ZM292.491 463.756V465.317H290.93V463.756H292.491ZM294.052 463.756V465.317H292.491V463.756H294.052ZM295.613 463.756V465.317H294.052V463.756H295.613ZM297.174 463.756V465.317H295.613V463.756H297.174ZM298.735 463.756V465.317H297.174V463.756H298.735ZM300.296 463.756V465.317H298.735V463.756H300.296ZM292.491 465.317V466.878H290.93V465.317H292.491ZM290.93 465.317V466.878H289.369V465.317H290.93ZM306.54 455.951V457.512H304.979V455.951H306.54ZM309.662 457.512V459.073H308.101V457.512H309.662ZM308.101 457.512V459.073H306.54V457.512H308.101ZM306.54 457.512V459.073H304.979V457.512H306.54ZM304.979 457.512V459.073H303.418V457.512H304.979ZM304.979 455.951V457.512H303.418V455.951H304.979ZM303.418 455.951V457.512H301.857V455.951H303.418ZM303.418 457.512V459.073H301.857V457.512H303.418ZM294.052 449.707V451.268H292.491V449.707H294.052ZM287.808 451.268V452.829H286.247V451.268H287.808ZM287.808 452.829V454.39H286.247V452.829H287.808ZM289.369 452.829V454.39H287.808V452.829H289.369ZM289.369 454.39V455.951H287.808V454.39H289.369ZM290.93 454.39V455.951H289.369V454.39H290.93ZM292.491 455.951V457.512H290.93V455.951H292.491ZM292.491 454.39V455.951H290.93V454.39H292.491ZM292.491 452.829V454.39H290.93V452.829H292.491ZM292.491 451.268V452.829H290.93V451.268H292.491ZM290.93 451.268V452.829H289.369V451.268H290.93ZM290.93 452.829V454.39H289.369V452.829H290.93ZM289.369 451.268V452.829H287.808V451.268H289.369ZM294.052 455.951V457.512H292.491V455.951H294.052ZM295.613 455.951V457.512H294.052V455.951H295.613ZM297.174 455.951V457.512H295.613V455.951H297.174ZM298.735 455.951V457.512H297.174V455.951H298.735ZM298.735 454.39V455.951H297.174V454.39H298.735ZM297.174 454.39V455.951H295.613V454.39H297.174ZM295.613 454.39V455.951H294.052V454.39H295.613ZM294.052 454.39V455.951H292.491V454.39H294.052ZM294.052 452.829V454.39H292.491V452.829H294.052ZM294.052 451.268V452.829H292.491V451.268H294.052ZM295.613 451.268V452.829H294.052V451.268H295.613ZM297.174 451.268V452.829H295.613V451.268H297.174ZM298.735 451.268V452.829H297.174V451.268H298.735ZM298.735 452.829V454.39H297.174V452.829H298.735ZM297.174 452.829V454.39H295.613V452.829H297.174ZM295.613 452.829V454.39H294.052V452.829H295.613ZM300.296 451.268V452.829H298.735V451.268H300.296ZM301.857 451.268V452.829H300.296V451.268H301.857ZM301.857 452.829V454.39H300.296V452.829H301.857ZM301.857 454.39V455.951H300.296V454.39H301.857ZM301.857 455.951V457.512H300.296V455.951H301.857ZM300.296 455.951V457.512H298.735V455.951H300.296ZM300.296 454.39V455.951H298.735V454.39H300.296ZM300.296 452.829V454.39H298.735V452.829H300.296ZM301.857 457.512V459.073H300.296V457.512H301.857ZM303.418 451.268V452.829H301.857V451.268H303.418ZM308.101 455.951V457.512H306.54V455.951H308.101ZM308.101 454.39V455.951H306.54V454.39H308.101ZM306.54 452.829V454.39H304.979V452.829H306.54ZM304.979 452.829V454.39H303.418V452.829H304.979ZM303.418 452.829V454.39H301.857V452.829H303.418ZM303.418 454.39V455.951H301.857V454.39H303.418ZM304.979 454.39V455.951H303.418V454.39H304.979ZM306.54 454.39V455.951H304.979V454.39H306.54ZM301.857 446.585V448.146H300.296V446.585H301.857Z" fill="#C21E1E"/>
</svg>
