<svg width="485" height="451" viewBox="0 0 485 451" fill="none" xmlns="http://www.w3.org/2000/svg">
<path d="M162.206 122.039C117.149 142.002 81.265 177.826 61.2455 222.876C58.2237 229.674 61.2995 237.605 68.0986 240.626C69.8793 241.435 71.714 241.813 73.5486 241.813C78.7289 241.813 83.6393 238.845 85.8517 233.828C103.173 194.875 134.147 163.906 173.106 146.641C179.905 143.62 182.981 135.689 179.959 128.891C176.992 122.093 169.005 119.018 162.206 122.039ZM278.006 63.5015C281.891 57.1352 284.266 49.7437 284.266 41.7588C284.266 18.6674 265.541 0 242.5 0C219.405 0 200.734 18.7213 200.734 41.7588C200.734 49.7437 203.109 57.1891 206.994 63.5015C90.0606 80.7122 0.05396 181.656 0.05396 303.264V332.452C0.05396 339.897 6.09758 345.94 13.5442 345.94H471.51C478.956 345.94 485 339.897 485 332.452V303.264C484.946 181.656 394.885 80.7661 278.006 63.5015ZM458.02 318.964H26.9804V303.264C26.9804 184.462 123.678 87.8338 242.5 87.8338C361.322 87.8338 458.02 184.462 458.02 303.264V318.964ZM471.456 373.024H13.4902C6.04361 373.024 0 379.067 0 386.512C0 393.957 6.04361 400 13.4902 400H471.456C478.902 400 484.946 393.957 484.946 386.512C484.946 379.067 478.902 373.024 471.456 373.024Z" fill="#5D5D5D"/>
<path d="M170.683 449.439V451H169.122V449.439H170.683ZM170.683 447.878V449.439H169.122V447.878H170.683ZM170.683 446.317V447.878H169.122V446.317H170.683ZM170.683 444.756V446.317H169.122V444.756H170.683ZM170.683 443.195V444.756H169.122V443.195H170.683ZM170.683 441.634V443.195H169.122V441.634H170.683ZM170.683 440.073V441.634H169.122V440.073H170.683ZM170.683 438.512V440.073H169.122V438.512H170.683ZM170.683 436.951V438.512H169.122V436.951H170.683ZM170.683 435.39V436.951H169.122V435.39H170.683ZM170.683 433.829V435.39H169.122V433.829H170.683ZM170.683 432.268V433.829H169.122V432.268H170.683ZM170.683 430.707V432.268H169.122V430.707H170.683ZM170.683 429.146V430.707H169.122V429.146H170.683ZM170.683 427.585V429.146H169.122V427.585H170.683ZM172.244 427.585V429.146H170.683V427.585H172.244ZM172.244 429.146V430.707H170.683V429.146H172.244ZM172.244 430.707V432.268H170.683V430.707H172.244ZM172.244 432.268V433.829H170.683V432.268H172.244ZM172.244 433.829V435.39H170.683V433.829H172.244ZM172.244 435.39V436.951H170.683V435.39H172.244ZM172.244 436.951V438.512H170.683V436.951H172.244ZM173.805 438.512V440.073H172.244V438.512H173.805ZM173.805 440.073V441.634H172.244V440.073H173.805ZM173.805 441.634V443.195H172.244V441.634H173.805ZM173.805 443.195V444.756H172.244V443.195H173.805ZM173.805 444.756V446.317H172.244V444.756H173.805ZM173.805 446.317V447.878H172.244V446.317H173.805ZM173.805 447.878V449.439H172.244V447.878H173.805ZM173.805 449.439V451H172.244V449.439H173.805ZM175.366 449.439V451H173.805V449.439H175.366ZM176.927 449.439V451H175.366V449.439H176.927ZM176.927 447.878V449.439H175.366V447.878H176.927ZM176.927 446.317V447.878H175.366V446.317H176.927ZM176.927 444.756V446.317H175.366V444.756H176.927ZM176.927 443.195V444.756H175.366V443.195H176.927ZM176.927 441.634V443.195H175.366V441.634H176.927ZM176.927 440.073V441.634H175.366V440.073H176.927ZM176.927 438.512V440.073H175.366V438.512H176.927ZM175.366 438.512V440.073H173.805V438.512H175.366ZM175.366 436.951V438.512H173.805V436.951H175.366ZM175.366 440.073V441.634H173.805V440.073H175.366ZM175.366 441.634V443.195H173.805V441.634H175.366ZM175.366 443.195V444.756H173.805V443.195H175.366ZM175.366 444.756V446.317H173.805V444.756H175.366ZM175.366 446.317V447.878H173.805V446.317H175.366ZM175.366 447.878V449.439H173.805V447.878H175.366ZM172.244 449.439V451H170.683V449.439H172.244ZM172.244 447.878V449.439H170.683V447.878H172.244ZM172.244 446.317V447.878H170.683V446.317H172.244ZM172.244 444.756V446.317H170.683V444.756H172.244ZM172.244 443.195V444.756H170.683V443.195H172.244ZM172.244 441.634V443.195H170.683V441.634H172.244ZM172.244 440.073V441.634H170.683V440.073H172.244ZM172.244 438.512V440.073H170.683V438.512H172.244ZM170.683 411.976V413.537H169.122V411.976H170.683ZM170.683 413.537V415.098H169.122V413.537H170.683ZM170.683 415.098V416.659H169.122V415.098H170.683ZM170.683 416.659V418.22H169.122V416.659H170.683ZM170.683 418.22V419.78H169.122V418.22H170.683ZM170.683 419.78V421.341H169.122V419.78H170.683ZM170.683 421.341V422.902H169.122V421.341H170.683ZM170.683 422.902V424.463H169.122V422.902H170.683ZM170.683 424.463V426.024H169.122V424.463H170.683ZM170.683 426.024V427.585H169.122V426.024H170.683ZM175.366 411.976V413.537H173.805V411.976H175.366ZM175.366 413.537V415.098H173.805V413.537H175.366ZM175.366 415.098V416.659H173.805V415.098H175.366ZM175.366 416.659V418.22H173.805V416.659H175.366ZM175.366 418.22V419.78H173.805V418.22H175.366ZM175.366 419.78V421.341H173.805V419.78H175.366ZM175.366 422.902V424.463H173.805V422.902H175.366ZM175.366 424.463V426.024H173.805V424.463H175.366ZM175.366 426.024V427.585H173.805V426.024H175.366ZM175.366 427.585V429.146H173.805V427.585H175.366ZM175.366 429.146V430.707H173.805V429.146H175.366ZM175.366 430.707V432.268H173.805V430.707H175.366ZM175.366 432.268V433.829H173.805V432.268H175.366ZM176.927 433.829V435.39H175.366V433.829H176.927ZM176.927 435.39V436.951H175.366V435.39H176.927ZM176.927 436.951V438.512H175.366V436.951H176.927ZM176.927 432.268V433.829H175.366V432.268H176.927ZM176.927 430.707V432.268H175.366V430.707H176.927ZM176.927 429.146V430.707H175.366V429.146H176.927ZM176.927 427.585V429.146H175.366V427.585H176.927ZM176.927 426.024V427.585H175.366V426.024H176.927ZM176.927 424.463V426.024H175.366V424.463H176.927ZM176.927 422.902V424.463H175.366V422.902H176.927ZM176.927 421.341V422.902H175.366V421.341H176.927ZM176.927 419.78V421.341H175.366V419.78H176.927ZM176.927 418.22V419.78H175.366V418.22H176.927ZM175.366 421.341V422.902H173.805V421.341H175.366ZM176.927 416.659V418.22H175.366V416.659H176.927ZM176.927 415.098V416.659H175.366V415.098H176.927ZM176.927 413.537V415.098H175.366V413.537H176.927ZM176.927 411.976V413.537H175.366V411.976H176.927ZM173.805 411.976V413.537H172.244V411.976H173.805ZM172.244 411.976V413.537H170.683V411.976H172.244ZM172.244 413.537V415.098H170.683V413.537H172.244ZM173.805 413.537V415.098H172.244V413.537H173.805ZM173.805 415.098V416.659H172.244V415.098H173.805ZM173.805 416.659V418.22H172.244V416.659H173.805ZM173.805 418.22V419.78H172.244V418.22H173.805ZM173.805 419.78V421.341H172.244V419.78H173.805ZM173.805 421.341V422.902H172.244V421.341H173.805ZM173.805 422.902V424.463H172.244V422.902H173.805ZM172.244 424.463V426.024H170.683V424.463H172.244ZM172.244 426.024V427.585H170.683V426.024H172.244ZM172.244 422.902V424.463H170.683V422.902H172.244ZM172.244 421.341V422.902H170.683V421.341H172.244ZM172.244 419.78V421.341H170.683V419.78H172.244ZM172.244 418.22V419.78H170.683V418.22H172.244ZM172.244 416.659V418.22H170.683V416.659H172.244ZM172.244 415.098V416.659H170.683V415.098H172.244ZM173.805 424.463V426.024H172.244V424.463H173.805ZM173.805 426.024V427.585H172.244V426.024H173.805ZM173.805 427.585V429.146H172.244V427.585H173.805ZM173.805 429.146V430.707H172.244V429.146H173.805ZM173.805 430.707V432.268H172.244V430.707H173.805ZM173.805 432.268V433.829H172.244V432.268H173.805ZM173.805 433.829V435.39H172.244V433.829H173.805ZM173.805 435.39V436.951H172.244V435.39H173.805ZM173.805 436.951V438.512H172.244V436.951H173.805ZM175.366 435.39V436.951H173.805V435.39H175.366ZM175.366 433.829V435.39H173.805V433.829H175.366ZM200.341 411.976V413.537H198.78V411.976H200.341ZM200.341 413.537V415.098H198.78V413.537H200.341ZM200.341 415.098V416.659H198.78V415.098H200.341ZM200.341 418.22V419.78H198.78V418.22H200.341ZM200.341 419.78V421.341H198.78V419.78H200.341ZM200.341 421.341V422.902H198.78V421.341H200.341ZM200.341 422.902V424.463H198.78V422.902H200.341ZM200.341 424.463V426.024H198.78V424.463H200.341ZM200.341 426.024V427.585H198.78V426.024H200.341ZM200.341 427.585V429.146H198.78V427.585H200.341ZM201.902 429.146V430.707H200.341V429.146H201.902ZM201.902 430.707V432.268H200.341V430.707H201.902ZM201.902 432.268V433.829H200.341V432.268H201.902ZM201.902 433.829V435.39H200.341V433.829H201.902ZM201.902 435.39V436.951H200.341V435.39H201.902ZM201.902 436.951V438.512H200.341V436.951H201.902ZM203.463 436.951V438.512H201.902V436.951H203.463ZM203.463 438.512V440.073H201.902V438.512H203.463ZM203.463 440.073V441.634H201.902V440.073H203.463ZM203.463 441.634V443.195H201.902V441.634H203.463ZM203.463 443.195V444.756H201.902V443.195H203.463ZM203.463 444.756V446.317H201.902V444.756H203.463ZM203.463 446.317V447.878H201.902V446.317H203.463ZM203.463 447.878V449.439H201.902V447.878H203.463ZM203.463 449.439V451H201.902V449.439H203.463ZM201.902 449.439V451H200.341V449.439H201.902ZM201.902 447.878V449.439H200.341V447.878H201.902ZM201.902 446.317V447.878H200.341V446.317H201.902ZM201.902 444.756V446.317H200.341V444.756H201.902ZM201.902 443.195V444.756H200.341V443.195H201.902ZM201.902 441.634V443.195H200.341V441.634H201.902ZM201.902 440.073V441.634H200.341V440.073H201.902ZM200.341 440.073V441.634H198.78V440.073H200.341ZM200.341 438.512V440.073H198.78V438.512H200.341ZM201.902 438.512V440.073H200.341V438.512H201.902ZM200.341 429.146V430.707H198.78V429.146H200.341ZM200.341 430.707V432.268H198.78V430.707H200.341ZM200.341 432.268V433.829H198.78V432.268H200.341ZM200.341 433.829V435.39H198.78V433.829H200.341ZM200.341 435.39V436.951H198.78V435.39H200.341ZM200.341 436.951V438.512H198.78V436.951H200.341ZM200.341 416.659V418.22H198.78V416.659H200.341ZM200.341 441.634V443.195H198.78V441.634H200.341ZM200.341 443.195V444.756H198.78V443.195H200.341ZM200.341 444.756V446.317H198.78V444.756H200.341ZM200.341 446.317V447.878H198.78V446.317H200.341ZM200.341 447.878V449.439H198.78V447.878H200.341ZM200.341 449.439V451H198.78V449.439H200.341ZM205.024 449.439V451H203.463V449.439H205.024ZM206.585 449.439V451H205.024V449.439H206.585ZM206.585 447.878V449.439H205.024V447.878H206.585ZM206.585 446.317V447.878H205.024V446.317H206.585ZM206.585 444.756V446.317H205.024V444.756H206.585ZM206.585 443.195V444.756H205.024V443.195H206.585ZM206.585 441.634V443.195H205.024V441.634H206.585ZM206.585 440.073V441.634H205.024V440.073H206.585ZM206.585 438.512V440.073H205.024V438.512H206.585ZM206.585 436.951V438.512H205.024V436.951H206.585ZM206.585 435.39V436.951H205.024V435.39H206.585ZM206.585 433.829V435.39H205.024V433.829H206.585ZM206.585 432.268V433.829H205.024V432.268H206.585ZM206.585 430.707V432.268H205.024V430.707H206.585ZM206.585 429.146V430.707H205.024V429.146H206.585ZM206.585 427.585V429.146H205.024V427.585H206.585ZM206.585 426.024V427.585H205.024V426.024H206.585ZM206.585 424.463V426.024H205.024V424.463H206.585ZM206.585 422.902V424.463H205.024V422.902H206.585ZM206.585 421.341V422.902H205.024V421.341H206.585ZM201.902 411.976V413.537H200.341V411.976H201.902ZM203.463 411.976V413.537H201.902V411.976H203.463ZM205.024 411.976V413.537H203.463V411.976H205.024ZM206.585 411.976V413.537H205.024V411.976H206.585ZM206.585 413.537V415.098H205.024V413.537H206.585ZM206.585 415.098V416.659H205.024V415.098H206.585ZM206.585 416.659V418.22H205.024V416.659H206.585ZM206.585 418.22V419.78H205.024V418.22H206.585ZM206.585 419.78V421.341H205.024V419.78H206.585ZM201.902 413.537V415.098H200.341V413.537H201.902ZM203.463 413.537V415.098H201.902V413.537H203.463ZM205.024 413.537V415.098H203.463V413.537H205.024ZM205.024 415.098V416.659H203.463V415.098H205.024ZM205.024 416.659V418.22H203.463V416.659H205.024ZM205.024 418.22V419.78H203.463V418.22H205.024ZM205.024 419.78V421.341H203.463V419.78H205.024ZM203.463 419.78V421.341H201.902V419.78H203.463ZM203.463 418.22V419.78H201.902V418.22H203.463ZM203.463 416.659V418.22H201.902V416.659H203.463ZM203.463 415.098V416.659H201.902V415.098H203.463ZM201.902 415.098V416.659H200.341V415.098H201.902ZM201.902 416.659V418.22H200.341V416.659H201.902ZM201.902 418.22V419.78H200.341V418.22H201.902ZM201.902 419.78V421.341H200.341V419.78H201.902ZM201.902 421.341V422.902H200.341V421.341H201.902ZM201.902 422.902V424.463H200.341V422.902H201.902ZM201.902 424.463V426.024H200.341V424.463H201.902ZM201.902 426.024V427.585H200.341V426.024H201.902ZM203.463 426.024V427.585H201.902V426.024H203.463ZM203.463 424.463V426.024H201.902V424.463H203.463ZM203.463 422.902V424.463H201.902V422.902H203.463ZM203.463 421.341V422.902H201.902V421.341H203.463ZM205.024 421.341V422.902H203.463V421.341H205.024ZM205.024 422.902V424.463H203.463V422.902H205.024ZM205.024 424.463V426.024H203.463V424.463H205.024ZM205.024 426.024V427.585H203.463V426.024H205.024ZM205.024 427.585V429.146H203.463V427.585H205.024ZM205.024 429.146V430.707H203.463V429.146H205.024ZM205.024 430.707V432.268H203.463V430.707H205.024ZM205.024 432.268V433.829H203.463V432.268H205.024ZM205.024 433.829V435.39H203.463V433.829H205.024ZM205.024 435.39V436.951H203.463V435.39H205.024ZM203.463 435.39V436.951H201.902V435.39H203.463ZM203.463 433.829V435.39H201.902V433.829H203.463ZM203.463 432.268V433.829H201.902V432.268H203.463ZM203.463 430.707V432.268H201.902V430.707H203.463ZM203.463 429.146V430.707H201.902V429.146H203.463ZM201.902 427.585V429.146H200.341V427.585H201.902ZM203.463 427.585V429.146H201.902V427.585H203.463ZM205.024 436.951V438.512H203.463V436.951H205.024ZM205.024 438.512V440.073H203.463V438.512H205.024ZM205.024 440.073V441.634H203.463V440.073H205.024ZM205.024 441.634V443.195H203.463V441.634H205.024ZM205.024 443.195V444.756H203.463V443.195H205.024ZM205.024 444.756V446.317H203.463V444.756H205.024ZM205.024 446.317V447.878H203.463V446.317H205.024ZM205.024 447.878V449.439H203.463V447.878H205.024ZM187.854 430.707V432.268H186.293V430.707H187.854ZM187.854 429.146V430.707H186.293V429.146H187.854ZM187.854 427.585V429.146H186.293V427.585H187.854ZM187.854 426.024V427.585H186.293V426.024H187.854ZM187.854 424.463V426.024H186.293V424.463H187.854ZM187.854 422.902V424.463H186.293V422.902H187.854ZM187.854 432.268V433.829H186.293V432.268H187.854ZM190.976 421.341V422.902H189.415V421.341H190.976ZM192.537 419.78V421.341H190.976V419.78H192.537ZM194.098 418.22V419.78H192.537V418.22H194.098ZM195.659 416.659V418.22H194.098V416.659H195.659ZM186.293 421.341V422.902H184.732V421.341H186.293ZM184.732 419.78V421.341H183.171V419.78H184.732ZM183.171 418.22V419.78H181.61V418.22H183.171ZM181.61 416.659V418.22H180.049V416.659H181.61ZM190.976 430.707V432.268H189.415V430.707H190.976ZM192.537 429.146V430.707H190.976V429.146H192.537ZM194.098 427.585V429.146H192.537V427.585H194.098ZM195.659 426.024V427.585H194.098V426.024H195.659ZM186.293 430.707V432.268H184.732V430.707H186.293ZM184.732 429.146V430.707H183.171V429.146H184.732ZM183.171 427.585V429.146H181.61V427.585H183.171ZM181.61 426.024V427.585H180.049V426.024H181.61ZM178.488 413.537V415.098H176.927V413.537H178.488ZM180.049 415.098V416.659H178.488V415.098H180.049ZM197.22 415.098V416.659H195.659V415.098H197.22ZM198.78 413.537V415.098H197.22V413.537H198.78ZM180.049 419.78V421.341H178.488V419.78H180.049ZM180.049 424.463V426.024H178.488V424.463H180.049ZM180.049 422.902V424.463H178.488V422.902H180.049ZM178.488 422.902V424.463H176.927V422.902H178.488ZM197.22 424.463V426.024H195.659V424.463H197.22ZM198.78 422.902V424.463H197.22V422.902H198.78ZM198.78 421.341V422.902H197.22V421.341H198.78ZM198.78 419.78V421.341H197.22V419.78H198.78ZM198.78 418.22V419.78H197.22V418.22H198.78ZM198.78 416.659V418.22H197.22V416.659H198.78ZM198.78 415.098V416.659H197.22V415.098H198.78ZM197.22 416.659V418.22H195.659V416.659H197.22ZM197.22 418.22V419.78H195.659V418.22H197.22ZM197.22 419.78V421.341H195.659V419.78H197.22ZM197.22 421.341V422.902H195.659V421.341H197.22ZM197.22 422.902V424.463H195.659V422.902H197.22ZM195.659 418.22V419.78H194.098V418.22H195.659ZM195.659 419.78V421.341H194.098V419.78H195.659ZM195.659 421.341V422.902H194.098V421.341H195.659ZM195.659 422.902V424.463H194.098V422.902H195.659ZM195.659 424.463V426.024H194.098V424.463H195.659ZM194.098 419.78V421.341H192.537V419.78H194.098ZM194.098 421.341V422.902H192.537V421.341H194.098ZM194.098 422.902V424.463H192.537V422.902H194.098ZM194.098 424.463V426.024H192.537V424.463H194.098ZM194.098 426.024V427.585H192.537V426.024H194.098ZM192.537 421.341V422.902H190.976V421.341H192.537ZM192.537 422.902V424.463H190.976V422.902H192.537ZM192.537 424.463V426.024H190.976V424.463H192.537ZM192.537 426.024V427.585H190.976V426.024H192.537ZM192.537 427.585V429.146H190.976V427.585H192.537ZM190.976 422.902V424.463H189.415V422.902H190.976ZM190.976 424.463V426.024H189.415V424.463H190.976ZM190.976 426.024V427.585H189.415V426.024H190.976ZM190.976 427.585V429.146H189.415V427.585H190.976ZM190.976 429.146V430.707H189.415V429.146H190.976ZM186.293 429.146V430.707H184.732V429.146H186.293ZM186.293 427.585V429.146H184.732V427.585H186.293ZM184.732 427.585V429.146H183.171V427.585H184.732ZM184.732 426.024V427.585H183.171V426.024H184.732ZM183.171 426.024V427.585H181.61V426.024H183.171ZM183.171 424.463V426.024H181.61V424.463H183.171ZM181.61 424.463V426.024H180.049V424.463H181.61ZM181.61 422.902V424.463H180.049V422.902H181.61ZM180.049 421.341V422.902H178.488V421.341H180.049ZM178.488 421.341V422.902H176.927V421.341H178.488ZM178.488 419.78V421.341H176.927V419.78H178.488ZM178.488 418.22V419.78H176.927V418.22H178.488ZM178.488 416.659V418.22H176.927V416.659H178.488ZM178.488 415.098V416.659H176.927V415.098H178.488ZM180.049 416.659V418.22H178.488V416.659H180.049ZM180.049 418.22V419.78H178.488V418.22H180.049ZM181.61 418.22V419.78H180.049V418.22H181.61ZM181.61 419.78V421.341H180.049V419.78H181.61ZM183.171 419.78V421.341H181.61V419.78H183.171ZM183.171 421.341V422.902H181.61V421.341H183.171ZM184.732 421.341V422.902H183.171V421.341H184.732ZM184.732 422.902V424.463H183.171V422.902H184.732ZM186.293 422.902V424.463H184.732V422.902H186.293ZM186.293 424.463V426.024H184.732V424.463H186.293ZM186.293 426.024V427.585H184.732V426.024H186.293ZM184.732 424.463V426.024H183.171V424.463H184.732ZM183.171 422.902V424.463H181.61V422.902H183.171ZM181.61 421.341V422.902H180.049V421.341H181.61ZM189.415 422.902V424.463H187.854V422.902H189.415ZM189.415 424.463V426.024H187.854V424.463H189.415ZM189.415 426.024V427.585H187.854V426.024H189.415ZM189.415 427.585V429.146H187.854V427.585H189.415ZM189.415 429.146V430.707H187.854V429.146H189.415ZM189.415 430.707V432.268H187.854V430.707H189.415ZM189.415 432.268V433.829H187.854V432.268H189.415ZM217.492 441.634V440.073H219.053V441.634H217.492ZM215.931 441.634V440.073H217.492V441.634H215.931ZM214.37 441.634V440.073H215.931V441.634H214.37ZM212.809 441.634V440.073H214.37V441.634H212.809ZM211.248 441.634V440.073H212.809V441.634H211.248ZM211.248 443.195V441.634H212.809V443.195H211.248ZM211.248 444.756V443.195H212.809V444.756H211.248ZM212.809 444.756V443.195H214.37V444.756H212.809ZM214.37 444.756V443.195H215.931V444.756H214.37ZM215.931 444.756V443.195H217.492V444.756H215.931ZM215.931 443.195V441.634H217.492V443.195H215.931ZM217.492 443.195V441.634H219.053V443.195H217.492ZM214.37 443.195V441.634H215.931V443.195H214.37ZM212.809 443.195V441.634H214.37V443.195H212.809ZM217.492 444.756V443.195H219.053V444.756H217.492ZM219.053 444.756V443.195H220.614V444.756H219.053ZM219.053 446.317V444.756H220.614V446.317H219.053ZM217.492 446.317V444.756H219.053V446.317H217.492ZM215.931 446.317V444.756H217.492V446.317H215.931ZM214.37 446.317V444.756H215.931V446.317H214.37ZM212.809 446.317V444.756H214.37V446.317H212.809ZM212.809 447.878V446.317H214.37V447.878H212.809ZM214.37 447.878V446.317H215.931V447.878H214.37ZM215.931 447.878V446.317H217.492V447.878H215.931ZM217.492 447.878V446.317H219.053V447.878H217.492ZM219.053 447.878V446.317H220.614V447.878H219.053ZM215.931 449.439V447.878H217.492V449.439H215.931ZM214.37 449.439V447.878H215.931V449.439H214.37ZM217.492 449.439V447.878H219.053V449.439H217.492ZM217.492 451V449.439H219.053V451H217.492ZM219.053 451V449.439H220.614V451H219.053ZM219.053 449.439V447.878H220.614V449.439H219.053ZM220.614 449.439V447.878H222.175V449.439H220.614ZM220.614 451V449.439H222.175V451H220.614ZM220.614 447.878V446.317H222.175V447.878H220.614ZM222.175 447.878V446.317H223.736V447.878H222.175ZM222.175 446.317V444.756H223.736V446.317H222.175ZM220.614 446.317V444.756H222.175V446.317H220.614ZM223.736 446.317V444.756H225.297V446.317H223.736ZM223.736 447.878V446.317H225.297V447.878H223.736ZM223.736 449.439V447.878H225.297V449.439H223.736ZM223.736 451V449.439H225.297V451H223.736ZM222.175 451V449.439H223.736V451H222.175ZM222.175 449.439V447.878H223.736V449.439H222.175ZM225.297 451V449.439H226.858V451H225.297ZM228.419 449.439V447.878H229.98V449.439H228.419ZM228.419 447.878V446.317H229.98V447.878H228.419ZM228.419 446.317V444.756H229.98V446.317H228.419ZM226.858 446.317V444.756H228.419V446.317H226.858ZM225.297 446.317V444.756H226.858V446.317H225.297ZM225.297 447.878V446.317H226.858V447.878H225.297ZM225.297 449.439V447.878H226.858V449.439H225.297ZM226.858 449.439V447.878H228.419V449.439H226.858ZM226.858 447.878V446.317H228.419V447.878H226.858ZM229.98 447.878V446.317H231.541V447.878H229.98ZM229.98 449.439V447.878H231.541V449.439H229.98ZM231.541 449.439V447.878H233.102V449.439H231.541ZM231.541 447.878V446.317H233.102V447.878H231.541ZM233.102 447.878V446.317H234.663V447.878H233.102ZM233.102 446.317V444.756H234.663V446.317H233.102ZM233.102 444.756V443.195H234.663V444.756H233.102ZM231.541 444.756V443.195H233.102V444.756H231.541ZM231.541 446.317V444.756H233.102V446.317H231.541ZM229.98 446.317V444.756H231.541V446.317H229.98ZM229.98 444.756V443.195H231.541V444.756H229.98ZM228.419 444.756V443.195H229.98V444.756H228.419ZM234.663 444.756V443.195H236.224V444.756H234.663ZM234.663 443.195V441.634H236.224V443.195H234.663ZM234.663 441.634V440.073H236.224V441.634H234.663ZM234.663 440.073V438.512H236.224V440.073H234.663ZM234.663 438.512V436.951H236.224V438.512H234.663ZM234.663 436.951V435.39H236.224V436.951H234.663ZM234.663 435.39V433.829H236.224V435.39H234.663ZM234.663 433.829V432.268H236.224V433.829H234.663ZM234.663 432.268V430.707H236.224V432.268H234.663ZM234.663 430.707V429.146H236.224V430.707H234.663ZM233.102 430.707V429.146H234.663V430.707H233.102ZM233.102 429.146V427.585H234.663V429.146H233.102ZM234.663 429.146V427.585H236.224V429.146H234.663ZM231.541 429.146V427.585H233.102V429.146H231.541ZM229.98 429.146V427.585H231.541V429.146H229.98ZM228.419 429.146V427.585H229.98V429.146H228.419ZM226.858 429.146V427.585H228.419V429.146H226.858ZM228.419 430.707V429.146H229.98V430.707H228.419ZM228.419 432.268V430.707H229.98V432.268H228.419ZM228.419 433.829V432.268H229.98V433.829H228.419ZM228.419 435.39V433.829H229.98V435.39H228.419ZM228.419 436.951V435.39H229.98V436.951H228.419ZM228.419 438.512V436.951H229.98V438.512H228.419ZM228.419 440.073V438.512H229.98V440.073H228.419ZM228.419 441.634V440.073H229.98V441.634H228.419ZM228.419 443.195V441.634H229.98V443.195H228.419ZM229.98 443.195V441.634H231.541V443.195H229.98ZM231.541 443.195V441.634H233.102V443.195H231.541ZM233.102 443.195V441.634H234.663V443.195H233.102ZM233.102 441.634V440.073H234.663V441.634H233.102ZM233.102 440.073V438.512H234.663V440.073H233.102ZM233.102 438.512V436.951H234.663V438.512H233.102ZM233.102 436.951V435.39H234.663V436.951H233.102ZM233.102 435.39V433.829H234.663V435.39H233.102ZM233.102 433.829V432.268H234.663V433.829H233.102ZM233.102 432.268V430.707H234.663V432.268H233.102ZM231.541 430.707V429.146H233.102V430.707H231.541ZM229.98 430.707V429.146H231.541V430.707H229.98ZM229.98 432.268V430.707H231.541V432.268H229.98ZM229.98 433.829V432.268H231.541V433.829H229.98ZM229.98 435.39V433.829H231.541V435.39H229.98ZM229.98 436.951V435.39H231.541V436.951H229.98ZM231.541 436.951V435.39H233.102V436.951H231.541ZM231.541 438.512V436.951H233.102V438.512H231.541ZM231.541 440.073V438.512H233.102V440.073H231.541ZM231.541 441.634V440.073H233.102V441.634H231.541ZM229.98 441.634V440.073H231.541V441.634H229.98ZM229.98 440.073V438.512H231.541V440.073H229.98ZM229.98 438.512V436.951H231.541V438.512H229.98ZM231.541 433.829V432.268H233.102V433.829H231.541ZM231.541 432.268V430.707H233.102V432.268H231.541ZM231.541 435.39V433.829H233.102V435.39H231.541ZM217.492 430.707V429.146H219.053V430.707H217.492ZM215.931 430.707V429.146H217.492V430.707H215.931ZM214.37 430.707V429.146H215.931V430.707H214.37ZM212.809 430.707V429.146H214.37V430.707H212.809ZM211.248 430.707V429.146H212.809V430.707H211.248ZM211.248 429.146V427.585H212.809V429.146H211.248ZM212.809 429.146V427.585H214.37V429.146H212.809ZM214.37 429.146V427.585H215.931V429.146H214.37ZM215.931 429.146V427.585H217.492V429.146H215.931ZM217.492 429.146V427.585H219.053V429.146H217.492ZM219.053 429.146V427.585H220.614V429.146H219.053ZM219.053 427.585V426.024H220.614V427.585H219.053ZM217.492 427.585V426.024H219.053V427.585H217.492ZM215.931 427.585V426.024H217.492V427.585H215.931ZM214.37 427.585V426.024H215.931V427.585H214.37ZM214.37 426.024V424.463H215.931V426.024H214.37ZM212.809 426.024V424.463H214.37V426.024H212.809ZM212.809 427.585V426.024H214.37V427.585H212.809ZM214.37 424.463V422.902H215.931V424.463H214.37ZM215.931 424.463V422.902H217.492V424.463H215.931ZM215.931 426.024V424.463H217.492V426.024H215.931ZM217.492 426.024V424.463H219.053V426.024H217.492ZM217.492 424.463V422.902H219.053V424.463H217.492ZM217.492 422.902V421.341H219.053V422.902H217.492ZM219.053 422.902V421.341H220.614V422.902H219.053ZM220.614 422.902V421.341H222.175V422.902H220.614ZM222.175 422.902V421.341H223.736V422.902H222.175ZM223.736 422.902V421.341H225.297V422.902H223.736ZM225.297 422.902V421.341H226.858V422.902H225.297ZM226.858 422.902V421.341H228.419V422.902H226.858ZM228.419 422.902V421.341H229.98V422.902H228.419ZM226.858 424.463V422.902H228.419V424.463H226.858ZM225.297 424.463V422.902H226.858V424.463H225.297ZM223.736 424.463V422.902H225.297V424.463H223.736ZM222.175 424.463V422.902H223.736V424.463H222.175ZM220.614 424.463V422.902H222.175V424.463H220.614ZM219.053 424.463V422.902H220.614V424.463H219.053ZM219.053 426.024V424.463H220.614V426.024H219.053ZM220.614 426.024V424.463H222.175V426.024H220.614ZM222.175 426.024V424.463H223.736V426.024H222.175ZM223.736 426.024V424.463H225.297V426.024H223.736ZM225.297 426.024V424.463H226.858V426.024H225.297ZM226.858 426.024V424.463H228.419V426.024H226.858ZM228.419 424.463V422.902H229.98V424.463H228.419ZM229.98 424.463V422.902H231.541V424.463H229.98ZM231.541 424.463V422.902H233.102V424.463H231.541ZM231.541 426.024V424.463H233.102V426.024H231.541ZM233.102 426.024V424.463H234.663V426.024H233.102ZM233.102 427.585V426.024H234.663V427.585H233.102ZM231.541 427.585V426.024H233.102V427.585H231.541ZM229.98 427.585V426.024H231.541V427.585H229.98ZM228.419 427.585V426.024H229.98V427.585H228.419ZM226.858 427.585V426.024H228.419V427.585H226.858ZM225.297 427.585V426.024H226.858V427.585H225.297ZM223.736 427.585V426.024H225.297V427.585H223.736ZM222.175 427.585V426.024H223.736V427.585H222.175ZM220.614 427.585V426.024H222.175V427.585H220.614ZM228.419 426.024V424.463H229.98V426.024H228.419ZM229.98 426.024V424.463H231.541V426.024H229.98ZM212.809 440.073V438.512H214.37V440.073H212.809ZM214.37 440.073V438.512H215.931V440.073H214.37ZM215.931 440.073V438.512H217.492V440.073H215.931ZM217.492 440.073V438.512H219.053V440.073H217.492ZM214.37 438.512V436.951H215.931V438.512H214.37ZM215.931 438.512V436.951H217.492V438.512H215.931ZM219.053 438.512V436.951H220.614V438.512H219.053ZM220.614 438.512V436.951H222.175V438.512H220.614ZM222.175 438.512V436.951H223.736V438.512H222.175ZM223.736 438.512V436.951H225.297V438.512H223.736ZM225.297 438.512V436.951H226.858V438.512H225.297ZM226.858 438.512V436.951H228.419V438.512H226.858ZM217.492 438.512V436.951H219.053V438.512H217.492ZM212.809 438.512V436.951H214.37V438.512H212.809ZM214.37 436.951V435.39H215.931V436.951H214.37ZM215.931 436.951V435.39H217.492V436.951H215.931ZM217.492 436.951V435.39H219.053V436.951H217.492ZM219.053 436.951V435.39H220.614V436.951H219.053ZM220.614 436.951V435.39H222.175V436.951H220.614ZM222.175 436.951V435.39H223.736V436.951H222.175ZM223.736 436.951V435.39H225.297V436.951H223.736ZM225.297 436.951V435.39H226.858V436.951H225.297ZM226.858 436.951V435.39H228.419V436.951H226.858ZM226.858 435.39V433.829H228.419V435.39H226.858ZM225.297 435.39V433.829H226.858V435.39H225.297ZM223.736 435.39V433.829H225.297V435.39H223.736ZM220.614 435.39V433.829H222.175V435.39H220.614ZM219.053 435.39V433.829H220.614V435.39H219.053ZM217.492 435.39V433.829H219.053V435.39H217.492ZM222.175 435.39V433.829H223.736V435.39H222.175ZM236.224 444.756V446.317H234.663V444.756H236.224ZM236.224 446.317V447.878H234.663V446.317H236.224ZM236.224 447.878V449.439H234.663V447.878H236.224ZM236.224 449.439V451H234.663V449.439H236.224ZM234.663 449.439V451H233.102V449.439H234.663ZM234.663 447.878V449.439H233.102V447.878H234.663ZM233.102 449.439V451H231.541V449.439H233.102ZM231.541 449.439V451H229.98V449.439H231.541ZM229.98 449.439V451H228.419V449.439H229.98ZM228.419 443.195V444.756H226.858V443.195H228.419ZM217.492 449.439V451H215.931V449.439H217.492ZM220.614 438.512V440.073H219.053V438.512H220.614ZM244.058 411.976V413.537H242.497V411.976H244.058ZM244.058 413.537V415.098H242.497V413.537H244.058ZM244.058 415.098V416.659H242.497V415.098H244.058ZM248.741 411.976V413.537H247.18V411.976H248.741ZM248.741 413.537V415.098H247.18V413.537H248.741ZM248.741 415.098V416.659H247.18V415.098H248.741ZM250.302 415.098V416.659H248.741V415.098H250.302ZM250.302 413.537V415.098H248.741V413.537H250.302ZM250.302 411.976V413.537H248.741V411.976H250.302ZM247.18 411.976V413.537H245.619V411.976H247.18ZM245.619 411.976V413.537H244.058V411.976H245.619ZM245.619 413.537V415.098H244.058V413.537H245.619ZM247.18 413.537V415.098H245.619V413.537H247.18ZM247.18 415.098V416.659H245.619V415.098H247.18ZM245.619 415.098V416.659H244.058V415.098H245.619ZM244.058 416.659V418.22H242.497V416.659H244.058ZM245.619 416.659V418.22H244.058V416.659H245.619ZM247.18 416.659V418.22H245.619V416.659H247.18ZM248.741 416.659V418.22H247.18V416.659H248.741ZM250.302 416.659V418.22H248.741V416.659H250.302ZM244.058 449.439V451H242.497V449.439H244.058ZM244.058 447.878V449.439H242.497V447.878H244.058ZM244.058 446.317V447.878H242.497V446.317H244.058ZM244.058 444.756V446.317H242.497V444.756H244.058ZM244.058 443.195V444.756H242.497V443.195H244.058ZM244.058 441.634V443.195H242.497V441.634H244.058ZM244.058 440.073V441.634H242.497V440.073H244.058ZM244.058 438.512V440.073H242.497V438.512H244.058ZM244.058 436.951V438.512H242.497V436.951H244.058ZM244.058 435.39V436.951H242.497V435.39H244.058ZM244.058 433.829V435.39H242.497V433.829H244.058ZM244.058 432.268V433.829H242.497V432.268H244.058ZM244.058 430.707V432.268H242.497V430.707H244.058ZM244.058 429.146V430.707H242.497V429.146H244.058ZM244.058 427.585V429.146H242.497V427.585H244.058ZM245.619 427.585V429.146H244.058V427.585H245.619ZM245.619 429.146V430.707H244.058V429.146H245.619ZM245.619 430.707V432.268H244.058V430.707H245.619ZM245.619 432.268V433.829H244.058V432.268H245.619ZM245.619 433.829V435.39H244.058V433.829H245.619ZM245.619 435.39V436.951H244.058V435.39H245.619ZM245.619 436.951V438.512H244.058V436.951H245.619ZM247.18 438.512V440.073H245.619V438.512H247.18ZM247.18 440.073V441.634H245.619V440.073H247.18ZM247.18 441.634V443.195H245.619V441.634H247.18ZM247.18 443.195V444.756H245.619V443.195H247.18ZM247.18 444.756V446.317H245.619V444.756H247.18ZM247.18 446.317V447.878H245.619V446.317H247.18ZM247.18 447.878V449.439H245.619V447.878H247.18ZM247.18 449.439V451H245.619V449.439H247.18ZM248.741 449.439V451H247.18V449.439H248.741ZM250.302 449.439V451H248.741V449.439H250.302ZM250.302 447.878V449.439H248.741V447.878H250.302ZM250.302 446.317V447.878H248.741V446.317H250.302ZM250.302 444.756V446.317H248.741V444.756H250.302ZM250.302 443.195V444.756H248.741V443.195H250.302ZM250.302 441.634V443.195H248.741V441.634H250.302ZM250.302 440.073V441.634H248.741V440.073H250.302ZM250.302 438.512V440.073H248.741V438.512H250.302ZM248.741 438.512V440.073H247.18V438.512H248.741ZM248.741 436.951V438.512H247.18V436.951H248.741ZM248.741 440.073V441.634H247.18V440.073H248.741ZM248.741 441.634V443.195H247.18V441.634H248.741ZM248.741 443.195V444.756H247.18V443.195H248.741ZM248.741 444.756V446.317H247.18V444.756H248.741ZM248.741 446.317V447.878H247.18V446.317H248.741ZM248.741 447.878V449.439H247.18V447.878H248.741ZM245.619 449.439V451H244.058V449.439H245.619ZM245.619 447.878V449.439H244.058V447.878H245.619ZM245.619 446.317V447.878H244.058V446.317H245.619ZM245.619 444.756V446.317H244.058V444.756H245.619ZM245.619 443.195V444.756H244.058V443.195H245.619ZM245.619 441.634V443.195H244.058V441.634H245.619ZM245.619 440.073V441.634H244.058V440.073H245.619ZM245.619 438.512V440.073H244.058V438.512H245.619ZM244.058 424.463V426.024H242.497V424.463H244.058ZM244.058 426.024V427.585H242.497V426.024H244.058ZM248.741 424.463V426.024H247.18V424.463H248.741ZM248.741 426.024V427.585H247.18V426.024H248.741ZM248.741 427.585V429.146H247.18V427.585H248.741ZM248.741 429.146V430.707H247.18V429.146H248.741ZM248.741 430.707V432.268H247.18V430.707H248.741ZM248.741 432.268V433.829H247.18V432.268H248.741ZM250.302 433.829V435.39H248.741V433.829H250.302ZM250.302 435.39V436.951H248.741V435.39H250.302ZM250.302 436.951V438.512H248.741V436.951H250.302ZM250.302 432.268V433.829H248.741V432.268H250.302ZM250.302 430.707V432.268H248.741V430.707H250.302ZM250.302 429.146V430.707H248.741V429.146H250.302ZM250.302 427.585V429.146H248.741V427.585H250.302ZM250.302 426.024V427.585H248.741V426.024H250.302ZM250.302 424.463V426.024H248.741V424.463H250.302ZM245.619 424.463V426.024H244.058V424.463H245.619ZM245.619 426.024V427.585H244.058V426.024H245.619ZM247.18 424.463V426.024H245.619V424.463H247.18ZM247.18 426.024V427.585H245.619V426.024H247.18ZM247.18 427.585V429.146H245.619V427.585H247.18ZM247.18 429.146V430.707H245.619V429.146H247.18ZM247.18 430.707V432.268H245.619V430.707H247.18ZM247.18 432.268V433.829H245.619V432.268H247.18ZM247.18 433.829V435.39H245.619V433.829H247.18ZM247.18 435.39V436.951H245.619V435.39H247.18ZM247.18 436.951V438.512H245.619V436.951H247.18ZM248.741 435.39V436.951H247.18V435.39H248.741ZM248.741 433.829V435.39H247.18V433.829H248.741ZM248.741 422.902V424.463H247.18V422.902H248.741ZM250.302 422.902V424.463H248.741V422.902H250.302ZM247.18 422.902V424.463H245.619V422.902H247.18ZM245.619 422.902V424.463H244.058V422.902H245.619ZM244.058 422.902V424.463H242.497V422.902H244.058ZM258.12 449.439V451H256.559V449.439H258.12ZM258.12 447.878V449.439H256.559V447.878H258.12ZM258.12 446.317V447.878H256.559V446.317H258.12ZM258.12 444.756V446.317H256.559V444.756H258.12ZM258.12 443.195V444.756H256.559V443.195H258.12ZM258.12 441.634V443.195H256.559V441.634H258.12ZM258.12 440.073V441.634H256.559V440.073H258.12ZM258.12 438.512V440.073H256.559V438.512H258.12ZM258.12 436.951V438.512H256.559V436.951H258.12ZM258.12 435.39V436.951H256.559V435.39H258.12ZM258.12 433.829V435.39H256.559V433.829H258.12ZM258.12 432.268V433.829H256.559V432.268H258.12ZM258.12 430.707V432.268H256.559V430.707H258.12ZM258.12 429.146V430.707H256.559V429.146H258.12ZM258.12 427.585V429.146H256.559V427.585H258.12ZM259.681 427.585V429.146H258.12V427.585H259.681ZM259.681 429.146V430.707H258.12V429.146H259.681ZM259.681 430.707V432.268H258.12V430.707H259.681ZM259.681 432.268V433.829H258.12V432.268H259.681ZM259.681 433.829V435.39H258.12V433.829H259.681ZM259.681 435.39V436.951H258.12V435.39H259.681ZM259.681 436.951V438.512H258.12V436.951H259.681ZM261.242 438.512V440.073H259.681V438.512H261.242ZM261.242 440.073V441.634H259.681V440.073H261.242ZM261.242 441.634V443.195H259.681V441.634H261.242ZM261.242 443.195V444.756H259.681V443.195H261.242ZM261.242 444.756V446.317H259.681V444.756H261.242ZM261.242 446.317V447.878H259.681V446.317H261.242ZM261.242 447.878V449.439H259.681V447.878H261.242ZM261.242 449.439V451H259.681V449.439H261.242ZM262.803 449.439V451H261.242V449.439H262.803ZM264.364 449.439V451H262.803V449.439H264.364ZM264.364 447.878V449.439H262.803V447.878H264.364ZM264.364 446.317V447.878H262.803V446.317H264.364ZM264.364 444.756V446.317H262.803V444.756H264.364ZM264.364 443.195V444.756H262.803V443.195H264.364ZM264.364 441.634V443.195H262.803V441.634H264.364ZM264.364 440.073V441.634H262.803V440.073H264.364ZM264.364 438.512V440.073H262.803V438.512H264.364ZM262.803 438.512V440.073H261.242V438.512H262.803ZM262.803 436.951V438.512H261.242V436.951H262.803ZM262.803 440.073V441.634H261.242V440.073H262.803ZM262.803 441.634V443.195H261.242V441.634H262.803ZM262.803 443.195V444.756H261.242V443.195H262.803ZM262.803 444.756V446.317H261.242V444.756H262.803ZM262.803 446.317V447.878H261.242V446.317H262.803ZM262.803 447.878V449.439H261.242V447.878H262.803ZM259.681 449.439V451H258.12V449.439H259.681ZM259.681 447.878V449.439H258.12V447.878H259.681ZM259.681 446.317V447.878H258.12V446.317H259.681ZM259.681 444.756V446.317H258.12V444.756H259.681ZM259.681 443.195V444.756H258.12V443.195H259.681ZM259.681 441.634V443.195H258.12V441.634H259.681ZM259.681 440.073V441.634H258.12V440.073H259.681ZM259.681 438.512V440.073H258.12V438.512H259.681ZM258.12 421.341V422.902H256.559V421.341H258.12ZM258.12 422.902V424.463H256.559V422.902H258.12ZM258.12 424.463V426.024H256.559V424.463H258.12ZM258.12 426.024V427.585H256.559V426.024H258.12ZM262.803 422.902V424.463H261.242V422.902H262.803ZM262.803 424.463V426.024H261.242V424.463H262.803ZM262.803 426.024V427.585H261.242V426.024H262.803ZM262.803 427.585V429.146H261.242V427.585H262.803ZM262.803 429.146V430.707H261.242V429.146H262.803ZM262.803 430.707V432.268H261.242V430.707H262.803ZM262.803 432.268V433.829H261.242V432.268H262.803ZM264.364 433.829V435.39H262.803V433.829H264.364ZM264.364 435.39V436.951H262.803V435.39H264.364ZM264.364 436.951V438.512H262.803V436.951H264.364ZM264.364 432.268V433.829H262.803V432.268H264.364ZM264.364 430.707V432.268H262.803V430.707H264.364ZM264.364 429.146V430.707H262.803V429.146H264.364ZM264.364 427.585V429.146H262.803V427.585H264.364ZM264.364 426.024V427.585H262.803V426.024H264.364ZM264.364 424.463V426.024H262.803V424.463H264.364ZM264.364 422.902V424.463H262.803V422.902H264.364ZM264.364 421.341V422.902H262.803V421.341H264.364ZM262.803 421.341V422.902H261.242V421.341H262.803ZM261.242 421.341V422.902H259.681V421.341H261.242ZM261.242 422.902V424.463H259.681V422.902H261.242ZM259.681 424.463V426.024H258.12V424.463H259.681ZM259.681 426.024V427.585H258.12V426.024H259.681ZM259.681 422.902V424.463H258.12V422.902H259.681ZM259.681 421.341V422.902H258.12V421.341H259.681ZM261.242 424.463V426.024H259.681V424.463H261.242ZM261.242 426.024V427.585H259.681V426.024H261.242ZM261.242 427.585V429.146H259.681V427.585H261.242ZM261.242 429.146V430.707H259.681V429.146H261.242ZM261.242 430.707V432.268H259.681V430.707H261.242ZM261.242 432.268V433.829H259.681V432.268H261.242ZM261.242 433.829V435.39H259.681V433.829H261.242ZM261.242 435.39V436.951H259.681V435.39H261.242ZM261.242 436.951V438.512H259.681V436.951H261.242ZM262.803 435.39V436.951H261.242V435.39H262.803ZM262.803 433.829V435.39H261.242V433.829H262.803ZM275.291 449.439V451H273.73V449.439H275.291ZM276.852 449.439V451H275.291V449.439H276.852ZM278.413 449.439V451H276.852V449.439H278.413ZM279.974 449.439V451H278.413V449.439H279.974ZM281.535 447.878V449.439H279.974V447.878H281.535ZM281.535 446.317V447.878H279.974V446.317H281.535ZM281.535 449.439V451H279.974V449.439H281.535ZM279.974 447.878V449.439H278.413V447.878H279.974ZM278.413 447.878V449.439H276.852V447.878H278.413ZM276.852 447.878V449.439H275.291V447.878H276.852ZM275.291 447.878V449.439H273.73V447.878H275.291ZM275.291 446.317V447.878H273.73V446.317H275.291ZM275.291 444.756V446.317H273.73V444.756H275.291ZM276.852 444.756V446.317H275.291V444.756H276.852ZM278.413 444.756V446.317H276.852V444.756H278.413ZM279.974 444.756V446.317H278.413V444.756H279.974ZM281.535 444.756V446.317H279.974V444.756H281.535ZM279.974 446.317V447.878H278.413V446.317H279.974ZM278.413 446.317V447.878H276.852V446.317H278.413ZM276.852 446.317V447.878H275.291V446.317H276.852ZM281.535 427.585V429.146H279.974V427.585H281.535ZM279.974 427.585V429.146H278.413V427.585H279.974ZM276.852 427.585V429.146H275.291V427.585H276.852ZM276.852 429.146V430.707H275.291V429.146H276.852ZM276.852 430.707V432.268H275.291V430.707H276.852ZM275.291 432.268V433.829H273.73V432.268H275.291ZM275.291 433.829V435.39H273.73V433.829H275.291ZM275.291 435.39V436.951H273.73V435.39H275.291ZM275.291 436.951V438.512H273.73V436.951H275.291ZM275.291 438.512V440.073H273.73V438.512H275.291ZM275.291 440.073V441.634H273.73V440.073H275.291ZM275.291 441.634V443.195H273.73V441.634H275.291ZM275.291 443.195V444.756H273.73V443.195H275.291ZM276.852 443.195V444.756H275.291V443.195H276.852ZM278.413 443.195V444.756H276.852V443.195H278.413ZM279.974 443.195V444.756H278.413V443.195H279.974ZM281.535 443.195V444.756H279.974V443.195H281.535ZM281.535 441.634V443.195H279.974V441.634H281.535ZM281.535 438.512V440.073H279.974V438.512H281.535ZM281.535 436.951V438.512H279.974V436.951H281.535ZM281.535 435.39V436.951H279.974V435.39H281.535ZM281.535 433.829V435.39H279.974V433.829H281.535ZM281.535 432.268V433.829H279.974V432.268H281.535ZM281.535 430.707V432.268H279.974V430.707H281.535ZM281.535 429.146V430.707H279.974V429.146H281.535ZM279.974 435.39V436.951H278.413V435.39H279.974ZM279.974 438.512V440.073H278.413V438.512H279.974ZM279.974 440.073V441.634H278.413V440.073H279.974ZM279.974 441.634V443.195H278.413V441.634H279.974ZM281.535 440.073V441.634H279.974V440.073H281.535ZM279.974 432.268V433.829H278.413V432.268H279.974ZM278.413 432.268V433.829H276.852V432.268H278.413ZM276.852 432.268V433.829H275.291V432.268H276.852ZM276.852 433.829V435.39H275.291V433.829H276.852ZM276.852 435.39V436.951H275.291V435.39H276.852ZM276.852 436.951V438.512H275.291V436.951H276.852ZM276.852 438.512V440.073H275.291V438.512H276.852ZM276.852 440.073V441.634H275.291V440.073H276.852ZM276.852 441.634V443.195H275.291V441.634H276.852ZM278.413 441.634V443.195H276.852V441.634H278.413ZM278.413 440.073V441.634H276.852V440.073H278.413ZM278.413 438.512V440.073H276.852V438.512H278.413ZM278.413 436.951V438.512H276.852V436.951H278.413ZM278.413 435.39V436.951H276.852V435.39H278.413ZM278.413 433.829V435.39H276.852V433.829H278.413ZM279.974 433.829V435.39H278.413V433.829H279.974ZM279.974 436.951V438.512H278.413V436.951H279.974ZM279.974 430.707V432.268H278.413V430.707H279.974ZM279.974 429.146V430.707H278.413V429.146H279.974ZM278.413 429.146V430.707H276.852V429.146H278.413ZM278.413 430.707V432.268H276.852V430.707H278.413ZM275.291 430.707V432.268H273.73V430.707H275.291ZM275.291 429.146V430.707H273.73V429.146H275.291ZM275.291 427.585V429.146H273.73V427.585H275.291ZM278.413 427.585V429.146H276.852V427.585H278.413ZM275.291 421.341V422.902H273.73V421.341H275.291ZM275.291 422.902V424.463H273.73V422.902H275.291ZM276.852 422.902V424.463H275.291V422.902H276.852ZM278.413 422.902V424.463H276.852V422.902H278.413ZM278.413 424.463V426.024H276.852V424.463H278.413ZM279.974 424.463V426.024H278.413V424.463H279.974ZM279.974 426.024V427.585H278.413V426.024H279.974ZM278.413 426.024V427.585H276.852V426.024H278.413ZM276.852 426.024V427.585H275.291V426.024H276.852ZM276.852 424.463V426.024H275.291V424.463H276.852ZM275.291 424.463V426.024H273.73V424.463H275.291ZM273.73 424.463V426.024H272.169V424.463H273.73ZM273.73 426.024V427.585H272.169V426.024H273.73ZM275.291 426.024V427.585H273.73V426.024H275.291ZM273.73 427.585V429.146H272.169V427.585H273.73ZM272.169 426.024V427.585H270.608V426.024H272.169ZM272.169 424.463V426.024H270.608V424.463H272.169ZM272.169 422.902V424.463H270.608V422.902H272.169ZM272.169 421.341V422.902H270.608V421.341H272.169ZM273.73 421.341V422.902H272.169V421.341H273.73ZM273.73 422.902V424.463H272.169V422.902H273.73ZM270.608 421.341V422.902H269.047V421.341H270.608ZM270.608 422.902V424.463H269.047V422.902H270.608ZM270.608 424.463V426.024H269.047V424.463H270.608ZM270.608 426.024V427.585H269.047V426.024H270.608ZM269.047 421.341V422.902H267.486V421.341H269.047ZM269.047 422.902V424.463H267.486V422.902H269.047ZM267.486 422.902V424.463H265.925V422.902H267.486ZM267.486 424.463V426.024H265.925V424.463H267.486ZM265.925 424.463V426.024H264.364V424.463H265.925ZM265.925 426.024V427.585H264.364V426.024H265.925ZM267.486 426.024V427.585H265.925V426.024H267.486ZM269.047 426.024V427.585H267.486V426.024H269.047ZM269.047 424.463V426.024H267.486V424.463H269.047ZM265.925 427.585V429.146H264.364V427.585H265.925ZM267.486 421.341V422.902H265.925V421.341H267.486ZM265.925 422.902V424.463H264.364V422.902H265.925ZM308.101 427.585V429.146H306.54V427.585H308.101ZM306.54 427.585V429.146H304.979V427.585H306.54ZM304.979 427.585V429.146H303.418V427.585H304.979ZM303.418 427.585V429.146H301.857V427.585H303.418ZM301.857 426.024V427.585H300.296V426.024H301.857ZM303.418 426.024V427.585H301.857V426.024H303.418ZM304.979 426.024V427.585H303.418V426.024H304.979ZM306.54 426.024V427.585H304.979V426.024H306.54ZM308.101 426.024V427.585H306.54V426.024H308.101ZM308.101 424.463V426.024H306.54V424.463H308.101ZM306.54 424.463V426.024H304.979V424.463H306.54ZM304.979 424.463V426.024H303.418V424.463H304.979ZM303.418 424.463V426.024H301.857V424.463H303.418ZM301.857 424.463V426.024H300.296V424.463H301.857ZM304.979 422.902V424.463H303.418V422.902H304.979ZM306.54 422.902V424.463H304.979V422.902H306.54ZM303.418 422.902V424.463H301.857V422.902H303.418ZM303.418 421.341V422.902H301.857V421.341H303.418ZM301.857 421.341V422.902H300.296V421.341H301.857ZM301.857 422.902V424.463H300.296V422.902H301.857ZM300.296 422.902V424.463H298.735V422.902H300.296ZM300.296 421.341V422.902H298.735V421.341H300.296ZM300.296 424.463V426.024H298.735V424.463H300.296ZM298.735 424.463V426.024H297.174V424.463H298.735ZM298.735 426.024V427.585H297.174V426.024H298.735ZM300.296 426.024V427.585H298.735V426.024H300.296ZM297.174 426.024V427.585H295.613V426.024H297.174ZM297.174 424.463V426.024H295.613V424.463H297.174ZM297.174 422.902V424.463H295.613V422.902H297.174ZM297.174 421.341V422.902H295.613V421.341H297.174ZM298.735 421.341V422.902H297.174V421.341H298.735ZM298.735 422.902V424.463H297.174V422.902H298.735ZM295.613 421.341V422.902H294.052V421.341H295.613ZM294.052 421.341V422.902H292.491V421.341H294.052ZM292.491 421.341V422.902H290.93V421.341H292.491ZM292.491 422.902V424.463H290.93V422.902H292.491ZM292.491 424.463V426.024H290.93V424.463H292.491ZM292.491 426.024V427.585H290.93V426.024H292.491ZM294.052 426.024V427.585H292.491V426.024H294.052ZM295.613 426.024V427.585H294.052V426.024H295.613ZM295.613 424.463V426.024H294.052V424.463H295.613ZM295.613 422.902V424.463H294.052V422.902H295.613ZM294.052 422.902V424.463H292.491V422.902H294.052ZM294.052 424.463V426.024H292.491V424.463H294.052ZM290.93 424.463V426.024H289.369V424.463H290.93ZM290.93 422.902V424.463H289.369V422.902H290.93ZM289.369 422.902V424.463H287.808V422.902H289.369ZM289.369 424.463V426.024H287.808V424.463H289.369ZM287.808 424.463V426.024H286.247V424.463H287.808ZM287.808 426.024V427.585H286.247V426.024H287.808ZM287.808 427.585V429.146H286.247V427.585H287.808ZM289.369 427.585V429.146H287.808V427.585H289.369ZM289.369 426.024V427.585H287.808V426.024H289.369ZM290.93 426.024V427.585H289.369V426.024H290.93ZM290.93 427.585V429.146H289.369V427.585H290.93ZM292.491 427.585V429.146H290.93V427.585H292.491ZM294.052 427.585V429.146H292.491V427.585H294.052ZM286.247 427.585V429.146H284.686V427.585H286.247ZM286.247 429.146V430.707H284.686V429.146H286.247ZM286.247 430.707V432.268H284.686V430.707H286.247ZM286.247 441.634V443.195H284.686V441.634H286.247ZM287.808 441.634V443.195H286.247V441.634H287.808ZM287.808 443.195V444.756H286.247V443.195H287.808ZM286.247 443.195V444.756H284.686V443.195H286.247ZM289.369 443.195V444.756H287.808V443.195H289.369ZM290.93 443.195V444.756H289.369V443.195H290.93ZM292.491 443.195V444.756H290.93V443.195H292.491ZM294.052 443.195V444.756H292.491V443.195H294.052ZM292.491 441.634V443.195H290.93V441.634H292.491ZM292.491 430.707V432.268H290.93V430.707H292.491ZM292.491 429.146V430.707H290.93V429.146H292.491ZM290.93 429.146V430.707H289.369V429.146H290.93ZM289.369 429.146V430.707H287.808V429.146H289.369ZM287.808 429.146V430.707H286.247V429.146H287.808ZM287.808 430.707V432.268H286.247V430.707H287.808ZM289.369 441.634V443.195H287.808V441.634H289.369ZM290.93 441.634V443.195H289.369V441.634H290.93ZM289.369 430.707V432.268H287.808V430.707H289.369ZM290.93 430.707V432.268H289.369V430.707H290.93ZM303.418 440.073V441.634H301.857V440.073H303.418ZM303.418 441.634V443.195H301.857V441.634H303.418ZM304.979 441.634V443.195H303.418V441.634H304.979ZM306.54 441.634V443.195H304.979V441.634H306.54ZM308.101 441.634V443.195H306.54V441.634H308.101ZM309.662 441.634V443.195H308.101V441.634H309.662ZM309.662 440.073V441.634H308.101V440.073H309.662ZM308.101 440.073V441.634H306.54V440.073H308.101ZM306.54 440.073V441.634H304.979V440.073H306.54ZM304.979 440.073V441.634H303.418V440.073H304.979ZM309.662 443.195V444.756H308.101V443.195H309.662ZM308.101 443.195V444.756H306.54V443.195H308.101ZM306.54 443.195V444.756H304.979V443.195H306.54ZM304.979 443.195V444.756H303.418V443.195H304.979ZM303.418 443.195V444.756H301.857V443.195H303.418ZM301.857 443.195V444.756H300.296V443.195H301.857ZM301.857 444.756V446.317H300.296V444.756H301.857ZM303.418 444.756V446.317H301.857V444.756H303.418ZM304.979 444.756V446.317H303.418V444.756H304.979ZM306.54 444.756V446.317H304.979V444.756H306.54ZM306.54 446.317V447.878H304.979V446.317H306.54ZM308.101 446.317V447.878H306.54V446.317H308.101ZM308.101 444.756V446.317H306.54V444.756H308.101ZM306.54 447.878V449.439H304.979V447.878H306.54ZM304.979 447.878V449.439H303.418V447.878H304.979ZM304.979 446.317V447.878H303.418V446.317H304.979ZM303.418 446.317V447.878H301.857V446.317H303.418ZM303.418 447.878V449.439H301.857V447.878H303.418ZM303.418 449.439V451H301.857V449.439H303.418ZM301.857 449.439V451H300.296V449.439H301.857ZM300.296 449.439V451H298.735V449.439H300.296ZM298.735 449.439V451H297.174V449.439H298.735ZM297.174 449.439V451H295.613V449.439H297.174ZM295.613 449.439V451H294.052V449.439H295.613ZM294.052 449.439V451H292.491V449.439H294.052ZM292.491 449.439V451H290.93V449.439H292.491ZM294.052 447.878V449.439H292.491V447.878H294.052ZM295.613 447.878V449.439H294.052V447.878H295.613ZM297.174 447.878V449.439H295.613V447.878H297.174ZM298.735 447.878V449.439H297.174V447.878H298.735ZM300.296 447.878V449.439H298.735V447.878H300.296ZM301.857 447.878V449.439H300.296V447.878H301.857ZM301.857 446.317V447.878H300.296V446.317H301.857ZM300.296 446.317V447.878H298.735V446.317H300.296ZM298.735 446.317V447.878H297.174V446.317H298.735ZM297.174 446.317V447.878H295.613V446.317H297.174ZM295.613 446.317V447.878H294.052V446.317H295.613ZM294.052 446.317V447.878H292.491V446.317H294.052ZM292.491 447.878V449.439H290.93V447.878H292.491ZM290.93 447.878V449.439H289.369V447.878H290.93ZM289.369 447.878V449.439H287.808V447.878H289.369ZM289.369 446.317V447.878H287.808V446.317H289.369ZM287.808 446.317V447.878H286.247V446.317H287.808ZM287.808 444.756V446.317H286.247V444.756H287.808ZM289.369 444.756V446.317H287.808V444.756H289.369ZM290.93 444.756V446.317H289.369V444.756H290.93ZM292.491 444.756V446.317H290.93V444.756H292.491ZM294.052 444.756V446.317H292.491V444.756H294.052ZM295.613 444.756V446.317H294.052V444.756H295.613ZM297.174 444.756V446.317H295.613V444.756H297.174ZM298.735 444.756V446.317H297.174V444.756H298.735ZM300.296 444.756V446.317H298.735V444.756H300.296ZM292.491 446.317V447.878H290.93V446.317H292.491ZM290.93 446.317V447.878H289.369V446.317H290.93ZM306.54 436.951V438.512H304.979V436.951H306.54ZM309.662 438.512V440.073H308.101V438.512H309.662ZM308.101 438.512V440.073H306.54V438.512H308.101ZM306.54 438.512V440.073H304.979V438.512H306.54ZM304.979 438.512V440.073H303.418V438.512H304.979ZM304.979 436.951V438.512H303.418V436.951H304.979ZM303.418 436.951V438.512H301.857V436.951H303.418ZM303.418 438.512V440.073H301.857V438.512H303.418ZM294.052 430.707V432.268H292.491V430.707H294.052ZM287.808 432.268V433.829H286.247V432.268H287.808ZM287.808 433.829V435.39H286.247V433.829H287.808ZM289.369 433.829V435.39H287.808V433.829H289.369ZM289.369 435.39V436.951H287.808V435.39H289.369ZM290.93 435.39V436.951H289.369V435.39H290.93ZM292.491 436.951V438.512H290.93V436.951H292.491ZM292.491 435.39V436.951H290.93V435.39H292.491ZM292.491 433.829V435.39H290.93V433.829H292.491ZM292.491 432.268V433.829H290.93V432.268H292.491ZM290.93 432.268V433.829H289.369V432.268H290.93ZM290.93 433.829V435.39H289.369V433.829H290.93ZM289.369 432.268V433.829H287.808V432.268H289.369ZM294.052 436.951V438.512H292.491V436.951H294.052ZM295.613 436.951V438.512H294.052V436.951H295.613ZM297.174 436.951V438.512H295.613V436.951H297.174ZM298.735 436.951V438.512H297.174V436.951H298.735ZM298.735 435.39V436.951H297.174V435.39H298.735ZM297.174 435.39V436.951H295.613V435.39H297.174ZM295.613 435.39V436.951H294.052V435.39H295.613ZM294.052 435.39V436.951H292.491V435.39H294.052ZM294.052 433.829V435.39H292.491V433.829H294.052ZM294.052 432.268V433.829H292.491V432.268H294.052ZM295.613 432.268V433.829H294.052V432.268H295.613ZM297.174 432.268V433.829H295.613V432.268H297.174ZM298.735 432.268V433.829H297.174V432.268H298.735ZM298.735 433.829V435.39H297.174V433.829H298.735ZM297.174 433.829V435.39H295.613V433.829H297.174ZM295.613 433.829V435.39H294.052V433.829H295.613ZM300.296 432.268V433.829H298.735V432.268H300.296ZM301.857 432.268V433.829H300.296V432.268H301.857ZM301.857 433.829V435.39H300.296V433.829H301.857ZM301.857 435.39V436.951H300.296V435.39H301.857ZM301.857 436.951V438.512H300.296V436.951H301.857ZM300.296 436.951V438.512H298.735V436.951H300.296ZM300.296 435.39V436.951H298.735V435.39H300.296ZM300.296 433.829V435.39H298.735V433.829H300.296ZM301.857 438.512V440.073H300.296V438.512H301.857ZM303.418 432.268V433.829H301.857V432.268H303.418ZM308.101 436.951V438.512H306.54V436.951H308.101ZM308.101 435.39V436.951H306.54V435.39H308.101ZM306.54 433.829V435.39H304.979V433.829H306.54ZM304.979 433.829V435.39H303.418V433.829H304.979ZM303.418 433.829V435.39H301.857V433.829H303.418ZM303.418 435.39V436.951H301.857V435.39H303.418ZM304.979 435.39V436.951H303.418V435.39H304.979ZM306.54 435.39V436.951H304.979V435.39H306.54ZM301.857 427.585V429.146H300.296V427.585H301.857Z" fill="#5D5D5D"/>
</svg>
